<svg width="276" height="58" viewBox="0 0 276 58" fill="none" xmlns="http://www.w3.org/2000/svg">
<path d="M14.1147 43.647C16.8888 44.7871 19.862 45.374 22.8646 45.374V57.1713C26.6479 57.1713 30.3942 56.432 33.8895 54.9954C37.3848 53.5589 40.5608 51.4532 43.236 48.7988C45.9112 46.1444 48.0333 42.993 49.4811 39.5248C50.9289 36.0566 51.674 32.3396 51.674 28.5856C51.674 24.8317 50.9289 21.1147 49.4811 17.6465C48.0333 14.1783 45.9112 11.0269 43.236 8.37248C40.5608 5.71806 37.3848 3.61242 33.8895 2.17587C30.3942 0.739322 26.6479 0 22.8646 0C19.862 0 16.8888 0.586894 14.1147 1.72701C11.3407 2.86712 8.82007 4.53829 6.69689 6.64482C4.57371 8.75156 2.88953 11.2525 1.74047 14.005C0.591404 16.7576 0 19.7078 0 22.687C0 25.6662 0.591404 28.6164 1.74047 31.369C2.88951 34.1216 4.57371 36.6225 6.69689 38.7292C8.82007 40.8357 11.3407 42.5069 14.1147 43.647Z" fill="#8CA1C6"/>
<path d="M73.6631 48.4044L89.3632 8.81772H97.3254L112.857 48.4044H103.549L91.6621 15.5463H94.8582L82.8028 48.4044H73.6631ZM82.5785 41.2273V34.0501H104.166V41.2273H82.5785Z" fill="#8CA1C6"/>
<path d="M129.507 49.0212C127.003 49.0212 124.778 48.5166 122.835 47.5073C120.928 46.4606 119.433 45.0401 118.349 43.2458C117.265 41.4142 116.723 39.3208 116.723 36.9658V21.1535H125.302V36.8536C125.302 37.7882 125.451 38.5919 125.75 39.2647C126.087 39.9376 126.573 40.4609 127.208 40.8347C127.844 41.2086 128.61 41.3955 129.507 41.3955C130.778 41.3955 131.787 41.003 132.535 40.218C133.283 39.3956 133.656 38.2741 133.656 36.8536V21.1535H142.235V36.9097C142.235 39.3021 141.693 41.4142 140.609 43.2458C139.525 45.0401 138.03 46.4606 136.124 47.5073C134.217 48.5166 132.012 49.0212 129.507 49.0212Z" fill="#8CA1C6"/>
<path d="M160.911 48.9652C158.332 48.9652 156.033 48.3484 154.014 47.1148C152.033 45.8812 150.463 44.1991 149.304 42.0683C148.183 39.9376 147.622 37.5078 147.622 34.779C147.622 32.0502 148.183 29.6204 149.304 27.4896C150.463 25.3589 152.033 23.6768 154.014 22.4432C156.033 21.2096 158.332 20.5928 160.911 20.5928C162.78 20.5928 164.462 20.9479 165.957 21.6582C167.49 22.3684 168.742 23.359 169.714 24.63C170.723 25.8636 171.284 27.2841 171.396 28.8914V40.3862C171.284 41.9936 170.742 43.4514 169.77 44.7598C168.798 46.0307 167.546 47.0587 166.013 47.8437C164.481 48.5913 162.78 48.9652 160.911 48.9652ZM162.425 41.2273C163.658 41.2273 164.724 40.9656 165.621 40.4422C166.518 39.8815 167.228 39.1152 167.752 38.1433C168.275 37.1714 168.537 36.0499 168.537 34.779C168.537 33.508 168.275 32.4053 167.752 31.4707C167.266 30.4988 166.555 29.7325 165.621 29.1718C164.724 28.6111 163.677 28.3307 162.481 28.3307C161.285 28.3307 160.219 28.6111 159.285 29.1718C158.388 29.7325 157.659 30.4988 157.098 31.4707C156.575 32.4427 156.313 33.5454 156.313 34.779C156.313 36.0126 156.575 37.1153 157.098 38.0872C157.621 39.0591 158.35 39.8255 159.285 40.3862C160.219 40.9469 161.266 41.2273 162.425 41.2273ZM176.611 48.4044H168.2V41.059L169.49 34.4426L168.032 27.8261V7.69629H176.611V48.4044Z" fill="#8CA1C6"/>
<path d="M184.334 48.4044V21.1535H192.913V48.4044H184.334ZM188.651 17.3967C187.305 17.3967 186.184 16.9481 185.287 16.051C184.427 15.1165 183.997 13.995 183.997 12.6867C183.997 11.341 184.427 10.2195 185.287 9.32237C186.184 8.42522 187.305 7.97665 188.651 7.97665C189.997 7.97665 191.1 8.42522 191.959 9.32237C192.819 10.2195 193.249 11.341 193.249 12.6867C193.249 13.995 192.819 15.1165 191.959 16.051C191.1 16.9481 189.997 17.3967 188.651 17.3967Z" fill="#8CA1C6"/>
<path d="M212.748 49.0212C210.243 49.0212 208.019 48.5166 206.075 47.5073C204.169 46.4606 202.673 45.0401 201.589 43.2458C200.505 41.4142 199.963 39.3208 199.963 36.9658V21.1535H208.542V36.8536C208.542 37.7882 208.692 38.5919 208.991 39.2647C209.327 39.9376 209.813 40.4609 210.449 40.8347C211.084 41.2086 211.85 41.3955 212.748 41.3955C214.018 41.3955 215.028 41.003 215.775 40.218C216.523 39.3956 216.897 38.2741 216.897 36.8536V21.1535H225.476V36.9097C225.476 39.3021 224.934 41.4142 223.85 43.2458C222.766 45.0401 221.27 46.4606 219.364 47.5073C217.458 48.5166 215.252 49.0212 212.748 49.0212Z" fill="#8CA1C6"/>
<path d="M232.544 48.4044V21.1535H241.123V48.4044H232.544ZM249.983 48.4044V32.48C249.983 31.0969 249.553 30.0316 248.693 29.2839C247.871 28.4989 246.843 28.1064 245.609 28.1064C244.749 28.1064 243.983 28.2933 243.31 28.6672C242.637 29.0036 242.095 29.4895 241.684 30.125C241.31 30.7605 241.123 31.5455 241.123 32.48L237.815 31.0222C237.815 28.8541 238.282 27.0037 239.217 25.4711C240.151 23.901 241.422 22.7049 243.03 21.8825C244.637 21.0227 246.45 20.5928 248.469 20.5928C250.375 20.5928 252.076 21.0227 253.571 21.8825C255.104 22.7422 256.319 23.9384 257.216 25.4711C258.113 27.0037 258.562 28.8354 258.562 30.9661V48.4044H249.983ZM267.421 48.4044V32.48C267.421 31.0969 266.991 30.0316 266.131 29.2839C265.309 28.4989 264.281 28.1064 263.047 28.1064C262.188 28.1064 261.421 28.2933 260.749 28.6672C260.076 29.0036 259.534 29.4895 259.122 30.125C258.749 30.7605 258.562 31.5455 258.562 32.48L253.627 31.8072C253.702 29.4895 254.244 27.5083 255.253 25.8636C256.3 24.1814 257.665 22.8918 259.347 21.9946C261.066 21.0601 262.991 20.5928 265.122 20.5928C267.215 20.5928 269.066 21.0414 270.673 21.9385C272.318 22.7983 273.608 24.0506 274.542 25.6953C275.514 27.3027 276 29.2466 276 31.5268V48.4044H267.421Z" fill="#8CA1C6"/>
</svg>
