<svg width="276" height="150" viewBox="0 0 276 150" fill="none" xmlns="http://www.w3.org/2000/svg">
<path d="M12.4928 79.3796L18.8764 88.6286H18.949V79.3796H31.2084V107.272H21.9231L16.0473 98.6574H15.9748V107.054H3.73348V79.3796H12.4928Z" fill="#8CA1C6"/>
<path d="M48.1003 92.4551C48.1003 93.3256 48.3602 94.0268 48.8801 94.5588C49.4121 95.0908 50.0649 95.3567 50.8387 95.3567C51.6125 95.3567 52.2653 95.0908 52.7973 94.5588C53.3293 94.0026 53.5953 93.3014 53.5953 92.4551C53.5953 92.0319 53.5227 91.6451 53.3776 91.2944C53.2446 90.9317 53.0573 90.6234 52.8154 90.3695C52.5736 90.1156 52.2774 89.9162 51.9268 89.7711C51.5883 89.626 51.2195 89.5535 50.8206 89.5535C50.0468 89.5535 49.4 89.8255 48.8801 90.3695C48.3602 90.9015 48.1003 91.5967 48.1003 92.4551ZM50.8387 78.9443C53.4502 78.9443 55.8501 79.5851 58.0384 80.8667C60.2267 82.1482 61.9375 83.8771 63.1707 86.0534C64.416 88.2175 65.0386 90.5993 65.0386 93.1986C65.0386 95.7859 64.416 98.1798 63.1707 100.38C61.9375 102.581 60.2267 104.322 58.0384 105.603C55.838 106.873 53.4381 107.507 50.8387 107.507C48.2393 107.507 45.8455 106.873 43.6571 105.603C41.493 104.346 39.7822 102.611 38.5249 100.398C37.2796 98.1979 36.6569 95.798 36.6569 93.1986C36.6569 90.6597 37.2675 88.29 38.4886 86.0896C39.7097 83.9134 41.4205 82.1785 43.6209 80.8848C45.8213 79.5912 48.2272 78.9443 50.8387 78.9443Z" fill="#8CA1C6"/>
<path d="M88.8219 79.3796C90.7926 79.3796 92.5457 79.7544 94.0811 80.504C95.6166 81.2415 96.7712 82.251 97.545 83.5326C98.3187 84.7899 98.7056 86.1682 98.7056 87.6674C98.7056 88.9489 98.4336 90.1096 97.8895 91.1494C97.3576 92.1891 96.5777 93.0717 95.5501 93.7971C97.0613 95.5018 98.2583 97.4665 99.1409 99.6911C100.036 101.904 100.622 104.358 100.9 107.054H88.1872C87.9333 103.403 87.3953 100.785 86.5731 99.2014C85.751 97.6055 84.5178 96.8076 82.8735 96.8076H82.801V107.054H70.5597V79.3796H88.8219ZM82.801 90.4058H83.0912C84.2639 90.4058 85.1163 90.2003 85.6482 89.7892C86.1802 89.3781 86.4462 88.7192 86.4462 87.8125C86.4462 86.9783 86.1983 86.3133 85.7026 85.8176C85.2069 85.3219 84.4815 85.074 83.5264 85.074H82.801V90.4058Z" fill="#8CA1C6"/>
<path d="M127.512 79.3796V91.639H121.346V107.054H109.087V91.639H102.921V79.3796H127.512Z" fill="#8CA1C6"/>
<path d="M144.15 79.3796V89.5172H150.389V79.3796H162.648V107.054H150.389V96.7713H144.15V107.054H131.891V79.3796H144.15Z" fill="#8CA1C6"/>
<path d="M181.263 78.9443C182.206 78.9443 183.161 78.9927 184.128 79.0894C185.096 79.174 186.093 79.301 187.121 79.4703C188.148 79.6395 189.098 79.833 189.968 80.0506C190.838 80.2682 191.636 80.5161 192.362 80.7941L189.315 89.5172C188.36 88.2356 187.296 87.2442 186.123 86.543C184.951 85.8297 183.723 85.473 182.442 85.473C181.68 85.473 181.13 85.6302 180.792 85.9445C180.453 86.2468 180.284 86.6276 180.284 87.0871C180.284 87.5223 180.61 87.9394 181.263 88.3384C181.928 88.7374 182.95 89.1968 184.328 89.7167C187.919 91.0345 190.24 92.3463 191.292 93.652C192.32 94.9336 192.833 96.5174 192.833 98.4035C192.833 101.341 191.715 103.596 189.478 105.168C187.254 106.728 183.935 107.507 179.522 107.507C177.225 107.507 175.043 107.35 172.975 107.036C170.908 106.721 168.877 106.183 166.882 105.422L169.874 96.1728C170.72 97.5027 171.79 98.5727 173.084 99.3828C174.366 100.193 175.605 100.598 176.802 100.598C177.394 100.598 177.884 100.453 178.271 100.163C178.67 99.8603 178.869 99.4855 178.869 99.0382C178.869 98.5062 178.591 98.0468 178.035 97.6599C177.491 97.2609 176.639 96.8378 175.478 96.3904C172.625 95.3144 170.666 94.1477 169.602 92.8903C168.55 91.6209 168.024 90.0673 168.024 88.2296C168.024 85.1466 169.137 82.8313 171.361 81.2838C173.586 79.7242 176.886 78.9443 181.263 78.9443Z" fill="#8CA1C6"/>
<path d="M209.671 79.3796V107.054H197.43V79.3796H209.671Z" fill="#8CA1C6"/>
<path d="M230.154 79.3796C233.104 79.3796 235.733 79.9599 238.042 81.1206C240.352 82.2812 242.141 83.9678 243.41 86.1803C244.68 88.3807 245.315 90.7443 245.315 93.2712C245.315 95.8464 244.662 98.2281 243.356 100.416C242.074 102.581 240.255 104.231 237.897 105.367C235.552 106.492 232.88 107.054 229.882 107.054H216.316V79.3796H230.154ZM228.558 96.463H228.884C230.359 96.463 231.423 96.2091 232.076 95.7013C232.729 95.1814 233.055 94.3351 233.055 93.1624C233.055 92.1347 232.741 91.3488 232.112 90.8048C231.496 90.2486 230.546 89.9706 229.265 89.9706H228.558V96.463Z" fill="#8CA1C6"/>
<path d="M273.233 79.3796V86.3254H262.497V89.7529H269.968V96.6987H262.497V100.108H273.233V107.054H250.255V79.3796H273.233Z" fill="#8CA1C6"/>
<path d="M14.7844 123.776L26.4816 149.293H24.4323L20.4244 140.533H8.0562L4.04831 149.293H1.99902L13.6963 123.776H14.7844ZM19.6809 138.901L14.2222 126.968L8.79974 138.901H19.6809Z" fill="#8CA1C6"/>
<path d="M54.9104 123.958H56.869V137.777C56.869 141.561 55.8837 144.481 53.913 146.536C51.9423 148.592 49.3913 149.619 46.2599 149.619C43.1407 149.619 40.5957 148.604 38.625 146.572C36.6543 144.541 35.6689 141.761 35.6689 138.23V123.958H37.6457V138.158C37.6457 141.18 38.4436 143.544 40.0395 145.249C41.6475 146.953 43.721 147.806 46.2599 147.806C48.823 147.806 50.9025 146.947 52.4984 145.23C54.1064 143.502 54.9104 141.053 54.9104 137.886V123.958Z" fill="#8CA1C6"/>
<path d="M69.5927 123.958H78.4609C82.9463 123.958 86.3678 125.137 88.7254 127.494C91.0951 129.852 92.2799 132.898 92.2799 136.634C92.2799 140.298 91.1072 143.326 88.7617 145.72C86.4283 148.102 83.1095 149.293 78.8054 149.293H69.5927V123.958ZM71.5513 125.59V147.661H78.6966C81.9731 147.661 84.6994 146.657 86.8756 144.65C89.0639 142.631 90.1581 139.959 90.1581 136.634C90.1581 133.382 89.0821 130.728 86.93 128.673C84.778 126.618 81.9912 125.59 78.5697 125.59H71.5513Z" fill="#8CA1C6"/>
<path d="M106.436 123.958V149.293H104.478V123.958H106.436Z" fill="#8CA1C6"/>
<path d="M132 123.631C135.748 123.631 138.921 124.895 141.521 127.422C144.132 129.936 145.438 133.007 145.438 136.634C145.438 140.249 144.132 143.32 141.521 145.847C138.921 148.362 135.748 149.619 132 149.619C128.264 149.619 125.096 148.362 122.497 145.847C119.91 143.32 118.616 140.249 118.616 136.634C118.616 133.007 119.91 129.936 122.497 127.422C125.096 124.895 128.264 123.631 132 123.631ZM132.072 147.806C135.228 147.806 137.888 146.73 140.052 144.578C142.228 142.413 143.316 139.766 143.316 136.634C143.316 133.491 142.228 130.843 140.052 128.691C137.888 126.527 135.228 125.445 132.072 125.445C128.905 125.445 126.221 126.527 124.02 128.691C121.832 130.843 120.738 133.491 120.738 136.634C120.738 139.766 121.832 142.413 124.02 144.578C126.221 146.73 128.905 147.806 132.072 147.806Z" fill="#8CA1C6"/>
<path d="M159.631 123.958V147.661H172.162V149.293H157.672V123.958H159.631Z" fill="#8CA1C6"/>
<path d="M194.878 123.631C198.626 123.631 201.8 124.895 204.399 127.422C207.011 129.936 208.317 133.007 208.317 136.634C208.317 140.249 207.011 143.32 204.399 145.847C201.8 148.362 198.626 149.619 194.878 149.619C191.142 149.619 187.975 148.362 185.375 145.847C182.788 143.32 181.494 140.249 181.494 136.634C181.494 133.007 182.788 129.936 185.375 127.422C187.975 124.895 191.142 123.631 194.878 123.631ZM194.951 147.806C198.106 147.806 200.766 146.73 202.93 144.578C205.107 142.413 206.195 139.766 206.195 136.634C206.195 133.491 205.107 130.843 202.93 128.691C200.766 126.527 198.106 125.445 194.951 125.445C191.783 125.445 189.099 126.527 186.899 128.691C184.71 130.843 183.616 133.491 183.616 136.634C183.616 139.766 184.71 142.413 186.899 144.578C189.099 146.73 191.783 147.806 194.951 147.806Z" fill="#8CA1C6"/>
<path d="M241.751 125.789V128.002C238.752 126.297 235.76 125.445 232.774 125.445C229.57 125.445 226.904 126.509 224.776 128.637C222.648 130.765 221.584 133.43 221.584 136.634C221.584 139.838 222.636 142.504 224.74 144.632C226.843 146.748 229.703 147.806 233.318 147.806C235.929 147.806 238.244 147.286 240.264 146.246V139.409H234.914V137.777H242.24V147.479C239.254 148.906 236.256 149.619 233.245 149.619C229.316 149.619 226.033 148.374 223.398 145.883C220.774 143.393 219.462 140.286 219.462 136.562C219.462 132.862 220.75 129.785 223.325 127.331C225.913 124.865 229.159 123.631 233.064 123.631C235.724 123.631 238.619 124.351 241.751 125.789Z" fill="#8CA1C6"/>
<path d="M273.426 123.958L263.578 135.691V149.293H261.62V135.691L251.772 123.958H254.148L262.617 133.987L271.05 123.958H273.426Z" fill="#8CA1C6"/>
<path d="M276 72.7999C244.506 63.9698 194.414 58.26 138 58.26C81.5864 58.26 31.4942 63.9698 0 72.7999C19.4657 58.4172 73.8967 48.0645 138 48.0645C202.103 48.0645 256.534 58.4172 276 72.7999Z" fill="#8CA1C6"/>
<path d="M239.596 41.3148C216.328 34.8852 179.319 30.7276 137.64 30.7276C95.9613 30.7276 58.9528 34.8852 35.6846 41.3148C50.066 30.8421 90.2801 23.3037 137.64 23.3037C185 23.3037 225.214 30.8421 239.596 41.3148Z" fill="#8CA1C6"/>
<path d="M195.901 9.83297C182.605 6.32278 161.457 4.053 137.64 4.053C113.824 4.053 92.676 6.32278 79.3799 9.83297C87.5978 4.11548 110.577 0 137.64 0C164.703 0 187.683 4.11548 195.901 9.83297Z" fill="#8CA1C6"/>
</svg>
