<svg width="276" height="47" viewBox="0 0 276 47" fill="none" xmlns="http://www.w3.org/2000/svg">
<path d="M47.8552 32.2587C47.2707 32.2587 46.9785 32.0908 46.9785 31.755C46.9785 31.4917 47.1404 31.3601 47.464 31.3601L48.1249 31.4282C48.6644 31.4282 49.0285 31.1241 49.2173 30.5159C49.3702 29.9985 49.4466 29.0727 49.4466 27.7383V18.1256C49.4466 16.7913 49.3837 15.9198 49.2578 15.5114C49.1319 15.0938 48.9791 14.8124 48.7992 14.6672C48.6284 14.5129 48.4036 14.4357 48.1249 14.4357L47.464 14.4902C47.1404 14.4902 46.9785 14.3586 46.9785 14.0953C46.9785 13.7595 47.2258 13.5915 47.7203 13.5915C48.2148 13.5915 48.6464 13.6279 49.015 13.7005C49.3837 13.7731 49.7478 13.8094 50.1075 13.8094C51.0606 13.8094 51.8518 13.764 52.4812 13.6732C53.4343 13.5371 54.5267 13.469 55.7585 13.469C56.9993 13.469 58.2311 13.6914 59.4539 14.1362C60.6857 14.581 61.7422 15.2118 62.6233 16.0288C64.5025 17.7625 65.4421 20.0409 65.4421 22.8639C65.4421 25.5416 64.5205 27.7701 62.6773 29.5492C60.7711 31.4009 58.2716 32.3268 55.1786 32.3268C54.4323 32.3268 53.7085 32.295 53.0072 32.2315C51.7034 32.1135 50.7593 32.0545 50.1749 32.0545L47.8552 32.2587ZM51.5641 25.7776C51.5641 27.3934 51.6045 28.8957 51.6854 30.2845C52.8813 30.9108 54.2255 31.2239 55.718 31.2239C56.806 31.2239 57.9344 30.9652 59.1033 30.4478C60.9555 29.6309 62.1648 28.1695 62.7312 26.0636C62.938 25.3192 63.0414 24.3571 63.0414 23.177C63.0414 21.9879 62.8391 20.8397 62.4345 19.7323C62.0389 18.6158 61.4814 17.6763 60.7621 16.9138C59.2966 15.3434 57.323 14.5583 54.8414 14.5583C53.0701 14.5583 52.0541 14.7943 51.7933 15.2663C51.6585 15.5204 51.5865 15.8109 51.5776 16.1377C51.5686 16.4554 51.5641 16.7686 51.5641 17.0772V25.7776Z" fill="#8CA1C6"/>
<path d="M68.3822 32.2587C67.7798 32.2587 67.4786 32.0908 67.4786 31.755C67.4786 31.4917 67.645 31.3601 67.9776 31.3601L68.652 31.4282C68.8588 31.4282 69.0296 31.3919 69.1645 31.3193C69.2994 31.2376 69.4028 31.0696 69.4747 30.8155C69.6185 30.3525 69.6905 29.3268 69.6905 27.7383V23.6672C69.6905 22.7413 69.632 22.1649 69.5151 21.938C69.4073 21.702 69.2724 21.5431 69.1105 21.4615C68.9577 21.3707 68.7014 21.2981 68.3418 21.2436C67.9911 21.1891 67.8158 21.0484 67.8158 20.8215C67.8158 20.6127 68.0451 20.463 68.5036 20.3722C69.5736 20.1453 70.3109 19.9183 70.7155 19.6914C71.264 19.3737 71.6371 19.2149 71.8349 19.2149C72.0417 19.2149 72.1451 19.3192 72.1451 19.528C72.1451 19.6279 72.1226 19.7323 72.0777 19.8412C72.0417 19.9501 72.0012 20.0817 71.9563 20.236C71.8843 20.5447 71.8304 21.1256 71.7944 21.9789C72.5767 20.6536 73.5208 19.8276 74.6267 19.5008C74.9504 19.4009 75.31 19.351 75.7056 19.351C76.1102 19.351 76.4654 19.4962 76.7711 19.7867C77.0858 20.0772 77.2431 20.3858 77.2431 20.7126C77.2431 21.0394 77.2072 21.2799 77.1353 21.4342C77.0633 21.5885 76.9734 21.7202 76.8655 21.8291C76.6317 22.0651 76.4204 22.1831 76.2316 22.1831C76.0518 22.1831 75.9124 22.1377 75.8135 22.0469C75.7146 21.9471 75.6022 21.7701 75.4764 21.5159C75.2516 21.0621 74.9998 20.8351 74.7211 20.8351C74.4424 20.8351 74.1771 20.8987 73.9254 21.0257C73.6736 21.1438 73.4219 21.3253 73.1701 21.5704C72.6216 22.0878 72.1586 22.7913 71.7809 23.6808V27.7383C71.7809 29.463 71.8259 30.4796 71.9158 30.7882C72.0147 31.0878 72.1316 31.2693 72.2665 31.3329C72.4103 31.3873 72.6037 31.4146 72.8464 31.4146L74.0468 31.3056C74.2266 31.3056 74.3704 31.351 74.4783 31.4418C74.5862 31.5235 74.6402 31.6279 74.6402 31.755C74.6402 32.0908 74.312 32.2587 73.6556 32.2587L70.8099 32.0545C70.3513 32.0545 69.9153 32.0863 69.5017 32.1498C69.0971 32.2224 68.7239 32.2587 68.3822 32.2587Z" fill="#8CA1C6"/>
<path d="M80.7902 32.3949C80.3137 32.3949 79.9405 32.2497 79.6708 31.9592C79.4011 31.6596 79.2662 31.3419 79.2662 31.0061C79.2662 30.6612 79.3066 30.3979 79.3876 30.2164C79.4775 30.0258 79.5989 29.8624 79.7517 29.7262C80.0574 29.4448 80.4306 29.3041 80.8711 29.3041C81.3207 29.3041 81.6803 29.4494 81.9501 29.7398C82.2288 30.0303 82.3682 30.3389 82.3682 30.6657C82.3682 30.9925 82.3322 31.2512 82.2603 31.4418C82.1883 31.6233 82.0805 31.7867 81.9366 31.932C81.6489 32.2406 81.2667 32.3949 80.7902 32.3949Z" fill="#8CA1C6"/>
<path d="M94.2232 32.0545C93.7646 32.0545 93.333 32.0863 92.9284 32.1498C92.5328 32.2224 92.1012 32.2587 91.6337 32.2587C91.1751 32.2587 90.9459 32.109 90.9459 31.8094C90.9459 31.5008 91.1571 31.3465 91.5797 31.3465C92.0203 31.3465 92.335 31.2648 92.5238 31.1014C92.8295 30.82 93.1307 30.3616 93.4274 29.7262C93.7242 29.0908 93.9984 28.4963 94.2501 27.9425C94.5109 27.3888 94.8076 26.7444 95.1403 26.0091C95.473 25.2648 95.8371 24.4388 96.2327 23.531C96.6373 22.6143 97.0599 21.643 97.5005 20.6173C98.6514 17.9214 99.4111 16.1105 99.7798 15.1846C100.148 14.2496 100.351 13.7322 100.387 13.6324C100.432 13.5325 100.477 13.4418 100.522 13.3601C100.638 13.1695 100.737 13.0742 100.818 13.0742C100.899 13.0742 100.967 13.0878 101.021 13.115C101.075 13.1332 101.133 13.174 101.196 13.2375C101.331 13.41 101.466 13.6687 101.601 14.0136C101.735 14.3495 101.915 14.8079 102.14 15.3888C102.374 15.9698 102.639 16.6279 102.936 17.3631C103.232 18.0984 103.547 18.8881 103.88 19.7323C104.212 20.5764 104.545 21.4206 104.878 22.2648C105.22 23.0999 105.548 23.9123 105.862 24.702C106.186 25.4917 106.474 26.2043 106.726 26.8397C107.499 28.7368 107.993 29.8714 108.209 30.2436C108.425 30.6158 108.605 30.8745 108.749 31.0197C108.973 31.2376 109.306 31.3465 109.747 31.3465C110.187 31.3465 110.407 31.5008 110.407 31.8094C110.407 32.109 110.124 32.2587 109.558 32.2587C109.315 32.2587 109.104 32.2451 108.924 32.2179C108.753 32.1997 108.578 32.1816 108.398 32.1634C107.876 32.0908 107.413 32.0545 107.009 32.0545L104.406 32.2587C103.821 32.2587 103.529 32.0908 103.529 31.755C103.529 31.4826 103.691 31.3465 104.015 31.3465L104.824 31.4418C105.166 31.4418 105.39 31.3692 105.498 31.2239C105.606 31.0696 105.66 30.879 105.66 30.6521C105.66 30.2255 105.48 29.5628 105.121 28.6642L104.001 25.8321H96.5159C96.3002 26.3767 96.0979 26.876 95.909 27.3298C95.7292 27.7837 95.5629 28.2239 95.41 28.6506C95.1673 29.3404 95.0459 29.8851 95.0459 30.2845C95.0459 30.6748 95.1133 30.9652 95.2482 31.1559C95.392 31.3374 95.6573 31.4282 96.0439 31.4282L96.8531 31.3601C97.1768 31.3601 97.3386 31.4917 97.3386 31.755C97.3386 32.0908 97.0464 32.2587 96.462 32.2587L94.2232 32.0545ZM103.543 24.6748L100.333 16.5598C99.7123 18.1483 98.6019 20.8533 97.0015 24.6748H103.543Z" fill="#8CA1C6"/>
<path d="M124.933 30.2572C125.194 30.2572 125.324 30.3752 125.324 30.6112C125.324 30.7383 125.266 30.8472 125.149 30.938C125.041 31.0288 124.87 31.1241 124.636 31.2239C124.402 31.3147 124.218 31.3919 124.083 31.4554C123.948 31.519 123.822 31.5825 123.706 31.646C123.517 31.7459 123.31 31.873 123.085 32.0273C122.708 32.2724 122.447 32.3949 122.303 32.3949C122.168 32.3949 122.042 32.3586 121.925 32.286C121.817 32.2224 121.705 32.0999 121.588 31.9183C121.318 31.4917 121.175 30.8654 121.157 30.0394C120.392 31.1286 119.412 31.823 118.216 32.1226C117.848 32.2134 117.416 32.2587 116.922 32.2587C116.427 32.2587 115.915 32.177 115.384 32.0137C114.863 31.8412 114.413 31.5643 114.035 31.1831C113.226 30.3934 112.822 29.1952 112.822 27.5885V23.6672C112.822 22.7958 112.768 22.2285 112.66 21.9652C112.561 21.702 112.448 21.525 112.323 21.4342C112.206 21.3434 112.048 21.2799 111.851 21.2436C111.446 21.1528 111.244 21.0031 111.244 20.7943C111.244 20.5674 111.473 20.4085 111.931 20.3177C112.948 20.109 113.622 19.9047 113.955 19.705C114.431 19.4327 114.759 19.2965 114.939 19.2965C115.119 19.2965 115.209 19.4009 115.209 19.6097C115.209 19.7096 115.186 19.8139 115.141 19.9229C114.962 20.413 114.867 21.0212 114.858 21.7474C114.849 22.4736 114.845 23.0772 114.845 23.5583V27.0439C114.845 28.932 115.447 30.0848 116.652 30.5023C117.012 30.6203 117.367 30.6793 117.717 30.6793C118.068 30.6793 118.396 30.6385 118.702 30.5568C119.017 30.466 119.322 30.3298 119.619 30.1483C120.257 29.7398 120.765 29.1407 121.143 28.351L121.184 23.3677C121.184 22.5961 121.116 22.1014 120.981 21.8835C120.846 21.6566 120.698 21.5068 120.536 21.4342C120.374 21.3616 120.118 21.2981 119.767 21.2436C119.426 21.1891 119.255 21.0439 119.255 20.8079C119.255 20.5991 119.471 20.4493 119.902 20.3586C120.343 20.2678 120.747 20.1589 121.116 20.0318C121.485 19.8956 121.808 19.7686 122.087 19.6506C122.375 19.5326 122.609 19.4327 122.788 19.351C122.977 19.2602 123.108 19.2149 123.18 19.2149C123.386 19.2149 123.49 19.3192 123.49 19.528C123.49 19.6279 123.467 19.7323 123.422 19.8412C123.243 20.3313 123.148 20.9531 123.139 21.7065C123.13 22.4599 123.126 23.0772 123.126 23.5583V28.6642C123.126 29.3631 123.184 29.8079 123.301 29.9985C123.481 30.2981 123.737 30.4478 124.07 30.4478L124.933 30.2572Z" fill="#8CA1C6"/>
<path d="M136.734 30.8427C135.772 31.8775 134.509 32.3949 132.944 32.3949C131.11 32.3949 129.662 31.755 128.601 30.4751C127.621 29.2769 127.131 27.7519 127.131 25.9002C127.131 24.0484 127.734 22.4736 128.938 21.1755C130.152 19.8684 131.663 19.2149 133.47 19.2149C134.657 19.2149 135.65 19.4418 136.451 19.8956V17.0227C136.451 16.1695 136.383 15.6158 136.248 15.3616C136.114 15.0984 135.97 14.9214 135.817 14.8306C135.664 14.7398 135.417 14.6672 135.075 14.6127C134.742 14.5583 134.576 14.4176 134.576 14.1906C134.576 13.9819 134.805 13.8321 135.264 13.7413C136.343 13.5144 137.085 13.2829 137.489 13.0469C138.038 12.7383 138.406 12.584 138.595 12.584C138.802 12.584 138.905 12.6884 138.905 12.8971C138.905 12.997 138.887 13.1014 138.851 13.2103C138.663 13.7005 138.564 14.3223 138.555 15.0757C138.546 15.8291 138.541 16.4418 138.541 16.9138V28.0651C138.541 29.0636 138.6 29.7081 138.716 29.9985C138.833 30.289 138.95 30.4796 139.067 30.5704C139.184 30.6521 139.323 30.6929 139.485 30.6929L140.294 30.5159C140.555 30.5159 140.686 30.6339 140.686 30.8699C140.686 31.0061 140.627 31.1196 140.51 31.2103C140.402 31.3011 140.214 31.4055 139.944 31.5235C139.674 31.6415 139.449 31.764 139.269 31.8911C139.09 32.0182 138.932 32.1362 138.797 32.2451C138.492 32.5084 138.253 32.64 138.083 32.64C137.498 32.64 137.049 32.0409 136.734 30.8427ZM136.451 21.9244C135.632 20.7988 134.5 20.236 133.052 20.236C131.964 20.236 131.092 20.6581 130.436 21.5023C129.734 22.3919 129.384 23.6082 129.384 25.1513C129.384 26.9486 129.838 28.3873 130.746 29.4675C131.591 30.4842 132.602 30.9925 133.78 30.9925C134.976 30.9925 135.889 30.5658 136.518 29.7126C136.473 29.3767 136.451 28.9864 136.451 28.5416V21.9244Z" fill="#8CA1C6"/>
<path d="M142.479 32.2587C141.877 32.2587 141.576 32.0908 141.576 31.755C141.576 31.4917 141.742 31.3601 142.075 31.3601L142.749 31.4282C142.956 31.4282 143.127 31.3919 143.262 31.3193C143.396 31.2376 143.5 31.0696 143.572 30.8155C143.716 30.3525 143.788 29.3268 143.788 27.7383V23.6672C143.788 22.7413 143.729 22.1649 143.612 21.938C143.504 21.702 143.369 21.5431 143.208 21.4615C143.055 21.3707 142.799 21.2981 142.439 21.2436C142.088 21.1891 141.913 21.0484 141.913 20.8215C141.913 20.6127 142.142 20.463 142.601 20.3722C143.671 20.1453 144.408 19.9183 144.813 19.6914C145.361 19.3737 145.734 19.2149 145.932 19.2149C146.139 19.2149 146.242 19.3192 146.242 19.528C146.242 19.6279 146.22 19.7323 146.175 19.8412C146.139 19.9501 146.098 20.0817 146.053 20.236C145.981 20.5447 145.928 21.1256 145.892 21.9789C146.674 20.6536 147.618 19.8276 148.724 19.5008C149.047 19.4009 149.407 19.351 149.803 19.351C150.207 19.351 150.563 19.4962 150.868 19.7867C151.183 20.0772 151.34 20.3858 151.34 20.7126C151.34 21.0394 151.304 21.2799 151.232 21.4342C151.16 21.5885 151.071 21.7202 150.963 21.8291C150.729 22.0651 150.518 22.1831 150.329 22.1831C150.149 22.1831 150.01 22.1377 149.911 22.0469C149.812 21.9471 149.699 21.7701 149.573 21.5159C149.349 21.0621 149.097 20.8351 148.818 20.8351C148.539 20.8351 148.274 20.8987 148.022 21.0257C147.771 21.1438 147.519 21.3253 147.267 21.5704C146.719 22.0878 146.256 22.7913 145.878 23.6808V27.7383C145.878 29.463 145.923 30.4796 146.013 30.7882C146.112 31.0878 146.229 31.2693 146.364 31.3329C146.507 31.3873 146.701 31.4146 146.944 31.4146L148.144 31.3056C148.324 31.3056 148.468 31.351 148.575 31.4418C148.683 31.5235 148.737 31.6279 148.737 31.755C148.737 32.0908 148.409 32.2587 147.753 32.2587L144.907 32.0545C144.448 32.0545 144.012 32.0863 143.599 32.1498C143.194 32.2224 142.821 32.2587 142.479 32.2587Z" fill="#8CA1C6"/>
<path d="M154.334 30.5295C153.813 29.9395 153.408 29.2451 153.121 28.4463C152.842 27.6475 152.702 26.7625 152.702 25.7913C152.702 24.8109 152.869 23.9123 153.201 23.0953C153.534 22.2784 153.993 21.5795 154.577 20.9985C155.791 19.7913 157.288 19.1876 159.068 19.1876C160.543 19.1876 161.734 19.6778 162.642 20.6581C163.505 21.6021 163.937 22.7686 163.937 24.1574C163.937 24.6112 163.874 24.9244 163.748 25.0969C163.631 25.2602 163.483 25.3601 163.303 25.3964C163.123 25.4236 162.876 25.4509 162.561 25.4781C162.247 25.4963 161.865 25.5189 161.415 25.5462C160.965 25.5734 160.462 25.6006 159.904 25.6279C159.356 25.6551 158.794 25.6869 158.219 25.7232C156.897 25.8049 155.836 25.8866 155.036 25.9683C155.233 28.41 156.16 29.994 157.814 30.7202C158.353 30.9562 158.929 31.0742 159.54 31.0742C160.835 31.0742 161.86 30.6929 162.615 29.9304C162.939 29.6037 163.186 29.4403 163.357 29.4403C163.681 29.4403 163.843 29.6354 163.843 30.0258C163.843 30.2255 163.708 30.466 163.438 30.7474C163.168 31.0288 162.782 31.3193 162.278 31.6188C161.388 32.1362 160.35 32.3949 159.163 32.3949C157.976 32.3949 157.005 32.2315 156.249 31.9047C155.503 31.5689 154.865 31.1105 154.334 30.5295ZM155.009 24.9607C159.226 24.7428 161.446 24.5114 161.671 24.2663C161.752 24.1755 161.793 23.9077 161.793 23.463C161.793 23.0182 161.707 22.587 161.536 22.1695C161.366 21.7428 161.136 21.3798 160.849 21.0802C160.255 20.472 159.518 20.168 158.637 20.168C157.639 20.168 156.798 20.59 156.115 21.4342C155.395 22.3147 155.027 23.4902 155.009 24.9607Z" fill="#8CA1C6"/>
<path d="M177.869 19.3238C178.238 19.3238 178.422 19.4372 178.422 19.6642C178.422 19.8548 178.251 20.0136 177.909 20.1407C177.577 20.2587 177.321 20.3722 177.141 20.4811C176.961 20.581 176.795 20.7262 176.642 20.9168C176.327 21.3071 175.994 21.9834 175.644 22.9456L173.621 28.5008C171.885 33.2754 170.631 36.1483 169.858 37.1196C169.094 38.0999 168.185 38.5901 167.133 38.5901C166.405 38.5901 165.879 38.4902 165.555 38.2905C165.016 37.9456 164.746 37.5916 164.746 37.2285C164.746 36.9743 164.836 36.7656 165.016 36.6022C165.313 36.3208 165.582 36.1801 165.825 36.1801C166.077 36.1801 166.297 36.2209 166.486 36.3026C166.675 36.3934 166.855 36.4887 167.026 36.5885C167.205 36.6975 167.367 36.7928 167.511 36.8745C167.655 36.9653 167.785 37.0106 167.902 37.0106C168.019 37.0106 168.14 37.0016 168.266 36.9834C168.401 36.9653 168.545 36.9017 168.698 36.7928C168.851 36.6929 169.017 36.5341 169.197 36.3162C169.377 36.0984 169.575 35.7943 169.79 35.404C170.267 34.5235 170.802 33.2799 171.395 31.6733C171.009 31.3828 170.397 30.3344 169.561 28.528L166.58 21.8835C166.311 21.2935 166.104 20.9168 165.96 20.7534C165.726 20.4539 165.412 20.2587 165.016 20.168C164.629 20.0681 164.436 19.8956 164.436 19.6506C164.436 19.5689 164.485 19.4962 164.584 19.4327C164.674 19.3601 164.809 19.3238 164.989 19.3238L167.079 19.4736C167.628 19.4736 168.042 19.4554 168.32 19.4191C168.797 19.3555 169.188 19.3238 169.494 19.3238C170.105 19.3238 170.411 19.4554 170.411 19.7186C170.411 19.991 170.051 20.1453 169.332 20.1816C168.873 20.2088 168.612 20.3313 168.55 20.5492C168.532 20.6127 168.523 20.6808 168.523 20.7534C168.523 20.8714 168.657 21.2254 168.927 21.8155L172.218 29.3177C172.227 29.3177 172.231 29.3087 172.231 29.2905C172.231 29.2724 172.236 29.2542 172.245 29.236L174.538 22.4146C174.673 22.0061 174.785 21.6702 174.875 21.407C174.974 21.1347 175.023 20.9077 175.023 20.7262C175.023 20.5356 174.96 20.404 174.834 20.3313C174.709 20.2587 174.466 20.2088 174.106 20.1816C173.432 20.118 173.095 19.9592 173.095 19.705C173.095 19.4509 173.4 19.3238 174.012 19.3238L176.305 19.4599L177.869 19.3238Z" fill="#8CA1C6"/>
<path d="M186.541 32.2587C185.975 32.2587 185.691 32.0999 185.691 31.7822C185.691 31.4554 185.88 31.292 186.258 31.292C186.824 31.292 187.224 31.2058 187.458 31.0333C187.917 30.6975 188.186 30.1211 188.267 29.3041C188.285 29.1135 188.303 28.823 188.321 28.4327C188.348 28.0424 188.375 27.5885 188.402 27.0711C188.438 26.5447 188.47 25.9683 188.497 25.3419C188.524 24.7065 188.551 24.0575 188.578 23.3949C188.614 22.7232 188.645 22.0515 188.672 21.3798C188.699 20.708 188.721 20.0681 188.739 19.4599C188.784 17.9441 188.807 16.9864 188.807 16.587C188.807 16.1876 188.775 15.8745 188.712 15.6475C188.659 15.4206 188.578 15.2345 188.47 15.0893C188.272 14.8351 187.953 14.6763 187.512 14.6127C186.739 14.5038 186.352 14.3359 186.352 14.1089C186.352 13.9546 186.406 13.8321 186.514 13.7413C186.631 13.6415 186.779 13.5915 186.959 13.5915L189.077 13.7822L190.263 13.7277C190.479 13.7277 190.659 13.823 190.803 14.0136C190.947 14.1952 191.109 14.4675 191.288 14.8306L197.816 28.4872C197.969 28.1332 198.171 27.6657 198.423 27.0848C198.675 26.5038 198.949 25.8593 199.246 25.1513C199.551 24.4433 199.875 23.6944 200.217 22.9047C200.558 22.115 200.896 21.3298 201.228 20.5492C201.561 19.7686 201.88 19.0197 202.186 18.3026C202.492 17.5855 202.761 16.9501 202.995 16.3964C203.229 15.8336 203.422 15.3752 203.575 15.0212C203.728 14.6672 203.831 14.4176 203.885 14.2723C203.948 14.118 204.065 13.9773 204.236 13.8502C204.407 13.7232 204.609 13.6596 204.843 13.6596L206.111 13.7141L207.729 13.5915C208.403 13.5915 208.741 13.7595 208.741 14.0953C208.741 14.2587 208.592 14.3722 208.295 14.4357C207.999 14.4902 207.747 14.5401 207.54 14.5855C207.333 14.6309 207.14 14.699 206.96 14.7897C206.547 15.0167 206.34 15.3934 206.34 15.9198L207.028 29.2497C207.1 30.4206 207.536 31.0832 208.336 31.2376C208.561 31.2739 208.781 31.292 208.997 31.292C209.383 31.292 209.577 31.4554 209.577 31.7822C209.577 32.0999 209.294 32.2587 208.727 32.2587C208.502 32.2587 208.309 32.2451 208.147 32.2179C207.985 32.1997 207.823 32.1816 207.662 32.1634C207.176 32.0908 206.735 32.0545 206.34 32.0545L203.467 32.2587C202.883 32.2587 202.591 32.0908 202.591 31.755C202.591 31.4736 202.802 31.3329 203.224 31.3329C203.647 31.3329 203.953 31.3011 204.142 31.2376C204.339 31.1649 204.483 31.056 204.573 30.9108C204.699 30.6929 204.762 30.1801 204.762 29.3722V28.0923C204.762 27.4751 204.717 26.2224 204.627 24.3344C204.537 22.4463 204.474 21.0984 204.438 20.2905C204.366 18.584 204.299 17.2905 204.236 16.41L197.857 31.1695C197.623 31.705 197.412 31.9728 197.223 31.9728C197.097 31.9728 196.989 31.9093 196.899 31.7822C196.818 31.646 196.706 31.4327 196.562 31.1422L190.034 17.5673C189.693 22.1876 189.522 26.413 189.522 30.2436C189.522 30.9879 190.12 31.3601 191.315 31.3601C191.639 31.3601 191.801 31.4917 191.801 31.755C191.801 32.0908 191.509 32.2587 190.924 32.2587L188.739 32.0545C188.281 32.0545 187.849 32.0863 187.445 32.1498C187.04 32.2224 186.739 32.2587 186.541 32.2587Z" fill="#8CA1C6"/>
<path d="M223.846 30.23C224.107 30.23 224.237 30.3525 224.237 30.5976C224.237 30.8336 223.976 31.0606 223.455 31.2784C222.933 31.4963 222.569 31.696 222.362 31.8775C222.156 32.05 222.003 32.177 221.904 32.2587C221.805 32.3495 221.688 32.3949 221.553 32.3949C221.283 32.3949 221.059 32.2814 220.879 32.0545C220.699 31.8276 220.456 31.3419 220.15 30.5976C219.638 31.1876 219.013 31.637 218.276 31.9456C217.548 32.2451 216.824 32.3949 216.104 32.3949C214.747 32.3949 213.695 32.0454 212.948 31.3465C212.202 30.6475 211.829 29.6899 211.829 28.4736C211.829 27.2572 212.391 26.2723 213.515 25.5189C214.648 24.7565 216.091 24.3752 217.844 24.3752C218.366 24.3752 219.054 24.466 219.908 24.6475V23.5855C219.908 21.2527 218.932 20.0863 216.981 20.0863C215.947 20.0863 215.187 20.5674 214.702 21.5295C214.279 22.3919 213.866 22.823 213.461 22.823C213.164 22.823 212.904 22.7368 212.679 22.5643C212.463 22.3919 212.355 22.174 212.355 21.9108C212.355 21.6475 212.49 21.3571 212.76 21.0394C213.029 20.7126 213.389 20.4176 213.839 20.1543C214.9 19.528 216.064 19.2149 217.332 19.2149C219.58 19.2149 221.032 19.9546 221.688 21.4342C221.931 21.9607 222.052 22.6052 222.052 23.3677V28.8003C222.052 29.4993 222.12 29.9486 222.254 30.1483C222.389 30.348 222.578 30.4478 222.821 30.4478C223.064 30.4478 223.261 30.4115 223.414 30.3389C223.567 30.2663 223.711 30.23 223.846 30.23ZM219.908 25.9138C219.26 25.5416 218.442 25.3556 217.453 25.3556C216.464 25.3556 215.668 25.6052 215.066 26.1044C214.472 26.6037 214.176 27.2754 214.176 28.1196C214.176 28.9547 214.405 29.6536 214.864 30.2164C215.322 30.7701 215.911 31.0469 216.63 31.0469C218.168 31.0469 219.274 30.5386 219.948 29.522C219.921 29.2678 219.908 28.9864 219.908 28.6778V25.9138Z" fill="#8CA1C6"/>
<path d="M226.044 32.2587C225.451 32.2587 225.154 32.0908 225.154 31.755C225.154 31.4917 225.32 31.3601 225.653 31.3601L226.368 31.4282C226.575 31.4282 226.746 31.3919 226.88 31.3193C227.015 31.2376 227.119 31.0696 227.191 30.8155C227.335 30.3525 227.406 29.3268 227.406 27.7383V23.6672C227.406 22.7504 227.343 22.1785 227.218 21.9516C227.101 21.7156 226.957 21.5568 226.786 21.4751C226.615 21.3843 226.35 21.3117 225.99 21.2572C225.631 21.1937 225.451 21.0484 225.451 20.8215C225.451 20.6127 225.68 20.463 226.139 20.3722C227.299 20.1271 228.072 19.8956 228.458 19.6778C228.989 19.3692 229.353 19.2149 229.551 19.2149C229.758 19.2149 229.861 19.3192 229.861 19.528C229.861 19.6279 229.843 19.7323 229.807 19.8412C229.636 20.2769 229.537 20.9804 229.51 21.9516C230.023 21.0711 230.661 20.3949 231.426 19.9229C232.199 19.4509 232.959 19.2149 233.705 19.2149C234.46 19.2149 235.098 19.3102 235.62 19.5008C236.141 19.6914 236.587 19.9819 236.955 20.3722C237.71 21.1891 238.088 22.3919 238.088 23.9804V27.7383C238.088 29.3268 238.142 30.3026 238.25 30.6657C238.358 31.0197 238.479 31.2376 238.614 31.3193C238.749 31.3919 238.92 31.4282 239.127 31.4282L239.828 31.3601C240.161 31.3601 240.327 31.4917 240.327 31.755C240.327 32.0908 240.026 32.2587 239.423 32.2587C239.073 32.2587 238.699 32.2224 238.304 32.1498C237.917 32.0863 237.499 32.0545 237.05 32.0545C236.609 32.0545 236.186 32.0863 235.782 32.1498C235.377 32.2224 235 32.2587 234.649 32.2587C234.046 32.2587 233.745 32.0908 233.745 31.755C233.745 31.4917 233.912 31.3601 234.244 31.3601L234.946 31.4282C235.152 31.4282 235.323 31.3919 235.458 31.3193C235.593 31.2376 235.701 31.0696 235.782 30.8155C235.926 30.3616 235.998 29.3359 235.998 27.7383V24.6339C235.998 22.0379 235.063 20.7398 233.192 20.7398C231.871 20.7398 230.841 21.3434 230.104 22.5507C229.843 22.9955 229.641 23.5401 229.497 24.1846V27.7383C229.497 29.3268 229.551 30.3026 229.659 30.6657C229.767 31.0197 229.888 31.2376 230.023 31.3193C230.158 31.3919 230.329 31.4282 230.535 31.4282L231.25 31.3601C231.583 31.3601 231.749 31.4917 231.749 31.755C231.749 32.0908 231.453 32.2587 230.859 32.2587C230.517 32.2587 230.153 32.2224 229.767 32.1498C229.389 32.0863 228.962 32.0545 228.485 32.0545C228.009 32.0545 227.568 32.0863 227.164 32.1498C226.768 32.2224 226.395 32.2587 226.044 32.2587Z" fill="#8CA1C6"/>
<path d="M251.265 30.8427C250.303 31.8775 249.039 32.3949 247.475 32.3949C245.641 32.3949 244.193 31.755 243.132 30.4751C242.152 29.2769 241.662 27.7519 241.662 25.9002C241.662 24.0484 242.265 22.4736 243.469 21.1755C244.683 19.8684 246.194 19.2149 248.001 19.2149C249.188 19.2149 250.181 19.4418 250.982 19.8956V17.0227C250.982 16.1695 250.914 15.6158 250.779 15.3616C250.644 15.0984 250.501 14.9214 250.348 14.8306C250.195 14.7398 249.948 14.6672 249.606 14.6127C249.273 14.5583 249.107 14.4176 249.107 14.1906C249.107 13.9819 249.336 13.8321 249.795 13.7413C250.874 13.5144 251.615 13.2829 252.02 13.0469C252.569 12.7383 252.937 12.584 253.126 12.584C253.333 12.584 253.436 12.6884 253.436 12.8971C253.436 12.997 253.418 13.1014 253.382 13.2103C253.193 13.7005 253.095 14.3223 253.086 15.0757C253.077 15.8291 253.072 16.4418 253.072 16.9138V28.0651C253.072 29.0636 253.13 29.7081 253.247 29.9985C253.364 30.289 253.481 30.4796 253.598 30.5704C253.715 30.6521 253.854 30.6929 254.016 30.6929L254.825 30.5159C255.086 30.5159 255.216 30.6339 255.216 30.8699C255.216 31.0061 255.158 31.1196 255.041 31.2103C254.933 31.3011 254.744 31.4055 254.475 31.5235C254.205 31.6415 253.98 31.764 253.8 31.8911C253.621 32.0182 253.463 32.1362 253.328 32.2451C253.023 32.5084 252.784 32.64 252.613 32.64C252.029 32.64 251.579 32.0409 251.265 30.8427ZM250.982 21.9244C250.163 20.7988 249.03 20.236 247.583 20.236C246.495 20.236 245.623 20.6581 244.966 21.5023C244.265 22.3919 243.914 23.6082 243.914 25.1513C243.914 26.9486 244.368 28.3873 245.277 29.4675C246.122 30.4842 247.133 30.9925 248.311 30.9925C249.507 30.9925 250.42 30.5658 251.049 29.7126C251.004 29.3767 250.982 28.9864 250.982 28.5416V21.9244Z" fill="#8CA1C6"/>
<path d="M258.157 30.5295C257.635 29.9395 257.23 29.2451 256.943 28.4463C256.664 27.6475 256.525 26.7625 256.525 25.7913C256.525 24.8109 256.691 23.9123 257.024 23.0953C257.356 22.2784 257.815 21.5795 258.399 20.9985C259.613 19.7913 261.11 19.1876 262.891 19.1876C264.365 19.1876 265.556 19.6778 266.465 20.6581C267.328 21.6021 267.759 22.7686 267.759 24.1574C267.759 24.6112 267.696 24.9244 267.57 25.0969C267.454 25.2602 267.305 25.3601 267.125 25.3964C266.946 25.4236 266.698 25.4509 266.384 25.4781C266.069 25.4963 265.687 25.5189 265.237 25.5462C264.788 25.5734 264.284 25.6006 263.727 25.6279C263.178 25.6551 262.616 25.6869 262.041 25.7232C260.719 25.8049 259.658 25.8866 258.858 25.9683C259.056 28.41 259.982 29.994 261.636 30.7202C262.176 30.9562 262.751 31.0742 263.363 31.0742C264.657 31.0742 265.682 30.6929 266.438 29.9304C266.761 29.6037 267.009 29.4403 267.179 29.4403C267.503 29.4403 267.665 29.6354 267.665 30.0258C267.665 30.2255 267.53 30.466 267.26 30.7474C266.991 31.0288 266.604 31.3193 266.1 31.6188C265.21 32.1362 264.172 32.3949 262.985 32.3949C261.798 32.3949 260.827 32.2315 260.072 31.9047C259.325 31.5689 258.687 31.1105 258.157 30.5295ZM258.831 24.9607C263.048 24.7428 265.269 24.5114 265.493 24.2663C265.574 24.1755 265.615 23.9077 265.615 23.463C265.615 23.0182 265.529 22.587 265.359 22.1695C265.188 21.7428 264.959 21.3798 264.671 21.0802C264.077 20.472 263.34 20.168 262.459 20.168C261.461 20.168 260.62 20.59 259.937 21.4342C259.218 22.3147 258.849 23.4902 258.831 24.9607Z" fill="#8CA1C6"/>
<path d="M270.376 32.2587C269.782 32.2587 269.486 32.0908 269.486 31.755C269.486 31.4917 269.652 31.3601 269.985 31.3601L270.659 31.4282C270.866 31.4282 271.037 31.3919 271.171 31.3193C271.306 31.2376 271.41 31.0696 271.482 30.8155C271.626 30.3525 271.697 29.3268 271.697 27.7383V17.5946C271.697 16.0878 271.387 15.289 270.767 15.1982C270.317 15.1256 270.093 14.9758 270.093 14.7489C270.093 14.5401 270.304 14.3949 270.726 14.3132C271.149 14.2224 271.531 14.1135 271.873 13.9864C272.214 13.8502 272.516 13.7232 272.776 13.6052C273.037 13.4781 273.257 13.3692 273.437 13.2784C273.626 13.1876 273.761 13.1422 273.842 13.1422C274.049 13.1422 274.152 13.2466 274.152 13.4554C274.152 13.5552 274.134 13.6596 274.098 13.7686C273.909 14.2587 273.81 14.8805 273.801 15.6339C273.792 16.3873 273.788 17.0046 273.788 17.4857V27.7383C273.788 29.3268 273.842 30.3026 273.95 30.6657C274.058 31.0197 274.179 31.2376 274.314 31.3193C274.449 31.3919 274.62 31.4282 274.826 31.4282L275.501 31.3601C275.833 31.3601 276 31.4917 276 31.755C276 32.0908 275.703 32.2587 275.11 32.2587C274.768 32.2587 274.413 32.2224 274.044 32.1498C273.676 32.0863 273.253 32.0545 272.776 32.0545C272.3 32.0545 271.864 32.0863 271.468 32.1498C271.082 32.2224 270.717 32.2587 270.376 32.2587Z" fill="#8CA1C6"/>
<path fill-rule="evenodd" clip-rule="evenodd" d="M3.61934 5.4327C6.29157 2.13825 10.5501 0 16.7935 0C21.1616 0 24.1947 3.26706 26.0488 6.18724C26.9958 7.67878 27.6897 9.16234 28.1462 10.2685C28.3751 10.8232 28.546 11.2868 28.6603 11.6144C28.7176 11.7782 28.7608 11.9083 28.7901 11.9989C28.8048 12.0442 28.816 12.0797 28.8238 12.1047L28.8329 12.1341L28.8355 12.1427L28.8364 12.1455L28.8367 12.1465C28.8368 12.1469 28.8369 12.1472 27.8756 12.4371L28.8369 12.1472C29.0041 12.7017 28.6902 13.2868 28.1357 13.454C27.5814 13.6212 26.9966 13.3075 26.8291 12.7533C26.8291 12.7531 26.829 12.753 26.829 12.7528L27.8329 12.45C26.829 12.7528 26.8291 12.7531 26.8291 12.7533L26.8291 12.7531L26.829 12.7528L26.8279 12.7494L26.8219 12.73C26.8162 12.7117 26.8072 12.6832 26.7948 12.645C26.7701 12.5686 26.732 12.4537 26.6803 12.3058C26.577 12.0099 26.4198 11.5828 26.2076 11.0686C25.7818 10.037 25.141 8.67021 24.2783 7.3114C22.5129 4.5309 20.0263 2.09726 16.7935 2.09726C11.0707 2.09726 7.45681 4.03094 5.24815 6.75388C3.0084 9.51515 2.09726 13.2322 2.09726 16.9744C2.09726 20.9388 4.09842 23.8009 6.3396 26.9796L6.36648 27.0178C8.55828 30.1264 10.9651 33.54 10.9651 38.3292C10.9651 39.5125 11.6974 41.1685 13.0105 42.565C14.3093 43.9462 15.9969 44.8815 17.6984 44.8815C18.9263 44.8815 19.9362 44.2014 20.7493 43.1751C21.5659 42.1443 22.0803 40.883 22.2932 40.0579C22.4379 39.4971 23.0098 39.1599 23.5706 39.3046C24.1314 39.4493 24.4687 40.0212 24.324 40.582C24.0543 41.627 23.4285 43.1707 22.3932 44.4775C21.3544 45.7887 19.8005 46.9787 17.6984 46.9787C15.2376 46.9787 13.0342 45.6518 11.4826 44.0017C9.94534 42.3668 8.86786 40.2224 8.86786 38.3292C8.86786 34.2702 6.8605 31.3581 4.62553 28.1882C4.5944 28.144 4.56323 28.0998 4.53201 28.0555C2.36419 24.9818 0 21.6297 0 16.9744C0 12.9346 0.978196 8.68883 3.61934 5.4327ZM8.07117 9.28576C6.64158 10.9578 5.89772 12.9419 5.89772 14.2598C5.89772 14.8389 5.42824 15.3084 4.84909 15.3084C4.26995 15.3084 3.80046 14.8389 3.80046 14.2598C3.80046 12.3201 4.81206 9.8703 6.47712 7.92285C8.16212 5.9521 10.6483 4.34338 13.7168 4.34338C17.4123 4.34338 19.9712 5.96 21.5799 8.02838C23.1561 10.0549 23.8142 12.5014 23.8142 14.2598C23.8142 15.3466 23.3575 16.2144 22.7986 16.9263C22.3627 17.4815 21.8042 18.0118 21.2942 18.496C21.1796 18.6047 21.0675 18.7112 20.9598 18.8151C19.7176 20.0129 18.7469 21.1479 18.7469 22.9465C18.7469 23.9203 18.9487 24.5704 19.2127 25.0544C19.4846 25.5529 19.8558 25.9394 20.312 26.3631C20.3874 26.4331 20.4666 26.5048 20.5482 26.5788C21.4084 27.3583 22.5474 28.3904 22.5474 30.3665C22.5474 30.9456 22.0779 31.4151 21.4987 31.4151C20.9196 31.4151 20.4501 30.9456 20.4501 30.3665C20.4501 29.3453 19.984 28.915 19.0839 28.084C19.0198 28.0248 18.9535 27.9636 18.885 27.9C18.3911 27.4414 17.8121 26.8665 17.3715 26.0587C16.9229 25.2363 16.6496 24.2349 16.6496 22.9465C16.6496 20.2208 18.2126 18.5506 19.504 17.3054C19.6413 17.173 19.7733 17.0474 19.8999 16.9269C20.4 16.451 20.8168 16.0544 21.149 15.6312C21.5402 15.1328 21.7169 14.7112 21.7169 14.2598C21.7169 12.9415 21.1986 10.9542 19.9245 9.31597C18.6829 7.71962 16.7174 6.44065 13.7168 6.44065C11.4285 6.44065 9.48084 7.63704 8.07117 9.28576Z" fill="#8CA1C6"/>
</svg>
