<svg width="276" height="111" viewBox="0 0 276 111" fill="none" xmlns="http://www.w3.org/2000/svg">
<path d="M2.90728 34.8608C4.81176 32.431 8.0814 31.2161 12.7162 31.2161C15.733 31.2161 18.4128 31.8151 20.7555 33.0131C23.0981 34.2111 24.2695 36.4722 24.2695 39.7962V52.4513C24.2695 53.3288 24.2863 54.3918 24.3201 55.6404C24.3706 56.5853 24.5139 57.2265 24.7498 57.564C24.9858 57.9015 25.3397 58.1799 25.8116 58.3992V59.4623H17.9746C17.7555 58.9054 17.6038 58.3824 17.5195 57.893C17.4353 57.4037 17.3679 56.8469 17.3173 56.2226C16.3229 57.3025 15.1769 58.2221 13.8791 58.9814C12.3286 59.8757 10.5758 60.3228 8.62072 60.3228C6.12636 60.3228 4.06177 59.6141 2.42695 58.1968C0.808983 56.7625 0 54.7377 0 52.1223C0 48.7307 1.30617 46.2757 3.91851 44.757C5.35109 43.9302 7.45781 43.3397 10.2387 42.9853L12.6909 42.6816C14.0224 42.5129 14.9746 42.302 15.5476 42.0489C16.5757 41.6101 17.0898 40.9268 17.0898 39.9987C17.0898 38.8682 16.6937 38.092 15.9016 37.6702C15.1263 37.2315 13.9802 37.0121 12.4634 37.0121C10.7612 37.0121 9.55611 37.434 8.84825 38.2776C8.34264 38.902 8.00556 39.7456 7.83702 40.8087H0.884825C1.03651 38.3958 1.71066 36.4131 2.90728 34.8608ZM8.26679 54.2484C8.94095 54.8052 9.76678 55.0836 10.7443 55.0836C12.2949 55.0836 13.719 54.628 15.0167 53.7169C16.3313 52.8057 17.0139 51.1437 17.0645 48.7307V46.0479C16.6094 46.3347 16.146 46.5709 15.674 46.7566C15.219 46.9253 14.587 47.0856 13.778 47.2374L12.16 47.5412C10.6432 47.8111 9.55611 48.1402 8.89881 48.5283C7.78646 49.1863 7.23029 50.2072 7.23029 51.5908C7.23029 52.8226 7.57579 53.7084 8.26679 54.2484Z" fill="#8CA1C6"/>
<path d="M47.7158 39.4672C47.1091 38.1342 45.9209 37.4677 44.1513 37.4677C42.0951 37.4677 40.7131 38.1342 40.0052 39.4672C39.6176 40.2265 39.4238 41.357 39.4238 42.8588V59.4623H32.1176V31.9248H39.1204V35.9491C40.0136 34.5149 40.8563 33.494 41.6485 32.8866C43.0473 31.8067 44.8591 31.2667 47.0838 31.2667C49.1905 31.2667 50.8928 31.7307 52.1905 32.6588C53.2355 33.5193 54.0276 34.6245 54.5669 35.9744C55.5107 34.3546 56.6821 33.165 58.0809 32.4057C59.5641 31.6464 61.2157 31.2667 63.036 31.2667C64.2494 31.2667 65.446 31.5029 66.6258 31.9754C67.8056 32.4479 68.8758 33.2747 69.8365 34.4558C70.6117 35.4176 71.1342 36.5987 71.4039 37.9992C71.5724 38.9273 71.6567 40.2856 71.6567 42.0742L71.6061 59.4623H64.2241V41.897C64.2241 40.8508 64.0556 39.9903 63.7185 39.3154C63.0781 38.033 61.8983 37.3918 60.1792 37.3918C58.1905 37.3918 56.8169 38.2186 56.0585 39.8722C55.6708 40.7496 55.477 41.8042 55.477 43.036V59.4623H48.2215V43.036C48.2215 41.3992 48.0529 40.2096 47.7158 39.4672Z" fill="#8CA1C6"/>
<path d="M102.94 34.8354C105.165 37.2146 106.277 40.7074 106.277 45.3139C106.277 50.1734 105.182 53.8772 102.991 56.425C100.816 58.9729 98.0103 60.2469 94.5721 60.2469C92.3811 60.2469 90.5609 59.6985 89.1115 58.6017C88.3194 57.9943 87.5441 57.1084 86.7857 55.9442V70.3203H79.6565V31.8742H86.5581V35.9491C87.3334 34.7511 88.1593 33.8062 89.0357 33.1144C90.6368 31.8826 92.5412 31.2667 94.7491 31.2667C97.9682 31.2667 100.698 32.4563 102.94 34.8354ZM98.8446 45.6682C98.8446 43.5422 98.3558 41.6608 97.3783 40.024C96.4176 38.3873 94.8502 37.569 92.6761 37.569C90.0637 37.569 88.2688 38.8092 87.2913 41.2895C86.7857 42.6057 86.5329 44.2762 86.5329 46.301C86.5329 49.5069 87.384 51.7595 89.0862 53.0588C90.0974 53.8181 91.2941 54.1977 92.6761 54.1977C94.6817 54.1977 96.2069 53.4216 97.2519 51.8692C98.3137 50.3169 98.8446 48.2499 98.8446 45.6682Z" fill="#8CA1C6"/>
<path d="M113.215 22.155H120.42V59.4623H113.215V22.155Z" fill="#8CA1C6"/>
<path d="M136.434 31.8742V59.4623H129.128V31.8742H136.434ZM136.434 21.9273V28.5838H129.128V21.9273H136.434Z" fill="#8CA1C6"/>
<path d="M157.908 21.9273V27.7992C157.504 27.7486 156.821 27.7148 155.861 27.698C154.917 27.6642 154.26 27.8751 153.889 28.3307C153.535 28.7694 153.358 29.2588 153.358 29.7987V32.1273H158.085V37.2146H153.358V59.4623H146.178V37.2146H142.159V32.1273H146.102V30.3555C146.102 27.4027 146.6 25.3694 147.594 24.2558C148.639 22.6022 151.158 21.7754 155.153 21.7754C155.608 21.7754 156.021 21.7923 156.392 21.826C156.762 21.8429 157.268 21.8766 157.908 21.9273Z" fill="#8CA1C6"/>
<path d="M174.984 52.2236L180.672 31.8742H188.332L178.877 59.0067C177.057 64.2375 175.616 67.4772 174.554 68.7258C173.492 69.9913 171.369 70.6241 168.184 70.6241C167.543 70.6241 167.029 70.6156 166.641 70.5988C166.254 70.5988 165.672 70.5734 164.897 70.5228V64.7521L165.807 64.8027C166.515 64.8365 167.189 64.8112 167.83 64.7268C168.47 64.6424 169.009 64.4484 169.448 64.1447C169.869 63.8578 170.257 63.2588 170.61 62.3476C170.981 61.4365 171.133 60.8796 171.066 60.6772L160.953 31.8742H168.967L174.984 52.2236Z" fill="#8CA1C6"/>
<path d="M1.8877 82.6409H4.83355V91.5371H16.0307V82.6409H18.9766V104.171H16.0307V94.1019H4.83355V104.171H1.8877V82.6409Z" fill="#8CA1C6"/>
<path d="M31.491 88.1223C32.6049 88.1223 33.6845 88.3861 34.73 88.9137C35.7755 89.4315 36.5718 90.1057 37.1189 90.9362C37.6465 91.7276 37.9983 92.651 38.1741 93.7062C38.3305 94.4292 38.4086 95.5822 38.4086 97.165H26.9037C26.9526 98.7576 27.3287 100.038 28.0322 101.005C28.7357 101.962 29.8251 102.441 31.3005 102.441C32.6782 102.441 33.7774 101.987 34.5981 101.078C35.0671 100.551 35.3993 99.9399 35.5947 99.2462H38.1888C38.1204 99.8226 37.8908 100.467 37.5 101.181C37.1189 101.884 36.689 102.461 36.2102 102.91C35.4091 103.692 34.4173 104.219 33.2351 104.493C32.6 104.649 31.8818 104.727 31.0807 104.727C29.1265 104.727 27.4704 104.019 26.1123 102.602C24.7542 101.176 24.0751 99.1826 24.0751 96.6227C24.0751 94.1019 24.759 92.055 26.1269 90.4819C27.4948 88.9088 29.2829 88.1223 31.491 88.1223ZM35.6973 95.0692C35.5898 93.926 35.3407 93.0125 34.9498 92.3285C34.2268 91.0583 33.0201 90.4233 31.3298 90.4233C30.1182 90.4233 29.1021 90.8629 28.2814 91.7423C27.4606 92.6119 27.0258 93.7208 26.977 95.0692H35.6973Z" fill="#8CA1C6"/>
<path d="M45.4857 99.9936C45.4857 100.756 45.7642 101.357 46.3211 101.796C46.878 102.236 47.5376 102.456 48.2997 102.456C49.2279 102.456 50.1268 102.241 50.9964 101.811C52.462 101.098 53.1948 99.9301 53.1948 98.3082V96.1831C52.8723 96.3882 52.4571 96.5592 51.949 96.696C51.4409 96.8328 50.9426 96.9305 50.4541 96.9891L48.8566 97.1943C47.8991 97.3213 47.1809 97.5216 46.7022 97.7952C45.8912 98.2544 45.4857 98.9872 45.4857 99.9936ZM51.8757 94.6588C52.4815 94.5807 52.887 94.3266 53.0922 93.8967C53.2094 93.6622 53.268 93.3251 53.268 92.8855C53.268 91.9866 52.9456 91.3368 52.3008 90.9362C51.6657 90.5258 50.7521 90.3207 49.5601 90.3207C48.1824 90.3207 47.2054 90.6919 46.6289 91.4345C46.3065 91.8449 46.0964 92.4555 45.9987 93.2665H43.5365C43.5853 91.3319 44.2107 89.9885 45.4124 89.2361C46.624 88.474 48.0261 88.093 49.6187 88.093C51.4654 88.093 52.9652 88.4447 54.1181 89.1482C55.2613 89.8517 55.8328 90.946 55.8328 92.4311V101.474C55.8328 101.747 55.8866 101.967 55.9941 102.133C56.1113 102.299 56.3507 102.383 56.7122 102.383C56.8295 102.383 56.9614 102.378 57.1079 102.368C57.2545 102.348 57.4108 102.324 57.5769 102.295V104.244C57.1665 104.361 56.8539 104.434 56.6389 104.464C56.424 104.493 56.1309 104.508 55.7596 104.508C54.8509 104.508 54.1914 104.185 53.781 103.54C53.5661 103.198 53.4146 102.715 53.3267 102.089C52.7893 102.793 52.0174 103.404 51.011 103.921C50.0047 104.439 48.8957 104.698 47.6841 104.698C46.2283 104.698 45.0363 104.258 44.1081 103.379C43.1896 102.49 42.7304 101.381 42.7304 100.052C42.7304 98.5964 43.1847 97.4679 44.0934 96.6667C45.0021 95.8655 46.1941 95.3721 47.6695 95.1864L51.8757 94.6588Z" fill="#8CA1C6"/>
<path d="M62.0452 88.474H64.5514V91.1854C64.7566 90.6577 65.2598 90.0178 66.061 89.2654C66.8622 88.5033 67.7855 88.1223 68.8309 88.1223C68.8798 88.1223 68.9628 88.1271 69.0801 88.1369C69.1973 88.1467 69.3976 88.1662 69.681 88.1955V90.9802C69.5247 90.9509 69.3781 90.9313 69.2413 90.9216C69.1143 90.9118 68.9726 90.9069 68.8163 90.9069C67.4875 90.9069 66.4664 91.3368 65.7532 92.1966C65.0399 93.0467 64.6833 94.0286 64.6833 95.1425V104.171H62.0452V88.474Z" fill="#8CA1C6"/>
<path d="M73.7682 88.5473H76.4503V104.171H73.7682V88.5473ZM73.7682 82.6409H76.4503V85.6307H73.7682V82.6409Z" fill="#8CA1C6"/>
<path d="M82.2523 88.474H84.7585V90.7017C85.501 89.7833 86.2876 89.1238 87.1181 88.7232C87.9486 88.3226 88.8719 88.1223 89.8881 88.1223C92.1158 88.1223 93.6205 88.899 94.4021 90.4526C94.832 91.3026 95.047 92.5191 95.047 94.1019V104.171H92.3649V94.2778C92.3649 93.3203 92.2233 92.5484 91.9399 91.9621C91.4709 90.9851 90.6209 90.4965 89.3898 90.4965C88.7644 90.4965 88.2515 90.56 87.8509 90.6871C87.1279 90.902 86.4928 91.3319 85.9456 91.9768C85.5059 92.4946 85.2177 93.032 85.0809 93.5889C84.9539 94.1361 84.8904 94.9226 84.8904 95.9486V104.171H82.2523V88.474Z" fill="#8CA1C6"/>
<path d="M106.301 88.1955C107.532 88.1955 108.607 88.4984 109.525 89.1042C110.024 89.4462 110.532 89.9445 111.05 90.5991V88.6206H113.482V102.895C113.482 104.889 113.189 106.462 112.603 107.615C111.509 109.745 109.442 110.81 106.404 110.81C104.713 110.81 103.292 110.429 102.139 109.667C100.986 108.914 100.341 107.732 100.204 106.12H102.886C103.013 106.823 103.267 107.366 103.648 107.747C104.244 108.333 105.182 108.626 106.462 108.626C108.485 108.626 109.809 107.913 110.434 106.486C110.805 105.646 110.976 104.146 110.947 101.987C110.419 102.788 109.784 103.384 109.042 103.775C108.299 104.166 107.317 104.361 106.096 104.361C104.396 104.361 102.906 103.76 101.626 102.558C100.356 101.347 99.7205 99.3487 99.7205 96.5641C99.7205 93.9358 100.36 91.884 101.64 90.4086C102.93 88.9332 104.484 88.1955 106.301 88.1955ZM111.05 96.2563C111.05 94.312 110.649 92.8708 109.848 91.9328C109.047 90.9948 108.026 90.5258 106.785 90.5258C104.928 90.5258 103.658 91.3954 102.974 93.1346C102.613 94.0628 102.432 95.2793 102.432 96.7839C102.432 98.5524 102.788 99.9008 103.502 100.829C104.225 101.747 105.192 102.207 106.404 102.207C108.299 102.207 109.633 101.352 110.405 99.6419C110.835 98.6746 111.05 97.5461 111.05 96.2563Z" fill="#8CA1C6"/>
<path d="M138.848 82.0547C141.574 82.0547 143.69 82.7728 145.194 84.2091C146.699 85.6454 147.535 87.2771 147.701 89.1042H144.857C144.535 87.7168 143.89 86.6176 142.923 85.8066C141.965 84.9957 140.617 84.5902 138.878 84.5902C136.758 84.5902 135.043 85.3376 133.733 86.8325C132.434 88.3177 131.784 90.5991 131.784 93.6769C131.784 96.1977 132.37 98.2447 133.543 99.8177C134.725 101.381 136.484 102.163 138.819 102.163C140.969 102.163 142.605 101.337 143.729 99.6858C144.325 98.8162 144.769 97.6731 145.063 96.2563H147.906C147.652 98.5231 146.812 100.424 145.385 101.958C143.675 103.804 141.369 104.727 138.467 104.727C135.966 104.727 133.865 103.97 132.165 102.456C129.928 100.453 128.809 97.3604 128.809 93.1786C128.809 90.0031 129.649 87.3992 131.33 85.3669C133.147 83.1588 135.653 82.0547 138.848 82.0547Z" fill="#8CA1C6"/>
<path d="M154.939 99.9936C154.939 100.756 155.217 101.357 155.774 101.796C156.331 102.236 156.991 102.456 157.753 102.456C158.681 102.456 159.58 102.241 160.45 101.811C161.915 101.098 162.648 99.9301 162.648 98.3082V96.1831C162.326 96.3882 161.91 96.5592 161.402 96.696C160.894 96.8328 160.396 96.9305 159.907 96.9891L158.31 97.1943C157.352 97.3213 156.634 97.5216 156.155 97.7952C155.344 98.2544 154.939 98.9872 154.939 99.9936ZM161.329 94.6588C161.935 94.5807 162.34 94.3266 162.545 93.8967C162.663 93.6622 162.721 93.3251 162.721 92.8855C162.721 91.9866 162.399 91.3368 161.754 90.9362C161.119 90.5258 160.205 90.3207 159.013 90.3207C157.636 90.3207 156.659 90.6919 156.082 91.4345C155.76 91.8449 155.55 92.4555 155.452 93.2665H152.99C153.039 91.3319 153.664 89.9885 154.866 89.2361C156.077 88.474 157.479 88.093 159.072 88.093C160.919 88.093 162.418 88.4447 163.571 89.1482C164.714 89.8517 165.286 90.946 165.286 92.4311V101.474C165.286 101.747 165.34 101.967 165.447 102.133C165.565 102.299 165.804 102.383 166.165 102.383C166.283 102.383 166.415 102.378 166.561 102.368C166.708 102.348 166.864 102.324 167.03 102.295V104.244C166.62 104.361 166.307 104.434 166.092 104.464C165.877 104.493 165.584 104.508 165.213 104.508C164.304 104.508 163.645 104.185 163.234 103.54C163.019 103.198 162.868 102.715 162.78 102.089C162.242 102.793 161.471 103.404 160.464 103.921C159.458 104.439 158.349 104.698 157.137 104.698C155.681 104.698 154.489 104.258 153.561 103.379C152.643 102.49 152.184 101.381 152.184 100.052C152.184 98.5964 152.638 97.4679 153.547 96.6667C154.455 95.8655 155.647 95.3721 157.123 95.1864L161.329 94.6588Z" fill="#8CA1C6"/>
<path d="M171.498 88.474H174.005V91.1854C174.21 90.6577 174.713 90.0178 175.514 89.2654C176.315 88.5033 177.239 88.1223 178.284 88.1223C178.333 88.1223 178.416 88.1271 178.533 88.1369C178.651 88.1467 178.851 88.1662 179.134 88.1955V90.9802C178.978 90.9509 178.831 90.9313 178.695 90.9216C178.567 90.9118 178.426 90.9069 178.269 90.9069C176.941 90.9069 175.92 91.3368 175.206 92.1966C174.493 93.0467 174.136 94.0286 174.136 95.1425V104.171H171.498V88.474Z" fill="#8CA1C6"/>
<path d="M189.758 88.1223C190.872 88.1223 191.952 88.3861 192.997 88.9137C194.042 89.4315 194.839 90.1057 195.386 90.9362C195.914 91.7276 196.265 92.651 196.441 93.7062C196.597 94.4292 196.676 95.5822 196.676 97.165H185.171C185.22 98.7576 185.596 100.038 186.299 101.005C187.003 101.962 188.092 102.441 189.567 102.441C190.945 102.441 192.044 101.987 192.865 101.078C193.334 100.551 193.666 99.9399 193.862 99.2462H196.456C196.387 99.8226 196.158 100.467 195.767 101.181C195.386 101.884 194.956 102.461 194.477 102.91C193.676 103.692 192.684 104.219 191.502 104.493C190.867 104.649 190.149 104.727 189.348 104.727C187.394 104.727 185.737 104.019 184.379 102.602C183.021 101.176 182.342 99.1826 182.342 96.6227C182.342 94.1019 183.026 92.055 184.394 90.4819C185.762 88.9088 187.55 88.1223 189.758 88.1223ZM193.964 95.0692C193.857 93.926 193.608 93.0125 193.217 92.3285C192.494 91.0583 191.287 90.4233 189.597 90.4233C188.385 90.4233 187.369 90.8629 186.548 91.7423C185.728 92.6119 185.293 93.7208 185.244 95.0692H193.964Z" fill="#8CA1C6"/>
<path d="M212.515 82.6409H222.203C224.118 82.6409 225.662 83.1832 226.834 84.2677C228.007 85.3425 228.593 86.857 228.593 88.8111C228.593 90.4916 228.07 91.9572 227.025 93.2079C225.979 94.4488 224.372 95.0692 222.203 95.0692H215.432V104.171H212.515V82.6409ZM225.647 88.8258C225.647 87.2429 225.061 86.1681 223.888 85.6014C223.243 85.2985 222.359 85.1471 221.236 85.1471H215.432V92.607H221.236C222.545 92.607 223.605 92.3285 224.416 91.7716C225.237 91.2147 225.647 90.2327 225.647 88.8258Z" fill="#8CA1C6"/>
<path d="M233.779 88.474H236.285V91.1854C236.491 90.6577 236.994 90.0178 237.795 89.2654C238.596 88.5033 239.52 88.1223 240.565 88.1223C240.614 88.1223 240.697 88.1271 240.814 88.1369C240.931 88.1467 241.132 88.1662 241.415 88.1955V90.9802C241.259 90.9509 241.112 90.9313 240.975 90.9216C240.848 90.9118 240.707 90.9069 240.55 90.9069C239.222 90.9069 238.201 91.3368 237.487 92.1966C236.774 93.0467 236.417 94.0286 236.417 95.1425V104.171H233.779V88.474Z" fill="#8CA1C6"/>
<path d="M251.731 102.47C253.48 102.47 254.677 101.811 255.322 100.492C255.976 99.1631 256.304 97.6877 256.304 96.0658C256.304 94.6002 256.069 93.4082 255.6 92.4897C254.858 91.0437 253.578 90.3207 251.76 90.3207C250.148 90.3207 248.976 90.9362 248.243 92.1673C247.51 93.3984 247.144 94.8836 247.144 96.6227C247.144 98.2935 247.51 99.6858 248.243 100.8C248.976 101.914 250.139 102.47 251.731 102.47ZM251.834 88.0197C253.856 88.0197 255.566 88.6938 256.963 90.0422C258.361 91.3905 259.059 93.374 259.059 95.9925C259.059 98.5231 258.444 100.614 257.212 102.265C255.981 103.917 254.071 104.742 251.482 104.742C249.323 104.742 247.608 104.014 246.338 102.558C245.068 101.093 244.432 99.1289 244.432 96.6667C244.432 94.0286 245.102 91.9279 246.44 90.3646C247.779 88.8013 249.577 88.0197 251.834 88.0197Z" fill="#8CA1C6"/>
<path d="M265.579 99.2462C265.657 100.126 265.877 100.8 266.239 101.269C266.903 102.119 268.056 102.544 269.698 102.544C270.675 102.544 271.534 102.334 272.277 101.914C273.02 101.484 273.391 100.824 273.391 99.935C273.391 99.2608 273.093 98.7478 272.497 98.3961C272.116 98.1812 271.363 97.932 270.24 97.6487L268.144 97.121C266.805 96.7888 265.819 96.4175 265.184 96.0072C264.05 95.2939 263.483 94.3071 263.483 93.0467C263.483 91.5615 264.016 90.3597 265.081 89.4413C266.156 88.5229 267.597 88.0636 269.404 88.0636C271.769 88.0636 273.474 88.7574 274.519 90.1448C275.174 91.0241 275.492 91.9719 275.472 92.988H272.981C272.932 92.392 272.722 91.8498 272.35 91.3612C271.745 90.6675 270.694 90.3207 269.199 90.3207C268.203 90.3207 267.445 90.5112 266.928 90.8922C266.42 91.2733 266.165 91.7765 266.165 92.4018C266.165 93.0858 266.503 93.6329 267.177 94.0433C267.568 94.2875 268.144 94.5025 268.906 94.6881L270.65 95.1132C272.546 95.5724 273.816 96.017 274.461 96.4469C275.487 97.121 276 98.1812 276 99.6272C276 101.024 275.467 102.231 274.402 103.247C273.347 104.263 271.735 104.771 269.566 104.771C267.231 104.771 265.574 104.244 264.597 103.189C263.63 102.124 263.112 100.809 263.044 99.2462H265.579Z" fill="#8CA1C6"/>
<rect x="192.452" y="35.3125" width="17.6561" height="23.5415" fill="#8CA1C6"/>
<rect x="214.228" y="23.541" width="17.6561" height="35.3123" fill="#8CA1C6"/>
<rect x="236.004" y="11.7715" width="17.6561" height="47.0831" fill="#8CA1C6"/>
<rect x="257.779" width="17.6561" height="58.8538" fill="#8CA1C6"/>
</svg>
