<svg width="276" height="128" viewBox="0 0 276 128" fill="none" xmlns="http://www.w3.org/2000/svg">
<path d="M81.9223 66.6987V65.7282L82.6987 65.6506C83.6045 65.5471 84.2902 65.4177 84.7561 65.2624C85.2477 65.1071 85.5842 64.7448 85.7653 64.1755C85.9465 63.6062 86.037 62.6746 86.037 61.3806V41.3506C85.8041 41.0659 85.4548 40.7553 84.989 40.4189C84.5231 40.0566 83.8374 39.8755 82.9316 39.8755H81.7671V38.8662L89.2978 38.9827C89.7636 39.6296 90.3847 40.4836 91.161 41.5446C91.9633 42.6057 92.8431 43.7831 93.8006 45.0771C94.784 46.371 95.7933 47.7038 96.8284 49.0753C97.8636 50.421 98.8599 51.7279 99.8174 52.9959C100.801 54.264 101.681 55.4027 102.457 56.4119C103.233 57.4212 103.842 58.2234 104.281 58.8186V44.1454C104.281 42.8515 104.191 41.9328 104.01 41.3894C103.829 40.82 103.492 40.4577 103 40.3025C102.535 40.1213 101.849 39.9919 100.943 39.9143L100.167 39.8367V38.8662L105.213 38.9827L109.949 38.8662V39.8367L109.173 39.9143C108.293 40.0178 107.607 40.1601 107.115 40.3413C106.624 40.4966 106.287 40.8459 106.106 41.3894C105.925 41.9328 105.834 42.8515 105.834 44.1454V66.5434H104.67C104.256 65.6894 103.635 64.6413 102.806 63.3992C102.004 62.1311 101.073 60.7466 100.012 59.2456C98.9505 57.7447 97.8377 56.2178 96.6732 54.6651C95.5345 53.0865 94.3958 51.5597 93.2572 50.0846C92.1185 48.6095 91.0575 47.2638 90.0741 46.0475C89.0907 44.8312 88.2626 43.822 87.5898 43.0197V61.3806C87.5898 62.6746 87.6803 63.6062 87.8615 64.1755C88.0426 64.7448 88.3791 65.1071 88.8708 65.2624C89.3625 65.4177 90.0482 65.5471 90.9281 65.6506L91.7045 65.7282V66.6987L86.7358 66.5434L81.9223 66.6987Z" fill="#8CA1C6"/>
<path d="M120.652 66.9704C118.996 66.9704 117.482 66.5693 116.11 65.767C114.764 64.9648 113.69 63.8908 112.888 62.5452C112.112 61.1736 111.724 59.6597 111.724 58.0035C111.724 56.2955 112.112 54.7557 112.888 53.3841C113.69 52.0126 114.764 50.9257 116.11 50.1234C117.482 49.3212 118.996 48.9201 120.652 48.9201C122.334 48.9201 123.848 49.3212 125.193 50.1234C126.539 50.9257 127.6 52.0126 128.377 53.3841C129.179 54.7557 129.58 56.2955 129.58 58.0035C129.58 59.6597 129.179 61.1736 128.377 62.5452C127.6 63.8908 126.539 64.9648 125.193 65.767C123.848 66.5693 122.334 66.9704 120.652 66.9704ZM120.652 66C122.049 66 123.175 65.6506 124.029 64.9519C124.883 64.2273 125.504 63.2698 125.892 62.0793C126.28 60.863 126.474 59.5044 126.474 58.0035C126.474 56.4507 126.28 55.0662 125.892 53.8499C125.504 52.6336 124.883 51.6761 124.029 50.9774C123.175 50.2528 122.049 49.8905 120.652 49.8905C119.254 49.8905 118.129 50.2528 117.275 50.9774C116.421 51.6761 115.8 52.6336 115.411 53.8499C115.023 55.0662 114.829 56.4507 114.829 58.0035C114.829 59.5044 115.023 60.863 115.411 62.0793C115.8 63.2698 116.421 64.2273 117.275 64.9519C118.129 65.6506 119.254 66 120.652 66Z" fill="#8CA1C6"/>
<path d="M132.406 66.6599V65.767L133.027 65.6894C133.778 65.5859 134.347 65.4694 134.735 65.3401C135.149 65.1848 135.434 64.8613 135.589 64.3696C135.744 63.852 135.822 63.011 135.822 61.8464V53.7723C135.822 52.763 135.68 52.0255 135.395 51.5597C135.136 51.0939 134.748 50.8092 134.23 50.7057C133.713 50.5763 133.105 50.5116 132.406 50.5116V49.6188C133.467 49.6188 134.489 49.58 135.473 49.5023C136.456 49.4247 137.478 49.3082 138.539 49.153L138.112 53.617H138.268C138.837 51.8832 139.536 50.6669 140.364 49.9681C141.192 49.2694 142.085 48.9201 143.042 48.9201C144.129 48.9201 144.854 49.1918 145.216 49.7352C145.578 50.2528 145.759 50.7574 145.759 51.2491C145.759 51.8185 145.591 52.2843 145.255 52.6466C144.918 53.0089 144.465 53.19 143.896 53.19C143.353 53.19 142.939 53.0606 142.654 52.8019C142.369 52.5431 142.227 52.2455 142.227 51.909C142.227 51.6503 142.253 51.4044 142.305 51.1715C142.382 50.9386 142.421 50.7574 142.421 50.628C142.421 50.3693 142.24 50.2399 141.878 50.2399C141.515 50.2399 141.127 50.4081 140.713 50.7445C140.325 51.0809 139.988 51.5467 139.704 52.1419C139.471 52.6336 139.251 53.1771 139.044 53.7723C138.837 54.3675 138.669 55.0145 138.539 55.7132V61.8464C138.539 63.011 138.617 63.852 138.772 64.3696C138.927 64.8613 139.199 65.1848 139.587 65.3401C140.001 65.4694 140.584 65.5859 141.334 65.6894L141.955 65.767V66.6599L137.181 66.5434L132.406 66.6599Z" fill="#8CA1C6"/>
<path d="M154.827 66.9704C153.559 66.9704 152.524 66.5952 151.722 65.8447C150.946 65.0683 150.557 63.8132 150.557 62.0793V50.5892H147.685V49.6188L148.733 49.5411C149.794 49.4635 150.596 49.0365 151.14 48.2602C151.709 47.4579 152.084 46.3451 152.265 44.9218H153.275V49.6188H158.243V50.5892H153.275V62.2346C153.275 64.5119 154.077 65.6506 155.681 65.6506C156.354 65.6506 156.898 65.4306 157.312 64.9907C157.726 64.5249 158.101 63.9555 158.437 63.2827L159.291 63.7097C159.136 64.0979 158.942 64.4602 158.709 64.7966C158.502 65.1071 158.295 65.3789 158.088 65.6118C157.648 66.1035 157.143 66.4528 156.574 66.6599C156.031 66.8669 155.448 66.9704 154.827 66.9704Z" fill="#8CA1C6"/>
<path d="M160.257 66.6599V65.767L160.878 65.6894C161.628 65.5859 162.198 65.4694 162.586 65.3401C163 65.1848 163.284 64.8613 163.44 64.3696C163.595 63.852 163.673 63.011 163.673 61.8464V42.9033C163.673 41.5576 163.388 40.7036 162.819 40.3413C162.275 39.9531 161.512 39.759 160.528 39.759H160.257V38.8662C161.318 38.8662 162.34 38.8403 163.323 38.7886C164.307 38.7109 165.329 38.5815 166.39 38.4004V52.2972C166.985 51.4173 167.826 50.641 168.913 49.9681C170 49.2694 171.268 48.9201 172.717 48.9201C174.477 48.9201 175.861 49.3729 176.871 50.2787C177.906 51.1586 178.423 52.4266 178.423 54.0828V61.8464C178.423 63.011 178.501 63.852 178.656 64.3696C178.812 64.8613 179.083 65.1848 179.472 65.3401C179.886 65.4694 180.468 65.5859 181.218 65.6894L181.839 65.767V66.6599L177.065 66.5434L172.29 66.6599V65.767L172.911 65.6894C173.662 65.5859 174.231 65.4694 174.619 65.3401C175.033 65.1848 175.318 64.8613 175.473 64.3696C175.629 63.852 175.706 63.011 175.706 61.8464V54.0828C175.706 52.7889 175.37 51.8055 174.697 51.1327C174.024 50.434 173.08 50.0846 171.863 50.0846C170.932 50.0846 170.091 50.3046 169.34 50.7445C168.59 51.1586 167.969 51.6761 167.477 52.2972C166.985 52.9183 166.623 53.5135 166.39 54.0828V61.8464C166.39 63.011 166.468 63.852 166.623 64.3696C166.778 64.8613 167.05 65.1848 167.438 65.3401C167.852 65.4694 168.434 65.5859 169.185 65.6894L169.806 65.767V66.6599L165.031 66.5434L160.257 66.6599Z" fill="#8CA1C6"/>
<path d="M204.498 66.9704C203.462 66.9704 202.518 66.8022 201.664 66.4658C200.836 66.1294 200.085 65.7929 199.412 65.4565C198.843 65.146 198.364 64.9131 197.976 64.7578C197.614 64.6025 197.29 64.5249 197.006 64.5249C196.643 64.5249 196.385 64.6801 196.229 64.9907C196.1 65.2754 195.996 65.5988 195.919 65.9611L195.802 66.5434H194.832L195.026 61.9629L194.91 56.9554H195.88L196.307 58.7798C196.592 59.9185 197.096 61.0313 197.821 62.1182C198.571 63.2051 199.503 64.0979 200.616 64.7966C201.754 65.4953 203.048 65.8447 204.498 65.8447C205.3 65.8447 206.063 65.6765 206.788 65.3401C207.538 64.9778 208.147 64.4343 208.612 63.7097C209.104 62.9851 209.35 62.0405 209.35 60.876C209.35 59.1421 208.781 57.7447 207.642 56.6836C206.529 55.6226 204.976 54.6134 202.984 53.6558L201.353 52.8795C199.412 51.9479 197.963 50.9257 197.006 49.8129C196.074 48.6742 195.608 47.225 195.608 45.4653C195.608 44.0937 195.945 42.8774 196.618 41.8164C197.29 40.7553 198.209 39.9272 199.374 39.332C200.564 38.7368 201.923 38.4392 203.45 38.4392C204.511 38.4392 205.403 38.5815 206.128 38.8662C206.853 39.1509 207.422 39.3967 207.836 39.6037C208.509 39.9402 209.039 40.1084 209.428 40.1084C209.842 40.1084 210.087 39.7073 210.165 38.905H211.135L211.019 42.6315L211.097 46.3969H210.126C209.971 44.9477 209.57 43.7184 208.923 42.7092C208.276 41.674 207.487 40.8847 206.555 40.3413C205.649 39.7978 204.679 39.5261 203.644 39.5261C202.117 39.5261 200.875 39.966 199.917 40.8459C198.985 41.7258 198.52 42.8515 198.52 44.2231C198.52 45.6982 198.998 46.8627 199.956 47.7167C200.913 48.5448 202.156 49.3341 203.682 50.0846L205.274 50.861C206.697 51.5597 207.914 52.2843 208.923 53.0348C209.958 53.7594 210.747 54.6134 211.291 55.5967C211.86 56.5801 212.145 57.8094 212.145 59.2845C212.145 60.8113 211.795 62.157 211.097 63.3215C210.424 64.4861 209.505 65.3918 208.341 66.0388C207.202 66.6599 205.921 66.9704 204.498 66.9704Z" fill="#8CA1C6"/>
<path d="M222.569 66.9704C221.301 66.9704 220.266 66.5952 219.464 65.8447C218.687 65.0683 218.299 63.8132 218.299 62.0793V50.5892H215.427V49.6188L216.475 49.5411C217.536 49.4635 218.338 49.0365 218.881 48.2602C219.451 47.4579 219.826 46.3451 220.007 44.9218H221.016V49.6188H225.985V50.5892H221.016V62.2346C221.016 64.5119 221.819 65.6506 223.423 65.6506C224.096 65.6506 224.639 65.4306 225.054 64.9907C225.468 64.5249 225.843 63.9555 226.179 63.2827L227.033 63.7097C226.878 64.0979 226.684 64.4602 226.451 64.7966C226.244 65.1071 226.037 65.3789 225.83 65.6118C225.39 66.1035 224.885 66.4528 224.316 66.6599C223.773 66.8669 223.19 66.9704 222.569 66.9704Z" fill="#8CA1C6"/>
<path d="M233.287 66.9704C232.045 66.9704 231.01 66.6599 230.181 66.0388C229.379 65.3918 228.978 64.499 228.978 63.3603C228.978 62.2217 229.483 61.2124 230.492 60.3325C231.501 59.4268 232.679 58.6116 234.024 57.887C235.034 57.3177 236.043 56.826 237.052 56.4119C238.062 55.9979 238.928 55.6485 239.653 55.3638V54.1217C239.653 52.6983 239.381 51.6373 238.838 50.9386C238.32 50.2399 237.324 49.8905 235.849 49.8905C235.15 49.8905 234.464 49.9811 233.792 50.1622C233.119 50.3434 232.782 50.6798 232.782 51.1715C232.782 51.275 232.795 51.3915 232.821 51.5209C232.873 51.6503 232.912 51.7796 232.938 51.909C233.067 52.2455 233.132 52.5948 233.132 52.9571C233.132 53.4488 232.95 53.837 232.588 54.1217C232.252 54.3804 231.838 54.5098 231.346 54.5098C230.88 54.5098 230.492 54.3416 230.181 54.0052C229.871 53.6429 229.716 53.2159 229.716 52.7242C229.716 51.7926 230.065 51.055 230.764 50.5116C231.488 49.9423 232.368 49.5411 233.403 49.3082C234.439 49.0494 235.435 48.9201 236.392 48.9201C238.463 48.9201 239.977 49.3988 240.934 50.3563C241.892 51.3138 242.37 52.8795 242.37 55.0533V62.0405C242.37 63.1792 242.448 64.0591 242.603 64.6801C242.784 65.3012 243.173 65.6118 243.768 65.6118C244.156 65.6118 244.492 65.4694 244.777 65.1848C245.062 64.9001 245.256 64.5896 245.359 64.2531L246.058 64.5249C245.851 65.2754 245.476 65.8706 244.932 66.3105C244.415 66.7504 243.69 66.9704 242.758 66.9704C241.62 66.9704 240.831 66.6469 240.391 66C239.977 65.3271 239.744 64.4472 239.692 63.3603C238.967 64.5249 238.049 65.4177 236.936 66.0388C235.823 66.6599 234.607 66.9704 233.287 66.9704ZM232.006 63.1662C232.006 63.8908 232.213 64.4731 232.627 64.9131C233.067 65.3271 233.701 65.5341 234.529 65.5341C235.28 65.5341 235.991 65.353 236.664 64.9907C237.363 64.6284 237.971 64.1755 238.489 63.6321C239.006 63.0627 239.394 62.4546 239.653 61.8076V56.1402C238.799 56.5025 237.919 56.9295 237.013 57.4212C236.134 57.887 235.305 58.4175 234.529 59.0127C233.779 59.6079 233.17 60.2549 232.705 60.9536C232.239 61.6265 232.006 62.364 232.006 63.1662Z" fill="#8CA1C6"/>
<path d="M254.374 66.9704C253.106 66.9704 252.071 66.5952 251.269 65.8447C250.492 65.0683 250.104 63.8132 250.104 62.0793V50.5892H247.232V49.6188L248.28 49.5411C249.341 49.4635 250.143 49.0365 250.686 48.2602C251.256 47.4579 251.631 46.3451 251.812 44.9218H252.821V49.6188H257.79V50.5892H252.821V62.2346C252.821 64.5119 253.624 65.6506 255.228 65.6506C255.901 65.6506 256.444 65.4306 256.859 64.9907C257.273 64.5249 257.648 63.9555 257.984 63.2827L258.838 63.7097C258.683 64.0979 258.489 64.4602 258.256 64.7966C258.049 65.1071 257.842 65.3789 257.635 65.6118C257.195 66.1035 256.69 66.4528 256.121 66.6599C255.578 66.8669 254.995 66.9704 254.374 66.9704Z" fill="#8CA1C6"/>
<path d="M269.09 66.9704C267.382 66.9704 265.894 66.6081 264.626 65.8835C263.358 65.133 262.362 64.1108 261.637 62.8169C260.938 61.4971 260.589 59.9961 260.589 58.314C260.589 56.5025 260.977 54.898 261.754 53.5006C262.53 52.0773 263.565 50.9645 264.859 50.1622C266.179 49.3341 267.628 48.9201 269.207 48.9201C271.199 48.9201 272.752 49.5541 273.865 50.8221C275.003 52.0902 275.573 53.7594 275.573 55.8297C275.573 56.1402 275.56 56.399 275.534 56.606C275.508 56.813 275.482 56.9554 275.456 57.033H263.733C263.707 57.3953 263.694 57.7576 263.694 58.1199C263.694 59.4915 263.914 60.7725 264.354 61.9629C264.794 63.1274 265.454 64.0591 266.334 64.7578C267.24 65.4565 268.34 65.8059 269.634 65.8059C270.85 65.8059 271.924 65.4694 272.855 64.7966C273.813 64.0979 274.55 63.0757 275.068 61.73L276 62.0793C274.913 65.3401 272.61 66.9704 269.09 66.9704ZM269.207 49.8905C267.602 49.8905 266.347 50.4598 265.441 51.5985C264.561 52.7372 264.018 54.2511 263.811 56.1402H268.741C269.905 56.1402 270.785 56.0108 271.38 55.752C272.001 55.4674 272.416 55.1309 272.623 54.7427C272.855 54.3287 272.972 53.9276 272.972 53.5394C272.972 52.4007 272.584 51.5079 271.807 50.861C271.031 50.214 270.164 49.8905 269.207 49.8905Z" fill="#8CA1C6"/>
<path d="M79.8262 116.569V115.598L80.1755 115.559C81.0813 115.43 81.8188 115.249 82.3882 115.016C82.9834 114.783 83.488 114.408 83.9021 113.89C84.342 113.347 84.7561 112.609 85.1442 111.678L94.5382 88.8915H95.858L105.019 111.678C105.537 112.946 106.093 113.877 106.688 114.472C107.283 115.068 108.099 115.417 109.134 115.521L109.91 115.598V116.569L105.097 116.452L98.8858 116.569V115.598L99.6621 115.521C100.568 115.417 101.215 115.223 101.603 114.938C101.991 114.654 102.185 114.253 102.185 113.735C102.185 113.217 102.004 112.519 101.642 111.639L99.6233 106.592H88.6767L86.5805 111.639C86.3993 112.105 86.2441 112.532 86.1147 112.92C85.9853 113.282 85.9206 113.606 85.9206 113.89C85.9206 114.382 86.1276 114.757 86.5417 115.016C86.9816 115.275 87.6933 115.443 88.6767 115.521L89.453 115.598V116.569L84.5231 116.452L79.8262 116.569ZM89.1813 105.35H99.1575L94.2665 93.045L89.1813 105.35Z" fill="#8CA1C6"/>
<path d="M118.571 116.879C116.889 116.879 115.556 116.465 114.573 115.637C113.615 114.783 113.137 113.528 113.137 111.872V104.341C113.137 103.176 113.059 102.348 112.904 101.857C112.748 101.339 112.464 101.003 112.05 100.847C111.661 100.692 111.092 100.576 110.342 100.498L109.721 100.42V99.5276L114.495 99.644L115.854 99.6052V111.716C115.854 112.984 116.177 113.955 116.824 114.628C117.471 115.301 118.351 115.637 119.464 115.637C120.421 115.637 121.262 115.43 121.987 115.016C122.738 114.576 123.372 114.02 123.889 113.347C124.433 112.674 124.86 111.988 125.17 111.289V104.341C125.17 103.176 125.092 102.348 124.937 101.857C124.782 101.339 124.497 101.003 124.083 100.847C123.695 100.692 123.126 100.576 122.375 100.498L121.754 100.42V99.5276L126.529 99.644L127.887 99.6052V112.143C127.887 113.127 128.004 113.864 128.237 114.356C128.496 114.822 128.858 115.132 129.324 115.288C129.815 115.443 130.411 115.521 131.109 115.521V116.413C130.048 116.413 129.078 116.426 128.198 116.452C127.318 116.478 126.309 116.595 125.17 116.802V113.23C124.911 113.644 124.64 114.007 124.355 114.317C123.682 115.068 122.867 115.689 121.909 116.18C120.952 116.646 119.839 116.879 118.571 116.879Z" fill="#8CA1C6"/>
<path d="M141.135 116.879C139.66 116.879 138.328 116.478 137.137 115.676C135.947 114.874 135.002 113.787 134.304 112.415C133.605 111.018 133.255 109.478 133.255 107.796C133.255 106.114 133.605 104.6 134.304 103.254C135.002 101.908 135.96 100.834 137.176 100.032C138.392 99.23 139.764 98.8289 141.291 98.8289C142.378 98.8289 143.374 99.0618 144.28 99.5276C145.186 99.9675 145.936 100.472 146.531 101.041V92.8121C146.531 91.4664 146.247 90.6124 145.677 90.2501C145.134 89.8619 144.37 89.6678 143.387 89.6678H143.115V88.775C144.176 88.775 145.198 88.7491 146.182 88.6974C147.165 88.6197 148.187 88.4903 149.248 88.3092V112.221C149.248 113.67 149.52 114.589 150.064 114.977C150.633 115.365 151.435 115.559 152.47 115.559V116.452H150.879C150.309 116.452 149.753 116.465 149.21 116.491C148.666 116.543 148.058 116.633 147.385 116.763L146.881 114.045C146.182 114.874 145.341 115.559 144.357 116.103C143.4 116.62 142.326 116.879 141.135 116.879ZM136.361 107.796C136.361 109.297 136.542 110.642 136.904 111.833C137.293 113.023 137.862 113.968 138.612 114.667C139.389 115.365 140.359 115.715 141.524 115.715C142.636 115.715 143.594 115.469 144.396 114.977C145.224 114.46 145.936 113.838 146.531 113.114V102.633C146.091 101.96 145.431 101.352 144.551 100.809C143.672 100.265 142.701 99.9934 141.64 99.9934C140.45 99.9934 139.466 100.343 138.69 101.041C137.914 101.714 137.331 102.646 136.943 103.836C136.555 105.001 136.361 106.321 136.361 107.796Z" fill="#8CA1C6"/>
<path d="M153.748 116.569V115.676L154.369 115.598C155.12 115.495 155.689 115.378 156.077 115.249C156.491 115.094 156.776 114.77 156.931 114.278C157.087 113.761 157.164 112.92 157.164 111.755V103.565C157.164 102.219 156.88 101.365 156.31 101.003C155.767 100.614 155.003 100.42 154.02 100.42H153.748V99.5276C154.809 99.5276 155.832 99.5017 156.815 99.4499C157.798 99.3723 158.821 99.2429 159.882 99.0618V111.755C159.882 112.92 159.959 113.761 160.114 114.278C160.27 114.77 160.541 115.094 160.93 115.249C161.344 115.378 161.926 115.495 162.676 115.598L163.298 115.676V116.569L158.523 116.452L153.748 116.569ZM158.057 94.5201C157.384 94.5201 156.854 94.2872 156.466 93.8213C156.077 93.3555 155.883 92.7991 155.883 92.1522C155.883 91.4793 156.077 90.9229 156.466 90.483C156.854 90.0172 157.384 89.7843 158.057 89.7843C158.808 89.7843 159.351 90.0172 159.687 90.483C160.05 90.9229 160.231 91.4793 160.231 92.1522C160.231 92.7991 160.05 93.3555 159.687 93.8213C159.351 94.2872 158.808 94.5201 158.057 94.5201Z" fill="#8CA1C6"/>
<path d="M174.368 116.879C172.711 116.879 171.197 116.478 169.826 115.676C168.48 114.874 167.406 113.8 166.604 112.454C165.828 111.082 165.439 109.568 165.439 107.912C165.439 106.204 165.828 104.664 166.604 103.293C167.406 101.921 168.48 100.834 169.826 100.032C171.197 99.23 172.711 98.8289 174.368 98.8289C176.05 98.8289 177.564 99.23 178.909 100.032C180.255 100.834 181.316 101.921 182.092 103.293C182.895 104.664 183.296 106.204 183.296 107.912C183.296 109.568 182.895 111.082 182.092 112.454C181.316 113.8 180.255 114.874 178.909 115.676C177.564 116.478 176.05 116.879 174.368 116.879ZM174.368 115.909C175.765 115.909 176.891 115.559 177.745 114.861C178.599 114.136 179.22 113.179 179.608 111.988C179.996 110.772 180.19 109.413 180.19 107.912C180.19 106.36 179.996 104.975 179.608 103.759C179.22 102.542 178.599 101.585 177.745 100.886C176.891 100.162 175.765 99.7993 174.368 99.7993C172.97 99.7993 171.844 100.162 170.99 100.886C170.136 101.585 169.515 102.542 169.127 103.759C168.739 104.975 168.545 106.36 168.545 107.912C168.545 109.413 168.739 110.772 169.127 111.988C169.515 113.179 170.136 114.136 170.99 114.861C171.844 115.559 172.97 115.909 174.368 115.909Z" fill="#8CA1C6"/>
<path d="M185.617 116.569V115.676L186.238 115.598C186.989 115.495 187.558 115.378 187.946 115.249C188.36 115.094 188.645 114.77 188.8 114.278C188.956 113.761 189.033 112.92 189.033 111.755V92.8121C189.033 91.4664 188.749 90.6124 188.179 90.2501C187.636 89.8619 186.872 89.6678 185.889 89.6678H185.617V88.775C186.678 88.775 187.7 88.7491 188.684 88.6974C189.667 88.6197 190.689 88.4903 191.75 88.3092V111.755C191.75 112.92 191.828 113.761 191.983 114.278C192.139 114.77 192.41 115.094 192.799 115.249C193.213 115.378 193.795 115.495 194.545 115.598L195.166 115.676V116.569L190.392 116.452L185.617 116.569Z" fill="#8CA1C6"/>
<path d="M206.438 116.879C204.782 116.879 203.268 116.478 201.896 115.676C200.551 114.874 199.477 113.8 198.674 112.454C197.898 111.082 197.51 109.568 197.51 107.912C197.51 106.204 197.898 104.664 198.674 103.293C199.477 101.921 200.551 100.834 201.896 100.032C203.268 99.23 204.782 98.8289 206.438 98.8289C208.12 98.8289 209.634 99.23 210.98 100.032C212.325 100.834 213.386 101.921 214.163 103.293C214.965 104.664 215.366 106.204 215.366 107.912C215.366 109.568 214.965 111.082 214.163 112.454C213.386 113.8 212.325 114.874 210.98 115.676C209.634 116.478 208.12 116.879 206.438 116.879ZM206.438 115.909C207.835 115.909 208.961 115.559 209.815 114.861C210.669 114.136 211.29 113.179 211.678 111.988C212.067 110.772 212.261 109.413 212.261 107.912C212.261 106.36 212.067 104.975 211.678 103.759C211.29 102.542 210.669 101.585 209.815 100.886C208.961 100.162 207.835 99.7993 206.438 99.7993C205.04 99.7993 203.915 100.162 203.061 100.886C202.207 101.585 201.586 102.542 201.197 103.759C200.809 104.975 200.615 106.36 200.615 107.912C200.615 109.413 200.809 110.772 201.197 111.988C201.586 113.179 202.207 114.136 203.061 114.861C203.915 115.559 205.04 115.909 206.438 115.909Z" fill="#8CA1C6"/>
<path d="M226.887 111.328C226.008 111.328 225.154 111.199 224.325 110.94C223.627 111.095 222.967 111.367 222.346 111.755C221.75 112.118 221.453 112.609 221.453 113.23C221.453 113.774 221.647 114.188 222.035 114.472C222.423 114.731 222.928 114.912 223.549 115.016C224.17 115.094 224.843 115.158 225.568 115.21L227.276 115.288C228.906 115.365 230.381 115.546 231.701 115.831C233.021 116.09 234.069 116.607 234.845 117.384C235.647 118.16 236.048 119.351 236.048 120.955C236.048 122.43 235.609 123.672 234.729 124.682C233.875 125.717 232.749 126.506 231.351 127.05C229.98 127.593 228.492 127.865 226.887 127.865C225.283 127.865 223.756 127.645 222.307 127.205C220.884 126.765 219.719 126.092 218.813 125.186C217.933 124.28 217.493 123.116 217.493 121.693C217.493 120.865 217.688 120.179 218.076 119.635C218.49 119.092 219.02 118.82 219.667 118.82C220.107 118.82 220.482 118.937 220.793 119.169C221.104 119.428 221.259 119.803 221.259 120.295C221.259 120.735 221.181 121.084 221.026 121.343C220.871 121.628 220.702 121.913 220.521 122.197C220.366 122.482 220.288 122.844 220.288 123.284C220.288 124.164 220.586 124.863 221.181 125.38C221.802 125.924 222.604 126.312 223.588 126.545C224.597 126.778 225.697 126.894 226.887 126.894C228.207 126.894 229.424 126.7 230.536 126.312C231.649 125.924 232.542 125.342 233.215 124.565C233.913 123.815 234.263 122.883 234.263 121.77C234.263 120.606 233.797 119.752 232.865 119.208C231.96 118.691 230.549 118.38 228.634 118.277L224.675 118.083C223.898 118.031 223.07 117.927 222.19 117.772C221.336 117.617 220.612 117.293 220.017 116.802C219.421 116.336 219.124 115.624 219.124 114.667C219.124 113.657 219.538 112.777 220.366 112.027C221.22 111.276 222.165 110.759 223.2 110.474C222.165 109.931 221.323 109.193 220.677 108.262C220.03 107.33 219.706 106.269 219.706 105.079C219.706 103.888 220.017 102.827 220.638 101.895C221.285 100.964 222.152 100.226 223.239 99.6828C224.325 99.1135 225.542 98.8289 226.887 98.8289C228.44 98.8289 229.825 99.2041 231.041 99.9546C231.584 99.2041 232.244 98.6736 233.021 98.363C233.797 98.0266 234.573 97.8584 235.35 97.8584C236.152 97.8584 236.838 98.0654 237.407 98.4795C238.002 98.8677 238.3 99.3982 238.3 100.071C238.3 100.614 238.119 101.041 237.756 101.352C237.42 101.637 237.045 101.779 236.631 101.779C235.673 101.779 235.091 101.236 234.884 100.149C234.832 99.8381 234.716 99.5793 234.535 99.3723C234.379 99.1653 234.133 99.0618 233.797 99.0618C233.383 99.0618 232.995 99.217 232.632 99.5276C232.296 99.8122 232.011 100.123 231.778 100.459C232.477 101.029 233.034 101.714 233.448 102.517C233.862 103.319 234.069 104.173 234.069 105.079C234.069 106.243 233.745 107.304 233.098 108.262C232.477 109.193 231.623 109.944 230.536 110.513C229.449 111.057 228.233 111.328 226.887 111.328ZM226.887 110.358C228.414 110.358 229.488 109.853 230.109 108.844C230.756 107.835 231.08 106.58 231.08 105.079C231.08 103.578 230.756 102.322 230.109 101.313C229.488 100.304 228.414 99.7993 226.887 99.7993C225.386 99.7993 224.312 100.304 223.666 101.313C223.019 102.322 222.695 103.578 222.695 105.079C222.695 106.58 223.019 107.835 223.666 108.844C224.312 109.853 225.386 110.358 226.887 110.358Z" fill="#8CA1C6"/>
<path d="M240.074 127.865C239.194 127.865 238.535 127.645 238.095 127.205C237.655 126.791 237.435 126.325 237.435 125.807C237.435 125.29 237.629 124.85 238.017 124.488C238.379 124.151 238.845 123.983 239.414 123.983C239.777 123.983 240.061 124.035 240.268 124.138C240.475 124.268 240.669 124.397 240.851 124.526C241.032 124.656 241.239 124.785 241.472 124.915C241.705 125.07 241.976 125.147 242.287 125.147C242.753 125.147 243.231 124.966 243.723 124.604C244.241 124.242 244.771 123.491 245.315 122.353L247.877 116.84L241.433 102.711C241.174 102.115 240.889 101.624 240.579 101.236C240.268 100.847 239.79 100.614 239.143 100.537L238.25 100.42V99.5276L242.287 99.644L246.208 99.5276V100.42L245.664 100.498C244.577 100.653 244.034 101.054 244.034 101.701C244.034 102.012 244.176 102.478 244.461 103.099L249.313 113.735L254.165 103.293C254.45 102.646 254.592 102.141 254.592 101.779C254.592 101.08 253.958 100.653 252.69 100.498L252.069 100.42V99.5276L255.796 99.644L258.901 99.5276V100.42L258.319 100.498C257.361 100.627 256.662 100.977 256.223 101.546C255.809 102.115 255.42 102.814 255.058 103.642L246.285 122.78C245.871 123.659 245.379 124.488 244.81 125.264C244.267 126.04 243.607 126.661 242.83 127.127C242.08 127.619 241.161 127.865 240.074 127.865Z" fill="#8CA1C6"/>
<path d="M66.5449 17.3417C60.1193 17.3417 53.7566 18.5876 47.8201 21.0084C41.8837 23.4292 36.4896 26.9773 31.946 31.4503C27.4025 35.9233 23.7983 41.2336 21.3393 47.0778C18.8803 52.9221 17.6147 59.1859 17.6147 65.5117C17.6147 71.8374 18.8803 78.1013 21.3393 83.9455C23.7983 89.7898 27.4025 95.1 31.946 99.573C36.4896 104.046 41.8837 107.594 47.8201 110.015C53.7566 112.436 60.1193 113.682 66.5449 113.682L66.5449 104.048C61.4044 104.048 56.3143 103.051 51.5651 101.114C46.8159 99.1777 42.5007 96.3391 38.8658 92.7607C35.231 89.1823 32.3476 84.9341 30.3804 80.2587C28.4133 75.5833 27.4008 70.5723 27.4008 65.5117C27.4008 60.451 28.4133 55.44 30.3804 50.7646C32.3476 46.0892 35.2309 41.841 38.8658 38.2626C42.5007 34.6842 46.8159 31.8457 51.5651 29.909C56.3143 27.9724 61.4044 26.9757 66.5449 26.9757L66.5449 17.3417Z" fill="#8CA1C6"/>
<path d="M66.5449 0.000482082C57.8061 0.000482464 49.1528 1.69498 41.0792 4.98723C33.0056 8.27947 25.6697 13.105 19.4904 19.1883C13.3112 25.2715 8.40949 32.4934 5.06529 40.4416C1.72109 48.3898 -0.000149566 56.9086 -0.000148808 65.5117L8.91797 65.5117C8.91797 58.0616 10.4085 50.6844 13.3046 43.8014C16.2006 36.9184 20.4454 30.6644 25.7965 25.3964C31.1477 20.1283 37.5004 15.9495 44.492 13.0985C51.4837 10.2475 58.9772 8.78004 66.5449 8.78004L66.5449 0.000482082Z" fill="#8CA1C6"/>
<path d="M66.5449 36.6097C58.7587 36.6097 51.2913 39.6547 45.7856 45.0749C40.2799 50.495 37.1868 57.8464 37.1868 65.5117C37.1868 73.1769 40.2799 80.5283 45.7856 85.9484C51.2913 91.3686 58.7587 94.4136 66.5449 94.4136L66.5449 84.9001C61.3216 84.9001 56.3123 82.8574 52.6189 79.2213C48.9255 75.5853 46.8505 70.6538 46.8505 65.5117C46.8505 60.3695 48.9255 55.438 52.6189 51.802C56.3123 48.1659 61.3216 46.1232 66.5449 46.1232L66.5449 36.6097Z" fill="#8CA1C6"/>
</svg>
