<svg width="98" height="101" viewBox="0 0 98 101" fill="none" xmlns="http://www.w3.org/2000/svg">
<path d="M17.4169 13.3754H58.7004C58.8044 13.3754 58.9001 13.3379 58.9708 13.2631C59.0415 13.1923 59.079 13.0925 59.079 12.9927V2.80501C59.079 2.59285 58.9126 2.42229 58.7004 2.41814H17.4169C17.317 2.4223 17.2255 2.45973 17.1506 2.53046C17.0799 2.60533 17.0425 2.70517 17.0383 2.80501V12.9885C17.0425 13.0884 17.0799 13.1882 17.1506 13.2631C17.2213 13.3338 17.317 13.3754 17.4169 13.3754ZM88.2855 97.5803L94.4007 93.9695H94.3965C94.5837 93.8572 94.7168 93.6783 94.7667 93.4662C94.825 93.2582 94.8 93.0336 94.6919 92.8422L87.9153 80.8115C87.8072 80.6244 87.6324 80.4871 87.4244 80.433C87.2164 80.3747 87.0001 80.3997 86.8129 80.5079C86.7921 80.5203 86.7755 80.5287 86.7505 80.5411L86.0517 80.9488L81.4508 83.6777C81.43 83.6902 81.4133 83.6985 81.3884 83.711L80.6895 84.1228H80.6937C80.311 84.3558 80.1779 84.8508 80.3942 85.246L87.179 97.2767C87.283 97.4597 87.4577 97.597 87.6657 97.6552C87.8696 97.7135 88.0942 97.6844 88.2772 97.5762L88.2855 97.5803ZM95.5488 96.012L89.417 99.6311C88.7099 100.047 87.8654 100.159 87.075 99.9431C86.2722 99.7184 85.5941 99.186 85.1906 98.4622L78.4099 86.4358C77.9939 85.7036 77.8816 84.8384 78.0979 84.0231C78.281 83.3034 78.7136 82.6711 79.3167 82.2384L75.3564 75.2123L75.3523 90.6294C75.3564 91.8899 74.8656 93.1046 73.9795 94.0073C73.1184 94.9017 71.9286 95.4051 70.6847 95.4051H5.44002C4.19617 95.4051 3.00642 94.8975 2.14115 94.0032C1.25925 93.1005 0.768334 91.8899 0.772487 90.6294V11.4989C0.772487 10.2343 1.26336 9.02379 2.1453 8.12519C3.0064 7.22665 4.19617 6.71915 5.44002 6.715H14.7292L14.7333 2.80464C14.7292 2.08081 15.0121 1.38198 15.5154 0.861969C16.0146 0.346132 16.701 0.0549452 17.4166 0.0507812H58.7001C59.4156 0.054942 60.102 0.346132 60.597 0.861969C61.1045 1.37781 61.3874 2.07664 61.3832 2.80048V6.715H70.6848C71.9287 6.71915 73.1142 7.22667 73.9753 8.12519C74.8572 9.02374 75.3522 10.2385 75.3481 11.4989V31.1759C79.4498 33.1102 82.8402 36.2801 85.0532 40.2362C85.0699 40.2653 85.0782 40.2861 85.0907 40.3069V40.311C87.9444 45.4153 88.7098 51.4269 87.2205 57.0796C86.0932 61.4434 83.6596 65.3578 80.2526 68.3073L85.9101 78.3411V78.3369C86.5674 78.0249 87.3162 77.9584 88.0192 78.1497C88.7847 78.3619 89.4419 78.8611 89.8538 79.5433C89.8913 79.6015 89.9287 79.6639 89.9578 79.7305L96.6844 91.6653V91.6611C97.0921 92.3975 97.2044 93.2586 96.9923 94.0739C96.7843 94.8809 96.2684 95.5757 95.5529 96.0082V96.0041L95.5488 96.012ZM58.5207 37.552C62.0691 35.4387 66.3247 34.8647 70.3096 35.9629C74.3198 37.0695 77.7184 39.7443 79.7444 43.3759C79.7569 43.4008 79.7694 43.4258 79.7818 43.4507C81.8202 47.1032 82.361 51.4046 81.2961 55.4526C80.2561 59.5044 77.652 62.9779 74.0578 65.1161C74.0328 65.1328 74.012 65.1452 73.9871 65.1536C70.4511 67.2377 66.2204 67.7952 62.2642 66.7052C58.2499 65.5986 54.8512 62.9279 52.8253 59.2922V59.2964C50.7578 55.6232 50.2004 51.2927 51.2737 47.2157C52.3136 43.1639 54.9178 39.6904 58.5161 37.5522L58.5207 37.552ZM69.7154 38.2384C66.3458 37.3149 62.7516 37.7891 59.7357 39.5571C59.69 39.5821 59.6484 39.6112 59.6026 39.6362L59.6068 39.632C56.5783 41.4582 54.3861 44.3993 53.5041 47.8229C52.5973 51.2715 53.0549 54.9322 54.7895 58.0439C54.8228 58.098 54.8519 58.152 54.8769 58.2061C56.6074 61.2595 59.4819 63.4976 62.8639 64.4294C66.2377 65.3571 69.8402 64.8829 72.8602 63.1107L72.9101 63.0774H72.906C75.976 61.2596 78.1932 58.2976 79.0793 54.8449C79.9862 51.3921 79.5245 47.7272 77.7898 44.6114L77.7565 44.5615C76.0301 41.4623 73.139 39.1869 69.7195 38.2384L69.7154 38.2384ZM55.4548 32.1191C60.4009 29.1739 66.3417 28.3711 71.8953 29.8978C72.2822 30.0018 72.6649 30.1224 73.0435 30.2514V11.4988C73.0435 10.8582 72.7939 10.2467 72.3446 9.78905C71.9078 9.33561 71.3088 9.0777 70.6765 9.07354H61.3873V12.9881C61.3915 13.7119 61.1086 14.4107 60.6011 14.9266C60.106 15.4466 59.4238 15.7378 58.7042 15.7378H17.4164C16.7009 15.7378 16.0187 15.4466 15.5237 14.9266C15.0162 14.4066 14.7333 13.7119 14.7375 12.9881V9.07354H5.43998C4.81184 9.0777 4.2087 9.33561 3.76771 9.78905C3.33091 10.2508 3.08547 10.8623 3.08964 11.4988V90.6293C3.08964 91.2658 3.33507 91.8773 3.78019 92.3391C4.21698 92.7925 4.82017 93.0504 5.45246 93.0504H70.6844C71.3126 93.0504 71.9157 92.7925 72.3525 92.3391C72.7976 91.8815 73.0472 91.27 73.0472 90.6293V72.4252C69.0537 73.7688 64.7481 73.8895 60.6843 72.7705C55.0892 71.2272 50.3511 67.504 47.527 62.4331C47.3814 62.171 47.2358 61.9089 47.1027 61.6469H37.5016C36.8651 61.6261 36.3576 61.1019 36.3576 60.4654C36.3576 59.8248 36.8651 59.3006 37.5016 59.2798H46.046C45.2639 57.204 44.7939 55.02 44.6524 52.8028H37.5016C36.8651 52.782 36.3576 52.2579 36.3576 51.6214C36.3576 50.9808 36.8651 50.4566 37.5016 50.4358H44.6234C44.8022 46.018 46.2707 41.7456 48.8456 38.1517H37.5019C36.8862 38.1059 36.412 37.5901 36.412 36.9744C36.412 36.3546 36.8863 35.8429 37.5019 35.7971H50.8179C52.1907 34.3703 53.7507 33.1347 55.4563 32.1239L55.4548 32.1191ZM78.4053 69.7329C77.9935 70.0157 77.5609 70.2945 77.1241 70.5482C77.0991 70.5649 77.0742 70.5773 77.0534 70.5857C76.6332 70.8311 76.2131 71.0599 75.7888 71.2721L81.2965 81.0479L83.9131 79.5046L78.4053 69.7329ZM71.3001 32.1809C66.3332 30.8081 61.0252 31.5236 56.5986 34.1528C54.968 35.1179 53.487 36.3159 52.2016 37.7094C52.1641 37.7552 52.1226 37.801 52.081 37.8426C49.9262 40.2262 48.3827 43.0924 47.5757 46.1999C47.1181 47.947 46.8976 49.7441 46.9143 51.5495V51.6619C46.9559 54.5031 47.6007 57.3027 48.7987 59.8777C48.8278 59.9234 48.8486 59.9733 48.8694 60.0233C49.0649 60.4351 49.2771 60.8511 49.5059 61.2504C52.0351 65.7806 56.2741 69.1126 61.2788 70.4938C65.3847 71.6253 69.7526 71.3382 73.6758 69.6743C73.7091 69.6618 73.7382 69.6451 73.7673 69.6368C74.5078 69.3165 75.2233 68.9546 75.9138 68.5428C75.9305 68.5303 75.9513 68.522 75.9679 68.5095V68.5137C80.4523 65.8472 83.697 61.5167 84.995 56.4671C86.3262 51.4128 85.6481 46.0381 83.0981 41.4748C83.0856 41.4582 83.0773 41.4374 83.0648 41.4207V41.4166C80.5398 36.8864 76.3005 33.5579 71.3001 32.1809ZM37.501 85.1373C36.8521 85.1373 36.3237 84.6048 36.3237 83.9558C36.3237 83.3027 36.852 82.7744 37.501 82.7744H62.6145C63.2634 82.7744 63.7918 83.3027 63.7918 83.9558C63.7918 84.6048 63.2635 85.1373 62.6145 85.1373H37.501ZM37.501 76.2932C36.8521 76.2932 36.3237 75.7649 36.3237 75.1118C36.3237 74.4587 36.852 73.9304 37.501 73.9304H56.6199C57.273 73.9304 57.8014 74.4587 57.8014 75.1118C57.8014 75.7649 57.2731 76.2932 56.6199 76.2932H37.501ZM16.2608 79.3882C15.8697 78.8682 15.9571 78.1402 16.4604 77.7284C16.7017 77.537 17.0095 77.4538 17.3132 77.4912C17.6169 77.5328 17.8915 77.6909 18.0786 77.9364L19.6802 80.0455L24.2645 76.4347H24.2603C24.5016 76.2475 24.8094 76.1601 25.1131 76.2017C25.4168 76.2392 25.6913 76.4014 25.8744 76.6468C26.2612 77.1627 26.1697 77.8948 25.6664 78.2984L20.2376 82.5789C20.221 82.5955 20.2043 82.6122 20.1835 82.6288C19.9464 82.8202 19.6386 82.9075 19.3307 82.8701C19.0271 82.8285 18.7525 82.6704 18.5653 82.4208L16.2608 79.3882ZM13.5152 70.6149H28.6161C29.2609 70.6273 29.7725 71.1515 29.7684 71.7963V87.2667C29.7767 87.9115 29.2567 88.4399 28.612 88.4482H13.5153C13.2033 88.444 12.908 88.3151 12.6917 88.0946C12.4754 87.8741 12.3589 87.5746 12.363 87.2668V71.7963C12.3547 71.1516 12.8705 70.6232 13.5152 70.6149ZM27.4713 72.9819H14.6675V86.0818H27.4681L27.4713 72.9819ZM16.2607 55.8971C15.8696 55.3812 15.957 54.649 16.4603 54.2414C16.7016 54.05 17.0094 53.9627 17.3131 54.0001C17.6168 54.0376 17.8955 54.1998 18.0785 54.4452L19.6801 56.5543L24.2644 52.9436L24.2602 52.9477C24.5015 52.7522 24.8093 52.6648 25.113 52.7064C25.4208 52.7439 25.6954 52.9103 25.8742 53.1599C26.2611 53.6757 26.1696 54.4037 25.6663 54.8072L20.2375 59.0878C20.225 59.1086 20.2042 59.121 20.1834 59.1335C19.9463 59.3249 19.6385 59.4122 19.3306 59.3748C19.027 59.3374 18.7524 59.1751 18.5652 58.9297L16.2607 55.8971ZM13.5151 47.1279H28.616C29.2608 47.1362 29.7766 47.6645 29.7683 48.3093V63.7798C29.7724 64.4204 29.2566 64.9487 28.6118 64.957H13.5152C12.8704 64.9487 12.3588 64.4204 12.363 63.7798V48.3093C12.3588 48.0015 12.4795 47.702 12.6916 47.4815C12.9079 47.2569 13.2031 47.1321 13.5151 47.1279ZM27.468 49.4865H14.6674V62.5949H27.468V49.4865ZM37.5018 29.3112C36.8653 29.2904 36.3578 28.7663 36.3578 28.1298C36.3578 27.4933 36.8653 26.9692 37.5018 26.9483H56.6207C57.2571 26.9691 57.7646 27.4933 57.7646 28.1298C57.7646 28.7662 57.2571 29.2903 56.6207 29.3112H37.5018ZM16.2615 32.402C15.8705 31.8862 15.9578 31.154 16.4612 30.7463C16.7025 30.5508 17.0103 30.4676 17.314 30.505C17.6176 30.5466 17.8964 30.7047 18.0794 30.9543L19.681 33.0593L24.2652 29.4485L24.2611 29.4526C24.5023 29.2613 24.8102 29.1781 25.1138 29.2155C25.4175 29.2571 25.6921 29.4194 25.8751 29.6648C26.262 30.1806 26.1705 30.9087 25.6671 31.3163L20.2384 35.5927C20.2217 35.6135 20.2051 35.6301 20.1843 35.6468C19.9472 35.8381 19.6393 35.9213 19.3315 35.8839C19.0278 35.8465 18.7533 35.6842 18.5661 35.4388L16.2615 32.402ZM13.516 23.6328H28.6169C29.2616 23.6412 29.7774 24.1695 29.7691 24.8143V40.2847C29.7774 40.9295 29.2574 41.4578 28.6127 41.4661H13.5161C13.2041 41.462 12.9087 41.3372 12.6924 41.1125C12.4803 40.8921 12.3596 40.5926 12.3638 40.2847V24.8143C12.3596 24.5065 12.4803 24.207 12.6924 23.9865C12.9087 23.7618 13.204 23.637 13.516 23.6328ZM27.472 25.9999L14.6682 25.9957V39.0998H27.4688L27.472 25.9999Z" fill="#355FEC"/>
</svg>
