<svg width="276" height="101" viewBox="0 0 276 101" fill="none" xmlns="http://www.w3.org/2000/svg">
<path d="M46.8389 26.5089C46.8389 27.1855 46.9743 27.7606 47.2449 28.2343C47.5381 28.6853 47.899 29.0687 48.3275 29.3845C48.7785 29.7002 49.2634 29.9822 49.7822 30.2302C50.3235 30.4558 50.8422 30.6813 51.3384 30.9069C52.1954 31.3128 53.0412 31.7413 53.8756 32.1924C54.7327 32.6435 55.4995 33.1735 56.1761 33.7824C56.8527 34.3688 57.394 35.0793 57.8 35.9137C58.2285 36.7257 58.4427 37.718 58.4427 38.8908C58.4427 40.0636 58.1946 41.0559 57.6985 41.8679C57.2248 42.6572 56.5933 43.3113 55.804 43.83C55.0372 44.3262 54.1688 44.6871 53.199 44.9126C52.2292 45.1381 51.2594 45.2509 50.2896 45.2509C49.6581 45.2509 48.9477 45.1494 48.1583 44.9464C47.369 44.766 46.6472 44.4841 45.9932 44.1007C45.8804 44.0556 45.7676 44.0105 45.6549 43.9654C45.5647 43.9202 45.4406 43.8977 45.2827 43.8977C45.1249 43.8977 44.9557 43.9654 44.7753 44.1007C44.5949 44.236 44.437 44.4728 44.3017 44.8111C44.234 44.9464 44.1438 45.0366 44.031 45.0818C43.9183 45.1269 43.7942 45.1381 43.6589 45.1156C43.5461 45.1156 43.4446 45.0818 43.3544 45.0141C43.2868 44.9464 43.2529 44.8675 43.2529 44.7773C43.3206 44.2811 43.377 43.7511 43.4221 43.1873C43.4897 42.6009 43.5236 42.0145 43.5236 41.4281C43.5236 40.8417 43.501 40.2553 43.4559 39.6689C43.4334 39.0825 43.377 38.4736 43.2868 37.8421C43.2642 37.7067 43.3093 37.594 43.4221 37.5038C43.5348 37.4135 43.6589 37.3684 43.7942 37.3684C43.9295 37.3459 44.0536 37.3684 44.1663 37.4361C44.3017 37.4812 44.3806 37.5714 44.4032 37.7067C44.5385 38.6314 44.7866 39.4772 45.1474 40.244C45.5083 40.9883 45.9594 41.6311 46.5006 42.1723C47.0419 42.6911 47.6509 43.097 48.3275 43.3902C49.0266 43.6834 49.7822 43.83 50.5941 43.83C51.2031 43.83 51.7782 43.7511 52.3195 43.5932C52.8833 43.4128 53.3795 43.1647 53.808 42.849C54.2365 42.5106 54.5748 42.1047 54.8229 41.6311C55.071 41.1574 55.195 40.6049 55.195 39.9734C55.195 39.1614 55.0146 38.451 54.6537 37.8421C54.3154 37.2331 53.8869 36.7144 53.3682 36.2859C52.8495 35.8348 52.2743 35.4514 51.6428 35.1356C51.0113 34.7973 50.4137 34.4929 49.8498 34.2222C49.1056 33.8839 48.3613 33.5343 47.617 33.1735C46.8728 32.8126 46.2074 32.3841 45.6211 31.8879C45.0347 31.3692 44.561 30.7603 44.2002 30.0611C43.8393 29.3394 43.6589 28.4485 43.6589 27.3885C43.6589 26.3059 43.8732 25.4038 44.3017 24.6821C44.7527 23.9378 45.3391 23.3401 46.0608 22.8891C46.7826 22.438 47.6058 22.111 48.5305 21.908C49.4552 21.705 50.4137 21.6035 51.406 21.6035C52.0375 21.6035 52.5675 21.6486 52.9961 21.7388C53.4471 21.8065 53.9433 21.9305 54.4846 22.111C54.7778 22.2012 55.0146 22.2801 55.195 22.3478C55.398 22.3929 55.5897 22.4154 55.7701 22.4154C56.0408 22.4154 56.2325 22.3027 56.3453 22.0771C56.3904 21.9869 56.4693 21.9305 56.5821 21.908C56.7174 21.8629 56.8414 21.8516 56.9542 21.8742C57.067 21.8742 57.1685 21.8967 57.2587 21.9418C57.3489 21.9869 57.3827 22.0546 57.3602 22.1448C57.2474 22.5508 57.1685 22.9567 57.1234 23.3627C57.1008 23.7687 57.0895 24.1972 57.0895 24.6482C57.0895 25.2346 57.1234 25.7646 57.191 26.2383C57.2587 26.7119 57.3151 27.2757 57.3602 27.9298C57.3602 27.9974 57.3151 28.0651 57.2248 28.1328C57.1346 28.1779 57.0219 28.2117 56.8865 28.2343C56.7738 28.2343 56.661 28.2117 56.5482 28.1666C56.4355 28.1215 56.3678 28.0426 56.3453 27.9298C56.1197 26.9374 55.8716 26.1255 55.601 25.494C55.3304 24.8399 54.992 24.3325 54.5861 23.9716C54.1801 23.6108 53.6839 23.3627 53.0976 23.2274C52.5337 23.0921 51.8458 23.0244 51.0339 23.0244C50.4701 23.0244 49.9288 23.1033 49.41 23.2612C48.9139 23.3965 48.4741 23.6108 48.0907 23.904C47.7073 24.1972 47.4028 24.5693 47.1772 25.0204C46.9517 25.4489 46.8389 25.9451 46.8389 26.5089Z" fill="#8CA1C6"/>
<path d="M65.776 41.0898C65.776 41.2702 65.8549 41.5183 66.0128 41.834C66.1707 42.1272 66.3962 42.4204 66.6894 42.7136C67.0052 42.9843 67.3773 43.2324 67.8058 43.4579C68.2569 43.6609 68.7643 43.7624 69.3282 43.7624C70.0273 43.7624 70.6137 43.5819 71.0873 43.2211C71.5835 42.8602 71.9782 42.3641 72.2714 41.7326C72.5872 41.1011 72.8127 40.3681 72.948 39.5336C73.0833 38.6991 73.151 37.8195 73.151 36.8948C73.151 34.9778 72.8916 33.5456 72.3729 32.5984C71.8542 31.6286 70.9859 31.1437 69.768 31.1437C69.1816 31.1437 68.6403 31.2452 68.1441 31.4481C67.6705 31.6286 67.2532 31.8767 66.8924 32.1924C66.5541 32.4856 66.2834 32.8465 66.0805 33.275C65.8775 33.6809 65.776 34.0982 65.776 34.5267V41.0898ZM62.5959 36.6242C62.5959 35.5191 62.5734 34.6056 62.5283 33.8839C62.5057 33.1397 62.4155 32.5533 62.2576 32.1247C62.1223 31.6962 61.8855 31.3918 61.5472 31.2113C61.2314 31.0083 60.7804 30.8956 60.194 30.873C60.0812 30.873 59.991 30.8166 59.9233 30.7039C59.8782 30.5911 59.8557 30.4783 59.8557 30.3656C59.8557 30.2528 59.8782 30.14 59.9233 30.0273C59.9685 29.9145 60.0361 29.8581 60.1263 29.8581C60.6225 29.813 61.2766 29.7453 62.0885 29.6551C62.9004 29.5424 63.6898 29.3958 64.4566 29.2153C64.7724 29.1477 65.0092 29.1477 65.167 29.2153C65.3475 29.283 65.4602 29.4747 65.5053 29.7905L65.6407 31.5835C65.6407 31.6511 65.6745 31.6624 65.7422 31.6173C66.1707 30.8956 66.7909 30.2754 67.6028 29.7566C68.4373 29.2153 69.4297 28.9447 70.5799 28.9447C71.5948 28.9447 72.4857 29.159 73.2525 29.5875C74.0193 29.9934 74.6508 30.5573 75.147 31.279C75.6657 31.9781 76.0491 32.7901 76.2972 33.7148C76.5679 34.6395 76.7032 35.598 76.7032 36.5903C76.7032 37.8082 76.534 38.9359 76.1957 39.9734C75.8574 41.0108 75.3725 41.913 74.741 42.6798C74.1095 43.4466 73.354 44.0443 72.4744 44.4728C71.5948 44.9013 70.6024 45.1156 69.4973 45.1156C68.7982 45.1156 68.1779 45.0592 67.6367 44.9464C67.0954 44.8562 66.5541 44.7209 66.0128 44.5405C65.9 44.4954 65.8324 44.4954 65.8098 44.5405C65.7873 44.5856 65.776 44.6983 65.776 44.8788V50.0548C65.776 50.6186 65.7873 51.0923 65.8098 51.4757C65.8549 51.8591 65.9677 52.1748 66.1481 52.4229C66.3285 52.671 66.6105 52.8627 66.9939 52.998C67.3773 53.1334 67.9298 53.2349 68.6516 53.3025C68.7869 53.3251 68.8771 53.3815 68.9222 53.4717C68.9899 53.5844 69.0237 53.6972 69.0237 53.81C69.0237 53.9453 68.9899 54.0581 68.9222 54.1483C68.8545 54.261 68.7643 54.3174 68.6516 54.3174C67.6367 54.3174 66.8022 54.2723 66.1481 54.1821C65.5166 54.1144 64.8738 54.0806 64.2198 54.0806C63.5432 54.0806 62.8553 54.1144 62.1561 54.1821C61.457 54.2723 60.7465 54.3174 60.0248 54.3174C59.9121 54.3174 59.8219 54.261 59.7542 54.1483C59.6865 54.0581 59.6527 53.9453 59.6527 53.81C59.6527 53.6972 59.6865 53.5844 59.7542 53.4717C59.8219 53.3815 59.9233 53.3251 60.0587 53.3025C60.6902 53.2349 61.1751 53.1334 61.5134 52.998C61.8742 52.8627 62.1336 52.671 62.2915 52.4229C62.4493 52.1974 62.5396 51.9042 62.5621 51.5433C62.5847 51.205 62.5959 50.7765 62.5959 50.2578V36.6242Z" fill="#8CA1C6"/>
<path d="M84.31 40.6838C84.31 41.2477 84.3213 41.7213 84.3438 42.1047C84.3664 42.4881 84.4453 42.8038 84.5806 43.0519C84.7159 43.3 84.9189 43.4917 85.1896 43.6271C85.4828 43.7624 85.8887 43.8639 86.4075 43.9315C86.5428 43.9541 86.6443 44.0217 86.7119 44.1345C86.7796 44.2247 86.8134 44.3375 86.8134 44.4728C86.8134 44.5856 86.7796 44.6871 86.7119 44.7773C86.6443 44.89 86.5428 44.9464 86.4075 44.9464C86.0015 44.9464 85.4715 44.9013 84.8174 44.8111C84.1634 44.7434 83.498 44.7096 82.8214 44.7096C82.0997 44.7096 81.3893 44.7434 80.6901 44.8111C80.0135 44.9013 79.3595 44.9464 78.728 44.9464C78.6152 44.9464 78.525 44.89 78.4573 44.7773C78.3897 44.6871 78.3558 44.5856 78.3558 44.4728C78.3558 44.3375 78.3897 44.2247 78.4573 44.1345C78.525 44.0217 78.6265 43.9541 78.7618 43.9315C79.3482 43.8639 79.7993 43.7624 80.115 43.6271C80.4533 43.4917 80.6901 43.3113 80.8255 43.0858C80.9833 42.8377 81.0735 42.5445 81.0961 42.2062C81.1186 41.8453 81.1299 41.4055 81.1299 40.8868V35.4401C81.1299 34.4703 81.1074 33.6922 81.0623 33.1058C81.0172 32.5194 80.9157 32.0796 80.7578 31.7864C80.5999 31.4707 80.3631 31.2564 80.0474 31.1437C79.7316 31.0309 79.3031 30.9407 78.7618 30.873C78.6265 30.873 78.525 30.8166 78.4573 30.7039C78.3897 30.5911 78.3558 30.4783 78.3558 30.3656C78.3558 30.2528 78.3897 30.14 78.4573 30.0273C78.525 29.9145 78.6265 29.8581 78.7618 29.8581C78.9873 29.8356 79.258 29.813 79.5737 29.7905C79.912 29.7679 80.2616 29.7453 80.6225 29.7228C80.9833 29.6777 81.3442 29.6326 81.705 29.5875C82.0885 29.5198 82.4268 29.4521 82.7199 29.3845C82.968 29.3394 83.1597 29.2943 83.2951 29.2492C83.4529 29.1815 83.577 29.1477 83.6672 29.1477C83.9378 29.1477 84.107 29.2266 84.1747 29.3845C84.2649 29.5424 84.31 29.689 84.31 29.8243V40.6838ZM82.517 25.697C81.9531 25.697 81.4682 25.5278 81.0623 25.1895C80.6563 24.8287 80.4533 24.3889 80.4533 23.8701C80.4533 23.3514 80.645 22.9116 81.0284 22.5508C81.4118 22.1899 81.8855 22.0095 82.4493 22.0095C82.9906 22.0095 83.4304 22.2012 83.7687 22.5846C84.1295 22.9455 84.31 23.3852 84.31 23.904C84.31 24.4002 84.1408 24.8287 83.8025 25.1895C83.4642 25.5278 83.0357 25.697 82.517 25.697Z" fill="#8CA1C6"/>
<path d="M93.9899 40.6838C93.9899 41.2477 94.0012 41.7213 94.0238 42.1047C94.0463 42.4881 94.1027 42.8038 94.1929 43.0519C94.3057 43.3 94.4748 43.4917 94.7004 43.6271C94.9485 43.7624 95.2868 43.8639 95.7153 43.9315C95.8506 43.9541 95.9521 44.0217 96.0198 44.1345C96.0874 44.2247 96.1212 44.3375 96.1212 44.4728C96.1212 44.5856 96.0874 44.6871 96.0198 44.7773C95.9521 44.89 95.8506 44.9464 95.7153 44.9464C95.4897 44.9464 95.0612 44.9013 94.4297 44.8111C93.8208 44.7434 93.178 44.7096 92.5014 44.7096C91.7797 44.7096 91.0805 44.7434 90.4039 44.8111C89.7273 44.9013 89.0958 44.9464 88.5094 44.9464C88.3967 44.9464 88.3064 44.89 88.2388 44.7773C88.1711 44.6871 88.1373 44.5856 88.1373 44.4728C88.1373 44.3375 88.1711 44.2247 88.2388 44.1345C88.3064 44.0217 88.4079 43.9541 88.5433 43.9315C89.1071 43.8639 89.5356 43.7736 89.8288 43.6609C90.1446 43.5481 90.3701 43.379 90.5054 43.1534C90.6633 42.9279 90.7535 42.6347 90.7761 42.2738C90.7986 41.913 90.8099 41.4506 90.8099 40.8868V36.6242C90.8099 35.5191 90.7986 34.6056 90.7761 33.8839C90.7535 33.1397 90.6746 32.5533 90.5392 32.1247C90.4039 31.6962 90.1897 31.403 89.8965 31.2452C89.6033 31.0647 89.186 30.9745 88.6447 30.9745C88.5094 30.9745 88.3967 30.9294 88.3064 30.8392C88.2388 30.749 88.205 30.6475 88.205 30.5347C88.205 30.3994 88.2388 30.2866 88.3064 30.1964C88.3967 30.1062 88.5094 30.0611 88.6447 30.0611C89.0733 30.0611 89.6935 29.9934 90.5054 29.8581C91.3399 29.7228 92.1857 29.5311 93.0427 29.283C93.3584 29.1928 93.5952 29.2604 93.7531 29.486C93.911 29.689 93.9899 29.9258 93.9899 30.1964V31.5496C93.9899 31.5947 94.0012 31.6286 94.0238 31.6511C94.0689 31.6511 94.1027 31.6286 94.1253 31.5835C94.2831 31.3354 94.4974 31.0647 94.768 30.7715C95.0612 30.4558 95.3995 30.1626 95.7829 29.8919C96.1889 29.6213 96.64 29.3958 97.1362 29.2153C97.6323 29.0349 98.1849 28.9447 98.7938 28.9447C100.485 28.9447 101.805 29.4183 102.752 30.3656C103.722 31.2903 104.207 32.8013 104.207 34.8988V40.6838C104.207 41.2928 104.218 41.7889 104.241 42.1723C104.286 42.5558 104.365 42.8715 104.477 43.1196C104.613 43.3451 104.804 43.5256 105.052 43.6609C105.323 43.7736 105.695 43.8639 106.169 43.9315C106.304 43.9541 106.406 44.0217 106.473 44.1345C106.541 44.2247 106.575 44.3375 106.575 44.4728C106.575 44.5856 106.541 44.6871 106.473 44.7773C106.406 44.89 106.304 44.9464 106.169 44.9464C105.876 44.9464 105.391 44.9013 104.714 44.8111C104.06 44.7434 103.395 44.7096 102.718 44.7096C101.996 44.7096 101.309 44.7434 100.655 44.8111C100 44.9013 99.4592 44.9464 99.0306 44.9464C98.9179 44.9464 98.8277 44.89 98.76 44.7773C98.6923 44.6871 98.6585 44.5856 98.6585 44.4728C98.6585 44.3375 98.6923 44.2247 98.76 44.1345C98.8277 44.0217 98.9292 43.9541 99.0645 43.9315C99.5607 43.8639 99.9328 43.7624 100.181 43.6271C100.452 43.4917 100.643 43.3113 100.756 43.0858C100.891 42.8377 100.97 42.5445 100.993 42.2062C101.015 41.8453 101.027 41.4055 101.027 40.8868V35.7446C101.027 35.1807 101.004 34.6169 100.959 34.0531C100.914 33.4892 100.79 32.9818 100.587 32.5307C100.384 32.0796 100.091 31.7075 99.7073 31.4143C99.3238 31.1211 98.7938 30.9745 98.1172 30.9745C97.4406 30.9745 96.843 31.0873 96.3242 31.3128C95.828 31.5158 95.3995 31.7977 95.0387 32.1586C94.7004 32.5194 94.441 32.9479 94.2606 33.4441C94.0801 33.9178 93.9899 34.4252 93.9899 34.9665V40.6838Z" fill="#8CA1C6"/>
<path d="M112.491 36.1505C112.379 36.1505 112.311 36.1957 112.288 36.2859C112.288 36.3535 112.288 36.4437 112.288 36.5565C112.288 37.7293 112.412 38.7217 112.661 39.5336C112.931 40.3455 113.292 41.0108 113.743 41.5296C114.217 42.0257 114.769 42.3866 115.401 42.6121C116.055 42.8377 116.754 42.9504 117.498 42.9504C118.265 42.9504 119.009 42.8941 119.731 42.7813C120.453 42.646 121.073 42.3641 121.592 41.9355C121.705 41.8453 121.817 41.8115 121.93 41.834C122.065 41.8566 122.167 41.913 122.235 42.0032C122.325 42.0934 122.381 42.1949 122.404 42.3077C122.426 42.4204 122.404 42.5219 122.336 42.6121C121.614 43.5594 120.802 44.2134 119.9 44.5743C118.998 44.9352 117.882 45.1156 116.551 45.1156C115.198 45.1156 114.025 44.9126 113.033 44.5066C112.063 44.1007 111.251 43.5368 110.597 42.8151C109.965 42.0709 109.492 41.2138 109.176 40.244C108.883 39.2517 108.736 38.1804 108.736 37.0301C108.736 35.925 108.917 34.8763 109.278 33.8839C109.661 32.8916 110.191 32.0345 110.868 31.3128C111.544 30.5911 112.345 30.016 113.27 29.5875C114.194 29.159 115.22 28.9447 116.348 28.9447C117.295 28.9447 118.152 29.1138 118.919 29.4521C119.709 29.7679 120.374 30.219 120.915 30.8054C121.456 31.3692 121.874 32.0571 122.167 32.869C122.483 33.6584 122.641 34.5154 122.641 35.4401C122.641 35.9137 122.471 36.1505 122.133 36.1505H112.491ZM118.682 34.9665C118.998 34.9665 119.179 34.8537 119.224 34.6282C119.269 34.4027 119.291 34.132 119.291 33.8163C119.291 33.3426 119.212 32.8916 119.054 32.463C118.919 32.012 118.716 31.6173 118.446 31.279C118.175 30.9407 117.848 30.67 117.464 30.4671C117.081 30.2641 116.641 30.1626 116.145 30.1626C115.536 30.1626 115.006 30.2754 114.555 30.5009C114.127 30.7039 113.754 30.9858 113.439 31.3466C113.145 31.6849 112.92 32.0909 112.762 32.5645C112.604 33.0382 112.491 33.5343 112.424 34.0531C112.379 34.3237 112.356 34.5492 112.356 34.7297C112.379 34.8876 112.435 34.9665 112.525 34.9665H118.682Z" fill="#8CA1C6"/>
<path d="M141.485 32.5307C142.522 32.0345 143.267 31.4707 143.718 30.8392C144.191 30.2077 144.428 29.3845 144.428 28.3696C144.428 27.8283 144.349 27.3434 144.191 26.9149C144.033 26.4864 143.819 26.1255 143.548 25.8323C143.3 25.5391 143.018 25.3249 142.703 25.1895C142.387 25.0317 142.071 24.9527 141.755 24.9527C141.146 24.9527 140.65 25.0429 140.267 25.2234C139.906 25.4038 139.613 25.6406 139.387 25.9338C139.184 26.2044 139.038 26.5315 138.948 26.9149C138.88 27.2757 138.846 27.6479 138.846 28.0313C138.846 28.4598 138.936 28.877 139.117 29.283C139.297 29.689 139.511 30.0949 139.759 30.5009C140.03 30.8843 140.312 31.2452 140.605 31.5835C140.921 31.9218 141.214 32.2375 141.485 32.5307ZM145.375 41.1913C144.383 40.1313 143.413 39.1051 142.466 38.1127C141.541 37.1204 140.605 36.0942 139.658 35.0341C138.869 35.6882 138.305 36.4099 137.966 37.1993C137.651 37.9887 137.493 38.7893 137.493 39.6012C137.493 40.6838 137.752 41.5634 138.271 42.24C138.812 42.8941 139.669 43.2211 140.842 43.2211C141.631 43.2211 142.455 43.0632 143.312 42.7475C144.169 42.4092 144.868 41.9919 145.409 41.4957C145.499 41.4055 145.488 41.304 145.375 41.1913ZM142.229 33.5118C143.109 34.4365 143.988 35.3499 144.868 36.252C145.747 37.1542 146.65 38.0676 147.574 38.9923C148.386 37.9548 149.108 37.0527 149.739 36.2859C150.371 35.4965 150.957 34.8424 151.499 34.3237C152.062 33.7824 152.592 33.3765 153.089 33.1058C153.607 32.8352 154.16 32.6999 154.746 32.6999C155.423 32.6999 155.942 32.869 156.302 33.2073C156.686 33.5456 156.878 33.9516 156.878 34.4252C156.878 34.8086 156.765 35.1582 156.539 35.4739C156.314 35.7897 155.885 35.9476 155.254 35.9476C154.78 35.9476 154.464 35.8574 154.306 35.6769C154.171 35.4965 154.103 35.3386 154.103 35.2033C154.103 35.1131 154.081 34.989 154.036 34.8312C154.013 34.6507 153.822 34.5605 153.461 34.5605C153.213 34.5605 152.965 34.6395 152.716 34.7973C152.468 34.9552 152.164 35.2371 151.803 35.6431C151.465 36.0265 151.025 36.5565 150.484 37.2331C149.942 37.9097 149.266 38.7668 148.454 39.8042C148.792 40.12 149.176 40.4808 149.604 40.8868C150.033 41.2702 150.472 41.6423 150.923 42.0032C151.397 42.3415 151.859 42.6347 152.31 42.8828C152.784 43.1083 153.224 43.2211 153.63 43.2211C154.419 43.2211 155.006 43.0407 155.389 42.6798C155.772 42.2964 156.043 41.7777 156.201 41.1236C156.224 41.0334 156.291 40.9657 156.404 40.9206C156.517 40.853 156.629 40.8304 156.742 40.853C156.855 40.8755 156.957 40.9206 157.047 40.9883C157.137 41.0559 157.171 41.1574 157.148 41.2928C157.103 41.8115 156.968 42.3189 156.742 42.8151C156.517 43.3113 156.212 43.7624 155.829 44.1683C155.468 44.5743 155.028 44.9013 154.509 45.1494C154.013 45.3975 153.449 45.5215 152.818 45.5215C152.141 45.5215 151.51 45.4313 150.923 45.2509C150.337 45.0705 149.784 44.8337 149.266 44.5405C148.747 44.2473 148.251 43.909 147.777 43.5256C147.304 43.1196 146.853 42.7024 146.424 42.2738C146.334 42.2062 146.255 42.2062 146.187 42.2738C145.217 43.379 144.202 44.2022 143.142 44.7435C142.105 45.2622 140.955 45.5215 139.692 45.5215C138.902 45.5215 138.147 45.4088 137.425 45.1832C136.726 44.9803 136.106 44.6758 135.564 44.2698C135.023 43.8639 134.595 43.3564 134.279 42.7475C133.963 42.116 133.805 41.3942 133.805 40.5823C133.805 39.6802 133.929 38.9021 134.177 38.248C134.448 37.5714 134.809 36.985 135.26 36.4889C135.734 35.9927 136.275 35.5642 136.884 35.2033C137.493 34.8199 138.147 34.459 138.846 34.1207C138.485 33.7373 138.136 33.3652 137.797 33.0043C137.459 32.6209 137.155 32.215 136.884 31.7864C136.613 31.3579 136.399 30.8956 136.241 30.3994C136.083 29.8807 136.004 29.283 136.004 28.6064C136.004 28.0426 136.117 27.4787 136.343 26.9149C136.568 26.3285 136.906 25.7985 137.357 25.3249C137.831 24.8512 138.429 24.4678 139.15 24.1746C139.895 23.8814 140.774 23.7348 141.789 23.7348C142.421 23.7348 143.064 23.825 143.718 24.0055C144.372 24.1633 144.958 24.4227 145.477 24.7836C145.995 25.1219 146.413 25.5842 146.728 26.1706C147.067 26.7344 147.236 27.4223 147.236 28.2343C147.236 28.9109 147.067 29.5198 146.728 30.0611C146.413 30.6024 146.007 31.0873 145.511 31.5158C145.014 31.9443 144.473 32.3277 143.887 32.666C143.3 32.9818 142.748 33.2637 142.229 33.5118Z" fill="#8CA1C6"/>
<path d="M174.678 40.1087C174.678 40.8755 174.757 41.4957 174.915 41.9694C175.073 42.4204 175.309 42.7813 175.625 43.0519C175.963 43.3 176.369 43.4805 176.843 43.5932C177.339 43.706 177.914 43.7849 178.568 43.83C178.726 43.83 178.839 43.8977 178.907 44.033C178.974 44.1458 179.008 44.2811 179.008 44.439C179.008 44.5743 178.963 44.6983 178.873 44.8111C178.805 44.9239 178.692 44.9803 178.535 44.9803C177.317 44.9803 176.268 44.9352 175.388 44.8449C174.531 44.7547 173.697 44.7096 172.885 44.7096C172.028 44.7096 171.182 44.7547 170.348 44.8449C169.513 44.9352 168.701 44.9803 167.912 44.9803C167.776 44.9803 167.675 44.9239 167.607 44.8111C167.54 44.6983 167.495 44.5743 167.472 44.439C167.472 44.3037 167.506 44.1796 167.573 44.0668C167.641 43.9315 167.754 43.8526 167.912 43.83C168.543 43.7624 169.062 43.6722 169.468 43.5594C169.874 43.4466 170.19 43.2662 170.415 43.0181C170.641 42.77 170.787 42.443 170.855 42.037C170.945 41.6311 170.99 41.0898 170.99 40.4132V27.7945C170.99 27.2983 170.979 26.8021 170.957 26.3059C170.934 25.8098 170.855 25.3587 170.72 24.9527C170.607 24.5242 170.427 24.1633 170.178 23.8701C169.953 23.577 169.637 23.3852 169.231 23.295C168.983 23.2499 168.724 23.2048 168.453 23.1597C168.182 23.0921 167.923 23.0469 167.675 23.0244C167.54 23.0244 167.438 22.968 167.371 22.8552C167.303 22.7425 167.269 22.6184 167.269 22.4831C167.269 22.3478 167.303 22.2237 167.371 22.111C167.438 21.9982 167.54 21.9418 167.675 21.9418C168.442 21.9418 169.13 21.9757 169.739 22.0433C170.348 22.111 171.058 22.1448 171.87 22.1448C173.223 22.1222 174.34 22.0884 175.219 22.0433C176.121 21.9757 176.978 21.9418 177.79 21.9418C178.692 21.9418 179.572 22.0433 180.429 22.2463C181.309 22.4267 182.075 22.7537 182.729 23.2274C183.406 23.6784 183.947 24.2761 184.353 25.0204C184.759 25.7646 184.962 26.6781 184.962 27.7606C184.962 29.0236 184.714 30.0724 184.218 30.9069C183.722 31.7413 183.034 32.4179 182.154 32.9367C181.297 33.4554 180.282 33.8388 179.11 34.0869C177.937 34.3124 176.674 34.4478 175.321 34.4929C175.095 34.4929 174.926 34.5267 174.813 34.5944C174.723 34.662 174.678 34.8537 174.678 35.1695V40.1087ZM174.678 32.7675C174.678 32.9479 174.723 33.0607 174.813 33.1058C174.926 33.1509 175.118 33.1735 175.388 33.1735C176.493 33.1735 177.418 33.0945 178.162 32.9367C178.907 32.7562 179.504 32.4743 179.955 32.0909C180.406 31.6849 180.722 31.1662 180.903 30.5347C181.106 29.9032 181.207 29.1138 181.207 28.1666C181.207 26.3849 180.88 25.1331 180.226 24.4114C179.572 23.6672 178.444 23.295 176.843 23.295C175.963 23.295 175.377 23.4078 175.084 23.6333C174.813 23.8589 174.678 24.3212 174.678 25.0204V32.7675Z" fill="#8CA1C6"/>
<path d="M201.472 36.5903C201.472 37.9661 201.28 39.184 200.897 40.244C200.513 41.304 199.961 42.1949 199.239 42.9166C198.54 43.6383 197.694 44.1909 196.702 44.5743C195.71 44.9352 194.604 45.1156 193.387 45.1156C192.327 45.1156 191.345 44.9464 190.443 44.6081C189.541 44.2473 188.763 43.7285 188.109 43.0519C187.455 42.3528 186.936 41.4845 186.553 40.447C186.169 39.387 185.978 38.1465 185.978 36.7257C185.978 35.5754 186.169 34.5267 186.553 33.5794C186.936 32.6096 187.466 31.7864 188.143 31.1098C188.842 30.4332 189.676 29.9032 190.646 29.5198C191.616 29.1364 192.676 28.9447 193.826 28.9447C194.931 28.9447 195.946 29.1138 196.871 29.4521C197.818 29.7905 198.63 30.2866 199.307 30.9407C199.983 31.5722 200.513 32.3616 200.897 33.3088C201.28 34.2561 201.472 35.3499 201.472 36.5903ZM197.92 36.9625C197.92 36.1054 197.863 35.271 197.751 34.459C197.638 33.6471 197.435 32.9254 197.142 32.2939C196.849 31.6624 196.443 31.1549 195.924 30.7715C195.405 30.3881 194.74 30.1964 193.928 30.1964C193.026 30.1964 192.293 30.3881 191.729 30.7715C191.165 31.1549 190.714 31.6737 190.376 32.3277C190.06 32.9592 189.834 33.6809 189.699 34.4929C189.586 35.3048 189.53 36.1506 189.53 37.0301C189.53 37.797 189.586 38.5863 189.699 39.3983C189.812 40.2102 190.026 40.9432 190.342 41.5972C190.658 42.2513 191.086 42.7926 191.627 43.2211C192.191 43.6496 192.902 43.8639 193.759 43.8639C194.638 43.8639 195.349 43.6609 195.89 43.2549C196.431 42.849 196.849 42.3189 197.142 41.6649C197.457 41.0108 197.66 40.2778 197.751 39.4659C197.863 38.6314 197.92 37.797 197.92 36.9625Z" fill="#8CA1C6"/>
<path d="M214.469 29.4521C214.401 29.7002 214.334 30.0047 214.266 30.3656C214.221 30.7264 214.198 31.1098 214.198 31.5158C214.198 31.9443 214.21 32.3954 214.232 32.869C214.255 33.3201 214.266 33.6697 214.266 33.9177C214.266 33.9854 214.221 34.0418 214.131 34.0869C214.04 34.132 213.939 34.1658 213.826 34.1884C213.713 34.1884 213.612 34.1771 213.522 34.1546C213.431 34.1095 213.375 34.0531 213.353 33.9854C213.104 32.7901 212.698 31.8767 212.135 31.2452C211.571 30.5911 210.669 30.2641 209.428 30.2641C208.594 30.2641 207.906 30.4783 207.365 30.9069C206.823 31.3128 206.553 31.8654 206.553 32.5645C206.553 33.1509 206.778 33.602 207.229 33.9177C207.68 34.2335 208.278 34.5267 209.022 34.7973C209.338 34.9101 209.71 35.0567 210.139 35.2371C210.59 35.395 210.951 35.5303 211.221 35.6431C211.808 35.9137 212.349 36.1957 212.845 36.4889C213.364 36.7821 213.804 37.1316 214.164 37.5376C214.548 37.921 214.841 38.3608 215.044 38.857C215.27 39.3532 215.382 39.9283 215.382 40.5823C215.382 41.4394 215.202 42.1611 214.841 42.7475C214.48 43.3113 214.018 43.7736 213.454 44.1345C212.89 44.4728 212.247 44.7209 211.526 44.8788C210.804 45.0366 210.094 45.1156 209.394 45.1156C208.808 45.1156 208.154 45.0479 207.432 44.9126C206.71 44.7773 206.079 44.5856 205.538 44.3375C205.402 44.2924 205.256 44.3149 205.098 44.4051C204.963 44.4954 204.872 44.6645 204.827 44.9126C204.827 44.9803 204.771 45.0254 204.658 45.0479C204.568 45.0705 204.466 45.0818 204.354 45.0818C204.263 45.0818 204.173 45.0592 204.083 45.0141C203.993 44.9915 203.948 44.9464 203.948 44.8788C203.948 44.6983 203.97 44.4503 204.015 44.1345C204.06 43.8188 204.083 43.5256 204.083 43.2549C204.083 42.9843 204.06 42.6911 204.015 42.3753C203.993 42.037 203.959 41.71 203.914 41.3942C203.891 41.0785 203.869 40.7966 203.846 40.5485C203.824 40.3004 203.812 40.12 203.812 40.0072C203.812 39.917 203.857 39.8493 203.948 39.8042C204.038 39.7591 204.139 39.7366 204.252 39.7366C204.365 39.714 204.466 39.7253 204.557 39.7704C204.669 39.7929 204.737 39.8493 204.76 39.9395C204.917 40.5936 205.12 41.1687 205.369 41.6649C205.617 42.1611 205.921 42.5783 206.282 42.9166C206.665 43.2549 207.116 43.5143 207.635 43.6947C208.176 43.8526 208.819 43.9315 209.564 43.9315C210.375 43.9315 211.029 43.706 211.526 43.2549C212.044 42.8038 212.304 42.1723 212.304 41.3604C212.304 40.6387 212.044 40.0749 211.526 39.6689C211.029 39.2404 210.443 38.8683 209.767 38.5525C209.451 38.4172 209.124 38.2819 208.785 38.1465C208.47 38.0112 208.143 37.8759 207.804 37.7406C207.308 37.5376 206.812 37.3346 206.316 37.1316C205.842 36.9061 205.414 36.6355 205.03 36.3197C204.669 36.004 204.376 35.6093 204.151 35.1356C203.925 34.662 203.812 34.0756 203.812 33.3765C203.812 32.5645 203.982 31.8767 204.32 31.3128C204.681 30.749 205.132 30.2979 205.673 29.9596C206.237 29.5987 206.857 29.3394 207.534 29.1815C208.21 29.0236 208.876 28.9447 209.53 28.9447C210.161 28.9447 210.714 29.0236 211.187 29.1815C211.684 29.3168 212.225 29.5762 212.811 29.9596C212.901 30.0047 213.014 30.0047 213.15 29.9596C213.307 29.8919 213.431 29.7002 213.522 29.3845C213.544 29.2943 213.612 29.2379 213.725 29.2153C213.837 29.1928 213.95 29.1928 214.063 29.2153C214.176 29.2153 214.277 29.2379 214.367 29.283C214.458 29.3281 214.491 29.3845 214.469 29.4521Z" fill="#8CA1C6"/>
<path d="M221.86 39.5674C221.86 40.8304 221.996 41.7664 222.266 42.3753C222.559 42.9843 223.078 43.2887 223.822 43.2887C224.341 43.2887 224.826 43.2098 225.277 43.0519C225.751 42.8941 226.112 42.7249 226.36 42.5445C226.427 42.4994 226.506 42.4994 226.597 42.5445C226.687 42.567 226.766 42.6234 226.833 42.7136C226.901 42.7813 226.946 42.8602 226.969 42.9504C227.014 43.0407 227.014 43.1196 226.969 43.1873C226.54 43.8864 225.976 44.3826 225.277 44.6758C224.601 44.969 223.8 45.1156 222.875 45.1156C221.342 45.1156 220.259 44.7773 219.628 44.1007C218.996 43.4015 218.68 42.3189 218.68 40.853V32.1586C218.68 31.8879 218.669 31.6737 218.646 31.5158C218.624 31.3579 218.556 31.2452 218.443 31.1775C218.331 31.1098 218.139 31.076 217.868 31.076C217.62 31.0535 217.259 31.0422 216.786 31.0422C216.718 31.0422 216.662 30.9745 216.617 30.8392C216.571 30.7039 216.538 30.5573 216.515 30.3994C216.515 30.2415 216.538 30.0949 216.583 29.9596C216.628 29.8243 216.696 29.7566 216.786 29.7566C217.35 29.7115 217.834 29.6326 218.24 29.5198C218.646 29.3845 218.985 29.1815 219.255 28.9109C219.549 28.6402 219.774 28.2794 219.932 27.8283C220.112 27.3547 220.259 26.7457 220.372 26.0015C220.394 25.8661 220.485 25.7646 220.642 25.697C220.8 25.6293 220.969 25.5955 221.15 25.5955C221.33 25.5955 221.488 25.6293 221.623 25.697C221.781 25.7421 221.86 25.8098 221.86 25.9V28.8094C221.86 29.1702 221.872 29.3845 221.894 29.4521C221.939 29.4973 222.086 29.5198 222.334 29.5198H225.852C226.01 29.5198 226.112 29.61 226.157 29.7905C226.202 29.9709 226.224 30.1288 226.224 30.2641C226.224 30.3994 226.191 30.5685 226.123 30.7715C226.078 30.952 225.965 31.0422 225.785 31.0422H222.165C222.007 31.0422 221.917 31.0873 221.894 31.1775C221.872 31.2452 221.86 31.5271 221.86 32.0233V39.5674Z" fill="#8CA1C6"/>
<path d="M244.09 38.8908C244.09 39.8155 244.102 40.571 244.124 41.1574C244.169 41.7213 244.271 42.1723 244.429 42.5107C244.609 42.8264 244.868 43.0519 245.207 43.1873C245.545 43.3 246.019 43.3564 246.628 43.3564C246.718 43.3564 246.785 43.4128 246.831 43.5256C246.898 43.6158 246.932 43.7285 246.932 43.8639C246.932 43.9766 246.909 44.0894 246.864 44.2022C246.819 44.3149 246.74 44.3713 246.628 44.3713C246.447 44.3713 246.289 44.3826 246.154 44.4051C246.041 44.4051 245.917 44.4164 245.782 44.439C245.669 44.439 245.534 44.4503 245.376 44.4728C245.24 44.4954 245.06 44.5179 244.835 44.5405C244.654 44.563 244.395 44.6081 244.056 44.6758C243.741 44.7434 243.414 44.8111 243.075 44.8788C242.737 44.9464 242.421 45.0028 242.128 45.0479C241.835 45.093 241.643 45.1156 241.553 45.1156C241.147 45.1156 240.944 44.4841 240.944 43.2211C240.944 43.176 240.921 43.1534 240.876 43.1534C240.831 43.1309 240.786 43.1421 240.741 43.1873C239.907 43.909 239.061 44.4164 238.204 44.7096C237.369 44.9803 236.557 45.1156 235.768 45.1156C234.731 45.1156 233.873 44.9915 233.197 44.7435C232.52 44.4728 231.99 44.0894 231.607 43.5932C231.223 43.097 230.953 42.4881 230.795 41.7664C230.637 41.0221 230.558 40.1876 230.558 39.2629V35.4401C230.558 34.4703 230.536 33.7148 230.49 33.1735C230.445 32.6322 230.344 32.2262 230.186 31.9556C230.028 31.6849 229.791 31.5045 229.476 31.4143C229.16 31.3241 228.731 31.2452 228.19 31.1775C228.077 31.1775 227.987 31.1211 227.919 31.0083C227.874 30.8956 227.84 30.7828 227.818 30.67C227.818 30.5573 227.84 30.4445 227.886 30.3317C227.953 30.219 228.055 30.1626 228.19 30.1626C228.416 30.14 228.709 30.1062 229.07 30.0611C229.453 30.016 229.859 29.9483 230.287 29.8581C230.716 29.7679 231.156 29.6777 231.607 29.5875C232.08 29.4747 232.52 29.3619 232.926 29.2492C233.242 29.159 233.456 29.2153 233.569 29.4183C233.682 29.5987 233.738 29.7566 233.738 29.8919V37.9436C233.738 38.8457 233.772 39.6125 233.84 40.244C233.93 40.8755 234.076 41.3942 234.279 41.8002C234.482 42.2062 234.764 42.4994 235.125 42.6798C235.486 42.8602 235.937 42.9504 236.478 42.9504C237.245 42.9504 238.046 42.8151 238.88 42.5445C239.715 42.2738 240.346 41.9468 240.775 41.5634C240.843 41.4957 240.876 41.3717 240.876 41.1913C240.899 41.0108 240.91 40.8755 240.91 40.7853V35.4401C240.91 34.4703 240.899 33.7148 240.876 33.1735C240.854 32.6322 240.775 32.2262 240.64 31.9556C240.504 31.6849 240.29 31.5045 239.997 31.4143C239.726 31.3241 239.32 31.2452 238.779 31.1775C238.666 31.1549 238.576 31.0986 238.508 31.0083C238.463 30.8956 238.429 30.7828 238.407 30.67C238.407 30.5347 238.429 30.422 238.474 30.3317C238.542 30.219 238.644 30.1626 238.779 30.1626C239.591 30.1175 240.335 30.016 241.012 29.8581C241.688 29.7002 242.444 29.4973 243.278 29.2492C243.594 29.159 243.808 29.2153 243.921 29.4183C244.034 29.5987 244.09 29.7566 244.09 29.8919V38.8908Z" fill="#8CA1C6"/>
<path d="M253.894 40.6838C253.894 41.2477 253.905 41.7213 253.928 42.1047C253.973 42.4881 254.097 42.8038 254.3 43.0519C254.503 43.3 254.819 43.4917 255.247 43.6271C255.676 43.7624 256.296 43.8639 257.108 43.9315C257.243 43.9541 257.345 44.0217 257.413 44.1345C257.48 44.2247 257.514 44.3375 257.514 44.4728C257.514 44.5856 257.48 44.6871 257.413 44.7773C257.345 44.89 257.243 44.9464 257.108 44.9464C256.138 44.9464 255.281 44.9013 254.537 44.8111C253.793 44.7434 253.082 44.7096 252.406 44.7096C251.684 44.7096 250.962 44.7434 250.241 44.8111C249.541 44.9013 248.831 44.9464 248.109 44.9464C247.996 44.9464 247.906 44.89 247.839 44.7773C247.771 44.6871 247.737 44.5856 247.737 44.4728C247.737 44.3375 247.771 44.2247 247.839 44.1345C247.906 44.0217 248.008 43.9541 248.143 43.9315C248.775 43.8639 249.259 43.7624 249.598 43.6271C249.959 43.4917 250.218 43.3113 250.376 43.0858C250.534 42.8377 250.624 42.5445 250.646 42.2062C250.692 41.8453 250.714 41.4055 250.714 40.8868V35.9476C250.714 34.8424 250.692 33.9741 250.646 33.3426C250.601 32.6886 250.489 32.1924 250.308 31.8541C250.15 31.4932 249.891 31.2564 249.53 31.1437C249.169 31.0309 248.673 30.952 248.042 30.9069C247.929 30.9069 247.839 30.8505 247.771 30.7377C247.726 30.6249 247.703 30.5122 247.703 30.3994C247.703 30.2866 247.726 30.1739 247.771 30.0611C247.839 29.9483 247.94 29.8919 248.075 29.8919C248.526 29.8468 249.147 29.8017 249.936 29.7566C250.748 29.689 251.571 29.5424 252.406 29.3168C252.721 29.2266 252.981 29.2153 253.184 29.283C253.387 29.3507 253.477 29.5424 253.454 29.8581L253.387 32.0233C253.387 32.0684 253.398 32.1022 253.421 32.1247C253.443 32.1247 253.477 32.1022 253.522 32.0571C253.996 31.1098 254.571 30.3543 255.247 29.7905C255.947 29.2266 256.871 28.9447 258.021 28.9447C258.969 28.9447 259.668 29.1928 260.119 29.689C260.57 30.1626 260.796 30.749 260.796 31.4481C260.796 31.8315 260.649 32.1811 260.356 32.4969C260.063 32.8126 259.645 32.9705 259.104 32.9705C258.585 32.9705 258.224 32.8465 258.021 32.5984C257.818 32.3503 257.717 32.0796 257.717 31.7864C257.717 31.4707 257.649 31.2226 257.514 31.0422C257.401 30.8617 257.142 30.7715 256.736 30.7715C256.307 30.7715 255.913 30.9181 255.552 31.2113C255.214 31.482 254.92 31.809 254.672 32.1924C254.424 32.5758 254.232 32.9705 254.097 33.3765C253.962 33.7824 253.894 34.0982 253.894 34.3237V40.6838Z" fill="#8CA1C6"/>
<path d="M265.851 36.1505C265.738 36.1505 265.671 36.1957 265.648 36.2859C265.648 36.3535 265.648 36.4437 265.648 36.5565C265.648 37.7293 265.772 38.7217 266.02 39.5336C266.291 40.3455 266.652 41.0108 267.103 41.5296C267.576 42.0257 268.129 42.3866 268.76 42.6121C269.415 42.8377 270.114 42.9504 270.858 42.9504C271.625 42.9504 272.369 42.8941 273.091 42.7813C273.812 42.646 274.433 42.3641 274.951 41.9355C275.064 41.8453 275.177 41.8115 275.29 41.834C275.425 41.8566 275.527 41.913 275.594 42.0032C275.684 42.0934 275.741 42.1949 275.763 42.3077C275.786 42.4204 275.763 42.5219 275.696 42.6121C274.974 43.5594 274.162 44.2134 273.26 44.5743C272.358 44.9352 271.241 45.1156 269.911 45.1156C268.558 45.1156 267.385 44.9126 266.392 44.5066C265.423 44.1007 264.611 43.5368 263.957 42.8151C263.325 42.0709 262.851 41.2138 262.536 40.244C262.243 39.2517 262.096 38.1804 262.096 37.0301C262.096 35.925 262.276 34.8763 262.637 33.8839C263.021 32.8916 263.551 32.0345 264.227 31.3128C264.904 30.5911 265.704 30.016 266.629 29.5875C267.554 29.159 268.58 28.9447 269.708 28.9447C270.655 28.9447 271.512 29.1138 272.279 29.4521C273.068 29.7679 273.734 30.219 274.275 30.8054C274.816 31.3692 275.233 32.0571 275.527 32.869C275.842 33.6584 276 34.5154 276 35.4401C276 35.9137 275.831 36.1505 275.493 36.1505H265.851ZM272.042 34.9665C272.358 34.9665 272.538 34.8537 272.583 34.6282C272.628 34.4027 272.651 34.132 272.651 33.8163C272.651 33.3426 272.572 32.8916 272.414 32.463C272.279 32.012 272.076 31.6173 271.805 31.279C271.535 30.9407 271.208 30.67 270.824 30.4671C270.441 30.2641 270.001 30.1626 269.505 30.1626C268.896 30.1626 268.366 30.2754 267.915 30.5009C267.486 30.7039 267.114 30.9858 266.798 31.3466C266.505 31.6849 266.28 32.0909 266.122 32.5645C265.964 33.0382 265.851 33.5343 265.783 34.0531C265.738 34.3237 265.716 34.5492 265.716 34.7297C265.738 34.8876 265.795 34.9665 265.885 34.9665H272.042Z" fill="#8CA1C6"/>
<path d="M102.503 76.7509C102.503 74.4504 103.021 72.3868 104.059 70.56C105.096 68.7106 106.506 67.2671 108.288 66.2297C110.092 65.1922 112.088 64.6735 114.276 64.6735C116.847 64.6735 119.091 65.2937 121.008 66.5341C122.925 67.7746 124.323 69.5338 125.203 71.8117H121.515C120.861 70.3908 119.914 69.297 118.674 68.5301C117.456 67.7633 115.99 67.3799 114.276 67.3799C112.629 67.3799 111.152 67.7633 109.844 68.5301C108.536 69.297 107.51 70.3908 106.765 71.8117C106.021 73.21 105.649 74.8564 105.649 76.7509C105.649 78.6228 106.021 80.2693 106.765 81.6901C107.51 83.0884 108.536 84.171 109.844 84.9378C111.152 85.7047 112.629 86.0881 114.276 86.0881C115.99 86.0881 117.456 85.7159 118.674 84.9717C119.914 84.2048 120.861 83.111 121.515 81.6901H125.203C124.323 83.9455 122.925 85.6934 121.008 86.9338C119.091 88.1517 116.847 88.7607 114.276 88.7607C112.088 88.7607 110.092 88.2532 108.288 87.2383C106.506 86.2008 105.096 84.7687 104.059 82.9419C103.021 81.115 102.503 79.0514 102.503 76.7509Z" fill="#8CA1C6"/>
<path d="M153.873 83.314H143.588L141.694 88.5577H138.446L146.971 65.1133H150.524L159.015 88.5577H155.767L153.873 83.314ZM152.993 80.8105L148.731 68.9023L144.468 80.8105H152.993Z" fill="#8CA1C6"/>
<path d="M185.295 88.5577L179.679 78.916H175.958V88.5577H172.88V64.978H180.491C182.273 64.978 183.773 65.2824 184.991 65.8914C186.231 66.5003 187.156 67.3235 187.765 68.361C188.374 69.3984 188.678 70.5825 188.678 71.9132C188.678 73.537 188.205 74.9692 187.257 76.2096C186.333 77.4501 184.934 78.2733 183.062 78.6792L188.983 88.5577H185.295ZM175.958 76.4464H180.491C182.16 76.4464 183.412 76.0405 184.247 75.2285C185.081 74.3941 185.498 73.2889 185.498 71.9132C185.498 70.5148 185.081 69.4323 184.247 68.6655C183.435 67.8986 182.183 67.5152 180.491 67.5152H175.958V76.4464Z" fill="#8CA1C6"/>
<path d="M206.69 67.4814V75.3639H215.282V77.9011H206.69V86.0204H216.297V88.5577H203.611V64.9441H216.297V67.4814H206.69Z" fill="#8CA1C6"/>
<circle cx="11.94" cy="14.9253" r="3.98004" fill="#8CA1C6"/>
<circle cx="17.9097" cy="3.98004" r="3.98004" fill="#8CA1C6"/>
<circle cx="7.96051" cy="25.8707" r="3.98004" fill="#8CA1C6"/>
<circle cx="3.98004" cy="36.816" r="3.98004" fill="#8CA1C6"/>
<circle cx="3.98004" cy="47.7613" r="3.98004" fill="#8CA1C6"/>
<circle cx="8.95465" cy="58.7046" r="3.98004" fill="#8CA1C6"/>
<circle cx="17.9097" cy="67.6597" r="3.98004" fill="#8CA1C6"/>
<circle cx="20.8951" cy="79.6011" r="3.98004" fill="#8CA1C6"/>
<circle cx="14.9253" cy="90.5464" r="3.98004" fill="#8CA1C6"/>
<circle cx="4.97515" cy="96.5152" r="3.98004" fill="#8CA1C6"/>
</svg>
