<svg width="276" height="89" viewBox="0 0 276 89" fill="none" xmlns="http://www.w3.org/2000/svg">
<path d="M41.6487 30.7602C41.6487 29.7617 41.3235 28.9599 40.673 28.3548C40.0536 27.7194 38.954 27.3261 37.3743 27.1748C37.2195 27.1748 37.0956 27.0992 37.0027 26.9479C36.9407 26.7663 36.9097 26.5848 36.9097 26.4033C36.9097 26.2217 36.9407 26.0553 37.0027 25.904C37.0956 25.7528 37.235 25.6771 37.4208 25.6771C37.7925 25.6771 38.381 25.6771 39.1863 25.6771C39.9916 25.6771 40.8124 25.7074 41.6487 25.7679C42.485 25.7981 43.2438 25.8587 43.9252 25.9494C44.6067 26.0402 45.0093 26.1612 45.1332 26.3125L63.8567 48.0518C64.2284 48.4452 64.4142 48.3695 64.4142 47.8249V36.7056C64.4142 36.2215 64.4142 35.6315 64.4142 34.9356C64.4142 34.2095 64.3988 33.4984 64.3678 32.8025C64.3368 32.0764 64.2904 31.3956 64.2284 30.7602C64.1974 30.1248 64.12 29.6256 63.9961 29.2625C63.8412 28.8087 63.6864 28.4607 63.5315 28.2187C63.3766 27.9464 63.1598 27.7497 62.8811 27.6287C62.6333 27.4774 62.308 27.3866 61.9054 27.3564C61.5337 27.2958 61.0691 27.2353 60.5116 27.1748C60.3567 27.1748 60.2328 27.0992 60.1399 26.9479C60.0779 26.7663 60.047 26.5848 60.047 26.4033C60.047 26.2217 60.0779 26.0553 60.1399 25.904C60.2018 25.7528 60.3257 25.6771 60.5116 25.6771C61.2549 25.6771 62.0448 25.7225 62.8811 25.8133C63.7483 25.904 64.6156 25.9494 65.4828 25.9494C66.2881 25.9494 67.078 25.904 67.8523 25.8133C68.6576 25.7225 69.5559 25.6771 70.547 25.6771C70.7328 25.6771 70.8722 25.7528 70.9651 25.904C71.0581 26.0553 71.1045 26.2217 71.1045 26.4033C71.1045 26.5848 71.0581 26.7663 70.9651 26.9479C70.8722 27.0992 70.7328 27.1748 70.547 27.1748C69.9895 27.2353 69.5404 27.2807 69.1997 27.311C68.8899 27.3412 68.6112 27.4169 68.3634 27.5379C68.1466 27.6589 67.9452 27.8556 67.7594 28.1279C67.5735 28.3699 67.3722 28.7482 67.1554 29.2625C67.0005 29.6256 66.8766 30.1248 66.7837 30.7602C66.6908 31.3956 66.6134 32.0764 66.5514 32.8025C66.5204 33.5287 66.505 34.2548 66.505 34.981C66.505 35.7072 66.505 36.3425 66.505 36.8872V56.5388C66.505 56.6296 66.412 56.7052 66.2262 56.7657C66.0713 56.8262 65.87 56.8565 65.6222 56.8565C65.4054 56.8867 65.1886 56.8867 64.9718 56.8565C64.755 56.8262 64.6156 56.7657 64.5536 56.6749L44.5757 33.5287C44.3279 33.2564 44.1421 33.1354 44.0182 33.1656C43.8943 33.1656 43.8323 33.3623 43.8323 33.7556V50.2757C43.8323 51.3649 43.9098 52.2121 44.0646 52.8172C44.2505 53.4224 44.5137 53.8762 44.8545 54.1788C45.2261 54.4511 45.6753 54.6478 46.2018 54.7688C46.7284 54.8595 47.3478 54.9503 48.0602 55.0411C48.2461 55.0713 48.3854 55.1621 48.4784 55.3134C48.5713 55.4647 48.6023 55.6311 48.5713 55.8126C48.5713 55.9942 48.5248 56.1606 48.4319 56.3119C48.339 56.4631 48.1996 56.5388 48.0138 56.5388C47.3323 56.5388 46.5735 56.4783 45.7372 56.3572C44.9319 56.2665 43.9717 56.2211 42.8567 56.2211C41.6797 56.2211 40.6266 56.2665 39.6974 56.3572C38.7991 56.4783 38.0403 56.5388 37.4208 56.5388C37.2659 56.5388 37.142 56.4631 37.0491 56.3119C36.9562 56.1606 36.8943 55.9942 36.8633 55.8126C36.8633 55.6311 36.9097 55.4647 37.0027 55.3134C37.0956 55.1621 37.235 55.0713 37.4208 55.0411C38.2261 54.9503 38.892 54.8595 39.4186 54.7688C39.9761 54.6478 40.4098 54.4511 40.7195 54.1788C41.0602 53.8762 41.2925 53.4224 41.4164 52.8172C41.5713 52.2121 41.6487 51.3649 41.6487 50.2757V30.7602Z" fill="#8CA1C6"/>
<path d="M95.8018 45.3287C95.8018 47.1744 95.5385 48.8082 95.012 50.2303C94.4854 51.6524 93.7266 52.8475 92.7354 53.8157C91.7753 54.7839 90.6137 55.5252 89.2509 56.0396C87.8881 56.5237 86.3704 56.7657 84.6978 56.7657C83.242 56.7657 81.8947 56.5388 80.6558 56.0849C79.4168 55.6008 78.3482 54.9049 77.45 53.9972C76.5518 53.0593 75.8394 51.8944 75.3128 50.5026C74.7863 49.0805 74.523 47.4164 74.523 45.5103C74.523 43.9672 74.7863 42.5603 75.3128 41.2895C75.8394 39.9885 76.5672 38.8841 77.4965 37.9764C78.4566 37.0687 79.6026 36.3577 80.9345 35.8433C82.2664 35.329 83.7221 35.0718 85.3018 35.0718C86.8195 35.0718 88.2133 35.2987 89.4832 35.7525C90.7841 36.2064 91.8991 36.872 92.8284 37.7495C93.7576 38.5967 94.4854 39.6556 95.012 40.9264C95.5385 42.1972 95.8018 43.6646 95.8018 45.3287ZM90.9235 45.828C90.9235 44.6782 90.846 43.5587 90.6912 42.4695C90.5363 41.3803 90.2576 40.412 89.8549 39.5649C89.4522 38.7177 88.8947 38.0369 88.1823 37.5225C87.4699 37.0082 86.5562 36.751 85.4412 36.751C84.2022 36.751 83.1956 37.0082 82.4212 37.5225C81.6469 38.0369 81.0274 38.7328 80.5628 39.6102C80.1292 40.4574 79.8195 41.4256 79.6336 42.5149C79.4788 43.6041 79.4013 44.7387 79.4013 45.9187C79.4013 46.9475 79.4788 48.0064 79.6336 49.0957C79.7885 50.1849 80.0827 51.1683 80.5164 52.0457C80.95 52.9231 81.5385 53.6493 82.2819 54.2242C83.0562 54.799 84.0319 55.0865 85.2089 55.0865C86.4168 55.0865 87.3925 54.8142 88.1359 54.2695C88.8792 53.7249 89.4522 53.0139 89.8549 52.1365C90.2885 51.259 90.5673 50.2757 90.6912 49.1864C90.846 48.067 90.9235 46.9475 90.9235 45.828Z" fill="#8CA1C6"/>
<path d="M107.983 50.8203C107.983 51.5767 107.998 52.2121 108.029 52.7265C108.091 53.2408 108.262 53.6644 108.54 53.9972C108.819 54.3301 109.253 54.5872 109.841 54.7688C110.43 54.9503 111.281 55.0865 112.396 55.1772C112.582 55.2075 112.722 55.2983 112.815 55.4495C112.908 55.5706 112.954 55.7219 112.954 55.9034C112.954 56.0547 112.908 56.1908 112.815 56.3119C112.722 56.4631 112.582 56.5388 112.396 56.5388C111.065 56.5388 109.888 56.4783 108.866 56.3572C107.843 56.2665 106.868 56.2211 105.939 56.2211C104.947 56.2211 103.956 56.2665 102.965 56.3572C102.005 56.4783 101.029 56.5388 100.038 56.5388C99.8832 56.5388 99.7593 56.4631 99.6664 56.3119C99.5734 56.1908 99.527 56.0547 99.527 55.9034C99.527 55.7219 99.5734 55.5706 99.6664 55.4495C99.7593 55.2983 99.8987 55.2075 100.085 55.1772C100.952 55.0865 101.618 54.9503 102.082 54.7688C102.578 54.5872 102.934 54.3452 103.151 54.0426C103.368 53.7098 103.492 53.3165 103.523 52.8626C103.585 52.3785 103.615 51.7885 103.615 51.0926V44.4664C103.615 42.9839 103.585 41.819 103.523 40.9718C103.461 40.0944 103.306 39.4287 103.058 38.9749C102.841 38.4908 102.485 38.1731 101.989 38.0218C101.494 37.8705 100.812 37.7646 99.9451 37.7041C99.7903 37.7041 99.6664 37.6284 99.5734 37.4772C99.5115 37.3259 99.4805 37.1746 99.4805 37.0233C99.4805 36.872 99.5115 36.7208 99.5734 36.5695C99.6664 36.4182 99.8057 36.3425 99.9916 36.3425C100.611 36.282 101.463 36.2215 102.547 36.161C103.662 36.0702 104.792 35.8736 105.939 35.571C106.372 35.45 106.728 35.4348 107.007 35.5256C107.286 35.6164 107.41 35.8736 107.379 36.2972L107.286 39.2018C107.286 39.2623 107.301 39.3077 107.332 39.3379C107.363 39.3379 107.41 39.3077 107.472 39.2472C108.122 37.9764 108.912 36.9628 109.841 36.2064C110.801 35.45 112.071 35.0718 113.651 35.0718C114.952 35.0718 115.912 35.4046 116.531 36.0702C117.151 36.7056 117.461 37.4923 117.461 38.4302C117.461 38.9446 117.259 39.4136 116.857 39.8372C116.454 40.2608 115.881 40.4726 115.138 40.4726C114.425 40.4726 113.93 40.3062 113.651 39.9733C113.372 39.6405 113.233 39.2774 113.233 38.8841C113.233 38.4605 113.14 38.1277 112.954 37.8856C112.799 37.6436 112.443 37.5225 111.885 37.5225C111.297 37.5225 110.755 37.7192 110.259 38.1126C109.795 38.4756 109.392 38.9144 109.051 39.4287C108.711 39.9431 108.447 40.4726 108.262 41.0172C108.076 41.5618 107.983 41.9854 107.983 42.288V50.8203Z" fill="#8CA1C6"/>
<path d="M126.68 49.3226C126.68 51.017 126.866 52.2726 127.238 53.0895C127.64 53.9065 128.353 54.3149 129.375 54.3149C130.087 54.3149 130.753 54.209 131.373 53.9972C132.023 53.7854 132.519 53.5585 132.859 53.3165C132.952 53.256 133.061 53.256 133.185 53.3165C133.308 53.3467 133.417 53.4224 133.51 53.5434C133.603 53.6342 133.665 53.7401 133.696 53.8611C133.758 53.9821 133.758 54.088 133.696 54.1788C133.107 55.1167 132.333 55.7824 131.373 56.1757C130.443 56.569 129.344 56.7657 128.074 56.7657C125.968 56.7657 124.481 56.3119 123.614 55.4042C122.746 54.4662 122.313 53.0139 122.313 51.0472V39.3833C122.313 39.0202 122.297 38.7328 122.266 38.521C122.235 38.3092 122.143 38.1579 121.988 38.0672C121.833 37.9764 121.569 37.931 121.198 37.931C120.857 37.9008 120.362 37.8856 119.711 37.8856C119.618 37.8856 119.541 37.7949 119.479 37.6133C119.417 37.4318 119.37 37.2351 119.339 37.0233C119.339 36.8115 119.37 36.6149 119.432 36.4333C119.494 36.2518 119.587 36.161 119.711 36.161C120.485 36.1005 121.151 35.9946 121.709 35.8433C122.266 35.6618 122.731 35.3895 123.103 35.0264C123.505 34.6633 123.815 34.1792 124.032 33.5741C124.28 32.9387 124.481 32.1218 124.636 31.1233C124.667 30.9418 124.791 30.8056 125.008 30.7148C125.224 30.6241 125.457 30.5787 125.704 30.5787C125.952 30.5787 126.169 30.6241 126.355 30.7148C126.572 30.7753 126.68 30.8661 126.68 30.9871V34.8902C126.68 35.3743 126.696 35.6618 126.727 35.7525C126.789 35.8131 126.99 35.8433 127.331 35.8433H132.162C132.379 35.8433 132.519 35.9643 132.581 36.2064C132.643 36.4484 132.674 36.6602 132.674 36.8418C132.674 37.0233 132.627 37.2502 132.534 37.5225C132.472 37.7646 132.317 37.8856 132.07 37.8856H127.098C126.881 37.8856 126.758 37.9461 126.727 38.0672C126.696 38.1579 126.68 38.5361 126.68 39.2018V49.3226Z" fill="#8CA1C6"/>
<path d="M144.386 38.3395C144.448 38.4908 144.526 38.4908 144.619 38.3395C145.424 37.3108 146.415 36.509 147.592 35.9341C148.8 35.3592 149.992 35.0718 151.169 35.0718C153.802 35.0718 155.692 35.7828 156.838 37.2049C158.015 38.5967 158.603 40.4272 158.603 42.6964V51.0926C158.603 51.8793 158.619 52.5147 158.65 52.9988C158.711 53.4829 158.82 53.8762 158.975 54.1788C159.161 54.4511 159.439 54.6629 159.811 54.8142C160.183 54.9352 160.694 55.0562 161.344 55.1772C161.53 55.2075 161.669 55.2983 161.762 55.4495C161.855 55.6008 161.902 55.7521 161.902 55.9034C161.902 56.0547 161.855 56.1908 161.762 56.3119C161.669 56.4631 161.546 56.5388 161.391 56.5388C160.957 56.5388 160.291 56.4783 159.393 56.3572C158.526 56.2665 157.627 56.2211 156.698 56.2211C155.707 56.2211 154.731 56.2665 153.771 56.3572C152.811 56.4783 151.99 56.5388 151.309 56.5388C151.123 56.5388 150.984 56.4631 150.891 56.3119C150.798 56.1908 150.751 56.0547 150.751 55.9034C150.751 55.7219 150.798 55.5706 150.891 55.4495C150.984 55.2983 151.138 55.2075 151.355 55.1772C152.068 55.0865 152.61 54.9654 152.981 54.8142C153.384 54.6629 153.663 54.436 153.818 54.1334C154.004 53.8308 154.112 53.4375 154.143 52.9534C154.205 52.4693 154.236 51.849 154.236 51.0926V44.2395C154.236 43.4831 154.174 42.7267 154.05 41.9703C153.957 41.2138 153.756 40.5331 153.446 39.9279C153.167 39.2926 152.749 38.7782 152.192 38.3849C151.634 37.9915 150.891 37.7949 149.961 37.7949C148.97 37.7949 148.119 37.9764 147.406 38.3395C146.725 38.7026 146.152 39.1413 145.687 39.6556C145.253 40.17 144.928 40.7146 144.711 41.2895C144.495 41.8644 144.386 42.3636 144.386 42.7872V50.8203C144.386 51.6372 144.402 52.318 144.433 52.8626C144.464 53.377 144.557 53.7854 144.711 54.088C144.866 54.3906 145.099 54.6326 145.408 54.8142C145.749 54.9654 146.214 55.0865 146.802 55.1772C147.019 55.2075 147.174 55.2983 147.267 55.4495C147.36 55.6008 147.406 55.7521 147.406 55.9034C147.406 56.0547 147.36 56.1908 147.267 56.3119C147.174 56.4631 147.034 56.5388 146.849 56.5388C146.446 56.5388 145.811 56.4783 144.944 56.3572C144.107 56.2665 143.225 56.2211 142.296 56.2211C141.304 56.2211 140.36 56.2665 139.461 56.3572C138.563 56.4783 137.758 56.5388 137.045 56.5388C136.86 56.5388 136.72 56.4631 136.627 56.3119C136.534 56.1908 136.488 56.0547 136.488 55.9034C136.488 55.7219 136.534 55.5706 136.627 55.4495C136.72 55.2983 136.875 55.2075 137.092 55.1772C137.804 55.0865 138.346 54.9654 138.718 54.8142C139.121 54.6629 139.415 54.436 139.601 54.1334C139.787 53.8308 139.895 53.4375 139.926 52.9534C139.988 52.4693 140.019 51.849 140.019 51.0926V33.2564C140.019 31.9553 139.988 30.9266 139.926 30.1702C139.864 29.3835 139.709 28.7784 139.461 28.3548C139.214 27.9312 138.842 27.6438 138.346 27.4925C137.851 27.3412 137.169 27.2202 136.302 27.1294C136.147 27.1294 136.023 27.0538 135.93 26.9025C135.869 26.7512 135.822 26.5999 135.791 26.4487C135.791 26.2974 135.822 26.1461 135.884 25.9948C135.977 25.8435 136.116 25.7679 136.302 25.7679C137.2 25.7074 138.3 25.6166 139.601 25.4956C140.902 25.3745 142.125 25.1476 143.271 24.8148C143.705 24.6938 143.984 24.724 144.107 24.9056C144.262 25.0569 144.355 25.2233 144.386 25.4048V38.3395Z" fill="#8CA1C6"/>
<path d="M208.572 52.6811C208.572 52.9231 208.494 53.0744 208.34 53.1349C207.534 53.7098 206.76 54.2393 206.017 54.7234C205.273 55.1772 204.421 55.5706 203.461 55.9034C202.532 56.206 201.432 56.4329 200.163 56.5842C198.924 56.7657 197.421 56.8565 195.656 56.8565C193.116 56.8565 190.855 56.5085 188.873 55.8126C186.921 55.0865 185.28 54.0578 183.948 52.7265C182.616 51.3649 181.594 49.7008 180.882 47.7341C180.2 45.7675 179.859 43.5285 179.859 41.0172C179.859 38.4454 180.262 36.161 181.067 34.1641C181.904 32.1369 183.05 30.4425 184.505 29.081C185.961 27.7194 187.68 26.6907 189.663 25.9948C191.676 25.2687 193.859 24.9056 196.213 24.9056C197.7 24.9056 199.109 25.1022 200.441 25.4956C201.804 25.8889 203.059 26.3579 204.205 26.9025C204.855 27.2051 205.397 27.3866 205.831 27.4471C206.264 27.5076 206.59 27.2353 206.806 26.6302C206.837 26.4789 206.93 26.373 207.085 26.3125C207.271 26.252 207.441 26.2369 207.596 26.2671C207.782 26.2671 207.937 26.3125 208.061 26.4033C208.185 26.4638 208.231 26.5546 208.2 26.6756C207.921 27.8253 207.813 29.1112 207.875 30.5333C207.968 31.9553 208.092 33.4077 208.247 34.8902C208.247 35.0415 208.169 35.1777 208.014 35.2987C207.859 35.4197 207.689 35.4954 207.503 35.5256C207.317 35.5559 207.132 35.5407 206.946 35.4802C206.76 35.3895 206.652 35.2533 206.621 35.0718C206.187 32.4395 205.025 30.4274 203.136 29.0356C201.278 27.6135 198.893 26.9025 195.981 26.9025C194.185 26.9025 192.636 27.311 191.335 28.1279C190.065 28.9146 189.012 29.9433 188.176 31.2141C187.37 32.4848 186.766 33.922 186.364 35.5256C185.992 37.1292 185.806 38.7177 185.806 40.291C185.806 42.4998 186.023 44.5118 186.457 46.3272C186.921 48.1123 187.587 49.6554 188.455 50.9565C189.353 52.2272 190.437 53.2106 191.707 53.9065C192.977 54.6024 194.448 54.9503 196.121 54.9503C197.328 54.9503 198.428 54.8747 199.419 54.7234C200.41 54.5419 201.247 54.2393 201.928 53.8157C202.64 53.3921 203.182 52.8172 203.554 52.0911C203.957 51.3347 204.158 50.3816 204.158 49.2318C204.158 48.3241 204.096 47.6131 203.972 47.0987C203.848 46.5844 203.616 46.191 203.275 45.9187C202.935 45.6464 202.47 45.4649 201.882 45.3741C201.293 45.2531 200.534 45.1472 199.605 45.0564C199.388 45.0564 199.233 44.9808 199.14 44.8295C199.048 44.6782 199.001 44.5269 199.001 44.3757C199.001 44.1941 199.032 44.0428 199.094 43.9218C199.187 43.7705 199.326 43.6949 199.512 43.6949C200.596 43.6949 201.711 43.7403 202.857 43.831C204.034 43.8916 205.072 43.9218 205.97 43.9218C206.404 43.9218 206.806 43.9067 207.178 43.8764C207.581 43.8462 207.983 43.831 208.386 43.831C208.82 43.8008 209.269 43.7705 209.733 43.7403C210.229 43.71 210.786 43.6949 211.406 43.6949C211.561 43.6949 211.669 43.7705 211.731 43.9218C211.824 44.0428 211.871 44.1941 211.871 44.3757C211.871 44.5269 211.824 44.6782 211.731 44.8295C211.638 44.9505 211.499 45.0262 211.313 45.0564C210.632 45.1169 210.105 45.2228 209.733 45.3741C209.362 45.5254 209.083 45.7372 208.897 46.0095C208.742 46.2818 208.649 46.6298 208.618 47.0534C208.587 47.4467 208.572 47.9308 208.572 48.5057V52.6811Z" fill="#8CA1C6"/>
<path d="M228.225 46.9172C228.225 46.5844 228.209 46.3877 228.178 46.3272C228.147 46.2364 228.07 46.191 227.946 46.191C225.406 46.4028 223.517 46.9323 222.278 47.7795C221.07 48.5964 220.466 49.6554 220.466 50.9565C220.466 51.8642 220.698 52.6357 221.163 53.2711C221.627 53.8762 222.402 54.1788 223.486 54.1788C224.198 54.1788 224.941 54.0426 225.716 53.7703C226.521 53.498 227.233 53.1047 227.853 52.5903C228.101 52.3483 228.225 52.1062 228.225 51.8641V46.9172ZM232.592 51.4103C232.592 52.4693 232.685 53.2106 232.871 53.6342C233.087 54.0577 233.49 54.2695 234.079 54.2695C234.419 54.2695 234.698 54.2393 234.915 54.1788C235.132 54.088 235.441 53.9216 235.844 53.6795C235.937 53.619 236.03 53.619 236.123 53.6795C236.247 53.7401 236.34 53.8308 236.402 53.9519C236.495 54.0426 236.556 54.1636 236.587 54.3149C236.618 54.436 236.587 54.5419 236.495 54.6326C235.287 56.0547 233.862 56.7657 232.22 56.7657C231.322 56.7657 230.548 56.5388 229.897 56.0849C229.278 55.6008 228.813 55.0411 228.503 54.4057C228.441 54.2544 228.348 54.2393 228.225 54.3603C227.419 55.0562 226.475 55.6311 225.39 56.0849C224.337 56.5388 223.006 56.7657 221.395 56.7657C219.629 56.7657 218.267 56.3119 217.306 55.4042C216.346 54.4662 215.866 53.1501 215.866 51.4557C215.866 49.2772 216.904 47.6131 218.979 46.4634C221.054 45.2834 224.074 44.6933 228.039 44.6933C228.101 44.6933 228.147 44.6177 228.178 44.4664C228.209 44.3151 228.225 43.9672 228.225 43.4226V42.1972C228.225 41.4408 228.163 40.7297 228.039 40.0641C227.915 39.3985 227.698 38.8236 227.388 38.3395C227.11 37.8251 226.707 37.4318 226.18 37.1595C225.654 36.8569 225.003 36.7056 224.229 36.7056C223.083 36.7056 222.154 36.9325 221.441 37.3864C220.729 37.81 220.373 38.3697 220.373 39.0656C220.373 39.3985 220.481 39.7313 220.698 40.0641C220.915 40.3667 221.023 40.6844 221.023 41.0172C221.023 41.4408 220.806 41.8492 220.373 42.2426C219.939 42.6359 219.413 42.8326 218.793 42.8326C217.957 42.8326 217.353 42.6208 216.981 42.1972C216.64 41.7433 216.47 41.1987 216.47 40.5633C216.47 39.8069 216.687 39.0959 217.121 38.4302C217.554 37.7343 218.143 37.1443 218.886 36.6602C219.629 36.1761 220.497 35.7979 221.488 35.5256C222.479 35.2231 223.517 35.0718 224.601 35.0718C227.079 35.0718 229.03 35.6315 230.455 36.751C231.879 37.8705 232.592 39.7313 232.592 42.3333V51.4103Z" fill="#8CA1C6"/>
<path d="M246.261 49.3226C246.261 51.017 246.447 52.2726 246.819 53.0895C247.221 53.9065 247.934 54.3149 248.956 54.3149C249.668 54.3149 250.334 54.209 250.953 53.9972C251.604 53.7854 252.099 53.5585 252.44 53.3165C252.533 53.256 252.642 53.256 252.765 53.3165C252.889 53.3467 252.998 53.4224 253.091 53.5434C253.184 53.6342 253.246 53.7401 253.276 53.8611C253.338 53.9821 253.338 54.088 253.276 54.1788C252.688 55.1167 251.914 55.7824 250.953 56.1757C250.024 56.569 248.925 56.7657 247.655 56.7657C245.549 56.7657 244.062 56.3119 243.195 55.4042C242.327 54.4662 241.894 53.0139 241.894 51.0472V39.3833C241.894 39.0202 241.878 38.7328 241.847 38.521C241.816 38.3092 241.723 38.1579 241.568 38.0672C241.414 37.9764 241.15 37.931 240.779 37.931C240.438 37.9008 239.942 37.8856 239.292 37.8856C239.199 37.8856 239.122 37.7949 239.06 37.6133C238.998 37.4318 238.951 37.2351 238.92 37.0233C238.92 36.8115 238.951 36.6149 239.013 36.4333C239.075 36.2518 239.168 36.161 239.292 36.161C240.066 36.1005 240.732 35.9946 241.29 35.8433C241.847 35.6618 242.312 35.3895 242.684 35.0264C243.086 34.6633 243.396 34.1792 243.613 33.5741C243.861 32.9387 244.062 32.1218 244.217 31.1233C244.248 30.9418 244.372 30.8056 244.588 30.7148C244.805 30.6241 245.038 30.5787 245.285 30.5787C245.533 30.5787 245.75 30.6241 245.936 30.7148C246.153 30.7753 246.261 30.8661 246.261 30.9871V34.8902C246.261 35.3743 246.276 35.6618 246.307 35.7525C246.369 35.8131 246.571 35.8433 246.911 35.8433H251.743C251.96 35.8433 252.1 35.9643 252.161 36.2064C252.223 36.4484 252.254 36.6602 252.254 36.8418C252.254 37.0233 252.208 37.2502 252.115 37.5225C252.053 37.7646 251.898 37.8856 251.65 37.8856H246.679C246.462 37.8856 246.338 37.9461 246.307 38.0672C246.276 38.1579 246.261 38.5361 246.261 39.2018V49.3226Z" fill="#8CA1C6"/>
<path d="M262.062 44.7387C261.907 44.7387 261.814 44.7992 261.783 44.9203C261.783 45.011 261.783 45.1321 261.783 45.2834C261.783 46.8567 261.954 48.188 262.294 49.2772C262.666 50.3665 263.162 51.259 263.781 51.9549C264.432 52.6206 265.191 53.1047 266.058 53.4072C266.956 53.7098 267.916 53.8611 268.938 53.8611C269.991 53.8611 271.014 53.7854 272.005 53.6342C272.996 53.4526 273.848 53.0744 274.56 52.4995C274.715 52.3785 274.87 52.3331 275.025 52.3634C275.21 52.3936 275.35 52.4693 275.443 52.5903C275.567 52.7113 275.644 52.8475 275.675 52.9988C275.706 53.1501 275.675 53.2862 275.582 53.4072C274.591 54.678 273.476 55.5554 272.237 56.0396C270.998 56.5237 269.465 56.7657 267.637 56.7657C265.779 56.7657 264.168 56.4934 262.806 55.9488C261.474 55.4042 260.359 54.6478 259.46 53.6795C258.593 52.6811 257.943 51.5313 257.509 50.2303C257.106 48.899 256.905 47.4618 256.905 45.9187C256.905 44.4362 257.153 43.0292 257.648 41.698C258.175 40.3667 258.903 39.2169 259.832 38.2487C260.761 37.2805 261.861 36.509 263.131 35.9341C264.401 35.3592 265.81 35.0718 267.359 35.0718C268.66 35.0718 269.837 35.2987 270.89 35.7525C271.974 36.1761 272.887 36.7813 273.631 37.5679C274.374 38.3243 274.947 39.2472 275.35 40.3364C275.783 41.3954 276 42.5451 276 43.7857C276 44.421 275.768 44.7387 275.303 44.7387H262.062ZM270.564 43.1503C270.998 43.1503 271.246 42.999 271.308 42.6964C271.37 42.3939 271.401 42.0308 271.401 41.6072C271.401 40.9718 271.292 40.3667 271.075 39.7918C270.89 39.1867 270.611 38.6572 270.239 38.2033C269.868 37.7495 269.418 37.3864 268.892 37.1141C268.365 36.8418 267.761 36.7056 267.08 36.7056C266.244 36.7056 265.516 36.8569 264.896 37.1595C264.308 37.4318 263.797 37.81 263.363 38.2941C262.96 38.7479 262.651 39.2926 262.434 39.9279C262.217 40.5633 262.062 41.229 261.969 41.9249C261.907 42.288 261.876 42.5905 261.876 42.8326C261.907 43.0444 261.985 43.1503 262.109 43.1503H270.564Z" fill="#8CA1C6"/>
<path d="M52.4582 81.7284C52.4582 82.3509 52.3226 82.9372 52.0514 83.4873C51.7802 84.0229 51.3357 84.4934 50.7179 84.8987C50.1152 85.2895 49.3241 85.6008 48.3448 85.8324C47.3804 86.064 46.1901 86.1798 44.7737 86.1798C43.9752 86.1798 43.1917 86.1219 42.4232 86.0061C41.6698 85.8903 40.9466 85.7238 40.2535 85.5067C39.5754 85.2895 38.9426 85.029 38.355 84.725C37.7824 84.4065 37.2852 84.0591 36.8633 83.6827L37.9933 82.3798C38.8522 83.0892 39.8542 83.632 40.9993 84.0084C42.1445 84.3703 43.4026 84.5513 44.7737 84.5513C46.2956 84.5513 47.3729 84.3486 48.0057 83.9433C48.6386 83.5379 48.955 82.9806 48.955 82.2713C48.955 81.7212 48.7064 81.2579 48.2091 80.8816C47.7119 80.5052 46.8681 80.136 45.6778 79.7741L41.3835 78.4713C39.9672 78.037 38.8974 77.4869 38.1742 76.821C37.4509 76.1406 37.0893 75.2793 37.0893 74.237C37.0893 73.7014 37.2174 73.1875 37.4735 72.6953C37.7447 72.1887 38.1591 71.7471 38.7166 71.3707C39.2741 70.9799 39.9823 70.6759 40.8411 70.4588C41.715 70.2271 42.7622 70.1113 43.9827 70.1113C44.721 70.1113 45.4518 70.1692 46.175 70.285C46.9133 70.4009 47.614 70.5673 48.2769 70.7845C48.955 71.0016 49.5803 71.2694 50.1529 71.5879C50.7405 71.8919 51.2453 72.2321 51.6671 72.6085L50.5371 73.9113C49.6782 73.202 48.7139 72.6664 47.6441 72.3045C46.5743 71.9281 45.3538 71.7399 43.9827 71.7399C42.8526 71.7399 42.0013 71.9281 41.4287 72.3045C40.8712 72.6808 40.5925 73.1441 40.5925 73.6942C40.5925 73.9982 40.6452 74.266 40.7507 74.4976C40.8562 74.7147 41.0295 74.9246 41.2705 75.1273C41.5267 75.3155 41.8582 75.4964 42.265 75.6702C42.6718 75.8294 43.1766 76.0031 43.7793 76.1913L48.0509 77.4941C49.4221 77.914 50.4994 78.464 51.2829 79.1444C52.0664 79.8248 52.4582 80.6861 52.4582 81.7284Z" fill="#8CA1C6"/>
<path d="M69.6352 70.5456C70.7653 70.5456 71.7748 70.6687 72.6638 70.9148C73.5678 71.1464 74.3287 71.4938 74.9465 71.957C75.5643 72.4058 76.0389 72.9631 76.3704 73.629C76.7019 74.2805 76.8676 75.026 76.8676 75.8656C76.8676 76.7052 76.7019 77.458 76.3704 78.1239C76.0389 78.7753 75.5643 79.3326 74.9465 79.7959C74.3287 80.2446 73.5678 80.592 72.6638 80.8381C71.7748 81.0698 70.7653 81.1856 69.6352 81.1856H64.7759V85.7455H61.4987V70.5456H69.6352ZM64.7759 72.1742V79.557H69.6352C70.8255 79.557 71.7447 79.2602 72.3926 78.6667C73.0555 78.0587 73.387 77.125 73.387 75.8656C73.387 74.6062 73.0555 73.6797 72.3926 73.0862C71.7447 72.4782 70.8255 72.1742 69.6352 72.1742H64.7759Z" fill="#8CA1C6"/>
<path d="M89.4122 85.7455H86.135V70.5456H89.4122V85.7455Z" fill="#8CA1C6"/>
<path d="M115.633 70.5456V85.7455H111.339L102.864 73.3685H102.638V85.7455H99.3603V70.5456H103.655L112.13 82.9227H112.356V70.5456H115.633Z" fill="#8CA1C6"/>
<path d="M129.767 80.4256H136.773L133.383 72.3913H133.157L129.767 80.4256ZM135.869 70.5456L142.311 85.7455H139.056L137.565 82.0541H128.976L127.484 85.7455H124.23L130.671 70.5456H135.869Z" fill="#8CA1C6"/>
<path d="M163.902 84.117V85.7455H150.906V70.5456H154.184V84.117H163.902Z" fill="#8CA1C6"/>
<path d="M196.44 84.5513C197.465 84.5513 198.444 84.3848 199.378 84.0518C200.328 83.7044 201.232 83.1471 202.09 82.3798L203.22 83.6827C202.362 84.4499 201.322 85.0579 200.101 85.5067C198.881 85.9554 197.585 86.1798 196.214 86.1798C194.798 86.1798 193.517 86.0061 192.372 85.6587C191.242 85.3113 190.27 84.7974 189.456 84.117C188.658 83.4366 188.04 82.597 187.603 81.5981C187.166 80.5993 186.948 79.4484 186.948 78.1456C186.948 76.8427 187.158 75.6919 187.58 74.693C188.017 73.6942 188.628 72.8546 189.411 72.1742C190.21 71.4938 191.166 70.9799 192.281 70.6325C193.396 70.285 194.632 70.1113 195.988 70.1113C197.359 70.1113 198.655 70.3357 199.875 70.7845C201.096 71.2332 202.136 71.8412 202.994 72.6085L201.864 73.9113C201.006 73.1441 200.102 72.594 199.152 72.261C198.218 71.9136 197.239 71.7399 196.214 71.7399C195.4 71.7399 194.64 71.8702 193.931 72.1307C193.223 72.3768 192.613 72.7605 192.101 73.2816C191.588 73.8027 191.182 74.4686 190.88 75.2793C190.594 76.0755 190.451 77.0309 190.451 78.1456C190.451 79.2602 190.594 80.2229 190.88 81.0336C191.182 81.8297 191.596 82.4884 192.123 83.0096C192.666 83.5307 193.299 83.9215 194.022 84.1821C194.76 84.4282 195.566 84.5513 196.44 84.5513Z" fill="#8CA1C6"/>
<path d="M216.217 80.4256H223.224L219.833 72.3913H219.607L216.217 80.4256ZM222.319 70.5456L228.761 85.7455H225.506L224.015 82.0541H215.426L213.934 85.7455H210.68L217.121 70.5456H222.319Z" fill="#8CA1C6"/>
<path d="M245.493 70.5456C246.623 70.5456 247.632 70.6687 248.521 70.9148C249.426 71.1464 250.186 71.4938 250.804 71.957C251.422 72.4058 251.897 72.9631 252.228 73.629C252.56 74.2805 252.725 75.026 252.725 75.8656C252.725 77.0237 252.424 78.0008 251.821 78.797C251.219 79.5932 250.352 80.2012 249.222 80.621L252.951 85.7455H249.222L245.9 81.1856H240.634V85.7455H237.356V70.5456H245.493ZM240.634 72.1742V79.557H245.493C246.683 79.557 247.602 79.2602 248.25 78.6667C248.898 78.0587 249.222 77.125 249.222 75.8656C249.222 74.6062 248.898 73.6797 248.25 73.0862C247.602 72.4782 246.683 72.1742 245.493 72.1742H240.634Z" fill="#8CA1C6"/>
<path d="M265.491 72.1742V77.1684H273.74V78.797H265.491V84.117H276V85.7455H262.213V70.5456H276V72.1742H265.491Z" fill="#8CA1C6"/>
<path d="M5.6979 22.7961C5.6979 10.9421 13.2966 2.65955 17.096 0C14.8163 3.41942 10.2571 12.7658 10.2571 22.7961C10.2571 35.334 19.3756 39.8932 19.3756 56.9903C19.3756 70.668 7.21764 83.9658 1.13867 88.9049C5.6979 82.446 14.8163 67.0206 14.8163 56.9903C14.8163 44.4525 5.6979 37.6136 5.6979 22.7961Z" fill="#8CA1C6"/>
<path d="M3.41942 25.0761C3.41942 37.614 12.5379 45.5926 12.5379 56.9907C12.5379 64.2855 5.69903 77.5072 5.69903 77.5072C5.69903 77.5072 9.11845 70.6684 9.11845 56.9907C9.11845 50.1519 0 41.0334 0 25.0761C0 20.4297 4.11053 13.8102 5.34965 11.9203C5.55958 11.5379 5.69903 11.3984 5.69903 11.3984C5.69903 11.3984 5.56956 11.5849 5.34965 11.9203C4.71083 13.0839 3.41942 16.4972 3.41942 25.0761Z" fill="#8CA1C6"/>
</svg>
