<svg width="276" height="51" viewBox="0 0 276 51" fill="none" xmlns="http://www.w3.org/2000/svg">
<path fill-rule="evenodd" clip-rule="evenodd" d="M60.4375 2.98588e-06L60.4375 50.365L251.824 50.365V50.3454C265.265 49.8168 276 38.7531 276 25.1825C276 11.6118 265.265 0.548352 251.824 0.0197663V1.97174e-05L250.817 0L60.4375 2.98588e-06ZM251.224 5.00002L250.817 5L250.786 5.00002L65.4375 5L65.4375 45.365L251.223 45.365L251.628 45.3491C262.397 44.9256 271 36.0575 271 25.1825C271 14.3075 262.397 5.4394 251.628 5.0159L251.224 5.00002Z" fill="#8CA1C6"/>
<path d="M82.461 29.8953H83.1968C82.4387 32.4929 80.5435 33.7917 77.5111 33.7917C75.5601 33.7917 73.9157 33.1284 72.5779 31.8017C71.2512 30.475 70.5879 28.7192 70.5879 26.534C70.5879 24.2932 71.307 22.476 72.7451 21.0824C74.1833 19.6889 75.8834 18.9921 77.8456 18.9921C79.0273 18.9921 80.1143 19.2541 81.1065 19.7781C82.0987 20.2909 82.5948 20.9208 82.5948 21.6677C82.5948 21.9464 82.5001 22.2084 82.3105 22.4537C82.1322 22.699 81.8702 22.8216 81.5246 22.8216C80.7888 22.8216 80.3372 22.3924 80.17 21.5339C80.0362 20.8873 79.83 20.4358 79.5513 20.1794C79.2614 19.923 78.6984 19.7948 77.8623 19.7948C76.3684 19.7948 75.2424 20.3132 74.4843 21.35C73.7373 22.3868 73.3639 23.9476 73.3639 26.0324C73.3639 28.184 73.7652 29.8674 74.5679 31.0826C75.3817 32.2978 76.6081 32.9054 78.2469 32.9054C80.4543 32.9054 81.859 31.902 82.461 29.8953Z" fill="#8CA1C6"/>
<path d="M90.9127 21.8015C91.5816 20.865 92.3286 20.1627 93.1536 19.6944C93.9897 19.2262 94.9039 18.9921 95.8961 18.9921C97.0221 18.9921 97.953 19.2262 98.6888 19.6944C99.4357 20.1627 99.9207 20.7424 100.144 21.4336C100.367 22.1137 100.478 23.2229 100.478 24.7614V28.5408C100.478 30.1462 100.506 31.1217 100.562 31.4673C100.629 31.8129 100.813 32.0693 101.114 32.2365C101.415 32.3926 101.972 32.4706 102.786 32.4706V33.2399H95.7121V32.4706H96.0299C96.8437 32.4706 97.3677 32.3536 97.6018 32.1194C97.8471 31.8853 97.9864 31.6122 98.0199 31.3C98.0645 30.9767 98.0868 30.057 98.0868 28.5408V24.427C98.0868 23.2898 98.0199 22.4481 97.8861 21.9018C97.7523 21.3556 97.4346 20.9041 96.9329 20.5473C96.4424 20.1906 95.8236 20.0122 95.0767 20.0122C94.2071 20.0122 93.4267 20.2686 92.7355 20.7814C92.0443 21.2831 91.4367 22.0412 90.9127 23.0557V28.5408C90.9127 30.0793 90.935 31.0269 90.9796 31.3836C91.0353 31.7404 91.2081 32.0135 91.498 32.2031C91.7879 32.3814 92.3174 32.4706 93.0867 32.4706V33.2399H86.13V32.4706H86.4812C87.2839 32.4706 87.8023 32.3591 88.0364 32.1362C88.2817 31.902 88.421 31.6289 88.4545 31.3168C88.4991 30.9934 88.5214 30.0681 88.5214 28.5408V14.895C88.5214 13.5126 88.3876 12.6374 88.12 12.2695C87.8636 11.9016 87.2393 11.7177 86.2471 11.7177V10.9484C87.9751 10.9484 89.4132 10.7143 90.5615 10.2461H90.9127V21.8015Z" fill="#8CA1C6"/>
<path d="M107.525 12.002C107.525 11.5226 107.692 11.1101 108.027 10.7645C108.372 10.4189 108.785 10.2461 109.264 10.2461C109.744 10.2461 110.151 10.4189 110.485 10.7645C110.819 11.1101 110.987 11.5226 110.987 12.002C110.987 12.4925 110.819 12.9106 110.485 13.2562C110.151 13.6018 109.744 13.7746 109.264 13.7746C108.785 13.7746 108.372 13.6018 108.027 13.2562C107.692 12.9106 107.525 12.4925 107.525 12.002ZM110.753 18.9921V28.5408C110.753 30.0012 110.775 30.921 110.819 31.3C110.864 31.6791 111.026 31.9689 111.304 32.1696C111.583 32.3703 112.079 32.4706 112.793 32.4706H113.144V33.2399H105.769V32.4706H106.338C107.129 32.4706 107.642 32.3591 107.876 32.1362C108.122 31.902 108.261 31.6289 108.294 31.3168C108.339 30.9934 108.361 30.0681 108.361 28.5408V24.3935C108.361 22.7882 108.283 21.8071 108.127 21.4503C107.982 21.0936 107.782 20.8706 107.525 20.7814C107.28 20.6922 106.845 20.6476 106.221 20.6476H105.769V19.8784C107.754 19.6777 109.292 19.3823 110.385 18.9921H110.753Z" fill="#8CA1C6"/>
<path d="M121.211 22.4871C121.59 21.4949 122.203 20.6644 123.05 19.9955C123.909 19.3265 124.745 18.9921 125.559 18.9921C126.295 18.9921 126.874 19.2206 127.298 19.6777C127.722 20.1348 127.934 20.603 127.934 21.0824C127.934 21.4057 127.822 21.6845 127.599 21.9186C127.387 22.1527 127.125 22.2697 126.813 22.2697C126.256 22.2697 125.832 21.8573 125.542 21.0323C125.341 20.4748 125.04 20.1961 124.639 20.1961C124.16 20.1961 123.586 20.525 122.917 21.1828C122.248 21.8294 121.819 22.5039 121.629 23.2062C121.44 23.9086 121.345 24.8729 121.345 26.0993V28.5408C121.345 30.0012 121.361 30.921 121.395 31.3C121.44 31.6791 121.601 31.9689 121.88 32.1696C122.159 32.3703 122.655 32.4706 123.368 32.4706H123.836V33.2399H116.562V32.4706H116.913C117.582 32.4706 118.056 32.3814 118.335 32.2031C118.625 32.0135 118.797 31.7515 118.853 31.4171C118.909 31.0826 118.937 30.1239 118.937 28.5408V24.6778C118.937 23.2062 118.914 22.2865 118.87 21.9186C118.836 21.5395 118.68 21.2497 118.402 21.049C118.123 20.8372 117.627 20.7313 116.913 20.7313H116.562V19.9787C117.61 19.8561 118.981 19.5272 120.676 18.9921C120.999 19.8728 121.178 21.0378 121.211 22.4871Z" fill="#8CA1C6"/>
<path d="M130.332 26.3668C130.332 24.2709 131.034 22.5206 132.439 21.1159C133.843 19.7 135.571 18.9921 137.623 18.9921C139.685 18.9921 141.419 19.7 142.823 21.1159C144.228 22.5317 144.931 24.2821 144.931 26.3668C144.931 28.6746 144.217 30.4918 142.79 31.8184C141.363 33.134 139.641 33.7917 137.623 33.7917C135.605 33.7917 133.882 33.1228 132.455 31.785C131.039 30.436 130.332 28.63 130.332 26.3668ZM133.108 26.4504C133.108 28.8808 133.503 30.5865 134.295 31.5676C135.086 32.5375 136.196 33.0225 137.623 33.0225C139.083 33.0225 140.198 32.5375 140.967 31.5676C141.748 30.5865 142.138 28.8808 142.138 26.4504C142.138 24.0424 141.753 22.3255 140.984 21.2998C140.215 20.2742 139.094 19.7613 137.623 19.7613C136.162 19.7613 135.042 20.2742 134.261 21.2998C133.492 22.3143 133.108 24.0312 133.108 26.4504Z" fill="#8CA1C6"/>
<path d="M152.128 18.9921H152.579C152.769 19.6164 152.864 20.3689 152.864 21.2497C153.577 20.4916 154.341 19.9286 155.155 19.5607C155.98 19.1816 156.849 18.9921 157.764 18.9921C159.659 18.9921 161.236 19.661 162.496 20.9988C163.756 22.3255 164.386 24.0814 164.386 26.2665C164.386 28.407 163.75 30.1963 162.479 31.6345C161.22 33.0726 159.558 33.7917 157.496 33.7917C156.649 33.7917 155.835 33.6189 155.054 33.2733C154.285 32.9389 153.555 32.4372 152.864 31.7683V36.969C152.864 38.5521 152.892 39.5165 152.947 39.8621C153.014 40.2077 153.193 40.4641 153.483 40.6313C153.772 40.8097 154.313 40.8989 155.105 40.8989V41.6681H147.947V40.8989H148.449C149.241 40.8989 149.753 40.7818 149.987 40.5477C150.233 40.3247 150.372 40.0516 150.406 39.7283C150.45 39.4161 150.472 38.4964 150.472 36.969V24.5273C150.472 23.0669 150.45 22.1471 150.406 21.7681C150.372 21.389 150.216 21.0992 149.937 20.8985C149.659 20.6978 149.162 20.5975 148.449 20.5975H147.947V19.8282C149.051 19.7167 150.445 19.438 152.128 18.9921ZM152.864 30.6646C153.466 31.4004 154.101 31.9578 154.77 32.3368C155.45 32.7047 156.164 32.8887 156.911 32.8887C158.17 32.8887 159.269 32.348 160.205 31.2666C161.142 30.1852 161.61 28.4627 161.61 26.0993C161.61 24.0479 161.158 22.515 160.255 21.5005C159.352 20.486 158.276 19.9787 157.028 19.9787C156.258 19.9787 155.528 20.1738 154.837 20.564C154.146 20.9542 153.488 21.5451 152.864 22.3366V30.6646Z" fill="#8CA1C6"/>
<path d="M173.172 22.4871C173.551 21.4949 174.164 20.6644 175.011 19.9955C175.87 19.3265 176.706 18.9921 177.52 18.9921C178.256 18.9921 178.835 19.2206 179.259 19.6777C179.683 20.1348 179.894 20.603 179.894 21.0824C179.894 21.4057 179.783 21.6845 179.56 21.9186C179.348 22.1527 179.086 22.2697 178.774 22.2697C178.217 22.2697 177.793 21.8573 177.503 21.0323C177.302 20.4748 177.001 20.1961 176.6 20.1961C176.121 20.1961 175.547 20.525 174.878 21.1828C174.209 21.8294 173.779 22.5039 173.59 23.2062C173.4 23.9086 173.306 24.8729 173.306 26.0993V28.5408C173.306 30.0012 173.322 30.921 173.356 31.3C173.4 31.6791 173.562 31.9689 173.841 32.1696C174.12 32.3703 174.616 32.4706 175.329 32.4706H175.797V33.2399H168.523V32.4706H168.874C169.543 32.4706 170.017 32.3814 170.296 32.2031C170.585 32.0135 170.758 31.7515 170.814 31.4171C170.87 31.0826 170.898 30.1239 170.898 28.5408V24.6778C170.898 23.2062 170.875 22.2865 170.831 21.9186C170.797 21.5395 170.641 21.2497 170.362 21.049C170.084 20.8372 169.588 20.7313 168.874 20.7313H168.523V19.9787C169.571 19.8561 170.942 19.5272 172.637 18.9921C172.96 19.8728 173.138 21.0378 173.172 22.4871Z" fill="#8CA1C6"/>
<path d="M196.774 30.7315H197.393C197.293 32.6378 196.356 33.591 194.584 33.591C193.826 33.591 193.224 33.3904 192.778 32.989C192.343 32.5877 192.059 31.9912 191.925 31.1997C190.81 31.9912 189.79 32.5877 188.865 32.989C187.95 33.3904 187.131 33.591 186.406 33.591C185.481 33.591 184.684 33.3235 184.015 32.7884C183.346 32.2532 183.012 31.5453 183.012 30.6646C183.012 29.5163 183.569 28.5129 184.684 27.6545C185.81 26.796 187.359 25.9599 189.333 25.1461L191.925 24.0925V23.4236C191.925 22.476 191.863 21.7904 191.741 21.3667C191.618 20.9431 191.3 20.564 190.788 20.2296C190.275 19.8951 189.6 19.7279 188.764 19.7279C187.092 19.7279 186.161 20.2853 185.971 21.4002C185.793 22.5373 185.325 23.1059 184.567 23.1059C183.887 23.1059 183.547 22.7826 183.547 22.136C183.547 21.5005 183.998 20.8204 184.901 20.0958C185.804 19.36 187.209 18.9921 189.115 18.9921C190.531 18.9921 191.629 19.2151 192.41 19.661C193.19 20.1069 193.703 20.6142 193.948 21.1828C194.205 21.7513 194.333 22.6209 194.333 23.7915V29.3267C194.333 30.62 194.4 31.4505 194.534 31.8184C194.667 32.1863 194.957 32.3703 195.403 32.3703C196.139 32.3703 196.596 31.824 196.774 30.7315ZM191.925 24.8785L190.102 25.6143C187.226 26.7849 185.788 28.2565 185.788 30.0291C185.788 30.7315 185.971 31.3 186.339 31.7348C186.707 32.1585 187.187 32.3703 187.778 32.3703C188.302 32.3703 188.909 32.1975 189.6 31.8519C190.292 31.5063 191.066 30.9879 191.925 30.2967V24.8785Z" fill="#8CA1C6"/>
<path d="M212.551 29.8953H213.286C212.528 32.4929 210.633 33.7917 207.601 33.7917C205.65 33.7917 204.005 33.1284 202.667 31.8017C201.341 30.475 200.677 28.7192 200.677 26.534C200.677 24.2932 201.397 22.476 202.835 21.0824C204.273 19.6889 205.973 18.9921 207.935 18.9921C209.117 18.9921 210.204 19.2541 211.196 19.7781C212.188 20.2909 212.684 20.9208 212.684 21.6677C212.684 21.9464 212.59 22.2084 212.4 22.4537C212.222 22.699 211.96 22.8216 211.614 22.8216C210.878 22.8216 210.427 22.3924 210.26 21.5339C210.126 20.8873 209.92 20.4358 209.641 20.1794C209.351 19.923 208.788 19.7948 207.952 19.7948C206.458 19.7948 205.332 20.3132 204.574 21.35C203.827 22.3868 203.453 23.9476 203.453 26.0324C203.453 28.184 203.855 29.8674 204.657 31.0826C205.471 32.2978 206.698 32.9054 208.336 32.9054C210.544 32.9054 211.949 31.902 212.551 29.8953Z" fill="#8CA1C6"/>
<path d="M225.216 20.3132H221.086V28.5909C221.086 29.8619 221.142 30.7203 221.253 31.1662C221.365 31.601 221.599 31.9522 221.955 32.2198C222.323 32.4873 222.714 32.6211 223.126 32.6211C223.929 32.6211 224.626 32.164 225.216 31.2499L225.752 31.5676C225.406 32.3034 224.893 32.8608 224.213 33.2399C223.544 33.6078 222.864 33.7917 222.173 33.7917C221.37 33.7917 220.662 33.5576 220.049 33.0894C219.447 32.61 219.068 32.0526 218.912 31.4171C218.767 30.7816 218.695 29.6668 218.695 28.0725V20.3132H216.705V19.5439C217.619 19.5216 218.438 19.137 219.163 18.3901C219.887 17.6431 220.35 16.5952 220.551 15.2462H221.086V19.5439H225.216V20.3132Z" fill="#8CA1C6"/>
<path d="M228.802 26.3668C228.802 24.2709 229.504 22.5206 230.909 21.1159C232.314 19.7 234.042 18.9921 236.093 18.9921C238.155 18.9921 239.889 19.7 241.294 21.1159C242.698 22.5317 243.401 24.2821 243.401 26.3668C243.401 28.6746 242.687 30.4918 241.26 31.8184C239.833 33.134 238.111 33.7917 236.093 33.7917C234.075 33.7917 232.353 33.1228 230.926 31.785C229.51 30.436 228.802 28.63 228.802 26.3668ZM231.578 26.4504C231.578 28.8808 231.974 30.5865 232.765 31.5676C233.557 32.5375 234.666 33.0225 236.093 33.0225C237.553 33.0225 238.668 32.5375 239.437 31.5676C240.218 30.5865 240.608 28.8808 240.608 26.4504C240.608 24.0424 240.223 22.3255 239.454 21.2998C238.685 20.2742 237.564 19.7613 236.093 19.7613C234.632 19.7613 233.512 20.2742 232.732 21.2998C231.962 22.3143 231.578 24.0312 231.578 26.4504Z" fill="#8CA1C6"/>
<path d="M252.07 22.4871C252.449 21.4949 253.062 20.6644 253.909 19.9955C254.768 19.3265 255.604 18.9921 256.418 18.9921C257.153 18.9921 257.733 19.2206 258.157 19.6777C258.58 20.1348 258.792 20.603 258.792 21.0824C258.792 21.4057 258.681 21.6845 258.458 21.9186C258.246 22.1527 257.984 22.2697 257.672 22.2697C257.114 22.2697 256.691 21.8573 256.401 21.0323C256.2 20.4748 255.899 20.1961 255.498 20.1961C255.019 20.1961 254.444 20.525 253.775 21.1828C253.107 21.8294 252.677 22.5039 252.488 23.2062C252.298 23.9086 252.204 24.8729 252.204 26.0993V28.5408C252.204 30.0012 252.22 30.921 252.254 31.3C252.298 31.6791 252.46 31.9689 252.739 32.1696C253.017 32.3703 253.514 32.4706 254.227 32.4706H254.695V33.2399H247.421V32.4706H247.772C248.441 32.4706 248.915 32.3814 249.193 32.2031C249.483 32.0135 249.656 31.7515 249.712 31.4171C249.768 31.0826 249.795 30.1239 249.795 28.5408V24.6778C249.795 23.2062 249.773 22.2865 249.729 21.9186C249.695 21.5395 249.539 21.2497 249.26 21.049C248.982 20.8372 248.486 20.7313 247.772 20.7313H247.421V19.9787C248.469 19.8561 249.84 19.5272 251.535 18.9921C251.858 19.8728 252.036 21.0378 252.07 22.4871Z" fill="#8CA1C6"/>
<path fill-rule="evenodd" clip-rule="evenodd" d="M64.4675 0H25.1825H24.1755V0.0197659C10.7344 0.548347 0 11.6118 0 25.1825C0 38.7531 10.7344 49.8166 24.1755 50.3452V50.365H25.1825H64.4675V0ZM31.7116 33.3182H29.7215L35.5912 14.0035C35.9257 12.9109 36.0929 12.2754 36.0929 12.0971C36.0929 11.8406 36.0149 11.6567 35.8588 11.5452C35.7139 11.4337 35.346 11.378 34.7551 11.378H34.22L34.4206 10.6756C36.1932 10.631 37.5088 10.4304 38.3672 10.0736H38.7853L34.9892 22.5488C36.9959 20.1184 38.8243 18.9032 40.4743 18.9032C41.2212 18.9032 41.7786 19.0593 42.1465 19.3715C42.5144 19.6836 42.6984 20.1574 42.6984 20.7929C42.6984 21.2946 42.3695 22.4875 41.7118 24.3716L40.2402 28.569C39.6716 30.2078 39.3873 31.1554 39.3873 31.4118C39.3873 31.6905 39.443 31.9024 39.5545 32.0473C39.666 32.1922 39.8332 32.2647 40.0562 32.2647C40.4575 32.2647 40.9091 32.025 41.4107 31.5456C41.9124 31.0662 42.3416 30.4698 42.6984 29.7563H43.5178C42.9492 30.8934 42.2748 31.8076 41.4944 32.4988C40.714 33.19 39.9726 33.5356 39.2702 33.5356C38.7574 33.5356 38.317 33.3461 37.9491 32.967C37.5812 32.588 37.3973 32.0863 37.3973 31.462C37.3973 30.7931 37.7094 29.6058 38.3338 27.9001L39.7552 24.0371C40.413 22.2645 40.7418 21.1496 40.7418 20.6926C40.7418 20.4138 40.6638 20.2076 40.5077 20.0738C40.3628 19.9289 40.1342 19.8564 39.8221 19.8564C39.3204 19.8564 38.7295 20.0627 38.0495 20.4752C37.3694 20.8765 36.6615 21.5566 35.9257 22.5153C35.1899 23.463 34.6492 24.3548 34.3036 25.191C33.9691 26.0271 33.5288 27.3594 32.9825 29.1877L31.7116 33.3182ZM29.0794 19.3715L28.8453 20.1073H26.3369L24.1295 27.4151C23.3937 29.812 23.0258 31.2056 23.0258 31.5958C23.0258 31.8633 23.0815 32.0696 23.193 32.2145C23.3156 32.3483 23.4884 32.4152 23.7114 32.4152C24.1127 32.4152 24.6367 32.0361 25.2833 31.278C25.9299 30.52 26.5097 29.5668 27.0225 28.4185H27.7583C27.0782 30.0796 26.2978 31.3505 25.4171 32.2312C24.5475 33.1008 23.7504 33.5356 23.0258 33.5356C22.4572 33.5356 22.0001 33.3349 21.6545 32.9336C21.32 32.5323 21.1528 32.025 21.1528 31.4118C21.1528 30.8879 21.4984 29.4943 22.1896 27.2311L24.3469 20.1073H22.0391L22.2732 19.3715H24.5643L26.1027 14.3045H28.1095L26.571 19.3715H29.0794ZM54.9127 28.8031H54.11C52.9506 31.3003 51.6072 32.549 50.0798 32.549C49.5335 32.549 49.121 32.3706 48.8423 32.0138C48.5636 31.6571 48.4243 31.122 48.4243 30.4085C48.4243 29.5389 48.5803 28.6191 48.8925 27.6492C51.3006 26.6236 53.1066 25.5589 54.3107 24.4552C55.5147 23.3403 56.1167 22.1809 56.1167 20.9768C56.1167 20.386 55.9551 19.8954 55.6318 19.5052C55.3085 19.1039 54.8346 18.9032 54.2103 18.9032C53.1958 18.9032 52.0029 19.5331 50.6317 20.7929C49.2715 22.0527 48.218 23.5521 47.4711 25.2913C46.7353 27.0305 46.3674 28.5913 46.3674 29.9737C46.3674 31.0662 46.6516 31.9358 47.2202 32.5824C47.7999 33.2179 48.5469 33.5356 49.4611 33.5356C51.6796 33.5356 53.4968 31.9581 54.9127 28.8031ZM53.023 24.1207C51.8747 25.2579 50.5815 26.1497 49.1433 26.7964C49.7008 24.7116 50.431 23.0226 51.334 21.7294C52.2482 20.425 53.0397 19.7728 53.7086 19.7728C54.0543 19.7728 54.3107 19.8787 54.4779 20.0905C54.6563 20.2912 54.7455 20.6034 54.7455 21.027C54.7455 21.9523 54.1713 22.9836 53.023 24.1207Z" fill="#8CA1C6"/>
</svg>
