<svg width="276" height="148" viewBox="0 0 276 148" fill="none" xmlns="http://www.w3.org/2000/svg">
<path d="M97.5589 63.1124C72.962 57.5131 56.9115 48.3044 56.9115 37.8932C56.9115 20.8255 100.047 6.98961 153.256 6.98961C163.858 6.98961 174.06 7.53888 183.6 8.55347C167.874 4.97364 148.654 2.86914 127.903 2.86914C74.6927 2.86914 31.5576 16.705 31.5576 33.7727C31.5576 47.4399 59.2164 59.0344 97.5589 63.1124Z" fill="#8CA1C6"/>
<path d="M67.7235 40.2693C87.7628 28.1486 98.5375 28.7165 105.899 36.0783C117.968 48.147 91.4383 90.1866 56.6529 124.972C49.7222 131.903 42.6646 138.184 35.7103 143.703C48.5223 135.954 62.5751 124.877 76.1414 111.311C110.927 76.5253 129.343 38.5427 117.274 26.4741C107.61 16.8099 95.6731 18.0868 67.7235 40.2693Z" fill="#8CA1C6"/>
<ellipse cx="25.4194" cy="7.72422" rx="8.20556" ry="7.72422" fill="#8CA1C6"/>
<path d="M150 54.7558L158.57 14.7462H164L172.62 54.7558H167.289L165.445 44.6793H157.224L155.281 54.7558H150ZM157.972 40.6784H164.698L161.31 22.6493L157.972 40.6784Z" fill="#8CA1C6"/>
<path d="M186.634 55.2004C183.777 55.2004 181.552 54.6077 179.958 53.4222C178.397 52.2367 177.3 50.6396 176.669 48.6309C176.072 46.6222 175.773 44.383 175.773 41.9132V27.7863C175.773 25.0861 176.072 22.7316 176.669 20.7229C177.3 18.7142 178.397 17.1665 179.958 16.0798C181.552 14.9602 183.777 14.4004 186.634 14.4004C189.158 14.4004 191.151 14.8614 192.613 15.7834C194.107 16.7055 195.17 18.0227 195.801 19.735C196.466 21.4474 196.798 23.5055 196.798 25.9093V29.0706H191.467V26.2551C191.467 24.7733 191.384 23.4725 191.218 22.3529C191.085 21.2004 190.686 20.3113 190.022 19.6856C189.358 19.06 188.245 18.7471 186.684 18.7471C185.09 18.7471 183.927 19.0929 183.196 19.7844C182.465 20.443 181.984 21.398 181.751 22.6493C181.552 23.8677 181.452 25.3001 181.452 26.9466V42.8023C181.452 44.811 181.618 46.4081 181.951 47.5936C182.283 48.7462 182.831 49.5694 183.595 50.0633C184.359 50.5573 185.388 50.8043 186.684 50.8043C188.212 50.8043 189.308 50.475 189.972 49.8164C190.636 49.1248 191.052 48.1863 191.218 47.0009C191.384 45.8154 191.467 44.4324 191.467 42.8517V39.888H196.798V42.8517C196.798 45.2885 196.499 47.4454 195.901 49.3224C195.303 51.1665 194.274 52.6154 192.812 53.6692C191.351 54.69 189.291 55.2004 186.634 55.2004Z" fill="#8CA1C6"/>
<path d="M206.596 54.7558V18.8953H199.77V14.7462H218.852V18.8953H212.226V54.7558H206.596Z" fill="#8CA1C6"/>
<path d="M223.042 54.7558V14.7462H228.572V54.7558H223.042Z" fill="#8CA1C6"/>
<path d="M242.126 54.7558L233.108 14.7462H238.389L244.767 44.2348L250.845 14.7462H255.977L247.059 54.7558H242.126Z" fill="#8CA1C6"/>
<path d="M260.256 54.7558V14.7462H275.9V18.8953H265.886V32.1331H274.007V36.0847H265.886V50.7549H276V54.7558H260.256Z" fill="#8CA1C6"/>
<path d="M153.96 71.9405C153.96 71.1245 153.892 70.4853 153.756 70.0229C153.648 69.5605 153.444 69.2069 153.144 68.9621C152.872 68.6901 152.505 68.5133 152.043 68.4317C151.58 68.3229 150.996 68.2413 150.288 68.1869C150.125 68.1869 149.989 68.1189 149.88 67.9829C149.799 67.8197 149.758 67.6565 149.758 67.4933C149.758 67.3301 149.799 67.1805 149.88 67.0445C149.989 66.9085 150.125 66.8405 150.288 66.8405C150.533 66.8405 150.9 66.8405 151.39 66.8405C151.907 66.8405 152.478 66.8541 153.104 66.8813C153.729 66.8813 154.368 66.8949 155.021 66.9221C155.701 66.9221 156.313 66.9493 156.857 67.0037C157.401 67.0309 157.85 67.0853 158.204 67.1669C158.584 67.2213 158.802 67.3029 158.856 67.4117L167.139 86.8733C167.193 86.9549 167.248 86.9957 167.302 86.9957C167.384 86.9957 167.452 86.9549 167.506 86.8733L175.666 67.4117C175.693 67.3029 176.033 67.2213 176.686 67.1669C177.366 67.0853 178.141 67.0309 179.012 67.0037C179.909 66.9493 180.807 66.9085 181.704 66.8813C182.629 66.8541 183.364 66.8405 183.908 66.8405C184.071 66.8405 184.18 66.9085 184.234 67.0445C184.316 67.1805 184.356 67.3301 184.356 67.4933C184.356 67.6565 184.316 67.8061 184.234 67.9421C184.152 68.0781 184.044 68.1597 183.908 68.1869C182.983 68.3501 182.262 68.4997 181.745 68.6357C181.228 68.7717 180.848 69.0301 180.603 69.4109C180.358 69.7645 180.208 70.2949 180.154 71.0021C180.1 71.7093 180.072 72.7157 180.072 74.0213V89.0765C180.072 89.9741 180.127 90.6813 180.236 91.1981C180.344 91.6877 180.535 92.0685 180.807 92.3405C181.106 92.6125 181.514 92.8165 182.031 92.9525C182.548 93.0613 183.214 93.1565 184.03 93.2381C184.193 93.2653 184.316 93.3605 184.397 93.5237C184.506 93.6597 184.56 93.8093 184.56 93.9725C184.56 94.1357 184.506 94.2853 184.397 94.4213C184.316 94.5573 184.18 94.6253 183.989 94.6253C182.901 94.6253 181.854 94.5709 180.848 94.4621C179.868 94.3533 178.889 94.2989 177.91 94.2989C176.876 94.2989 175.802 94.3533 174.687 94.4621C173.599 94.5709 172.606 94.6253 171.708 94.6253C171.545 94.6253 171.423 94.5573 171.341 94.4213C171.26 94.2853 171.219 94.1357 171.219 93.9725C171.219 93.8093 171.26 93.6597 171.341 93.5237C171.423 93.3605 171.545 93.2653 171.708 93.2381C172.552 93.1565 173.218 93.0613 173.708 92.9525C174.224 92.8165 174.619 92.6125 174.891 92.3405C175.19 92.0685 175.38 91.6877 175.462 91.1981C175.571 90.6813 175.625 89.9741 175.625 89.0765V73.9397C175.625 73.7493 175.516 73.6677 175.299 73.6949C175.081 73.6949 174.945 73.7765 174.891 73.9397L169.016 87.7709C168.608 88.7229 168.2 89.7701 167.792 90.9125C167.411 92.0277 167.03 93.1565 166.649 94.2989C166.622 94.3805 166.54 94.4349 166.404 94.4621C166.296 94.5165 166.173 94.5437 166.037 94.5437C165.901 94.5437 165.765 94.5165 165.629 94.4621C165.52 94.4349 165.452 94.3805 165.425 94.2989L156.449 73.7357C156.395 73.5997 156.272 73.5181 156.082 73.4909C155.919 73.4637 155.837 73.5589 155.837 73.7765V88.9541C155.837 89.9333 155.919 90.6949 156.082 91.2389C156.245 91.7829 156.476 92.1909 156.776 92.4629C157.102 92.7349 157.496 92.9253 157.959 93.0341C158.421 93.1157 158.965 93.1973 159.591 93.2789C159.727 93.3061 159.822 93.3877 159.876 93.5237C159.958 93.6597 159.999 93.8093 159.999 93.9725C159.999 94.1357 159.958 94.2853 159.876 94.4213C159.822 94.5573 159.713 94.6253 159.55 94.6253C158.952 94.6253 158.285 94.5709 157.551 94.4621C156.844 94.3533 156 94.2989 155.021 94.2989C153.988 94.2989 153.063 94.3533 152.247 94.4621C151.458 94.5709 150.792 94.6253 150.248 94.6253C150.112 94.6253 150.003 94.5573 149.921 94.4213C149.84 94.2853 149.785 94.1357 149.758 93.9725C149.758 93.8093 149.799 93.6597 149.88 93.5237C149.962 93.3877 150.084 93.3061 150.248 93.2789C150.955 93.1973 151.54 93.1157 152.002 93.0341C152.492 92.9253 152.872 92.7349 153.144 92.4629C153.444 92.1909 153.648 91.7829 153.756 91.2389C153.892 90.6949 153.96 89.9333 153.96 88.9541V71.9405Z" fill="#8CA1C6"/>
<path d="M204.396 87.2813C204.396 88.3965 204.409 89.3077 204.437 90.0149C204.491 90.6949 204.613 91.2389 204.804 91.6469C205.021 92.0277 205.334 92.2997 205.742 92.4629C206.15 92.5989 206.721 92.6669 207.456 92.6669C207.565 92.6669 207.646 92.7349 207.701 92.8709C207.782 92.9797 207.823 93.1157 207.823 93.2789C207.823 93.4149 207.796 93.5509 207.741 93.6869C207.687 93.8229 207.592 93.8909 207.456 93.8909C207.238 93.8909 207.048 93.9045 206.885 93.9317C206.749 93.9317 206.599 93.9453 206.436 93.9725C206.3 93.9725 206.137 93.9861 205.946 94.0133C205.783 94.0405 205.565 94.0677 205.293 94.0949C205.076 94.1221 204.763 94.1765 204.355 94.2581C203.974 94.3397 203.58 94.4213 203.172 94.5029C202.764 94.5845 202.383 94.6525 202.029 94.7069C201.676 94.7613 201.445 94.7885 201.336 94.7885C200.846 94.7885 200.601 94.0269 200.601 92.5037C200.601 92.4493 200.574 92.4221 200.52 92.4221C200.465 92.3949 200.411 92.4085 200.357 92.4629C199.35 93.3333 198.33 93.9453 197.297 94.2989C196.29 94.6253 195.311 94.7885 194.359 94.7885C193.108 94.7885 192.074 94.6389 191.258 94.3397C190.442 94.0133 189.803 93.5509 189.341 92.9525C188.878 92.3541 188.552 91.6197 188.361 90.7493C188.171 89.8517 188.076 88.8453 188.076 87.7301V83.1197C188.076 81.9501 188.049 81.0389 187.994 80.3861C187.94 79.7333 187.817 79.2437 187.627 78.9173C187.437 78.5909 187.151 78.3733 186.77 78.2645C186.389 78.1557 185.873 78.0605 185.22 77.9789C185.084 77.9789 184.975 77.9109 184.893 77.7749C184.839 77.6389 184.798 77.5029 184.771 77.3669C184.771 77.2309 184.798 77.0949 184.853 76.9589C184.934 76.8229 185.057 76.7549 185.22 76.7549C185.492 76.7277 185.845 76.6869 186.281 76.6325C186.743 76.5781 187.233 76.4965 187.749 76.3877C188.266 76.2789 188.797 76.1701 189.341 76.0613C189.912 75.9253 190.442 75.7893 190.932 75.6533C191.313 75.5445 191.571 75.6125 191.707 75.8573C191.843 76.0749 191.911 76.2653 191.911 76.4285V86.1389C191.911 87.2269 191.952 88.1517 192.033 88.9133C192.142 89.6749 192.319 90.3005 192.564 90.7901C192.809 91.2797 193.149 91.6333 193.584 91.8509C194.019 92.0685 194.563 92.1773 195.216 92.1773C196.141 92.1773 197.106 92.0141 198.113 91.6877C199.119 91.3613 199.881 90.9669 200.397 90.5045C200.479 90.4229 200.52 90.2733 200.52 90.0557C200.547 89.8381 200.561 89.6749 200.561 89.5661V83.1197C200.561 81.9501 200.547 81.0389 200.52 80.3861C200.493 79.7333 200.397 79.2437 200.234 78.9173C200.071 78.5909 199.813 78.3733 199.459 78.2645C199.133 78.1557 198.643 78.0605 197.99 77.9789C197.854 77.9517 197.745 77.8837 197.664 77.7749C197.609 77.6389 197.569 77.5029 197.541 77.3669C197.541 77.2037 197.569 77.0677 197.623 76.9589C197.705 76.8229 197.827 76.7549 197.99 76.7549C198.969 76.7005 199.867 76.5781 200.683 76.3877C201.499 76.1973 202.41 75.9525 203.417 75.6533C203.797 75.5445 204.056 75.6125 204.192 75.8573C204.328 76.0749 204.396 76.2653 204.396 76.4285V87.2813Z" fill="#8CA1C6"/>
<path d="M222.421 75.8981C222.34 76.1973 222.258 76.5645 222.176 76.9997C222.122 77.4349 222.095 77.8973 222.095 78.3869C222.095 78.9037 222.108 79.4477 222.136 80.0189C222.163 80.5629 222.176 80.9845 222.176 81.2837C222.176 81.3653 222.122 81.4333 222.013 81.4877C221.904 81.5421 221.782 81.5829 221.646 81.6101C221.51 81.6101 221.388 81.5965 221.279 81.5693C221.17 81.5149 221.102 81.4469 221.075 81.3653C220.776 79.9237 220.286 78.8221 219.606 78.0605C218.926 77.2717 217.838 76.8773 216.342 76.8773C215.336 76.8773 214.506 77.1357 213.853 77.6525C213.2 78.1421 212.874 78.8085 212.874 79.6517C212.874 80.3589 213.146 80.9029 213.69 81.2837C214.234 81.6645 214.955 82.0181 215.852 82.3445C216.233 82.4805 216.682 82.6573 217.199 82.8749C217.743 83.0653 218.178 83.2285 218.504 83.3645C219.212 83.6909 219.864 84.0309 220.463 84.3845C221.088 84.7381 221.619 85.1597 222.054 85.6493C222.516 86.1117 222.87 86.6421 223.115 87.2405C223.387 87.8389 223.523 88.5325 223.523 89.3213C223.523 90.3549 223.305 91.2253 222.87 91.9325C222.435 92.6125 221.877 93.1701 221.197 93.6053C220.517 94.0133 219.742 94.3125 218.872 94.5029C218.001 94.6933 217.144 94.7885 216.301 94.7885C215.594 94.7885 214.805 94.7069 213.935 94.5437C213.064 94.3805 212.303 94.1493 211.65 93.8501C211.487 93.7957 211.31 93.8229 211.12 93.9317C210.956 94.0405 210.848 94.2445 210.793 94.5437C210.793 94.6253 210.725 94.6797 210.589 94.7069C210.48 94.7341 210.358 94.7477 210.222 94.7477C210.113 94.7477 210.004 94.7205 209.896 94.6661C209.787 94.6389 209.732 94.5845 209.732 94.5029C209.732 94.2853 209.76 93.9861 209.814 93.6053C209.868 93.2245 209.896 92.8709 209.896 92.5445C209.896 92.2181 209.868 91.8645 209.814 91.4837C209.787 91.0757 209.746 90.6813 209.692 90.3005C209.664 89.9197 209.637 89.5797 209.61 89.2805C209.583 88.9813 209.569 88.7637 209.569 88.6277C209.569 88.5189 209.624 88.4373 209.732 88.3829C209.841 88.3285 209.964 88.3013 210.1 88.3013C210.236 88.2741 210.358 88.2877 210.467 88.3421C210.603 88.3693 210.684 88.4373 210.712 88.5461C210.902 89.3349 211.147 90.0285 211.446 90.6269C211.745 91.2253 212.112 91.7285 212.548 92.1365C213.01 92.5445 213.554 92.8573 214.18 93.0749C214.832 93.2653 215.608 93.3605 216.505 93.3605C217.484 93.3605 218.273 93.0885 218.872 92.5445C219.497 92.0005 219.81 91.2389 219.81 90.2597C219.81 89.3893 219.497 88.7093 218.872 88.2197C218.273 87.7029 217.566 87.2541 216.75 86.8733C216.369 86.7101 215.975 86.5469 215.567 86.3837C215.186 86.2205 214.792 86.0573 214.384 85.8941C213.785 85.6493 213.187 85.4045 212.588 85.1597C212.017 84.8877 211.5 84.5613 211.038 84.1805C210.603 83.7997 210.249 83.3237 209.977 82.7525C209.705 82.1813 209.569 81.4741 209.569 80.6309C209.569 79.6517 209.773 78.8221 210.181 78.1421C210.616 77.4621 211.16 76.9181 211.813 76.5101C212.493 76.0749 213.241 75.7621 214.057 75.5717C214.873 75.3813 215.676 75.2861 216.464 75.2861C217.226 75.2861 217.892 75.3813 218.464 75.5717C219.062 75.7349 219.715 76.0477 220.422 76.5101C220.531 76.5645 220.667 76.5645 220.83 76.5101C221.02 76.4285 221.17 76.1973 221.279 75.8165C221.306 75.7077 221.388 75.6397 221.524 75.6125C221.66 75.5853 221.796 75.5853 221.932 75.6125C222.068 75.6125 222.19 75.6397 222.299 75.6941C222.408 75.7485 222.448 75.8165 222.421 75.8981Z" fill="#8CA1C6"/>
<path d="M230.193 84.3845C230.193 85.4181 230.315 86.4109 230.56 87.3629C230.805 88.2877 231.172 89.1173 231.662 89.8517C232.178 90.5589 232.831 91.1301 233.62 91.5653C234.409 91.9733 235.361 92.1773 236.476 92.1773C237.428 92.1773 238.353 92.1093 239.25 91.9733C240.175 91.8101 240.95 91.4565 241.576 90.9125C241.685 90.8037 241.807 90.7765 241.943 90.8309C242.079 90.8581 242.202 90.9261 242.31 91.0349C242.419 91.1165 242.487 91.2253 242.514 91.3613C242.569 91.4973 242.555 91.6197 242.474 91.7285C241.576 92.9253 240.529 93.7413 239.332 94.1765C238.135 94.5845 236.721 94.7885 235.089 94.7885C234.001 94.7885 232.913 94.6253 231.825 94.2989C230.737 93.9725 229.744 93.4285 228.846 92.6669C227.976 91.9053 227.269 90.8989 226.725 89.6477C226.181 88.3693 225.909 86.7917 225.909 84.9149C225.909 83.5821 226.126 82.3309 226.562 81.1613C227.024 79.9645 227.677 78.9445 228.52 78.1013C229.39 77.2309 230.451 76.5509 231.702 76.0613C232.954 75.5445 234.395 75.2861 236.027 75.2861C236.816 75.2861 237.578 75.3813 238.312 75.5717C239.074 75.7621 239.74 76.0477 240.311 76.4285C240.91 76.7821 241.386 77.2309 241.739 77.7749C242.093 78.3189 242.27 78.9309 242.27 79.6109C242.27 80.1005 242.106 80.5629 241.78 80.9981C241.454 81.4333 240.937 81.6509 240.23 81.6509C239.658 81.6509 239.182 81.5013 238.802 81.2021C238.448 80.9029 238.271 80.4677 238.271 79.8965C238.271 79.5157 238.366 79.2029 238.557 78.9581C238.774 78.7133 238.883 78.4821 238.883 78.2645C238.883 77.7749 238.557 77.4077 237.904 77.1629C237.251 76.8909 236.53 76.7549 235.742 76.7549C234.708 76.7549 233.838 76.9725 233.13 77.4077C232.45 77.8429 231.879 78.4277 231.417 79.1621C230.982 79.8693 230.669 80.6853 230.478 81.6101C230.288 82.5077 230.193 83.4325 230.193 84.3845Z" fill="#8CA1C6"/>
<path d="M247.902 73.6541C247.902 72.4845 247.875 71.5597 247.821 70.8797C247.766 70.1725 247.63 69.6285 247.413 69.2477C247.195 68.8669 246.855 68.6085 246.393 68.4725C245.958 68.3365 245.346 68.2277 244.557 68.1461C244.421 68.1461 244.312 68.0781 244.23 67.9421C244.176 67.8061 244.135 67.6701 244.108 67.5341C244.108 67.3981 244.135 67.2621 244.19 67.1261C244.271 66.9901 244.394 66.9221 244.557 66.9221C245.373 66.8677 246.352 66.7861 247.494 66.6773C248.664 66.5685 249.752 66.3645 250.758 66.0653C251.139 65.9565 251.384 65.9837 251.493 66.1469C251.629 66.2829 251.71 66.4325 251.738 66.5957V89.4437C251.738 90.1237 251.751 90.6949 251.778 91.1573C251.806 91.6197 251.901 92.0005 252.064 92.2997C252.254 92.5989 252.54 92.8301 252.921 92.9933C253.329 93.1565 253.886 93.2789 254.594 93.3605C254.757 93.3877 254.879 93.4693 254.961 93.6053C255.042 93.7141 255.083 93.8501 255.083 94.0133C255.083 94.1493 255.042 94.2717 254.961 94.3805C254.879 94.5165 254.757 94.5845 254.594 94.5845C253.941 94.5845 253.206 94.5301 252.39 94.4213C251.574 94.3397 250.758 94.2989 249.942 94.2989C249.072 94.2989 248.215 94.3397 247.372 94.4213C246.529 94.5301 245.672 94.5845 244.802 94.5845C244.666 94.5845 244.557 94.5165 244.475 94.3805C244.394 94.2717 244.353 94.1493 244.353 94.0133C244.353 93.8501 244.394 93.7141 244.475 93.6053C244.557 93.4693 244.679 93.3877 244.842 93.3605C245.604 93.2789 246.189 93.1565 246.597 92.9933C247.032 92.8301 247.345 92.6125 247.535 92.3405C247.726 92.0413 247.834 91.6877 247.862 91.2797C247.889 90.8445 247.902 90.3141 247.902 89.6885V73.6541Z" fill="#8CA1C6"/>
<path d="M262.196 83.9765C262.06 83.9765 261.978 84.0309 261.951 84.1397C261.951 84.2213 261.951 84.3301 261.951 84.4661C261.951 85.8805 262.101 87.0773 262.4 88.0565C262.726 89.0357 263.162 89.8381 263.706 90.4637C264.277 91.0621 264.943 91.4973 265.705 91.7693C266.494 92.0413 267.337 92.1773 268.234 92.1773C269.159 92.1773 270.057 92.1093 270.927 91.9733C271.798 91.8101 272.546 91.4701 273.171 90.9533C273.307 90.8445 273.443 90.8037 273.579 90.8309C273.742 90.8581 273.865 90.9261 273.946 91.0349C274.055 91.1437 274.123 91.2661 274.15 91.4021C274.178 91.5381 274.15 91.6605 274.069 91.7693C273.198 92.9117 272.219 93.7005 271.131 94.1357C270.043 94.5709 268.697 94.7885 267.092 94.7885C265.46 94.7885 264.046 94.5437 262.849 94.0541C261.679 93.5645 260.7 92.8845 259.911 92.0141C259.15 91.1165 258.578 90.0829 258.198 88.9133C257.844 87.7165 257.667 86.4245 257.667 85.0373C257.667 83.7045 257.885 82.4397 258.32 81.2429C258.782 80.0461 259.422 79.0125 260.238 78.1421C261.054 77.2717 262.019 76.5781 263.134 76.0613C264.25 75.5445 265.487 75.2861 266.847 75.2861C267.99 75.2861 269.023 75.4901 269.948 75.8981C270.9 76.2789 271.702 76.8229 272.355 77.5301C273.008 78.2101 273.511 79.0397 273.865 80.0189C274.246 80.9709 274.436 82.0045 274.436 83.1197C274.436 83.6909 274.232 83.9765 273.824 83.9765H262.196ZM269.662 82.5485C270.043 82.5485 270.261 82.4125 270.315 82.1405C270.37 81.8685 270.397 81.5421 270.397 81.1613C270.397 80.5901 270.302 80.0461 270.111 79.5293C269.948 78.9853 269.703 78.5093 269.377 78.1013C269.05 77.6933 268.656 77.3669 268.194 77.1221C267.731 76.8773 267.201 76.7549 266.602 76.7549C265.868 76.7549 265.229 76.8909 264.685 77.1629C264.168 77.4077 263.719 77.7477 263.338 78.1829C262.985 78.5909 262.713 79.0805 262.522 79.6517C262.332 80.2229 262.196 80.8213 262.114 81.4469C262.06 81.7733 262.033 82.0453 262.033 82.2629C262.06 82.4533 262.128 82.5485 262.237 82.5485H269.662Z" fill="#8CA1C6"/>
<path d="M147.27 120.411C148.522 119.812 149.419 119.132 149.963 118.371C150.534 117.609 150.82 116.616 150.82 115.392C150.82 114.74 150.725 114.155 150.534 113.638C150.344 113.121 150.086 112.686 149.759 112.332C149.46 111.979 149.12 111.72 148.739 111.557C148.358 111.367 147.978 111.272 147.597 111.272C146.862 111.272 146.264 111.38 145.802 111.598C145.366 111.816 145.013 112.101 144.741 112.455C144.496 112.781 144.319 113.176 144.21 113.638C144.129 114.073 144.088 114.522 144.088 114.984C144.088 115.501 144.197 116.004 144.414 116.494C144.632 116.984 144.89 117.473 145.19 117.963C145.516 118.425 145.856 118.86 146.21 119.268C146.59 119.676 146.944 120.057 147.27 120.411ZM151.962 130.856C150.766 129.577 149.596 128.34 148.454 127.143C147.338 125.946 146.21 124.708 145.067 123.43C144.115 124.219 143.435 125.089 143.027 126.041C142.646 126.993 142.456 127.959 142.456 128.938C142.456 130.244 142.769 131.304 143.394 132.12C144.047 132.909 145.081 133.304 146.495 133.304C147.447 133.304 148.44 133.113 149.474 132.732C150.507 132.324 151.35 131.821 152.003 131.223C152.112 131.114 152.098 130.992 151.962 130.856ZM148.168 121.594C149.229 122.709 150.29 123.811 151.35 124.899C152.411 125.987 153.499 127.088 154.614 128.204C155.594 126.952 156.464 125.864 157.226 124.94C157.987 123.988 158.694 123.199 159.347 122.573C160.027 121.92 160.666 121.431 161.265 121.104C161.89 120.778 162.557 120.615 163.264 120.615C164.08 120.615 164.706 120.819 165.141 121.227C165.603 121.635 165.834 122.124 165.834 122.696C165.834 123.158 165.698 123.58 165.426 123.96C165.154 124.341 164.638 124.532 163.876 124.532C163.305 124.532 162.924 124.423 162.734 124.205C162.57 123.988 162.489 123.797 162.489 123.634C162.489 123.525 162.462 123.376 162.407 123.185C162.38 122.968 162.149 122.859 161.714 122.859C161.414 122.859 161.115 122.954 160.816 123.144C160.517 123.335 160.15 123.675 159.714 124.164C159.306 124.627 158.776 125.266 158.123 126.082C157.47 126.898 156.654 127.932 155.675 129.183C156.083 129.564 156.546 129.999 157.062 130.488C157.579 130.951 158.11 131.4 158.654 131.835C159.225 132.243 159.782 132.596 160.326 132.896C160.898 133.168 161.428 133.304 161.918 133.304C162.87 133.304 163.577 133.086 164.039 132.651C164.502 132.188 164.828 131.563 165.018 130.774C165.046 130.665 165.127 130.584 165.263 130.529C165.399 130.448 165.535 130.42 165.671 130.448C165.807 130.475 165.93 130.529 166.038 130.611C166.147 130.692 166.188 130.815 166.161 130.978C166.106 131.604 165.943 132.216 165.671 132.814C165.399 133.412 165.032 133.956 164.57 134.446C164.134 134.936 163.604 135.33 162.978 135.629C162.38 135.928 161.7 136.078 160.938 136.078C160.122 136.078 159.361 135.969 158.654 135.752C157.946 135.534 157.28 135.248 156.654 134.895C156.029 134.541 155.43 134.133 154.859 133.671C154.288 133.181 153.744 132.678 153.227 132.161C153.118 132.08 153.023 132.08 152.942 132.161C151.772 133.494 150.548 134.487 149.27 135.14C148.018 135.765 146.631 136.078 145.108 136.078C144.156 136.078 143.245 135.942 142.374 135.67C141.531 135.425 140.783 135.058 140.13 134.568C139.478 134.079 138.961 133.467 138.58 132.732C138.199 131.971 138.009 131.1 138.009 130.121C138.009 129.033 138.158 128.095 138.458 127.306C138.784 126.49 139.219 125.783 139.763 125.184C140.334 124.586 140.987 124.069 141.722 123.634C142.456 123.172 143.245 122.736 144.088 122.328C143.653 121.866 143.231 121.417 142.823 120.982C142.415 120.52 142.048 120.03 141.722 119.513C141.395 118.996 141.137 118.439 140.946 117.84C140.756 117.215 140.661 116.494 140.661 115.678C140.661 114.998 140.797 114.318 141.069 113.638C141.341 112.931 141.749 112.292 142.293 111.72C142.864 111.149 143.585 110.687 144.455 110.333C145.353 109.98 146.414 109.803 147.638 109.803C148.399 109.803 149.174 109.912 149.963 110.129C150.752 110.32 151.459 110.632 152.085 111.068C152.71 111.476 153.214 112.033 153.594 112.74C154.002 113.42 154.206 114.25 154.206 115.229C154.206 116.045 154.002 116.78 153.594 117.432C153.214 118.085 152.724 118.67 152.126 119.187C151.527 119.704 150.874 120.166 150.167 120.574C149.46 120.955 148.794 121.295 148.168 121.594Z" fill="#8CA1C6"/>
<path d="M183.018 113.148C183.018 113.964 183.181 114.658 183.507 115.229C183.861 115.773 184.296 116.236 184.813 116.616C185.357 116.997 185.942 117.337 186.567 117.636C187.22 117.908 187.846 118.18 188.444 118.452C189.478 118.942 190.498 119.459 191.504 120.003C192.538 120.547 193.463 121.186 194.279 121.92C195.095 122.628 195.747 123.484 196.237 124.491C196.754 125.47 197.012 126.667 197.012 128.081C197.012 129.496 196.713 130.692 196.115 131.672C195.543 132.624 194.782 133.412 193.83 134.038C192.905 134.636 191.858 135.072 190.688 135.344C189.519 135.616 188.349 135.752 187.179 135.752C186.418 135.752 185.561 135.629 184.609 135.384C183.657 135.167 182.787 134.827 181.998 134.364C181.862 134.31 181.726 134.256 181.59 134.201C181.481 134.147 181.331 134.12 181.141 134.12C180.951 134.12 180.747 134.201 180.529 134.364C180.311 134.528 180.121 134.813 179.958 135.221C179.876 135.384 179.767 135.493 179.631 135.548C179.495 135.602 179.346 135.616 179.183 135.588C179.047 135.588 178.924 135.548 178.815 135.466C178.734 135.384 178.693 135.289 178.693 135.18C178.775 134.582 178.843 133.943 178.897 133.263C178.979 132.556 179.019 131.848 179.019 131.141C179.019 130.434 178.992 129.727 178.938 129.02C178.911 128.312 178.843 127.578 178.734 126.816C178.707 126.653 178.761 126.517 178.897 126.408C179.033 126.3 179.183 126.245 179.346 126.245C179.509 126.218 179.659 126.245 179.795 126.327C179.958 126.381 180.053 126.49 180.08 126.653C180.243 127.768 180.543 128.788 180.978 129.713C181.413 130.611 181.957 131.386 182.61 132.039C183.263 132.664 183.997 133.154 184.813 133.508C185.656 133.861 186.567 134.038 187.547 134.038C188.281 134.038 188.975 133.943 189.627 133.752C190.307 133.535 190.906 133.236 191.423 132.855C191.939 132.447 192.347 131.957 192.647 131.386C192.946 130.815 193.095 130.148 193.095 129.387C193.095 128.408 192.878 127.551 192.443 126.816C192.035 126.082 191.518 125.456 190.892 124.94C190.267 124.396 189.573 123.933 188.811 123.552C188.05 123.144 187.329 122.777 186.649 122.451C185.751 122.043 184.854 121.621 183.956 121.186C183.059 120.751 182.256 120.234 181.549 119.636C180.842 119.01 180.271 118.276 179.835 117.432C179.4 116.562 179.183 115.488 179.183 114.209C179.183 112.904 179.441 111.816 179.958 110.945C180.502 110.048 181.209 109.327 182.079 108.783C182.95 108.239 183.943 107.844 185.058 107.6C186.173 107.355 187.329 107.232 188.526 107.232C189.287 107.232 189.927 107.287 190.443 107.396C190.987 107.477 191.586 107.627 192.239 107.844C192.592 107.953 192.878 108.048 193.095 108.13C193.34 108.184 193.571 108.212 193.789 108.212C194.115 108.212 194.347 108.076 194.483 107.804C194.537 107.695 194.632 107.627 194.768 107.6C194.931 107.545 195.081 107.532 195.217 107.559C195.353 107.559 195.475 107.586 195.584 107.64C195.693 107.695 195.734 107.776 195.707 107.885C195.571 108.375 195.475 108.864 195.421 109.354C195.394 109.844 195.38 110.36 195.38 110.904C195.38 111.612 195.421 112.251 195.503 112.822C195.584 113.393 195.652 114.073 195.707 114.862C195.707 114.944 195.652 115.025 195.543 115.107C195.435 115.161 195.299 115.202 195.135 115.229C194.999 115.229 194.863 115.202 194.727 115.148C194.591 115.093 194.51 114.998 194.483 114.862C194.211 113.665 193.911 112.686 193.585 111.924C193.259 111.136 192.851 110.524 192.361 110.088C191.871 109.653 191.273 109.354 190.566 109.191C189.886 109.028 189.056 108.946 188.077 108.946C187.397 108.946 186.744 109.041 186.119 109.232C185.52 109.395 184.99 109.653 184.527 110.007C184.065 110.36 183.698 110.809 183.426 111.353C183.154 111.87 183.018 112.468 183.018 113.148Z" fill="#8CA1C6"/>
<path d="M205.856 130.733C205.856 130.951 205.952 131.25 206.142 131.631C206.332 131.984 206.604 132.338 206.958 132.692C207.339 133.018 207.788 133.317 208.304 133.589C208.848 133.834 209.46 133.956 210.14 133.956C210.984 133.956 211.691 133.739 212.262 133.304C212.86 132.868 213.336 132.27 213.69 131.508C214.071 130.747 214.343 129.863 214.506 128.856C214.669 127.85 214.751 126.789 214.751 125.674C214.751 123.362 214.438 121.635 213.812 120.492C213.187 119.323 212.14 118.738 210.671 118.738C209.964 118.738 209.311 118.86 208.712 119.105C208.141 119.323 207.638 119.622 207.203 120.003C206.795 120.356 206.468 120.792 206.224 121.308C205.979 121.798 205.856 122.301 205.856 122.818V130.733ZM202.021 125.348C202.021 124.015 201.994 122.913 201.94 122.043C201.912 121.145 201.804 120.438 201.613 119.921C201.45 119.404 201.164 119.037 200.756 118.82C200.376 118.575 199.832 118.439 199.124 118.412C198.988 118.412 198.88 118.344 198.798 118.208C198.744 118.072 198.716 117.936 198.716 117.8C198.716 117.664 198.744 117.528 198.798 117.392C198.852 117.256 198.934 117.188 199.043 117.188C199.641 117.133 200.43 117.052 201.409 116.943C202.388 116.807 203.34 116.63 204.265 116.412C204.646 116.331 204.932 116.331 205.122 116.412C205.34 116.494 205.476 116.725 205.53 117.106L205.693 119.268C205.693 119.35 205.734 119.364 205.816 119.309C206.332 118.439 207.08 117.691 208.06 117.065C209.066 116.412 210.263 116.086 211.65 116.086C212.874 116.086 213.948 116.344 214.873 116.861C215.798 117.351 216.56 118.031 217.158 118.901C217.784 119.744 218.246 120.724 218.545 121.839C218.872 122.954 219.035 124.11 219.035 125.307C219.035 126.776 218.831 128.136 218.423 129.387C218.015 130.638 217.43 131.726 216.668 132.651C215.907 133.576 214.996 134.296 213.935 134.813C212.874 135.33 211.677 135.588 210.344 135.588C209.501 135.588 208.753 135.52 208.1 135.384C207.448 135.276 206.795 135.112 206.142 134.895C206.006 134.84 205.924 134.84 205.897 134.895C205.87 134.949 205.856 135.085 205.856 135.303V141.545C205.856 142.225 205.87 142.796 205.897 143.259C205.952 143.721 206.088 144.102 206.305 144.401C206.523 144.7 206.863 144.932 207.325 145.095C207.788 145.258 208.454 145.38 209.324 145.462C209.488 145.489 209.596 145.557 209.651 145.666C209.732 145.802 209.773 145.938 209.773 146.074C209.773 146.237 209.732 146.373 209.651 146.482C209.569 146.618 209.46 146.686 209.324 146.686C208.1 146.686 207.094 146.632 206.305 146.523C205.544 146.441 204.768 146.4 203.98 146.4C203.164 146.4 202.334 146.441 201.491 146.523C200.648 146.632 199.791 146.686 198.92 146.686C198.784 146.686 198.676 146.618 198.594 146.482C198.512 146.373 198.472 146.237 198.472 146.074C198.472 145.938 198.512 145.802 198.594 145.666C198.676 145.557 198.798 145.489 198.961 145.462C199.723 145.38 200.308 145.258 200.716 145.095C201.151 144.932 201.464 144.7 201.654 144.401C201.844 144.129 201.953 143.776 201.98 143.34C202.008 142.932 202.021 142.416 202.021 141.79V125.348Z" fill="#8CA1C6"/>
<path d="M228.209 130.244C228.209 130.924 228.222 131.495 228.249 131.957C228.277 132.42 228.372 132.8 228.535 133.1C228.698 133.399 228.943 133.63 229.269 133.793C229.623 133.956 230.113 134.079 230.738 134.16C230.901 134.188 231.024 134.269 231.105 134.405C231.187 134.514 231.228 134.65 231.228 134.813C231.228 134.949 231.187 135.072 231.105 135.18C231.024 135.316 230.901 135.384 230.738 135.384C230.249 135.384 229.609 135.33 228.821 135.221C228.032 135.14 227.229 135.099 226.413 135.099C225.543 135.099 224.686 135.14 223.843 135.221C223.027 135.33 222.238 135.384 221.477 135.384C221.341 135.384 221.232 135.316 221.15 135.18C221.069 135.072 221.028 134.949 221.028 134.813C221.028 134.65 221.069 134.514 221.15 134.405C221.232 134.269 221.354 134.188 221.517 134.16C222.225 134.079 222.769 133.956 223.149 133.793C223.557 133.63 223.843 133.412 224.006 133.14C224.197 132.841 224.305 132.488 224.333 132.08C224.36 131.644 224.373 131.114 224.373 130.488V123.92C224.373 122.75 224.346 121.812 224.292 121.104C224.237 120.397 224.115 119.867 223.925 119.513C223.734 119.132 223.449 118.874 223.068 118.738C222.687 118.602 222.17 118.493 221.517 118.412C221.354 118.412 221.232 118.344 221.15 118.208C221.069 118.072 221.028 117.936 221.028 117.8C221.028 117.664 221.069 117.528 221.15 117.392C221.232 117.256 221.354 117.188 221.517 117.188C221.789 117.16 222.116 117.133 222.497 117.106C222.905 117.079 223.326 117.052 223.761 117.024C224.197 116.97 224.632 116.916 225.067 116.861C225.529 116.78 225.937 116.698 226.291 116.616C226.59 116.562 226.821 116.508 226.985 116.453C227.175 116.372 227.325 116.331 227.433 116.331C227.76 116.331 227.964 116.426 228.045 116.616C228.154 116.807 228.209 116.984 228.209 117.147V130.244ZM226.046 112.169C225.366 112.169 224.781 111.965 224.292 111.557C223.802 111.122 223.557 110.592 223.557 109.966C223.557 109.34 223.789 108.81 224.251 108.375C224.713 107.94 225.285 107.722 225.965 107.722C226.617 107.722 227.148 107.953 227.556 108.416C227.991 108.851 228.209 109.381 228.209 110.007C228.209 110.605 228.005 111.122 227.597 111.557C227.189 111.965 226.672 112.169 226.046 112.169Z" fill="#8CA1C6"/>
<path d="M239.883 130.244C239.883 130.924 239.896 131.495 239.924 131.957C239.951 132.42 240.019 132.8 240.128 133.1C240.264 133.399 240.468 133.63 240.74 133.793C241.039 133.956 241.447 134.079 241.964 134.16C242.127 134.188 242.249 134.269 242.331 134.405C242.412 134.514 242.453 134.65 242.453 134.813C242.453 134.949 242.412 135.072 242.331 135.18C242.249 135.316 242.127 135.384 241.964 135.384C241.692 135.384 241.175 135.33 240.413 135.221C239.679 135.14 238.904 135.099 238.088 135.099C237.217 135.099 236.374 135.14 235.558 135.221C234.742 135.33 233.98 135.384 233.273 135.384C233.137 135.384 233.028 135.316 232.947 135.18C232.865 135.072 232.824 134.949 232.824 134.813C232.824 134.65 232.865 134.514 232.947 134.405C233.028 134.269 233.151 134.188 233.314 134.16C233.994 134.079 234.511 133.97 234.864 133.834C235.245 133.698 235.517 133.494 235.68 133.222C235.871 132.95 235.98 132.596 236.007 132.161C236.034 131.726 236.048 131.168 236.048 130.488V125.348C236.048 124.015 236.034 122.913 236.007 122.043C235.98 121.145 235.884 120.438 235.721 119.921C235.558 119.404 235.3 119.051 234.946 118.86C234.592 118.643 234.089 118.534 233.436 118.534C233.273 118.534 233.137 118.48 233.028 118.371C232.947 118.262 232.906 118.14 232.906 118.004C232.906 117.84 232.947 117.704 233.028 117.596C233.137 117.487 233.273 117.432 233.436 117.432C233.953 117.432 234.701 117.351 235.68 117.188C236.687 117.024 237.707 116.793 238.74 116.494C239.121 116.385 239.407 116.467 239.597 116.739C239.788 116.984 239.883 117.269 239.883 117.596V119.228C239.883 119.282 239.896 119.323 239.924 119.35C239.978 119.35 240.019 119.323 240.046 119.268C240.236 118.969 240.495 118.643 240.821 118.289C241.175 117.908 241.583 117.555 242.045 117.228C242.535 116.902 243.079 116.63 243.677 116.412C244.276 116.195 244.942 116.086 245.676 116.086C247.716 116.086 249.308 116.657 250.45 117.8C251.62 118.915 252.204 120.737 252.204 123.267V130.244C252.204 130.978 252.218 131.576 252.245 132.039C252.3 132.501 252.395 132.882 252.531 133.181C252.694 133.453 252.925 133.671 253.224 133.834C253.551 133.97 254 134.079 254.571 134.16C254.734 134.188 254.856 134.269 254.938 134.405C255.02 134.514 255.06 134.65 255.06 134.813C255.06 134.949 255.02 135.072 254.938 135.18C254.856 135.316 254.734 135.384 254.571 135.384C254.217 135.384 253.632 135.33 252.816 135.221C252.028 135.14 251.225 135.099 250.409 135.099C249.539 135.099 248.709 135.14 247.92 135.221C247.132 135.33 246.479 135.384 245.962 135.384C245.826 135.384 245.717 135.316 245.636 135.18C245.554 135.072 245.513 134.949 245.513 134.813C245.513 134.65 245.554 134.514 245.636 134.405C245.717 134.269 245.84 134.188 246.003 134.16C246.601 134.079 247.05 133.956 247.349 133.793C247.676 133.63 247.907 133.412 248.043 133.14C248.206 132.841 248.301 132.488 248.328 132.08C248.356 131.644 248.369 131.114 248.369 130.488V124.287C248.369 123.607 248.342 122.927 248.288 122.247C248.233 121.567 248.084 120.955 247.839 120.411C247.594 119.867 247.24 119.418 246.778 119.064C246.316 118.711 245.676 118.534 244.86 118.534C244.044 118.534 243.324 118.67 242.698 118.942C242.1 119.187 241.583 119.527 241.148 119.962C240.74 120.397 240.427 120.914 240.209 121.512C239.992 122.084 239.883 122.696 239.883 123.348V130.244Z" fill="#8CA1C6"/>
<path d="M262.196 124.776C262.06 124.776 261.978 124.831 261.951 124.94C261.951 125.021 261.951 125.13 261.951 125.266C261.951 126.68 262.101 127.877 262.4 128.856C262.726 129.836 263.162 130.638 263.706 131.264C264.277 131.862 264.943 132.297 265.705 132.569C266.494 132.841 267.337 132.977 268.234 132.977C269.159 132.977 270.057 132.909 270.927 132.773C271.798 132.61 272.546 132.27 273.171 131.753C273.307 131.644 273.443 131.604 273.579 131.631C273.742 131.658 273.865 131.726 273.946 131.835C274.055 131.944 274.123 132.066 274.15 132.202C274.178 132.338 274.15 132.46 274.069 132.569C273.198 133.712 272.219 134.5 271.131 134.936C270.043 135.371 268.697 135.588 267.092 135.588C265.46 135.588 264.046 135.344 262.849 134.854C261.679 134.364 260.7 133.684 259.911 132.814C259.15 131.916 258.578 130.883 258.198 129.713C257.844 128.516 257.667 127.224 257.667 125.837C257.667 124.504 257.885 123.24 258.32 122.043C258.782 120.846 259.422 119.812 260.238 118.942C261.054 118.072 262.019 117.378 263.134 116.861C264.25 116.344 265.487 116.086 266.847 116.086C267.99 116.086 269.023 116.29 269.948 116.698C270.9 117.079 271.702 117.623 272.355 118.33C273.008 119.01 273.511 119.84 273.865 120.819C274.246 121.771 274.436 122.804 274.436 123.92C274.436 124.491 274.232 124.776 273.824 124.776H262.196ZM269.662 123.348C270.043 123.348 270.261 123.212 270.315 122.94C270.37 122.668 270.397 122.342 270.397 121.961C270.397 121.39 270.302 120.846 270.111 120.329C269.948 119.785 269.703 119.309 269.377 118.901C269.05 118.493 268.656 118.167 268.194 117.922C267.731 117.677 267.201 117.555 266.602 117.555C265.868 117.555 265.229 117.691 264.685 117.963C264.168 118.208 263.719 118.548 263.338 118.983C262.985 119.391 262.713 119.88 262.522 120.452C262.332 121.023 262.196 121.621 262.114 122.247C262.06 122.573 262.033 122.845 262.033 123.063C262.06 123.253 262.128 123.348 262.237 123.348H269.662Z" fill="#8CA1C6"/>
</svg>
