<svg width="276" height="69" viewBox="0 0 276 69" fill="none" xmlns="http://www.w3.org/2000/svg">
<path fill-rule="evenodd" clip-rule="evenodd" d="M34.2856 38.1807C44.6138 38.1807 52.9864 29.8081 52.9864 19.48C52.9864 9.15181 44.6138 0.779198 34.2856 0.779198C23.9575 0.779198 15.5849 9.15181 15.5849 19.48C15.5849 29.8081 23.9575 38.1807 34.2856 38.1807ZM34.2856 38.9599C45.0441 38.9599 53.7656 30.2384 53.7656 19.48C53.7656 8.72147 45.0441 0 34.2856 0C23.5271 0 14.8057 8.72147 14.8057 19.48C14.8057 30.2384 23.5271 38.9599 34.2856 38.9599Z" fill="#8CA1C6"/>
<path fill-rule="evenodd" clip-rule="evenodd" d="M61.0094 38.457L34.5625 12.0102L8.11564 38.457L34.5625 64.9039L61.0094 38.457ZM34.5625 10.9082L7.01368 38.457L34.5625 66.0058L62.1113 38.457L34.5625 10.9082Z" fill="#8CA1C6"/>
<path fill-rule="evenodd" clip-rule="evenodd" d="M70.907 38.9608L-6.81197e-08 38.9608L0 38.1816L70.907 38.1816L70.907 38.9608Z" fill="#8CA1C6"/>
<path d="M97.5542 18.3994H86.5822V23.4669C86.5822 25.12 86.6236 26.2047 86.7062 26.7213C86.7889 27.2276 86.9955 27.6046 87.3261 27.8526C87.667 28.1006 88.3076 28.2245 89.2477 28.2245H89.7901V28.9374H80.3369V28.2245H80.8793C81.7781 28.2245 82.398 28.1109 82.739 27.8836C83.0902 27.6563 83.3124 27.305 83.4053 26.8298C83.5087 26.3442 83.5603 25.2233 83.5603 23.4669V13.1614C83.5603 11.4877 83.5087 10.4081 83.4053 9.92247C83.3124 9.4369 83.1057 9.10113 82.7855 8.91516C82.4755 8.7292 81.7885 8.63622 80.7243 8.63622H80.3369V7.92335H89.7901V8.63622H89.4027C88.3799 8.63622 87.7084 8.72403 87.3881 8.89967C87.0678 9.06497 86.8509 9.38008 86.7372 9.84499C86.6339 10.3099 86.5822 11.4154 86.5822 13.1614V17.3301H97.5542V13.1614C97.5542 11.4877 97.5077 10.4081 97.4147 9.92247C97.3217 9.4369 97.1151 9.10113 96.7948 8.91516C96.4849 8.7292 95.7978 8.63622 94.7337 8.63622H94.1758V7.92335H103.738V8.63622H103.428C102.394 8.63622 101.718 8.72403 101.397 8.89967C101.077 9.06497 100.86 9.38008 100.747 9.84499C100.643 10.3099 100.592 11.4154 100.592 13.1614V23.4669C100.592 25.12 100.628 26.2047 100.7 26.7213C100.783 27.2276 100.995 27.6046 101.335 27.8526C101.676 28.1006 102.317 28.2245 103.257 28.2245H103.738V28.9374H94.1758V28.2245H94.9042C95.7927 28.2245 96.4074 28.1109 96.7483 27.8836C97.0996 27.6563 97.3217 27.305 97.4147 26.8298C97.5077 26.3442 97.5542 25.2233 97.5542 23.4669V18.3994Z" fill="#8CA1C6"/>
<path d="M107.587 22.5681C107.587 20.6258 108.238 19.0038 109.54 17.702C110.841 16.3899 112.443 15.7339 114.344 15.7339C116.255 15.7339 117.862 16.3899 119.163 17.702C120.465 19.0141 121.116 20.6361 121.116 22.5681C121.116 24.7067 120.455 26.3907 119.132 27.6201C117.81 28.8393 116.214 29.4488 114.344 29.4488C112.474 29.4488 110.878 28.8289 109.555 27.5892C108.243 26.3391 107.587 24.6654 107.587 22.5681ZM110.16 22.6456C110.16 24.8978 110.526 26.4785 111.26 27.3877C111.993 28.2865 113.021 28.7359 114.344 28.7359C115.697 28.7359 116.73 28.2865 117.443 27.3877C118.166 26.4785 118.528 24.8978 118.528 22.6456C118.528 20.414 118.171 18.823 117.459 17.8725C116.746 16.922 115.707 16.4467 114.344 16.4467C112.99 16.4467 111.952 16.922 111.229 17.8725C110.516 18.8126 110.16 20.4037 110.16 22.6456Z" fill="#8CA1C6"/>
<path d="M128.731 7.62891V24.5827C128.731 25.9361 128.747 26.7885 128.778 27.1397C128.819 27.491 128.969 27.7596 129.227 27.9456C129.485 28.1316 129.945 28.2245 130.606 28.2245H130.978V28.9374H124.191V28.2245H124.624C125.244 28.2245 125.683 28.1419 125.942 27.9766C126.21 27.8009 126.37 27.5582 126.422 27.2482C126.474 26.9383 126.5 26.0498 126.5 24.5827V12.0301C126.5 10.6973 126.381 9.86049 126.143 9.51955C125.906 9.16828 125.327 8.99265 124.408 8.99265V8.27978C125.038 8.27978 125.776 8.20746 126.624 8.06282C127.481 7.91819 128.07 7.77355 128.39 7.62891H128.731Z" fill="#8CA1C6"/>
<path d="M135.2 9.2561C135.2 8.81185 135.355 8.42959 135.665 8.10932C135.985 7.78904 136.367 7.62891 136.811 7.62891C137.256 7.62891 137.633 7.78904 137.943 8.10932C138.253 8.42959 138.408 8.81185 138.408 9.2561C138.408 9.71068 138.253 10.0981 137.943 10.4184C137.633 10.7387 137.256 10.8988 136.811 10.8988C136.367 10.8988 135.985 10.7387 135.665 10.4184C135.355 10.0981 135.2 9.71068 135.2 9.2561ZM138.191 15.7339V24.5827C138.191 25.9361 138.211 26.7885 138.253 27.1397C138.294 27.491 138.444 27.7596 138.702 27.9456C138.96 28.1316 139.42 28.2245 140.081 28.2245H140.407V28.9374H133.573V28.2245H134.099C134.833 28.2245 135.308 28.1212 135.525 27.9146C135.752 27.6976 135.882 27.4445 135.913 27.1552C135.954 26.8556 135.975 25.9981 135.975 24.5827V20.7394C135.975 19.2517 135.902 18.3426 135.758 18.012C135.623 17.6813 135.437 17.4747 135.2 17.3921C134.972 17.3094 134.569 17.2681 133.991 17.2681H133.573V16.5552C135.411 16.3693 136.837 16.0955 137.85 15.7339H138.191Z" fill="#8CA1C6"/>
<path d="M143.884 29.3403V25.1716H144.489C145.191 27.5788 146.446 28.7824 148.254 28.7824C149.04 28.7824 149.623 28.5448 150.006 28.0696C150.398 27.5943 150.595 27.0726 150.595 26.5044C150.595 25.8431 150.388 25.3007 149.975 24.8772C149.551 24.4536 148.73 23.9422 147.511 23.343C146.229 22.7127 145.31 22.0929 144.752 21.4833C144.194 20.8841 143.915 20.1454 143.915 19.2672C143.915 18.4304 144.215 17.6349 144.814 16.8807C145.413 16.1161 146.255 15.7339 147.34 15.7339C148.446 15.7339 149.36 16.1833 150.083 17.0821C150.238 16.9272 150.44 16.5501 150.687 15.9508H151.261V19.8716H150.687C150.481 18.9314 150.078 18.1256 149.479 17.4541C148.89 16.7722 148.192 16.4313 147.387 16.4313C146.767 16.4313 146.266 16.6224 145.883 17.0046C145.501 17.3869 145.31 17.8312 145.31 18.3374C145.31 18.8953 145.522 19.3757 145.945 19.7786C146.359 20.1919 147.149 20.662 148.316 21.1889C150.073 21.9844 151.147 22.7592 151.54 23.5134C151.932 24.2779 152.129 25.0115 152.129 25.714C152.129 26.8195 151.762 27.7183 151.028 28.4105C150.305 29.1027 149.391 29.4488 148.285 29.4488C147.118 29.4488 146.08 28.9684 145.171 28.0076C144.892 28.3175 144.664 28.7618 144.489 29.3403H143.884Z" fill="#8CA1C6"/>
<path d="M163.494 16.9582H159.666V24.6292C159.666 25.807 159.718 26.6025 159.821 27.0158C159.925 27.4187 160.142 27.7441 160.472 27.9921C160.813 28.24 161.175 28.364 161.557 28.364C162.301 28.364 162.947 27.9404 163.494 27.0932L163.99 27.3877C163.67 28.0696 163.195 28.5861 162.564 28.9374C161.945 29.2783 161.314 29.4488 160.674 29.4488C159.93 29.4488 159.274 29.2318 158.706 28.7979C158.148 28.3537 157.797 27.8371 157.652 27.2482C157.518 26.6593 157.45 25.6262 157.45 24.1488V16.9582H155.606V16.2453C156.453 16.2246 157.213 15.8682 157.884 15.176C158.556 14.4838 158.985 13.5126 159.171 12.2625H159.666V16.2453H163.494V16.9582Z" fill="#8CA1C6"/>
<path d="M167.762 9.2561C167.762 8.81185 167.917 8.42959 168.227 8.10932C168.547 7.78904 168.93 7.62891 169.374 7.62891C169.818 7.62891 170.195 7.78904 170.505 8.10932C170.815 8.42959 170.97 8.81185 170.97 9.2561C170.97 9.71068 170.815 10.0981 170.505 10.4184C170.195 10.7387 169.818 10.8988 169.374 10.8988C168.93 10.8988 168.547 10.7387 168.227 10.4184C167.917 10.0981 167.762 9.71068 167.762 9.2561ZM170.753 15.7339V24.5827C170.753 25.9361 170.774 26.7885 170.815 27.1397C170.856 27.491 171.006 27.7596 171.265 27.9456C171.523 28.1316 171.983 28.2245 172.644 28.2245H172.969V28.9374H166.135V28.2245H166.662C167.395 28.2245 167.871 28.1212 168.088 27.9146C168.315 27.6976 168.444 27.4445 168.475 27.1552C168.516 26.8556 168.537 25.9981 168.537 24.5827V20.7394C168.537 19.2517 168.465 18.3426 168.32 18.012C168.186 17.6813 168 17.4747 167.762 17.3921C167.535 17.3094 167.132 17.2681 166.553 17.2681H166.135V16.5552C167.974 16.3693 169.4 16.0955 170.412 15.7339H170.753Z" fill="#8CA1C6"/>
<path d="M187.295 25.838H187.977C187.274 28.2452 185.518 29.4488 182.708 29.4488C180.9 29.4488 179.376 28.8341 178.136 27.6046C176.906 26.3752 176.292 24.748 176.292 22.7231C176.292 20.6465 176.958 18.9624 178.291 17.671C179.624 16.3796 181.199 15.7339 183.018 15.7339C184.113 15.7339 185.12 15.9767 186.039 16.4622C186.959 16.9375 187.419 17.5212 187.419 18.2134C187.419 18.4717 187.331 18.7145 187.155 18.9418C186.99 19.1691 186.747 19.2827 186.427 19.2827C185.745 19.2827 185.327 18.885 185.172 18.0894C185.048 17.4902 184.856 17.0718 184.598 16.8342C184.33 16.5966 183.808 16.4777 183.033 16.4777C181.649 16.4777 180.605 16.9582 179.903 17.919C179.21 18.8798 178.864 20.3262 178.864 22.2582C178.864 24.2521 179.236 25.8122 179.98 26.9383C180.734 28.0644 181.871 28.6275 183.389 28.6275C185.435 28.6275 186.737 27.6976 187.295 25.838Z" fill="#8CA1C6"/>
<path d="M99.3983 52.7874H100.065V60.1485H99.3983C99.2124 59.3117 98.8766 58.573 98.391 57.9324C96.5417 60.0194 94.181 61.0629 91.3089 61.0629C88.2714 61.0629 85.7867 60.102 83.8548 58.1804C81.9331 56.2588 80.9723 53.7172 80.9723 50.5558C80.9723 48.4792 81.4165 46.5266 82.305 44.6979C83.1935 42.8589 84.4333 41.4952 86.0243 40.6067C87.6154 39.7182 89.3614 39.274 91.2624 39.274C92.8327 39.274 94.2533 39.5994 95.5241 40.2503C96.8052 40.8908 97.7608 41.6037 98.391 42.3889C98.8353 41.5107 99.1039 40.6015 99.1969 39.6614H99.8787L100.065 47.6269H99.3983C98.9334 44.7961 97.9829 42.828 96.5469 41.7225C95.1211 40.617 93.5094 40.0643 91.7118 40.0643C89.5112 40.0643 87.76 40.958 86.4583 42.7453C85.1668 44.5326 84.5211 47.0897 84.5211 50.4164C84.5211 53.5674 85.2288 55.985 86.6442 57.669C88.0596 59.3427 89.8211 60.1795 91.9287 60.1795C93.0549 60.1795 94.2068 59.9057 95.3846 59.3582C96.5624 58.8106 97.4922 57.886 98.1741 56.5842C98.8663 55.2721 99.2744 54.0065 99.3983 52.7874Z" fill="#8CA1C6"/>
<path d="M108.92 50.0754C109.54 49.2076 110.232 48.5567 110.996 48.1228C111.771 47.6889 112.618 47.4719 113.538 47.4719C114.581 47.4719 115.444 47.6889 116.126 48.1228C116.818 48.5567 117.268 49.0939 117.474 49.7345C117.681 50.3647 117.784 51.3927 117.784 52.8184V56.3207C117.784 57.8085 117.81 58.7125 117.862 59.0327C117.924 59.353 118.094 59.5906 118.373 59.7456C118.652 59.8902 119.168 59.9626 119.923 59.9626V60.6754H113.367V59.9626H113.662C114.416 59.9626 114.902 59.8541 115.119 59.6371C115.346 59.4202 115.475 59.167 115.506 58.8778C115.547 58.5782 115.568 57.7258 115.568 56.3207V52.5085C115.568 51.4547 115.506 50.6746 115.382 50.1684C115.258 49.6622 114.964 49.2437 114.499 48.9131C114.044 48.5825 113.471 48.4172 112.779 48.4172C111.973 48.4172 111.249 48.6549 110.609 49.1301C109.968 49.595 109.405 50.2975 108.92 51.2377V56.3207C108.92 57.7465 108.94 58.6246 108.982 58.9553C109.033 59.2859 109.194 59.539 109.462 59.7146C109.731 59.8799 110.221 59.9626 110.934 59.9626V60.6754H104.488V59.9626H104.813C105.557 59.9626 106.037 59.8592 106.254 59.6526C106.482 59.4357 106.611 59.1825 106.642 58.8933C106.683 58.5937 106.704 57.7361 106.704 56.3207V43.6751C106.704 42.394 106.58 41.583 106.332 41.2421C106.094 40.9011 105.516 40.7307 104.596 40.7307V40.0178C106.197 40.0178 107.53 39.8009 108.594 39.3669H108.92V50.0754Z" fill="#8CA1C6"/>
<path d="M124.315 40.9941C124.315 40.5499 124.47 40.1676 124.779 39.8473C125.1 39.5271 125.482 39.3669 125.926 39.3669C126.37 39.3669 126.748 39.5271 127.058 39.8473C127.367 40.1676 127.522 40.5499 127.522 40.9941C127.522 41.4487 127.367 41.8361 127.058 42.1564C126.748 42.4767 126.37 42.6368 125.926 42.6368C125.482 42.6368 125.1 42.4767 124.779 42.1564C124.47 41.8361 124.315 41.4487 124.315 40.9941ZM127.305 47.4719V56.3207C127.305 57.6742 127.326 58.5265 127.367 58.8778C127.409 59.229 127.559 59.4977 127.817 59.6836C128.075 59.8696 128.535 59.9626 129.196 59.9626H129.522V60.6754H122.687V59.9626H123.214C123.948 59.9626 124.423 59.8592 124.64 59.6526C124.867 59.4357 124.996 59.1825 125.027 58.8933C125.069 58.5937 125.089 57.7361 125.089 56.3207V52.4775C125.089 50.9898 125.017 50.0806 124.872 49.75C124.738 49.4194 124.552 49.2128 124.315 49.1301C124.087 49.0475 123.684 49.0061 123.106 49.0061H122.687V48.2933C124.526 48.1073 125.952 47.8335 126.965 47.4719H127.305Z" fill="#8CA1C6"/>
<path d="M136.997 50.7108C137.349 49.7913 137.917 49.0216 138.702 48.4017C139.498 47.7819 140.272 47.4719 141.027 47.4719C141.708 47.4719 142.246 47.6837 142.638 48.1073C143.031 48.5309 143.227 48.9648 143.227 49.409C143.227 49.7087 143.124 49.9669 142.917 50.1839C142.721 50.4009 142.478 50.5093 142.189 50.5093C141.672 50.5093 141.28 50.1271 141.011 49.3626C140.825 48.846 140.546 48.5877 140.174 48.5877C139.73 48.5877 139.198 48.8925 138.578 49.502C137.958 50.1013 137.56 50.7263 137.385 51.3772C137.209 52.0281 137.121 52.9217 137.121 54.0582V56.3207C137.121 57.6742 137.137 58.5265 137.168 58.8778C137.209 59.229 137.359 59.4977 137.617 59.6836C137.876 59.8696 138.335 59.9626 138.996 59.9626H139.43V60.6754H132.689V59.9626H133.015C133.634 59.9626 134.074 59.8799 134.332 59.7146C134.6 59.539 134.761 59.2962 134.812 58.9862C134.864 58.6763 134.89 57.7878 134.89 56.3207V52.7409C134.89 51.3772 134.869 50.5248 134.828 50.1839C134.797 49.8326 134.652 49.564 134.394 49.3781C134.136 49.1818 133.676 49.0836 133.015 49.0836H132.689V48.3862C133.66 48.2726 134.931 47.9678 136.501 47.4719C136.801 48.2881 136.966 49.3677 136.997 50.7108Z" fill="#8CA1C6"/>
<path d="M145.449 54.3061C145.449 52.3638 146.1 50.7418 147.402 49.44C148.704 48.128 150.305 47.4719 152.206 47.4719C154.118 47.4719 155.724 48.128 157.026 49.44C158.328 50.7521 158.978 52.3742 158.978 54.3061C158.978 56.4447 158.317 58.1287 156.995 59.3582C155.672 60.5773 154.076 61.1868 152.206 61.1868C150.336 61.1868 148.74 60.567 147.418 59.3272C146.106 58.0771 145.449 56.4034 145.449 54.3061ZM148.022 54.3836C148.022 56.6359 148.389 58.2166 149.122 59.1257C149.856 60.0246 150.884 60.474 152.206 60.474C153.56 60.474 154.593 60.0246 155.306 59.1257C156.029 58.2166 156.39 56.6359 156.39 54.3836C156.39 52.152 156.034 50.561 155.321 49.6105C154.608 48.66 153.57 48.1848 152.206 48.1848C150.853 48.1848 149.814 48.66 149.091 49.6105C148.378 50.5507 148.022 52.1417 148.022 54.3836Z" fill="#8CA1C6"/>
<path d="M165.648 47.4719H166.067C166.242 48.0505 166.33 48.7478 166.33 49.564C166.991 48.8615 167.699 48.3397 168.453 47.9988C169.218 47.6475 170.024 47.4719 170.871 47.4719C172.627 47.4719 174.089 48.0918 175.257 49.3316C176.424 50.561 177.008 52.1882 177.008 54.2131C177.008 56.1968 176.419 57.855 175.241 59.1877C174.074 60.5205 172.534 61.1868 170.623 61.1868C169.838 61.1868 169.084 61.0267 168.36 60.7064C167.647 60.3965 166.971 59.9316 166.33 59.3117V64.1313C166.33 65.5983 166.356 66.492 166.408 66.8123C166.47 67.1325 166.635 67.3702 166.904 67.5251C167.172 67.6904 167.673 67.7731 168.407 67.7731V68.486H161.774V67.7731H162.239C162.973 67.7731 163.448 67.6646 163.665 67.4477C163.892 67.241 164.021 66.9879 164.052 66.6883C164.093 66.399 164.114 65.5467 164.114 64.1313V52.6014C164.114 51.248 164.093 50.3957 164.052 50.0444C164.021 49.6932 163.877 49.4245 163.618 49.2386C163.36 49.0526 162.9 48.9596 162.239 48.9596H161.774V48.2468C162.797 48.1435 164.088 47.8852 165.648 47.4719ZM166.33 58.2889C166.888 58.9708 167.477 59.4873 168.097 59.8386C168.727 60.1795 169.388 60.35 170.081 60.35C171.248 60.35 172.266 59.8489 173.133 58.8468C174.001 57.8446 174.435 56.2484 174.435 54.0582C174.435 52.1572 174.017 50.7366 173.18 49.7965C172.343 48.8563 171.346 48.3862 170.189 48.3862C169.476 48.3862 168.799 48.567 168.159 48.9286C167.518 49.2902 166.909 49.8378 166.33 50.5713V58.2889Z" fill="#8CA1C6"/>
<path d="M185.15 50.7108C185.501 49.7913 186.069 49.0216 186.855 48.4017C187.65 47.7819 188.425 47.4719 189.179 47.4719C189.861 47.4719 190.398 47.6837 190.791 48.1073C191.183 48.5309 191.38 48.9648 191.38 49.409C191.38 49.7087 191.276 49.9669 191.07 50.1839C190.873 50.4009 190.631 50.5093 190.341 50.5093C189.825 50.5093 189.432 50.1271 189.164 49.3626C188.978 48.846 188.699 48.5877 188.327 48.5877C187.883 48.5877 187.35 48.8925 186.731 49.502C186.111 50.1013 185.713 50.7263 185.537 51.3772C185.362 52.0281 185.274 52.9217 185.274 54.0582V56.3207C185.274 57.6742 185.289 58.5265 185.32 58.8778C185.362 59.229 185.511 59.4977 185.77 59.6836C186.028 59.8696 186.488 59.9626 187.149 59.9626H187.583V60.6754H180.842V59.9626H181.167C181.787 59.9626 182.226 59.8799 182.484 59.7146C182.753 59.539 182.913 59.2962 182.965 58.9862C183.016 58.6763 183.042 57.7878 183.042 56.3207V52.7409C183.042 51.3772 183.022 50.5248 182.98 50.1839C182.949 49.8326 182.805 49.564 182.546 49.3781C182.288 49.1818 181.828 49.0836 181.167 49.0836H180.842V48.3862C181.813 48.2726 183.084 47.9678 184.654 47.4719C184.954 48.2881 185.119 49.3677 185.15 50.7108Z" fill="#8CA1C6"/>
<path d="M207.022 58.3509H207.596C207.503 60.1175 206.635 61.0009 204.992 61.0009C204.29 61.0009 203.732 60.8149 203.319 60.443C202.916 60.071 202.652 59.5183 202.528 58.7848C201.495 59.5183 200.55 60.071 199.692 60.443C198.845 60.8149 198.086 61.0009 197.414 61.0009C196.557 61.0009 195.818 60.7529 195.198 60.257C194.578 59.7611 194.268 59.1051 194.268 58.2889C194.268 57.2247 194.785 56.2949 195.818 55.4994C196.862 54.7039 198.298 53.929 200.126 53.1748L202.528 52.1985V51.5786C202.528 50.7005 202.472 50.0651 202.358 49.6725C202.244 49.2799 201.95 48.9286 201.475 48.6187C200.999 48.3088 200.374 48.1538 199.599 48.1538C198.05 48.1538 197.187 48.6704 197.011 49.7035C196.846 50.7573 196.412 51.2842 195.71 51.2842C195.079 51.2842 194.764 50.9846 194.764 50.3854C194.764 49.7965 195.183 49.1663 196.02 48.4947C196.856 47.8128 198.158 47.4719 199.925 47.4719C201.237 47.4719 202.255 47.6785 202.978 48.0918C203.701 48.5051 204.176 48.9751 204.403 49.502C204.641 50.0289 204.76 50.8348 204.76 51.9196V57.0491C204.76 58.2476 204.822 59.0172 204.946 59.3582C205.07 59.6991 205.338 59.8696 205.752 59.8696C206.434 59.8696 206.857 59.3633 207.022 58.3509ZM202.528 52.9269L200.839 53.6088C198.174 54.6936 196.841 56.0573 196.841 57.7C196.841 58.3509 197.011 58.8778 197.352 59.2807C197.693 59.6733 198.137 59.8696 198.685 59.8696C199.171 59.8696 199.734 59.7094 200.374 59.3892C201.015 59.0689 201.733 58.5885 202.528 57.9479V52.9269Z" fill="#8CA1C6"/>
<path d="M221.642 57.576H222.324C221.622 59.9832 219.865 61.1868 217.055 61.1868C215.247 61.1868 213.723 60.5721 212.484 59.3427C211.254 58.1132 210.64 56.4861 210.64 54.4611C210.64 52.3845 211.306 50.7005 212.639 49.409C213.971 48.1176 215.547 47.4719 217.365 47.4719C218.46 47.4719 219.468 47.7147 220.387 48.2003C221.307 48.6755 221.766 49.2592 221.766 49.9514C221.766 50.2097 221.679 50.4525 221.503 50.6798C221.338 50.9071 221.095 51.0207 220.775 51.0207C220.093 51.0207 219.674 50.623 219.519 49.8275C219.395 49.2282 219.204 48.8098 218.946 48.5722C218.677 48.3346 218.156 48.2158 217.381 48.2158C215.996 48.2158 214.953 48.6962 214.25 49.657C213.558 50.6178 213.212 52.0642 213.212 53.9962C213.212 55.9901 213.584 57.5502 214.328 58.6763C215.082 59.8024 216.218 60.3655 217.737 60.3655C219.783 60.3655 221.085 59.4357 221.642 57.576Z" fill="#8CA1C6"/>
<path d="M233.38 48.6962H229.552V56.3672C229.552 57.545 229.604 58.3405 229.707 58.7538C229.81 59.1567 230.027 59.4822 230.358 59.7301C230.699 59.9781 231.061 60.102 231.443 60.102C232.187 60.102 232.832 59.6785 233.38 58.8313L233.876 59.1257C233.556 59.8076 233.08 60.3242 232.45 60.6754C231.83 61.0164 231.2 61.1868 230.559 61.1868C229.816 61.1868 229.16 60.9699 228.591 60.536C228.033 60.0917 227.682 59.5751 227.538 58.9862C227.403 58.3974 227.336 57.3642 227.336 55.8868V48.6962H225.492V47.9833C226.339 47.9627 227.098 47.6062 227.77 46.914C228.442 46.2218 228.87 45.2507 229.056 44.0006H229.552V47.9833H233.38V48.6962Z" fill="#8CA1C6"/>
<path d="M236.703 54.3061C236.703 52.3638 237.353 50.7418 238.655 49.44C239.957 48.128 241.558 47.4719 243.459 47.4719C245.371 47.4719 246.977 48.128 248.279 49.44C249.581 50.7521 250.231 52.3742 250.231 54.3061C250.231 56.4447 249.57 58.1287 248.248 59.3582C246.925 60.5773 245.329 61.1868 243.459 61.1868C241.589 61.1868 239.993 60.567 238.671 59.3272C237.359 58.0771 236.703 56.4034 236.703 54.3061ZM239.275 54.3836C239.275 56.6359 239.642 58.2166 240.375 59.1257C241.109 60.0246 242.137 60.474 243.459 60.474C244.813 60.474 245.846 60.0246 246.559 59.1257C247.282 58.2166 247.643 56.6359 247.643 54.3836C247.643 52.152 247.287 50.561 246.574 49.6105C245.861 48.66 244.823 48.1848 243.459 48.1848C242.106 48.1848 241.068 48.66 240.344 49.6105C239.631 50.5507 239.275 52.1417 239.275 54.3836Z" fill="#8CA1C6"/>
<path d="M258.265 50.7108C258.616 49.7913 259.185 49.0216 259.97 48.4017C260.765 47.7819 261.54 47.4719 262.294 47.4719C262.976 47.4719 263.513 47.6837 263.906 48.1073C264.299 48.5309 264.495 48.9648 264.495 49.409C264.495 49.7087 264.392 49.9669 264.185 50.1839C263.989 50.4009 263.746 50.5093 263.457 50.5093C262.94 50.5093 262.548 50.1271 262.279 49.3626C262.093 48.846 261.814 48.5877 261.442 48.5877C260.998 48.5877 260.466 48.8925 259.846 49.502C259.226 50.1013 258.828 50.7263 258.653 51.3772C258.477 52.0281 258.389 52.9217 258.389 54.0582V56.3207C258.389 57.6742 258.405 58.5265 258.436 58.8778C258.477 59.229 258.627 59.4977 258.885 59.6836C259.143 59.8696 259.603 59.9626 260.264 59.9626H260.698V60.6754H253.957V59.9626H254.282C254.902 59.9626 255.341 59.8799 255.6 59.7146C255.868 59.539 256.028 59.2962 256.08 58.9862C256.132 58.6763 256.158 57.7878 256.158 56.3207V52.7409C256.158 51.3772 256.137 50.5248 256.096 50.1839C256.065 49.8326 255.92 49.564 255.662 49.3781C255.403 49.1818 254.944 49.0836 254.282 49.0836H253.957V48.3862C254.928 48.2726 256.199 47.9678 257.769 47.4719C258.069 48.2881 258.234 49.3677 258.265 50.7108Z" fill="#8CA1C6"/>
<path d="M267.756 61.0784V56.9096H268.36C269.062 59.3169 270.318 60.5205 272.126 60.5205C272.911 60.5205 273.495 60.2828 273.877 59.8076C274.27 59.3323 274.466 58.8106 274.466 58.2424C274.466 57.5812 274.259 57.0388 273.846 56.6152C273.422 56.1916 272.601 55.6802 271.382 55.081C270.101 54.4508 269.181 53.8309 268.623 53.2213C268.066 52.6221 267.787 51.8834 267.787 51.0052C267.787 50.1684 268.086 49.3729 268.685 48.6187C269.285 47.8542 270.127 47.4719 271.211 47.4719C272.317 47.4719 273.231 47.9213 273.954 48.8202C274.109 48.6652 274.311 48.2881 274.559 47.6889H275.132V51.6096H274.559C274.352 50.6695 273.949 49.8636 273.35 49.1921C272.761 48.5102 272.064 48.1693 271.258 48.1693C270.638 48.1693 270.137 48.3604 269.755 48.7427C269.372 49.1249 269.181 49.5692 269.181 50.0754C269.181 50.6333 269.393 51.1137 269.817 51.5167C270.23 51.9299 271.02 52.4 272.188 52.9269C273.944 53.7224 275.019 54.4973 275.411 55.2514C275.804 56.016 276 56.7495 276 57.452C276 58.5575 275.633 59.4563 274.9 60.1485C274.177 60.8407 273.262 61.1868 272.157 61.1868C270.989 61.1868 269.951 60.7064 269.042 59.7456C268.763 60.0555 268.536 60.4998 268.36 61.0784H267.756Z" fill="#8CA1C6"/>
</svg>
