<svg width="277" height="68" viewBox="0 0 277 68" fill="none" xmlns="http://www.w3.org/2000/svg">
<path d="M43.8213 67.2939V45.9666H50.4879C52.5015 45.9666 54.252 46.4055 55.7395 47.2834C57.227 48.1422 58.3789 49.3732 59.1953 50.9763C60.0116 52.5604 60.4197 54.4402 60.4197 56.6159C60.4197 58.7725 60.0116 60.6523 59.1953 62.2555C58.3789 63.8586 57.227 65.0991 55.7395 65.977C54.252 66.8549 52.5015 67.2939 50.4879 67.2939H43.8213ZM45.9981 65.1468H50.4879C52.0479 65.1468 53.3994 64.8033 54.5423 64.1162C55.6851 63.4101 56.5649 62.4177 57.1817 61.139C57.8166 59.8603 58.134 58.3526 58.134 56.6159C58.134 54.8792 57.8166 53.381 57.1817 52.1214C56.5468 50.8427 55.6579 49.8599 54.515 49.1728C53.3722 48.4667 52.0298 48.1136 50.4879 48.1136H45.9981V65.1468Z" fill="#8CA1C6"/>
<path d="M71.7172 67.6374C70.3567 67.6374 69.1231 67.2939 68.0166 66.6068C66.9282 65.9007 66.0665 64.9369 65.4316 63.7155C64.7967 62.494 64.4792 61.1104 64.4792 59.5645C64.4792 58.0186 64.7876 56.6541 65.4044 55.4708C66.0211 54.2685 66.8556 53.3238 67.9077 52.6367C68.978 51.9497 70.1753 51.6061 71.4995 51.6061C72.5517 51.6061 73.4859 51.8161 74.3022 52.2359C75.1367 52.6367 75.8442 53.1902 76.4246 53.8963C77.0051 54.5834 77.4496 55.3659 77.758 56.2438C78.0663 57.1026 78.2205 57.99 78.2205 58.9061C78.2205 59.0969 78.2115 59.3164 78.1933 59.5645C78.1752 59.7935 78.148 60.0321 78.1117 60.2802H65.7853V58.2763H76.9416L75.9621 59.1351C76.1253 58.0854 76.0074 57.1503 75.6083 56.3296C75.2274 55.4899 74.6741 54.8315 73.9485 54.3544C73.2229 53.8582 72.4065 53.61 71.4995 53.61C70.5925 53.61 69.749 53.8582 68.969 54.3544C68.2071 54.8506 67.6084 55.5472 67.1731 56.4441C66.7377 57.322 66.5653 58.3717 66.6561 59.5931C66.5653 60.8146 66.7468 61.8833 67.2003 62.7994C67.6719 63.6964 68.3068 64.393 69.105 64.8892C69.9213 65.3854 70.7921 65.6335 71.7172 65.6335C72.7875 65.6335 73.6854 65.3663 74.4111 64.8319C75.1367 64.2976 75.7262 63.6296 76.1797 62.828L77.9212 63.8013C77.631 64.4884 77.1865 65.1277 76.5879 65.7194C75.9893 66.2919 75.2727 66.7595 74.4383 67.1221C73.622 67.4656 72.7149 67.6374 71.7172 67.6374Z" fill="#8CA1C6"/>
<path d="M83.1792 67.2939V51.9497H85.22V54.9269L84.7575 54.8124C85.1203 53.82 85.7098 53.0375 86.5261 52.465C87.3606 51.8924 88.322 51.6061 89.4105 51.6061C90.4445 51.6061 91.3696 51.8542 92.1859 52.3504C93.0204 52.8467 93.6734 53.5337 94.1451 54.4116C94.6349 55.2704 94.8798 56.2438 94.8798 57.3316V67.2939H92.839V58.1618C92.839 57.2266 92.6757 56.4346 92.3492 55.7857C92.0408 55.1368 91.5964 54.6406 91.0159 54.2971C90.4535 53.9345 89.8005 53.7532 89.0567 53.7532C88.313 53.7532 87.6508 53.9345 87.0703 54.2971C86.4899 54.6406 86.0363 55.1464 85.7098 55.8143C85.3833 56.4632 85.22 57.2457 85.22 58.1618V67.2939H83.1792Z" fill="#8CA1C6"/>
<path d="M105.716 67.4656C104.41 67.4656 103.403 67.0649 102.696 66.2633C101.988 65.4617 101.635 64.3166 101.635 62.828V54.0967H98.9407V51.9497H99.621C100.238 51.9497 100.728 51.7397 101.09 51.3199C101.453 50.8809 101.635 50.337 101.635 49.6881V48.3999H103.675V51.9497H106.886V54.0967H103.675V62.828C103.675 63.3433 103.748 63.8013 103.893 64.2021C104.038 64.5838 104.283 64.8892 104.628 65.1182C104.991 65.3472 105.471 65.4617 106.07 65.4617C106.215 65.4617 106.387 65.4522 106.587 65.4331C106.786 65.414 106.959 65.3949 107.104 65.3758V67.2939C106.886 67.3511 106.641 67.3893 106.369 67.4084C106.097 67.4465 105.879 67.4656 105.716 67.4656Z" fill="#8CA1C6"/>
<path d="M116 67.6374C115.075 67.6374 114.249 67.4561 113.524 67.0935C112.798 66.7118 112.227 66.1965 111.809 65.5476C111.392 64.8987 111.184 64.1544 111.184 63.3147C111.184 62.5131 111.347 61.7879 111.673 61.139C112 60.471 112.508 59.908 113.197 59.45C113.886 58.992 114.766 58.6675 115.837 58.4767L121.551 57.4747V59.4214L116.326 60.3374C115.274 60.5283 114.512 60.8814 114.041 61.3967C113.587 61.9119 113.36 62.5227 113.36 63.2288C113.36 63.9159 113.614 64.4979 114.122 64.9751C114.648 65.4522 115.32 65.6907 116.136 65.6907C117.134 65.6907 118.004 65.4713 118.748 65.0323C119.492 64.5743 120.072 63.9636 120.49 63.2002C120.907 62.4368 121.115 61.5875 121.115 60.6523V56.759C121.115 55.843 120.798 55.0987 120.163 54.5261C119.528 53.9536 118.703 53.6673 117.687 53.6673C116.798 53.6673 116.018 53.9059 115.347 54.383C114.676 54.841 114.177 55.4422 113.85 56.1865L112 55.1273C112.272 54.4784 112.698 53.8868 113.279 53.3524C113.877 52.818 114.558 52.3982 115.32 52.0928C116.081 51.7684 116.871 51.6061 117.687 51.6061C118.757 51.6061 119.7 51.8256 120.517 52.2646C121.351 52.7035 121.995 53.3142 122.449 54.0967C122.92 54.8601 123.156 55.7475 123.156 56.759V67.2939H121.115V64.2308L121.415 64.5457C121.161 65.1182 120.762 65.643 120.217 66.1202C119.691 66.5782 119.066 66.9503 118.34 67.2366C117.632 67.5038 116.852 67.6374 116 67.6374Z" fill="#8CA1C6"/>
<path d="M128.714 67.2939V45.623H130.755V67.2939H128.714Z" fill="#8CA1C6"/>
<path d="M151.828 67.6374C150.395 67.6374 149.08 67.3702 147.883 66.8358C146.685 66.2824 145.642 65.519 144.753 64.5457C143.883 63.5532 143.202 62.3891 142.713 61.0531C142.223 59.7172 141.978 58.2477 141.978 56.6445C141.978 55.0414 142.223 53.5719 142.713 52.2359C143.202 50.9 143.883 49.7358 144.753 48.7434C145.642 47.751 146.685 46.9876 147.883 46.4532C149.08 45.8998 150.395 45.623 151.828 45.623C153.207 45.623 154.44 45.8807 155.529 46.396C156.635 46.9113 157.56 47.5792 158.304 48.3999C159.066 49.2015 159.61 50.0507 159.937 50.9477L157.896 51.8924C157.388 50.6519 156.608 49.6595 155.556 48.9152C154.522 48.1518 153.279 47.7701 151.828 47.7701C150.341 47.7701 149.016 48.1422 147.855 48.8866C146.694 49.6309 145.787 50.671 145.134 52.0069C144.481 53.3238 144.155 54.8696 144.155 56.6445C144.155 58.4003 144.481 59.9462 145.134 61.2821C145.787 62.6181 146.694 63.6582 147.855 64.4025C149.016 65.1277 150.341 65.4904 151.828 65.4904C153.279 65.4904 154.522 65.1182 155.556 64.3739C156.608 63.6296 157.388 62.6372 157.896 61.3967L159.937 62.3414C159.61 63.2193 159.066 64.0685 158.304 64.8892C157.56 65.6907 156.635 66.3492 155.529 66.8645C154.44 67.3798 153.207 67.6374 151.828 67.6374Z" fill="#8CA1C6"/>
<path d="M168.848 67.6374C167.923 67.6374 167.097 67.4561 166.372 67.0935C165.646 66.7118 165.075 66.1965 164.657 65.5476C164.24 64.8987 164.032 64.1544 164.032 63.3147C164.032 62.5131 164.195 61.7879 164.521 61.139C164.848 60.471 165.356 59.908 166.045 59.45C166.735 58.992 167.614 58.6675 168.685 58.4767L174.399 57.4747V59.4214L169.174 60.3374C168.122 60.5283 167.36 60.8814 166.889 61.3967C166.435 61.9119 166.208 62.5227 166.208 63.2288C166.208 63.9159 166.462 64.4979 166.97 64.9751C167.496 65.4522 168.168 65.6907 168.984 65.6907C169.982 65.6907 170.852 65.4713 171.596 65.0323C172.34 64.5743 172.92 63.9636 173.338 63.2002C173.755 62.4368 173.963 61.5875 173.963 60.6523V56.759C173.963 55.843 173.646 55.0987 173.011 54.5261C172.376 53.9536 171.551 53.6673 170.535 53.6673C169.646 53.6673 168.866 53.9059 168.195 54.383C167.524 54.841 167.025 55.4422 166.698 56.1865L164.848 55.1273C165.12 54.4784 165.546 53.8868 166.127 53.3524C166.725 52.818 167.406 52.3982 168.168 52.0928C168.93 51.7684 169.719 51.6061 170.535 51.6061C171.605 51.6061 172.549 51.8256 173.365 52.2646C174.199 52.7035 174.843 53.3142 175.297 54.0967C175.768 54.8601 176.004 55.7475 176.004 56.759V67.2939H173.963V64.2308L174.263 64.5457C174.009 65.1182 173.61 65.643 173.066 66.1202C172.539 66.5782 171.914 66.9503 171.188 67.2366C170.481 67.5038 169.7 67.6374 168.848 67.6374Z" fill="#8CA1C6"/>
<path d="M181.562 67.2939V51.9497H183.603V54.4689L183.331 54.0967C183.676 53.3715 184.193 52.7989 184.882 52.3791C185.59 51.9592 186.442 51.7493 187.44 51.7493H188.365V53.8963H187.086C186.034 53.8963 185.191 54.2398 184.556 54.9269C183.921 55.614 183.603 56.5873 183.603 57.8469V67.2939H181.562Z" fill="#8CA1C6"/>
<path d="M198.757 67.6374C197.396 67.6374 196.162 67.2939 195.056 66.6068C193.967 65.9007 193.106 64.9369 192.471 63.7155C191.836 62.494 191.519 61.1104 191.519 59.5645C191.519 58.0186 191.827 56.6541 192.444 55.4708C193.06 54.2685 193.895 53.3238 194.947 52.6367C196.017 51.9497 197.215 51.6061 198.539 51.6061C199.591 51.6061 200.525 51.8161 201.342 52.2359C202.176 52.6367 202.883 53.1902 203.464 53.8963C204.044 54.5834 204.489 55.3659 204.797 56.2438C205.106 57.1026 205.26 57.99 205.26 58.9061C205.26 59.0969 205.251 59.3164 205.233 59.5645C205.215 59.7935 205.187 60.0321 205.151 60.2802H192.825V58.2763H203.981L203.001 59.1351C203.165 58.0854 203.047 57.1503 202.648 56.3296C202.267 55.4899 201.713 54.8315 200.988 54.3544C200.262 53.8582 199.446 53.61 198.539 53.61C197.632 53.61 196.788 53.8582 196.008 54.3544C195.246 54.8506 194.648 55.5472 194.212 56.4441C193.777 57.322 193.605 58.3717 193.695 59.5931C193.605 60.8146 193.786 61.8833 194.24 62.7994C194.711 63.6964 195.346 64.393 196.144 64.8892C196.961 65.3854 197.831 65.6335 198.757 65.6335C199.827 65.6335 200.725 65.3663 201.45 64.8319C202.176 64.2976 202.766 63.6296 203.219 62.828L204.961 63.8013C204.67 64.4884 204.226 65.1277 203.627 65.7194C203.029 66.2919 202.312 66.7595 201.478 67.1221C200.661 67.4656 199.754 67.6374 198.757 67.6374Z" fill="#8CA1C6"/>
<rect x="2.59082" y="13.7793" width="16.7897" height="5.59656" fill="#8CA1C6"/>
<rect x="3.06934" y="26.1309" width="16.7897" height="5.59656" transform="rotate(-45 3.06934 26.1309)" fill="#8CA1C6"/>
<rect x="19.3789" y="13.7793" width="16.7897" height="5.59656" transform="rotate(90 19.3789 13.7793)" fill="#8CA1C6"/>
<path d="M19.3789 24.9712L19.3789 32.8064L13.7823 32.8064L13.7823 24.9712L16.5806 21.6133L19.3789 24.9712Z" fill="#8CA1C6"/>
<path d="M13.7832 8.18503L13.7832 0.349849L19.3798 0.34985L19.3798 8.18503L16.5815 11.543L13.7832 8.18503Z" fill="#8CA1C6"/>
<path d="M24.9761 13.7793L32.8113 13.7793L32.8113 19.3759L24.9761 19.3759L21.6182 16.5776L24.9761 13.7793Z" fill="#8CA1C6"/>
<path d="M8.18699 19.375L0.351803 19.375L0.351803 13.7784L8.18699 13.7784L11.5449 16.5767L8.18699 19.375Z" fill="#8CA1C6"/>
<path d="M24.4955 20.5365L30.0358 26.0768L26.0785 30.0342L20.5381 24.4939L20.1424 20.1408L24.4955 20.5365Z" fill="#8CA1C6"/>
<path d="M8.6666 12.6197L3.12629 7.07941L7.08365 3.12205L12.624 8.66236L13.0197 13.0155L8.6666 12.6197Z" fill="#8CA1C6"/>
<path d="M20.5385 8.66464L26.0788 3.12433L30.0362 7.0817L24.4958 12.622L20.1427 13.0177L20.5385 8.66464Z" fill="#8CA1C6"/>
<path d="M12.6236 24.4916L7.08332 30.0319L3.12595 26.0746L8.66626 20.5342L13.0194 20.1385L12.6236 24.4916Z" fill="#8CA1C6"/>
<path d="M45.3066 34.1767V14.8896H49.6764V19.3568L49.179 18.6123C49.5343 17.2178 50.2448 16.1778 51.3106 15.4923C52.3764 14.8069 53.6317 14.4642 55.0764 14.4642C56.6633 14.4642 58.0607 14.8778 59.2686 15.7051C60.4765 16.5323 61.2581 17.6196 61.6133 18.9668L60.2989 19.0732C60.891 17.5369 61.7791 16.3905 62.9633 15.6342C64.1476 14.8542 65.5094 14.4642 67.0489 14.4642C68.4226 14.4642 69.6423 14.7714 70.7081 15.386C71.7976 16.0005 72.6503 16.8632 73.2661 17.9741C73.8818 19.0614 74.1897 20.3259 74.1897 21.7677V34.1767H69.5358V22.8668C69.5358 22.0159 69.3818 21.2832 69.0739 20.6686C68.766 20.0541 68.3397 19.5814 67.795 19.2505C67.2502 18.8959 66.5871 18.7187 65.8055 18.7187C65.0713 18.7187 64.4199 18.8959 63.8515 19.2505C63.2831 19.5814 62.8449 20.0541 62.537 20.6686C62.2291 21.2832 62.0752 22.0159 62.0752 22.8668V34.1767H57.4212V22.8668C57.4212 22.0159 57.2673 21.2832 56.9594 20.6686C56.6515 20.0541 56.2133 19.5814 55.6449 19.2505C55.1001 18.8959 54.4488 18.7187 53.6909 18.7187C52.9567 18.7187 52.3054 18.8959 51.7369 19.2505C51.1685 19.5814 50.7304 20.0541 50.4225 20.6686C50.1146 21.2832 49.9606 22.0159 49.9606 22.8668V34.1767H45.3066Z" fill="#8CA1C6"/>
<path d="M85.7653 34.6021C84.4153 34.6021 83.2429 34.3776 82.2482 33.9285C81.2534 33.4794 80.4837 32.8412 79.9389 32.014C79.3942 31.1631 79.1218 30.1822 79.1218 29.0713C79.1218 28.0077 79.3587 27.0622 79.8324 26.2349C80.306 25.3841 81.0403 24.675 82.035 24.1077C83.0297 23.5404 84.285 23.1386 85.8008 22.9023L92.1245 21.8741V25.4195L86.689 26.3413C85.7653 26.5068 85.0784 26.8022 84.6284 27.2277C84.1784 27.6531 83.9534 28.2086 83.9534 28.894C83.9534 29.5558 84.2021 30.0876 84.6995 30.4894C85.2206 30.8676 85.86 31.0567 86.6179 31.0567C87.589 31.0567 88.4416 30.8558 89.1758 30.454C89.9337 30.0285 90.514 29.4495 90.9166 28.7167C91.343 27.984 91.5561 27.1804 91.5561 26.3059V21.3423C91.5561 20.515 91.2245 19.8296 90.5614 19.2859C89.9219 18.7187 89.0693 18.435 88.0035 18.435C87.0087 18.435 86.1206 18.7069 85.339 19.2505C84.5811 19.7705 84.0245 20.4677 83.6692 21.3423L79.8679 19.4987C80.2468 18.4823 80.8389 17.6078 81.6442 16.8751C82.4732 16.1187 83.4442 15.5278 84.5574 15.1023C85.6706 14.6769 86.8785 14.4642 88.1811 14.4642C89.768 14.4642 91.1653 14.7596 92.3732 15.3505C93.5811 15.9178 94.5167 16.7214 95.1798 17.7614C95.8667 18.7778 96.2101 19.9714 96.2101 21.3423V34.1767H91.8048V30.8794L92.7996 30.8085C92.3022 31.6358 91.7101 32.3331 91.0232 32.9003C90.3364 33.444 89.5548 33.8694 88.6785 34.1767C87.8022 34.4603 86.8311 34.6021 85.7653 34.6021Z" fill="#8CA1C6"/>
<path d="M102.288 34.1767V14.8896H106.658V19.1796L106.302 18.5414C106.752 17.0996 107.451 16.0951 108.398 15.5278C109.37 14.9605 110.53 14.6769 111.88 14.6769H113.017V18.7896H111.347C110.021 18.7896 108.955 19.2032 108.15 20.0305C107.345 20.8341 106.942 21.9686 106.942 23.4341V34.1767H102.288Z" fill="#8CA1C6"/>
<path d="M126.683 34.3894C124.504 34.3894 122.811 33.7985 121.603 32.6167C120.419 31.4113 119.826 29.7213 119.826 27.5468V19.0378H116.487V14.8896H116.842C117.79 14.8896 118.524 14.6414 119.045 14.1451C119.566 13.6487 119.826 12.9278 119.826 11.9824V10.4933H124.48V14.8896H128.921V19.0378H124.48V27.2986C124.48 27.9367 124.587 28.4804 124.8 28.9295C125.037 29.3786 125.392 29.7213 125.866 29.9576C126.363 30.194 126.991 30.3122 127.749 30.3122C127.915 30.3122 128.104 30.3004 128.317 30.2767C128.554 30.2531 128.779 30.2294 128.992 30.2058V34.1767C128.661 34.224 128.282 34.2712 127.855 34.3185C127.429 34.3658 127.038 34.3894 126.683 34.3894Z" fill="#8CA1C6"/>
<path d="M134.324 34.1767V14.8896H138.978V34.1767H134.324ZM134.324 12.7269V7.76334H138.978V12.7269H134.324Z" fill="#8CA1C6"/>
<path d="M145.052 34.1767V14.8896H149.421V18.6832L149.066 18.0096C149.516 16.8514 150.25 15.9769 151.269 15.386C152.311 14.7714 153.519 14.4642 154.893 14.4642C156.314 14.4642 157.569 14.7714 158.658 15.386C159.771 16.0005 160.636 16.8632 161.252 17.9741C161.868 19.0614 162.175 20.3259 162.175 21.7677V34.1767H157.521V22.8668C157.521 22.0159 157.356 21.2832 157.024 20.6686C156.693 20.0541 156.231 19.5814 155.639 19.2505C155.07 18.8959 154.395 18.7187 153.614 18.7187C152.856 18.7187 152.181 18.8959 151.589 19.2505C150.996 19.5814 150.535 20.0541 150.203 20.6686C149.871 21.2832 149.706 22.0159 149.706 22.8668V34.1767H145.052Z" fill="#8CA1C6"/>
<path d="M175.978 41.2675V14.8896H180.348V18.7187L179.921 17.7614C180.584 16.7214 181.484 15.9178 182.621 15.3505C183.758 14.7596 185.073 14.4642 186.565 14.4642C188.388 14.4642 190.034 14.9133 191.503 15.8114C192.971 16.7096 194.132 17.915 194.985 19.4278C195.861 20.9405 196.299 22.6423 196.299 24.5332C196.299 26.4004 195.873 28.1022 195.02 29.6385C194.167 31.1749 193.007 32.3922 191.538 33.2903C190.07 34.1649 188.4 34.6021 186.529 34.6021C185.132 34.6021 183.841 34.3303 182.657 33.7867C181.496 33.2194 180.573 32.4158 179.886 31.3758L180.632 30.454V41.2675H175.978ZM185.996 30.3476C187.062 30.3476 188.009 30.0995 188.838 29.6031C189.667 29.1067 190.307 28.4213 190.757 27.5468C191.231 26.6722 191.467 25.6677 191.467 24.5332C191.467 23.3986 191.231 22.4059 190.757 21.555C190.307 20.6805 189.667 19.995 188.838 19.4987C188.009 18.9787 187.062 18.7187 185.996 18.7187C184.978 18.7187 184.054 18.9668 183.225 19.4632C182.42 19.9596 181.78 20.6568 181.307 21.555C180.857 22.4295 180.632 23.4223 180.632 24.5332C180.632 25.6677 180.857 26.6722 181.307 27.5468C181.78 28.4213 182.42 29.1067 183.225 29.6031C184.054 30.0995 184.978 30.3476 185.996 30.3476Z" fill="#8CA1C6"/>
<path d="M201.624 34.1767V7.33789H206.278V34.1767H201.624Z" fill="#8CA1C6"/>
<path d="M218.213 34.6021C216.863 34.6021 215.69 34.3776 214.696 33.9285C213.701 33.4794 212.931 32.8412 212.386 32.014C211.842 31.1631 211.569 30.1822 211.569 29.0713C211.569 28.0077 211.806 27.0622 212.28 26.2349C212.754 25.3841 213.488 24.675 214.482 24.1077C215.477 23.5404 216.733 23.1386 218.248 22.9023L224.572 21.8741V25.4195L219.136 26.3413C218.213 26.5068 217.526 26.8022 217.076 27.2277C216.626 27.6531 216.401 28.2086 216.401 28.894C216.401 29.5558 216.65 30.0876 217.147 30.4894C217.668 30.8676 218.308 31.0567 219.065 31.0567C220.036 31.0567 220.889 30.8558 221.623 30.454C222.381 30.0285 222.961 29.4495 223.364 28.7167C223.79 27.984 224.004 27.1804 224.004 26.3059V21.3423C224.004 20.515 223.672 19.8296 223.009 19.2859C222.369 18.7187 221.517 18.435 220.451 18.435C219.456 18.435 218.568 18.7069 217.786 19.2505C217.029 19.7705 216.472 20.4677 216.117 21.3423L212.315 19.4987C212.694 18.4823 213.286 17.6078 214.092 16.8751C214.921 16.1187 215.892 15.5278 217.005 15.1023C218.118 14.6769 219.326 14.4642 220.629 14.4642C222.215 14.4642 223.613 14.7596 224.821 15.3505C226.029 15.9178 226.964 16.7214 227.627 17.7614C228.314 18.7778 228.658 19.9714 228.658 21.3423V34.1767H224.252V30.8794L225.247 30.8085C224.75 31.6358 224.158 32.3331 223.471 32.9003C222.784 33.444 222.002 33.8694 221.126 34.1767C220.25 34.4603 219.279 34.6021 218.213 34.6021Z" fill="#8CA1C6"/>
<path d="M244.043 34.6021C242.125 34.6021 240.396 34.1649 238.856 33.2903C237.341 32.3922 236.145 31.1867 235.268 29.674C234.392 28.1377 233.954 26.4122 233.954 24.4977C233.954 22.5832 234.392 20.8696 235.268 19.3568C236.145 17.8441 237.341 16.6505 238.856 15.776C240.396 14.9014 242.125 14.4642 244.043 14.4642C245.417 14.4642 246.696 14.7124 247.88 15.2087C249.064 15.6814 250.083 16.3432 250.936 17.1941C251.812 18.0214 252.439 19.0141 252.818 20.1723L248.733 21.945C248.378 20.9759 247.774 20.1959 246.921 19.605C246.092 19.0141 245.133 18.7187 244.043 18.7187C243.025 18.7187 242.113 18.9668 241.308 19.4632C240.526 19.9596 239.91 20.645 239.46 21.5195C239.01 22.3941 238.785 23.3986 238.785 24.5332C238.785 25.6677 239.01 26.6722 239.46 27.5468C239.91 28.4213 240.526 29.1067 241.308 29.6031C242.113 30.0995 243.025 30.3476 244.043 30.3476C245.157 30.3476 246.128 30.0522 246.957 29.4613C247.786 28.8704 248.378 28.0786 248.733 27.0858L252.818 28.9295C252.439 30.0167 251.824 30.9976 250.971 31.8722C250.118 32.7231 249.1 33.3967 247.916 33.893C246.732 34.3658 245.441 34.6021 244.043 34.6021Z" fill="#8CA1C6"/>
<path d="M267.292 34.6021C265.302 34.6021 263.562 34.153 262.07 33.2549C260.577 32.3567 259.417 31.1394 258.588 29.6031C257.759 28.0667 257.344 26.3649 257.344 24.4977C257.344 22.5595 257.759 20.8459 258.588 19.3568C259.441 17.8441 260.589 16.6505 262.034 15.776C263.502 14.9014 265.137 14.4642 266.937 14.4642C268.452 14.4642 269.779 14.7124 270.916 15.2087C272.076 15.7051 273.059 16.3905 273.864 17.2651C274.67 18.1396 275.285 19.1441 275.712 20.2787C276.138 21.3895 276.351 22.595 276.351 23.895C276.351 24.2259 276.327 24.5686 276.28 24.9231C276.256 25.2777 276.197 25.585 276.103 25.845H261.181V22.2995H273.474L271.271 23.9659C271.484 22.8786 271.425 21.9095 271.093 21.0586C270.785 20.2077 270.264 19.5341 269.53 19.0378C268.82 18.5414 267.955 18.2932 266.937 18.2932C265.966 18.2932 265.101 18.5414 264.343 19.0378C263.585 19.5105 263.005 20.2196 262.602 21.165C262.223 22.0868 262.081 23.2095 262.176 24.5332C262.081 25.715 262.235 26.7668 262.638 27.6886C263.064 28.5867 263.68 29.284 264.485 29.7804C265.314 30.2767 266.262 30.5249 267.327 30.5249C268.393 30.5249 269.293 30.3004 270.027 29.8513C270.785 29.4022 271.377 28.7995 271.804 28.0431L275.57 29.8867C275.191 30.8085 274.599 31.624 273.793 32.3331C272.988 33.0421 272.029 33.5976 270.916 33.9994C269.826 34.4012 268.618 34.6021 267.292 34.6021Z" fill="#8CA1C6"/>
</svg>
