<svg width="276" height="56" viewBox="0 0 276 56" fill="none" xmlns="http://www.w3.org/2000/svg">
<path d="M16.0459 27.0391C16.0459 27.6777 16.0603 28.2293 16.0891 28.6937C16.1179 29.1581 16.1468 29.6516 16.1756 30.1741L19.1599 30.6095V31.5239C18.439 31.9012 17.6317 32.2351 16.7379 32.5253C15.8729 32.8156 15.0367 33.0333 14.2293 33.1785H13.1481C12.8598 32.5108 12.6867 31.7851 12.6291 31.0014C12.5714 30.1886 12.5282 29.3033 12.4993 28.3454H12.2831C12.1677 28.9259 11.9371 29.521 11.5911 30.1306C11.2739 30.7111 10.8414 31.2336 10.2936 31.6981C9.77456 32.1625 9.15464 32.5398 8.43381 32.8301C7.71297 33.1204 6.89121 33.2655 5.96854 33.2655C4.20969 33.2655 2.76802 32.7285 1.64351 31.6545C0.547837 30.5805 0 29.1727 0 27.431C0 26.0957 0.259502 25.0072 0.778505 24.1654C1.32634 23.2946 2.11926 22.6124 3.15727 22.119C4.19528 21.6255 5.47837 21.2772 7.00655 21.074C8.53472 20.8418 10.308 20.6676 12.3263 20.5515C12.4417 19.3033 12.4705 18.1857 12.4128 17.1988C12.384 16.1828 12.2254 15.3265 11.9371 14.6299C11.6776 13.9042 11.2739 13.3527 10.7261 12.9753C10.2071 12.5689 9.51506 12.3657 8.65006 12.3657C8.24639 12.3657 7.78505 12.3948 7.26605 12.4528C6.77588 12.4818 6.28571 12.5979 5.79554 12.8011L3.76277 18.0261H2.63827C2.34993 17.1553 2.09043 16.2554 1.85976 15.3265C1.65793 14.3976 1.52818 13.4833 1.47051 12.5834C2.56618 11.9158 3.77719 11.3933 5.10353 11.0159C6.45871 10.6386 7.95805 10.4499 9.60156 10.4499C11.0721 10.4499 12.2398 10.6676 13.1048 11.103C13.9987 11.5094 14.6763 12.0464 15.1376 12.7141C15.5989 13.3817 15.9017 14.1219 16.0459 14.9347C16.19 15.7474 16.2621 16.5602 16.2621 17.373C16.2621 19.1146 16.2189 20.7982 16.1324 22.4238C16.0747 24.0203 16.0459 25.5587 16.0459 27.0391ZM7.69855 30.566C8.41939 30.566 9.05373 30.4208 9.60156 30.1306C10.1494 29.8403 10.6107 29.492 10.9856 29.0856C11.3604 28.6792 11.6632 28.2728 11.8938 27.8664C12.1245 27.431 12.2831 27.0682 12.3696 26.7779V22.2061C10.6972 22.2061 9.32764 22.2931 8.2608 22.4673C7.19396 22.6415 6.35779 22.9172 5.75229 23.2946C5.14678 23.6719 4.7287 24.1509 4.49803 24.7314C4.26736 25.283 4.15203 25.9216 4.15203 26.6473C4.15203 27.8954 4.4692 28.8679 5.10353 29.5645C5.73787 30.2322 6.60288 30.566 7.69855 30.566Z" fill="#8CA1C6"/>
<path d="M23.4798 3.04789L20.1928 2.69956V1.56749C21.0867 1.19013 22.0814 0.885339 23.1771 0.653119C24.3016 0.420898 25.3396 0.203192 26.2911 0H27.3724V15.283H27.4589C27.949 13.8026 28.7708 12.627 29.9241 11.7561C31.1063 10.8853 32.4038 10.4499 33.8167 10.4499C36.4405 10.4499 38.4444 11.3498 39.8284 13.1495C41.2413 14.9492 41.9477 17.7213 41.9477 21.4659C41.9477 25.2975 40.9818 28.2002 39.0499 30.1741C37.1469 32.148 34.3933 33.1349 30.7891 33.1349C30.0683 33.1349 29.3475 33.0769 28.6266 32.9608C27.9058 32.8737 27.2138 32.7576 26.5506 32.6124C25.8874 32.4673 25.2819 32.2931 24.7341 32.0899C24.2151 31.8867 23.797 31.6835 23.4798 31.4803V3.04789ZM32.6489 13.1495C31.2649 13.1495 30.1404 13.6284 29.2754 14.5863C28.4104 15.5152 27.776 16.7053 27.3724 18.1567V30.3047C27.8914 30.595 28.5257 30.8272 29.2754 31.0014C30.025 31.1465 30.818 31.2191 31.6541 31.2191C33.5572 31.2191 35.0565 30.3918 36.1522 28.7372C37.2478 27.0536 37.7957 24.6299 37.7957 21.4659C37.7957 20.3338 37.6948 19.2598 37.4929 18.2438C37.3199 17.2278 37.0172 16.3425 36.5847 15.5878C36.181 14.8331 35.6476 14.238 34.9844 13.8026C34.3501 13.3672 33.5716 13.1495 32.6489 13.1495Z" fill="#8CA1C6"/>
<path d="M45.4909 21.8577C45.4909 20.029 45.7215 18.418 46.1829 17.0246C46.673 15.6023 47.365 14.4122 48.2589 13.4543C49.1527 12.4673 50.2195 11.7271 51.4594 11.2337C52.7281 10.7112 54.1265 10.4499 55.6547 10.4499C57.4423 10.4499 58.9849 10.7257 60.2824 11.2772C61.58 11.8287 62.6324 12.6125 63.4397 13.6284C64.2759 14.6154 64.8814 15.8055 65.2562 17.1988C65.6599 18.5921 65.8617 20.1451 65.8617 21.8577C65.8617 25.5152 64.9391 28.3309 63.0937 30.3047C61.2484 32.2786 58.7687 33.2655 55.6547 33.2655C53.9247 33.2655 52.4253 33.0043 51.1566 32.4818C49.888 31.9303 48.8355 31.161 47.9994 30.1741C47.1632 29.1581 46.5289 27.9535 46.0964 26.5602C45.6927 25.1378 45.4909 23.5703 45.4909 21.8577ZM49.6429 21.8577C49.6429 23.164 49.7582 24.3976 49.9889 25.5587C50.2484 26.7198 50.6376 27.7358 51.1566 28.6066C51.7045 29.4484 52.4109 30.1161 53.2759 30.6095C54.1409 31.103 55.1789 31.3497 56.3899 31.3497C57.9469 31.3497 59.2156 30.5805 60.1959 29.042C61.2051 27.5036 61.7097 25.1088 61.7097 21.8577C61.7097 20.5225 61.58 19.2888 61.3205 18.1567C61.0898 16.9956 60.7149 15.9942 60.1959 15.1524C59.6769 14.2815 59.0138 13.5994 58.2064 13.1059C57.3991 12.6125 56.4332 12.3657 55.3087 12.3657C53.6075 12.3657 52.2379 13.135 51.1999 14.6734C50.1619 16.2119 49.6429 18.6066 49.6429 21.8577Z" fill="#8CA1C6"/>
<path d="M70.9538 24.1219C70.9538 22.2931 70.997 20.5079 71.0835 18.7663C71.17 16.9956 71.2133 15.2394 71.2133 13.4978L68.3588 13.1495V12.0174C69.2814 11.6691 70.2185 11.3643 71.17 11.103C72.1504 10.8418 73.1019 10.6241 74.0245 10.4499H75.1058C75.1058 12.627 75.0625 14.7895 74.976 16.9376C74.8895 19.0856 74.8463 21.2191 74.8463 23.3381C74.8463 24.4702 74.904 25.4862 75.0193 26.386C75.1635 27.2859 75.3941 28.0406 75.7113 28.6502C76.0573 29.2597 76.5186 29.7387 77.0953 30.087C77.672 30.4063 78.4072 30.566 79.3011 30.566C80.5986 30.566 81.6799 30.1015 82.5449 29.1727C83.4387 28.2147 84.1307 26.9811 84.6209 25.4716V13.4978L81.8096 13.1495V12.0174C82.7034 11.6691 83.6261 11.3643 84.5776 11.103C85.558 10.8418 86.5095 10.6241 87.4321 10.4499H88.5134V30.2612L91.3679 30.6095V31.5239C90.5317 31.9012 89.6811 32.2351 88.8161 32.5253C87.98 32.8156 87.1005 33.0333 86.1779 33.1785H85.0966L84.7939 27.997H84.6209C84.4767 28.6066 84.2172 29.2307 83.8424 29.8693C83.4964 30.4789 83.035 31.0449 82.4584 31.5674C81.8817 32.0609 81.2185 32.4673 80.4688 32.7866C79.748 33.1059 78.9551 33.2655 78.0901 33.2655C76.9367 33.2655 75.9131 33.1204 75.0193 32.8301C74.1543 32.5689 73.419 32.0899 72.8135 31.3933C72.208 30.6966 71.7467 29.7677 71.4295 28.6066C71.1124 27.4165 70.9538 25.9216 70.9538 24.1219Z" fill="#8CA1C6"/>
<path d="M93.1074 12.0174C94.2031 11.3207 95.3564 10.8273 96.5674 10.537V6.83598C96.9422 6.54571 97.3747 6.26994 97.8649 6.0087C98.3839 5.71842 98.8885 5.47169 99.3787 5.26849H100.46V10.9724H106.947V13.1495H100.46V25.7764C100.46 27.5181 100.734 28.7518 101.282 29.4774C101.83 30.2031 102.651 30.566 103.747 30.566C104.266 30.566 104.915 30.537 105.693 30.4789C106.472 30.3918 107.135 30.2467 107.683 30.0435L107.985 30.6966C107.755 30.9579 107.423 31.2336 106.991 31.5239C106.587 31.8142 106.111 32.0899 105.563 32.3512C105.044 32.6124 104.468 32.8301 103.833 33.0043C103.199 33.1785 102.55 33.2655 101.887 33.2655C100.157 33.2655 98.8308 32.7721 97.9082 31.7851C97.0143 30.7982 96.5674 29.2017 96.5674 26.9956V13.1495H93.1074V12.0174Z" fill="#8CA1C6"/>
<path d="M168.29 27.7793C168.29 26.9666 168.03 26.2844 167.511 25.7329C167.021 25.1523 166.387 24.6153 165.608 24.1219C164.83 23.6284 163.994 23.1494 163.1 22.685C162.235 22.2206 161.413 21.6836 160.635 21.074C159.856 20.4354 159.207 19.7097 158.688 18.8969C158.198 18.0841 157.953 17.0827 157.953 15.8926C157.953 15.1088 158.126 14.3831 158.472 13.7155C158.847 13.0479 159.337 12.4818 159.943 12.0174C160.548 11.5239 161.255 11.1466 162.062 10.8853C162.869 10.595 163.734 10.4499 164.657 10.4499C166.214 10.4499 167.483 10.537 168.463 10.7112C169.472 10.8853 170.438 11.1321 171.361 11.4514C171.245 12.3802 171.101 13.3236 170.928 14.2815C170.784 15.2104 170.568 16.1683 170.279 17.1553H169.198L167.555 12.7141C167.209 12.5689 166.819 12.4818 166.387 12.4528C165.954 12.3948 165.507 12.3657 165.046 12.3657C164.527 12.3657 164.066 12.4673 163.662 12.6705C163.287 12.8447 162.956 13.0769 162.667 13.3672C162.408 13.6574 162.206 13.9913 162.062 14.3686C161.918 14.746 161.846 15.1233 161.846 15.5007C161.846 16.2844 162.091 16.9666 162.581 17.5471C163.1 18.0987 163.749 18.6212 164.527 19.1146C165.306 19.5791 166.127 20.0435 166.992 20.5079C167.886 20.9724 168.722 21.4949 169.501 22.0754C170.279 22.656 170.914 23.3381 171.404 24.1219C171.923 24.8766 172.182 25.791 172.182 26.865C172.182 27.8519 171.966 28.7372 171.534 29.521C171.13 30.3047 170.553 30.9724 169.804 31.5239C169.083 32.0754 168.232 32.4963 167.252 32.7866C166.3 33.1059 165.277 33.2655 164.181 33.2655C162.941 33.2655 161.802 33.1494 160.764 32.9172C159.726 32.714 158.645 32.4092 157.521 32.0028C157.578 30.9578 157.708 29.9564 157.91 28.9985C158.112 28.0116 158.371 27.0682 158.688 26.1683H159.77L161.673 30.9143C161.99 31.1465 162.365 31.2772 162.797 31.3062C163.258 31.3352 163.677 31.3497 164.051 31.3497C165.32 31.3497 166.344 31.0014 167.122 30.3047C167.901 29.6081 168.29 28.7663 168.29 27.7793Z" fill="#8CA1C6"/>
<path d="M197.943 32.743H188.687V31.6545C188.976 31.4803 189.322 31.3062 189.725 31.132C190.158 30.9288 190.663 30.7547 191.239 30.6095V20.5515C191.239 19.3904 191.182 18.3454 191.066 17.4165C190.98 16.4876 190.792 15.7184 190.504 15.1088C190.244 14.4702 189.855 13.9913 189.336 13.672C188.817 13.3236 188.14 13.1495 187.303 13.1495C186.669 13.1495 186.078 13.2801 185.53 13.5413C185.011 13.8026 184.535 14.1509 184.103 14.5863C183.699 15.0217 183.339 15.5152 183.022 16.0667C182.733 16.6183 182.503 17.1988 182.33 17.8084V30.6095C182.791 30.7547 183.224 30.9143 183.627 31.0885C184.06 31.2336 184.478 31.4223 184.881 31.6545V32.743H175.583V31.6545C175.986 31.4513 176.433 31.2626 176.923 31.0885C177.414 30.9143 177.918 30.7547 178.437 30.6095V13.4978L175.583 13.1495V12.0174C176.505 11.611 177.442 11.2917 178.394 11.0595C179.374 10.7982 180.326 10.595 181.248 10.4499H182.33V15.3701H182.373C182.834 14.0058 183.613 12.8447 184.708 11.8868C185.833 10.9289 187.217 10.4499 188.86 10.4499C189.552 10.4499 190.216 10.5225 190.85 10.6676C191.484 10.8128 192.075 11.0885 192.623 11.4949C193.171 11.8723 193.632 12.4093 194.007 13.1059C194.382 13.8026 194.656 14.7024 194.829 15.8055C195.348 14.209 196.184 12.9172 197.338 11.9303C198.491 10.9434 199.933 10.4499 201.663 10.4499C202.729 10.4499 203.652 10.595 204.431 10.8853C205.238 11.1466 205.901 11.6255 206.42 12.3222C206.939 13.0188 207.314 13.9622 207.545 15.1524C207.804 16.3425 207.934 17.8519 207.934 19.6807V30.6095C208.914 30.7837 209.866 31.132 210.788 31.6545V32.743H201.49V31.6545C202.355 31.1901 203.205 30.8417 204.041 30.6095V19.7677C204.041 18.7227 203.984 17.7939 203.868 16.9811C203.782 16.1683 203.594 15.4862 203.306 14.9347C203.018 14.3541 202.614 13.9187 202.095 13.6284C201.576 13.3091 200.884 13.1495 200.019 13.1495C198.635 13.1495 197.554 13.6284 196.775 14.5863C196.026 15.5442 195.478 16.7634 195.132 18.2438V30.6095C196.141 30.8998 197.078 31.2481 197.943 31.6545V32.743Z" fill="#8CA1C6"/>
<path d="M222.954 32.743H213.352V31.6545C213.785 31.4223 214.232 31.2336 214.693 31.0885C215.154 30.9143 215.659 30.7547 216.207 30.6095V13.4978L213.352 13.1495V12.0174C214.188 11.6691 215.097 11.3643 216.077 11.103C217.057 10.8418 218.038 10.6241 219.018 10.4499H220.099V30.6095C220.676 30.7547 221.195 30.9143 221.656 31.0885C222.118 31.2336 222.55 31.4223 222.954 31.6545V32.743ZM215.385 3.57039C215.385 2.78664 215.63 2.16255 216.12 1.69811C216.639 1.23367 217.317 1.00145 218.153 1.00145C218.989 1.00145 219.652 1.23367 220.143 1.69811C220.633 2.16255 220.878 2.78664 220.878 3.57039C220.878 4.35413 220.633 4.97822 220.143 5.44266C219.652 5.87807 218.989 6.09578 218.153 6.09578C217.317 6.09578 216.639 5.87807 216.12 5.44266C215.63 4.97822 215.385 4.35413 215.385 3.57039Z" fill="#8CA1C6"/>
<path d="M235.963 32.743H226.361V31.6545C227.313 31.1901 228.264 30.8417 229.216 30.6095V3.04789L225.929 2.69956V1.56749C226.678 1.21916 227.615 0.914366 228.74 0.653119C229.864 0.391871 230.96 0.174165 232.027 0H233.108V30.6095C234.06 30.8417 235.011 31.1901 235.963 31.6545V32.743Z" fill="#8CA1C6"/>
<path d="M256.886 29.6952C256.656 30.1886 256.295 30.6531 255.805 31.0885C255.315 31.5239 254.753 31.9012 254.118 32.2205C253.484 32.5399 252.792 32.7866 252.042 32.9608C251.293 33.1639 250.529 33.2655 249.75 33.2655C248.049 33.2655 246.55 33.0043 245.252 32.4818C243.955 31.9303 242.873 31.161 242.008 30.1741C241.143 29.1581 240.48 27.9535 240.019 26.5602C239.586 25.1669 239.37 23.5994 239.37 21.8577C239.37 18.1422 240.221 15.312 241.922 13.3672C243.623 11.4223 246.031 10.4499 249.145 10.4499C250.154 10.4499 251.149 10.595 252.129 10.8853C253.109 11.1466 253.974 11.5965 254.724 12.2351C255.502 12.8737 256.122 13.73 256.584 14.804C257.074 15.849 257.319 17.1553 257.319 18.7228C257.319 19.2162 257.29 19.7242 257.232 20.2467C257.204 20.7402 257.131 21.2772 257.016 21.8577H243.522C243.522 23.0769 243.666 24.2235 243.955 25.2975C244.272 26.3425 244.733 27.2568 245.339 28.0406C245.944 28.8243 246.708 29.4484 247.631 29.9129C248.554 30.3483 249.635 30.566 250.875 30.566C251.884 30.566 252.907 30.4208 253.945 30.1306C254.983 29.8403 255.762 29.4629 256.281 28.9985L256.886 29.6952ZM248.972 12.3657C247.328 12.3657 246.074 12.9318 245.209 14.0638C244.344 15.1669 243.825 17.1262 243.652 19.9419H253.167C253.196 19.6807 253.21 19.4339 253.21 19.2017C253.239 18.9405 253.253 18.6937 253.253 18.4615C253.253 16.6037 252.907 15.1233 252.215 14.0203C251.523 12.9172 250.442 12.3657 248.972 12.3657Z" fill="#8CA1C6"/>
<path d="M272.107 27.7793C272.107 26.9666 271.848 26.2844 271.329 25.7329C270.839 25.1523 270.204 24.6153 269.426 24.1219C268.647 23.6284 267.811 23.1494 266.917 22.685C266.052 22.2206 265.231 21.6836 264.452 21.074C263.674 20.4354 263.025 19.7097 262.506 18.8969C262.016 18.0841 261.771 17.0827 261.771 15.8926C261.771 15.1088 261.944 14.3831 262.29 13.7155C262.664 13.0479 263.155 12.4818 263.76 12.0174C264.366 11.5239 265.072 11.1466 265.879 10.8853C266.687 10.595 267.552 10.4499 268.474 10.4499C270.031 10.4499 271.3 10.537 272.28 10.7112C273.29 10.8853 274.256 11.1321 275.178 11.4514C275.063 12.3802 274.919 13.3236 274.746 14.2815C274.602 15.2104 274.385 16.1683 274.097 17.1553H273.016L271.372 12.7141C271.026 12.5689 270.637 12.4818 270.204 12.4528C269.772 12.3948 269.325 12.3657 268.864 12.3657C268.345 12.3657 267.883 12.4673 267.48 12.6705C267.105 12.8447 266.773 13.0769 266.485 13.3672C266.225 13.6574 266.024 13.9913 265.879 14.3686C265.735 14.746 265.663 15.1233 265.663 15.5007C265.663 16.2844 265.908 16.9666 266.398 17.5471C266.917 18.0987 267.566 18.6212 268.345 19.1146C269.123 19.5791 269.945 20.0435 270.81 20.5079C271.704 20.9724 272.54 21.4949 273.318 22.0754C274.097 22.656 274.731 23.3381 275.221 24.1219C275.74 24.8766 276 25.791 276 26.865C276 27.8519 275.784 28.7372 275.351 29.521C274.948 30.3047 274.371 30.9724 273.621 31.5239C272.9 32.0754 272.05 32.4963 271.069 32.7866C270.118 33.1059 269.094 33.2655 267.999 33.2655C266.759 33.2655 265.62 33.1494 264.582 32.9172C263.544 32.714 262.463 32.4092 261.338 32.0028C261.396 30.9578 261.526 29.9564 261.727 28.9985C261.929 28.0116 262.189 27.0682 262.506 26.1683H263.587L265.49 30.9143C265.807 31.1465 266.182 31.2772 266.615 31.3062C267.076 31.3352 267.494 31.3497 267.869 31.3497C269.138 31.3497 270.161 31.0014 270.94 30.3047C271.718 29.6081 272.107 28.7663 272.107 27.7793Z" fill="#8CA1C6"/>
<path d="M161.384 54.9289H158.588L158.605 54.0533H161.384C162.271 54.0533 163.033 53.8588 163.671 53.4696C164.315 53.0749 164.812 52.5302 165.163 51.8353C165.513 51.1404 165.688 50.3343 165.688 49.4171V48.283C165.688 47.5826 165.586 46.9488 165.383 46.3818C165.185 45.8148 164.9 45.3311 164.527 44.9309C164.154 44.5251 163.708 44.2138 163.188 43.997C162.674 43.7802 162.098 43.6718 161.46 43.6718H158.537V42.7879H161.46C162.228 42.7879 162.931 42.9185 163.57 43.1798C164.214 43.4355 164.77 43.808 165.239 44.2972C165.713 44.7808 166.078 45.3617 166.332 46.0399C166.592 46.7181 166.721 47.4742 166.721 48.308V49.4171C166.721 50.2509 166.592 51.007 166.332 51.6852C166.078 52.3634 165.713 52.9443 165.239 53.4279C164.764 53.9116 164.202 54.284 163.553 54.5453C162.903 54.801 162.18 54.9289 161.384 54.9289ZM159.054 42.7879V54.9289H158.012V42.7879H159.054Z" fill="#8CA1C6"/>
<path d="M177.05 54.0533V54.9289H170.111V54.0533H177.05ZM170.424 42.7879V54.9289H169.382V42.7879H170.424ZM176.185 48.233V49.1085H170.111V48.233H176.185ZM177.007 42.7879V43.6718H170.111V42.7879H177.007Z" fill="#8CA1C6"/>
<path d="M188.445 42.7879V54.9289H187.395L180.303 44.5557V54.9289H179.261V42.7879H180.303L187.411 53.1611V42.7879H188.445Z" fill="#8CA1C6"/>
<path d="M195.477 42.7879V54.9289H194.444V42.7879H195.477ZM199.705 42.7879V43.6718H190.224V42.7879H199.705Z" fill="#8CA1C6"/>
<path d="M205.085 43.5133L200.815 54.9289H199.731L204.39 42.7879H205.145L205.085 43.5133ZM208.966 54.9289L204.687 43.5133L204.628 42.7879H205.382L210.05 54.9289H208.966ZM208.203 50.6428V51.5267H201.654V50.6428H208.203Z" fill="#8CA1C6"/>
<path d="M219.014 54.0533V54.9289H212.617V54.0533H219.014ZM212.922 42.7879V54.9289H211.88V42.7879H212.922Z" fill="#8CA1C6"/>
<path d="M232.951 51.1432H233.994C233.909 51.9603 233.68 52.6664 233.307 53.2612C232.934 53.8504 232.426 54.3035 231.782 54.6204C231.138 54.9372 230.362 55.0957 229.452 55.0957C228.752 55.0957 228.116 54.965 227.546 54.7038C226.981 54.4425 226.495 54.0728 226.089 53.5947C225.682 53.1111 225.368 52.5329 225.148 51.8603C224.928 51.1876 224.818 50.4399 224.818 49.6172V48.0996C224.818 47.2768 224.928 46.5319 225.148 45.8648C225.368 45.1922 225.685 44.614 226.097 44.1304C226.509 43.6467 227.004 43.2743 227.58 43.013C228.156 42.7517 228.806 42.6211 229.528 42.6211C230.404 42.6211 231.161 42.7795 231.799 43.0964C232.437 43.4077 232.94 43.858 233.307 44.4473C233.68 45.0365 233.909 45.7481 233.994 46.5819H232.951C232.872 45.926 232.697 45.3701 232.426 44.9142C232.155 44.4584 231.779 44.1109 231.299 43.8719C230.825 43.6273 230.235 43.505 229.528 43.505C228.952 43.505 228.438 43.6134 227.986 43.8302C227.535 44.047 227.151 44.3583 226.834 44.7641C226.518 45.1644 226.275 45.6452 226.106 46.2067C225.942 46.7682 225.86 47.3936 225.86 48.0829V49.6172C225.86 50.2843 225.939 50.8986 226.097 51.46C226.255 52.0215 226.487 52.5079 226.792 52.9193C227.103 53.3307 227.481 53.6503 227.927 53.8782C228.373 54.1062 228.882 54.2201 229.452 54.2201C230.181 54.2201 230.788 54.1062 231.274 53.8782C231.765 53.6448 232.147 53.3001 232.418 52.8442C232.689 52.3884 232.867 51.8214 232.951 51.1432Z" fill="#8CA1C6"/>
<path d="M243.669 54.0533V54.9289H237.272V54.0533H243.669ZM237.577 42.7879V54.9289H236.535V42.7879H237.577Z" fill="#8CA1C6"/>
<path d="M246.957 42.7879V54.9289H245.914V42.7879H246.957Z" fill="#8CA1C6"/>
<path d="M259.496 42.7879V54.9289H258.445L251.354 44.5557V54.9289H250.312V42.7879H251.354L258.462 53.1611V42.7879H259.496Z" fill="#8CA1C6"/>
<path d="M263.919 42.7879V54.9289H262.876V42.7879H263.919Z" fill="#8CA1C6"/>
<path d="M274.958 51.1432H276C275.916 51.9603 275.687 52.6664 275.314 53.2612C274.941 53.8504 274.433 54.3035 273.789 54.6204C273.145 54.9372 272.369 55.0957 271.459 55.0957C270.759 55.0957 270.123 54.965 269.553 54.7038C268.988 54.4425 268.502 54.0728 268.096 53.5947C267.689 53.1111 267.375 52.5329 267.155 51.8603C266.935 51.1876 266.825 50.4399 266.825 49.6172V48.0996C266.825 47.2768 266.935 46.5319 267.155 45.8648C267.375 45.1922 267.692 44.614 268.104 44.1304C268.516 43.6467 269.011 43.2743 269.587 43.013C270.163 42.7517 270.812 42.6211 271.535 42.6211C272.411 42.6211 273.168 42.7795 273.806 43.0964C274.444 43.4077 274.947 43.858 275.314 44.4473C275.687 45.0365 275.916 45.7481 276 46.5819H274.958C274.879 45.926 274.704 45.3701 274.433 44.9142C274.162 44.4584 273.786 44.1109 273.306 43.8719C272.832 43.6273 272.241 43.505 271.535 43.505C270.959 43.505 270.445 43.6134 269.993 43.8302C269.542 44.047 269.157 44.3583 268.841 44.7641C268.525 45.1644 268.282 45.6452 268.112 46.2067C267.949 46.7682 267.867 47.3936 267.867 48.0829V49.6172C267.867 50.2843 267.946 50.8986 268.104 51.46C268.262 52.0215 268.494 52.5079 268.799 52.9193C269.109 53.3307 269.488 53.6503 269.934 53.8782C270.38 54.1062 270.889 54.2201 271.459 54.2201C272.188 54.2201 272.795 54.1062 273.281 53.8782C273.772 53.6448 274.153 53.3001 274.425 52.8442C274.696 52.3884 274.874 51.8214 274.958 51.1432Z" fill="#8CA1C6"/>
<path d="M133.062 33.2663C145.406 33.2663 155.412 23.2597 155.412 10.916H110.712C110.712 23.2597 120.718 33.2663 133.062 33.2663Z" fill="#8CA1C6"/>
</svg>
