<svg width="276" height="72" viewBox="0 0 276 72" fill="none" xmlns="http://www.w3.org/2000/svg">
<path d="M89.0029 27.5947V2.50781H99.8314C101.693 2.50781 103.323 2.8753 104.719 3.61026C106.115 4.34523 107.202 5.37827 107.977 6.70938C108.753 8.04048 109.141 9.59616 109.141 11.3764C109.141 13.173 108.741 14.7287 107.941 16.0435C107.148 17.3582 106.034 18.3709 104.596 19.0813C103.167 19.7918 101.497 20.147 99.5865 20.147H93.1187V14.8553H98.2145C99.0148 14.8553 99.6967 14.7164 100.26 14.4388C100.832 14.153 101.269 13.7487 101.571 13.2261C101.881 12.7034 102.036 12.0869 102.036 11.3764C102.036 10.6578 101.881 10.0453 101.571 9.539C101.269 9.02452 100.832 8.63254 100.26 8.36305C99.6967 8.0854 99.0148 7.94657 98.2145 7.94657H95.8136V27.5947H89.0029Z" fill="#8CA1C6"/>
<path d="M116.139 27.8887C114.938 27.8887 113.876 27.6927 112.954 27.3007C112.039 26.9006 111.32 26.2963 110.798 25.4878C110.275 24.6793 110.014 23.6504 110.014 22.4009C110.014 21.372 110.189 20.4941 110.541 19.7673C110.892 19.0323 111.382 18.4321 112.01 17.9666C112.639 17.5011 113.37 17.1459 114.203 16.9009C115.044 16.6559 115.951 16.4967 116.922 16.4232C117.976 16.3415 118.821 16.2435 119.458 16.1292C120.103 16.0067 120.569 15.8393 120.855 15.627C121.14 15.4065 121.283 15.1166 121.283 14.7573V14.7083C121.283 14.2183 121.095 13.8426 120.72 13.5813C120.344 13.32 119.862 13.1893 119.274 13.1893C118.629 13.1893 118.103 13.3322 117.694 13.6181C117.294 13.8957 117.053 14.3245 116.971 14.9043H110.749C110.83 13.761 111.194 12.7075 111.839 11.7439C112.492 10.7721 113.444 9.99631 114.693 9.41651C115.943 8.82853 117.502 8.53454 119.372 8.53454C120.72 8.53454 121.928 8.69379 122.998 9.01227C124.068 9.32259 124.979 9.75949 125.73 10.323C126.481 10.8783 127.053 11.5316 127.445 12.2829C127.845 13.026 128.045 13.8345 128.045 14.7083V27.5947H121.724V24.9488H121.577C121.202 25.6511 120.744 26.2187 120.205 26.6515C119.675 27.0843 119.066 27.3987 118.38 27.5947C117.702 27.7907 116.955 27.8887 116.139 27.8887ZM118.343 23.6259C118.858 23.6259 119.34 23.5197 119.789 23.3074C120.246 23.0951 120.618 22.7888 120.904 22.3887C121.189 21.9885 121.332 21.5026 121.332 20.931V19.3631C121.153 19.4366 120.961 19.506 120.757 19.5713C120.561 19.6366 120.348 19.6979 120.12 19.755C119.899 19.8122 119.662 19.8653 119.409 19.9143C119.164 19.9633 118.907 20.0082 118.637 20.049C118.115 20.1307 117.686 20.2654 117.351 20.4533C117.025 20.6329 116.78 20.8575 116.616 21.127C116.461 21.3883 116.384 21.6823 116.384 22.0089C116.384 22.5316 116.567 22.9317 116.935 23.2094C117.302 23.487 117.772 23.6259 118.343 23.6259Z" fill="#8CA1C6"/>
<path d="M131.276 27.5947V8.77953H137.842V12.3564H138.037C138.38 11.0334 138.924 10.0657 139.667 9.45325C140.418 8.84078 141.296 8.53454 142.3 8.53454C142.594 8.53454 142.884 8.55904 143.17 8.60804C143.464 8.64887 143.746 8.71012 144.015 8.79178V14.5613C143.68 14.4469 143.268 14.3612 142.778 14.304C142.288 14.2469 141.867 14.2183 141.516 14.2183C140.855 14.2183 140.259 14.3694 139.728 14.6715C139.205 14.9655 138.793 15.382 138.491 15.921C138.189 16.4518 138.037 17.0765 138.037 17.7951V27.5947H131.276Z" fill="#8CA1C6"/>
<path d="M150.599 27.8887C149.399 27.8887 148.337 27.6927 147.414 27.3007C146.5 26.9006 145.781 26.2963 145.259 25.4878C144.736 24.6793 144.475 23.6504 144.475 22.4009C144.475 21.372 144.65 20.4941 145.001 19.7673C145.352 19.0323 145.842 18.4321 146.471 17.9666C147.1 17.5011 147.831 17.1459 148.664 16.9009C149.505 16.6559 150.411 16.4967 151.383 16.4232C152.437 16.3415 153.282 16.2435 153.919 16.1292C154.564 16.0067 155.03 15.8393 155.315 15.627C155.601 15.4065 155.744 15.1166 155.744 14.7573V14.7083C155.744 14.2183 155.556 13.8426 155.181 13.5813C154.805 13.32 154.323 13.1893 153.735 13.1893C153.09 13.1893 152.563 13.3322 152.155 13.6181C151.755 13.8957 151.514 14.3245 151.432 14.9043H145.21C145.291 13.761 145.655 12.7075 146.3 11.7439C146.953 10.7721 147.904 9.99631 149.154 9.41651C150.403 8.82853 151.963 8.53454 153.833 8.53454C155.181 8.53454 156.389 8.69379 157.459 9.01227C158.529 9.32259 159.439 9.75949 160.191 10.323C160.942 10.8783 161.514 11.5316 161.906 12.2829C162.306 13.026 162.506 13.8345 162.506 14.7083V27.5947H156.185V24.9488H156.038C155.662 25.6511 155.205 26.2187 154.666 26.6515C154.135 27.0843 153.527 27.3987 152.841 27.5947C152.163 27.7907 151.416 27.8887 150.599 27.8887ZM152.804 23.6259C153.319 23.6259 153.8 23.5197 154.25 23.3074C154.707 23.0951 155.079 22.7888 155.364 22.3887C155.65 21.9885 155.793 21.5026 155.793 20.931V19.3631C155.613 19.4366 155.422 19.506 155.217 19.5713C155.021 19.6366 154.809 19.6979 154.58 19.755C154.36 19.8122 154.123 19.8653 153.87 19.9143C153.625 19.9633 153.368 20.0082 153.098 20.049C152.576 20.1307 152.147 20.2654 151.812 20.4533C151.485 20.6329 151.24 20.8575 151.077 21.127C150.922 21.3883 150.844 21.6823 150.844 22.0089C150.844 22.5316 151.028 22.9317 151.396 23.2094C151.763 23.487 152.233 23.6259 152.804 23.6259Z" fill="#8CA1C6"/>
<path d="M165.737 27.5947V8.77953H172.155V12.3564H172.351C172.743 11.1804 173.413 10.2495 174.36 9.5635C175.307 8.87753 176.434 8.53454 177.741 8.53454C179.064 8.53454 180.203 8.8857 181.159 9.588C182.114 10.2821 182.69 11.2049 182.886 12.3564H183.082C183.4 11.2049 184.078 10.2821 185.115 9.588C186.152 8.8857 187.369 8.53454 188.766 8.53454C190.57 8.53454 192.032 9.11435 193.151 10.274C194.278 11.4336 194.841 12.977 194.841 14.9043V27.5947H188.08V16.6192C188.08 15.7944 187.871 15.1492 187.455 14.6838C187.038 14.2101 186.479 13.9733 185.777 13.9733C185.083 13.9733 184.531 14.2101 184.123 14.6838C183.723 15.1492 183.523 15.7944 183.523 16.6192V27.5947H177.055V16.6192C177.055 15.7944 176.847 15.1492 176.43 14.6838C176.014 14.2101 175.454 13.9733 174.752 13.9733C174.287 13.9733 173.887 14.0795 173.552 14.2918C173.217 14.5041 172.956 14.8103 172.768 15.2105C172.588 15.6025 172.498 16.072 172.498 16.6192V27.5947H165.737Z" fill="#8CA1C6"/>
<path d="M207.241 27.9377C205.199 27.9377 203.452 27.5334 201.998 26.725C200.544 25.9084 199.43 24.7732 198.654 23.3196C197.878 21.8579 197.49 20.1634 197.49 18.2361C197.49 16.3089 197.878 14.6184 198.654 13.1648C199.43 11.7031 200.544 10.568 201.998 9.75949C203.452 8.94286 205.199 8.53454 207.241 8.53454C209.282 8.53454 211.03 8.94286 212.484 9.75949C213.937 10.568 215.052 11.7031 215.828 13.1648C216.603 14.6184 216.991 16.3089 216.991 18.2361C216.991 20.1634 216.603 21.8579 215.828 23.3196C215.052 24.7732 213.937 25.9084 212.484 26.725C211.03 27.5334 209.282 27.9377 207.241 27.9377ZM207.29 22.9399C207.861 22.9399 208.355 22.748 208.772 22.3642C209.188 21.9804 209.511 21.4332 209.74 20.7228C209.968 20.0123 210.083 19.1671 210.083 18.1871C210.083 17.199 209.968 16.3538 209.74 15.6515C209.511 14.941 209.188 14.3939 208.772 14.0101C208.355 13.6262 207.861 13.4343 207.29 13.4343C206.685 13.4343 206.167 13.6262 205.734 14.0101C205.301 14.3939 204.971 14.941 204.742 15.6515C204.513 16.3538 204.399 17.199 204.399 18.1871C204.399 19.1671 204.513 20.0123 204.742 20.7228C204.971 21.4332 205.301 21.9804 205.734 22.3642C206.167 22.748 206.685 22.9399 207.29 22.9399Z" fill="#8CA1C6"/>
<path d="M231.936 19.3631V8.77953H238.697V27.5947H232.279V24.0179H232.083C231.674 25.2183 230.96 26.1574 229.939 26.8352C228.918 27.5049 227.706 27.8397 226.301 27.8397C224.986 27.8397 223.835 27.5375 222.847 26.9332C221.867 26.3289 221.103 25.496 220.556 24.4343C220.017 23.3727 219.743 22.1559 219.735 20.784V8.77953H226.497V19.3631C226.505 20.294 226.742 21.0249 227.207 21.5557C227.681 22.0865 228.342 22.3519 229.192 22.3519C229.755 22.3519 230.241 22.2335 230.649 21.9967C231.066 21.7517 231.384 21.4087 231.605 20.9677C231.834 20.5186 231.944 19.9837 231.936 19.3631Z" fill="#8CA1C6"/>
<path d="M248.898 17.0112V27.5947H242.136V8.77953H248.555V12.3564H248.751C249.159 11.1641 249.878 10.2291 250.907 9.55125C251.944 8.87345 253.153 8.53454 254.533 8.53454C255.864 8.53454 257.019 8.84078 257.999 9.45325C258.988 10.0576 259.751 10.8905 260.29 11.9521C260.837 13.0138 261.107 14.2265 261.099 15.5902V27.5947H254.337V17.0112C254.345 16.0802 254.108 15.3493 253.626 14.8185C253.153 14.2877 252.491 14.0223 251.642 14.0223C251.087 14.0223 250.601 14.1448 250.184 14.3898C249.776 14.6266 249.462 14.9696 249.241 15.4187C249.021 15.8597 248.906 16.3905 248.898 17.0112Z" fill="#8CA1C6"/>
<path d="M275.657 8.77953V13.6793H263.261V8.77953H275.657ZM265.661 4.27173H272.423V21.5435C272.423 21.8048 272.468 22.0253 272.558 22.2049C272.648 22.3764 272.787 22.5071 272.974 22.5969C273.162 22.6786 273.403 22.7194 273.697 22.7194C273.901 22.7194 274.138 22.6949 274.408 22.6459C274.685 22.5969 274.889 22.5561 275.02 22.5234L276 27.2762C275.698 27.366 275.265 27.4763 274.702 27.6069C274.146 27.7376 273.485 27.8234 272.717 27.8642C271.166 27.9458 269.863 27.7866 268.81 27.3865C267.756 26.9781 266.964 26.3371 266.433 25.4633C265.902 24.5895 265.645 23.4952 265.661 22.1804V4.27173Z" fill="#8CA1C6"/>
<path d="M98.6555 68.9881H89.0029V43.9012H98.5575C101.138 43.9012 103.367 44.4034 105.246 45.4079C107.132 46.4041 108.586 47.8414 109.607 49.7197C110.635 51.5897 111.15 53.8314 111.15 56.4446C111.15 59.0578 110.64 61.3036 109.619 63.1818C108.598 65.0519 107.153 66.4892 105.282 67.4936C103.412 68.4899 101.203 68.9881 98.6555 68.9881ZM95.8136 63.2063H98.4105C99.6518 63.2063 100.709 63.0062 101.583 62.6061C102.465 62.2059 103.135 61.5159 103.592 60.5359C104.058 59.556 104.29 58.1922 104.29 56.4446C104.29 54.697 104.053 53.3332 103.58 52.3533C103.114 51.3733 102.428 50.6833 101.522 50.2831C100.624 49.883 99.5211 49.6829 98.2145 49.6829H95.8136V63.2063Z" fill="#8CA1C6"/>
<path d="M123.415 69.331C121.406 69.331 119.675 68.9472 118.221 68.1796C116.776 67.4038 115.661 66.2932 114.877 64.8477C114.101 63.3941 113.713 61.6547 113.713 59.6295C113.713 57.6859 114.105 55.9873 114.889 54.5337C115.673 53.0801 116.78 51.9491 118.209 51.1406C119.638 50.3321 121.324 49.9279 123.268 49.9279C124.689 49.9279 125.975 50.1484 127.126 50.5894C128.278 51.0303 129.262 51.6714 130.078 52.5125C130.895 53.3455 131.524 54.3581 131.965 55.5504C132.406 56.7427 132.626 58.086 132.626 59.5805V61.1484H115.82V57.4246H126.404C126.395 56.8856 126.257 56.4119 125.987 56.0036C125.726 55.5871 125.371 55.2646 124.921 55.0359C124.48 54.7991 123.978 54.6807 123.415 54.6807C122.868 54.6807 122.365 54.7991 121.908 55.0359C121.451 55.2646 121.083 55.5831 120.806 55.9914C120.536 56.3997 120.393 56.8774 120.377 57.4246V61.4424C120.377 62.0467 120.503 62.5857 120.757 63.0593C121.01 63.533 121.373 63.9045 121.847 64.174C122.32 64.4435 122.892 64.5782 123.562 64.5782C124.027 64.5782 124.452 64.5129 124.836 64.3823C125.228 64.2516 125.562 64.0638 125.84 63.8188C126.118 63.5656 126.322 63.2635 126.453 62.9123H132.626C132.414 64.2189 131.912 65.354 131.12 66.3177C130.327 67.2731 129.278 68.0163 127.972 68.5471C126.673 69.0697 125.154 69.331 123.415 69.331Z" fill="#8CA1C6"/>
<path d="M142.147 58.4045V68.9881H135.385V50.1729H141.804V53.7497H142C142.409 52.5575 143.127 51.6224 144.156 50.9446C145.193 50.2668 146.402 49.9279 147.782 49.9279C149.113 49.9279 150.269 50.2341 151.249 50.8466C152.237 51.4509 153 52.2839 153.539 53.3455C154.086 54.4071 154.356 55.6198 154.348 56.9836V68.9881H147.586V58.4045C147.594 57.4736 147.357 56.7427 146.875 56.2119C146.402 55.6811 145.74 55.4157 144.891 55.4157C144.336 55.4157 143.85 55.5382 143.433 55.7831C143.025 56.02 142.711 56.3629 142.49 56.8121C142.27 57.2531 142.155 57.7839 142.147 58.4045Z" fill="#8CA1C6"/>
<path d="M168.906 50.1729V55.0727H156.51V50.1729H168.906ZM158.911 45.6651H165.672V62.9368C165.672 63.1981 165.717 63.4186 165.807 63.5983C165.897 63.7698 166.036 63.9004 166.223 63.9903C166.411 64.0719 166.652 64.1128 166.946 64.1128C167.15 64.1128 167.387 64.0883 167.657 64.0393C167.934 63.9903 168.138 63.9494 168.269 63.9168L169.249 68.6696C168.947 68.7594 168.514 68.8696 167.951 69.0003C167.395 69.131 166.734 69.2167 165.966 69.2575C164.415 69.3392 163.112 69.18 162.059 68.7798C161.005 68.3715 160.213 67.7304 159.682 66.8566C159.151 65.9828 158.894 64.8886 158.911 63.5738V45.6651Z" fill="#8CA1C6"/>
<path d="M176.908 69.282C175.708 69.282 174.646 69.086 173.723 68.6941C172.809 68.2939 172.09 67.6896 171.567 66.8811C171.045 66.0727 170.783 65.0437 170.783 63.7943C170.783 62.7653 170.959 61.8875 171.31 61.1607C171.661 60.4257 172.151 59.8255 172.78 59.36C173.409 58.8945 174.14 58.5393 174.973 58.2943C175.814 58.0493 176.72 57.89 177.692 57.8166C178.745 57.7349 179.591 57.6369 180.228 57.5226C180.873 57.4001 181.338 57.2327 181.624 57.0203C181.91 56.7998 182.053 56.5099 182.053 56.1506V56.1016C182.053 55.6116 181.865 55.236 181.489 54.9747C181.114 54.7134 180.632 54.5827 180.044 54.5827C179.399 54.5827 178.872 54.7256 178.464 55.0114C178.064 55.2891 177.823 55.7178 177.741 56.2976H171.518C171.6 55.1543 171.963 54.1009 172.609 53.1373C173.262 52.1655 174.213 51.3897 175.463 50.8099C176.712 50.2219 178.272 49.9279 180.142 49.9279C181.489 49.9279 182.698 50.0871 183.768 50.4056C184.838 50.716 185.748 51.1528 186.499 51.7163C187.251 52.2716 187.822 52.9249 188.214 53.6762C188.614 54.4194 188.815 55.2278 188.815 56.1016V68.9881H182.494V66.3422H182.347C181.971 67.0445 181.514 67.612 180.975 68.0448C180.444 68.4777 179.836 68.7921 179.15 68.9881C178.472 69.184 177.725 69.282 176.908 69.282ZM179.113 65.0192C179.627 65.0192 180.109 64.9131 180.558 64.7007C181.016 64.4884 181.387 64.1822 181.673 63.782C181.959 63.3819 182.102 62.896 182.102 62.3243V60.7564C181.922 60.8299 181.73 60.8993 181.526 60.9647C181.33 61.03 181.118 61.0912 180.889 61.1484C180.669 61.2056 180.432 61.2586 180.179 61.3076C179.934 61.3566 179.676 61.4016 179.407 61.4424C178.884 61.524 178.456 61.6588 178.121 61.8466C177.794 62.0263 177.549 62.2509 177.386 62.5203C177.231 62.7817 177.153 63.0756 177.153 63.4023C177.153 63.9249 177.337 64.3251 177.704 64.6027C178.072 64.8804 178.541 65.0192 179.113 65.0192Z" fill="#8CA1C6"/>
<path d="M198.807 43.9012V68.9881H192.045V43.9012H198.807Z" fill="#8CA1C6"/>
<path d="M40.8686 12.6094C38.2785 12.6902 35.8022 13.6813 33.8709 15.409C31.8168 13.867 29.3165 13.0345 26.7504 13.0345C24.1812 13.0345 21.684 13.8669 19.6299 15.409C17.7016 13.6813 15.2252 12.6902 12.6382 12.6094C11.9764 12.6094 11.4404 13.1454 11.4404 13.8071C11.4404 14.4688 11.9764 15.0048 12.6382 15.0048C14.5935 15.0797 16.4649 15.8223 17.9411 17.1098C17.5848 17.556 17.2734 18.038 17.0068 18.5471C16.7104 19.137 16.947 19.8586 17.5398 20.1551C18.1297 20.4545 18.8513 20.215 19.1478 19.6251C20.7048 16.9183 23.6363 15.3013 26.7534 15.427C29.8704 15.3043 32.7959 16.9212 34.35 19.6251C34.6494 20.209 35.365 20.4425 35.955 20.1461C36.5418 19.8527 36.7814 19.137 36.4879 18.5472C36.2244 18.0381 35.913 17.556 35.5567 17.1099C37.0389 15.8313 38.9104 15.0887 40.8687 15.0049C41.5304 15.0049 42.0664 14.4689 42.0664 13.8072C42.0664 13.1454 41.5303 12.6094 40.8686 12.6094Z" fill="#8CA1C6"/>
<path d="M57.4185 7.91465C57.4185 7.25291 56.8825 6.71693 56.2207 6.71693C55.559 6.71693 55.023 7.25291 55.023 7.91465C54.9272 10.394 54.3014 12.8223 53.1905 15.0411C52.2114 8.58238 48.759 2.99796 44.1714 0.85394C41.3747 -0.57735 37.9911 -0.185109 35.5983 1.84807C34.721 2.55473 33.8945 3.21344 33.119 3.81832C29.3732 6.71984 24.139 6.72582 20.3875 3.83329C19.609 3.22544 18.7735 2.56972 17.8962 1.85109C14.4827 -0.924646 10.0422 -0.514391 6.29919 2.929C0.559086 8.20496 -3.70497 21.2509 4.80206 33.7226C6.06563 35.5521 6.75437 37.714 6.78725 39.9358C6.87109 48.1823 8.07183 63.0908 15.1533 70.2978C16.0936 71.2739 17.3392 72.3339 18.6267 71.8339C20.2705 71.1961 20.3275 68.8965 20.4233 64.7195C20.573 58.611 20.7946 49.4668 26.7533 45.352C32.7089 49.4662 32.9335 58.6078 33.0832 64.7195C33.185 68.8935 33.2419 71.1932 34.8798 71.8339V71.8369C35.0954 71.9207 35.326 71.9627 35.5566 71.9627C36.6615 71.786 37.6586 71.1931 38.3413 70.3068C45.3988 63.1204 46.6176 48.2027 46.7165 39.9478C46.7465 37.7261 47.4381 35.5611 48.6987 33.7316C49.9503 31.9051 50.9834 29.9378 51.7769 27.8688C53.819 30.5337 54.9538 33.7795 55.0227 37.1363C55.0227 37.798 55.5587 38.334 56.2204 38.334C56.8822 38.334 57.4182 37.798 57.4182 37.1363C58.1278 25.3445 66.9639 23.7754 67.3503 23.7126C67.9342 23.6227 68.3623 23.1197 68.3623 22.5298C68.3623 21.9399 67.9341 21.4369 67.3503 21.347C66.976 21.2782 58.1283 19.7119 57.4185 7.91465ZM46.7259 32.3751C45.1988 34.5968 44.3635 37.2258 44.3305 39.9208C44.2556 46.2747 43.3544 61.7971 36.6321 68.6362V68.6392C36.3806 68.9087 36.1051 69.1603 35.8087 69.3848C35.5751 67.8218 35.4643 66.2438 35.4823 64.6628C35.3146 57.8237 35.0631 47.4907 27.3861 42.9121L27.3831 42.9091C26.9968 42.6905 26.5207 42.6905 26.1315 42.9091C18.4507 47.4814 18.1962 57.8176 18.0291 64.6567C18.0471 66.2377 17.9363 67.8187 17.7027 69.3818C17.4033 69.1512 17.1218 68.8997 16.8643 68.6242C10.1181 61.7583 9.24075 46.2534 9.17506 39.9056C9.13913 37.2138 8.30672 34.5937 6.77961 32.375C-0.834924 21.2034 2.96184 9.24988 7.92644 4.68971C9.29181 3.43511 12.8491 0.82702 16.3852 3.70761C17.2746 4.43523 18.1279 5.10295 18.9244 5.72577H18.9214C21.1672 7.45946 23.9249 8.39671 26.7632 8.39373C29.5988 8.39073 32.3536 7.4475 34.5965 5.70783C35.384 5.091 36.2224 4.42625 37.1117 3.7106C38.7974 2.26735 41.1929 1.99784 43.1631 3.02491C46.945 4.79156 50.8106 10.4748 51.0677 17.9878C49.4568 19.6736 47.3787 20.8414 45.1031 21.3415C44.5162 21.4283 44.0851 21.9313 44.0851 22.5242C44.0851 23.1171 44.5162 23.6202 45.1031 23.707C46.8578 24.0783 48.5017 24.8568 49.9 25.9827C49.1484 28.2524 48.0793 30.4048 46.7259 32.3751ZM56.2242 30.9647C55.3948 28.6381 54.0144 26.5511 52.1968 24.8803C52.122 24.7844 52.0321 24.7006 51.9303 24.6317C50.9811 23.8023 49.9301 23.0927 48.8013 22.5237C50.3733 21.7302 51.7926 20.6672 52.9934 19.3797C53.1221 19.2839 53.2299 19.1611 53.3078 19.0204C54.5804 17.5711 55.5685 15.8943 56.2243 14.0798C57.5088 17.7508 60.1737 20.778 63.6501 22.5209C60.1707 24.2636 57.5088 27.2904 56.2242 30.9647Z" fill="#8CA1C6"/>
</svg>
