<svg width="278" height="76" viewBox="0 0 278 76" fill="none" xmlns="http://www.w3.org/2000/svg">
<path d="M91.0029 29.5947V4.50781H101.831C103.693 4.50781 105.323 4.8753 106.719 5.61026C108.115 6.34523 109.202 7.37827 109.977 8.70938C110.753 10.0405 111.141 11.5962 111.141 13.3764C111.141 15.173 110.741 16.7287 109.941 18.0435C109.148 19.3582 108.034 20.3709 106.596 21.0813C105.167 21.7918 103.497 22.147 101.586 22.147H95.1187V16.8553H100.215C101.015 16.8553 101.697 16.7164 102.26 16.4388C102.832 16.153 103.269 15.7487 103.571 15.2261C103.881 14.7034 104.036 14.0869 104.036 13.3764C104.036 12.6578 103.881 12.0453 103.571 11.539C103.269 11.0245 102.832 10.6325 102.26 10.3631C101.697 10.0854 101.015 9.94657 100.215 9.94657H97.8136V29.5947H91.0029Z" fill="#8CA1C6"/>
<path d="M118.139 29.8887C116.938 29.8887 115.876 29.6927 114.954 29.3007C114.039 28.9006 113.32 28.2963 112.798 27.4878C112.275 26.6793 112.014 25.6504 112.014 24.4009C112.014 23.372 112.189 22.4941 112.541 21.7673C112.892 21.0323 113.382 20.4321 114.01 19.9666C114.639 19.5011 115.37 19.1459 116.203 18.9009C117.044 18.6559 117.951 18.4967 118.922 18.4232C119.976 18.3415 120.821 18.2435 121.458 18.1292C122.103 18.0067 122.569 17.8393 122.855 17.627C123.14 17.4065 123.283 17.1166 123.283 16.7573V16.7083C123.283 16.2183 123.095 15.8426 122.72 15.5813C122.344 15.32 121.862 15.1893 121.274 15.1893C120.629 15.1893 120.103 15.3322 119.694 15.6181C119.294 15.8957 119.053 16.3245 118.971 16.9043H112.749C112.83 15.761 113.194 14.7075 113.839 13.7439C114.492 12.7721 115.444 11.9963 116.693 11.4165C117.943 10.8285 119.502 10.5345 121.372 10.5345C122.72 10.5345 123.928 10.6938 124.998 11.0123C126.068 11.3226 126.979 11.7595 127.73 12.323C128.481 12.8783 129.053 13.5316 129.445 14.2829C129.845 15.026 130.045 15.8345 130.045 16.7083V29.5947H123.724V26.9488H123.577C123.202 27.6511 122.744 28.2187 122.205 28.6515C121.675 29.0843 121.066 29.3987 120.38 29.5947C119.702 29.7907 118.955 29.8887 118.139 29.8887ZM120.343 25.6259C120.858 25.6259 121.34 25.5197 121.789 25.3074C122.246 25.0951 122.618 24.7888 122.904 24.3887C123.189 23.9885 123.332 23.5026 123.332 22.931V21.3631C123.153 21.4366 122.961 21.506 122.757 21.5713C122.561 21.6366 122.348 21.6979 122.12 21.755C121.899 21.8122 121.662 21.8653 121.409 21.9143C121.164 21.9633 120.907 22.0082 120.637 22.049C120.115 22.1307 119.686 22.2654 119.351 22.4533C119.025 22.6329 118.78 22.8575 118.616 23.127C118.461 23.3883 118.384 23.6823 118.384 24.0089C118.384 24.5316 118.567 24.9317 118.935 25.2094C119.302 25.487 119.772 25.6259 120.343 25.6259Z" fill="#8CA1C6"/>
<path d="M133.276 29.5947V10.7795H139.842V14.3564H140.037C140.38 13.0334 140.924 12.0657 141.667 11.4533C142.418 10.8408 143.296 10.5345 144.3 10.5345C144.594 10.5345 144.884 10.559 145.17 10.608C145.464 10.6489 145.746 10.7101 146.015 10.7918V16.5613C145.68 16.4469 145.268 16.3612 144.778 16.304C144.288 16.2469 143.867 16.2183 143.516 16.2183C142.855 16.2183 142.259 16.3694 141.728 16.6715C141.205 16.9655 140.793 17.382 140.491 17.921C140.189 18.4518 140.037 19.0765 140.037 19.7951V29.5947H133.276Z" fill="#8CA1C6"/>
<path d="M152.599 29.8887C151.399 29.8887 150.337 29.6927 149.414 29.3007C148.5 28.9006 147.781 28.2963 147.259 27.4878C146.736 26.6793 146.475 25.6504 146.475 24.4009C146.475 23.372 146.65 22.4941 147.001 21.7673C147.352 21.0323 147.842 20.4321 148.471 19.9666C149.1 19.5011 149.831 19.1459 150.664 18.9009C151.505 18.6559 152.411 18.4967 153.383 18.4232C154.437 18.3415 155.282 18.2435 155.919 18.1292C156.564 18.0067 157.03 17.8393 157.315 17.627C157.601 17.4065 157.744 17.1166 157.744 16.7573V16.7083C157.744 16.2183 157.556 15.8426 157.181 15.5813C156.805 15.32 156.323 15.1893 155.735 15.1893C155.09 15.1893 154.563 15.3322 154.155 15.6181C153.755 15.8957 153.514 16.3245 153.432 16.9043H147.21C147.291 15.761 147.655 14.7075 148.3 13.7439C148.953 12.7721 149.904 11.9963 151.154 11.4165C152.403 10.8285 153.963 10.5345 155.833 10.5345C157.181 10.5345 158.389 10.6938 159.459 11.0123C160.529 11.3226 161.439 11.7595 162.191 12.323C162.942 12.8783 163.514 13.5316 163.906 14.2829C164.306 15.026 164.506 15.8345 164.506 16.7083V29.5947H158.185V26.9488H158.038C157.662 27.6511 157.205 28.2187 156.666 28.6515C156.135 29.0843 155.527 29.3987 154.841 29.5947C154.163 29.7907 153.416 29.8887 152.599 29.8887ZM154.804 25.6259C155.319 25.6259 155.8 25.5197 156.25 25.3074C156.707 25.0951 157.079 24.7888 157.364 24.3887C157.65 23.9885 157.793 23.5026 157.793 22.931V21.3631C157.613 21.4366 157.422 21.506 157.217 21.5713C157.021 21.6366 156.809 21.6979 156.58 21.755C156.36 21.8122 156.123 21.8653 155.87 21.9143C155.625 21.9633 155.368 22.0082 155.098 22.049C154.576 22.1307 154.147 22.2654 153.812 22.4533C153.485 22.6329 153.24 22.8575 153.077 23.127C152.922 23.3883 152.844 23.6823 152.844 24.0089C152.844 24.5316 153.028 24.9317 153.396 25.2094C153.763 25.487 154.233 25.6259 154.804 25.6259Z" fill="#8CA1C6"/>
<path d="M167.737 29.5947V10.7795H174.155V14.3564H174.351C174.743 13.1804 175.413 12.2495 176.36 11.5635C177.307 10.8775 178.434 10.5345 179.741 10.5345C181.064 10.5345 182.203 10.8857 183.159 11.588C184.114 12.2821 184.69 13.2049 184.886 14.3564H185.082C185.4 13.2049 186.078 12.2821 187.115 11.588C188.152 10.8857 189.369 10.5345 190.766 10.5345C192.57 10.5345 194.032 11.1144 195.151 12.274C196.278 13.4336 196.841 14.977 196.841 16.9043V29.5947H190.08V18.6192C190.08 17.7944 189.871 17.1492 189.455 16.6838C189.038 16.2101 188.479 15.9733 187.777 15.9733C187.083 15.9733 186.531 16.2101 186.123 16.6838C185.723 17.1492 185.523 17.7944 185.523 18.6192V29.5947H179.055V18.6192C179.055 17.7944 178.847 17.1492 178.43 16.6838C178.014 16.2101 177.454 15.9733 176.752 15.9733C176.287 15.9733 175.887 16.0795 175.552 16.2918C175.217 16.5041 174.956 16.8103 174.768 17.2105C174.588 17.6025 174.498 18.072 174.498 18.6192V29.5947H167.737Z" fill="#8CA1C6"/>
<path d="M209.241 29.9377C207.199 29.9377 205.452 29.5334 203.998 28.725C202.544 27.9084 201.43 26.7732 200.654 25.3196C199.878 23.8579 199.49 22.1634 199.49 20.2361C199.49 18.3089 199.878 16.6184 200.654 15.1648C201.43 13.7031 202.544 12.568 203.998 11.7595C205.452 10.9429 207.199 10.5345 209.241 10.5345C211.282 10.5345 213.03 10.9429 214.484 11.7595C215.937 12.568 217.052 13.7031 217.828 15.1648C218.603 16.6184 218.991 18.3089 218.991 20.2361C218.991 22.1634 218.603 23.8579 217.828 25.3196C217.052 26.7732 215.937 27.9084 214.484 28.725C213.03 29.5334 211.282 29.9377 209.241 29.9377ZM209.29 24.9399C209.861 24.9399 210.355 24.748 210.772 24.3642C211.188 23.9804 211.511 23.4332 211.74 22.7228C211.968 22.0123 212.083 21.1671 212.083 20.1871C212.083 19.199 211.968 18.3538 211.74 17.6515C211.511 16.941 211.188 16.3939 210.772 16.0101C210.355 15.6262 209.861 15.4343 209.29 15.4343C208.685 15.4343 208.167 15.6262 207.734 16.0101C207.301 16.3939 206.971 16.941 206.742 17.6515C206.513 18.3538 206.399 19.199 206.399 20.1871C206.399 21.1671 206.513 22.0123 206.742 22.7228C206.971 23.4332 207.301 23.9804 207.734 24.3642C208.167 24.748 208.685 24.9399 209.29 24.9399Z" fill="#8CA1C6"/>
<path d="M233.936 21.3631V10.7795H240.697V29.5947H234.279V26.0179H234.083C233.674 27.2183 232.96 28.1574 231.939 28.8352C230.918 29.5049 229.706 29.8397 228.301 29.8397C226.986 29.8397 225.835 29.5375 224.847 28.9332C223.867 28.3289 223.103 27.496 222.556 26.4343C222.017 25.3727 221.743 24.1559 221.735 22.784V10.7795H228.497V21.3631C228.505 22.294 228.742 23.0249 229.207 23.5557C229.681 24.0865 230.343 24.3519 231.192 24.3519C231.755 24.3519 232.241 24.2335 232.649 23.9967C233.066 23.7517 233.384 23.4087 233.605 22.9677C233.834 22.5186 233.944 21.9837 233.936 21.3631Z" fill="#8CA1C6"/>
<path d="M250.898 19.0112V29.5947H244.136V10.7795H250.555V14.3564H250.751C251.159 13.1641 251.878 12.2291 252.907 11.5513C253.944 10.8734 255.153 10.5345 256.533 10.5345C257.864 10.5345 259.019 10.8408 259.999 11.4533C260.988 12.0576 261.751 12.8905 262.29 13.9521C262.837 15.0138 263.107 16.2265 263.099 17.5902V29.5947H256.337V19.0112C256.345 18.0802 256.108 17.3493 255.626 16.8185C255.153 16.2877 254.491 16.0223 253.642 16.0223C253.087 16.0223 252.601 16.1448 252.184 16.3898C251.776 16.6266 251.462 16.9696 251.241 17.4187C251.021 17.8597 250.906 18.3905 250.898 19.0112Z" fill="#8CA1C6"/>
<path d="M277.657 10.7795V15.6793H265.261V10.7795H277.657ZM267.661 6.27173H274.423V23.5435C274.423 23.8048 274.468 24.0253 274.558 24.2049C274.648 24.3764 274.787 24.5071 274.974 24.5969C275.162 24.6786 275.403 24.7194 275.697 24.7194C275.901 24.7194 276.138 24.6949 276.408 24.6459C276.685 24.5969 276.889 24.5561 277.02 24.5234L278 29.2762C277.698 29.366 277.265 29.4763 276.702 29.6069C276.146 29.7376 275.485 29.8234 274.717 29.8642C273.166 29.9458 271.863 29.7866 270.81 29.3865C269.756 28.9781 268.964 28.3371 268.433 27.4633C267.902 26.5895 267.645 25.4952 267.661 24.1804V6.27173Z" fill="#8CA1C6"/>
<path d="M100.655 70.9881H91.0029V45.9012H100.558C103.138 45.9012 105.367 46.4034 107.246 47.4079C109.132 48.4041 110.586 49.8414 111.607 51.7197C112.635 53.5897 113.15 55.8314 113.15 58.4446C113.15 61.0578 112.64 63.3036 111.619 65.1818C110.598 67.0519 109.153 68.4892 107.282 69.4936C105.412 70.4899 103.203 70.9881 100.655 70.9881ZM97.8136 65.2063H100.411C101.652 65.2063 102.709 65.0062 103.583 64.6061C104.465 64.2059 105.135 63.5159 105.592 62.5359C106.058 61.556 106.29 60.1922 106.29 58.4446C106.29 56.697 106.053 55.3332 105.58 54.3533C105.114 53.3733 104.428 52.6833 103.522 52.2831C102.624 51.883 101.521 51.6829 100.215 51.6829H97.8136V65.2063Z" fill="#8CA1C6"/>
<path d="M125.415 71.331C123.406 71.331 121.675 70.9472 120.221 70.1796C118.776 69.4038 117.661 68.2932 116.877 66.8477C116.101 65.3941 115.713 63.6547 115.713 61.6295C115.713 59.6859 116.105 57.9873 116.889 56.5337C117.673 55.0801 118.78 53.9491 120.209 53.1406C121.638 52.3321 123.324 51.9279 125.268 51.9279C126.689 51.9279 127.975 52.1484 129.126 52.5894C130.278 53.0304 131.262 53.6714 132.078 54.5125C132.895 55.3455 133.524 56.3581 133.965 57.5504C134.406 58.7427 134.626 60.086 134.626 61.5805V63.1484H117.82V59.4246H128.404C128.395 58.8856 128.257 58.4119 127.987 58.0036C127.726 57.5871 127.371 57.2646 126.921 57.0359C126.48 56.7991 125.978 56.6807 125.415 56.6807C124.868 56.6807 124.365 56.7991 123.908 57.0359C123.451 57.2646 123.083 57.5831 122.806 57.9914C122.536 58.3997 122.393 58.8774 122.377 59.4246V63.4424C122.377 64.0467 122.503 64.5857 122.757 65.0593C123.01 65.533 123.373 65.9045 123.847 66.174C124.32 66.4435 124.892 66.5782 125.562 66.5782C126.027 66.5782 126.452 66.5129 126.836 66.3823C127.228 66.2516 127.562 66.0638 127.84 65.8188C128.118 65.5656 128.322 65.2635 128.453 64.9123H134.626C134.414 66.2189 133.912 67.354 133.12 68.3177C132.327 69.2731 131.278 70.0163 129.972 70.5471C128.673 71.0697 127.154 71.331 125.415 71.331Z" fill="#8CA1C6"/>
<path d="M144.147 60.4045V70.9881H137.385V52.1729H143.804V55.7497H144C144.409 54.5575 145.127 53.6224 146.156 52.9446C147.193 52.2668 148.402 51.9279 149.782 51.9279C151.113 51.9279 152.269 52.2341 153.249 52.8466C154.237 53.4509 155 54.2839 155.539 55.3455C156.086 56.4071 156.356 57.6198 156.348 58.9836V70.9881H149.586V60.4045C149.594 59.4736 149.357 58.7427 148.875 58.2119C148.402 57.6811 147.74 57.4157 146.891 57.4157C146.336 57.4157 145.85 57.5381 145.433 57.7831C145.025 58.02 144.711 58.3629 144.49 58.8121C144.27 59.2531 144.155 59.7839 144.147 60.4045Z" fill="#8CA1C6"/>
<path d="M170.906 52.1729V57.0727H158.51V52.1729H170.906ZM160.911 47.6651H167.672V64.9368C167.672 65.1981 167.717 65.4186 167.807 65.5983C167.897 65.7698 168.036 65.9004 168.223 65.9903C168.411 66.0719 168.652 66.1128 168.946 66.1128C169.15 66.1128 169.387 66.0883 169.657 66.0393C169.934 65.9903 170.138 65.9494 170.269 65.9168L171.249 70.6696C170.947 70.7594 170.514 70.8696 169.951 71.0003C169.395 71.131 168.734 71.2167 167.966 71.2575C166.415 71.3392 165.112 71.18 164.059 70.7798C163.005 70.3715 162.213 69.7304 161.682 68.8566C161.151 67.9829 160.894 66.8886 160.911 65.5738V47.6651Z" fill="#8CA1C6"/>
<path d="M178.908 71.282C177.708 71.282 176.646 71.086 175.723 70.6941C174.809 70.2939 174.09 69.6896 173.567 68.8811C173.045 68.0727 172.783 67.0437 172.783 65.7943C172.783 64.7653 172.959 63.8875 173.31 63.1607C173.661 62.4257 174.151 61.8255 174.78 61.36C175.409 60.8945 176.14 60.5393 176.973 60.2943C177.814 60.0493 178.72 59.89 179.692 59.8166C180.745 59.7349 181.591 59.6369 182.228 59.5226C182.873 59.4001 183.338 59.2327 183.624 59.0203C183.91 58.7998 184.053 58.5099 184.053 58.1506V58.1016C184.053 57.6116 183.865 57.236 183.489 56.9747C183.114 56.7134 182.632 56.5827 182.044 56.5827C181.399 56.5827 180.872 56.7256 180.464 57.0114C180.064 57.2891 179.823 57.7178 179.741 58.2976H173.518C173.6 57.1543 173.963 56.1009 174.609 55.1373C175.262 54.1655 176.213 53.3897 177.463 52.8099C178.712 52.2219 180.272 51.9279 182.142 51.9279C183.489 51.9279 184.698 52.0871 185.768 52.4056C186.838 52.716 187.748 53.1528 188.499 53.7163C189.251 54.2716 189.822 54.9249 190.214 55.6762C190.614 56.4194 190.815 57.2278 190.815 58.1016V70.9881H184.494V68.3422H184.347C183.971 69.0445 183.514 69.612 182.975 70.0448C182.444 70.4777 181.836 70.7921 181.15 70.9881C180.472 71.184 179.725 71.282 178.908 71.282ZM181.113 67.0192C181.627 67.0192 182.109 66.9131 182.558 66.7007C183.016 66.4884 183.387 66.1822 183.673 65.782C183.959 65.3819 184.102 64.896 184.102 64.3243V62.7564C183.922 62.8299 183.73 62.8993 183.526 62.9647C183.33 63.03 183.118 63.0912 182.889 63.1484C182.669 63.2056 182.432 63.2586 182.179 63.3076C181.934 63.3566 181.676 63.4016 181.407 63.4424C180.884 63.524 180.456 63.6588 180.121 63.8466C179.794 64.0263 179.549 64.2509 179.386 64.5203C179.231 64.7817 179.153 65.0756 179.153 65.4023C179.153 65.9249 179.337 66.3251 179.704 66.6027C180.072 66.8804 180.541 67.0192 181.113 67.0192Z" fill="#8CA1C6"/>
<path d="M200.807 45.9012V70.9881H194.045V45.9012H200.807Z" fill="#8CA1C6"/>
<path d="M42.8686 13.6094H42.853L42.8374 13.6099C40.2796 13.6897 37.8235 14.5834 35.8182 16.1501C33.7238 14.7724 31.2663 14.0345 28.7504 14.0345C26.2319 14.0345 23.7768 14.7723 21.6829 16.1498C19.6798 14.5831 17.2241 13.6896 14.6694 13.6099L14.6538 13.6094H14.6382C13.4241 13.6094 12.4404 14.5931 12.4404 15.8071C12.4404 17.0136 13.412 17.9926 14.6156 18.0047C16.0347 18.062 17.4034 18.5175 18.5687 19.3112C18.4082 19.562 18.2589 19.8197 18.1209 20.0833L18.1171 20.0906L18.1133 20.0981C17.5704 21.1784 18.0015 22.502 19.0899 23.0481C20.1655 23.5923 21.4735 23.1637 22.0262 22.1037C23.4005 19.7316 25.9757 18.3158 28.7131 18.4262L28.7529 18.4278L28.7927 18.4263C31.5315 18.3184 34.102 19.7353 35.4732 22.1064C36.0315 23.1623 37.3332 23.5771 38.4031 23.0401C39.4836 22.4992 39.9217 21.184 39.3833 20.1018L39.3797 20.0946L39.376 20.0875C39.2394 19.8236 39.0911 19.5659 38.9313 19.3155C40.101 18.5259 41.4712 18.0689 42.8938 18.0047C44.0963 17.9913 45.0664 17.0128 45.0664 15.8072C45.0664 14.5931 44.0826 13.6094 42.8686 13.6094Z" fill="#8CA1C6" stroke="#8CA1C6" stroke-width="2"/>
<path d="M20.5271 3.07522L20.5299 3.07748C21.3967 3.78754 22.2236 4.43663 23.0005 5.04318C26.3907 7.65548 31.1198 7.64998 34.5051 5.02899C35.2718 4.43089 36.0904 3.77856 36.9615 3.07694C39.6573 0.793623 43.462 0.352105 46.6108 1.95553C50.7491 3.89718 53.9176 8.32541 55.4507 13.5831C55.7805 12.3819 55.9735 11.1439 56.0231 9.89226C56.0351 8.68855 57.0142 7.71693 58.2207 7.71693C59.4231 7.71693 60.3996 8.68189 60.4182 9.87987C60.7614 15.4812 63.0122 18.5528 65.1342 20.2476C67.2393 21.9289 69.3035 22.3218 69.5183 22.3612C70.5854 22.5333 71.3623 23.4553 71.3623 24.5298C71.3623 25.6077 70.5805 26.5322 69.5081 26.7C69.3741 26.7222 67.2728 27.0954 65.1296 28.8074C63.0092 30.5013 60.761 33.5721 60.4179 39.171C60.3993 40.369 59.4229 41.334 58.2204 41.334C57.0104 41.334 56.0292 40.3568 56.0227 39.1483C55.9691 36.6054 55.2625 34.1314 53.982 31.9585C53.2876 33.4713 52.4654 34.9226 51.5236 36.2969L51.5222 36.299C50.3738 37.9657 49.7438 39.9377 49.7164 41.9606C49.7164 41.9608 49.7164 41.9611 49.7164 41.9613L48.7165 41.9478C48.6176 50.2027 47.3988 65.1204 40.3413 72.3068L20.5271 3.07522ZM20.5271 3.07522C18.6258 1.52913 16.4048 0.850959 14.1289 1.06215M20.5271 3.07522L14.1289 1.06215M14.1289 1.06215C11.8656 1.27217 9.62219 2.35323 7.62248 4.19275L14.1289 1.06215ZM56.12 21.6106C56.933 20.6741 57.6349 19.6501 58.2149 18.5596C59.4834 20.975 61.3525 23.0289 63.6434 24.5206C61.353 26.0109 59.4861 28.0627 58.2181 30.4766C57.371 28.8787 56.2601 27.4297 54.9256 26.1921C54.8141 26.0614 54.6873 25.9445 54.5481 25.8437C53.9962 25.3646 53.4121 24.9233 52.7999 24.5233C53.8466 23.8387 54.8109 23.0323 55.6716 22.1183C55.8464 21.9747 55.9982 21.8033 56.12 21.6106ZM18.9425 69.2285C16.1672 65.9719 14.4855 60.9873 13.4962 55.8804C12.4416 50.4359 12.2076 45.0398 12.175 41.8953L12.175 41.8923C12.1364 39.0036 11.2433 36.1915 9.60465 33.8099C2.28068 23.0626 5.99217 11.6613 10.6029 7.42618L10.603 7.42605C11.2395 6.84119 12.3375 5.99172 13.6281 5.60611C14.8612 5.23768 16.2789 5.28196 17.7529 6.48229C17.853 6.56421 17.9527 6.64536 18.0518 6.72577H17.9896L20.3103 8.51734C22.7318 10.3867 25.7049 11.3969 28.7642 11.3937C31.8211 11.3905 34.7912 10.3736 37.2094 8.49801L37.2131 8.49507C38.0039 7.87565 38.8458 7.20816 39.7386 6.48966L39.7505 6.48013L39.762 6.47024C41.1362 5.29372 43.091 5.07246 44.7009 5.91166L44.7202 5.92171L44.7399 5.93092C48.0264 7.4662 51.6729 12.5689 52.0495 19.5941C50.628 20.9698 48.8509 21.9281 46.9166 22.3585C45.8567 22.5351 45.0851 23.4524 45.0851 24.5242C45.0851 25.5976 45.8589 26.5159 46.9211 26.6907C48.2859 26.983 49.5762 27.5452 50.7161 28.3433C50.0127 30.2757 49.0669 32.1126 47.9017 33.8088C46.2627 36.1935 45.366 39.0153 45.3306 41.9085L45.3306 41.909C45.2935 45.0566 45.0513 50.459 43.9925 55.9058C43.0012 61.0051 41.3239 65.9779 38.5682 69.2237C38.5015 68.3757 38.4726 67.5252 38.4822 66.6741L38.4824 66.6562L38.482 66.6383L38.4808 66.5902C38.3976 63.1944 38.2901 58.8085 37.218 54.688C36.1463 50.5691 34.0806 46.596 30.0067 44.1186L29.994 44.1058L29.8756 44.0388C29.1826 43.6466 28.334 43.6485 27.6418 44.0372L27.6308 44.0434L27.6199 44.0498C23.4719 46.5191 21.3773 50.5255 20.2949 54.6808C19.2206 58.8054 19.1133 63.1966 19.0303 66.594L19.0294 66.6323L19.0289 66.6502L19.0292 66.6681C19.0389 67.5223 19.0096 68.3768 18.9425 69.2285ZM37.7145 74.9501C39.0506 74.7365 40.2581 74.0273 41.0952 72.9661L7.62216 4.19305C1.53785 9.78572 -2.82672 23.381 5.97593 36.2861L5.97923 36.2909C7.1294 37.9562 7.75692 39.9244 7.78733 41.9483C7.82969 46.1057 8.15319 51.9659 9.36777 57.7134C10.5764 63.4326 12.6968 69.1869 16.4366 72.9952C16.9201 73.4969 17.5513 74.0959 18.2778 74.4956C19.023 74.9056 19.9749 75.1597 20.9884 74.7662C22.2883 74.2618 22.8302 73.0998 23.0867 71.7971C23.3362 70.5297 23.3752 68.8309 23.4215 66.8098L23.423 66.744C23.423 66.7439 23.423 66.7439 23.423 66.7438C23.4982 63.6742 23.5919 59.9617 24.3845 56.5121C25.1195 53.3136 26.4264 50.4742 28.7532 48.5992C31.0787 50.4739 32.3856 53.3126 33.1209 56.5107C33.9139 59.9601 34.0083 63.6728 34.0835 66.7439L34.0857 66.8331C34.1347 68.843 34.1758 70.5328 34.4243 71.7949C34.6338 72.8588 35.0326 73.8302 35.8798 74.426V74.521L36.5174 74.7689C36.8519 74.899 37.2057 74.9627 37.5566 74.9627H37.636L37.7145 74.9501Z" fill="#8CA1C6" stroke="#8CA1C6" stroke-width="2"/>
</svg>
