<svg width="276" height="45" viewBox="0 0 276 45" fill="none" xmlns="http://www.w3.org/2000/svg">
<path d="M41.8164 3.3048H43.6779L49.3674 20.0848L55.0306 3.3048H56.8922L50.3375 22.1823H48.3711L41.8164 3.3048Z" fill="#8CA1C6"/>
<path d="M61.4366 22.1823V3.3048H63.2195V22.1823H61.4366Z" fill="#8CA1C6"/>
<path d="M69.4155 22.1823V3.3048H71.1984V20.6616H81.3188V22.1823H69.4155Z" fill="#8CA1C6"/>
<path d="M85.2952 22.1823V3.3048H87.0781V20.6616H97.1985V22.1823H85.2952Z" fill="#8CA1C6"/>
<path d="M99.4445 22.1823L106.864 3.3048H108.883L116.12 22.1823H114.284L112.108 16.2568H103.508L101.28 22.1823H99.4445ZM104.111 14.7362H111.505L107.808 4.82548L104.111 14.7362Z" fill="#8CA1C6"/>
<path d="M127.997 13.9496V12.4289H136.072V22.1823H134.551V18.9574C134.219 19.5167 133.835 20.0323 133.398 20.5043C132.978 20.9587 132.489 21.352 131.929 21.6841C131.37 21.9987 130.723 22.2434 129.989 22.4182C129.255 22.593 128.425 22.6804 127.498 22.6804C126.31 22.6804 125.209 22.4707 124.195 22.0512C123.181 21.6317 122.307 21.0112 121.573 20.1896C120.839 19.3506 120.262 18.3019 119.842 17.0434C119.44 15.7849 119.239 14.3167 119.239 12.6387C119.239 11.2578 119.414 9.97309 119.764 8.78451C120.113 7.57845 120.647 6.53844 121.363 5.66448C122.097 4.77304 123.006 4.07388 124.09 3.56698C125.191 3.06009 126.485 2.80664 127.97 2.80664C128.967 2.80664 129.893 2.92899 130.749 3.1737C131.623 3.41841 132.401 3.79421 133.083 4.30111C133.782 4.79052 134.368 5.41103 134.84 6.16264C135.312 6.89676 135.652 7.77072 135.862 8.78451H134.027C133.869 8.08534 133.599 7.45609 133.214 6.89676C132.847 6.33743 132.401 5.87423 131.877 5.50717C131.353 5.12263 130.767 4.83422 130.12 4.64195C129.473 4.4322 128.801 4.32733 128.101 4.32733C126.86 4.32733 125.794 4.54581 124.903 4.98279C124.011 5.41977 123.277 6.04028 122.7 6.84432C122.124 7.63088 121.695 8.5835 121.416 9.70216C121.153 10.8033 121.022 12.0181 121.022 13.3466C121.022 14.3953 121.171 15.3916 121.468 16.3355C121.783 17.2794 122.228 18.1096 122.805 18.8263C123.399 19.5429 124.116 20.111 124.955 20.5305C125.812 20.95 126.782 21.1597 127.865 21.1597C128.372 21.1597 128.897 21.1073 129.439 21.0024C129.98 20.8801 130.505 20.6878 131.012 20.4256C131.519 20.1634 131.99 19.8226 132.427 19.4031C132.864 18.9836 133.24 18.468 133.555 17.8562C133.852 17.2619 134.053 16.6414 134.158 15.9947C134.28 15.3479 134.35 14.6662 134.368 13.9496H127.997Z" fill="#8CA1C6"/>
<path d="M141.691 22.1823V3.3048H154.25V4.82548H143.474V11.6423H153.201V13.163H143.474V20.6616H154.512V22.1823H141.691Z" fill="#8CA1C6"/>
<path d="M175.641 22.1823H167.512V3.31197H175.641C176.81 3.32904 177.783 3.46559 178.56 3.72163C179.883 4.1569 180.954 4.9549 181.773 6.11563C182.431 7.05445 182.879 8.07008 183.118 9.16253C183.357 10.255 183.476 11.2962 183.476 12.2862C183.476 14.7955 182.972 16.9206 181.965 18.6617C180.6 21.0087 178.492 22.1823 175.641 22.1823ZM178.573 8.12556C177.967 7.10139 176.768 6.58931 174.975 6.58931H171.34V18.9049H174.975C176.836 18.9049 178.133 17.9874 178.867 16.1525C179.268 15.1454 179.469 13.9462 179.469 12.5551C179.469 10.6348 179.17 9.15826 178.573 8.12556Z" fill="#8CA1C6"/>
<path d="M200.905 13.9377H191.738V18.7897H202.185V22.1823H187.885V3.31197H201.724V6.65332H191.738V10.6604H200.905V13.9377Z" fill="#8CA1C6"/>
<path d="M221.829 22.1823H217.886L210.179 8.77847V22.1823H206.504V3.31197H210.64L218.154 16.4853V3.31197H221.829V22.1823Z" fill="#8CA1C6"/>
<path d="M240.538 3.31197V6.65332H234.892V22.1823H230.923V6.65332H225.252V3.31197H240.538Z" fill="#8CA1C6"/>
<path d="M253.268 18.3032H246.316L245.011 22.1823H240.888L247.622 3.31197H252.077L258.76 22.1823H254.484L253.268 18.3032ZM252.167 15.0515L249.811 7.62628L247.379 15.0515H252.167Z" fill="#8CA1C6"/>
<path d="M262.478 3.31197H266.421V18.7897H275.766V22.1823H262.478V3.31197Z" fill="#8CA1C6"/>
<path d="M173.256 30.9931C174.905 30.9931 176.184 31.4274 177.094 32.2959C178.004 33.1645 178.509 34.1513 178.61 35.2562H176.89C176.695 34.4171 176.305 33.7524 175.72 33.262C175.141 32.7716 174.326 32.5264 173.274 32.5264C171.992 32.5264 170.955 32.9784 170.163 33.8824C169.377 34.7805 168.984 36.1602 168.984 38.0214C168.984 39.5459 169.339 40.7837 170.048 41.735C170.763 42.6804 171.826 43.1531 173.239 43.1531C174.539 43.1531 175.528 42.6538 176.208 41.6553C176.568 41.1294 176.837 40.4381 177.014 39.5813H178.734C178.58 40.9521 178.072 42.1014 177.209 43.029C176.175 44.1458 174.781 44.7041 173.026 44.7041C171.513 44.7041 170.243 44.2462 169.215 43.3304C167.862 42.1191 167.185 40.249 167.185 37.7201C167.185 35.7998 167.693 34.2251 168.71 32.9961C169.809 31.6608 171.324 30.9931 173.256 30.9931Z" fill="#8CA1C6"/>
<path d="M191.052 31.3476H192.816V42.8163H199.41V44.3673H191.052V31.3476Z" fill="#8CA1C6"/>
<path d="M211.72 31.3476H213.501V44.3673H211.72V31.3476Z" fill="#8CA1C6"/>
<path d="M226.538 31.3476H228.62L235.197 41.8946V31.3476H236.872V44.3673H234.895L228.222 33.8292V44.3673H226.538V31.3476Z" fill="#8CA1C6"/>
<path d="M250.218 31.3476H252V44.3673H250.218V31.3476Z" fill="#8CA1C6"/>
<path d="M270.522 30.9931C272.171 30.9931 273.45 31.4274 274.36 32.2959C275.27 33.1645 275.775 34.1513 275.876 35.2562H274.156C273.961 34.4171 273.571 33.7524 272.986 33.262C272.407 32.7716 271.592 32.5264 270.54 32.5264C269.258 32.5264 268.221 32.9784 267.429 33.8824C266.643 34.7805 266.251 36.1602 266.251 38.0214C266.251 39.5459 266.605 40.7837 267.314 41.735C268.029 42.6804 269.093 43.1531 270.505 43.1531C271.805 43.1531 272.794 42.6538 273.474 41.6553C273.834 41.1294 274.103 40.4381 274.28 39.5813H276C275.846 40.9521 275.338 42.1014 274.475 43.029C273.441 44.1458 272.047 44.7041 270.292 44.7041C268.779 44.7041 267.509 44.2462 266.481 43.3304C265.128 42.1191 264.451 40.249 264.451 37.7201C264.451 35.7998 264.959 34.2251 265.976 32.9961C267.075 31.6608 268.59 30.9931 270.522 30.9931Z" fill="#8CA1C6"/>
<path d="M47.3949 29.2412H154.287V30.2496H47.3949V29.2412Z" fill="#8CA1C6"/>
<path d="M31.553 6.38275C31.553 -4.38974 14.6708 0.153227 10.4502 11.4078C15.0525 4.77554 27.5334 -2.05776 27.5334 10.8049C27.5334 28.6921 21.1021 42.7606 18.8913 42.7606C16.6806 42.7606 17.6855 32.5102 12.661 32.5102C17.4845 32.5102 15.8766 44.368 19.0923 44.368C22.107 44.368 31.553 25.2754 31.553 6.38275Z" fill="#8CA1C6"/>
<path d="M0 14.1848C0 8.0484 3.46617 4.70125 5.50509 3.77148C4.96137 4.63926 1.83503 6.74673 1.83503 14.1848C1.83503 18.7435 2.4467 36.6851 6.32065 38.9166C8.90648 40.406 9.78682 34.4537 14.0686 34.4537C12.2335 34.4537 8.97125 43.5654 6.93233 43.5654C4.89341 43.5654 0 33.8958 0 14.1848Z" fill="#8CA1C6"/>
</svg>
