<svg width="276" height="52" viewBox="0 0 276 52" fill="none" xmlns="http://www.w3.org/2000/svg">
<path d="M24.1301 12.0975L25.5915 0L27.0529 12.0975L25.5915 24.195L24.1301 12.0975Z" fill="#8CA1C6"/>
<path d="M24.1301 39.0856L25.5915 26.9881L27.0529 39.0856L25.5915 51.1831L24.1301 39.0856Z" fill="#8CA1C6"/>
<path d="M39.0856 24.13L51.1831 25.5914L39.0856 27.0528L26.9882 25.5914L39.0856 24.13Z" fill="#8CA1C6"/>
<path d="M12.0975 24.13L24.1949 25.5914L12.0975 27.0528L0 25.5914L12.0975 24.13Z" fill="#8CA1C6"/>
<path d="M34.0999 15.0166L43.6875 7.49574L36.1667 17.0833L26.5791 24.6042L34.0999 15.0166Z" fill="#8CA1C6"/>
<path d="M15.0165 34.0999L24.6041 26.579L17.0833 36.1666L7.49571 43.6875L15.0165 34.0999Z" fill="#8CA1C6"/>
<path d="M36.1668 34.0999L43.6876 43.6875L34.1 36.1666L26.5792 26.579L36.1668 34.0999Z" fill="#8CA1C6"/>
<path d="M17.0831 15.0162L24.604 24.6038L15.0164 17.0829L7.49557 7.49532L17.0831 15.0162Z" fill="#8CA1C6"/>
<path d="M76.0289 13.0084C77.2521 13.0084 78.1818 13.1552 78.8179 13.4487C79.454 13.7179 80.0166 14.0237 80.5059 14.3662C80.7995 14.5374 81.0319 14.672 81.2032 14.7698C81.3989 14.8432 81.5824 14.8799 81.7536 14.8799C81.9983 14.8799 82.1696 14.7454 82.2674 14.4763C82.3897 14.2071 82.4876 13.8035 82.561 13.2653H83.405C83.3806 13.6812 83.3439 14.1827 83.2949 14.7698C83.2705 15.3325 83.246 16.0909 83.2215 17.0451C83.2215 17.9747 83.2215 19.2102 83.2215 20.7515H82.3775C82.3041 19.5772 82.0472 18.4518 81.6069 17.3754C81.1665 16.2989 80.5182 15.4182 79.6619 14.7331C78.8301 14.0481 77.7292 13.7056 76.3591 13.7056C75.0625 13.7056 73.9861 14.0971 73.1298 14.8799C72.298 15.6628 71.8821 16.6903 71.8821 17.9625C71.8821 19.0634 72.1634 19.9931 72.7261 20.7515C73.2888 21.4854 74.035 22.1582 74.9646 22.7699C75.9188 23.357 76.9463 23.9931 78.0472 24.6781C79.3194 25.461 80.4448 26.2439 81.4234 27.0267C82.4264 27.7852 83.2093 28.6292 83.772 29.5589C84.3592 30.4885 84.6527 31.6139 84.6527 32.935C84.6527 34.5008 84.298 35.7974 83.5885 36.8249C82.879 37.8524 81.9371 38.6231 80.7628 39.1369C79.5885 39.6506 78.2919 39.9075 76.8729 39.9075C75.5763 39.9075 74.5487 39.7607 73.7903 39.4671C73.0319 39.1736 72.3836 38.8677 71.8454 38.5497C71.3071 38.2072 70.8912 38.0359 70.5977 38.0359C70.353 38.0359 70.1695 38.1705 70.0472 38.4396C69.9493 38.7087 69.8637 39.1124 69.7903 39.6506H68.9463C68.9952 39.1369 69.0197 38.5375 69.0197 37.8524C69.0441 37.143 69.0564 36.2255 69.0564 35.1001C69.0808 33.9748 69.0931 32.5558 69.0931 30.8433H69.9371C70.035 32.3112 70.3041 33.6812 70.7445 34.9534C71.2093 36.2255 71.9065 37.2531 72.8362 38.0359C73.7903 38.7943 75.0503 39.1735 76.616 39.1735C77.4234 39.1735 78.1818 39.0145 78.8913 38.6965C79.6252 38.354 80.2246 37.828 80.6894 37.1185C81.1543 36.3846 81.3867 35.4427 81.3867 34.2928C81.3867 33.2897 81.142 32.4212 80.6527 31.6873C80.1879 30.9289 79.5273 30.2316 78.6711 29.5956C77.8148 28.935 76.8117 28.2622 75.6619 27.5772C74.512 26.8677 73.4356 26.146 72.4325 25.4121C71.4295 24.6781 70.6221 23.8341 70.0105 22.8799C69.4234 21.9014 69.1298 20.727 69.1298 19.357C69.1298 17.9136 69.4478 16.727 70.0839 15.7974C70.7445 14.8432 71.6007 14.146 72.6527 13.7056C73.7047 13.2408 74.8301 13.0084 76.0289 13.0084Z" fill="#8CA1C6"/>
<path d="M95.9936 14.4029V20.5313H101.425V21.2653H95.9936V35.4671C95.9936 36.617 96.2016 37.4243 96.6175 37.8891C97.0334 38.354 97.6083 38.5864 98.3423 38.5864C99.0762 38.5864 99.7123 38.2928 100.251 37.7057C100.789 37.094 101.254 36.0787 101.645 34.6598L102.379 34.8433C102.134 36.2622 101.645 37.461 100.911 38.4396C100.202 39.4182 99.1007 39.9075 97.6083 39.9075C96.7765 39.9075 96.0915 39.7974 95.5533 39.5772C95.015 39.3815 94.538 39.0879 94.1221 38.6965C93.5838 38.1338 93.2046 37.461 92.9845 36.6781C92.7887 35.8953 92.6909 34.8555 92.6909 33.5589V21.2653H89.1679V20.5313H92.6909V14.9166C93.3025 14.8922 93.8897 14.8432 94.4523 14.7698C95.015 14.6964 95.5288 14.5741 95.9936 14.4029Z" fill="#8CA1C6"/>
<path d="M110.838 39.6506C109.835 39.6506 108.967 39.4671 108.233 39.1002C107.499 38.7087 106.936 38.1705 106.545 37.4855C106.178 36.8005 105.994 36.0053 105.994 35.1001C105.994 34.0237 106.239 33.143 106.728 32.4579C107.242 31.7729 107.89 31.2225 108.673 30.8066C109.456 30.3907 110.276 30.0482 111.132 29.779C112.013 29.4855 112.844 29.2163 113.627 28.9717C114.41 28.7026 115.046 28.3968 115.536 28.0543C116.049 27.7118 116.306 27.2592 116.306 26.6965V24.4212C116.306 23.3937 116.147 22.6108 115.829 22.0726C115.536 21.5344 115.132 21.1796 114.618 21.0084C114.104 20.8127 113.529 20.7148 112.893 20.7148C112.282 20.7148 111.621 20.8004 110.912 20.9717C110.227 21.1429 109.676 21.4977 109.26 22.0359C109.725 22.1338 110.129 22.3784 110.471 22.7699C110.814 23.1613 110.985 23.6628 110.985 24.2744C110.985 24.8861 110.789 25.3754 110.398 25.7423C110.006 26.0848 109.505 26.2561 108.893 26.2561C108.184 26.2561 107.658 26.0359 107.315 25.5955C106.997 25.1307 106.838 24.617 106.838 24.0543C106.838 23.4182 106.997 22.9044 107.315 22.513C107.633 22.1215 108.037 21.7546 108.526 21.4121C109.089 21.0206 109.811 20.6903 110.691 20.4212C111.597 20.1276 112.612 19.9809 113.737 19.9809C114.74 19.9809 115.597 20.1032 116.306 20.3478C117.016 20.568 117.603 20.8983 118.068 21.3387C118.704 21.9258 119.12 22.6475 119.315 23.5038C119.511 24.3356 119.609 25.3387 119.609 26.513V36.7148C119.609 37.3265 119.695 37.7668 119.866 38.0359C120.062 38.305 120.355 38.4396 120.747 38.4396C121.016 38.4396 121.273 38.3784 121.517 38.2561C121.762 38.1338 122.055 37.9381 122.398 37.669L122.802 38.2928C122.288 38.6843 121.799 39.0145 121.334 39.2836C120.869 39.5283 120.245 39.6506 119.462 39.6506C118.753 39.6506 118.165 39.5283 117.701 39.2836C117.236 39.039 116.881 38.6843 116.636 38.2194C116.416 37.7301 116.306 37.1185 116.306 36.3846C115.646 37.4855 114.851 38.305 113.921 38.8433C113.016 39.3815 111.988 39.6506 110.838 39.6506ZM112.159 38.1827C112.967 38.1827 113.713 37.9503 114.398 37.4855C115.107 37.0206 115.743 36.3234 116.306 35.3937V28.2011C116.013 28.617 115.584 28.9717 115.022 29.2653C114.459 29.5344 113.847 29.8157 113.187 30.1093C112.526 30.3784 111.89 30.7087 111.279 31.1001C110.691 31.4671 110.202 31.9564 109.811 32.568C109.419 33.1797 109.224 33.9748 109.224 34.9534C109.224 35.932 109.48 36.7148 109.994 37.302C110.532 37.8891 111.254 38.1827 112.159 38.1827Z" fill="#8CA1C6"/>
<path d="M137.886 19.9809C138.546 19.9809 139.121 20.1154 139.611 20.3845C140.124 20.6536 140.516 21.0084 140.785 21.4488C141.079 21.8647 141.225 22.3417 141.225 22.8799C141.225 23.4916 141.03 24.0298 140.638 24.4946C140.271 24.9595 139.77 25.1919 139.134 25.1919C138.62 25.1919 138.167 25.0329 137.776 24.7148C137.384 24.3723 137.189 23.8952 137.189 23.2836C137.189 22.8188 137.311 22.4273 137.556 22.1093C137.825 21.7668 138.118 21.4977 138.436 21.302C138.265 21.0573 138.008 20.935 137.666 20.935C136.907 20.935 136.21 21.1674 135.574 21.6322C134.938 22.0726 134.4 22.6475 133.959 23.357C133.519 24.0665 133.176 24.8249 132.932 25.6322C132.687 26.4151 132.565 27.1491 132.565 27.8341V35.6139C132.565 36.8127 132.907 37.62 133.592 38.0359C134.302 38.4274 135.256 38.6231 136.455 38.6231V39.3937C135.892 39.3693 135.097 39.3448 134.069 39.3203C133.042 39.2714 131.953 39.2469 130.803 39.2469C129.972 39.2469 129.14 39.2714 128.308 39.3203C127.501 39.3448 126.889 39.3693 126.473 39.3937V38.6231C127.476 38.6231 128.186 38.4396 128.601 38.0726C129.042 37.7057 129.262 37.0084 129.262 35.9809V24.4946C129.262 23.3937 129.066 22.5864 128.675 22.0726C128.283 21.5344 127.549 21.2653 126.473 21.2653V20.4946C127.256 20.568 128.014 20.6047 128.748 20.6047C129.458 20.6047 130.131 20.568 130.767 20.4946C131.427 20.3968 132.027 20.2622 132.565 20.091V24.6781C132.834 23.9686 133.213 23.2592 133.702 22.5497C134.216 21.8157 134.828 21.2041 135.537 20.7148C136.247 20.2255 137.03 19.9809 137.886 19.9809Z" fill="#8CA1C6"/>
<path d="M166.798 13.412C171.177 13.412 174.431 14.513 176.559 16.7148C178.688 18.8922 179.752 22.0237 179.752 26.1093C179.752 28.776 179.226 31.1124 178.174 33.1185C177.147 35.1001 175.642 36.6414 173.66 37.7424C171.679 38.8433 169.281 39.3937 166.468 39.3937C166.101 39.3937 165.611 39.3815 165 39.357C164.388 39.3326 163.752 39.3203 163.091 39.3203C162.455 39.2959 161.868 39.2836 161.33 39.2836C160.474 39.2836 159.63 39.2959 158.798 39.3203C157.966 39.3203 157.293 39.3448 156.78 39.3937V38.6598C157.611 38.6109 158.235 38.513 158.651 38.3662C159.091 38.2194 159.385 37.9258 159.532 37.4855C159.679 37.0451 159.752 36.3846 159.752 35.5038V17.302C159.752 16.3968 159.679 15.7362 159.532 15.3203C159.385 14.8799 159.091 14.5864 158.651 14.4396C158.235 14.2683 157.611 14.1705 156.78 14.146V13.412C157.293 13.4365 157.966 13.4732 158.798 13.5221C159.63 13.5466 160.449 13.5466 161.257 13.5221C162.113 13.4977 163.079 13.4732 164.156 13.4487C165.232 13.4243 166.113 13.412 166.798 13.412ZM165.88 14.0726C164.755 14.0726 164.021 14.2805 163.679 14.6964C163.336 15.1124 163.165 15.9564 163.165 17.2286V35.5772C163.165 36.8494 163.336 37.6934 163.679 38.1093C164.046 38.5252 164.792 38.7332 165.917 38.7332C168.584 38.7332 170.651 38.2561 172.119 37.302C173.587 36.3234 174.614 34.9044 175.202 33.0451C175.789 31.1858 176.082 28.9228 176.082 26.2561C176.082 23.516 175.752 21.253 175.092 19.4671C174.455 17.6567 173.391 16.3111 171.899 15.4304C170.431 14.5252 168.425 14.0726 165.88 14.0726Z" fill="#8CA1C6"/>
<path d="M194.308 19.9809C196.461 19.9809 198.137 20.6414 199.336 21.9625C200.559 23.2592 201.171 25.2897 201.171 28.0543H188.217L188.18 27.357H197.648C197.697 26.1582 197.599 25.0573 197.354 24.0543C197.11 23.0267 196.718 22.2072 196.18 21.5955C195.666 20.9839 194.993 20.6781 194.161 20.6781C193.036 20.6781 192.033 21.2408 191.152 22.3662C190.296 23.4916 189.782 25.2775 189.611 27.724L189.721 27.8708C189.672 28.2378 189.635 28.6414 189.611 29.0818C189.587 29.5222 189.574 29.9625 189.574 30.4029C189.574 32.0665 189.843 33.4977 190.382 34.6965C190.92 35.8953 191.617 36.8127 192.473 37.4488C193.354 38.0604 194.259 38.3662 195.189 38.3662C195.923 38.3662 196.62 38.2561 197.281 38.0359C197.941 37.7913 198.553 37.3998 199.116 36.8616C199.678 36.3234 200.168 35.6017 200.584 34.6965L201.317 34.9901C201.048 35.7974 200.608 36.5803 199.996 37.3387C199.385 38.0971 198.614 38.7209 197.684 39.2102C196.755 39.6751 195.678 39.9075 194.455 39.9075C192.694 39.9075 191.177 39.5038 189.905 38.6965C188.657 37.8891 187.691 36.776 187.006 35.357C186.345 33.9136 186.015 32.2622 186.015 30.4029C186.015 28.25 186.357 26.4029 187.042 24.8616C187.727 23.2958 188.694 22.0971 189.941 21.2653C191.189 20.409 192.645 19.9809 194.308 19.9809Z" fill="#8CA1C6"/>
<path d="M218.854 19.9809C219.783 19.9809 220.554 20.1032 221.166 20.3478C221.802 20.5925 222.328 20.935 222.744 21.3754C223.208 21.8647 223.539 22.4763 223.734 23.2102C223.93 23.9442 224.028 24.935 224.028 26.1827V35.9809C224.028 37.0084 224.236 37.7057 224.652 38.0726C225.092 38.4396 225.814 38.6231 226.817 38.6231V39.3937C226.401 39.3693 225.765 39.3448 224.909 39.3203C224.052 39.2714 223.221 39.2469 222.413 39.2469C221.606 39.2469 220.811 39.2714 220.028 39.3203C219.27 39.3448 218.695 39.3693 218.303 39.3937V38.6231C219.184 38.6231 219.808 38.4396 220.175 38.0726C220.542 37.7057 220.725 37.0084 220.725 35.9809V25.3754C220.725 24.617 220.664 23.9197 220.542 23.2836C220.419 22.6475 220.138 22.1338 219.698 21.7423C219.282 21.3509 218.633 21.1552 217.753 21.1552C216.725 21.1552 215.82 21.4488 215.037 22.0359C214.279 22.6231 213.679 23.4304 213.239 24.4579C212.823 25.461 212.615 26.5864 212.615 27.8341V35.9809C212.615 37.0084 212.799 37.7057 213.166 38.0726C213.533 38.4396 214.156 38.6231 215.037 38.6231V39.3937C214.646 39.3693 214.058 39.3448 213.276 39.3203C212.517 39.2714 211.734 39.2469 210.927 39.2469C210.12 39.2469 209.288 39.2714 208.432 39.3203C207.575 39.3448 206.939 39.3693 206.523 39.3937V38.6231C207.526 38.6231 208.236 38.4396 208.652 38.0726C209.092 37.7057 209.312 37.0084 209.312 35.9809V24.4946C209.312 23.3937 209.117 22.5864 208.725 22.0726C208.334 21.5344 207.6 21.2653 206.523 21.2653V20.4946C207.306 20.568 208.065 20.6047 208.799 20.6047C209.508 20.6047 210.181 20.568 210.817 20.4946C211.477 20.3968 212.077 20.2622 212.615 20.091V24.4212C213.251 22.7576 214.132 21.6078 215.257 20.9717C216.407 20.3111 217.606 19.9809 218.854 19.9809Z" fill="#8CA1C6"/>
<path d="M236.897 14.4029V20.5313H242.328V21.2653H236.897V35.4671C236.897 36.617 237.105 37.4243 237.521 37.8891C237.937 38.354 238.512 38.5864 239.246 38.5864C239.98 38.5864 240.616 38.2928 241.154 37.7057C241.692 37.094 242.157 36.0787 242.548 34.6598L243.282 34.8433C243.038 36.2622 242.548 37.461 241.814 38.4396C241.105 39.4182 240.004 39.9075 238.512 39.9075C237.68 39.9075 236.995 39.7974 236.457 39.5772C235.918 39.3815 235.441 39.0879 235.025 38.6965C234.487 38.1338 234.108 37.461 233.888 36.6781C233.692 35.8953 233.594 34.8555 233.594 33.5589V21.2653H230.071V20.5313H233.594V14.9166C234.206 14.8922 234.793 14.8432 235.356 14.7698C235.918 14.6964 236.432 14.5741 236.897 14.4029Z" fill="#8CA1C6"/>
<path d="M251.742 39.6506C250.739 39.6506 249.87 39.4671 249.136 39.1002C248.402 38.7087 247.839 38.1705 247.448 37.4855C247.081 36.8005 246.898 36.0053 246.898 35.1001C246.898 34.0237 247.142 33.143 247.631 32.4579C248.145 31.7729 248.794 31.2225 249.576 30.8066C250.359 30.3907 251.179 30.0482 252.035 29.779C252.916 29.4855 253.748 29.2163 254.531 28.9717C255.313 28.7026 255.95 28.3968 256.439 28.0543C256.953 27.7118 257.209 27.2592 257.209 26.6965V24.4212C257.209 23.3937 257.05 22.6108 256.732 22.0726C256.439 21.5344 256.035 21.1796 255.521 21.0084C255.008 20.8127 254.433 20.7148 253.797 20.7148C253.185 20.7148 252.524 20.8004 251.815 20.9717C251.13 21.1429 250.579 21.4977 250.164 22.0359C250.628 22.1338 251.032 22.3784 251.375 22.7699C251.717 23.1613 251.888 23.6628 251.888 24.2744C251.888 24.8861 251.693 25.3754 251.301 25.7423C250.91 26.0848 250.408 26.2561 249.797 26.2561C249.087 26.2561 248.561 26.0359 248.219 25.5955C247.901 25.1307 247.742 24.617 247.742 24.0543C247.742 23.4182 247.901 22.9044 248.219 22.513C248.537 22.1215 248.94 21.7546 249.43 21.4121C249.992 21.0206 250.714 20.6903 251.595 20.4212C252.5 20.1276 253.515 19.9809 254.641 19.9809C255.644 19.9809 256.5 20.1032 257.209 20.3478C257.919 20.568 258.506 20.8983 258.971 21.3387C259.607 21.9258 260.023 22.6475 260.219 23.5038C260.414 24.3356 260.512 25.3387 260.512 26.513V36.7148C260.512 37.3265 260.598 37.7668 260.769 38.0359C260.965 38.305 261.258 38.4396 261.65 38.4396C261.919 38.4396 262.176 38.3784 262.42 38.2561C262.665 38.1338 262.959 37.9381 263.301 37.669L263.705 38.2928C263.191 38.6843 262.702 39.0145 262.237 39.2836C261.772 39.5283 261.148 39.6506 260.365 39.6506C259.656 39.6506 259.069 39.5283 258.604 39.2836C258.139 39.039 257.784 38.6843 257.54 38.2194C257.32 37.7301 257.209 37.1185 257.209 36.3846C256.549 37.4855 255.754 38.305 254.824 38.8433C253.919 39.3815 252.891 39.6506 251.742 39.6506ZM253.063 38.1827C253.87 38.1827 254.616 37.9503 255.301 37.4855C256.011 37.0206 256.647 36.3234 257.209 35.3937V28.2011C256.916 28.617 256.488 28.9717 255.925 29.2653C255.362 29.5344 254.751 29.8157 254.09 30.1093C253.43 30.3784 252.794 30.7087 252.182 31.1001C251.595 31.4671 251.105 31.9564 250.714 32.568C250.323 33.1797 250.127 33.9748 250.127 34.9534C250.127 35.932 250.384 36.7148 250.898 37.302C251.436 37.8891 252.157 38.1827 253.063 38.1827Z" fill="#8CA1C6"/>
<path d="M273.211 10.623V35.9809C273.211 37.0084 273.419 37.7057 273.835 38.0726C274.275 38.4396 274.997 38.6231 276 38.6231V39.3937C275.584 39.3693 274.948 39.3448 274.092 39.3203C273.26 39.2714 272.416 39.2469 271.56 39.2469C270.728 39.2469 269.884 39.2714 269.028 39.3203C268.171 39.3448 267.535 39.3693 267.119 39.3937V38.6231C268.123 38.6231 268.832 38.4396 269.248 38.0726C269.688 37.7057 269.908 37.0084 269.908 35.9809V15.0267C269.908 13.9258 269.713 13.1185 269.321 12.6047C268.93 12.0665 268.196 11.7974 267.119 11.7974V11.0267C267.902 11.1001 268.661 11.1368 269.395 11.1368C270.104 11.1368 270.777 11.1001 271.413 11.0267C272.074 10.9289 272.673 10.7943 273.211 10.623Z" fill="#8CA1C6"/>
</svg>
