<svg width="100" height="100" viewBox="0 0 100 100" fill="none" xmlns="http://www.w3.org/2000/svg">
<path d="M77.052 33.5014H29.9833C29.1458 27.8063 24.2881 23.4512 18.4255 23.4512C11.8928 23.4512 6.7002 28.6438 6.7002 35.1765C6.7002 41.7091 11.8928 46.9018 18.4255 46.9018C24.4556 46.9018 29.1458 42.5466 29.9833 36.8515H60.3015V46.9018H63.6516V43.5517H70.3518V46.9018H73.7019V36.8515H77.052V33.5014ZM18.4255 43.5517C13.7354 43.5517 10.0503 39.8666 10.0503 35.1765C10.0503 30.4863 13.7354 26.8013 18.4255 26.8013C23.1156 26.8013 26.8007 30.4863 26.8007 35.1765C26.8007 39.8666 23.1156 43.5517 18.4255 43.5517ZM70.3518 40.2016H63.6516V36.8515H70.3518V40.2016Z" fill="#355FEC"/>
<path d="M100 97.6556L86.6001 84.2553C90.1177 80.5702 92.1278 75.7126 92.1278 70.3525C92.1278 59.2972 83.0825 50.252 72.0273 50.252C60.972 50.252 51.9268 59.2972 51.9268 70.3525C51.9268 81.4077 60.972 90.453 72.0273 90.453C76.5499 90.453 80.7375 88.9454 84.0876 86.4329L97.6554 100.001L100 97.6556ZM55.2768 70.3525C55.2768 61.1397 62.8145 53.602 72.0273 53.602C81.24 53.602 88.7777 61.1397 88.7777 70.3525C88.7777 79.5652 81.24 87.1029 72.0273 87.1029C62.8145 87.1029 55.2768 79.5652 55.2768 70.3525Z" fill="#355FEC"/>
<path d="M0 0V77.0519H49.5812C49.2462 76.0469 49.0787 74.8744 48.9112 73.7018H3.35008V16.7504H80.402V48.4087C81.5745 48.9112 82.7471 49.4137 83.7521 50.0838V0H0ZM3.35008 3.35008H67.0017V13.4003H3.35008V3.35008ZM70.3518 13.4003V3.35008H80.402V13.4003H70.3518Z" fill="#355FEC"/>
</svg>
