<svg width="100" height="101" viewBox="0 0 100 101" fill="none" xmlns="http://www.w3.org/2000/svg">
<path d="M98.7943 39.353C98.6634 38.8109 98.2335 38.3809 97.6727 38.2875L90.401 36.9602C89.7467 34.96 88.9242 32.9972 87.9521 31.0905L92.1581 25.0152C92.4759 24.5478 92.4946 23.9497 92.1955 23.4636C88.2886 17.2948 82.961 11.9672 76.7922 8.06033C76.3249 7.76123 75.708 7.77993 75.2407 8.09771L69.1653 12.3037C67.2586 11.3317 65.2958 10.5092 63.2956 9.85489L61.9684 2.58318C61.8749 2.04107 61.445 1.59243 60.9029 1.46158C53.9303 -0.146047 46.0978 -0.146047 39.1065 1.46158C38.5644 1.59243 38.1344 2.02238 38.0409 2.58318L36.7137 9.85489C34.7135 10.5092 32.732 11.3317 30.844 12.3037L24.7687 8.09771C24.3013 7.77993 23.7032 7.76123 23.2171 8.06033C17.0483 11.9672 11.7207 17.2948 7.81382 23.4636C7.51472 23.931 7.53341 24.5478 7.8512 25.0152L12.0572 31.0905C11.0851 32.9972 10.2813 34.96 9.60838 36.9602L2.33667 38.2875C1.79456 38.3809 1.34592 38.8109 1.21507 39.353C0.411254 42.8486 0 46.5125 0 50.2512C0 53.9899 0.411254 57.6537 1.21507 61.1494C1.34592 61.6915 1.77587 62.1215 2.33667 62.2149L9.60838 63.5421C10.2626 65.5423 11.0851 67.5238 12.0572 69.4119L7.8512 75.4872C7.53341 75.9545 7.51472 76.5527 7.81382 77.0387C11.7207 83.2075 17.0483 88.5351 23.2171 92.442C23.6845 92.7411 24.3013 92.7224 24.7687 92.4047L30.844 88.1987C32.7507 89.1707 34.7135 89.9932 36.7137 90.6475L38.0409 97.9192C38.1344 98.4613 38.5644 98.9099 39.1065 99.0408C42.6021 99.8446 46.266 100.256 50.0047 100.256C53.7433 100.256 57.4072 99.8446 60.9029 99.0408C61.445 98.9099 61.8749 98.48 61.9684 97.9192L63.2956 90.6475C65.2958 89.9932 67.2586 89.1707 69.1653 88.1987L75.2407 92.4047C75.708 92.7224 76.3062 92.7411 76.7922 92.442C82.961 88.5351 88.2886 83.2075 92.1955 77.0387C92.4946 76.5714 92.4759 75.9545 92.1581 75.4872L87.9521 69.4119C88.9242 67.5051 89.7467 65.5423 90.401 63.5421L97.6727 62.2149C98.2148 62.1215 98.6634 61.6915 98.7943 61.1494C99.5981 57.6537 100.009 53.9899 100.009 50.2512C100.009 46.5125 99.5981 42.8486 98.7943 39.353ZM96.252 59.6165L89.0738 60.9251C88.5503 61.0185 88.1391 61.3924 87.9895 61.8971C87.2605 64.2712 86.2884 66.6265 85.0921 68.8511C84.8491 69.3184 84.8864 69.8792 85.1855 70.3091L89.3355 76.3097C85.8772 81.5438 81.316 86.105 76.0819 89.5633L70.0813 85.4134C69.6514 85.1143 69.0906 85.0769 68.6232 85.3199C66.38 86.5163 64.0434 87.4883 61.6693 88.2174C61.1646 88.3669 60.7907 88.7968 60.6973 89.3016L59.3887 96.4798C53.3695 97.7323 46.6773 97.7323 40.658 96.4798L39.3495 89.3016C39.256 88.7782 38.8821 88.3669 38.3774 88.2174C36.0034 87.4883 33.648 86.5163 31.4048 85.3199C30.9375 85.0769 30.3767 85.1143 29.9467 85.4134L23.9462 89.5633C18.712 86.0863 14.1509 81.5438 10.6926 76.3097L14.8425 70.3091C15.1416 69.8792 15.179 69.3184 14.936 68.8511C13.7396 66.6079 12.7675 64.2712 12.0385 61.8971C11.889 61.3924 11.459 61.0185 10.9543 60.9251L3.75736 59.6165C3.12179 56.6069 2.804 53.4477 2.804 50.2512C2.804 47.0546 3.12179 43.8955 3.75736 40.8858L10.9543 39.5773C11.4777 39.4838 11.889 39.11 12.0385 38.6052C12.7675 36.2125 13.7396 33.8758 14.936 31.6513C15.179 31.184 15.1416 30.6232 14.8425 30.1932L10.6926 24.1927C14.1509 18.9585 18.712 14.3974 23.9462 10.9391L29.9467 15.089C30.3767 15.3881 30.9375 15.4255 31.4048 15.1825C33.648 13.9861 35.9847 13.0141 38.3774 12.285C38.8821 12.1355 39.256 11.7055 39.3495 11.2008L40.658 4.02257C46.6773 2.77011 53.3695 2.77011 59.3887 4.02257L60.6973 11.2008C60.7907 11.7242 61.1646 12.1355 61.6693 12.285C64.0434 13.0141 66.3987 13.9861 68.6232 15.1825C69.0906 15.4255 69.6514 15.4068 70.0813 15.089L76.0819 10.9391C81.316 14.3974 85.8772 18.9585 89.3355 24.1927L85.1855 30.1932C84.8864 30.6232 84.8491 31.184 85.0921 31.6513C86.2884 33.8945 87.2605 36.2312 87.9895 38.6052C88.1391 39.11 88.569 39.4838 89.0738 39.5773L96.252 40.8858C96.8876 43.8955 97.2053 47.0546 97.2053 50.2512C97.2053 53.4477 96.8876 56.6069 96.252 59.6165ZM50.0047 17.0705C31.7039 17.0705 16.824 31.9504 16.824 50.2512C16.824 68.552 31.7039 83.4319 50.0047 83.4319C68.3055 83.4319 83.1853 68.552 83.1853 50.2512C83.1853 31.9504 68.3055 17.0705 50.0047 17.0705ZM50.0047 80.6279C33.2554 80.6279 19.628 67.0004 19.628 50.2512C19.628 33.502 33.2554 19.8745 50.0047 19.8745C66.7539 19.8745 80.3813 33.502 80.3813 50.2512C80.3813 67.0004 66.7539 80.6279 50.0047 80.6279ZM71.2403 43.9702C72.9227 45.69 73.8387 47.9145 73.8387 50.2512C73.8387 55.1488 69.857 59.1305 64.9593 59.1305H62.9405C62.174 59.1305 61.5385 58.495 61.5385 57.7285C61.5385 56.9621 62.174 56.3265 62.9405 56.3265H64.9593C68.3055 56.3265 71.0347 53.5973 71.0347 50.2512C71.0347 48.6436 70.3991 47.1107 69.2588 45.9517C68.0998 44.8114 66.5857 44.1759 64.9593 44.1759H50.0047C46.6586 44.1759 43.9293 46.9051 43.9293 50.2512C43.9293 51.0176 43.2938 51.6532 42.5273 51.6532C41.7609 51.6532 41.1253 51.0176 41.1253 50.2512C41.1253 45.3535 45.107 41.3719 50.0047 41.3719H64.9593C67.3147 41.3719 69.5392 42.2878 71.2403 43.9702ZM50.0047 59.1305H35.05C32.6946 59.1305 30.4701 58.2146 28.769 56.5322C27.0866 54.8124 26.1707 52.5879 26.1707 50.2512C26.1707 45.3535 30.1524 41.3719 35.05 41.3719H37.0689C37.8353 41.3719 38.4709 42.0074 38.4709 42.7739C38.4709 43.5403 37.8353 44.1759 37.0689 44.1759H35.05C31.7039 44.1759 28.9747 46.9051 28.9747 50.2512C28.9747 51.8588 29.6102 53.3917 30.7505 54.5507C31.9095 55.6909 33.4237 56.3265 35.05 56.3265H50.0047C53.3508 56.3265 56.08 53.5973 56.08 50.2512C56.08 49.4848 56.7156 48.8492 57.482 48.8492C58.2484 48.8492 58.884 49.4848 58.884 50.2512C58.884 55.1488 54.9023 59.1305 50.0047 59.1305ZM48.6027 33.4272V27.8192C48.6027 27.0528 49.2382 26.4172 50.0047 26.4172C50.7711 26.4172 51.4067 27.0528 51.4067 27.8192V33.4272C51.4067 34.1936 50.7711 34.8292 50.0047 34.8292C49.2382 34.8292 48.6027 34.1936 48.6027 33.4272ZM56.3604 34.6236L58.9027 29.6137C59.2579 28.9221 60.0991 28.6417 60.7907 28.9969C61.4824 29.352 61.7628 30.1932 61.4076 30.8849L58.8653 35.8947C58.6223 36.3807 58.1176 36.6611 57.6129 36.6611C57.4072 36.6611 57.1829 36.6051 56.9773 36.5116C56.2856 36.1564 56.0052 35.3152 56.3604 34.6236ZM38.6017 30.8849C38.2466 30.1932 38.527 29.352 39.2186 28.9969C39.9103 28.6417 40.7515 28.9221 41.1066 29.6137L43.6489 34.6236C44.0041 35.3152 43.7237 36.1564 43.0321 36.5116C42.8264 36.6051 42.6208 36.6611 42.3965 36.6611C41.8918 36.6611 41.387 36.3807 41.144 35.8947L38.6017 30.8849ZM51.4067 67.0752V72.6832C51.4067 73.4496 50.7711 74.0852 50.0047 74.0852C49.2382 74.0852 48.6027 73.4496 48.6027 72.6832V67.0752C48.6027 66.3088 49.2382 65.6732 50.0047 65.6732C50.7711 65.6732 51.4067 66.3088 51.4067 67.0752ZM61.4076 69.6175C61.7628 70.3091 61.4824 71.1503 60.7907 71.5055C60.5851 71.599 60.3795 71.6551 60.1552 71.6551C59.6504 71.6551 59.1457 71.3747 58.9027 70.8886L56.3604 65.8788C56.0052 65.1872 56.2856 64.346 56.9773 63.9908C57.6689 63.6356 58.5101 63.916 58.8653 64.6077L61.4076 69.6175ZM43.6489 65.8788L41.1066 70.8886C40.8636 71.3747 40.3589 71.6551 39.8542 71.6551C39.6486 71.6551 39.4242 71.599 39.2186 71.5055C38.527 71.1503 38.2466 70.3091 38.6017 69.6175L41.144 64.6077C41.4992 63.916 42.3404 63.6543 43.0321 63.9908C43.7237 64.346 44.0041 65.1872 43.6489 65.8788Z" fill="#355FEC"/>
</svg>
