<svg width="69" height="100" viewBox="0 0 69 100" fill="none" xmlns="http://www.w3.org/2000/svg">
<path d="M54.0795 72.5085C53.2859 72.2387 52.4287 72.6672 52.1589 73.4609C51.889 74.2545 52.3176 75.1117 53.1112 75.3815C60.2065 77.7466 64.4287 81.2546 64.4287 84.7943C64.4287 90.6673 52.3176 96.9689 34.3017 96.9689C16.2857 96.9689 4.17458 90.6832 4.17458 84.7943C4.17458 81.2704 8.41269 77.7466 15.4921 75.3815C16.2857 75.1117 16.7143 74.2545 16.4445 73.4609C16.1746 72.6672 15.3333 72.2387 14.5238 72.5085C6.01586 75.3498 1.12695 79.826 1.12695 84.7943C1.12695 93.3181 15.6984 100.001 34.2858 100.001C52.8732 100.001 67.4446 93.3181 67.4446 84.7943C67.4764 79.826 62.5875 75.3498 54.0795 72.5085Z" fill="#355FEC"/>
<path d="M34.3176 88.9209C34.7303 88.9209 35.143 88.7463 35.4287 88.4447C36.7779 87.0003 68.6351 52.8097 68.6351 34.3176C68.6351 15.3969 53.2383 0 34.3176 0C15.3969 0 0 15.3969 0 34.3176C0 52.8097 31.8572 87.0003 33.2065 88.4447C33.4922 88.7463 33.9049 88.9209 34.3176 88.9209ZM34.3176 3.03176C51.5716 3.03176 65.6034 17.0635 65.6034 34.3176C65.6034 49.7779 40.0001 78.905 34.3176 85.1749C28.635 78.905 3.03176 49.7938 3.03176 34.3176C3.03176 17.0635 17.0635 3.03176 34.3176 3.03176Z" fill="#355FEC"/>
<path d="M53.255 33.5381C53.255 23.0937 44.7629 14.6016 34.3184 14.6016C23.8739 14.6016 15.3818 23.0937 15.3818 33.5381C15.3818 43.9826 23.8739 52.4906 34.3184 52.4906C44.7629 52.4906 53.255 43.9826 53.255 33.5381ZM18.4136 33.5381C18.4136 24.7603 25.5565 17.6333 34.3184 17.6333C43.0962 17.6333 50.2232 24.7762 50.2232 33.5381C50.2232 42.3001 43.0962 49.4588 34.3184 49.4588C25.5406 49.4588 18.4136 42.3159 18.4136 33.5381Z" fill="#355FEC"/>
</svg>
