<svg width="426" height="70" viewBox="0 0 426 70" fill="none" xmlns="http://www.w3.org/2000/svg">
<path fill-rule="evenodd" clip-rule="evenodd" d="M32 2C32 0.895431 32.8954 0 34 0H36C37.1046 0 38 0.895431 38 2V9.86128C38 12.0498 41.0103 12.6485 41.8478 10.6267L44.8564 3.36316C45.2791 2.34267 46.449 1.85807 47.4695 2.28077L49.3173 3.04613C50.3378 3.46884 50.8224 4.63877 50.3997 5.65926L47.39 12.9253C46.5525 14.9472 49.1045 16.6524 50.6519 15.1049L56.2127 9.5441C56.9938 8.76305 58.2601 8.76305 59.0412 9.5441L60.4554 10.9583C61.2364 11.7394 61.2364 13.0057 60.4554 13.7867L54.8971 19.345C53.3496 20.8925 55.0548 23.4445 57.0767 22.607L64.339 19.5988C65.3595 19.1761 66.5295 19.6607 66.9522 20.6812L67.7175 22.529C68.1402 23.5495 67.6556 24.7194 66.6351 25.1421L59.368 28.1522C57.3461 28.9897 57.9449 32 60.1334 32L68 32C69.1046 32 70 32.8954 70 34V36C70 37.1046 69.1046 38 68 38H50.0833L19.9146 38H2C0.895431 38 0 37.1046 0 36V34C0 32.8954 0.89543 32 2 32L9.86463 32C12.0531 32 12.6519 28.9897 10.63 28.1522L3.36341 25.1423C2.34292 24.7196 1.85831 23.5497 2.28101 22.5292L3.04638 20.6814C3.46908 19.6609 4.63902 19.1763 5.65951 19.599L12.9229 22.6077C14.9448 23.4451 16.65 20.8932 15.1025 19.3457L9.5441 13.7873C8.76305 13.0062 8.76305 11.7399 9.5441 10.9588L10.9583 9.54462C11.7394 8.76357 13.0057 8.76357 13.7867 9.54462L19.3463 15.1042C20.8938 16.6517 23.4458 14.9465 22.6083 12.9246L19.5991 5.65967C19.1764 4.63918 19.661 3.46924 20.6814 3.04654L22.5292 2.28117C23.5497 1.85847 24.7196 2.34308 25.1423 3.36357L28.1522 10.6301C28.9897 12.652 32 12.0532 32 9.86476V2ZM3.44006 43C2.15151 43 1.19755 44.2023 1.58115 45.4324C1.83029 46.2313 2.10729 47.018 2.41101 47.7912C2.70166 48.5311 3.42608 49 4.22103 49H65.779C66.5739 49 67.2983 48.5311 67.589 47.7912C67.8927 47.018 68.1697 46.2313 68.4189 45.4324C68.8025 44.2023 67.8485 43 66.5599 43H3.44006ZM9.27916 54C7.6938 54 6.76226 55.7436 7.75845 56.9768C8.44387 57.8254 9.16813 58.6413 9.92853 59.4218C10.2938 59.7967 10.7982 60 11.3217 60H58.6783C59.2018 60 59.7062 59.7967 60.0715 59.4218C60.8319 58.6413 61.5561 57.8254 62.2416 56.9768C63.2377 55.7436 62.3062 54 60.7208 54H9.27916ZM35 70C39.0427 70 42.9253 69.3146 46.5379 68.0536C48.4512 67.3858 47.8701 65 45.8436 65H24.1564C22.13 65 21.5488 67.3858 23.4621 68.0536C27.0747 69.3146 30.9573 70 35 70Z" fill="#FFD701"/>
<path d="M119.417 37.4283V60.1813C119.417 60.7913 119.478 61.2488 119.6 61.5538C119.742 61.8385 119.956 62.0418 120.24 62.1638L121.033 62.4688C121.542 62.7331 121.796 63.1297 121.796 63.6583C121.796 64.553 121.237 65.0003 120.118 65.0003H106.149C105.58 65.0003 105.163 64.8885 104.899 64.6648C104.655 64.4208 104.533 64.1056 104.533 63.7193C104.533 63.4346 104.614 63.1805 104.777 62.9568C104.94 62.7332 105.194 62.5603 105.539 62.4383L106.363 62.1333C106.648 62.0316 106.851 61.8385 106.973 61.5538C107.095 61.2691 107.156 60.8218 107.156 60.2118V43.2843C107.156 42.7963 107.085 42.4405 106.942 42.2168C106.8 41.9931 106.587 41.8508 106.302 41.7898L105.387 41.6678C105.082 41.5661 104.858 41.4238 104.716 41.2408C104.574 41.0375 104.502 40.7935 104.502 40.5088C104.502 40.1835 104.594 39.9191 104.777 39.7158C104.98 39.4921 105.336 39.2888 105.844 39.1058L114.293 36.2693C115.045 35.9846 115.645 35.7813 116.092 35.6593C116.56 35.5373 117.007 35.4763 117.434 35.4763C118.085 35.4763 118.573 35.6695 118.898 36.0558C119.244 36.4218 119.417 36.8793 119.417 37.4283ZM118.41 44.6873L117.068 43.2843L118.075 42.3388C120.698 39.8378 123.016 38.079 125.029 37.0623C127.062 36.0253 128.913 35.5068 130.58 35.5068C133 35.5068 134.941 36.2998 136.405 37.8858C137.869 39.4515 138.601 41.6271 138.601 44.4128V60.3033C138.601 60.9133 138.652 61.3505 138.754 61.6148C138.856 61.8588 139.039 62.0418 139.303 62.1638L139.974 62.4383C140.482 62.723 140.736 63.1297 140.736 63.6583C140.736 64.553 140.177 65.0003 139.059 65.0003H125.7C124.622 65.0003 124.083 64.553 124.083 63.6583C124.083 63.1297 124.338 62.7331 124.846 62.4688L125.517 62.1943C125.842 62.052 126.066 61.8283 126.188 61.5233C126.31 61.2183 126.371 60.7303 126.371 60.0593V46.0293C126.371 44.789 126.096 43.8435 125.547 43.1928C124.998 42.5218 124.226 42.1863 123.229 42.1863C122.538 42.1863 121.877 42.3185 121.247 42.5828C120.617 42.8268 120.027 43.203 119.478 43.7113L118.41 44.6873ZM137.595 44.6873L136.253 43.2843L137.198 42.2778C139.516 39.9191 141.601 38.201 143.451 37.1233C145.301 36.0456 147.07 35.5068 148.758 35.5068C151.117 35.5068 153.008 36.2998 154.431 37.8858C155.875 39.4515 156.729 41.6271 156.993 44.4128L158.609 60.2423C158.691 60.893 158.772 61.3505 158.853 61.6148C158.955 61.8791 159.128 62.0723 159.372 62.1943L160.043 62.4383C160.389 62.5806 160.633 62.7636 160.775 62.9873C160.938 63.1906 161.019 63.4346 161.019 63.7193C161.019 64.126 160.887 64.4411 160.622 64.6648C160.378 64.8885 159.972 65.0003 159.402 65.0003H145.433C144.356 65.0003 143.817 64.553 143.817 63.6583C143.817 63.1297 144.071 62.7331 144.579 62.4688L145.25 62.1943C145.576 62.052 145.82 61.8283 145.982 61.5233C146.145 61.198 146.186 60.6998 146.104 60.0288L144.823 46.0293C144.722 44.789 144.417 43.8435 143.908 43.1928C143.4 42.5218 142.648 42.1863 141.651 42.1863C141.123 42.1863 140.594 42.3185 140.065 42.5828C139.537 42.8471 139.049 43.203 138.601 43.6503L137.595 44.6873Z" fill="#214BD8"/>
<path d="M194.211 47.6458C194.211 48.6421 193.936 49.425 193.387 49.9943C192.838 50.5433 192.045 50.8178 191.008 50.8178H172.556V48.4998H180.821C181.675 48.4998 182.102 48.083 182.102 47.2493C182.102 44.1383 181.777 41.922 181.126 40.6003C180.496 39.2583 179.723 38.5873 178.808 38.5873C178.157 38.5873 177.558 38.8618 177.009 39.4108C176.48 39.9598 176.053 40.8341 175.728 42.0338C175.423 43.2335 175.27 44.8195 175.27 46.7918C175.27 50.6551 176.104 53.4815 177.771 55.2708C179.438 57.0602 181.706 57.9548 184.573 57.9548C186.24 57.9548 187.673 57.66 188.873 57.0703C190.073 56.4806 191.018 55.5555 191.71 54.2948C192.096 53.9085 192.391 53.6543 192.594 53.5323C192.818 53.39 193.031 53.3188 193.235 53.3188C193.519 53.3188 193.733 53.4611 193.875 53.7458C194.017 54.0305 194.089 54.3863 194.089 54.8133C194.089 56.7856 193.479 58.6055 192.259 60.2728C191.059 61.9401 189.392 63.272 187.257 64.2683C185.142 65.2646 182.692 65.7628 179.906 65.7628C176.917 65.7628 174.243 65.163 171.885 63.9633C169.526 62.7433 167.665 61.0556 166.303 58.9003C164.941 56.7246 164.26 54.2033 164.26 51.3363C164.26 48.1033 164.9 45.3075 166.181 42.9488C167.462 40.5901 169.302 38.7601 171.702 37.4588C174.121 36.1575 177.019 35.5068 180.394 35.5068C183.383 35.5068 185.904 36.0355 187.958 37.0928C190.012 38.1501 191.567 39.5938 192.625 41.4238C193.682 43.2335 194.211 45.3075 194.211 47.6458Z" fill="#214BD8"/>
<path d="M219.571 60.4253L219.297 60.3643V26.7228C219.297 26.2348 219.226 25.8891 219.083 25.6858C218.941 25.4825 218.727 25.3401 218.443 25.2588L217.589 25.1368C217.263 25.0351 217.019 24.8928 216.857 24.7098C216.714 24.5268 216.643 24.2828 216.643 23.9778C216.643 23.6321 216.735 23.3678 216.918 23.1848C217.121 22.9815 217.477 22.7781 217.985 22.5748L226.434 19.7383C227.206 19.4536 227.816 19.2503 228.264 19.1283C228.711 19.0063 229.148 18.9453 229.575 18.9453C230.226 18.9453 230.714 19.1283 231.039 19.4943C231.385 19.8603 231.558 20.3178 231.558 20.8668V60.1508C231.558 60.8015 231.619 61.2691 231.741 61.5538C231.863 61.8385 232.066 62.0316 232.351 62.1333L233.205 62.4383C233.55 62.5806 233.794 62.7636 233.937 62.9873C234.099 63.1906 234.181 63.4346 234.181 63.7193C234.181 64.126 234.049 64.4411 233.784 64.6648C233.54 64.8885 233.134 65.0003 232.564 65.0003H223.201C222.245 65.0003 221.401 64.6546 220.669 63.9633C219.937 63.272 219.571 62.4485 219.571 61.4928V60.4253ZM198.648 51.6413C198.648 48.4083 199.289 45.582 200.57 43.1623C201.851 40.7426 203.599 38.8618 205.816 37.5198C208.052 36.1778 210.594 35.5068 213.441 35.5068C215.698 35.5068 217.609 35.944 219.175 36.8183C220.74 37.6926 222.072 39.0448 223.17 40.8748L220.73 42.4608C219.998 41.3018 219.266 40.4681 218.534 39.9598C217.823 39.4515 217.009 39.1973 216.094 39.1973C215.118 39.1973 214.264 39.543 213.532 40.2343C212.821 40.9256 212.261 42.0948 211.855 43.7418C211.468 45.3685 211.275 47.6051 211.275 50.4518C211.275 52.9935 211.468 55.0268 211.855 56.5518C212.241 58.0768 212.77 59.185 213.441 59.8763C214.112 60.5473 214.884 60.8828 215.759 60.8828C216.796 60.8828 217.741 60.5473 218.595 59.8763C219.449 59.185 220.252 58.1073 221.005 56.6433L222.591 58.1683C221.066 60.5676 219.358 62.4383 217.467 63.7803C215.576 65.102 213.41 65.7628 210.97 65.7628C208.571 65.7628 206.446 65.1833 204.596 64.0243C202.745 62.845 201.292 61.198 200.234 59.0833C199.177 56.9483 198.648 54.4676 198.648 51.6413Z" fill="#214BD8"/>
<path d="M253.341 37.3978V60.1508C253.341 60.8015 253.402 61.2691 253.524 61.5538C253.646 61.8385 253.849 62.0316 254.134 62.1333L254.957 62.4383C255.323 62.5806 255.577 62.7636 255.72 62.9873C255.882 63.1906 255.964 63.4346 255.964 63.7193C255.964 64.126 255.831 64.4411 255.567 64.6648C255.303 64.8885 254.896 65.0003 254.347 65.0003H240.073C239.504 65.0003 239.087 64.8885 238.823 64.6648C238.579 64.4411 238.457 64.126 238.457 63.7193C238.457 63.4346 238.528 63.1906 238.67 62.9873C238.833 62.7636 239.087 62.5806 239.433 62.4383L240.287 62.1333C240.571 62.0316 240.775 61.8385 240.897 61.5538C241.019 61.2691 241.08 60.8015 241.08 60.1508V43.2233C241.08 42.7556 241.008 42.4201 240.866 42.2168C240.724 41.9931 240.5 41.8508 240.195 41.7898L239.372 41.6678C239.026 41.5661 238.782 41.4238 238.64 41.2408C238.497 41.0375 238.426 40.7935 238.426 40.5088C238.426 40.1631 238.518 39.8886 238.701 39.6853C238.904 39.482 239.26 39.2888 239.768 39.1058L248.217 36.2693C249.01 35.9846 249.63 35.7813 250.077 35.6593C250.524 35.5373 250.931 35.4763 251.297 35.4763C251.968 35.4763 252.476 35.6593 252.822 36.0253C253.168 36.3913 253.341 36.8488 253.341 37.3978ZM246.722 33.1278C244.587 33.1278 242.889 32.5788 241.629 31.4808C240.368 30.3625 239.738 28.9188 239.738 27.1498C239.738 25.3605 240.368 23.927 241.629 22.8493C242.889 21.7513 244.587 21.2023 246.722 21.2023C248.857 21.2023 250.555 21.7513 251.816 22.8493C253.097 23.927 253.737 25.3605 253.737 27.1498C253.737 28.9188 253.097 30.3625 251.816 31.4808C250.555 32.5788 248.857 33.1278 246.722 33.1278Z" fill="#214BD8"/>
<path d="M303.647 37.3978C303.647 39.3091 303.2 41.0578 302.305 42.6438C301.41 44.2298 300.129 45.5616 298.462 46.6393C296.795 47.717 294.792 48.4693 292.453 48.8963C291.559 49.0386 290.735 49.2013 289.983 49.3843C289.231 49.5673 288.468 49.73 287.695 49.8723C286.923 49.9943 286.059 50.0553 285.103 50.0553C283.659 50.0553 282.388 49.9638 281.29 49.7808C280.213 49.5775 279.257 49.303 278.423 48.9573C277.59 48.6116 276.817 48.205 276.105 47.7373L276.258 45.0228C276.827 45.4498 277.397 45.8056 277.966 46.0903C278.556 46.3546 279.196 46.558 279.887 46.7003C280.579 46.8223 281.362 46.8833 282.236 46.8833C284.554 46.8833 286.364 46.1716 287.665 44.7483C288.987 43.325 289.647 41.0476 289.647 37.9163C289.647 35.4356 289.22 33.2396 288.366 31.3283C287.533 29.3966 286.394 27.8818 284.95 26.7838C283.527 25.6858 281.931 25.1368 280.162 25.1368H278.942V59.7543C278.942 60.2423 279.044 60.6286 279.247 60.9133C279.45 61.198 279.786 61.4318 280.253 61.6148L281.382 61.9808C281.87 62.1841 282.195 62.4078 282.358 62.6518C282.521 62.8755 282.602 63.1805 282.602 63.5668C282.602 64.5225 281.992 65.0003 280.772 65.0003H262.96C262.33 65.0003 261.862 64.8682 261.557 64.6038C261.272 64.3395 261.13 63.9938 261.13 63.5668C261.13 62.7941 261.526 62.2655 262.319 61.9808L263.661 61.6148C264.19 61.4318 264.576 61.198 264.82 60.9133C265.064 60.6286 265.186 60.2423 265.186 59.7543V27.3328C265.186 26.9058 265.054 26.5703 264.79 26.3263C264.546 26.062 264.17 25.8485 263.661 25.6858L262.319 25.3198C261.526 25.0351 261.13 24.5065 261.13 23.7338C261.13 23.2865 261.272 22.9408 261.557 22.6968C261.862 22.4325 262.33 22.3003 262.96 22.3003H280.528C285.408 22.3003 289.576 22.9306 293.033 24.1913C296.49 25.452 299.123 27.2108 300.932 29.4678C302.742 31.7248 303.647 34.3681 303.647 37.3978ZM282.693 48.7133L295.808 47.2493L303.22 59.9983C303.545 60.5676 303.85 61.0048 304.135 61.3098C304.42 61.5945 304.796 61.8385 305.263 62.0418C305.65 62.2045 305.934 62.4078 306.117 62.6518C306.3 62.8755 306.392 63.1805 306.392 63.5668C306.392 63.9938 306.239 64.3395 305.934 64.6038C305.629 64.8682 305.162 65.0003 304.531 65.0003H288.549C287.39 65.0003 286.811 64.5225 286.811 63.5668C286.811 63.3228 286.862 63.1195 286.963 62.9568C287.085 62.7738 287.279 62.601 287.543 62.4383L288.061 62.1333C288.488 61.869 288.753 61.6047 288.854 61.3403C288.956 61.076 288.854 60.649 288.549 60.0593L282.693 48.7133Z" fill="#214BD8"/>
<path d="M328.131 61.2793V60.6998L327.307 60.8523V40.2343C327.307 39.482 327.104 38.8821 326.697 38.4348C326.311 37.9875 325.782 37.7638 325.111 37.7638C324.542 37.7638 324.054 37.9163 323.647 38.2213C323.241 38.5263 323.037 38.9533 323.037 39.5023V42.7963C323.037 44.3823 322.478 45.6633 321.36 46.6393C320.241 47.595 318.686 48.0728 316.693 48.0728C315.087 48.0728 313.857 47.7068 313.003 46.9748C312.169 46.2428 311.752 45.1956 311.752 43.8333C311.752 42.5726 312.322 41.3018 313.46 40.0208C314.599 38.7398 316.307 37.6825 318.584 36.8488C320.862 35.9948 323.708 35.5678 327.124 35.5678C331.293 35.5678 334.393 36.3405 336.427 37.8858C338.48 39.4311 339.507 41.5865 339.507 44.3518V59.1138C339.507 59.5408 339.609 59.8763 339.812 60.1203C340.016 60.3643 340.3 60.4863 340.666 60.4863C340.992 60.4863 341.276 60.3846 341.52 60.1813C341.764 59.978 341.957 59.7137 342.1 59.3883C342.201 59.246 342.303 59.1443 342.405 59.0833C342.527 59.002 342.659 58.9613 342.801 58.9613C343.045 58.9613 343.218 59.0528 343.32 59.2358C343.442 59.3985 343.503 59.6221 343.503 59.9068C343.503 60.6591 343.208 61.4928 342.618 62.4078C342.029 63.3228 341.114 64.1158 339.873 64.7868C338.653 65.4375 337.088 65.7628 335.176 65.7628C332.98 65.7628 331.252 65.3358 329.991 64.4818C328.751 63.6278 328.131 62.5603 328.131 61.2793ZM310.441 58.6563C310.441 55.9723 311.62 53.8678 313.979 52.3428C316.337 50.7975 319.845 50.0248 324.501 50.0248C325.599 50.0248 326.524 50.1163 327.277 50.2993C328.049 50.462 328.7 50.706 329.229 51.0313L328.436 52.8308C327.988 52.5665 327.561 52.3835 327.155 52.2818C326.768 52.1801 326.331 52.1293 325.843 52.1293C324.888 52.1293 324.125 52.5156 323.556 53.2883C323.007 54.0406 322.732 55.159 322.732 56.6433C322.732 58.1276 323.007 59.2358 323.556 59.9678C324.125 60.6998 324.867 61.0658 325.782 61.0658C326.311 61.0658 326.829 60.9133 327.338 60.6083C327.846 60.3033 328.243 59.9475 328.527 59.5408L329.137 61.2183C328.222 62.6823 326.88 63.8108 325.111 64.6038C323.363 65.3765 321.482 65.7628 319.469 65.7628C316.785 65.7628 314.609 65.0918 312.942 63.7498C311.274 62.3875 310.441 60.6896 310.441 58.6563Z" fill="#214BD8"/>
<path d="M361.828 37.3978V60.1508C361.828 60.8015 361.889 61.2691 362.011 61.5538C362.133 61.8181 362.336 62.0113 362.621 62.1333L363.414 62.4688C363.942 62.7331 364.207 63.1297 364.207 63.6583C364.207 64.553 363.658 65.0003 362.56 65.0003H348.56C347.991 65.0003 347.574 64.8885 347.31 64.6648C347.066 64.4411 346.944 64.126 346.944 63.7193C346.944 63.4346 347.015 63.1906 347.157 62.9873C347.32 62.7636 347.574 62.5806 347.92 62.4383L348.774 62.1333C349.058 62.0316 349.262 61.8385 349.384 61.5538C349.506 61.2691 349.567 60.8015 349.567 60.1508V43.2233C349.567 42.7556 349.495 42.4201 349.353 42.2168C349.211 41.9931 348.987 41.8508 348.682 41.7898L347.859 41.6678C347.513 41.5661 347.269 41.4238 347.127 41.2408C346.984 41.0375 346.913 40.7935 346.913 40.5088C346.913 40.1631 347.005 39.8886 347.188 39.6853C347.391 39.482 347.747 39.2888 348.255 39.1058L356.704 36.2693C357.456 35.9846 358.056 35.7813 358.503 35.6593C358.971 35.5373 359.418 35.4763 359.845 35.4763C360.496 35.4763 360.984 35.6593 361.309 36.0253C361.655 36.3913 361.828 36.8488 361.828 37.3978ZM360.791 44.6568L359.449 43.2233L360.486 42.3083C363.088 39.9293 365.345 38.201 367.257 37.1233C369.168 36.0456 370.917 35.5068 372.503 35.5068C374.861 35.5068 376.701 36.2795 378.023 37.8248C379.345 39.3498 380.138 41.4543 380.402 44.1383L382.019 60.1508C382.08 60.8015 382.151 61.2691 382.232 61.5538C382.313 61.8385 382.507 62.0316 382.812 62.1333L383.635 62.4383C384.001 62.5806 384.255 62.7636 384.398 62.9873C384.54 63.1906 384.611 63.4346 384.611 63.7193C384.611 64.126 384.479 64.4411 384.215 64.6648C383.971 64.8885 383.564 65.0003 382.995 65.0003H368.812C367.714 65.0003 367.165 64.553 367.165 63.6583C367.165 63.1297 367.429 62.7331 367.958 62.4688L368.751 62.1333C369.056 62.0113 369.28 61.8181 369.422 61.5538C369.564 61.2691 369.605 60.8015 369.544 60.1508L368.233 45.7548C368.111 44.5551 367.826 43.6605 367.379 43.0708C366.952 42.4811 366.281 42.1863 365.366 42.1863C364.776 42.1863 364.176 42.3286 363.566 42.6133C362.976 42.8776 362.417 43.2436 361.889 43.7113L360.791 44.6568Z" fill="#214BD8"/>
<path d="M389.587 65.0003C389.018 65.0003 388.601 64.8885 388.337 64.6648C388.093 64.4411 387.971 64.126 387.971 63.7193C387.971 63.4346 388.042 63.1906 388.184 62.9873C388.347 62.7636 388.601 62.5806 388.947 62.4383L389.801 62.1333C390.086 62.0316 390.289 61.8385 390.411 61.5538C390.533 61.2691 390.594 60.8015 390.594 60.1508V26.7228C390.594 26.2348 390.523 25.8891 390.38 25.6858C390.238 25.4825 390.014 25.3401 389.709 25.2588L388.886 25.1368C388.54 25.0351 388.296 24.8928 388.154 24.7098C388.012 24.5268 387.94 24.2828 387.94 23.9778C387.94 23.6321 388.032 23.3678 388.215 23.1848C388.418 22.9815 388.774 22.7781 389.282 22.5748L397.731 19.7383C398.483 19.4536 399.083 19.2503 399.53 19.1283C399.998 19.0063 400.445 18.9453 400.872 18.9453C401.523 18.9453 402.011 19.1283 402.336 19.4943C402.682 19.8603 402.855 20.3178 402.855 20.8668V60.1508C402.855 60.8015 402.916 61.2691 403.038 61.5538C403.16 61.8181 403.363 62.0113 403.648 62.1333L404.441 62.4688C404.97 62.7331 405.234 63.1297 405.234 63.6583C405.234 64.553 404.685 65.0003 403.587 65.0003H389.587ZM399.866 52.7393L411.242 42.8573C412.056 42.1253 412.371 41.3933 412.188 40.6613C412.025 39.9293 411.456 39.4006 410.48 39.0753L409.565 38.7703C409.26 38.628 409.046 38.4653 408.924 38.2823C408.802 38.0993 408.741 37.8756 408.741 37.6113C408.741 37.2046 408.884 36.8895 409.168 36.6658C409.453 36.4421 409.829 36.3303 410.297 36.3303H422.68C423.168 36.3303 423.544 36.4421 423.808 36.6658C424.093 36.8691 424.235 37.164 424.235 37.5503C424.235 37.9163 424.124 38.2213 423.9 38.4653C423.676 38.7093 423.198 38.933 422.466 39.1363C421.104 39.482 419.833 39.9903 418.654 40.6613C417.475 41.312 416.194 42.2371 414.811 43.4368L401.055 55.0573L399.866 52.7393ZM411.822 43.3758L422.741 60.6693C423.005 61.076 423.259 61.4013 423.503 61.6453C423.747 61.869 424.042 62.0926 424.388 62.3163C424.734 62.5603 424.998 62.8043 425.181 63.0483C425.384 63.2923 425.486 63.5566 425.486 63.8413C425.486 64.187 425.344 64.4716 425.059 64.6953C424.795 64.8986 424.429 65.0003 423.961 65.0003H408.833C408.426 65.0003 408.091 64.8885 407.826 64.6648C407.582 64.4411 407.46 64.1362 407.46 63.7498C407.46 63.5058 407.511 63.3025 407.613 63.1398C407.735 62.9568 407.918 62.7942 408.162 62.6518L408.955 62.3468C409.321 62.1842 409.534 61.9706 409.595 61.7063C409.656 61.4216 409.504 60.9946 409.138 60.4253L403.587 51.1838L411.822 43.3758Z" fill="#214BD8"/>
</svg>
