<svg width="276" height="52" viewBox="0 0 276 52" fill="none" xmlns="http://www.w3.org/2000/svg">
<path d="M74.4834 0C76.3269 0 77.921 0.356229 79.2658 1.06869C81.2161 2.09284 82.4095 3.88734 82.8459 6.45219H80.2142C79.8936 5.01837 79.2301 3.9764 78.2238 3.32628C77.2174 2.66726 75.9484 2.33775 74.4166 2.33775C72.5998 2.33775 71.068 3.01904 69.8212 4.38161C68.5834 5.74419 67.9644 7.77469 67.9644 10.4731C67.9644 12.8064 68.4765 14.7078 69.5006 16.1772C70.5248 17.6378 72.1946 18.368 74.5101 18.368C76.2823 18.368 77.7473 17.856 78.9051 16.8318C80.0717 15.7987 80.6684 14.1334 80.6951 11.8357H74.5502V9.63153H83.1665V20.1314H81.4566L80.8154 17.6066C79.9159 18.5951 79.1188 19.2809 78.4242 19.6638C77.2575 20.3228 75.7747 20.6524 73.9758 20.6524C71.6514 20.6524 69.652 19.8998 67.9778 18.3948C66.1521 16.5067 65.2393 13.9152 65.2393 10.6201C65.2393 7.33386 66.1298 4.72003 67.911 2.77858C69.6031 0.926194 71.7939 0 74.4834 0Z" fill="#8CA1C6"/>
<path d="M94.2995 5.50373C95.3147 5.50373 96.2988 5.74419 97.2517 6.22509C98.2046 6.6971 98.9305 7.31159 99.4292 8.06858C99.9101 8.78994 100.231 9.63153 100.391 10.5933C100.533 11.2524 100.605 12.3032 100.605 13.746H90.1183C90.1628 15.1976 90.5057 16.3643 91.1469 17.2459C91.7881 18.1187 92.7811 18.5551 94.1258 18.5551C95.3815 18.5551 96.3834 18.1409 97.1315 17.3127C97.559 16.8318 97.8618 16.2752 98.0399 15.6429H100.404C100.342 16.1683 100.133 16.7561 99.7765 17.4062C99.4292 18.0474 99.0373 18.5729 98.601 18.9825C97.8707 19.695 96.9668 20.1759 95.8892 20.4253C95.3103 20.5677 94.6557 20.639 93.9255 20.639C92.1443 20.639 90.6348 19.9933 89.3969 18.702C88.159 17.4018 87.5401 15.585 87.5401 13.2517C87.5401 10.954 88.1635 9.08828 89.4103 7.65446C90.6571 6.22064 92.2868 5.50373 94.2995 5.50373ZM98.1334 11.8357C98.0354 10.7937 97.8083 9.96104 97.4521 9.33764C96.7931 8.1799 95.6932 7.60103 94.1525 7.60103C93.0482 7.60103 92.122 8.00178 91.374 8.8033C90.6259 9.59591 90.2296 10.6067 90.1851 11.8357H98.1334Z" fill="#8CA1C6"/>
<path d="M110.616 18.5818C112.21 18.5818 113.301 17.9806 113.889 16.7784C114.485 15.5672 114.784 14.2224 114.784 12.7441C114.784 11.4082 114.57 10.3217 114.142 9.48459C113.465 8.16654 112.299 7.50752 110.642 7.50752C109.173 7.50752 108.104 8.06858 107.436 9.1907C106.768 10.3128 106.434 11.6665 106.434 13.2517C106.434 14.7746 106.768 16.0436 107.436 17.0589C108.104 18.0741 109.164 18.5818 110.616 18.5818ZM110.709 5.41022C112.553 5.41022 114.111 6.02472 115.385 7.2537C116.658 8.48269 117.295 10.2906 117.295 12.6773C117.295 14.9839 116.734 16.8897 115.612 18.3948C114.49 19.8998 112.749 20.6524 110.389 20.6524C108.42 20.6524 106.857 19.9889 105.7 18.6619C104.542 17.3261 103.963 15.536 103.963 13.2918C103.963 10.8872 104.573 8.97251 105.793 7.54759C107.013 6.12268 108.652 5.41022 110.709 5.41022Z" fill="#8CA1C6"/>
<path d="M121.602 5.82434H123.886V8.29567C124.073 7.81476 124.532 7.23144 125.262 6.5457C125.992 5.85105 126.834 5.50373 127.787 5.50373C127.831 5.50373 127.907 5.50818 128.014 5.51709C128.121 5.526 128.303 5.54381 128.562 5.57052V8.10865C128.419 8.08194 128.285 8.06412 128.161 8.05522C128.045 8.04631 127.916 8.04186 127.773 8.04186C126.562 8.04186 125.632 8.43371 124.981 9.21741C124.331 9.99221 124.006 10.8872 124.006 11.9025V20.1314H121.602V5.82434Z" fill="#8CA1C6"/>
<path d="M137.063 5.57052C138.185 5.57052 139.165 5.8466 140.002 6.39876C140.456 6.71046 140.919 7.16465 141.391 7.76133V5.95792H143.609V18.9692C143.609 20.7859 143.341 22.2198 142.807 23.2706C141.81 25.2121 139.926 26.1828 137.156 26.1828C135.616 26.1828 134.32 25.8355 133.269 25.1408C132.218 24.4551 131.63 23.3775 131.506 21.9081H133.95C134.066 22.5493 134.298 23.0435 134.645 23.3909C135.188 23.9252 136.043 24.1924 137.21 24.1924C139.053 24.1924 140.26 23.5423 140.83 22.242C141.168 21.4761 141.324 20.1091 141.298 18.1409C140.817 18.8712 140.238 19.4145 139.561 19.7707C138.884 20.1269 137.989 20.305 136.876 20.305C135.326 20.305 133.968 19.7573 132.802 18.6619C131.644 17.5576 131.065 15.7364 131.065 13.1983C131.065 10.8026 131.648 8.93243 132.815 7.58767C133.99 6.24291 135.406 5.57052 137.063 5.57052ZM141.391 12.9177C141.391 11.1455 141.026 9.83191 140.296 8.97696C139.565 8.12201 138.635 7.69454 137.504 7.69454C135.812 7.69454 134.654 8.48715 134.031 10.0724C133.701 10.9184 133.536 12.0272 133.536 13.3986C133.536 15.0106 133.861 16.2396 134.511 17.0856C135.17 17.9228 136.052 18.3413 137.156 18.3413C138.884 18.3413 140.1 17.5621 140.803 16.0036C141.195 15.1219 141.391 14.0933 141.391 12.9177Z" fill="#8CA1C6"/>
<path d="M154.568 5.50373C155.583 5.50373 156.567 5.74419 157.52 6.22509C158.473 6.6971 159.199 7.31159 159.698 8.06858C160.179 8.78994 160.499 9.63153 160.66 10.5933C160.802 11.2524 160.873 12.3032 160.873 13.746H150.387C150.431 15.1976 150.774 16.3643 151.415 17.2459C152.057 18.1187 153.05 18.5551 154.394 18.5551C155.65 18.5551 156.652 18.1409 157.4 17.3127C157.828 16.8318 158.13 16.2752 158.308 15.6429H160.673C160.611 16.1683 160.401 16.7561 160.045 17.4062C159.698 18.0474 159.306 18.5729 158.869 18.9825C158.139 19.695 157.235 20.1759 156.158 20.4253C155.579 20.5677 154.924 20.639 154.194 20.639C152.413 20.639 150.903 19.9933 149.665 18.702C148.428 17.4018 147.809 15.585 147.809 13.2517C147.809 10.954 148.432 9.08828 149.679 7.65446C150.926 6.22064 152.555 5.50373 154.568 5.50373ZM158.402 11.8357C158.304 10.7937 158.077 9.96104 157.721 9.33764C157.062 8.1799 155.962 7.60103 154.421 7.60103C153.317 7.60103 152.391 8.00178 151.643 8.8033C150.894 9.59591 150.498 10.6067 150.454 11.8357H158.402Z" fill="#8CA1C6"/>
<path d="M176.246 13.7994C176.309 14.9126 176.571 15.8165 177.034 16.5112C177.916 17.8114 179.47 18.4615 181.697 18.4615C182.694 18.4615 183.602 18.3191 184.422 18.0341C186.007 17.4819 186.8 16.4934 186.8 15.0685C186.8 13.9998 186.466 13.2383 185.798 12.7842C185.121 12.3389 184.061 11.9515 182.618 11.622L179.96 11.0208C178.223 10.629 176.994 10.197 176.273 9.72504C175.026 8.90571 174.403 7.68118 174.403 6.05143C174.403 4.2881 175.013 2.84092 176.233 1.7099C177.453 0.578871 179.181 0.0133586 181.416 0.0133586C183.473 0.0133586 185.219 0.512079 186.653 1.50952C188.095 2.49805 188.817 4.08327 188.817 6.26517H186.319C186.185 5.2143 185.9 4.40833 185.464 3.84727C184.653 2.82311 183.277 2.31103 181.336 2.31103C179.769 2.31103 178.642 2.64054 177.956 3.29957C177.27 3.95859 176.928 4.72448 176.928 5.59724C176.928 6.55906 177.328 7.26261 178.13 7.7079C178.655 7.99288 179.844 8.34911 181.697 8.77658L184.448 9.40443C185.775 9.70723 186.8 10.1213 187.521 10.6468C188.768 11.5641 189.391 12.8955 189.391 14.641C189.391 16.814 188.599 18.368 187.013 19.3031C185.437 20.2382 183.602 20.7058 181.51 20.7058C179.069 20.7058 177.159 20.0824 175.779 18.8356C174.398 17.5977 173.722 15.919 173.748 13.7994H176.246Z" fill="#8CA1C6"/>
<path d="M194.286 1.83012H196.717V5.82434H199.001V7.78805H196.717V17.1257C196.717 17.6244 196.886 17.9584 197.225 18.1276C197.412 18.2255 197.723 18.2745 198.16 18.2745C198.275 18.2745 198.4 18.2745 198.534 18.2745C198.667 18.2656 198.823 18.2523 199.001 18.2345V20.1314C198.725 20.2115 198.436 20.2694 198.133 20.305C197.839 20.3407 197.519 20.3585 197.171 20.3585C196.049 20.3585 195.288 20.0735 194.887 19.5035C194.486 18.9246 194.286 18.1766 194.286 17.2593V7.78805H192.349V5.82434H194.286V1.83012Z" fill="#8CA1C6"/>
<path d="M202.854 5.82434H205.138V8.29567C205.325 7.81476 205.784 7.23144 206.514 6.5457C207.244 5.85105 208.086 5.50373 209.039 5.50373C209.083 5.50373 209.159 5.50818 209.266 5.51709C209.373 5.526 209.555 5.54381 209.814 5.57052V8.10865C209.671 8.08194 209.538 8.06412 209.413 8.05522C209.297 8.04631 209.168 8.04186 209.026 8.04186C207.814 8.04186 206.884 8.43371 206.234 9.21741C205.584 9.99221 205.258 10.8872 205.258 11.9025V20.1314H202.854V5.82434Z" fill="#8CA1C6"/>
<path d="M219.224 5.50373C220.239 5.50373 221.223 5.74419 222.176 6.22509C223.129 6.6971 223.854 7.31159 224.353 8.06858C224.834 8.78994 225.155 9.63153 225.315 10.5933C225.458 11.2524 225.529 12.3032 225.529 13.746H215.042C215.087 15.1976 215.43 16.3643 216.071 17.2459C216.712 18.1187 217.705 18.5551 219.05 18.5551C220.306 18.5551 221.307 18.1409 222.056 17.3127C222.483 16.8318 222.786 16.2752 222.964 15.6429H225.328C225.266 16.1683 225.057 16.7561 224.701 17.4062C224.353 18.0474 223.961 18.5729 223.525 18.9825C222.795 19.695 221.891 20.1759 220.813 20.4253C220.234 20.5677 219.58 20.639 218.849 20.639C217.068 20.639 215.559 19.9933 214.321 18.702C213.083 17.4018 212.464 15.585 212.464 13.2517C212.464 10.954 213.087 9.08828 214.334 7.65446C215.581 6.22064 217.211 5.50373 219.224 5.50373ZM223.057 11.8357C222.959 10.7937 222.732 9.96104 222.376 9.33764C221.717 8.1799 220.617 7.60103 219.077 7.60103C217.972 7.60103 217.046 8.00178 216.298 8.8033C215.55 9.59591 215.154 10.6067 215.109 11.8357H223.057Z" fill="#8CA1C6"/>
<path d="M235.82 5.50373C236.835 5.50373 237.82 5.74419 238.772 6.22509C239.725 6.6971 240.451 7.31159 240.95 8.06858C241.431 8.78994 241.751 9.63153 241.912 10.5933C242.054 11.2524 242.125 12.3032 242.125 13.746H231.639C231.684 15.1976 232.026 16.3643 232.668 17.2459C233.309 18.1187 234.302 18.5551 235.647 18.5551C236.902 18.5551 237.904 18.1409 238.652 17.3127C239.08 16.8318 239.382 16.2752 239.561 15.6429H241.925C241.863 16.1683 241.653 16.7561 241.297 17.4062C240.95 18.0474 240.558 18.5729 240.122 18.9825C239.391 19.695 238.487 20.1759 237.41 20.4253C236.831 20.5677 236.176 20.639 235.446 20.639C233.665 20.639 232.156 19.9933 230.918 18.702C229.68 17.4018 229.061 15.585 229.061 13.2517C229.061 10.954 229.684 9.08828 230.931 7.65446C232.178 6.22064 233.808 5.50373 235.82 5.50373ZM239.654 11.8357C239.556 10.7937 239.329 9.96104 238.973 9.33764C238.314 8.1799 237.214 7.60103 235.673 7.60103C234.569 7.60103 233.643 8.00178 232.895 8.8033C232.147 9.59591 231.75 10.6067 231.706 11.8357H239.654Z" fill="#8CA1C6"/>
<path d="M246.94 1.83012H249.371V5.82434H251.655V7.78805H249.371V17.1257C249.371 17.6244 249.54 17.9584 249.879 18.1276C250.066 18.2255 250.377 18.2745 250.814 18.2745C250.93 18.2745 251.054 18.2745 251.188 18.2745C251.321 18.2656 251.477 18.2523 251.655 18.2345V20.1314C251.379 20.2115 251.09 20.2694 250.787 20.305C250.493 20.3407 250.173 20.3585 249.825 20.3585C248.703 20.3585 247.942 20.0735 247.541 19.5035C247.14 18.9246 246.94 18.1766 246.94 17.2593V7.78805H245.003V5.82434H246.94V1.83012Z" fill="#8CA1C6"/>
<path d="M69.7678 50.6465H65.9339V30.9559H71.9185L75.4986 46.4385L79.052 30.9559H84.9699V50.6465H81.136V37.328C81.136 36.945 81.1404 36.4107 81.1493 35.7249C81.1582 35.0303 81.1627 34.4959 81.1627 34.1219L77.4356 50.6465H73.4414L69.7411 34.1219C69.7411 34.4959 69.7455 35.0303 69.7545 35.7249C69.7634 36.4107 69.7678 36.945 69.7678 37.328V50.6465Z" fill="#8CA1C6"/>
<path d="M102.315 46.3717C102.217 47.2356 101.767 48.1128 100.965 49.0034C99.7186 50.4194 97.9731 51.1274 95.7289 51.1274C93.8765 51.1274 92.2423 50.5307 90.8263 49.3373C89.4103 48.144 88.7023 46.2025 88.7023 43.513C88.7023 40.9927 89.339 39.0601 90.6125 37.7154C91.895 36.3706 93.5559 35.6982 95.5953 35.6982C96.8065 35.6982 97.8974 35.9253 98.8681 36.3795C99.8388 36.8337 100.64 37.5506 101.273 38.5302C101.843 39.3941 102.212 40.396 102.381 41.5359C102.479 42.2038 102.519 43.1657 102.502 44.4214H92.5362C92.5896 45.8819 93.0482 46.9061 93.9121 47.4938C94.4375 47.859 95.0698 48.0415 95.809 48.0415C96.5927 48.0415 97.2295 47.8189 97.7193 47.3736C97.9865 47.1332 98.2225 46.7992 98.4273 46.3717H102.315ZM98.5475 41.91C98.4852 40.9036 98.1779 40.1422 97.6258 39.6256C97.0825 39.1002 96.4057 38.8375 95.5953 38.8375C94.7136 38.8375 94.0279 39.1136 93.5381 39.6657C93.0571 40.2179 92.7544 40.9659 92.6297 41.91H98.5475Z" fill="#8CA1C6"/>
<path d="M119.699 30.9826V50.6465H115.999V48.6293C115.456 49.4932 114.837 50.121 114.142 50.5129C113.448 50.9047 112.584 51.1006 111.551 51.1006C109.85 51.1006 108.416 50.4149 107.249 49.0434C106.092 47.663 105.513 45.8953 105.513 43.7401C105.513 41.2554 106.083 39.3006 107.223 37.8757C108.371 36.4507 109.903 35.7383 111.818 35.7383C112.7 35.7383 113.483 35.9342 114.169 36.3261C114.855 36.709 115.411 37.2434 115.839 37.9291V30.9826H119.699ZM109.44 43.4595C109.44 44.8043 109.707 45.8774 110.242 46.679C110.767 47.4894 111.569 47.8946 112.646 47.8946C113.724 47.8946 114.543 47.4938 115.104 46.6923C115.665 45.8908 115.946 44.8533 115.946 43.5798C115.946 41.7986 115.496 40.5251 114.597 39.7592C114.044 39.2961 113.403 39.0646 112.673 39.0646C111.56 39.0646 110.74 39.4876 110.215 40.3336C109.698 41.1708 109.44 42.2127 109.44 43.4595Z" fill="#8CA1C6"/>
<path d="M128.455 36.0856V50.6465H124.594V36.0856H128.455ZM128.455 30.8357V34.349H124.594V30.8357H128.455Z" fill="#8CA1C6"/>
<path d="M146.12 41.3088H142.219C142.148 40.7656 141.966 40.2758 141.672 39.8394C141.244 39.2516 140.581 38.9577 139.681 38.9577C138.399 38.9577 137.522 39.5945 137.05 40.868C136.8 41.5448 136.676 42.4443 136.676 43.5664C136.676 44.6351 136.8 45.4945 137.05 46.1446C137.504 47.3558 138.359 47.9614 139.614 47.9614C140.505 47.9614 141.137 47.7209 141.511 47.24C141.885 46.7591 142.112 46.1357 142.193 45.3698H146.08C145.991 46.5276 145.572 47.623 144.824 48.656C143.631 50.3214 141.863 51.1541 139.521 51.1541C137.179 51.1541 135.455 50.4594 134.351 49.0701C133.247 47.6809 132.695 45.8774 132.695 43.6599C132.695 41.1574 133.305 39.2115 134.525 37.8222C135.745 36.4329 137.428 35.7383 139.574 35.7383C141.4 35.7383 142.892 36.148 144.049 36.9673C145.216 37.7866 145.906 39.2338 146.12 41.3088Z" fill="#8CA1C6"/>
<path d="M150.667 37.6619C151.674 36.3795 153.401 35.7383 155.85 35.7383C157.445 35.7383 158.861 36.0544 160.098 36.6867C161.336 37.3191 161.955 38.5124 161.955 40.2668V46.9461C161.955 47.4092 161.964 47.9703 161.982 48.6293C162.009 49.128 162.084 49.4664 162.209 49.6446C162.334 49.8227 162.521 49.9696 162.77 50.0854V50.6465H158.629C158.513 50.3526 158.433 50.0765 158.389 49.8182C158.344 49.56 158.308 49.2661 158.282 48.9366C157.756 49.5065 157.151 49.9919 156.465 50.3926C155.646 50.8646 154.719 51.1006 153.686 51.1006C152.368 51.1006 151.277 50.7266 150.414 49.9785C149.559 49.2215 149.131 48.1529 149.131 46.7725C149.131 44.9824 149.821 43.6866 151.202 42.8851C151.959 42.4487 153.072 42.137 154.541 41.95L155.837 41.7897C156.541 41.7007 157.044 41.5893 157.347 41.4558C157.89 41.2242 158.161 40.8635 158.161 40.3737C158.161 39.777 157.952 39.3674 157.534 39.1447C157.124 38.9132 156.518 38.7974 155.717 38.7974C154.817 38.7974 154.181 39.02 153.807 39.4653C153.539 39.7948 153.361 40.2401 153.272 40.8012H149.599C149.679 39.5277 150.035 38.4812 150.667 37.6619ZM153.499 47.8946C153.856 48.1885 154.292 48.3354 154.808 48.3354C155.628 48.3354 156.38 48.095 157.066 47.6141C157.761 47.1332 158.121 46.2559 158.148 44.9824V43.5664C157.908 43.7178 157.663 43.8425 157.413 43.9405C157.173 44.0295 156.839 44.1141 156.412 44.1943L155.557 44.3546C154.755 44.4971 154.181 44.6707 153.833 44.8756C153.246 45.2229 152.952 45.7617 152.952 46.4919C152.952 47.1421 153.134 47.6096 153.499 47.8946Z" fill="#8CA1C6"/>
<path d="M166.796 30.9559H170.604V50.6465H166.796V30.9559Z" fill="#8CA1C6"/>
<path d="M198.881 49.177C197.412 50.5218 195.533 51.1942 193.244 51.1942C190.412 51.1942 188.185 50.2858 186.564 48.469C184.944 46.6433 184.133 44.1408 184.133 40.9615C184.133 37.5239 185.055 34.8744 186.898 33.0131C188.501 31.3923 190.541 30.5819 193.017 30.5819C196.33 30.5819 198.752 31.6684 200.284 33.8414C201.13 35.0615 201.584 36.286 201.646 37.515H197.532C197.265 36.571 196.922 35.8585 196.503 35.3776C195.755 34.5227 194.646 34.0952 193.177 34.0952C191.681 34.0952 190.501 34.7008 189.637 35.912C188.773 37.1142 188.341 38.8197 188.341 41.0283C188.341 43.2369 188.795 44.8934 189.704 45.9977C190.621 47.0931 191.783 47.6408 193.19 47.6408C194.633 47.6408 195.733 47.1688 196.49 46.2248C196.908 45.7171 197.256 44.9557 197.532 43.9405H201.606C201.25 46.0867 200.342 47.8323 198.881 49.177Z" fill="#8CA1C6"/>
<path d="M218.283 46.3717C218.185 47.2356 217.735 48.1128 216.934 49.0034C215.687 50.4194 213.942 51.1274 211.697 51.1274C209.845 51.1274 208.211 50.5307 206.795 49.3373C205.379 48.144 204.671 46.2025 204.671 43.513C204.671 40.9927 205.307 39.0601 206.581 37.7154C207.863 36.3706 209.524 35.6982 211.564 35.6982C212.775 35.6982 213.866 35.9253 214.837 36.3795C215.807 36.8337 216.609 37.5506 217.241 38.5302C217.811 39.3941 218.181 40.396 218.35 41.5359C218.448 42.2038 218.488 43.1657 218.47 44.4214H208.505C208.558 45.8819 209.017 46.9061 209.881 47.4938C210.406 47.859 211.038 48.0415 211.777 48.0415C212.561 48.0415 213.198 47.8189 213.688 47.3736C213.955 47.1332 214.191 46.7992 214.396 46.3717H218.283ZM214.516 41.91C214.454 40.9036 214.146 40.1422 213.594 39.6256C213.051 39.1002 212.374 38.8375 211.564 38.8375C210.682 38.8375 209.996 39.1136 209.506 39.6657C209.026 40.2179 208.723 40.9659 208.598 41.91H214.516Z" fill="#8CA1C6"/>
<path d="M229.269 38.9043C227.978 38.9043 227.092 39.452 226.611 40.5474C226.361 41.1262 226.237 41.8654 226.237 42.7649V50.6465H222.443V36.1123H226.117V38.2363C226.606 37.4883 227.069 36.9495 227.506 36.62C228.29 36.0322 229.283 35.7383 230.485 35.7383C231.99 35.7383 233.219 36.1346 234.172 36.9272C235.134 37.7109 235.614 39.0156 235.614 40.8413V50.6465H231.714V41.7897C231.714 41.0238 231.611 40.4361 231.407 40.0264C231.032 39.2783 230.32 38.9043 229.269 38.9043Z" fill="#8CA1C6"/>
<path d="M247.175 47.9347V50.78L245.372 50.8468C243.573 50.9092 242.344 50.5975 241.685 49.9117C241.257 49.4754 241.043 48.803 241.043 47.8946V38.931H239.013V36.2192H241.043V32.1582H244.811V36.2192H247.175V38.931H244.811V46.6255C244.811 47.2222 244.886 47.5962 245.038 47.7476C245.189 47.8901 245.652 47.9614 246.427 47.9614C246.543 47.9614 246.663 47.9614 246.788 47.9614C246.921 47.9525 247.05 47.9436 247.175 47.9347Z" fill="#8CA1C6"/>
<path d="M263.451 46.3717C263.353 47.2356 262.903 48.1128 262.102 49.0034C260.855 50.4194 259.11 51.1274 256.865 51.1274C255.013 51.1274 253.379 50.5307 251.963 49.3373C250.547 48.144 249.839 46.2025 249.839 43.513C249.839 40.9927 250.475 39.0601 251.749 37.7154C253.031 36.3706 254.692 35.6982 256.732 35.6982C257.943 35.6982 259.034 35.9253 260.005 36.3795C260.975 36.8337 261.777 37.5506 262.409 38.5302C262.979 39.3941 263.349 40.396 263.518 41.5359C263.616 42.2038 263.656 43.1657 263.638 44.4214H253.673C253.726 45.8819 254.185 46.9061 255.049 47.4938C255.574 47.859 256.206 48.0415 256.945 48.0415C257.729 48.0415 258.366 47.8189 258.856 47.3736C259.123 47.1332 259.359 46.7992 259.564 46.3717H263.451ZM259.684 41.91C259.622 40.9036 259.314 40.1422 258.762 39.6256C258.219 39.1002 257.542 38.8375 256.732 38.8375C255.85 38.8375 255.164 39.1136 254.674 39.6657C254.194 40.2179 253.891 40.9659 253.766 41.91H259.684Z" fill="#8CA1C6"/>
<path d="M274.905 39.5989C273.373 39.5989 272.344 40.0976 271.819 41.0951C271.525 41.6561 271.378 42.52 271.378 43.6866V50.6465H267.544V36.0856H271.178V38.6237C271.765 37.653 272.278 36.9895 272.714 36.6333C273.426 36.0366 274.353 35.7383 275.492 35.7383C275.564 35.7383 275.622 35.7427 275.666 35.7516C275.72 35.7516 275.831 35.7561 276 35.765V39.6657C275.76 39.639 275.546 39.6212 275.359 39.6123C275.172 39.6034 275.02 39.5989 274.905 39.5989Z" fill="#8CA1C6"/>
<path d="M0 0H10.4926C15.7393 0 19.9926 4.2533 19.9926 9.5V19.9926H9.50001C4.2533 19.9926 0 15.7393 0 10.4926V0Z" fill="#8CA1C6"/>
<path d="M19.9922 22.0977L19.9922 42.0605C19.9922 47.3072 15.7389 51.5605 10.4922 51.5605L-0.000455237 51.5605L-0.000454364 31.5977C-0.000454135 26.351 4.25284 22.0977 9.49954 22.0977L19.9922 22.0977Z" fill="#8CA1C6"/>
<path d="M52.6123 0L52.6123 10.4926C52.6123 15.7394 48.359 19.9926 43.1123 19.9926L22.0972 19.9926L22.0972 9.5C22.0972 4.25329 26.3505 -1.14794e-06 31.5972 -9.18599e-07L52.6123 0Z" fill="#8CA1C6"/>
<path d="M52.6123 42.0898L52.6123 31.5972C52.6123 26.3505 48.359 22.0972 43.1123 22.0972L22.0972 22.0972L22.0972 32.5898C22.0972 37.8366 26.3505 42.0898 31.5972 42.0898L52.6123 42.0898Z" fill="#8CA1C6"/>
</svg>
