<svg width="277" height="56" viewBox="0 0 277 56" fill="none" xmlns="http://www.w3.org/2000/svg">
<path d="M16.83 46.4508C14.43 46.4508 12.195 46.0608 10.125 45.2808C8.085 44.4708 6.3 43.3458 4.77 41.9058C3.27 40.4358 2.1 38.7108 1.26 36.7308C0.42 34.7508 0 32.5908 0 30.2508C0 27.9108 0.42 25.7508 1.26 23.7708C2.1 21.7908 3.285 20.0808 4.815 18.6408C6.345 17.1708 8.13 16.0458 10.17 15.2658C12.21 14.4558 14.445 14.0508 16.875 14.0508C19.455 14.0508 21.81 14.5008 23.94 15.4008C26.07 16.2708 27.87 17.5758 29.34 19.3158L25.56 22.8708C24.42 21.6408 23.145 20.7258 21.735 20.1258C20.325 19.4958 18.795 19.1808 17.145 19.1808C15.495 19.1808 13.98 19.4508 12.6 19.9908C11.25 20.5308 10.065 21.2958 9.045 22.2858C8.055 23.2758 7.275 24.4458 6.705 25.7958C6.165 27.1458 5.895 28.6308 5.895 30.2508C5.895 31.8708 6.165 33.3558 6.705 34.7058C7.275 36.0558 8.055 37.2258 9.045 38.2158C10.065 39.2058 11.25 39.9708 12.6 40.5108C13.98 41.0508 15.495 41.3208 17.145 41.3208C18.795 41.3208 20.325 41.0208 21.735 40.4208C23.145 39.7908 24.42 38.8458 25.56 37.5858L29.34 41.1858C27.87 42.8958 26.07 44.2008 23.94 45.1008C21.81 46.0008 19.44 46.4508 16.83 46.4508Z" fill="#8CA1C6"/>
<path d="M48.4464 46.4508C44.1264 46.4508 40.7364 45.2358 38.2764 42.8058C35.8464 40.3758 34.6314 36.8658 34.6314 32.2758V14.5008H40.4814V32.0508C40.4814 35.2908 41.1714 37.6458 42.5514 39.1158C43.9614 40.5858 45.9414 41.3208 48.4914 41.3208C51.0414 41.3208 53.0064 40.5858 54.3864 39.1158C55.7664 37.6458 56.4564 35.2908 56.4564 32.0508V14.5008H62.2164V32.2758C62.2164 36.8658 60.9864 40.3758 58.5264 42.8058C56.0964 45.2358 52.7364 46.4508 48.4464 46.4508Z" fill="#8CA1C6"/>
<path d="M70.4092 46.0008V14.5008H83.3692C86.1592 14.5008 88.5442 14.9508 90.5242 15.8508C92.5342 16.7508 94.0792 18.0408 95.1592 19.7208C96.2392 21.4008 96.7792 23.3958 96.7792 25.7058C96.7792 28.0158 96.2392 30.0108 95.1592 31.6908C94.0792 33.3408 92.5342 34.6158 90.5242 35.5158C88.5442 36.3858 86.1592 36.8208 83.3692 36.8208H73.6492L76.2592 34.1658V46.0008H70.4092ZM91.0192 46.0008L83.0542 34.5708H89.3092L97.3192 46.0008H91.0192ZM76.2592 34.7958L73.6492 32.0058H83.0992C85.6792 32.0058 87.6142 31.4508 88.9042 30.3408C90.2242 29.2308 90.8842 27.6858 90.8842 25.7058C90.8842 23.6958 90.2242 22.1508 88.9042 21.0708C87.6142 19.9908 85.6792 19.4508 83.0992 19.4508H73.6492L76.2592 16.5708V34.7958Z" fill="#8CA1C6"/>
<path d="M98.8691 46L113.044 14.5H118.804L133.024 46H126.904L115.881 20.3343L104.899 46H98.8691Z" fill="#8CA1C6"/>
<path d="M169.991 25.6979V14.1648H171.752L176.789 22.584H175.867L180.822 14.1648H182.583L182.599 25.6979H180.575L180.558 17.3446H180.986L176.772 24.3799H175.818L171.538 17.3446H172.032V25.6979H169.991Z" fill="#8CA1C6"/>
<path d="M187.687 18.9593H193.415V20.7222H187.687V18.9593ZM187.852 23.9021H194.354V25.6979H185.712V14.1648H194.123V15.9606H187.852V23.9021Z" fill="#8CA1C6"/>
<path d="M196.739 25.6979V14.1648H201.776C203.027 14.1648 204.124 14.4064 205.068 14.8897C206.012 15.373 206.747 16.043 207.274 16.8998C207.8 17.7565 208.064 18.767 208.064 19.9314C208.064 21.0847 207.8 22.0952 207.274 22.9629C206.747 23.8197 206.012 24.4897 205.068 24.973C204.124 25.4563 203.027 25.6979 201.776 25.6979H196.739ZM198.879 23.8856H201.677C202.544 23.8856 203.29 23.7208 203.916 23.3913C204.552 23.0618 205.041 22.6005 205.381 22.0073C205.732 21.4142 205.908 20.7222 205.908 19.9314C205.908 19.1295 205.732 18.4375 205.381 17.8554C205.041 17.2622 204.552 16.8009 203.916 16.4714C203.29 16.1419 202.544 15.9771 201.677 15.9771H198.879V23.8856Z" fill="#8CA1C6"/>
<path d="M210.338 25.6979V14.1648H212.478V25.6979H210.338Z" fill="#8CA1C6"/>
<path d="M220.928 25.8627C220.05 25.8627 219.232 25.7199 218.475 25.4343C217.729 25.1378 217.076 24.7259 216.516 24.1986C215.968 23.6604 215.54 23.0288 215.233 22.3039C214.925 21.5789 214.772 20.7881 214.772 19.9314C214.772 19.0746 214.925 18.2838 215.233 17.5588C215.54 16.8339 215.973 16.2078 216.533 15.6805C217.093 15.1423 217.746 14.7304 218.492 14.4449C219.238 14.1483 220.055 14 220.944 14C221.888 14 222.75 14.1648 223.529 14.4943C224.308 14.8128 224.966 15.2906 225.504 15.9277L224.121 17.2293C223.704 16.7789 223.238 16.4439 222.722 16.2243C222.206 15.9936 221.647 15.8783 221.043 15.8783C220.44 15.8783 219.885 15.9771 219.381 16.1748C218.887 16.3725 218.453 16.6526 218.08 17.0151C217.718 17.3776 217.433 17.8059 217.224 18.3002C217.027 18.7945 216.928 19.3382 216.928 19.9314C216.928 20.5245 217.027 21.0682 217.224 21.5625C217.433 22.0568 217.718 22.4851 218.08 22.8476C218.453 23.2101 218.887 23.4902 219.381 23.6879C219.885 23.8856 220.44 23.9844 221.043 23.9844C221.647 23.9844 222.206 23.8746 222.722 23.6549C223.238 23.4243 223.704 23.0783 224.121 22.6169L225.504 23.935C224.966 24.5611 224.308 25.0389 223.529 25.3684C222.75 25.6979 221.883 25.8627 220.928 25.8627Z" fill="#8CA1C6"/>
<path d="M225.684 25.6979L230.869 14.1648H232.976L238.177 25.6979H235.938L231.478 15.3016H232.334L227.889 25.6979H225.684ZM228.07 23.0288L228.646 21.3483H234.869L235.445 23.0288H228.07Z" fill="#8CA1C6"/>
<path d="M239.642 25.6979V14.1648H241.782V23.8856H247.807V25.6979H239.642Z" fill="#8CA1C6"/>
<path d="M173.563 46C172.663 46 171.801 45.8737 170.978 45.6211C170.155 45.3574 169.502 45.0224 169.02 44.616L169.76 42.9519C170.221 43.3144 170.792 43.6165 171.472 43.8581C172.153 44.0998 172.849 44.2206 173.563 44.2206C174.166 44.2206 174.655 44.1547 175.028 44.0229C175.401 43.8911 175.675 43.7153 175.851 43.4957C176.026 43.265 176.114 43.0069 176.114 42.7213C176.114 42.3698 175.988 42.0897 175.735 41.881C175.483 41.6613 175.154 41.4911 174.748 41.3702C174.353 41.2384 173.908 41.1176 173.414 41.0078C172.932 40.8979 172.443 40.7716 171.95 40.6288C171.467 40.4751 171.022 40.2828 170.616 40.0522C170.221 39.8105 169.897 39.492 169.645 39.0966C169.393 38.7011 169.266 38.1959 169.266 37.5808C169.266 36.9547 169.431 36.3835 169.76 35.8673C170.1 35.34 170.611 34.9227 171.291 34.6151C171.982 34.2966 172.855 34.1373 173.908 34.1373C174.6 34.1373 175.285 34.2252 175.966 34.4009C176.646 34.5767 177.239 34.8293 177.744 35.1588L177.069 36.8229C176.553 36.5153 176.021 36.2902 175.472 36.1474C174.923 35.9936 174.397 35.9167 173.892 35.9167C173.299 35.9167 172.816 35.9881 172.443 36.1309C172.081 36.2737 171.812 36.4604 171.637 36.6911C171.472 36.9217 171.39 37.1854 171.39 37.4819C171.39 37.8334 171.511 38.119 171.752 38.3387C172.004 38.5474 172.328 38.7121 172.723 38.833C173.129 38.9538 173.579 39.0746 174.073 39.1954C174.567 39.3053 175.055 39.4316 175.538 39.5744C176.032 39.7172 176.476 39.9039 176.871 40.1346C177.277 40.3652 177.601 40.6783 177.842 41.0737C178.095 41.4691 178.221 41.9689 178.221 42.573C178.221 43.1881 178.051 43.7593 177.711 44.2865C177.381 44.8027 176.871 45.2201 176.18 45.5387C175.489 45.8462 174.616 46 173.563 46Z" fill="#8CA1C6"/>
<path d="M180.343 45.8352V34.3021H185.083C186.104 34.3021 186.976 34.4668 187.701 34.7963C188.436 35.1259 189.001 35.5982 189.396 36.2133C189.791 36.8284 189.989 37.5588 189.989 38.4046C189.989 39.2503 189.791 39.9808 189.396 40.5959C189.001 41.211 188.436 41.6833 187.701 42.0128C186.976 42.3423 186.104 42.5071 185.083 42.5071H181.528L182.483 41.5021V45.8352H180.343ZM182.483 41.7327L181.528 40.6947H184.985C185.928 40.6947 186.636 40.497 187.108 40.1016C187.591 39.6952 187.832 39.1295 187.832 38.4046C187.832 37.6686 187.591 37.103 187.108 36.7076C186.636 36.3121 185.928 36.1144 184.985 36.1144H181.528L182.483 35.06V41.7327Z" fill="#8CA1C6"/>
<path d="M194.101 39.0966H199.829V40.8595H194.101V39.0966ZM194.265 44.0394H200.767V45.8352H192.126V34.3021H200.537V36.0979H194.265V44.0394Z" fill="#8CA1C6"/>
<path d="M208.486 46C207.608 46 206.791 45.8572 206.033 45.5716C205.287 45.2751 204.634 44.8632 204.075 44.3359C203.526 43.7977 203.098 43.1661 202.791 42.4412C202.483 41.7162 202.33 40.9254 202.33 40.0686C202.33 39.2119 202.483 38.4211 202.791 37.6961C203.098 36.9712 203.531 36.3451 204.091 35.8178C204.651 35.2796 205.304 34.8677 206.05 34.5822C206.796 34.2856 207.614 34.1373 208.503 34.1373C209.446 34.1373 210.308 34.3021 211.087 34.6316C211.866 34.9501 212.524 35.4279 213.062 36.065L211.679 37.3666C211.262 36.9162 210.796 36.5812 210.28 36.3616C209.764 36.1309 209.205 36.0156 208.601 36.0156C207.998 36.0156 207.444 36.1144 206.939 36.3121C206.445 36.5098 206.011 36.7899 205.638 37.1524C205.276 37.5149 204.991 37.9432 204.782 38.4375C204.585 38.9318 204.486 39.4755 204.486 40.0686C204.486 40.6618 204.585 41.2055 204.782 41.6998C204.991 42.194 205.276 42.6224 205.638 42.9849C206.011 43.3474 206.445 43.6275 206.939 43.8252C207.444 44.0229 207.998 44.1217 208.601 44.1217C209.205 44.1217 209.764 44.0119 210.28 43.7922C210.796 43.5616 211.262 43.2156 211.679 42.7542L213.062 44.0723C212.524 44.6984 211.866 45.1762 211.087 45.5057C210.308 45.8352 209.441 46 208.486 46Z" fill="#8CA1C6"/>
<path d="M215.112 45.8352V34.3021H217.252V45.8352H215.112Z" fill="#8CA1C6"/>
<path d="M218.739 45.8352L223.924 34.3021H226.031L231.233 45.8352H228.994L224.533 35.4389H225.389L220.945 45.8352H218.739ZM221.126 43.1661L221.702 41.4856H227.924L228.5 43.1661H221.126Z" fill="#8CA1C6"/>
<path d="M232.698 45.8352V34.3021H234.838V44.0229H240.863V45.8352H232.698Z" fill="#8CA1C6"/>
<path d="M242.552 45.8352V34.3021H244.692V45.8352H242.552Z" fill="#8CA1C6"/>
<path d="M251.38 46C250.48 46 249.619 45.8737 248.796 45.6211C247.973 45.3574 247.32 45.0224 246.837 44.616L247.578 42.9519C248.039 43.3144 248.609 43.6165 249.29 43.8581C249.97 44.0998 250.667 44.2206 251.38 44.2206C251.984 44.2206 252.472 44.1547 252.845 44.0229C253.218 43.8911 253.493 43.7153 253.668 43.4957C253.844 43.265 253.932 43.0069 253.932 42.7213C253.932 42.3698 253.806 42.0897 253.553 41.881C253.301 41.6613 252.972 41.4911 252.565 41.3702C252.17 41.2384 251.726 41.1176 251.232 41.0078C250.749 40.8979 250.261 40.7716 249.767 40.6288C249.284 40.4751 248.84 40.2828 248.434 40.0522C248.039 39.8105 247.715 39.492 247.463 39.0966C247.21 38.7011 247.084 38.1959 247.084 37.5808C247.084 36.9547 247.249 36.3835 247.578 35.8673C247.918 35.34 248.428 34.9227 249.109 34.6151C249.8 34.2966 250.673 34.1373 251.726 34.1373C252.417 34.1373 253.103 34.2252 253.784 34.4009C254.464 34.5767 255.057 34.8293 255.561 35.1588L254.886 36.8229C254.371 36.5153 253.838 36.2902 253.29 36.1474C252.741 35.9936 252.214 35.9167 251.71 35.9167C251.117 35.9167 250.634 35.9881 250.261 36.1309C249.899 36.2737 249.63 36.4604 249.454 36.6911C249.29 36.9217 249.208 37.1854 249.208 37.4819C249.208 37.8334 249.328 38.119 249.57 38.3387C249.822 38.5474 250.146 38.7121 250.541 38.833C250.947 38.9538 251.397 39.0746 251.891 39.1954C252.384 39.3053 252.873 39.4316 253.356 39.5744C253.849 39.7172 254.294 39.9039 254.689 40.1346C255.095 40.3652 255.419 40.6783 255.66 41.0737C255.912 41.4691 256.039 41.9689 256.039 42.573C256.039 43.1881 255.869 43.7593 255.528 44.2865C255.199 44.8027 254.689 45.2201 253.998 45.5387C253.306 45.8462 252.434 46 251.38 46Z" fill="#8CA1C6"/>
<path d="M260.337 45.8352V36.1144H256.518V34.3021H266.296V36.1144H262.477V45.8352H260.337Z" fill="#8CA1C6"/>
<path d="M271.361 46C270.461 46 269.6 45.8737 268.777 45.6211C267.954 45.3574 267.301 45.0224 266.818 44.616L267.559 42.9519C268.02 43.3144 268.59 43.6165 269.271 43.8581C269.951 44.0998 270.648 44.2206 271.361 44.2206C271.965 44.2206 272.453 44.1547 272.826 44.0229C273.199 43.8911 273.474 43.7153 273.649 43.4957C273.825 43.265 273.913 43.0069 273.913 42.7213C273.913 42.3698 273.786 42.0897 273.534 41.881C273.282 41.6613 272.952 41.4911 272.546 41.3702C272.151 41.2384 271.707 41.1176 271.213 41.0078C270.73 40.8979 270.242 40.7716 269.748 40.6288C269.265 40.4751 268.821 40.2828 268.415 40.0522C268.02 39.8105 267.696 39.492 267.444 39.0966C267.191 38.7011 267.065 38.1959 267.065 37.5808C267.065 36.9547 267.23 36.3835 267.559 35.8673C267.899 35.34 268.409 34.9227 269.09 34.6151C269.781 34.2966 270.653 34.1373 271.707 34.1373C272.398 34.1373 273.084 34.2252 273.764 34.4009C274.445 34.5767 275.037 34.8293 275.542 35.1588L274.867 36.8229C274.352 36.5153 273.819 36.2902 273.271 36.1474C272.722 35.9936 272.195 35.9167 271.69 35.9167C271.098 35.9167 270.615 35.9881 270.242 36.1309C269.88 36.2737 269.611 36.4604 269.435 36.6911C269.271 36.9217 269.188 37.1854 269.188 37.4819C269.188 37.8334 269.309 38.119 269.551 38.3387C269.803 38.5474 270.127 38.7121 270.522 38.833C270.928 38.9538 271.378 39.0746 271.871 39.1954C272.365 39.3053 272.854 39.4316 273.336 39.5744C273.83 39.7172 274.275 39.9039 274.67 40.1346C275.076 40.3652 275.4 40.6783 275.641 41.0737C275.893 41.4691 276.02 41.9689 276.02 42.573C276.02 43.1881 275.849 43.7593 275.509 44.2865C275.18 44.8027 274.67 45.2201 273.978 45.5387C273.287 45.8462 272.415 46 271.361 46Z" fill="#8CA1C6"/>
<rect x="37.0195" y="51" width="23" height="5" fill="#8CA1C6"/>
<rect x="154.02" width="56" height="2" transform="rotate(90 154.02 0)" fill="#8CA1C6"/>
</svg>
