<svg width="277" height="50" viewBox="0 0 277 50" fill="none" xmlns="http://www.w3.org/2000/svg">
<path d="M28.4657 6.46895L31.1611 9.16434L23.0749 17.2505L20.3795 14.5551L28.4657 6.46895Z" fill="#8CA1C6"/>
<path d="M15.5278 19.4068L18.2232 22.1022L10.137 30.1884L7.4416 27.493L15.5278 19.4068Z" fill="#8CA1C6"/>
<path d="M41.4036 19.4068L44.099 22.1022L36.0128 30.1884L33.3174 27.493L41.4036 19.4068Z" fill="#8CA1C6"/>
<path d="M28.4657 32.3447L31.1611 35.0401L23.0749 43.1263L20.3795 40.4309L28.4657 32.3447Z" fill="#8CA1C6"/>
<path d="M28.4657 19.4068L31.1611 22.1022L23.0749 30.1884L20.3795 27.493L28.4657 19.4068Z" fill="#8CA1C6"/>
<path d="M15.5278 6.46895L18.2232 9.16434L10.137 17.2505L7.4416 14.5551L15.5278 6.46895Z" fill="#8CA1C6"/>
<path d="M41.4036 32.3447L44.099 35.0401L36.0128 43.1263L33.3174 40.4309L41.4036 32.3447Z" fill="#8CA1C6"/>
<path d="M41.4036 6.46895L44.099 9.16434L36.0128 17.2505L33.3174 14.5551L41.4036 6.46895Z" fill="#8CA1C6"/>
<path d="M15.5278 32.3447L18.2232 35.0401L10.137 43.1263L7.4416 40.4309L15.5278 32.3447Z" fill="#8CA1C6"/>
<path d="M37.63 21.0241L34.9346 23.7195L26.8484 15.6333L29.5438 12.9379L37.63 21.0241Z" fill="#8CA1C6"/>
<path d="M50.5679 33.962L47.8725 36.6574L39.7863 28.5712L42.4817 25.8758L50.5679 33.962Z" fill="#8CA1C6"/>
<path d="M24.6921 8.08618L21.9967 10.7816L13.9105 2.69539L16.6059 0L24.6921 8.08618Z" fill="#8CA1C6"/>
<path d="M24.6921 33.962L21.9967 36.6574L13.9105 28.5712L16.6059 25.8758L24.6921 33.962Z" fill="#8CA1C6"/>
<path d="M37.63 46.8999L34.9346 49.5953L26.8484 41.5091L29.5438 38.8137L37.63 46.8999Z" fill="#8CA1C6"/>
<path d="M11.7542 21.0241L9.05884 23.7195L0.972656 15.6333L3.66805 12.9379L11.7542 21.0241Z" fill="#8CA1C6"/>
<path d="M24.6921 21.0241L21.9967 23.7195L13.9105 15.6333L16.6059 12.9379L24.6921 21.0241Z" fill="#8CA1C6"/>
<path d="M11.7542 8.08618L9.05884 10.7816L0.972656 2.69539L3.66805 0L11.7542 8.08618Z" fill="#8CA1C6"/>
<path d="M11.7542 33.962L9.05884 36.6574L0.972656 28.5712L3.66805 25.8758L11.7542 33.962Z" fill="#8CA1C6"/>
<path d="M37.63 8.08618L34.9346 10.7816L26.8484 2.69539L29.5438 0L37.63 8.08618Z" fill="#8CA1C6"/>
<path d="M37.63 33.962L34.9346 36.6574L26.8484 28.5712L29.5438 25.8758L37.63 33.962Z" fill="#8CA1C6"/>
<path d="M50.5679 46.8999L47.8725 49.5953L39.7863 41.5091L42.4817 38.8137L50.5679 46.8999Z" fill="#8CA1C6"/>
<path d="M24.6921 46.8999L21.9967 49.5953L13.9105 41.5091L16.6059 38.8137L24.6921 46.8999Z" fill="#8CA1C6"/>
<path d="M50.5679 21.0241L47.8725 23.7195L39.7863 15.6333L42.4817 12.9379L50.5679 21.0241Z" fill="#8CA1C6"/>
<path d="M75.507 0C77.2533 0 78.8691 0.288231 80.3544 0.864694C81.8498 1.43104 83.1746 2.21989 84.3287 3.23122L83.4857 4.35381C83.024 3.95939 82.5122 3.59025 81.9502 3.24639C81.3881 2.90254 80.796 2.60925 80.1738 2.36653C79.5515 2.1137 78.9042 1.91649 78.2318 1.7749C77.5594 1.6232 76.8819 1.54735 76.1995 1.54735C74.7342 1.54735 73.4345 1.81535 72.3004 2.35136C71.1663 2.88737 70.2129 3.62059 69.4401 4.55102C68.6674 5.48145 68.0802 6.56864 67.6788 7.81259C67.2774 9.05653 67.0766 10.3915 67.0766 11.8175C67.0766 13.2131 67.2723 14.5279 67.6637 15.7617C68.0652 16.9955 68.6473 18.0777 69.41 19.0081C70.1828 19.9385 71.1362 20.6768 72.2703 21.2229C73.4044 21.7589 74.7041 22.0269 76.1694 22.0269C76.8719 22.0269 77.5844 21.9561 78.307 21.8146C79.0297 21.673 79.7272 21.4656 80.3996 21.1926C81.072 20.9195 81.7043 20.5858 82.2964 20.1914C82.8986 19.7969 83.4305 19.3469 83.8922 18.8412L84.7502 19.9486C83.566 21.0813 82.191 21.9663 80.6254 22.6034C79.0598 23.2405 77.3536 23.5591 75.507 23.5591C74.393 23.5591 73.3241 23.4175 72.3004 23.1344C71.2767 22.8613 70.3183 22.4669 69.4251 21.9511C68.5419 21.4353 67.734 20.8234 67.0014 20.1155C66.2788 19.3975 65.6565 18.6036 65.1346 17.7338C64.6228 16.8641 64.2214 15.9336 63.9303 14.9425C63.6493 13.9413 63.5088 12.8996 63.5088 11.8175C63.5088 10.7354 63.6493 9.68862 63.9303 8.67728C64.2214 7.66594 64.6228 6.7254 65.1346 5.85565C65.6565 4.97578 66.2788 4.17683 67.0014 3.45878C67.734 2.74073 68.5419 2.12887 69.4251 1.6232C70.3183 1.10741 71.2767 0.707937 72.3004 0.424762C73.3241 0.141587 74.393 0 75.507 0Z" fill="#8CA1C6"/>
<path d="M93.307 23.0282H89.9951V0.470272H93.307V23.0282Z" fill="#8CA1C6"/>
<path d="M112.597 0.470272V1.95694H107.178V23.0282H103.881V1.95694H98.4164V0.470272H112.597Z" fill="#8CA1C6"/>
<path d="M121.922 12.7732L114.801 0.470272H118.655L124.24 10.6342L129.479 0.470272H131.301L125.098 12.5912V23.0282H121.922V12.7732Z" fill="#8CA1C6"/>
<path d="M71.4629 39.9635L76.2526 34.4001V33.7566H78.5083V49.1909H76.2526V35.9882L70.8449 42.2782L65.4682 35.9674V49.1909H64.4176V34.7323L63.5936 33.7566H66.2304L71.4629 39.9635Z" fill="#8CA1C6"/>
<path d="M92.8091 33.7566V34.7738H85.6917V39.455H92.5928V40.4721H85.6917V48.1737H92.8091V49.1909H83.4359V33.7566H92.8091Z" fill="#8CA1C6"/>
<path d="M107.852 41.4997C107.852 40.5586 107.745 39.7387 107.532 39.0398C107.319 38.3409 107.031 37.7423 106.667 37.2441C106.303 36.7459 105.877 36.3376 105.39 36.0193C104.902 35.6941 104.387 35.4415 103.845 35.2616C103.302 35.0748 102.743 34.9468 102.166 34.8776C101.596 34.8084 101.04 34.7738 100.497 34.7738H99.2097V48.1737H100.497C101.04 48.1737 101.596 48.1392 102.166 48.07C102.743 48.0008 103.302 47.8762 103.845 47.6963C104.387 47.5095 104.902 47.2569 105.39 46.9386C105.877 46.6203 106.303 46.2155 106.667 45.7242C107.031 45.226 107.319 44.6309 107.532 43.9389C107.745 43.2469 107.852 42.4339 107.852 41.4997ZM110.241 41.4582C110.241 42.5377 110.049 43.5479 109.664 44.489C109.287 45.4232 108.724 46.2397 107.975 46.9386C107.227 47.6375 106.296 48.1876 105.184 48.5889C104.078 48.9903 102.798 49.1909 101.342 49.1909H96.954V33.7566H101.342C102.798 33.7566 104.078 33.9573 105.184 34.3586C106.296 34.7599 107.227 35.3101 107.975 36.009C108.724 36.7009 109.287 37.5174 109.664 38.4585C110.049 39.3927 110.241 40.3926 110.241 41.4582Z" fill="#8CA1C6"/>
<path d="M116.446 49.1909H114.18V33.7566H116.446V49.1909Z" fill="#8CA1C6"/>
<path d="M128.378 33.4348C129.573 33.4348 130.678 33.632 131.695 34.0265C132.718 34.414 133.624 34.9537 134.414 35.6457L133.837 36.4138C133.521 36.1439 133.171 35.8913 132.786 35.656C132.402 35.4208 131.997 35.2201 131.571 35.054C131.145 34.881 130.702 34.7461 130.242 34.6492C129.782 34.5454 129.319 34.4935 128.852 34.4935C127.849 34.4935 126.96 34.6769 126.184 35.0437C125.408 35.4104 124.756 35.9121 124.227 36.5487C123.698 37.1853 123.296 37.9292 123.022 38.7803C122.747 39.6314 122.61 40.5448 122.61 41.5205C122.61 42.4754 122.744 43.375 123.011 44.2192C123.286 45.0634 123.684 45.8038 124.206 46.4404C124.735 47.077 125.387 47.5821 126.163 47.9558C126.939 48.3225 127.829 48.5059 128.831 48.5059C129.312 48.5059 129.799 48.4575 130.294 48.3606C130.788 48.2637 131.265 48.1219 131.725 47.935C132.186 47.7482 132.618 47.5198 133.023 47.25C133.435 46.9801 133.799 46.6722 134.115 46.3262L134.702 47.0839C133.892 47.8589 132.951 48.4644 131.88 48.9003C130.809 49.3363 129.641 49.5542 128.378 49.5542C127.616 49.5542 126.884 49.4574 126.184 49.2636C125.484 49.0768 124.828 48.8069 124.217 48.454C123.612 48.1011 123.06 47.6825 122.558 47.1981C122.064 46.7068 121.638 46.1636 121.281 45.5685C120.931 44.9734 120.656 44.3368 120.457 43.6587C120.265 42.9736 120.169 42.2609 120.169 41.5205C120.169 40.7801 120.265 40.0639 120.457 39.3719C120.656 38.6799 120.931 38.0364 121.281 37.4413C121.638 36.8393 122.064 36.2927 122.558 35.8014C123.06 35.3101 123.612 34.8914 124.217 34.5454C124.828 34.1925 125.484 33.9192 126.184 33.7255C126.884 33.5317 127.616 33.4348 128.378 33.4348Z" fill="#8CA1C6"/>
<path d="M150.033 49.1909H147.654L146.809 47.1877H138.435L137.611 49.1909H136.365L141.978 35.7391L141.154 33.7566H143.565L150.033 49.1909ZM138.857 46.1705H146.387L142.586 37.2026L138.857 46.1705Z" fill="#8CA1C6"/>
<path d="M155.28 48.1737H161.584V49.1909H153.024V33.7566H155.28V48.1737Z" fill="#8CA1C6"/>
<path d="M173.293 45.1326V49.1909H171.037V33.7566H174.869C175.947 33.7566 176.871 33.85 177.64 34.0368C178.409 34.2168 179.054 34.4589 179.576 34.7634C180.098 35.0679 180.517 35.4208 180.833 35.8221C181.149 36.2165 181.389 36.6283 181.554 37.0573C181.719 37.4794 181.825 37.9049 181.873 38.334C181.928 38.7561 181.956 39.1505 181.956 39.5172C181.956 39.8771 181.925 40.268 181.863 40.6901C181.808 41.1053 181.691 41.5205 181.513 41.9357C181.341 42.3508 181.094 42.7522 180.771 43.1397C180.455 43.5203 180.033 43.8593 179.504 44.1569C178.982 44.4544 178.34 44.6932 177.578 44.8731C176.823 45.0461 175.92 45.1326 174.869 45.1326H173.293ZM173.293 34.7738V44.1154H174.56C175.322 44.1154 176.012 44.0289 176.63 43.8559C177.248 43.6829 177.774 43.4061 178.206 43.0255C178.646 42.6449 178.982 42.1605 179.216 41.5724C179.449 40.9773 179.566 40.2576 179.566 39.4134C179.566 38.7699 179.504 38.2094 179.381 37.732C179.264 37.2476 179.096 36.8359 178.876 36.4968C178.656 36.1508 178.392 35.8671 178.083 35.6457C177.781 35.4242 177.444 35.2478 177.073 35.1163C176.709 34.9848 176.318 34.8949 175.899 34.8464C175.48 34.798 175.048 34.7738 174.601 34.7738H173.293Z" fill="#8CA1C6"/>
<path d="M190.375 33.7566C191.247 33.7566 191.999 33.8362 192.631 33.9953C193.269 34.1476 193.808 34.3517 194.248 34.6077C194.694 34.8637 195.051 35.1578 195.319 35.49C195.594 35.8221 195.803 36.1646 195.947 36.5175C196.098 36.8705 196.198 37.2234 196.246 37.5763C196.301 37.9222 196.329 38.244 196.329 38.5416C196.329 38.9221 196.267 39.3477 196.143 39.8182C196.026 40.2888 195.81 40.7455 195.494 41.1883C195.185 41.6312 194.759 42.0325 194.217 42.3924C193.674 42.7453 192.984 42.9978 192.147 43.1501L196.576 49.1909H193.815L189.489 43.3058H187.821V49.1909H185.565V33.7566H190.375ZM187.821 34.7738V42.2782H189.108C189.843 42.2782 190.505 42.2124 191.096 42.081C191.693 41.9426 192.202 41.7246 192.62 41.4271C193.046 41.1226 193.372 40.7316 193.599 40.2542C193.826 39.7698 193.939 39.1851 193.939 38.5C193.939 37.725 193.802 37.0953 193.527 36.611C193.252 36.1197 192.888 35.7391 192.435 35.4692C191.989 35.1993 191.477 35.016 190.9 34.9191C190.323 34.8222 189.733 34.7738 189.129 34.7738H187.821Z" fill="#8CA1C6"/>
<path d="M212.123 49.1909H209.744L208.899 47.1877H200.525L199.701 49.1909H198.454L204.068 35.7391L203.244 33.7566H205.654L212.123 49.1909ZM200.947 46.1705H208.477L204.676 37.2026L200.947 46.1705Z" fill="#8CA1C6"/>
<path d="M221.83 33.4348C223.025 33.4348 224.13 33.632 225.146 34.0265C226.17 34.414 227.076 34.9537 227.866 35.6457L227.289 36.4138C226.973 36.1439 226.623 35.8913 226.238 35.656C225.854 35.4208 225.449 35.2201 225.023 35.054C224.597 34.881 224.154 34.7461 223.694 34.6492C223.234 34.5454 222.771 34.4935 222.304 34.4935C221.301 34.4935 220.412 34.6769 219.636 35.0437C218.86 35.4104 218.208 35.9121 217.679 36.5487C217.15 37.1853 216.748 37.9292 216.474 38.7803C216.199 39.6314 216.062 40.5448 216.062 41.5205C216.062 42.4754 216.196 43.375 216.463 44.2192C216.738 45.0634 217.136 45.8038 217.658 46.4404C218.187 47.077 218.839 47.5821 219.615 47.9558C220.391 48.3225 221.28 48.5059 222.283 48.5059C222.764 48.5059 223.251 48.4575 223.746 48.3606C224.24 48.2637 224.717 48.1219 225.177 47.935C225.637 47.7482 226.07 47.5198 226.475 47.25C226.887 46.9801 227.251 46.6722 227.567 46.3262L228.154 47.0839C227.344 47.8589 226.403 48.4644 225.332 48.9003C224.261 49.3363 223.093 49.5542 221.83 49.5542C221.068 49.5542 220.336 49.4574 219.636 49.2636C218.935 49.0768 218.28 48.8069 217.669 48.454C217.064 48.1011 216.511 47.6825 216.01 47.1981C215.516 46.7068 215.09 46.1636 214.733 45.5685C214.383 44.9734 214.108 44.3368 213.909 43.6587C213.717 42.9736 213.621 42.2609 213.621 41.5205C213.621 40.7801 213.717 40.0639 213.909 39.3719C214.108 38.6799 214.383 38.0364 214.733 37.4413C215.09 36.8393 215.516 36.2927 216.01 35.8014C216.511 35.3101 217.064 34.8914 217.669 34.5454C218.28 34.1925 218.935 33.9192 219.636 33.7255C220.336 33.5317 221.068 33.4348 221.83 33.4348Z" fill="#8CA1C6"/>
<path d="M240.014 33.7566V34.7738H236.306V49.1909H234.05V34.7738H230.311V33.7566H240.014Z" fill="#8CA1C6"/>
<path d="M245.755 49.1909H243.489V33.7566H245.755V49.1909Z" fill="#8CA1C6"/>
<path d="M257.687 33.4348C258.882 33.4348 259.987 33.632 261.004 34.0265C262.027 34.414 262.933 34.9537 263.723 35.6457L263.146 36.4138C262.83 36.1439 262.48 35.8913 262.095 35.656C261.711 35.4208 261.306 35.2201 260.88 35.054C260.454 34.881 260.011 34.7461 259.551 34.6492C259.091 34.5454 258.628 34.4935 258.161 34.4935C257.158 34.4935 256.269 34.6769 255.493 35.0437C254.717 35.4104 254.065 35.9121 253.536 36.5487C253.007 37.1853 252.606 37.9292 252.331 38.7803C252.056 39.6314 251.919 40.5448 251.919 41.5205C251.919 42.4754 252.053 43.375 252.321 44.2192C252.595 45.0634 252.994 45.8038 253.515 46.4404C254.044 47.077 254.696 47.5821 255.472 47.9558C256.248 48.3225 257.138 48.5059 258.14 48.5059C258.621 48.5059 259.108 48.4575 259.603 48.3606C260.097 48.2637 260.574 48.1219 261.035 47.935C261.495 47.7482 261.927 47.5198 262.332 47.25C262.744 46.9801 263.108 46.6722 263.424 46.3262L264.011 47.0839C263.201 47.8589 262.26 48.4644 261.189 48.9003C260.118 49.3363 258.95 49.5542 257.687 49.5542C256.925 49.5542 256.193 49.4574 255.493 49.2636C254.793 49.0768 254.137 48.8069 253.526 48.454C252.921 48.1011 252.369 47.6825 251.867 47.1981C251.373 46.7068 250.947 46.1636 250.59 45.5685C250.24 44.9734 249.965 44.3368 249.766 43.6587C249.574 42.9736 249.478 42.2609 249.478 41.5205C249.478 40.7801 249.574 40.0639 249.766 39.3719C249.965 38.6799 250.24 38.0364 250.59 37.4413C250.947 36.8393 251.373 36.2927 251.867 35.8014C252.369 35.3101 252.921 34.8914 253.526 34.5454C254.137 34.1925 254.793 33.9192 255.493 33.7255C256.193 33.5317 256.925 33.4348 257.687 33.4348Z" fill="#8CA1C6"/>
<path d="M276.973 33.7566V34.7738H269.856V39.455H276.757V40.4721H269.856V48.1737H276.973V49.1909H267.6V33.7566H276.973Z" fill="#8CA1C6"/>
</svg>
