<svg width="277" height="27" viewBox="0 0 277 27" fill="none" xmlns="http://www.w3.org/2000/svg">
<path d="M12.8053 15.4722C12.8053 17.2624 12.5407 18.6531 12.0113 19.6445C11.0296 21.4539 9.16241 22.3586 6.40976 22.3586C4.82169 22.3586 3.46462 21.9303 2.33854 21.0737C1.21246 20.2075 0.649414 18.6724 0.649414 16.4683V14.9524H3.34913V16.4683C3.34913 17.6233 3.60418 18.4943 4.11428 19.0814C4.63401 19.6589 5.43767 19.9476 6.52526 19.9476C8.05557 19.9476 9.05654 19.4231 9.52814 18.374C9.81688 17.7291 9.96125 16.5116 9.96125 14.7214V0.587667H12.8053V15.4722Z" fill="#8CA1C6"/>
<path d="M19.7126 17.681C19.7126 18.4317 19.9869 19.0237 20.5355 19.4568C21.0841 19.8899 21.7337 20.1064 22.4844 20.1064C23.3988 20.1064 24.2843 19.8947 25.1408 19.4712C26.5845 18.7686 27.3064 17.6185 27.3064 16.0208V13.9274C26.9888 14.1295 26.5797 14.298 26.0792 14.4327C25.5788 14.5675 25.0879 14.6637 24.6067 14.7214L23.0331 14.9236C22.0898 15.0487 21.3824 15.246 20.9108 15.5155C20.112 15.9678 19.7126 16.6897 19.7126 17.681ZM26.0071 12.426C26.6038 12.349 27.0032 12.0987 27.2053 11.6753C27.3208 11.4443 27.3786 11.1122 27.3786 10.6791C27.3786 9.79363 27.061 9.1536 26.4257 8.75899C25.8001 8.35475 24.9002 8.15263 23.726 8.15263C22.369 8.15263 21.4065 8.51837 20.8386 9.24984C20.521 9.65408 20.3141 10.2556 20.2178 11.0545H17.7924C17.8406 9.14878 18.4565 7.8254 19.6404 7.0843C20.8338 6.33358 22.215 5.95822 23.7838 5.95822C25.6028 5.95822 27.0802 6.3047 28.2159 6.99768C29.342 7.69065 29.905 8.76861 29.905 10.2316V19.1392C29.905 19.4086 29.958 19.6252 30.0638 19.7888C30.1793 19.9524 30.4151 20.0343 30.7713 20.0343C30.8868 20.0343 31.0167 20.0294 31.1611 20.0198C31.3054 20.0006 31.4594 19.9765 31.623 19.9476V21.8677C31.2188 21.9832 30.9108 22.0554 30.6991 22.0843C30.4873 22.1132 30.1986 22.1276 29.8329 22.1276C28.9378 22.1276 28.2881 21.81 27.8839 21.1748C27.6721 20.8379 27.5229 20.3615 27.4363 19.7455C26.907 20.4385 26.1466 21.04 25.1553 21.5501C24.1639 22.0602 23.0715 22.3153 21.8781 22.3153C20.444 22.3153 19.2698 21.8822 18.3555 21.016C17.4508 20.1401 16.9984 19.0477 16.9984 17.7388C16.9984 16.3047 17.4459 15.1931 18.341 14.4038C19.2361 13.6146 20.4103 13.1286 21.8637 12.9457L26.0071 12.426Z" fill="#8CA1C6"/>
<path d="M35.0654 6.33358H37.6352V8.52799C38.2511 7.76765 38.8094 7.21423 39.3099 6.86774C40.1664 6.28064 41.1385 5.98709 42.2261 5.98709C43.4581 5.98709 44.4494 6.29027 45.2001 6.89662C45.6236 7.24311 46.0086 7.75321 46.3551 8.42694C46.9326 7.59922 47.6111 6.98805 48.3907 6.59344C49.1703 6.18921 50.0461 5.98709 51.0182 5.98709C53.0971 5.98709 54.512 6.73781 55.2627 8.23926C55.6669 9.04772 55.869 10.1353 55.869 11.502V21.7956H53.1693V11.0545C53.1693 10.0246 52.9095 9.31721 52.3897 8.93223C51.8796 8.54724 51.254 8.35475 50.5129 8.35475C49.4927 8.35475 48.6121 8.69643 47.871 9.37978C47.1395 10.0631 46.7738 11.2036 46.7738 12.8013V21.7956H44.1318V11.7041C44.1318 10.655 44.0067 9.88988 43.7564 9.40865C43.3618 8.6868 42.6255 8.32588 41.5476 8.32588C40.5659 8.32588 39.6708 8.70605 38.8623 9.4664C38.0635 10.2267 37.664 11.6031 37.664 13.5954V21.7956H35.0654V6.33358Z" fill="#8CA1C6"/>
<path d="M67.0207 5.98709C68.1179 5.98709 69.1815 6.24695 70.2113 6.76669C71.2411 7.27679 72.0255 7.94089 72.5645 8.75899C73.0843 9.53858 73.4307 10.4481 73.604 11.4876C73.758 12.1998 73.835 13.3355 73.835 14.8947H62.502C62.5501 16.4635 62.9206 17.7243 63.6136 18.6772C64.3066 19.6204 65.3797 20.092 66.833 20.092C68.1901 20.092 69.2729 19.6445 70.0814 18.7494C70.5433 18.2296 70.8706 17.6281 71.0631 16.9447H73.6184C73.551 17.5126 73.3249 18.1478 72.9399 18.8504C72.5645 19.5434 72.141 20.1112 71.6694 20.554C70.8802 21.324 69.9033 21.8437 68.7387 22.1132C68.1131 22.2672 67.4057 22.3442 66.6165 22.3442C64.6916 22.3442 63.0602 21.6464 61.7224 20.2508C60.3845 18.8456 59.7156 16.8822 59.7156 14.3605C59.7156 11.8774 60.3894 9.86101 61.7368 8.31144C63.0843 6.76187 64.8456 5.98709 67.0207 5.98709ZM71.1641 12.8302C71.0583 11.7041 70.8128 10.8042 70.4279 10.1305C69.7156 8.87929 68.527 8.25369 66.8619 8.25369C65.6685 8.25369 64.6675 8.6868 63.859 9.55302C63.0506 10.4096 62.6223 11.502 62.5741 12.8302H71.1641Z" fill="#8CA1C6"/>
<path d="M79.4717 16.9447C79.5487 17.811 79.7653 18.4751 80.1214 18.937C80.7759 19.7744 81.9116 20.1931 83.5285 20.1931C84.491 20.1931 85.338 19.9861 86.0694 19.5723C86.8009 19.1488 87.1666 18.4991 87.1666 17.6233C87.1666 16.9592 86.8731 16.4539 86.286 16.1074C85.9106 15.8957 85.1695 15.6502 84.0627 15.3711L81.9982 14.8514C80.6796 14.5241 79.7075 14.1584 79.0819 13.7542C77.9655 13.0516 77.4073 12.0795 77.4073 10.8379C77.4073 9.37496 77.9318 8.19113 78.9809 7.28642C80.0396 6.3817 81.4592 5.92934 83.2398 5.92934C85.5689 5.92934 87.2484 6.61269 88.2783 7.97939C88.9231 8.84561 89.2359 9.7792 89.2167 10.7802H86.7624C86.7143 10.1931 86.5073 9.65889 86.1416 9.17766C85.5449 8.49431 84.5102 8.15263 83.0377 8.15263C82.056 8.15263 81.31 8.34031 80.7999 8.71567C80.2995 9.09104 80.0492 9.5867 80.0492 10.2027C80.0492 10.8764 80.3813 11.4154 81.0454 11.8196C81.4304 12.0602 81.9982 12.272 82.7489 12.4548L84.4669 12.8735C86.3341 13.3259 87.5853 13.7638 88.2205 14.1873C89.2311 14.8514 89.7364 15.8957 89.7364 17.3201C89.7364 18.6964 89.2119 19.8851 88.1628 20.886C87.1233 21.887 85.5353 22.3875 83.3986 22.3875C81.0983 22.3875 79.4669 21.8677 78.5045 20.8283C77.5516 19.7792 77.0415 18.4847 76.9741 16.9447H79.4717Z" fill="#8CA1C6"/>
<path d="M112.227 0.0390625C114.22 0.0390625 115.943 0.424048 117.396 1.19402C119.504 2.30085 120.793 4.24022 121.265 7.01211H118.421C118.074 5.46255 117.357 4.33646 116.27 3.63387C115.182 2.92164 113.811 2.56553 112.155 2.56553C110.192 2.56553 108.536 3.30182 107.189 4.77439C105.851 6.24695 105.182 8.44137 105.182 11.3576C105.182 13.8793 105.736 15.9342 106.842 17.5222C107.949 19.1007 109.754 19.8899 112.256 19.8899C114.172 19.8899 115.755 19.3365 117.006 18.2296C118.267 17.1132 118.912 15.3134 118.941 12.8302H112.3V10.4481H121.611V21.7956H119.764L119.071 19.067C118.098 20.1353 117.237 20.8764 116.486 21.2903C115.226 22.0025 113.623 22.3586 111.679 22.3586C109.167 22.3586 107.006 21.5453 105.197 19.9188C103.224 17.8783 102.237 15.0776 102.237 11.5164C102.237 7.96495 103.2 5.14012 105.124 3.04195C106.953 1.04002 109.321 0.0390625 112.227 0.0390625Z" fill="#8CA1C6"/>
<path d="M126.685 6.33358H129.154V9.00441C129.356 8.48468 129.852 7.85427 130.641 7.11317C131.43 6.36245 132.34 5.98709 133.37 5.98709C133.418 5.98709 133.499 5.9919 133.615 6.00153C133.73 6.01115 133.928 6.0304 134.207 6.05927V8.8023C134.053 8.77342 133.909 8.75417 133.774 8.74455C133.649 8.73492 133.509 8.73011 133.355 8.73011C132.046 8.73011 131.04 9.1536 130.338 10.0006C129.635 10.8379 129.284 11.8052 129.284 12.9024V21.7956H126.685V6.33358Z" fill="#8CA1C6"/>
<path d="M139.338 17.681C139.338 18.4317 139.613 19.0237 140.161 19.4568C140.71 19.8899 141.36 20.1064 142.11 20.1064C143.025 20.1064 143.91 19.8947 144.767 19.4712C146.21 18.7686 146.932 17.6185 146.932 16.0208V13.9274C146.615 14.1295 146.206 14.298 145.705 14.4327C145.205 14.5675 144.714 14.6637 144.232 14.7214L142.659 14.9236C141.716 15.0487 141.008 15.246 140.537 15.5155C139.738 15.9678 139.338 16.6897 139.338 17.681ZM145.633 12.426C146.23 12.349 146.629 12.0987 146.831 11.6753C146.947 11.4443 147.004 11.1122 147.004 10.6791C147.004 9.79363 146.687 9.1536 146.052 8.75899C145.426 8.35475 144.526 8.15263 143.352 8.15263C141.995 8.15263 141.032 8.51837 140.464 9.24984C140.147 9.65408 139.94 10.2556 139.844 11.0545H137.418C137.466 9.14878 138.082 7.8254 139.266 7.0843C140.46 6.33358 141.841 5.95822 143.41 5.95822C145.229 5.95822 146.706 6.3047 147.842 6.99768C148.968 7.69065 149.531 8.76861 149.531 10.2316V19.1392C149.531 19.4086 149.584 19.6252 149.69 19.7888C149.805 19.9524 150.041 20.0343 150.397 20.0343C150.513 20.0343 150.642 20.0294 150.787 20.0198C150.931 20.0006 151.085 19.9765 151.249 19.9476V21.8677C150.845 21.9832 150.537 22.0554 150.325 22.0843C150.113 22.1132 149.824 22.1276 149.459 22.1276C148.564 22.1276 147.914 21.81 147.51 21.1748C147.298 20.8379 147.149 20.3615 147.062 19.7455C146.533 20.4385 145.772 21.04 144.781 21.5501C143.79 22.0602 142.697 22.3153 141.504 22.3153C140.07 22.3153 138.896 21.8822 137.981 21.016C137.077 20.1401 136.624 19.0477 136.624 17.7388C136.624 16.3047 137.072 15.1931 137.967 14.4038C138.862 13.6146 140.036 13.1286 141.489 12.9457L145.633 12.426Z" fill="#8CA1C6"/>
<path d="M154.691 0.515482H157.29V8.42694C157.906 7.64734 158.459 7.09874 158.95 6.78112C159.787 6.23252 160.832 5.95822 162.083 5.95822C164.325 5.95822 165.846 6.74262 166.645 8.31144C167.078 9.16803 167.295 10.3567 167.295 11.8774V21.7956H164.624V12.0506C164.624 10.9149 164.479 10.0824 164.191 9.55302C163.719 8.70605 162.834 8.28257 161.534 8.28257C160.456 8.28257 159.479 8.65311 158.604 9.39421C157.728 10.1353 157.29 11.5357 157.29 13.5954V21.7956H154.691V0.515482Z" fill="#8CA1C6"/>
<path d="M174.029 17.681C174.029 18.4317 174.303 19.0237 174.852 19.4568C175.4 19.8899 176.05 20.1064 176.801 20.1064C177.715 20.1064 178.6 19.8947 179.457 19.4712C180.901 18.7686 181.622 17.6185 181.622 16.0208V13.9274C181.305 14.1295 180.896 14.298 180.395 14.4327C179.895 14.5675 179.404 14.6637 178.923 14.7214L177.349 14.9236C176.406 15.0487 175.698 15.246 175.227 15.5155C174.428 15.9678 174.029 16.6897 174.029 17.681ZM180.323 12.426C180.92 12.349 181.319 12.0987 181.521 11.6753C181.637 11.4443 181.695 11.1122 181.695 10.6791C181.695 9.79363 181.377 9.1536 180.742 8.75899C180.116 8.35475 179.216 8.15263 178.042 8.15263C176.685 8.15263 175.723 8.51837 175.155 9.24984C174.837 9.65408 174.63 10.2556 174.534 11.0545H172.108C172.157 9.14878 172.773 7.8254 173.956 7.0843C175.15 6.33358 176.531 5.95822 178.1 5.95822C179.919 5.95822 181.396 6.3047 182.532 6.99768C183.658 7.69065 184.221 8.76861 184.221 10.2316V19.1392C184.221 19.4086 184.274 19.6252 184.38 19.7888C184.495 19.9524 184.731 20.0343 185.087 20.0343C185.203 20.0343 185.333 20.0294 185.477 20.0198C185.621 20.0006 185.775 19.9765 185.939 19.9476V21.8677C185.535 21.9832 185.227 22.0554 185.015 22.0843C184.803 22.1132 184.515 22.1276 184.149 22.1276C183.254 22.1276 182.604 21.81 182.2 21.1748C181.988 20.8379 181.839 20.3615 181.752 19.7455C181.223 20.4385 180.463 21.04 179.471 21.5501C178.48 22.0602 177.388 22.3153 176.194 22.3153C174.76 22.3153 173.586 21.8822 172.672 21.016C171.767 20.1401 171.314 19.0477 171.314 17.7388C171.314 16.3047 171.762 15.1931 172.657 14.4038C173.552 13.6146 174.726 13.1286 176.18 12.9457L180.323 12.426Z" fill="#8CA1C6"/>
<path d="M189.381 6.33358H191.951V8.52799C192.567 7.76765 193.125 7.21423 193.626 6.86774C194.483 6.28064 195.455 5.98709 196.542 5.98709C197.774 5.98709 198.765 6.29027 199.516 6.89662C199.94 7.24311 200.325 7.75321 200.671 8.42694C201.249 7.59922 201.927 6.98805 202.707 6.59344C203.486 6.18921 204.362 5.98709 205.334 5.98709C207.413 5.98709 208.828 6.73781 209.579 8.23926C209.983 9.04772 210.185 10.1353 210.185 11.502V21.7956H207.485V11.0545C207.485 10.0246 207.226 9.31721 206.706 8.93223C206.196 8.54724 205.57 8.35475 204.829 8.35475C203.809 8.35475 202.928 8.69643 202.187 9.37978C201.456 10.0631 201.09 11.2036 201.09 12.8013V21.7956H198.448V11.7041C198.448 10.655 198.323 9.88988 198.072 9.40865C197.678 8.6868 196.942 8.32588 195.864 8.32588C194.882 8.32588 193.987 8.70605 193.178 9.4664C192.38 10.2267 191.98 11.6031 191.98 13.5954V21.7956H189.381V6.33358Z" fill="#8CA1C6"/>
<path d="M215.447 24.8129C216.111 24.6974 216.577 24.2306 216.847 23.4125C216.991 22.9794 217.063 22.5607 217.063 22.1565C217.063 22.0891 217.059 22.0266 217.049 21.9688C217.049 21.9207 217.039 21.8629 217.02 21.7956H215.447V18.6483H218.536V21.5646C218.536 22.7099 218.305 23.7157 217.843 24.5819C217.381 25.4481 216.582 25.9823 215.447 26.1844V24.8129Z" fill="#8CA1C6"/>
<path d="M233.404 0.587667H237.519L243.611 18.5184L249.66 0.587667H253.732V21.7956H251.003V9.27872C251.003 8.84561 251.013 8.12857 251.032 7.12761C251.051 6.12665 251.061 5.0535 251.061 3.90817L245.012 21.7956H242.168L236.075 3.90817V4.55783C236.075 5.07756 236.085 5.87159 236.104 6.93993C236.133 7.99864 236.147 8.77824 236.147 9.27872V21.7956H233.404V0.587667Z" fill="#8CA1C6"/>
<path d="M267.135 19.3413C268.108 19.3413 268.906 19.2402 269.532 19.0381C270.648 18.6627 271.563 17.9409 272.275 16.8726C272.843 16.016 273.252 14.9188 273.502 13.5809C273.647 12.7821 273.719 12.041 273.719 11.3576C273.719 8.73011 273.194 6.68969 272.145 5.23637C271.106 3.78305 269.426 3.05639 267.107 3.05639H262.01V19.3413H267.135ZM259.123 0.587667H267.713C270.629 0.587667 272.891 1.62232 274.498 3.69161C275.932 5.55879 276.649 7.95052 276.649 10.8668C276.649 13.1189 276.226 15.1546 275.379 16.9736C273.887 20.1882 271.322 21.7956 267.684 21.7956H259.123V0.587667Z" fill="#8CA1C6"/>
</svg>
