<svg width="277" height="33" viewBox="0 0 277 33" fill="none" xmlns="http://www.w3.org/2000/svg">
<path d="M18.8 29.2306C16.2025 30.7781 12.7345 31.5518 8.39609 31.5518H0.230469C0.230469 31.6347 0.396268 31.5656 0.727867 31.3445C1.05947 31.0958 1.34962 30.6537 1.59831 30.0182C1.87465 29.3826 2.01281 28.4569 2.01281 27.241V6.84768C2.01281 5.76999 1.87465 4.95481 1.59831 4.40214C1.34962 3.82184 1.05947 3.43498 0.727867 3.24155C0.396268 3.04811 0.230469 2.97903 0.230469 3.0343H8.35464C12.5825 3.0343 15.9261 3.72513 18.3855 5.10679C20.5685 6.32265 22.2542 7.96683 23.4424 10.0393C24.6306 12.1118 25.2247 14.4468 25.2247 17.0443C25.2247 19.8629 24.6583 22.3085 23.5253 24.381C22.42 26.4258 20.8449 28.0424 18.8 29.2306ZM17.1835 6.97203C15.9676 6.17067 14.6688 5.59037 13.2872 5.23114C11.9055 4.87191 10.2613 4.69229 8.35464 4.69229H4.9972V29.8938H8.35464C10.6206 29.8938 12.472 29.7004 13.9089 29.3135C15.3735 28.9266 16.6308 28.3325 17.6809 27.5312C19.0349 26.4811 20.0711 25.1133 20.7896 23.4276C21.5357 21.7144 21.9087 19.7248 21.9087 17.4588C21.9087 15.0548 21.4804 12.9546 20.6238 11.1585C19.7948 9.33468 18.648 7.9392 17.1835 6.97203Z" fill="#8CA1C6"/>
<path d="M34.764 19.9044C35.1785 19.0201 35.8555 18.1773 36.7951 17.3759C37.7622 16.547 38.7294 16.1325 39.6966 16.1325C40.3045 16.1325 40.7604 16.2154 41.0644 16.3812V19.78C40.4565 19.0339 39.5998 18.6609 38.4945 18.6609C37.3339 18.6609 36.422 19.1721 35.7588 20.1945C35.0956 21.1893 34.764 22.4743 34.764 24.0494V27.4068C34.764 28.9543 34.9436 30.0182 35.3029 30.5985C35.6621 31.1787 36.0075 31.4965 36.3391 31.5518H30.4947C30.8263 31.4965 31.1717 31.1926 31.5309 30.6399C31.9178 30.0596 32.1112 28.9819 32.1112 27.4068V21.1479C32.1112 19.9873 31.9178 19.1997 31.5309 18.7852C31.1717 18.3431 30.7572 18.122 30.2874 18.122L34.764 16.1325V19.9044Z" fill="#8CA1C6"/>
<path d="M46.9616 31.9663C46.4089 31.9663 45.9116 31.7867 45.4694 31.4274C45.0549 31.0406 44.8477 30.5156 44.8477 29.8524C44.8477 29.1892 45.0549 28.6779 45.4694 28.3187C45.8839 27.9595 46.3813 27.7799 46.9616 27.7799C47.5419 27.7799 48.0393 27.9595 48.4538 28.3187C48.8683 28.6779 49.0756 29.1892 49.0756 29.8524C49.0756 30.5156 48.8545 31.0406 48.4124 31.4274C47.9979 31.7867 47.5143 31.9663 46.9616 31.9663Z" fill="#8CA1C6"/>
<path d="M74.0996 20.4847L71.4468 27.0752C71.0323 28.0976 70.8251 28.9405 70.8251 29.6037C70.8251 30.5156 71.2396 31.1649 72.0686 31.5518H66.1412C66.4176 31.5518 66.8183 31.2755 67.3433 30.7228C67.8683 30.1701 68.4762 29.0786 69.1671 27.4483L79.9855 1.7079L90.721 27.5726C91.3289 29.0648 91.9092 30.0872 92.4619 30.6399C93.0422 31.1926 93.4981 31.4965 93.8297 31.5518H86.9491C87.6399 31.2202 87.9853 30.709 87.9853 30.0182C87.9853 29.4379 87.7642 28.6089 87.3221 27.5312L84.4206 20.4847H74.0996ZM83.7574 18.7852L79.2394 7.71813L74.8043 18.7852H83.7574Z" fill="#8CA1C6"/>
<path d="M101.103 18.951C101.739 18.0944 102.485 17.4174 103.342 16.92C104.226 16.395 105.151 16.1325 106.119 16.1325C107.611 16.1325 108.799 16.616 109.683 17.5832C110.595 18.5227 111.051 19.8906 111.051 21.6867V27.4483C111.051 28.6089 111.176 29.4931 111.424 30.1011C111.673 30.709 111.949 31.1235 112.253 31.3445C112.557 31.5656 112.709 31.6347 112.709 31.5518H106.74C106.74 31.6347 106.892 31.5794 107.196 31.386C107.5 31.1649 107.777 30.7504 108.025 30.1425C108.274 29.5346 108.398 28.6227 108.398 27.4068V22.6815C108.398 21.742 108.274 20.9959 108.025 20.4432C107.777 19.8906 107.445 19.4346 107.031 19.0754C106.395 18.5504 105.635 18.2878 104.751 18.2878C103.756 18.2878 102.899 18.6194 102.181 19.2826C101.462 19.9182 101.103 20.8163 101.103 21.9769V27.4068C101.103 28.595 101.228 29.4931 101.476 30.1011C101.725 30.709 102.001 31.1235 102.305 31.3445C102.637 31.5656 102.803 31.6347 102.803 31.5518H96.8339C96.8339 31.6347 96.9859 31.5794 97.2898 31.386C97.5938 31.1649 97.8563 30.7504 98.0774 30.1425C98.3261 29.5069 98.4504 28.595 98.4504 27.4068V21.1479C98.4504 19.9873 98.257 19.1997 97.8701 18.7852C97.5109 18.3431 97.0964 18.122 96.6266 18.122L101.103 16.1325V18.951Z" fill="#8CA1C6"/>
<path d="M121.574 18.951C122.21 18.0944 122.956 17.4174 123.812 16.92C124.696 16.395 125.622 16.1325 126.589 16.1325C128.082 16.1325 129.27 16.616 130.154 17.5832C131.066 18.5227 131.522 19.8906 131.522 21.6867V27.4483C131.522 28.6089 131.646 29.4931 131.895 30.1011C132.144 30.709 132.42 31.1235 132.724 31.3445C133.028 31.5656 133.18 31.6347 133.18 31.5518H127.211C127.211 31.6347 127.363 31.5794 127.667 31.386C127.971 31.1649 128.247 30.7504 128.496 30.1425C128.745 29.5346 128.869 28.6227 128.869 27.4068V22.6815C128.869 21.742 128.745 20.9959 128.496 20.4432C128.247 19.8906 127.916 19.4346 127.501 19.0754C126.866 18.5504 126.106 18.2878 125.222 18.2878C124.227 18.2878 123.37 18.6194 122.652 19.2826C121.933 19.9182 121.574 20.8163 121.574 21.9769V27.4068C121.574 28.595 121.698 29.4931 121.947 30.1011C122.196 30.709 122.472 31.1235 122.776 31.3445C123.108 31.5656 123.273 31.6347 123.273 31.5518H117.305C117.305 31.6347 117.457 31.5794 117.761 31.386C118.065 31.1649 118.327 30.7504 118.548 30.1425C118.797 29.5069 118.921 28.595 118.921 27.4068V21.1479C118.921 19.9873 118.728 19.1997 118.341 18.7852C117.982 18.3431 117.567 18.122 117.097 18.122L121.574 16.1325V18.951Z" fill="#8CA1C6"/>
<path d="M144.905 32.0492C143.413 32.0492 142.128 31.69 141.05 30.9715C139.972 30.2254 139.143 29.2721 138.563 28.1115C138.01 26.9232 137.734 25.6659 137.734 24.3395C137.734 22.6263 138.065 21.1479 138.729 19.9044C139.42 18.6609 140.304 17.7214 141.381 17.0858C142.459 16.4502 143.578 16.1325 144.739 16.1325C146.397 16.1325 147.82 16.7404 149.008 17.9562C150.224 19.1445 150.887 20.8025 150.998 22.9302H140.221C140.221 24.2566 140.47 25.431 140.967 26.4535C141.464 27.4483 142.128 28.222 142.957 28.7747C143.813 29.2997 144.739 29.5622 145.734 29.5622C148.331 29.5622 150.086 28.7332 150.998 27.0752C150.749 28.5674 150.072 29.7695 148.967 30.6814C147.861 31.5932 146.507 32.0492 144.905 32.0492ZM144.449 17.5003C143.371 17.5003 142.445 17.8872 141.672 18.6609C140.898 19.407 140.428 20.388 140.262 21.6038H147.806C147.806 20.3327 147.461 19.3379 146.77 18.6194C146.107 17.8733 145.333 17.5003 144.449 17.5003Z" fill="#8CA1C6"/>
<path d="M174.054 4.69229V16.4641H181.225C182.248 16.4641 182.925 16.3121 183.256 16.0081C183.615 15.7041 183.795 15.4554 183.795 15.262V19.3241C183.795 19.2412 183.726 19.1168 183.588 18.951C183.477 18.7576 183.229 18.578 182.842 18.4122C182.482 18.2188 181.944 18.122 181.225 18.122H174.054V27.697C174.054 28.7747 174.192 29.6037 174.469 30.184C174.745 30.7366 175.049 31.1235 175.381 31.3445C175.712 31.538 175.878 31.6071 175.878 31.5518H169.288C169.288 31.6071 169.453 31.538 169.785 31.3445C170.117 31.1511 170.407 30.7781 170.655 30.2254C170.932 29.6451 171.07 28.8023 171.07 27.697V7.09638C171.07 5.96342 170.932 5.10679 170.655 4.52649C170.407 3.91856 170.117 3.50406 169.785 3.283C169.453 3.0343 169.288 2.9514 169.288 3.0343H184.292V7.26218C184.154 6.59899 183.767 6.00487 183.132 5.47984C182.496 4.95481 181.598 4.69229 180.438 4.69229H174.054Z" fill="#8CA1C6"/>
<path d="M201.705 32.0492C200.821 32.0216 200.075 31.7867 199.467 31.3445C198.859 30.9024 198.514 30.3912 198.431 29.8109C197.933 30.5294 197.27 31.082 196.441 31.4689C195.64 31.8558 194.838 32.0492 194.037 32.0492C192.766 32.0492 191.702 31.69 190.845 30.9715C189.989 30.2254 189.56 29.2582 189.56 28.07C189.56 25.0027 192.434 23.4691 198.182 23.4691V23.0131C198.182 21.4933 197.961 20.3742 197.519 19.6557C196.911 18.6333 195.916 18.122 194.534 18.122C193.457 18.122 192.559 18.4398 191.84 19.0754C191.149 19.711 190.804 20.54 190.804 21.5624C190.638 21.2861 190.5 21.0374 190.389 20.8163C190.307 20.5952 190.265 20.2913 190.265 19.9044C190.265 18.9096 190.735 18.0391 191.674 17.293C192.614 16.5193 193.844 16.1325 195.363 16.1325C197.519 16.1325 199.052 16.8509 199.964 18.2878C200.268 18.73 200.489 19.2826 200.628 19.9458C200.766 20.609 200.835 21.4795 200.835 22.5572V27.4897C200.835 28.3463 201.07 29.0095 201.539 29.4793C202.037 29.9491 202.728 30.184 203.612 30.184H204.151L201.705 32.0492ZM198.182 24.7126C195.971 24.7126 194.479 24.9889 193.705 25.5416C192.932 26.0942 192.545 26.8403 192.545 27.7799C192.545 28.5536 192.752 29.1615 193.167 29.6037C193.581 30.0458 194.134 30.2669 194.825 30.2669C195.35 30.2669 195.847 30.1425 196.317 29.8938C196.787 29.6451 197.187 29.2997 197.519 28.8576C197.961 28.2773 198.182 27.4897 198.182 26.4949V24.7126Z" fill="#8CA1C6"/>
<path d="M211.379 19.9044C211.794 19.0201 212.471 18.1773 213.41 17.3759C214.377 16.547 215.345 16.1325 216.312 16.1325C216.92 16.1325 217.376 16.2154 217.68 16.3812V19.78C217.072 19.0339 216.215 18.6609 215.11 18.6609C213.949 18.6609 213.037 19.1721 212.374 20.1945C211.711 21.1893 211.379 22.4743 211.379 24.0494V27.4068C211.379 28.9543 211.559 30.0182 211.918 30.5985C212.277 31.1787 212.623 31.4965 212.954 31.5518H207.11C207.442 31.4965 207.787 31.1926 208.146 30.6399C208.533 30.0596 208.726 28.9819 208.726 27.4068V21.1479C208.726 19.9873 208.533 19.1997 208.146 18.7852C207.787 18.3431 207.372 18.122 206.903 18.122L211.379 16.1325V19.9044Z" fill="#8CA1C6"/>
<path d="M225.9 18.578C226.508 17.8595 227.254 17.2792 228.138 16.8371C229.022 16.3673 229.948 16.1325 230.915 16.1325C232.407 16.1325 233.596 16.616 234.48 17.5832C235.392 18.5227 235.848 19.8906 235.848 21.6867V27.4483C235.848 28.6089 235.972 29.4931 236.221 30.1011C236.469 30.709 236.746 31.1235 237.05 31.3445C237.354 31.5656 237.506 31.6347 237.506 31.5518H231.537C231.537 31.6347 231.689 31.5794 231.993 31.386C232.297 31.1649 232.573 30.7504 232.822 30.1425C233.07 29.5346 233.195 28.6227 233.195 27.4068V22.6815C233.195 21.742 233.07 20.9959 232.822 20.4432C232.573 19.8906 232.241 19.4346 231.827 19.0754C231.191 18.5504 230.432 18.2878 229.547 18.2878C228.552 18.2878 227.696 18.6194 226.977 19.2826C226.259 19.9182 225.9 20.8163 225.9 21.9769V27.4068C225.9 28.595 226.024 29.4931 226.273 30.1011C226.521 30.709 226.798 31.1235 227.102 31.3445C227.433 31.5656 227.599 31.6347 227.599 31.5518H221.63C221.63 31.6347 221.782 31.5794 222.086 31.386C222.39 31.1649 222.653 30.7504 222.874 30.1425C223.123 29.5069 223.247 28.595 223.247 27.4068V6.06014C223.247 4.89954 223.053 4.11199 222.667 3.69749C222.307 3.25536 221.893 3.0343 221.423 3.0343H221.174L225.9 0.878906V18.578Z" fill="#8CA1C6"/>
<path d="M254.536 32.0492C253.652 32.0216 252.906 31.7867 252.298 31.3445C251.69 30.9024 251.344 30.3912 251.261 29.8109C250.764 30.5294 250.101 31.082 249.272 31.4689C248.471 31.8558 247.669 32.0492 246.868 32.0492C245.597 32.0492 244.533 31.69 243.676 30.9715C242.82 30.2254 242.391 29.2582 242.391 28.07C242.391 25.0027 245.265 23.4691 251.013 23.4691V23.0131C251.013 21.4933 250.792 20.3742 250.35 19.6557C249.742 18.6333 248.747 18.122 247.365 18.122C246.288 18.122 245.389 18.4398 244.671 19.0754C243.98 19.711 243.635 20.54 243.635 21.5624C243.469 21.2861 243.331 21.0374 243.22 20.8163C243.137 20.5952 243.096 20.2913 243.096 19.9044C243.096 18.9096 243.566 18.0391 244.505 17.293C245.445 16.5193 246.674 16.1325 248.194 16.1325C250.35 16.1325 251.883 16.8509 252.795 18.2878C253.099 18.73 253.32 19.2826 253.458 19.9458C253.596 20.609 253.666 21.4795 253.666 22.5572V27.4897C253.666 28.3463 253.9 29.0095 254.37 29.4793C254.868 29.9491 255.558 30.184 256.443 30.184H256.982L254.536 32.0492ZM251.013 24.7126C248.802 24.7126 247.31 24.9889 246.536 25.5416C245.762 26.0942 245.376 26.8403 245.376 27.7799C245.376 28.5536 245.583 29.1615 245.997 29.6037C246.412 30.0458 246.965 30.2669 247.655 30.2669C248.18 30.2669 248.678 30.1425 249.148 29.8938C249.617 29.6451 250.018 29.2997 250.35 28.8576C250.792 28.2773 251.013 27.4897 251.013 26.4949V24.7126Z" fill="#8CA1C6"/>
<path d="M271.505 6.06014C271.505 4.89954 271.312 4.11199 270.925 3.69749C270.566 3.25536 270.151 3.0343 269.681 3.0343H269.433L274.158 0.878906V26.868C274.158 28.0286 274.338 28.8299 274.697 29.2721C275.084 29.6866 275.512 29.8938 275.982 29.8938H276.23L271.505 32.0492V29.355C271.174 29.9076 270.566 30.5017 269.681 31.1373C268.825 31.7452 267.692 32.0492 266.283 32.0492C265.067 32.0492 263.975 31.7452 263.008 31.1373C262.041 30.5294 261.281 29.6866 260.728 28.6089C260.176 27.5312 259.899 26.3291 259.899 25.0027C259.899 23.3171 260.245 21.8249 260.935 20.5261C261.626 19.2274 262.524 18.1911 263.63 17.4174C264.873 16.5608 266.227 16.1325 267.692 16.1325C268.659 16.1325 269.46 16.2706 270.096 16.547C270.731 16.7956 271.201 17.0305 271.505 17.2516V6.06014ZM262.884 23.7592C262.884 25.5001 263.284 27.0199 264.086 28.3187C264.915 29.5898 266.103 30.2254 267.65 30.2254C268.231 30.2254 268.825 30.0734 269.433 29.7695C270.041 29.4379 270.538 28.9957 270.925 28.4431C271.312 27.8904 271.505 27.2686 271.505 26.5778V21.6867C271.505 20.8025 271.395 20.084 271.174 19.5313C270.98 18.9787 270.662 18.5642 270.22 18.2878C269.529 17.8457 268.687 17.6246 267.692 17.6246C266.31 17.6246 265.163 18.1911 264.251 19.3241C263.34 20.4294 262.884 21.9078 262.884 23.7592Z" fill="#8CA1C6"/>
</svg>
