<svg width="276" height="73" viewBox="0 0 276 73" fill="none" xmlns="http://www.w3.org/2000/svg">
<path d="M67.4535 45.969H59.7113V67.9373H58.55C57.8403 67.2276 57.2596 66.7438 56.808 66.4857C56.3564 66.2276 55.6467 66.0986 54.6789 66.0986C53.5176 66.0986 52.324 66.4212 51.0982 67.0664C49.9369 67.647 48.5497 68.3244 46.9368 69.0987C45.3883 69.8729 43.5496 70.5503 41.4205 71.131C39.2914 71.7762 36.7107 72.0987 33.6783 72.0987C29.0976 72.0987 25.0329 71.3568 21.4845 69.8729C17.936 68.3244 14.5165 65.905 11.2261 62.6146C8.00022 59.3887 5.32273 55.5822 3.19364 51.195C1.06455 46.8077 0 41.8721 0 36.3881C0 32.7106 0.419366 29.4202 1.2581 26.5169C2.09683 23.549 3.09686 20.9683 4.25818 18.7747C5.48402 16.5811 6.70986 14.7423 7.9357 13.2584C9.22606 11.7745 10.2906 10.6132 11.1293 9.77446C14.0326 6.87116 17.3553 4.51625 21.0974 2.70975C24.8394 0.90325 29.0976 0 33.8719 0C36.3236 0 38.3236 0.193553 39.8721 0.580659C41.485 0.967766 42.8721 1.41939 44.0335 1.93553C45.1948 2.38716 46.2271 2.80653 47.1303 3.19363C48.0981 3.58074 49.1626 3.77429 50.324 3.77429C51.6143 3.77429 52.5176 3.613 53.0337 3.29041C53.6144 2.9033 54.1628 2.38716 54.6789 1.74198H56.1306V21.0973H55.066C54.808 19.4199 54.2918 17.4521 53.5176 15.194C52.8079 12.9358 51.6466 10.7745 50.0336 8.70991C48.4852 6.64534 46.3884 4.90336 43.7431 3.48397C41.1624 2.06457 37.8397 1.35488 33.7751 1.35488C28.9363 1.35488 25.0329 2.38716 22.0651 4.45173C19.1618 6.45179 16.8714 9.12928 15.194 12.4842C13.581 15.7746 12.4842 19.5167 11.9036 23.7103C11.3874 27.904 11.1293 32.1299 11.1293 36.3881C11.1293 39.2914 11.2584 42.1947 11.5164 45.098C11.7745 48.0013 12.1939 50.7433 12.7745 53.324C13.4197 55.9048 14.2907 58.2919 15.3875 60.4855C16.4843 62.6791 17.9037 64.5502 19.6457 66.0986C21.5812 67.8406 23.5813 69.0664 25.6459 69.7761C27.7104 70.4213 30.3879 70.7439 33.6783 70.7439C35.6784 70.7439 37.6785 70.4213 39.6785 69.7761C41.6786 69.0664 43.4528 68.0341 45.0012 66.6792C46.6142 65.3244 47.9045 63.6146 48.8723 61.5501C49.9046 59.421 50.4207 56.937 50.4207 54.0983V45.969H37.9365V44.6141H67.4535V45.969Z" fill="#8CA1C6"/>
<path d="M57.9595 69.2922H68.7017V3.09686H57.9595V1.74198H89.1216V3.09686H78.3794V69.2922H95.6057C101.283 69.2922 105.735 67.518 108.961 63.9695C112.187 60.421 114.542 55.5822 116.026 49.453H117.09V70.6471H57.9595V69.2922Z" fill="#8CA1C6"/>
<path d="M124.5 36.0978C124.5 41.9044 124.887 46.969 125.662 51.2917C126.436 55.6144 127.726 59.2274 129.533 62.1307C131.339 65.034 133.662 67.1954 136.501 68.6148C139.339 70.0342 142.856 70.7439 147.049 70.7439C151.179 70.7439 154.662 70.0342 157.501 68.6148C160.405 67.1954 162.759 65.034 164.566 62.1307C166.372 59.2274 167.663 55.6144 168.437 51.2917C169.211 46.969 169.598 41.9044 169.598 36.0978C169.598 31.646 169.308 27.3556 168.727 23.2264C168.147 19.0328 167.018 15.323 165.34 12.0971C163.727 8.80669 161.437 6.19372 158.469 4.25818C155.566 2.32264 151.759 1.35488 147.049 1.35488C142.34 1.35488 138.501 2.32264 135.533 4.25818C132.63 6.19372 130.339 8.80669 128.662 12.0971C127.049 15.323 125.952 19.0328 125.371 23.2264C124.791 27.3556 124.5 31.646 124.5 36.0978ZM113.371 36.0978C113.371 30.9363 114.371 26.162 116.371 21.7748C118.436 17.3876 121.049 13.581 124.21 10.3551C127.436 7.12923 131.049 4.61303 135.049 2.80653C139.049 0.935509 143.049 0 147.049 0C151.308 0 155.437 0.935509 159.437 2.80653C163.501 4.61303 167.114 7.12923 170.276 10.3551C173.437 13.581 175.953 17.3876 177.824 21.7748C179.76 26.162 180.728 30.9363 180.728 36.0978C180.728 40.614 179.857 45.0335 178.115 49.3562C176.373 53.6789 173.986 57.5177 170.953 60.8726C167.921 64.2276 164.34 66.9373 160.211 69.0019C156.146 71.0665 151.759 72.0987 147.049 72.0987C142.211 72.0987 137.727 71.0987 133.597 69.0987C129.468 67.0986 125.888 64.4534 122.855 61.163C119.887 57.808 117.565 53.9692 115.887 49.6465C114.21 45.2593 113.371 40.743 113.371 36.0978Z" fill="#8CA1C6"/>
<path d="M170.126 1.74198H199.256V3.09686H189.191L209.127 59.2274H209.321L222.192 23.5168L214.837 3.09686H206.708V1.74198H235.741V3.09686H225.192L245.128 59.2274H245.322L265.645 3.09686H255.29V1.74198H276V3.09686H267.29L242.225 72.0987H239.805L223.16 25.6459H222.966L206.127 72.0987H203.514L178.836 3.09686H170.126V1.74198Z" fill="#8CA1C6"/>
</svg>
