<svg width="276" height="78" viewBox="0 0 276 78" fill="none" xmlns="http://www.w3.org/2000/svg">
<path d="M129.244 10.9855C128.889 11.0616 128.534 11.3533 128.179 11.8606C127.849 12.3426 127.684 13.2051 127.684 14.4481V38.2297L108.202 15.5135V33.7397C108.202 34.9573 108.418 35.8198 108.849 36.3272C109.281 36.8091 109.699 37.0882 110.105 37.1643H104.74C105.095 37.0882 105.45 36.8091 105.805 36.3272C106.186 35.8198 106.376 34.9447 106.376 33.7017V14.6764C106.376 13.8139 106.084 13.0275 105.501 12.3172C104.917 11.607 104.182 11.163 103.294 10.9855H108.012L125.858 31.7991V14.4481C125.858 12.4948 125.198 11.3406 123.879 10.9855H129.244Z" fill="#8CA1C6"/>
<path d="M135.363 30.6576C135.363 29.3385 135.68 28.0956 136.314 26.9287C136.974 25.7364 137.875 24.7851 139.016 24.0749C140.158 23.3646 141.426 23.0095 142.821 23.0095C144.166 23.0095 145.383 23.3265 146.474 23.9607C147.565 24.5695 148.415 25.4066 149.023 26.4721C149.658 27.5375 149.975 28.7044 149.975 29.9727C149.975 31.2918 149.645 32.5475 148.985 33.7397C148.351 34.9066 147.463 35.8452 146.322 36.5555C145.18 37.2657 143.912 37.6209 142.517 37.6209C141.172 37.6209 139.955 37.3165 138.864 36.7077C137.773 36.0735 136.911 35.2237 136.276 34.1583C135.668 33.0929 135.363 31.926 135.363 30.6576ZM147.235 31.0762C147.235 30.0108 147.032 28.958 146.626 27.918C146.22 26.8779 145.65 26.0281 144.914 25.3686C144.178 24.709 143.328 24.3793 142.364 24.3793C141.02 24.3793 139.967 24.8866 139.206 25.9013C138.471 26.916 138.103 28.1336 138.103 29.5542C138.103 30.6196 138.306 31.6723 138.712 32.7124C139.117 33.7524 139.688 34.6022 140.424 35.2617C141.16 35.9213 142.009 36.2511 142.973 36.2511C144.318 36.2511 145.358 35.7437 146.093 34.729C146.854 33.7144 147.235 32.4967 147.235 31.0762Z" fill="#8CA1C6"/>
<path d="M158.873 26.4721C159.254 25.6603 159.875 24.8866 160.738 24.151C161.626 23.39 162.514 23.0095 163.401 23.0095C163.959 23.0095 164.378 23.0856 164.657 23.2378V26.3579C164.099 25.673 163.313 25.3305 162.298 25.3305C161.233 25.3305 160.395 25.7998 159.787 26.7384C159.178 27.6516 158.873 28.8312 158.873 30.2771V33.3592C158.873 34.7798 159.038 35.7564 159.368 36.2891C159.698 36.8218 160.015 37.1135 160.319 37.1643H154.954C155.259 37.1135 155.576 36.8345 155.905 36.3272C156.261 35.7945 156.438 34.8051 156.438 33.3592V27.6136C156.438 26.5482 156.261 25.8252 155.905 25.4447C155.576 25.0388 155.195 24.8359 154.764 24.8359L158.873 23.0095V26.4721Z" fill="#8CA1C6"/>
<path d="M174.296 37.6209C173.053 37.6209 172.114 37.2023 171.48 36.3652C170.846 35.5027 170.529 34.4754 170.529 33.2831V24.8359H168.398L172.964 19.661V23.3139H177.834V24.8359H172.964V32.8646C172.964 33.8285 173.218 34.5642 173.725 35.0715C174.232 35.5535 174.816 35.7945 175.475 35.7945C175.983 35.7945 176.477 35.6423 176.959 35.3379C177.441 35.0334 177.834 34.6149 178.139 34.0822C177.758 36.4413 176.477 37.6209 174.296 37.6209Z" fill="#8CA1C6"/>
<path d="M186.423 25.2544C186.981 24.5949 187.666 24.0622 188.478 23.6563C189.289 23.2251 190.139 23.0095 191.027 23.0095C192.397 23.0095 193.488 23.4534 194.299 24.3412C195.137 25.2037 195.555 26.4594 195.555 28.1082V33.3973C195.555 34.4627 195.669 35.2744 195.898 35.8325C196.126 36.3906 196.379 36.7711 196.659 36.974C196.938 37.177 197.077 37.2404 197.077 37.1643H191.598C191.598 37.2404 191.737 37.1896 192.016 37.0121C192.295 36.8091 192.549 36.4286 192.777 35.8706C193.006 35.3125 193.12 34.4754 193.12 33.3592V29.0214C193.12 28.159 193.006 27.4741 192.777 26.9667C192.549 26.4594 192.245 26.0408 191.864 25.711C191.281 25.2291 190.583 24.9881 189.771 24.9881C188.858 24.9881 188.072 25.2925 187.412 25.9013C186.753 26.4847 186.423 27.3092 186.423 28.3746V33.3592C186.423 34.45 186.537 35.2744 186.765 35.8325C186.994 36.3906 187.247 36.7711 187.526 36.974C187.831 37.177 187.983 37.2404 187.983 37.1643H182.504C182.504 37.2404 182.643 37.1896 182.922 37.0121C183.201 36.8091 183.442 36.4286 183.645 35.8706C183.874 35.2871 183.988 34.45 183.988 33.3592V13.7632C183.988 12.6977 183.81 11.9748 183.455 11.5943C183.125 11.1884 182.745 10.9855 182.313 10.9855H182.085L186.423 9.00684V25.2544Z" fill="#8CA1C6"/>
<path d="M222.294 37.6209C220.975 37.6209 219.707 37.4433 218.489 37.0882C217.272 36.7077 216.181 36.1876 215.217 35.5281V30.924C215.876 32.6236 216.878 33.9173 218.223 34.8051C219.593 35.6676 221.013 36.0989 222.484 36.0989C223.956 36.0989 225.186 35.6169 226.175 34.6529C227.165 33.6636 227.659 32.446 227.659 31.0001C227.659 30.0361 227.456 29.2117 227.051 28.5268C226.67 27.8419 226.049 27.2077 225.186 26.6243C224.324 26.0155 223.106 25.3432 221.533 24.6076C219.326 23.5929 217.715 22.5402 216.701 21.4494C215.711 20.3332 215.217 18.9888 215.217 17.416C215.217 16.0716 215.534 14.8793 216.168 13.8393C216.828 12.7738 217.703 11.9621 218.794 11.404C219.91 10.8206 221.127 10.5289 222.446 10.5289C223.588 10.5289 224.704 10.6937 225.795 11.0235C226.886 11.3279 227.9 11.7718 228.839 12.3553V16.4648C228.23 15.0696 227.304 13.9915 226.061 13.2305C224.844 12.4441 223.601 12.0509 222.332 12.0509C220.886 12.0509 219.719 12.5202 218.832 13.4588C217.944 14.3973 217.5 15.5135 217.5 16.8072C217.5 17.7458 217.766 18.5575 218.299 19.2424C218.832 19.902 219.478 20.4601 220.24 20.9167C221.026 21.3733 222.117 21.9314 223.512 22.5909C224.932 23.2758 226.099 23.91 227.013 24.4934C227.926 25.0769 228.687 25.8379 229.296 26.7765C229.904 27.715 230.209 28.8566 230.209 30.201C230.209 31.723 229.841 33.0421 229.105 34.1583C228.395 35.2744 227.431 36.1369 226.213 36.7457C225.021 37.3292 223.715 37.6209 222.294 37.6209Z" fill="#8CA1C6"/>
<path d="M240.951 37.6209C239.708 37.6209 238.77 37.2023 238.135 36.3652C237.501 35.5027 237.184 34.4754 237.184 33.2831V24.8359H235.053L239.619 19.661V23.3139H244.49V24.8359H239.619V32.8646C239.619 33.8285 239.873 34.5642 240.38 35.0715C240.888 35.5535 241.471 35.7945 242.131 35.7945C242.638 35.7945 243.133 35.6423 243.615 35.3379C244.097 35.0334 244.49 34.6149 244.794 34.0822C244.414 36.4413 243.133 37.6209 240.951 37.6209Z" fill="#8CA1C6"/>
<path d="M260.574 37.6209C259.763 37.5955 259.078 37.3799 258.52 36.974C257.962 36.5682 257.644 36.0989 257.568 35.5662C257.112 36.2257 256.503 36.733 255.742 37.0882C255.006 37.4433 254.271 37.6209 253.535 37.6209C252.368 37.6209 251.391 37.2911 250.605 36.6316C249.819 35.9467 249.425 35.0588 249.425 33.968C249.425 31.1523 252.064 29.7444 257.34 29.7444V29.3259C257.34 27.9307 257.137 26.9033 256.731 26.2438C256.173 25.3052 255.26 24.8359 253.992 24.8359C253.002 24.8359 252.178 25.1276 251.518 25.711C250.884 26.2945 250.567 27.0555 250.567 27.9941C250.415 27.7404 250.288 27.5121 250.187 27.3092C250.11 27.1062 250.072 26.8272 250.072 26.4721C250.072 25.5588 250.504 24.7598 251.366 24.0749C252.229 23.3646 253.357 23.0095 254.753 23.0095C256.731 23.0095 258.139 23.669 258.976 24.9881C259.255 25.394 259.458 25.9013 259.585 26.5101C259.712 27.1189 259.775 27.918 259.775 28.9073V33.4353C259.775 34.2217 259.991 34.8305 260.422 35.2617C260.879 35.693 261.513 35.9086 262.325 35.9086H262.819L260.574 37.6209ZM257.34 30.8859C255.311 30.8859 253.941 31.1396 253.231 31.6469C252.52 32.1543 252.165 32.8392 252.165 33.7017C252.165 34.412 252.355 34.97 252.736 35.3759C253.116 35.7818 253.624 35.9847 254.258 35.9847C254.74 35.9847 255.197 35.8706 255.628 35.6423C256.059 35.414 256.427 35.0969 256.731 34.691C257.137 34.1583 257.34 33.4353 257.34 32.5221V30.8859Z" fill="#8CA1C6"/>
<path d="M270.216 26.4721C270.596 25.6603 271.218 24.8866 272.08 24.151C272.968 23.39 273.856 23.0095 274.744 23.0095C275.302 23.0095 275.721 23.0856 276 23.2378V26.3579C275.442 25.673 274.655 25.3305 273.641 25.3305C272.575 25.3305 271.738 25.7998 271.129 26.7384C270.52 27.6516 270.216 28.8312 270.216 30.2771V33.3592C270.216 34.7798 270.381 35.7564 270.711 36.2891C271.04 36.8218 271.358 37.1135 271.662 37.1643H266.297C266.601 37.1135 266.918 36.8345 267.248 36.3272C267.603 35.7945 267.781 34.8051 267.781 33.3592V27.6136C267.781 26.5482 267.603 25.8252 267.248 25.4447C266.918 25.0388 266.538 24.8359 266.107 24.8359L270.216 23.0095V26.4721Z" fill="#8CA1C6"/>
<path d="M104.757 69.1973V56.3539H105.986L110.812 65.6267L115.602 56.3539H116.831V69.1973H115.477V59.1594L111.293 67.2116H110.331L106.093 59.1776V69.1973H104.757Z" fill="#8CA1C6"/>
<path d="M139.736 69.1973V56.3539H147.66V57.6109H141.16V62.056H147.286V63.313H141.16V67.9403H147.66V69.1973H139.736Z" fill="#8CA1C6"/>
<path d="M169.898 69.1973V56.3539H174.136C176.166 56.3539 177.733 56.9065 178.837 58.0117C179.941 59.1047 180.493 60.6897 180.493 62.7665C180.493 64.8433 179.941 66.4343 178.837 67.5395C177.733 68.6447 176.166 69.1973 174.136 69.1973H169.898ZM171.358 67.9221H174.029C177.306 67.9221 178.944 66.2036 178.944 62.7665C178.944 59.3416 177.306 57.6291 174.029 57.6291H171.358V67.9221Z" fill="#8CA1C6"/>
<path d="M206.954 69.3613C205.969 69.3613 205.079 69.2338 204.283 68.9787C203.488 68.7115 202.799 68.3289 202.218 67.831L202.734 66.6286C203.34 67.1023 203.975 67.4545 204.64 67.6853C205.304 67.916 206.076 68.0314 206.954 68.0314C208.023 68.0314 208.812 67.831 209.323 67.4302C209.845 67.0173 210.106 66.4768 210.106 65.8088C210.106 65.2745 209.916 64.8494 209.537 64.5336C209.169 64.2178 208.545 63.9689 207.667 63.7867L205.815 63.4041C204.699 63.1612 203.862 62.7665 203.304 62.22C202.758 61.6613 202.485 60.9204 202.485 59.9974C202.485 59.2323 202.675 58.5643 203.055 57.9935C203.446 57.4226 203.987 56.9793 204.675 56.6636C205.364 56.3478 206.159 56.1899 207.061 56.1899C207.904 56.1899 208.688 56.3296 209.412 56.6089C210.136 56.8761 210.747 57.2648 211.246 57.7749L210.73 58.9408C210.195 58.4428 209.632 58.0846 209.038 57.8659C208.444 57.6352 207.78 57.5198 207.044 57.5198C206.106 57.5198 205.358 57.7445 204.8 58.1939C204.242 58.6311 203.963 59.2141 203.963 59.9428C203.963 60.5257 204.135 60.9872 204.479 61.3273C204.835 61.6674 205.411 61.9163 206.207 62.0742L208.059 62.475C209.258 62.7301 210.142 63.1187 210.712 63.6409C211.294 64.151 211.584 64.8494 211.584 65.736C211.584 66.4525 211.394 67.0841 211.015 67.6306C210.647 68.1771 210.112 68.6022 209.412 68.9058C208.723 69.2095 207.904 69.3613 206.954 69.3613Z" fill="#8CA1C6"/>
<path d="M233.63 69.1973V56.3539H238.599C239.952 56.3539 240.985 56.6879 241.697 57.3558C242.421 58.0238 242.783 58.9772 242.783 60.216C242.783 61.4427 242.421 62.3961 241.697 63.0762C240.985 63.7442 239.952 64.0782 238.599 64.0782H235.091V69.1973H233.63ZM235.091 62.8211H238.421C240.367 62.8211 241.341 61.9528 241.341 60.216C241.341 58.4671 240.367 57.5927 238.421 57.5927H235.091V62.8211Z" fill="#8CA1C6"/>
<path d="M262.199 69.1973L267.737 56.3539H268.984L274.522 69.1973H273.008L271.619 65.9181H265.084L263.713 69.1973H262.199ZM268.342 58.1028L265.618 64.6611H271.103L268.378 58.1028H268.342Z" fill="#8CA1C6"/>
<path d="M150.125 45.9455H230.617V47.409H150.125V45.9455Z" fill="#8CA1C6"/>
<path d="M40.3642 9.00684L47.9214 32.2654H72.3769L52.592 46.64L60.1492 69.8986L40.3642 55.524L20.5793 69.8986L28.1365 46.64L8.35155 32.2654H32.8071L40.3642 9.00684Z" fill="#8CA1C6"/>
<path fill-rule="evenodd" clip-rule="evenodd" d="M49.1965 29.7783L39.6679 0.452242L41.0598 0L50.5884 29.326L49.1965 29.7783ZM30.8352 30.2839L0 30.2839V28.8204L30.8352 28.8204V30.2839ZM55.3513 47.0847L80.2976 28.9602L81.1578 30.1442L56.2116 48.2686L55.3513 47.0847ZM25.6422 47.9028L16.1135 77.2288L14.7217 76.7766L24.2503 47.4505L25.6422 47.9028ZM40.7939 58.2862L65.7402 76.4107L64.88 77.5947L39.9337 59.4702L40.7939 58.2862Z" fill="#8CA1C6"/>
</svg>
