<svg width="313" height="73" viewBox="0 0 313 73" fill="none" xmlns="http://www.w3.org/2000/svg">
<path d="M22.1172 0.742188V3.98926H12.9326V27.999H9.18457V3.98926H0V0.742188H22.1172Z" fill="#8CA1C6"/>
<path d="M25.0674 0.649414H28.4072V10.8174C29.1989 9.81543 29.9102 9.11035 30.541 8.70215C31.6172 7.99707 32.9593 7.64453 34.5674 7.64453C37.4495 7.64453 39.404 8.65267 40.4307 10.6689C40.9873 11.7699 41.2656 13.2975 41.2656 15.252V27.999H37.833V15.4746C37.833 14.015 37.6475 12.945 37.2764 12.2646C36.6702 11.1761 35.5322 10.6318 33.8623 10.6318C32.4769 10.6318 31.2214 11.1081 30.0957 12.0605C28.9701 13.013 28.4072 14.8128 28.4072 17.46V27.999H25.0674V0.649414Z" fill="#8CA1C6"/>
<path d="M54.4951 7.68164C55.9053 7.68164 57.2721 8.01562 58.5957 8.68359C59.9193 9.33919 60.9274 10.1927 61.6201 11.2441C62.2881 12.2461 62.7334 13.415 62.9561 14.751C63.154 15.6663 63.2529 17.126 63.2529 19.1299H48.6875C48.7493 21.1462 49.2256 22.7666 50.1162 23.9912C51.0068 25.2035 52.3861 25.8096 54.2539 25.8096C55.998 25.8096 57.3896 25.2344 58.4287 24.084C59.0225 23.416 59.443 22.6429 59.6904 21.7646H62.9746C62.888 22.4945 62.5973 23.3109 62.1025 24.2139C61.6201 25.1045 61.0758 25.8343 60.4697 26.4033C59.4554 27.3929 58.1999 28.0609 56.7031 28.4072C55.8991 28.6051 54.9899 28.7041 53.9756 28.7041C51.5016 28.7041 49.4049 27.8073 47.6855 26.0137C45.9661 24.2077 45.1064 21.6842 45.1064 18.4434C45.1064 15.252 45.9723 12.6605 47.7041 10.6689C49.4359 8.67741 51.6995 7.68164 54.4951 7.68164ZM59.8203 16.4766C59.6842 15.0293 59.3688 13.8727 58.874 13.0068C57.9587 11.3988 56.431 10.5947 54.291 10.5947C52.7572 10.5947 51.4707 11.1514 50.4316 12.2646C49.3926 13.3656 48.8421 14.7695 48.7803 16.4766H59.8203Z" fill="#8CA1C6"/>
<path d="M89.8789 0C93.3301 0 96.0081 0.90918 97.9131 2.72754C99.818 4.5459 100.876 6.61165 101.086 8.9248H97.4863C97.0781 7.16829 96.2617 5.77669 95.0371 4.75C93.8249 3.72331 92.1178 3.20996 89.916 3.20996C87.2318 3.20996 85.0609 4.15625 83.4033 6.04883C81.7581 7.92904 80.9355 10.8174 80.9355 14.7139C80.9355 17.9053 81.6777 20.4967 83.1621 22.4883C84.6589 24.4674 86.8854 25.457 89.8418 25.457C92.5632 25.457 94.6351 24.4118 96.0576 22.3213C96.8122 21.2204 97.375 19.7731 97.7461 17.9795H101.346C101.024 20.8493 99.9603 23.2552 98.1543 25.1973C95.9896 27.5352 93.0703 28.7041 89.3965 28.7041C86.2298 28.7041 83.5703 27.7454 81.418 25.8281C78.5853 23.2923 77.1689 19.3773 77.1689 14.083C77.1689 10.0628 78.2327 6.76628 80.3604 4.19336C82.6611 1.39779 85.834 0 89.8789 0Z" fill="#8CA1C6"/>
<path d="M113.685 7.68164C115.095 7.68164 116.462 8.01562 117.785 8.68359C119.109 9.33919 120.117 10.1927 120.81 11.2441C121.478 12.2461 121.923 13.415 122.146 14.751C122.343 15.6663 122.442 17.126 122.442 19.1299H107.877C107.939 21.1462 108.415 22.7666 109.306 23.9912C110.196 25.2035 111.576 25.8096 113.443 25.8096C115.188 25.8096 116.579 25.2344 117.618 24.084C118.212 23.416 118.632 22.6429 118.88 21.7646H122.164C122.077 22.4945 121.787 23.3109 121.292 24.2139C120.81 25.1045 120.265 25.8343 119.659 26.4033C118.645 27.3929 117.389 28.0609 115.893 28.4072C115.089 28.6051 114.179 28.7041 113.165 28.7041C110.691 28.7041 108.594 27.8073 106.875 26.0137C105.156 24.2077 104.296 21.6842 104.296 18.4434C104.296 15.252 105.162 12.6605 106.894 10.6689C108.625 8.67741 110.889 7.68164 113.685 7.68164ZM119.01 16.4766C118.874 15.0293 118.558 13.8727 118.063 13.0068C117.148 11.3988 115.62 10.5947 113.48 10.5947C111.947 10.5947 110.66 11.1514 109.621 12.2646C108.582 13.3656 108.032 14.7695 107.97 16.4766H119.01Z" fill="#8CA1C6"/>
<path d="M126.562 8.12695H129.734V10.9473C130.674 9.78451 131.67 8.94954 132.722 8.44238C133.773 7.93522 134.942 7.68164 136.229 7.68164C139.049 7.68164 140.954 8.66504 141.943 10.6318C142.488 11.708 142.76 13.248 142.76 15.252V27.999H139.364V15.4746C139.364 14.2624 139.185 13.2852 138.826 12.543C138.232 11.306 137.156 10.6875 135.598 10.6875C134.806 10.6875 134.157 10.7679 133.649 10.9287C132.734 11.2008 131.93 11.7451 131.237 12.5615C130.681 13.2171 130.316 13.8975 130.143 14.6025C129.982 15.2952 129.901 16.291 129.901 17.5898V27.999H126.562V8.12695Z" fill="#8CA1C6"/>
<path d="M148.382 2.5791H151.759V8.12695H154.932V10.8545H151.759V23.8242C151.759 24.5169 151.994 24.9808 152.464 25.2158C152.724 25.3519 153.157 25.4199 153.763 25.4199C153.924 25.4199 154.097 25.4199 154.282 25.4199C154.468 25.4076 154.684 25.389 154.932 25.3643V27.999C154.548 28.1104 154.146 28.1908 153.726 28.2402C153.317 28.2897 152.872 28.3145 152.39 28.3145C150.831 28.3145 149.773 27.9186 149.217 27.127C148.66 26.3229 148.382 25.2839 148.382 24.0098V10.8545H145.691V8.12695H148.382V2.5791Z" fill="#8CA1C6"/>
<path d="M166.565 7.68164C167.976 7.68164 169.342 8.01562 170.666 8.68359C171.99 9.33919 172.998 10.1927 173.69 11.2441C174.358 12.2461 174.804 13.415 175.026 14.751C175.224 15.6663 175.323 17.126 175.323 19.1299H160.758C160.82 21.1462 161.296 22.7666 162.187 23.9912C163.077 25.2035 164.456 25.8096 166.324 25.8096C168.068 25.8096 169.46 25.2344 170.499 24.084C171.093 23.416 171.513 22.6429 171.761 21.7646H175.045C174.958 22.4945 174.668 23.3109 174.173 24.2139C173.69 25.1045 173.146 25.8343 172.54 26.4033C171.526 27.3929 170.27 28.0609 168.773 28.4072C167.969 28.6051 167.06 28.7041 166.046 28.7041C163.572 28.7041 161.475 27.8073 159.756 26.0137C158.036 24.2077 157.177 21.6842 157.177 18.4434C157.177 15.252 158.043 12.6605 159.774 10.6689C161.506 8.67741 163.77 7.68164 166.565 7.68164ZM171.891 16.4766C171.755 15.0293 171.439 13.8727 170.944 13.0068C170.029 11.3988 168.501 10.5947 166.361 10.5947C164.827 10.5947 163.541 11.1514 162.502 12.2646C161.463 13.3656 160.912 14.7695 160.851 16.4766H171.891Z" fill="#8CA1C6"/>
<path d="M179.535 8.12695H182.708V11.5596C182.968 10.8916 183.605 10.0814 184.619 9.12891C185.633 8.16406 186.802 7.68164 188.126 7.68164C188.188 7.68164 188.293 7.68783 188.441 7.7002C188.59 7.71257 188.843 7.7373 189.202 7.77441V11.2998C189.004 11.2627 188.819 11.238 188.646 11.2256C188.485 11.2132 188.305 11.207 188.107 11.207C186.425 11.207 185.132 11.7513 184.229 12.8398C183.326 13.916 182.875 15.1592 182.875 16.5693V27.999H179.535V8.12695Z" fill="#8CA1C6"/>
<path d="M203.508 5.10254C203.557 3.71712 203.799 2.7028 204.231 2.05957C205.011 0.921549 206.514 0.352539 208.74 0.352539C208.951 0.352539 209.167 0.358724 209.39 0.371094C209.612 0.383464 209.866 0.402018 210.15 0.426758V3.46973C209.804 3.44499 209.55 3.43262 209.39 3.43262C209.241 3.42025 209.099 3.41406 208.963 3.41406C207.949 3.41406 207.342 3.68001 207.145 4.21191C206.947 4.73145 206.848 6.06738 206.848 8.21973H210.15V10.8545H206.811V27.999H203.508V10.8545H200.743V8.21973H203.508V5.10254Z" fill="#8CA1C6"/>
<path d="M221.135 25.8467C223.349 25.8467 224.864 25.0117 225.681 23.3418C226.509 21.6595 226.924 19.7917 226.924 17.7383C226.924 15.8828 226.627 14.3737 226.033 13.2109C225.093 11.3802 223.473 10.4648 221.172 10.4648C219.131 10.4648 217.646 11.2441 216.719 12.8027C215.791 14.3613 215.327 16.2415 215.327 18.4434C215.327 20.5586 215.791 22.3213 216.719 23.7314C217.646 25.1416 219.118 25.8467 221.135 25.8467ZM221.265 7.55176C223.825 7.55176 225.99 8.40527 227.759 10.1123C229.528 11.8193 230.412 14.3304 230.412 17.6455C230.412 20.8493 229.633 23.4964 228.074 25.5869C226.516 27.6774 224.097 28.7227 220.819 28.7227C218.086 28.7227 215.915 27.8011 214.307 25.958C212.699 24.1025 211.895 21.6162 211.895 18.499C211.895 15.1592 212.742 12.4997 214.437 10.5205C216.131 8.54134 218.407 7.55176 221.265 7.55176Z" fill="#8CA1C6"/>
<path d="M234.494 8.12695H237.667V11.5596C237.927 10.8916 238.564 10.0814 239.578 9.12891C240.592 8.16406 241.761 7.68164 243.085 7.68164C243.147 7.68164 243.252 7.68783 243.4 7.7002C243.549 7.71257 243.802 7.7373 244.161 7.77441V11.2998C243.963 11.2627 243.778 11.238 243.604 11.2256C243.444 11.2132 243.264 11.207 243.066 11.207C241.384 11.207 240.091 11.7513 239.188 12.8398C238.285 13.916 237.834 15.1592 237.834 16.5693V27.999H234.494V8.12695Z" fill="#8CA1C6"/>
<path d="M2.18945 44.7422H7.47754L15.3076 67.7871L23.082 44.7422H28.3145V71.999H24.8076V55.9121C24.8076 55.3555 24.82 54.4339 24.8447 53.1475C24.8695 51.861 24.8818 50.4818 24.8818 49.0098L17.1074 71.999H13.4521L5.62207 49.0098V49.8447C5.62207 50.5127 5.63444 51.5332 5.65918 52.9062C5.69629 54.2669 5.71484 55.2689 5.71484 55.9121V71.999H2.18945V44.7422Z" fill="#8CA1C6"/>
<path d="M41.7666 51.6816C43.1768 51.6816 44.5436 52.0156 45.8672 52.6836C47.1908 53.3392 48.1989 54.1927 48.8916 55.2441C49.5596 56.2461 50.0049 57.415 50.2275 58.751C50.4255 59.6663 50.5244 61.126 50.5244 63.1299H35.959C36.0208 65.1462 36.4971 66.7666 37.3877 67.9912C38.2783 69.2035 39.6576 69.8096 41.5254 69.8096C43.2695 69.8096 44.6611 69.2344 45.7002 68.084C46.2939 67.416 46.7145 66.6429 46.9619 65.7646H50.2461C50.1595 66.4945 49.8688 67.3109 49.374 68.2139C48.8916 69.1045 48.3473 69.8343 47.7412 70.4033C46.7269 71.3929 45.4714 72.0609 43.9746 72.4072C43.1706 72.6051 42.2614 72.7041 41.2471 72.7041C38.7731 72.7041 36.6764 71.8073 34.957 70.0137C33.2376 68.2077 32.3779 65.6842 32.3779 62.4434C32.3779 59.252 33.2438 56.6605 34.9756 54.6689C36.7074 52.6774 38.971 51.6816 41.7666 51.6816ZM47.0918 60.4766C46.9557 59.0293 46.6403 57.8727 46.1455 57.0068C45.2301 55.3988 43.7025 54.5947 41.5625 54.5947C40.0286 54.5947 38.7422 55.1514 37.7031 56.2646C36.6641 57.3656 36.1136 58.7695 36.0518 60.4766H47.0918Z" fill="#8CA1C6"/>
<path d="M56.7588 62.2949C56.7588 64.4225 57.2103 66.2038 58.1133 67.6387C59.0163 69.0736 60.4635 69.791 62.4551 69.791C64.0013 69.791 65.2692 69.1292 66.2588 67.8057C67.2607 66.4697 67.7617 64.5586 67.7617 62.0723C67.7617 59.5612 67.2484 57.7057 66.2217 56.5059C65.195 55.2936 63.9271 54.6875 62.418 54.6875C60.7357 54.6875 59.3688 55.3307 58.3174 56.6172C57.2783 57.9036 56.7588 59.7962 56.7588 62.2949ZM61.7871 51.7744C63.3086 51.7744 64.5827 52.096 65.6094 52.7393C66.2031 53.1104 66.8773 53.7598 67.6318 54.6875V44.6494H70.8418V71.999H67.8359V69.2344C67.0566 70.459 66.1351 71.3434 65.0713 71.8877C64.0075 72.432 62.7891 72.7041 61.416 72.7041C59.2018 72.7041 57.2845 71.7764 55.6641 69.9209C54.0436 68.0531 53.2334 65.5729 53.2334 62.4805C53.2334 59.5859 53.9694 57.0811 55.4414 54.9658C56.9258 52.8382 59.041 51.7744 61.7871 51.7744Z" fill="#8CA1C6"/>
<path d="M75.7959 52.2197H79.1914V71.999H75.7959V52.2197ZM75.7959 44.7422H79.1914V48.5273H75.7959V44.7422Z" fill="#8CA1C6"/>
<path d="M91.9199 51.5518C94.1589 51.5518 95.9772 52.096 97.375 53.1846C98.7852 54.2731 99.6325 56.1471 99.917 58.8066H96.6699C96.472 57.582 96.0205 56.5677 95.3154 55.7637C94.6104 54.9473 93.4785 54.5391 91.9199 54.5391C89.7923 54.5391 88.2708 55.5781 87.3555 57.6562C86.7617 59.0046 86.4648 60.6683 86.4648 62.6475C86.4648 64.639 86.8854 66.3151 87.7266 67.6758C88.5677 69.0365 89.8913 69.7168 91.6973 69.7168C93.0827 69.7168 94.1774 69.2962 94.9814 68.4551C95.7979 67.6016 96.3607 66.4388 96.6699 64.9668H99.917C99.5459 67.6016 98.6182 69.5312 97.1338 70.7559C95.6494 71.9681 93.7507 72.5742 91.4375 72.5742C88.8398 72.5742 86.7679 71.6279 85.2217 69.7354C83.6755 67.8304 82.9023 65.4554 82.9023 62.6104C82.9023 59.1221 83.7497 56.4069 85.4443 54.4648C87.139 52.5228 89.2975 51.5518 91.9199 51.5518Z" fill="#8CA1C6"/>
<path d="M105.817 66.7109C105.817 67.6758 106.17 68.4365 106.875 68.9932C107.58 69.5498 108.415 69.8281 109.38 69.8281C110.555 69.8281 111.693 69.556 112.794 69.0117C114.649 68.1087 115.577 66.6305 115.577 64.5771V61.8867C115.169 62.1465 114.643 62.363 114 62.5361C113.357 62.7093 112.726 62.833 112.107 62.9072L110.085 63.167C108.873 63.3278 107.964 63.5814 107.357 63.9277C106.331 64.5091 105.817 65.4368 105.817 66.7109ZM113.907 59.957C114.674 59.8581 115.188 59.5365 115.447 58.9922C115.596 58.6953 115.67 58.2686 115.67 57.7119C115.67 56.5739 115.262 55.7513 114.445 55.2441C113.641 54.7246 112.485 54.4648 110.976 54.4648C109.231 54.4648 107.994 54.9349 107.265 55.875C106.856 56.3945 106.59 57.1676 106.467 58.1943H103.35C103.411 55.7451 104.203 54.0443 105.725 53.0918C107.258 52.127 109.034 51.6445 111.05 51.6445C113.388 51.6445 115.286 52.0898 116.746 52.9805C118.193 53.8711 118.917 55.2565 118.917 57.1367V68.585C118.917 68.9313 118.985 69.2096 119.121 69.4199C119.27 69.6302 119.573 69.7354 120.03 69.7354C120.179 69.7354 120.346 69.7292 120.531 69.7168C120.717 69.6921 120.915 69.6611 121.125 69.624V72.0918C120.605 72.2402 120.21 72.333 119.938 72.3701C119.665 72.4072 119.294 72.4258 118.824 72.4258C117.674 72.4258 116.839 72.0176 116.319 71.2012C116.047 70.7682 115.855 70.1559 115.744 69.3643C115.064 70.2549 114.087 71.028 112.812 71.6836C111.538 72.3392 110.134 72.667 108.601 72.667C106.757 72.667 105.248 72.1104 104.073 70.9971C102.91 69.8714 102.329 68.4674 102.329 66.7852C102.329 64.9421 102.904 63.5133 104.055 62.499C105.205 61.4847 106.714 60.86 108.582 60.625L113.907 59.957Z" fill="#8CA1C6"/>
<path d="M124.502 44.7422H127.842V71.999H124.502V44.7422Z" fill="#8CA1C6"/>
<path d="M155.804 60.8291L151.666 48.7871L147.269 60.8291H155.804ZM149.736 44.7422H153.911L163.801 71.999H159.756L156.991 63.835H146.211L143.261 71.999H139.476L149.736 44.7422Z" fill="#8CA1C6"/>
<path d="M174.989 51.6816C176.399 51.6816 177.766 52.0156 179.09 52.6836C180.413 53.3392 181.422 54.1927 182.114 55.2441C182.782 56.2461 183.228 57.415 183.45 58.751C183.648 59.6663 183.747 61.126 183.747 63.1299H169.182C169.243 65.1462 169.72 66.7666 170.61 67.9912C171.501 69.2035 172.88 69.8096 174.748 69.8096C176.492 69.8096 177.884 69.2344 178.923 68.084C179.517 67.416 179.937 66.6429 180.185 65.7646H183.469C183.382 66.4945 183.091 67.3109 182.597 68.2139C182.114 69.1045 181.57 69.8343 180.964 70.4033C179.95 71.3929 178.694 72.0609 177.197 72.4072C176.393 72.6051 175.484 72.7041 174.47 72.7041C171.996 72.7041 169.899 71.8073 168.18 70.0137C166.46 68.2077 165.601 65.6842 165.601 62.4434C165.601 59.252 166.466 56.6605 168.198 54.6689C169.93 52.6774 172.194 51.6816 174.989 51.6816ZM180.314 60.4766C180.178 59.0293 179.863 57.8727 179.368 57.0068C178.453 55.3988 176.925 54.5947 174.785 54.5947C173.251 54.5947 171.965 55.1514 170.926 56.2646C169.887 57.3656 169.336 58.7695 169.274 60.4766H180.314Z" fill="#8CA1C6"/>
<path d="M189.852 65.7646C189.951 66.8779 190.229 67.7314 190.687 68.3252C191.528 69.4014 192.987 69.9395 195.065 69.9395C196.302 69.9395 197.391 69.6735 198.331 69.1416C199.271 68.5973 199.741 67.7624 199.741 66.6367C199.741 65.7832 199.364 65.1338 198.609 64.6885C198.127 64.4163 197.174 64.1009 195.752 63.7422L193.099 63.0742C191.404 62.6536 190.155 62.1836 189.351 61.6641C187.916 60.7611 187.198 59.5117 187.198 57.916C187.198 56.0358 187.872 54.5143 189.221 53.3516C190.581 52.1888 192.406 51.6074 194.694 51.6074C197.688 51.6074 199.846 52.4857 201.17 54.2422C201.999 55.3555 202.401 56.5553 202.376 57.8418H199.222C199.16 57.0872 198.894 56.4007 198.424 55.7822C197.657 54.904 196.327 54.4648 194.435 54.4648C193.173 54.4648 192.214 54.7061 191.559 55.1885C190.915 55.6709 190.594 56.3079 190.594 57.0996C190.594 57.9655 191.021 58.6582 191.874 59.1777C192.369 59.487 193.099 59.7591 194.063 59.9941L196.271 60.5322C198.671 61.1136 200.279 61.6764 201.096 62.2207C202.395 63.0742 203.044 64.4163 203.044 66.2471C203.044 68.016 202.37 69.5436 201.021 70.8301C199.686 72.1165 197.645 72.7598 194.898 72.7598C191.942 72.7598 189.845 72.0918 188.608 70.7559C187.384 69.4076 186.728 67.7438 186.642 65.7646H189.852Z" fill="#8CA1C6"/>
<path d="M207.534 46.5791H210.911V52.127H214.084V54.8545H210.911V67.8242C210.911 68.5169 211.146 68.9808 211.616 69.2158C211.876 69.3519 212.309 69.4199 212.915 69.4199C213.076 69.4199 213.249 69.4199 213.435 69.4199C213.62 69.4076 213.837 69.389 214.084 69.3643V71.999C213.701 72.1104 213.299 72.1908 212.878 72.2402C212.47 72.2897 212.024 72.3145 211.542 72.3145C209.983 72.3145 208.926 71.9186 208.369 71.127C207.812 70.3229 207.534 69.2839 207.534 68.0098V54.8545H204.844V52.127H207.534V46.5791Z" fill="#8CA1C6"/>
<path d="M217.442 44.6494H220.782V54.8174C221.574 53.8154 222.285 53.1104 222.916 52.7021C223.992 51.9971 225.334 51.6445 226.942 51.6445C229.825 51.6445 231.779 52.6527 232.806 54.6689C233.362 55.7699 233.641 57.2975 233.641 59.252V71.999H230.208V59.4746C230.208 58.015 230.022 56.945 229.651 56.2646C229.045 55.1761 227.907 54.6318 226.237 54.6318C224.852 54.6318 223.596 55.1081 222.471 56.0605C221.345 57.013 220.782 58.8128 220.782 61.46V71.999H217.442V44.6494Z" fill="#8CA1C6"/>
<path d="M246.87 51.6816C248.28 51.6816 249.647 52.0156 250.971 52.6836C252.294 53.3392 253.302 54.1927 253.995 55.2441C254.663 56.2461 255.108 57.415 255.331 58.751C255.529 59.6663 255.628 61.126 255.628 63.1299H241.062C241.124 65.1462 241.601 66.7666 242.491 67.9912C243.382 69.2035 244.761 69.8096 246.629 69.8096C248.373 69.8096 249.765 69.2344 250.804 68.084C251.397 67.416 251.818 66.6429 252.065 65.7646H255.35C255.263 66.4945 254.972 67.3109 254.478 68.2139C253.995 69.1045 253.451 69.8343 252.845 70.4033C251.83 71.3929 250.575 72.0609 249.078 72.4072C248.274 72.6051 247.365 72.7041 246.351 72.7041C243.877 72.7041 241.78 71.8073 240.061 70.0137C238.341 68.2077 237.481 65.6842 237.481 62.4434C237.481 59.252 238.347 56.6605 240.079 54.6689C241.811 52.6774 244.075 51.6816 246.87 51.6816ZM252.195 60.4766C252.059 59.0293 251.744 57.8727 251.249 57.0068C250.334 55.3988 248.806 54.5947 246.666 54.5947C245.132 54.5947 243.846 55.1514 242.807 56.2646C241.768 57.3656 241.217 58.7695 241.155 60.4766H252.195Z" fill="#8CA1C6"/>
<path d="M260.415 46.5791H263.792V52.127H266.965V54.8545H263.792V67.8242C263.792 68.5169 264.027 68.9808 264.497 69.2158C264.757 69.3519 265.19 69.4199 265.796 69.4199C265.957 69.4199 266.13 69.4199 266.315 69.4199C266.501 69.4076 266.717 69.389 266.965 69.3643V71.999C266.581 72.1104 266.179 72.1908 265.759 72.2402C265.351 72.2897 264.905 72.3145 264.423 72.3145C262.864 72.3145 261.807 71.9186 261.25 71.127C260.693 70.3229 260.415 69.2839 260.415 68.0098V54.8545H257.725V52.127H260.415V46.5791Z" fill="#8CA1C6"/>
<path d="M270.323 52.2197H273.719V71.999H270.323V52.2197ZM270.323 44.7422H273.719V48.5273H270.323V44.7422Z" fill="#8CA1C6"/>
<path d="M286.447 51.5518C288.686 51.5518 290.505 52.096 291.902 53.1846C293.312 54.2731 294.16 56.1471 294.444 58.8066H291.197C290.999 57.582 290.548 56.5677 289.843 55.7637C289.138 54.9473 288.006 54.5391 286.447 54.5391C284.32 54.5391 282.798 55.5781 281.883 57.6562C281.289 59.0046 280.992 60.6683 280.992 62.6475C280.992 64.639 281.413 66.3151 282.254 67.6758C283.095 69.0365 284.419 69.7168 286.225 69.7168C287.61 69.7168 288.705 69.2962 289.509 68.4551C290.325 67.6016 290.888 66.4388 291.197 64.9668H294.444C294.073 67.6016 293.146 69.5312 291.661 70.7559C290.177 71.9681 288.278 72.5742 285.965 72.5742C283.367 72.5742 281.295 71.6279 279.749 69.7354C278.203 67.8304 277.43 65.4554 277.43 62.6104C277.43 59.1221 278.277 56.4069 279.972 54.4648C281.666 52.5228 283.825 51.5518 286.447 51.5518Z" fill="#8CA1C6"/>
<path d="M299.77 65.7646C299.868 66.8779 300.147 67.7314 300.604 68.3252C301.446 69.4014 302.905 69.9395 304.983 69.9395C306.22 69.9395 307.309 69.6735 308.249 69.1416C309.189 68.5973 309.659 67.7624 309.659 66.6367C309.659 65.7832 309.282 65.1338 308.527 64.6885C308.045 64.4163 307.092 64.1009 305.67 63.7422L303.017 63.0742C301.322 62.6536 300.073 62.1836 299.269 61.6641C297.834 60.7611 297.116 59.5117 297.116 57.916C297.116 56.0358 297.79 54.5143 299.139 53.3516C300.499 52.1888 302.324 51.6074 304.612 51.6074C307.606 51.6074 309.764 52.4857 311.088 54.2422C311.917 55.3555 312.319 56.5553 312.294 57.8418H309.14C309.078 57.0872 308.812 56.4007 308.342 55.7822C307.575 54.904 306.245 54.4648 304.353 54.4648C303.091 54.4648 302.132 54.7061 301.477 55.1885C300.833 55.6709 300.512 56.3079 300.512 57.0996C300.512 57.9655 300.938 58.6582 301.792 59.1777C302.287 59.487 303.017 59.7591 303.981 59.9941L306.189 60.5322C308.589 61.1136 310.197 61.6764 311.014 62.2207C312.312 63.0742 312.962 64.4163 312.962 66.2471C312.962 68.016 312.288 69.5436 310.939 70.8301C309.604 72.1165 307.562 72.7598 304.816 72.7598C301.86 72.7598 299.763 72.0918 298.526 70.7559C297.302 69.4076 296.646 67.7438 296.56 65.7646H299.77Z" fill="#8CA1C6"/>
</svg>
