<svg width="276" height="39" viewBox="0 0 276 39" fill="none" xmlns="http://www.w3.org/2000/svg">
<path d="M51.7979 29.4991V28.2034L63.296 11.4023L52.7022 11.791L52.2716 9.977H67.2148V11.1863L55.7598 27.9442L67.344 27.4691L67.7746 29.4991H51.7979Z" fill="#8CA1C6"/>
<path d="M74.8086 18.8742C74.8086 21.9839 75.4976 24.2298 76.8756 25.6119C78.2824 26.9652 79.9763 27.6419 81.9572 27.6419C83.9669 27.6419 85.8186 27.2532 87.5125 26.4758V27.9874C85.1583 29.3407 82.9046 30.0174 80.7514 30.0174C77.9666 30.0174 75.7129 29.168 73.9904 27.4691C72.2678 25.7703 71.4065 23.3084 71.4065 20.0836C71.4065 16.8587 72.3539 14.2816 74.2487 12.3525C76.1723 10.4233 78.4834 9.45871 81.1821 9.45871C83.2779 9.45871 85.0291 10.2937 86.4359 11.9638C87.8427 13.605 88.546 15.9085 88.546 18.8742H74.8086ZM78.9858 11.4887C77.981 11.9782 77.1197 12.77 76.4019 13.8641C75.6842 14.9295 75.2105 16.1676 74.9808 17.5785H85.0578C84.9717 16.3692 84.6846 15.3326 84.1966 14.4688C83.7372 13.605 83.1774 12.9715 82.5171 12.5684C81.34 11.8486 80.1629 11.4887 78.9858 11.4887Z" fill="#8CA1C6"/>
<path d="M98.7415 12.7412C99.9473 11.5894 100.995 10.7544 101.885 10.2361C102.804 9.71785 103.88 9.45871 105.115 9.45871C106.349 9.45871 107.483 9.9482 108.517 10.9272C109.579 11.9062 110.11 13.5906 110.11 15.9805V29.4991H106.45V16.4124C106.45 15.0015 106.192 13.9505 105.675 13.2595C105.187 12.5396 104.325 12.1797 103.091 12.1797C101.885 12.1797 100.478 12.9859 98.8707 14.5984V29.4991H95.2102V15.9373C95.2102 13.9793 94.4781 12.4101 93.0139 11.2295L95.2102 9.58828L98.7415 12.7412Z" fill="#8CA1C6"/>
<path d="M151.969 9.45871C155.356 9.45871 157.05 12.0357 157.05 17.1898V29.4991H153.433V16.8443C153.433 14.4256 152.974 12.9571 152.055 12.4389C151.596 12.1797 150.95 12.0501 150.117 12.0501C149.313 12.0501 148.437 12.3093 147.49 12.8276C146.571 13.3171 145.897 13.8785 145.466 14.512V29.4991H141.806V16.6283C141.806 15.1023 141.576 13.9649 141.117 13.2163C140.657 12.4389 139.983 12.0501 139.093 12.0501C138.203 12.0501 137.341 12.2517 136.509 12.6548C135.705 13.0579 135.059 13.461 134.571 13.8641C134.083 14.2672 133.839 14.512 133.839 14.5984V29.4991H130.221V15.9373C130.221 13.9793 129.489 12.4101 128.025 11.2295L130.221 9.58828L133.666 12.7412C135.016 11.6182 136.193 10.7976 137.198 10.2793C138.203 9.73225 139.25 9.45871 140.341 9.45871C142.839 9.45871 144.389 10.6249 144.992 12.9571C145.997 11.8054 147.146 10.9416 148.437 10.3657C149.729 9.76104 150.907 9.45871 151.969 9.45871Z" fill="#8CA1C6"/>
<path d="M165.978 18.8742C165.978 21.9839 166.667 24.2298 168.045 25.6119C169.452 26.9652 171.146 27.6419 173.127 27.6419C175.137 27.6419 176.988 27.2532 178.682 26.4758V27.9874C176.328 29.3407 174.074 30.0174 171.921 30.0174C169.136 30.0174 166.883 29.168 165.16 27.4691C163.438 25.7703 162.576 23.3084 162.576 20.0836C162.576 16.8587 163.524 14.2816 165.419 12.3525C167.342 10.4233 169.653 9.45871 172.352 9.45871C174.448 9.45871 176.199 10.2937 177.606 11.9638C179.012 13.605 179.716 15.9085 179.716 18.8742H165.978ZM170.156 11.4887C169.151 11.9782 168.289 12.77 167.572 13.8641C166.854 14.9295 166.38 16.1676 166.151 17.5785H176.228C176.142 16.3692 175.854 15.3326 175.366 14.4688C174.907 13.605 174.347 12.9715 173.687 12.5684C172.51 11.8486 171.333 11.4887 170.156 11.4887Z" fill="#8CA1C6"/>
<path d="M201.194 23.7116C201.194 25.6983 201.926 27.282 203.39 28.4625L201.194 30.0606L197.663 26.9077C196.514 28.0018 195.481 28.7936 194.562 29.2831C193.644 29.7726 192.696 30.0174 191.72 30.0174C190.744 30.0174 189.883 29.8734 189.136 29.5855C188.39 29.2975 187.6 28.8224 186.768 28.1602C185.964 27.4691 185.303 26.4038 184.787 24.9641C184.299 23.4956 184.055 21.6096 184.055 19.3061C184.055 17.0026 184.729 14.7999 186.079 12.698C187.457 10.5673 189.337 9.5019 191.72 9.5019C193.5 9.5019 195.438 10.1642 197.534 11.4887V0H201.194V23.7116ZM197.534 25.1368V13.0867C196.012 12.0789 194.62 11.575 193.356 11.575C191.691 11.575 190.356 12.3669 189.351 13.9505C188.347 15.5054 187.844 17.4633 187.844 19.8244C187.844 22.1855 188.203 24.0859 188.921 25.5256C189.667 26.9364 190.586 27.7859 191.677 28.0738C192.682 27.9874 193.658 27.7427 194.605 27.3396C195.581 26.9364 196.313 26.5333 196.802 26.1302C197.29 25.6983 197.534 25.3672 197.534 25.1368Z" fill="#8CA1C6"/>
<path d="M225.095 11.2727C224.348 11.2727 223.731 11.5606 223.243 12.1365C222.784 12.6836 222.554 13.3171 222.554 14.0369C222.554 14.7279 222.884 15.4046 223.544 16.0669C224.233 16.7003 225.052 17.2762 225.999 17.7945C226.975 18.284 227.937 18.8022 228.884 19.3493C229.832 19.8964 230.636 20.6018 231.296 21.4657C231.985 22.3295 232.329 23.2941 232.329 24.3594C232.329 25.9719 231.684 27.3252 230.392 28.4193C229.1 29.4847 227.334 30.0174 225.095 30.0174C222.884 30.0174 220.86 29.4991 219.023 28.4625V26.8213C220.975 27.8003 222.741 28.2898 224.32 28.2898C225.899 28.2898 227.047 27.973 227.765 27.3396C228.482 26.7061 228.841 25.9863 228.841 25.18C228.841 24.345 228.511 23.6108 227.851 22.9773C227.219 22.3151 226.43 21.7392 225.482 21.2497C224.564 20.7602 223.645 20.2419 222.726 19.6948C221.807 19.1478 221.018 18.4423 220.358 17.5785C219.726 16.7147 219.41 15.6781 219.41 14.4688C219.41 13.2307 219.898 12.0933 220.874 11.0568C221.879 9.99139 223.415 9.45871 225.482 9.45871C227.549 9.45871 229.53 9.83303 231.425 10.5817L230.994 13.4322C228.87 12.2805 226.903 11.5606 225.095 11.2727Z" fill="#8CA1C6"/>
<path d="M242.022 12.7412C243.228 11.5894 244.276 10.7544 245.166 10.2361C246.084 9.71785 247.017 9.45871 247.965 9.45871C248.941 9.45871 249.802 9.61708 250.549 9.93381C251.324 10.2505 252.113 10.7688 252.917 11.4887C253.721 12.1797 254.367 13.2739 254.855 14.7711C255.372 16.2396 255.63 17.8665 255.63 19.6517C255.63 21.4081 255.343 23.0493 254.769 24.5754C254.195 26.1014 253.29 27.4259 252.056 28.5489C250.821 29.6718 249.328 30.2333 247.577 30.2333C245.855 30.2333 244.003 29.5567 242.022 28.2034V38.6555H238.361V15.8077C238.361 13.8209 237.615 12.2517 236.122 11.0999L238.361 9.45871L242.022 12.7412ZM242.022 15.3758V26.9508C245.955 28.8224 248.74 28.5201 250.376 26.0438C251.266 24.633 251.711 22.7758 251.711 20.4723C251.711 18.14 251.338 16.1532 250.592 14.512C249.874 12.842 248.97 11.8342 247.879 11.4887C246.874 11.6038 245.883 11.9638 244.907 12.5684C243.96 13.1731 243.242 13.749 242.754 14.296C242.266 14.8143 242.022 15.1742 242.022 15.3758Z" fill="#8CA1C6"/>
<path d="M270.229 24.9209V20.4723C268.162 20.6162 266.468 21.0769 265.147 21.8544C263.827 22.6318 263.166 23.4668 263.166 24.3594C263.166 25.252 263.396 26.0294 263.855 26.6917C264.315 27.3252 264.903 27.7715 265.621 28.0306C266.568 27.8578 267.573 27.3828 268.636 26.6053C269.698 25.8279 270.229 25.2664 270.229 24.9209ZM273.76 23.7548C273.76 25.7991 274.507 27.354 276 28.4193L273.76 30.0606L270.272 26.9077C268.004 28.9808 265.908 30.0174 263.985 30.0174C262.721 30.0174 261.63 29.6143 260.712 28.808C259.822 28.0018 259.377 26.994 259.377 25.7847C259.377 24.5466 259.736 23.5244 260.453 22.7182C261.2 21.912 262.176 21.2929 263.382 20.861C265.449 20.0836 267.731 19.5941 270.229 19.3925V15.3326C270.229 12.9427 268.851 11.7478 266.095 11.7478C264.516 11.7478 262.65 12.0933 260.496 12.7844L260.109 11.7046C260.683 11.2439 261.674 10.7544 263.08 10.2361C264.516 9.71785 265.879 9.45871 267.171 9.45871C268.463 9.45871 269.54 9.63147 270.401 9.977C271.291 10.3225 271.937 10.7112 272.339 11.1431C272.77 11.575 273.1 12.1653 273.33 12.9139C273.559 13.6626 273.688 14.2529 273.717 14.6848C273.746 15.1167 273.76 15.6925 273.76 16.4124V23.7548Z" fill="#8CA1C6"/>
<path d="M2.70858 14.5047C2.86319 14.7725 2.90509 15.0907 2.82506 15.3894L2.07425 15.1882C2.10093 15.0887 2.08696 14.9826 2.03542 14.8933C1.98389 14.804 1.899 14.7389 1.79944 14.7122C1.69987 14.6855 1.59379 14.6995 1.50453 14.7511C1.41526 14.8026 1.35012 14.8875 1.32345 14.987L0.57264 14.7859C0.652673 14.4872 0.848082 14.2325 1.11588 14.0779C1.38368 13.9233 1.70193 13.8814 2.00061 13.9614C2.2993 14.0415 2.55397 14.2369 2.70858 14.5047Z" fill="#8CA1C6"/>
<path d="M36.2611 29.1517C31.2225 37.8788 20.4366 41.219 11.4445 37.1518C10.4667 36.7095 10.1511 35.5109 10.6877 34.5815C11.2244 33.652 12.4102 33.3468 13.3988 33.7645C20.5189 36.7731 28.9309 34.0751 32.8953 27.2084C37.1882 19.773 34.6406 10.2653 27.2052 5.97244C20.3385 2.00797 11.7045 3.87745 7.04263 10.043C6.39535 10.899 5.21574 11.2276 4.28631 10.691C3.35688 10.1544 3.03085 8.95865 3.65654 8.08669C9.41033 0.0682528 20.4213 -2.43194 29.1484 2.60668C38.4427 7.97275 41.6272 19.8573 36.2611 29.1517Z" fill="#8CA1C6"/>
<path d="M38.8645 19.4355C38.8645 30.1677 30.1644 38.8678 19.4323 38.8678C19.4297 38.8678 19.4271 38.8678 19.4245 38.8678C19.213 38.8677 19.0436 38.6946 19.0436 38.483L19.0436 38.4752C19.0436 38.2618 19.2189 38.0905 19.4323 38.0905C29.7351 38.0905 38.0873 29.7384 38.0873 19.4355C38.0873 9.13262 29.7351 0.780538 19.4323 0.780538C9.12941 0.780538 0.777291 9.13262 0.777291 19.4355C0.777291 24.3503 2.6779 28.8212 5.78422 32.1533C5.92911 32.3087 5.92765 32.5515 5.77741 32.7017C5.62408 32.8551 5.37464 32.8536 5.22665 32.6951C1.98433 29.2229 -8.9003e-08 24.561 0 19.4355C6.06876e-08 8.70336 8.70013 0.003247 19.4323 0.00324686C30.1644 0.00324692 38.8645 8.70336 38.8645 19.4355Z" fill="#8CA1C6"/>
<path d="M5.8913 11.1145C5.97136 11.4132 5.92944 11.7315 5.77488 11.9992L5.10172 11.6105C5.15324 11.5213 5.16722 11.4152 5.14053 11.3157C5.11385 11.2161 5.04874 11.1312 4.95947 11.0796C4.92714 11.061 4.89265 11.0472 4.85706 11.0385C4.79427 11.0233 4.72806 11.0238 4.66455 11.0408C4.56498 11.0675 4.48009 11.1327 4.42857 11.2219L3.75541 10.8333C3.90998 10.5655 4.16467 10.3701 4.46334 10.2901C4.7621 10.2099 5.08031 10.2519 5.34811 10.4065C5.61591 10.5611 5.81135 10.8157 5.8913 11.1145Z" fill="#8CA1C6"/>
<path d="M14.8577 35.1072C17.6329 35.9202 20.6593 36.0058 23.6569 35.2026C32.3647 32.8693 37.5323 23.9188 35.1991 15.2109C32.8658 6.50313 23.9152 1.33551 15.2075 3.66873C9.16876 5.28681 4.83251 10.0874 3.51982 15.7823C3.47161 15.9916 3.60766 16.1974 3.81811 16.2405C4.02827 16.2836 4.23312 16.1479 4.2816 15.9388C5.53665 10.5226 9.66358 5.95903 15.4086 4.41965C23.7018 2.19745 32.2261 7.11899 34.4482 15.4122C36.6704 23.7054 31.7488 32.2298 23.4557 34.4518C20.6389 35.2065 17.7954 35.1371 15.1812 34.3914C15.0852 34.6327 14.9774 34.8715 14.8577 35.1072Z" fill="#8CA1C6"/>
<path d="M16.436 37.0619C21.9503 37.9943 27.8177 36.3328 32.0734 32.0771C39.0552 25.0953 39.0551 13.7758 32.0734 6.79422C25.0917 -0.187421 13.7723 -0.18751 6.79057 6.7942C1.9395 11.6453 0.459147 18.5904 2.3493 24.7196C2.41261 24.9249 2.63332 25.0352 2.83712 24.9673C3.04068 24.8994 3.1503 24.6794 3.08727 24.4742C1.28658 18.6154 2.7043 11.9797 7.34021 7.3438C14.0182 0.665782 24.8457 0.665611 31.5239 7.34378C38.2019 14.0219 38.2019 24.8493 31.5239 31.5274C27.5266 35.5247 22.0428 37.1293 16.8519 36.3414L16.436 37.0619Z" fill="#8CA1C6"/>
<path d="M2.32933 11.233L3.20768 9.45659L4.43448 9.38295L3.83094 11.6354L2.65083 14.538L1.14922 14.1356L1.24981 13.7602L2.32933 11.233Z" fill="#8CA1C6"/>
</svg>
