<svg width="276" height="90" viewBox="0 0 276 90" fill="none" xmlns="http://www.w3.org/2000/svg">
<path d="M11.2955 4.82119C11.2955 5.68079 11.5057 6.74593 11.9262 8.01664C12.3466 9.28734 12.6142 10.1282 12.7289 10.5394C13.1494 11.7727 13.589 13.0621 14.0476 14.4075L22.0175 38.0089L29.5287 15.0242C27.4264 9.04441 25.9547 5.53129 25.1138 4.48483C24.7697 4.1111 24.2919 3.75605 23.6803 3.41969C23.1069 3.04595 22.5527 2.84039 22.0175 2.80302C21.4824 2.72827 20.737 2.6909 19.7814 2.6909L19.6667 2.01817H35.0905L34.9758 2.6909C33.485 2.6909 32.4529 2.8404 31.8796 3.13938C31.3062 3.401 31.0195 4.09241 31.0195 5.21362C31.0195 6.29745 31.8987 9.36209 33.657 14.4075L41.7416 38.0089L49.3101 14.4075C50.8009 9.69845 51.5463 6.50301 51.5463 4.82119C51.5463 3.9616 51.1831 3.401 50.4569 3.13938C49.7688 2.8404 48.6794 2.6909 47.1886 2.6909L47.074 2.01817H61.0069L60.9496 2.6909C59.0384 2.6909 57.624 2.93383 56.7066 3.41969C55.7892 3.86817 54.9101 4.87725 54.0691 6.44695C53.2282 8.01664 52.1961 10.6702 50.9729 14.4075L42.2003 41.5408H38.5307L30.2168 17.3227L22.5336 41.5408H18.9213L9.63267 14.4075C8.6006 11.3803 7.81699 9.21259 7.28184 7.90452C6.78492 6.55907 6.15421 5.43786 5.38971 4.54089C4.66344 3.60655 3.95628 3.06464 3.26823 2.91514C2.58018 2.76565 1.529 2.6909 0.114675 2.6909L0 2.01817H15.4237L15.3091 2.6909C13.8183 2.6909 12.7671 2.82171 12.1555 3.08332C11.5821 3.34494 11.2955 3.92423 11.2955 4.82119Z" fill="#8CA1C6"/>
<path d="M72.9801 0V24.2181C73.3242 21.5272 74.2798 19.1913 75.847 17.2105C77.4142 15.1924 79.4975 14.1833 82.0968 14.1833C87.9452 14.1833 90.8694 17.1732 90.8694 23.1529V32.0105C90.8694 35.8973 91.1178 38.3079 91.6148 39.2423C92.1499 40.1392 93.526 40.5877 95.7431 40.5877L95.8577 41.2604H81.9248L82.0394 40.5877C84.3329 40.5877 85.709 40.1206 86.1677 39.1862C86.6264 38.2519 86.8558 35.6918 86.8558 31.5059V23.7135C86.8558 21.1348 86.4353 19.1913 85.5943 17.8833C84.7916 16.5752 83.492 15.9212 81.6954 15.9212C79.9371 15.9212 78.4654 16.5191 77.2804 17.7151C76.0955 18.8737 75.2163 20.3499 74.6429 22.1439C73.5344 25.6196 72.9801 29.114 72.9801 32.6271C72.9801 36.1403 73.2095 38.3453 73.6682 39.2423C74.1651 40.1392 75.5412 40.5877 77.7965 40.5877L77.9111 41.2604H63.9208L64.0355 40.5877C66.329 40.5877 67.7242 40.1392 68.2211 39.2423C68.7181 38.3079 68.9665 35.86 68.9665 31.8984V13.2303C68.9665 7.62421 68.6989 4.26059 68.1638 3.13938C67.9344 2.6909 67.5713 2.29848 67.0744 1.96212C66.6157 1.62575 66.0997 1.4202 65.5263 1.34545C64.9911 1.2707 64.2457 1.23333 63.2901 1.23333L63.1754 0.616666C66.501 0.205555 69.7692 0 72.9801 0Z" fill="#8CA1C6"/>
<path d="M104.63 7.45603C103.981 6.82068 103.656 6.07321 103.656 5.21362C103.656 4.35403 103.981 3.60655 104.63 2.9712C105.28 2.33585 106.045 2.01817 106.924 2.01817C107.803 2.01817 108.568 2.33585 109.217 2.9712C109.867 3.60655 110.192 4.35403 110.192 5.21362C110.192 6.07321 109.867 6.82068 109.217 7.45603C108.568 8.09138 107.803 8.40906 106.924 8.40906C106.045 8.40906 105.28 8.09138 104.63 7.45603ZM109.103 14.1833V32.0105C109.103 35.9347 109.332 38.3453 109.791 39.2423C110.288 40.1392 111.664 40.5877 113.919 40.5877L114.034 41.2604H100.043L100.158 40.5877C102.452 40.5877 103.847 40.1392 104.344 39.2423C104.841 38.3079 105.089 35.86 105.089 31.8984V27.9741C105.089 23.6388 104.955 20.7797 104.688 19.3969C104.458 17.9767 104.114 17.061 103.656 16.6499C102.738 15.8277 101.324 15.4166 99.4126 15.4166L99.298 14.7999C102.624 14.3888 105.892 14.1833 109.103 14.1833Z" fill="#8CA1C6"/>
<path d="M125.867 14.7439H132.92V15.9772H125.867V37.3362C125.867 38.1211 126.058 38.7564 126.44 39.2423C126.823 39.6908 127.32 39.915 127.931 39.915C129.307 39.915 130.932 39.5226 132.805 38.7377L132.92 39.3544C130.244 40.9988 127.874 41.8211 125.81 41.8211C124.472 41.8211 123.478 41.5034 122.828 40.868C122.178 40.2327 121.853 39.1302 121.853 37.5605V15.9772H118.413V14.7439C120.477 14.7439 121.911 14.1833 122.714 13.0621C123.555 11.9035 124.185 10.203 124.606 7.96058L125.867 7.84846V14.7439Z" fill="#8CA1C6"/>
<path d="M159.543 27.0772H140.737V28.0302C140.737 31.9918 141.597 35.0191 143.317 37.112C145.037 39.1675 147.178 40.1953 149.739 40.1953C153.561 40.1953 156.313 38.7004 157.995 35.7105L158.855 36.159C156.868 39.9337 153.542 41.8211 148.879 41.8211C145.438 41.8211 142.495 40.6064 140.049 38.1771C137.602 35.7478 136.379 32.4777 136.379 28.3666C136.379 24.2181 137.449 20.8171 139.59 18.1636C141.769 15.51 144.655 14.1833 148.248 14.1833C151.879 14.1833 154.67 15.3979 156.619 17.8272C158.569 20.2191 159.543 23.3024 159.543 27.0772ZM148.42 15.3045C146.203 15.3045 144.445 16.2388 143.145 18.1075C141.883 19.9388 141.119 22.3868 140.851 25.4514H155.128C154.861 18.6868 152.625 15.3045 148.42 15.3045Z" fill="#8CA1C6"/>
<path d="M216.602 14.6878V28.5908C216.602 34.1968 216.889 37.5605 217.462 38.6817C217.653 39.1302 217.978 39.5226 218.437 39.8589C218.896 40.1953 219.393 40.4009 219.928 40.4756C220.501 40.5504 221.246 40.5877 222.164 40.5877L222.279 41.2604H206.797L206.912 40.5877C207.868 40.5877 208.613 40.5504 209.148 40.4756C209.722 40.4009 210.238 40.1953 210.696 39.8589C211.193 39.5226 211.537 39.1488 211.728 38.7377C211.958 38.2892 212.149 37.5605 212.302 36.5514C212.493 35.2433 212.588 32.5898 212.588 28.5908V22.4242H189.367V28.5908C189.367 32.5898 189.482 35.318 189.711 36.7756C189.978 38.2332 190.342 39.1488 190.8 39.5226C191.679 40.2327 193.075 40.5877 194.986 40.5877L195.101 41.2604H179.62L179.734 40.5877C180.69 40.5877 181.435 40.5504 181.97 40.4756C182.506 40.4009 183.002 40.1953 183.461 39.8589C183.958 39.5226 184.302 39.1488 184.493 38.7377C184.723 38.2892 184.914 37.5605 185.067 36.5514C185.258 35.2433 185.353 32.5898 185.353 28.5908V14.6878C185.353 10.801 185.239 8.09139 185.009 6.55907C184.78 5.02675 184.436 4.07372 183.977 3.69999C183.06 2.98989 181.645 2.63484 179.734 2.63484L179.62 2.01817H195.101L194.986 2.63484C193.075 2.63484 191.679 2.98989 190.8 3.69999C189.845 4.48483 189.367 8.14744 189.367 14.6878V20.9666H212.588V14.6878C212.588 9.11916 212.302 5.73685 211.728 4.54089C211.537 4.09241 211.193 3.69999 210.696 3.36362C210.238 3.02726 209.722 2.82171 209.148 2.74696C208.613 2.67221 207.868 2.63484 206.912 2.63484L206.797 2.01817H222.279L222.164 2.63484C221.246 2.63484 220.501 2.67221 219.928 2.74696C219.393 2.82171 218.896 3.02726 218.437 3.36362C217.978 3.69999 217.634 4.09241 217.405 4.54089C217.214 4.98938 217.042 5.71816 216.889 6.72725C216.698 8.37169 216.602 11.0252 216.602 14.6878Z" fill="#8CA1C6"/>
<path d="M232.184 7.45603C231.534 6.82068 231.209 6.07321 231.209 5.21362C231.209 4.35403 231.534 3.60655 232.184 2.9712C232.833 2.33585 233.598 2.01817 234.477 2.01817C235.356 2.01817 236.121 2.33585 236.771 2.9712C237.42 3.60655 237.745 4.35403 237.745 5.21362C237.745 6.07321 237.42 6.82068 236.771 7.45603C236.121 8.09138 235.356 8.40906 234.477 8.40906C233.598 8.40906 232.833 8.09138 232.184 7.45603ZM236.656 14.1833V32.0105C236.656 35.9347 236.885 38.3453 237.344 39.2423C237.841 40.1392 239.217 40.5877 241.472 40.5877L241.587 41.2604H227.597L227.711 40.5877C230.005 40.5877 231.4 40.1392 231.897 39.2423C232.394 38.3079 232.642 35.86 232.642 31.8984V27.9741C232.642 23.6388 232.508 20.7797 232.241 19.3969C232.012 17.9767 231.667 17.061 231.209 16.6499C230.291 15.8277 228.877 15.4166 226.966 15.4166L226.851 14.7999C230.177 14.3888 233.445 14.1833 236.656 14.1833Z" fill="#8CA1C6"/>
<path d="M253.822 0V31.5059C253.822 35.6544 254.07 38.2145 254.567 39.1862C255.064 40.1206 256.44 40.5877 258.695 40.5877L258.81 41.2604H244.762L244.877 40.5877C247.171 40.5877 248.566 40.1206 249.063 39.1862C249.56 38.2519 249.808 35.6918 249.808 31.5059V10.0909C249.808 5.9424 249.579 3.43837 249.12 2.57878C248.967 2.31716 248.68 2.05555 248.26 1.79393C247.839 1.53232 247.381 1.38283 246.884 1.34545C246.425 1.30808 245.756 1.28939 244.877 1.28939L244.762 0.672726C247.629 0.224242 250.649 0 253.822 0Z" fill="#8CA1C6"/>
<path d="M271.012 0V31.5059C271.012 35.6544 271.26 38.2145 271.757 39.1862C272.254 40.1206 273.63 40.5877 275.885 40.5877L276 41.2604H261.952L262.067 40.5877C264.361 40.5877 265.756 40.1206 266.253 39.1862C266.75 38.2519 266.998 35.6918 266.998 31.5059V10.0909C266.998 5.9424 266.769 3.43837 266.31 2.57878C266.157 2.31716 265.87 2.05555 265.45 1.79393C265.029 1.53232 264.571 1.38283 264.074 1.34545C263.615 1.30808 262.946 1.28939 262.067 1.28939L261.952 0.672726C264.819 0.224242 267.839 0 271.012 0Z" fill="#8CA1C6"/>
<path d="M15.9785 89.1051V69.5258H19.1353L26.9708 81.5341H25.3642L33.1716 69.5258H36.3565V89.1051H31.9314V76.875L32.7206 77.0691L27.6191 84.8897H24.6878L19.6144 77.0691L20.3754 76.875V89.1051H15.9785Z" fill="#8CA1C6"/>
<path d="M62.7211 89.1051V69.5258H67.1462V89.1051H62.7211ZM66.1033 89.1051V85.3335H77.011V89.1051H66.1033ZM66.1033 80.9239V77.2909H76.0245V80.9239H66.1033ZM66.1033 73.2697V69.5258H76.8701V73.2697H66.1033Z" fill="#8CA1C6"/>
<path d="M105.598 89.1051V85.278H110.53C111.733 85.278 112.785 85.0469 113.687 84.5847C114.589 84.104 115.284 83.4106 115.773 82.5047C116.261 81.5988 116.505 80.5264 116.505 79.2877C116.505 78.049 116.252 76.9859 115.744 76.0984C115.256 75.211 114.561 74.5269 113.659 74.0462C112.775 73.5655 111.733 73.3252 110.53 73.3252H105.457V69.5258H110.586C112.09 69.5258 113.471 69.7661 114.73 70.2468C116.007 70.709 117.116 71.3839 118.056 72.2713C119.014 73.1403 119.747 74.1756 120.254 75.3774C120.78 76.5606 121.043 77.8733 121.043 79.3154C121.043 80.7391 120.78 82.0517 120.254 83.2535C119.747 84.4553 119.023 85.4906 118.084 86.3596C117.144 87.2285 116.036 87.9034 114.758 88.3841C113.499 88.8648 112.127 89.1051 110.643 89.1051H105.598ZM102.61 89.1051V69.5258H107.035V89.1051H102.61Z" fill="#8CA1C6"/>
<path d="M180.298 89.4102C178.664 89.4102 177.254 89.1513 176.07 88.6337C174.905 88.0975 173.834 87.2932 172.857 86.2209L175.732 83.4199C176.371 84.1409 177.076 84.7048 177.846 85.1116C178.635 85.4999 179.547 85.694 180.58 85.694C181.52 85.694 182.243 85.5276 182.75 85.1948C183.277 84.862 183.54 84.3998 183.54 83.8082C183.54 83.272 183.37 82.8375 183.032 82.5047C182.694 82.1719 182.243 81.8853 181.679 81.645C181.134 81.4046 180.524 81.1735 179.847 80.9517C179.19 80.7298 178.532 80.4802 177.874 80.2029C177.217 79.9071 176.606 79.5465 176.042 79.1213C175.497 78.6776 175.056 78.1322 174.718 77.4851C174.379 76.8195 174.21 75.9875 174.21 74.9891C174.21 73.7874 174.501 72.752 175.084 71.8831C175.685 71.0141 176.512 70.3577 177.564 69.914C178.617 69.4518 179.828 69.2207 181.2 69.2207C182.591 69.2207 183.859 69.4611 185.005 69.9418C186.17 70.4225 187.129 71.0788 187.88 71.9108L185.005 74.7118C184.404 74.1017 183.793 73.6487 183.173 73.3529C182.572 73.0571 181.886 72.9092 181.116 72.9092C180.345 72.9092 179.735 73.0571 179.284 73.3529C178.833 73.6302 178.607 74.037 178.607 74.5731C178.607 75.0723 178.776 75.4791 179.114 75.7934C179.453 76.0892 179.894 76.348 180.439 76.5699C181.003 76.7918 181.614 77.0136 182.271 77.2355C182.948 77.4573 183.615 77.7162 184.272 78.012C184.93 78.3078 185.531 78.6868 186.076 79.149C186.64 79.5928 187.091 80.1659 187.429 80.8685C187.767 81.5526 187.936 82.403 187.936 83.4199C187.936 85.2872 187.26 86.7571 185.907 87.8294C184.554 88.8833 182.685 89.4102 180.298 89.4102Z" fill="#8CA1C6"/>
<path d="M216.686 81.9778V78.5944H220.97C221.515 78.5944 222.013 78.4835 222.464 78.2616C222.915 78.0397 223.272 77.7162 223.535 77.2909C223.798 76.8657 223.929 76.348 223.929 75.7379C223.929 75.1463 223.798 74.6378 223.535 74.2126C223.272 73.7874 222.915 73.4638 222.464 73.242C222.013 73.0201 221.515 72.9092 220.97 72.9092H216.686V69.5258H221.618C222.877 69.5258 224.014 69.7754 225.029 70.2745C226.043 70.7737 226.842 71.4948 227.424 72.4377C228.026 73.3621 228.326 74.4622 228.326 75.7379C228.326 77.0136 228.026 78.1229 227.424 79.0658C226.842 79.9903 226.043 80.7113 225.029 81.229C224.014 81.7282 222.877 81.9778 221.618 81.9778H216.686ZM213.304 89.1051V69.5258H217.729V89.1051H213.304Z" fill="#8CA1C6"/>
<path d="M250.487 89.1051L258.379 69.5258H262.382L270.189 89.1051H265.51L259.535 72.8537H261.142L255.082 89.1051H250.487ZM254.969 85.5553V82.0055H265.82V85.5553H254.969Z" fill="#8CA1C6"/>
<rect x="13.0742" y="56.2422" width="261.474" height="1.44211" fill="#8CA1C6"/>
</svg>
