<svg width="276" height="49" viewBox="0 0 276 49" fill="none" xmlns="http://www.w3.org/2000/svg">
<path d="M74.9546 15.4449C74.2657 15.0912 73.5116 14.784 72.6924 14.5233C71.8732 14.2627 71.0726 14.1323 70.2907 14.1323C69.2108 14.1323 68.345 14.3837 67.6934 14.8864C67.0604 15.3891 66.7439 16.0593 66.7439 16.8972C66.7439 17.5302 66.9487 18.0701 67.3583 18.517C67.7679 18.9452 68.3078 19.3176 68.9781 19.6341C69.6483 19.9506 70.3465 20.2485 71.0726 20.5278C71.7057 20.7698 72.3294 21.0398 72.9438 21.3377C73.5582 21.6356 74.1074 22.0079 74.5915 22.4548C75.0942 22.9016 75.4852 23.4509 75.7645 24.1025C76.0624 24.7541 76.2113 25.564 76.2113 26.5322C76.2113 27.5934 75.9413 28.5616 75.4014 29.4367C74.8801 30.3117 74.1261 31.0006 73.1393 31.5033C72.1525 32.006 70.9795 32.2574 69.6204 32.2574C68.7267 32.2574 67.8703 32.155 67.0511 31.9502C66.2505 31.7453 65.5057 31.4847 64.8169 31.1682C64.128 30.833 63.5136 30.4886 62.9736 30.1349L64.1745 28.0124C64.6214 28.3289 65.1334 28.6361 65.7105 28.934C66.2877 29.2132 66.8928 29.446 67.5258 29.6322C68.1589 29.7997 68.7733 29.8835 69.3691 29.8835C70.0021 29.8835 70.6258 29.7718 71.2402 29.5484C71.8732 29.3063 72.3945 28.9433 72.8041 28.4592C73.2138 27.9751 73.4186 27.3328 73.4186 26.5322C73.4186 25.8433 73.2324 25.2755 72.86 24.8286C72.5063 24.3632 72.0315 23.9722 71.4357 23.6557C70.8399 23.3205 70.2069 23.0226 69.5366 22.762C68.9036 22.5199 68.2613 22.2593 67.6096 21.98C66.958 21.6821 66.3529 21.3284 65.7943 20.9187C65.2358 20.4905 64.7889 19.9692 64.4538 19.3548C64.1187 18.7404 63.9511 17.9957 63.9511 17.1206C63.9511 16.0593 64.2024 15.1377 64.7051 14.3558C65.2265 13.5552 65.934 12.9315 66.8276 12.4846C67.7213 12.0192 68.7453 11.7678 69.8997 11.7306C71.203 11.7306 72.348 11.8888 73.3348 12.2053C74.3402 12.5218 75.2245 12.9128 75.9879 13.3783L74.9546 15.4449Z" fill="#8CA1C6"/>
<path d="M81.2392 15.3891H83.8364V20.5278H87.0202V22.5665H83.8364V32.0339H81.2392V22.5665H79.1167V20.5278H81.2392V15.3891Z" fill="#8CA1C6"/>
<path d="M94.9621 32.3132C93.8822 32.3132 92.8954 32.0805 92.0018 31.615C91.1267 31.1496 90.4285 30.47 89.9072 29.5763C89.4045 28.664 89.1531 27.5562 89.1531 26.2529C89.1531 24.9683 89.4231 23.8605 89.963 22.9295C90.503 21.98 91.2198 21.2539 92.1135 20.7512C93.0258 20.2485 94.0219 19.9971 95.1017 19.9971C96.1816 19.9971 97.0939 20.2485 97.8386 20.7512C98.5834 21.2353 99.1512 21.8124 99.5422 22.4827L99.3746 22.9295L99.626 20.4719H102.028V32.0339H99.4305V29.0178L99.7098 29.688C99.6353 29.8742 99.4677 30.1162 99.2071 30.4141C98.965 30.6934 98.6299 30.982 98.2017 31.2799C97.7921 31.5778 97.3173 31.8291 96.7774 32.0339C96.2374 32.2201 95.6323 32.3132 94.9621 32.3132ZM95.6603 30.1628C96.3119 30.1628 96.8984 30.0418 97.4197 29.7997C97.941 29.5577 98.3693 29.2226 98.7044 28.7943C99.0581 28.3475 99.3002 27.8169 99.4305 27.2025V24.9403C99.2816 24.3818 99.0209 23.8977 98.6485 23.4881C98.2762 23.0599 97.8293 22.734 97.308 22.5106C96.7867 22.2686 96.2095 22.1476 95.5765 22.1476C94.8876 22.1476 94.2546 22.3151 93.6774 22.6503C93.1002 22.9854 92.6348 23.4509 92.281 24.0466C91.9459 24.6424 91.7783 25.3406 91.7783 26.1412C91.7783 26.8859 91.9552 27.5655 92.309 28.1799C92.6627 28.7943 93.1375 29.2784 93.7333 29.6322C94.3291 29.9859 94.9714 30.1628 95.6603 30.1628Z" fill="#8CA1C6"/>
<path d="M111.214 32.3132C110.153 32.3132 109.185 32.0619 108.31 31.5592C107.453 31.0379 106.774 30.3117 106.271 29.3808C105.768 28.4313 105.517 27.3421 105.517 26.1133C105.517 24.8286 105.778 23.7301 106.299 22.8178C106.839 21.9055 107.565 21.2073 108.477 20.7233C109.39 20.2392 110.414 19.9971 111.549 19.9971C112.462 19.9971 113.327 20.1926 114.147 20.5836C114.984 20.9746 115.636 21.5145 116.102 22.2034L115.99 23.125V10.418H118.559V32.0339H115.962V29.1574L116.241 29.8835C115.701 30.591 115.003 31.1775 114.147 31.6429C113.29 32.0898 112.313 32.3132 111.214 32.3132ZM112.024 30.1069C112.713 30.1069 113.327 29.9859 113.867 29.7439C114.407 29.4832 114.854 29.1295 115.208 28.6826C115.562 28.2358 115.813 27.7052 115.962 27.0907V24.9124C115.813 24.3538 115.543 23.8698 115.152 23.4602C114.78 23.0319 114.323 22.6968 113.784 22.4548C113.262 22.1941 112.676 22.0638 112.024 22.0638C111.317 22.0638 110.665 22.2407 110.069 22.5944C109.492 22.9295 109.027 23.395 108.673 23.9908C108.319 24.5866 108.142 25.2755 108.142 26.0574C108.142 26.8208 108.319 27.5097 108.673 28.1241C109.027 28.7199 109.501 29.2039 110.097 29.5763C110.693 29.9301 111.335 30.1069 112.024 30.1069Z" fill="#8CA1C6"/>
<path d="M123.077 20.4719H125.674V32.0339H123.077V20.4719ZM122.882 16.2828C122.882 15.8732 123.04 15.5287 123.356 15.2494C123.692 14.9702 124.055 14.8305 124.446 14.8305C124.837 14.8305 125.181 14.9702 125.479 15.2494C125.795 15.5287 125.954 15.8732 125.954 16.2828C125.954 16.711 125.795 17.0647 125.479 17.344C125.181 17.6047 124.837 17.735 124.446 17.735C124.055 17.735 123.692 17.5954 123.356 17.3161C123.04 17.0368 122.882 16.6924 122.882 16.2828Z" fill="#8CA1C6"/>
<path d="M134.972 32.3132C133.892 32.3132 132.905 32.0805 132.011 31.615C131.136 31.1496 130.438 30.47 129.917 29.5763C129.414 28.664 129.163 27.5562 129.163 26.2529C129.163 24.9683 129.433 23.8605 129.973 22.9295C130.513 21.98 131.229 21.2539 132.123 20.7512C133.035 20.2485 134.031 19.9971 135.111 19.9971C136.191 19.9971 137.103 20.2485 137.848 20.7512C138.593 21.2353 139.161 21.8124 139.552 22.4827L139.384 22.9295L139.636 20.4719H142.037V32.0339H139.44V29.0178L139.719 29.688C139.645 29.8742 139.477 30.1162 139.217 30.4141C138.975 30.6934 138.639 30.982 138.211 31.2799C137.802 31.5778 137.327 31.8291 136.787 32.0339C136.247 32.2201 135.642 32.3132 134.972 32.3132ZM135.67 30.1628C136.321 30.1628 136.908 30.0418 137.429 29.7997C137.951 29.5577 138.379 29.2226 138.714 28.7943C139.068 28.3475 139.31 27.8169 139.44 27.2025V24.9403C139.291 24.3818 139.03 23.8977 138.658 23.4881C138.286 23.0599 137.839 22.734 137.318 22.5106C136.796 22.2686 136.219 22.1476 135.586 22.1476C134.897 22.1476 134.264 22.3151 133.687 22.6503C133.11 22.9854 132.644 23.4509 132.291 24.0466C131.955 24.6424 131.788 25.3406 131.788 26.1412C131.788 26.8859 131.965 27.5655 132.319 28.1799C132.672 28.7943 133.147 29.2784 133.743 29.6322C134.339 29.9859 134.981 30.1628 135.67 30.1628Z" fill="#8CA1C6"/>
<path d="M171.818 30.3024C171.538 30.5445 171.148 30.7865 170.645 31.0285C170.142 31.252 169.584 31.4568 168.969 31.6429C168.373 31.8291 167.75 31.9781 167.098 32.0898C166.465 32.2015 165.869 32.2574 165.311 32.2574C163.691 32.2574 162.229 32.006 160.926 31.5033C159.641 31.0006 158.534 30.3024 157.603 29.4087C156.69 28.5151 155.983 27.4631 155.48 26.2529C154.996 25.0427 154.754 23.7301 154.754 22.3151C154.754 20.6395 155.024 19.1407 155.564 17.8188C156.122 16.4783 156.876 15.3518 157.826 14.4395C158.794 13.5086 159.902 12.8104 161.149 12.345C162.397 11.8609 163.719 11.6189 165.115 11.6189C166.288 11.6189 167.377 11.7585 168.383 12.0378C169.388 12.317 170.272 12.6708 171.036 13.099L170.114 15.5846C169.742 15.3612 169.276 15.1564 168.718 14.9702C168.178 14.784 167.619 14.635 167.042 14.5233C166.465 14.393 165.925 14.3278 165.422 14.3278C164.231 14.3278 163.151 14.514 162.183 14.8864C161.215 15.2401 160.386 15.7615 159.697 16.4503C159.008 17.1206 158.478 17.9398 158.105 18.908C157.733 19.8575 157.547 20.9281 157.547 22.1196C157.547 23.2181 157.733 24.2235 158.105 25.1358C158.478 26.0481 159.008 26.8394 159.697 27.5097C160.386 28.1613 161.205 28.6733 162.155 29.0457C163.123 29.3994 164.184 29.5763 165.339 29.5763C166.027 29.5763 166.707 29.5111 167.377 29.3808C168.048 29.2319 168.625 29.0271 169.109 28.7664V24.7448H165.087V22.1476H171.818V30.3024Z" fill="#8CA1C6"/>
<path d="M180 32.4808C178.957 32.4808 178.092 32.1643 177.403 31.5312C176.732 30.8796 176.379 30.0418 176.341 29.0178V20.4719H178.939V28.0961C178.976 28.7292 179.153 29.2412 179.469 29.6322C179.804 30.0231 180.326 30.2279 181.033 30.2466C181.685 30.2466 182.262 30.0604 182.765 29.688C183.286 29.297 183.705 28.7757 184.021 28.1241C184.338 27.4538 184.496 26.6998 184.496 25.8619V20.4719H187.093V32.0339H184.72L184.496 29.1853L184.636 29.688C184.412 30.2279 184.068 30.712 183.603 31.1403C183.156 31.5499 182.625 31.8757 182.011 32.1177C181.396 32.3598 180.726 32.4808 180 32.4808Z" fill="#8CA1C6"/>
<path d="M192.704 15.3891H195.301V20.5278H198.485V22.5665H195.301V32.0339H192.704V22.5665H190.582V20.5278H192.704V15.3891Z" fill="#8CA1C6"/>
<path d="M225.932 30.5258C225.597 30.7493 225.141 31.0006 224.563 31.2799C223.986 31.5592 223.307 31.7919 222.525 31.9781C221.761 32.1643 220.924 32.2574 220.011 32.2574C218.447 32.2387 217.032 31.9595 215.766 31.4195C214.519 30.8796 213.458 30.1442 212.582 29.2132C211.707 28.2823 211.028 27.2118 210.544 26.0016C210.078 24.7728 209.846 23.4695 209.846 22.0917C209.846 20.5836 210.088 19.1965 210.572 17.9305C211.074 16.6458 211.773 15.538 212.666 14.6071C213.56 13.6576 214.612 12.9221 215.822 12.4008C217.051 11.8795 218.391 11.6189 219.844 11.6189C221.054 11.6189 222.152 11.7864 223.139 12.1216C224.126 12.4381 224.973 12.8197 225.681 13.2666L224.591 15.7801C224.033 15.4077 223.353 15.054 222.553 14.7188C221.771 14.3837 220.896 14.2161 219.927 14.2161C218.941 14.2161 218.01 14.4116 217.135 14.8026C216.26 15.1936 215.487 15.7428 214.817 16.4503C214.146 17.1578 213.616 17.9863 213.225 18.9359C212.852 19.8668 212.666 20.8722 212.666 21.9521C212.666 23.0506 212.834 24.0746 213.169 25.0241C213.523 25.955 214.016 26.7649 214.649 27.4538C215.301 28.1427 216.083 28.6826 216.995 29.0736C217.907 29.4646 218.931 29.6601 220.067 29.6601C221.091 29.6601 222.003 29.5018 222.804 29.1853C223.605 28.8688 224.266 28.5151 224.787 28.1241L225.932 30.5258Z" fill="#8CA1C6"/>
<path d="M229.851 10.418H232.448V32.0339H229.851V10.418Z" fill="#8CA1C6"/>
<path d="M236.942 20.4719H239.539V32.0339H236.942V20.4719ZM236.747 16.2828C236.747 15.8732 236.905 15.5287 237.221 15.2494C237.556 14.9702 237.92 14.8305 238.311 14.8305C238.702 14.8305 239.046 14.9702 239.344 15.2494C239.66 15.5287 239.819 15.8732 239.819 16.2828C239.819 16.711 239.66 17.0647 239.344 17.344C239.046 17.6047 238.702 17.735 238.311 17.735C237.92 17.735 237.556 17.5954 237.221 17.3161C236.905 17.0368 236.747 16.6924 236.747 16.2828Z" fill="#8CA1C6"/>
<path d="M246.351 20.4719L246.575 23.2926L246.463 22.8458C246.835 21.9893 247.44 21.3097 248.278 20.807C249.116 20.2857 250.084 20.0251 251.183 20.0251C252.281 20.0251 253.175 20.3509 253.864 21.0025C254.571 21.6356 254.934 22.4641 254.953 23.4881V32.0339H252.328V24.4097C252.309 23.7767 252.123 23.2647 251.769 22.8737C251.434 22.4641 250.903 22.2593 250.177 22.2593C249.507 22.2593 248.902 22.4455 248.362 22.8178C247.822 23.1902 247.394 23.7022 247.077 24.3538C246.779 25.0055 246.63 25.7595 246.63 26.616V32.0339H244.033V20.4719H246.351Z" fill="#8CA1C6"/>
<path d="M259.47 20.4719H262.067V32.0339H259.47V20.4719ZM259.274 16.2828C259.274 15.8732 259.432 15.5287 259.749 15.2494C260.084 14.9702 260.447 14.8305 260.838 14.8305C261.229 14.8305 261.574 14.9702 261.871 15.2494C262.188 15.5287 262.346 15.8732 262.346 16.2828C262.346 16.711 262.188 17.0647 261.871 17.344C261.574 17.6047 261.229 17.735 260.838 17.735C260.447 17.735 260.084 17.5954 259.749 17.3161C259.432 17.0368 259.274 16.6924 259.274 16.2828Z" fill="#8CA1C6"/>
<path d="M275.944 30.9727C275.423 31.3823 274.799 31.7081 274.073 31.9502C273.347 32.1922 272.621 32.3132 271.895 32.3132C270.629 32.3132 269.521 32.0619 268.571 31.5592C267.622 31.0565 266.877 30.3583 266.337 29.4646C265.816 28.5523 265.555 27.4817 265.555 26.2529C265.555 25.0241 265.835 23.9535 266.393 23.0412C266.97 22.1289 267.715 21.4308 268.627 20.9467C269.558 20.444 270.554 20.1926 271.616 20.1926C272.546 20.1926 273.375 20.323 274.101 20.5836C274.846 20.8443 275.479 21.198 276 21.6449L274.715 23.3205C274.38 23.0599 273.971 22.8271 273.487 22.6223C273.003 22.4175 272.453 22.3151 271.839 22.3151C271.169 22.3151 270.545 22.492 269.968 22.8458C269.409 23.1809 268.962 23.6463 268.627 24.2421C268.311 24.8379 268.153 25.5082 268.153 26.2529C268.153 26.9604 268.32 27.6214 268.655 28.2358C268.99 28.8316 269.456 29.3063 270.052 29.6601C270.647 29.9952 271.327 30.1628 272.09 30.1628C272.593 30.1628 273.049 30.0883 273.459 29.9394C273.887 29.7904 274.269 29.5856 274.604 29.325L275.944 30.9727Z" fill="#8CA1C6"/>
<path d="M33.7638 6.17529C26.8111 6.17529 25.039 13.0218 25.039 13.0218C25.3117 10.5606 27.4384 5.63831 33.7638 5.63831C50.3952 5.63831 49.3046 40.5421 27.4929 40.5421C10.8612 40.5421 8.40737 30.4737 4.31764 30.4737C-0.999001 30.4737 8.31662 42.4663 11.4066 48.4626C5.63554 42.1978 -4.40691 27.2518 2.13665 27.2518C10.3161 27.2518 11.4066 38.5284 24.7664 38.5284C48.0778 38.5284 46.3055 6.17529 33.7638 6.17529Z" fill="#8CA1C6"/>
<path d="M13.9967 4.56435C13.9967 1.34245 16.9958 0 16.9958 0C16.9958 0 14.8146 1.07396 14.8146 4.4301C14.8146 8.72596 25.1752 15.9752 25.1752 23.3587C25.1752 32.0847 16.9958 34.6353 12.2244 29.9367C17.9501 32.7559 22.3125 29.2118 22.3125 23.6272C22.3125 16.6464 13.9967 8.59171 13.9967 4.56435Z" fill="#8CA1C6"/>
</svg>
