<svg width="277" height="26" viewBox="0 0 277 26" fill="none" xmlns="http://www.w3.org/2000/svg">
<path d="M15.7632 9.58717H5.99668V14.098C5.99668 15.5694 6.03346 16.535 6.10703 16.9948C6.1806 17.4454 6.36453 17.7811 6.65881 18.0018C6.96229 18.2225 7.53246 18.3329 8.36933 18.3329H8.85213V18.9674H0.4375V18.3329H0.920307C1.72039 18.3329 2.27217 18.2317 2.57564 18.0294C2.88832 17.8271 3.08604 17.5144 3.16881 17.0914C3.26077 16.6591 3.30675 15.6613 3.30675 14.098V4.92463C3.30675 3.43483 3.26077 2.47381 3.16881 2.04158C3.08604 1.60936 2.90211 1.31048 2.61703 1.14494C2.34114 0.979408 1.72958 0.896641 0.782362 0.896641H0.4375V0.262095H8.85213V0.896641H8.50727C7.59684 0.896641 6.99908 0.97481 6.71399 1.13115C6.4289 1.27829 6.23578 1.55878 6.13462 1.97261C6.04266 2.38645 5.99668 3.37045 5.99668 4.92463V8.63535H15.7632V4.92463C15.7632 3.43483 15.7218 2.47381 15.639 2.04158C15.5563 1.60936 15.3723 1.31048 15.0872 1.14494C14.8114 0.979408 14.1998 0.896641 13.2526 0.896641H12.756V0.262095H21.2672V0.896641H20.9913C20.0716 0.896641 19.4693 0.97481 19.1842 1.13115C18.8991 1.27829 18.706 1.55878 18.6048 1.97261C18.5129 2.38645 18.4669 3.37045 18.4669 4.92463V14.098C18.4669 15.5694 18.4991 16.535 18.5635 16.9948C18.637 17.4454 18.8255 17.7811 19.129 18.0018C19.4325 18.2225 20.0027 18.3329 20.8395 18.3329H21.2672V18.9674H12.756V18.3329H13.4043C14.1952 18.3329 14.7424 18.2317 15.0459 18.0294C15.3585 17.8271 15.5563 17.5144 15.639 17.0914C15.7218 16.6591 15.7632 15.6613 15.7632 14.098V9.58717Z" fill="#8CA1C6"/>
<path d="M23.2812 13.2979C23.2812 11.569 23.8605 10.1252 25.0193 8.96641C26.178 7.79848 27.6034 7.21451 29.2956 7.21451C30.9969 7.21451 32.4269 7.79848 33.5856 8.96641C34.7444 10.1343 35.3237 11.5782 35.3237 13.2979C35.3237 15.2015 34.7352 16.7005 33.5581 17.7949C32.3809 18.88 30.9601 19.4226 29.2956 19.4226C27.631 19.4226 26.2102 18.8709 25.0331 17.7673C23.8651 16.6545 23.2812 15.1647 23.2812 13.2979ZM25.571 13.3669C25.571 15.3717 25.8975 16.7787 26.5505 17.588C27.2034 18.388 28.1184 18.7881 29.2956 18.7881C30.5003 18.7881 31.4199 18.388 32.0545 17.588C32.6982 16.7787 33.0201 15.3717 33.0201 13.3669C33.0201 11.3804 32.7028 9.96421 32.0682 9.11815C31.4337 8.27209 30.5095 7.84906 29.2956 7.84906C28.0908 7.84906 27.1666 8.27209 26.5229 9.11815C25.8883 9.95502 25.571 11.3713 25.571 13.3669Z" fill="#8CA1C6"/>
<path d="M40.6898 0V15.0912C40.6898 16.2959 40.7036 17.0546 40.7312 17.3673C40.768 17.6799 40.9013 17.919 41.1312 18.0846C41.3611 18.2501 41.7704 18.3329 42.3589 18.3329H42.69V18.9674H36.648V18.3329H37.0343C37.586 18.3329 37.9769 18.2593 38.2068 18.1122C38.4459 17.9558 38.5884 17.7397 38.6344 17.4638C38.6804 17.1879 38.7034 16.397 38.7034 15.0912V3.91763C38.7034 2.73131 38.5976 1.98641 38.3861 1.68293C38.1746 1.37025 37.6596 1.21391 36.8411 1.21391V0.579368C37.4021 0.579368 38.0597 0.514994 38.8138 0.386246C39.577 0.257497 40.1012 0.128749 40.3863 0H40.6898Z" fill="#8CA1C6"/>
<path d="M47.4767 0V15.0912C47.4767 16.2959 47.4905 17.0546 47.5181 17.3673C47.5549 17.6799 47.6882 17.919 47.9181 18.0846C48.148 18.2501 48.5573 18.3329 49.1458 18.3329H49.4769V18.9674H43.4349V18.3329H43.8211C44.3729 18.3329 44.7638 18.2593 44.9937 18.1122C45.2328 17.9558 45.3753 17.7397 45.4213 17.4638C45.4673 17.1879 45.4903 16.397 45.4903 15.0912V3.91763C45.4903 2.73131 45.3845 1.98641 45.173 1.68293C44.9615 1.37025 44.4465 1.21391 43.628 1.21391V0.579368C44.189 0.579368 44.8465 0.514994 45.6006 0.386246C46.3639 0.257497 46.8881 0.128749 47.1732 0H47.4767Z" fill="#8CA1C6"/>
<path d="M57.257 16.8293L59.8779 10.5528C60.255 9.63315 60.4435 9.12275 60.4435 9.02159C60.4435 8.56178 59.9331 8.32267 58.9123 8.30428V7.66973H62.8851V8.30428C62.269 8.33187 61.8183 8.4974 61.5333 8.80088C61.2482 9.09516 60.8941 9.7527 60.4711 10.7735L55.4361 22.9264C54.9579 24.0852 54.5349 24.8715 54.167 25.2853C53.7992 25.7083 53.3945 25.9198 52.9531 25.9198C52.3553 25.9198 52.0565 25.6485 52.0565 25.106C52.0565 24.4806 52.5347 23.9518 53.4911 23.5196C54.0521 23.2713 54.4245 23.0598 54.6084 22.885C54.8016 22.7103 54.9901 22.393 55.174 21.9332L56.25 19.2433L52.0013 10.1389C51.6242 9.33886 51.3116 8.83307 51.0633 8.62155C50.815 8.41004 50.3919 8.30428 49.7942 8.30428V7.66973H54.9809V8.30428C54.0704 8.33187 53.6152 8.52039 53.6152 8.86985C53.6152 9.0078 53.7946 9.45842 54.1532 10.2217L57.257 16.8293Z" fill="#8CA1C6"/>
<path d="M82.156 12.0702H75.0519L74.569 13.2565C73.8517 14.9762 73.4931 16.0982 73.4931 16.6224C73.4931 17.1833 73.6816 17.611 74.0587 17.9052C74.4449 18.1903 74.9369 18.3329 75.5347 18.3329V18.9674H69.9755V18.3329C70.8032 18.2041 71.4193 17.9144 71.8239 17.4638C72.2286 17.004 72.716 16.043 73.2862 14.5808C73.3321 14.4428 73.5529 13.9094 73.9483 12.9806L79.3833 0H79.9213L86.1702 14.8567L87.0255 16.8155C87.2186 17.2569 87.4761 17.6064 87.798 17.8639C88.129 18.1122 88.621 18.2685 89.274 18.3329V18.9674H81.9215V18.3329C82.8227 18.3329 83.4297 18.2685 83.7424 18.1397C84.0643 18.0018 84.2252 17.7351 84.2252 17.3397C84.2252 17.1373 84.0137 16.535 83.5906 15.5326L82.156 12.0702ZM81.9215 11.4494L78.6108 3.47621L75.314 11.4494H81.9215Z" fill="#8CA1C6"/>
<path d="M93.8124 10.0976C94.125 9.27909 94.6308 8.59396 95.3297 8.04218C96.0379 7.4904 96.7276 7.21451 97.3989 7.21451C98.0059 7.21451 98.4841 7.40304 98.8335 7.78009C99.183 8.15714 99.3577 8.54338 99.3577 8.93882C99.3577 9.20552 99.2658 9.43543 99.0818 9.62855C98.9071 9.82167 98.691 9.91823 98.4335 9.91823C97.9737 9.91823 97.6242 9.57797 97.3851 8.89744C97.2196 8.43763 96.9713 8.20772 96.6402 8.20772C96.2448 8.20772 95.7712 8.47901 95.2194 9.02159C94.6676 9.55498 94.3136 10.1114 94.1572 10.6907C94.0009 11.2701 93.9227 12.0656 93.9227 13.0772V15.0912C93.9227 16.2959 93.9365 17.0546 93.9641 17.3673C94.0009 17.6799 94.1342 17.919 94.3641 18.0846C94.594 18.2501 95.0033 18.3329 95.5918 18.3329H95.9781V18.9674H89.9775V18.3329H90.2672C90.819 18.3329 91.2098 18.2593 91.4397 18.1122C91.6788 17.9558 91.8213 17.7397 91.8673 17.4638C91.9133 17.1879 91.9363 16.397 91.9363 15.0912V11.9046C91.9363 10.6907 91.9179 9.93203 91.8811 9.62855C91.8535 9.31587 91.7248 9.07677 91.4949 8.91124C91.265 8.73651 90.8557 8.64914 90.2672 8.64914H89.9775V8.02839C90.8419 7.92723 91.9731 7.65594 93.3709 7.21451C93.6376 7.94102 93.7848 8.90204 93.8124 10.0976Z" fill="#8CA1C6"/>
<path d="M104.089 7.21451H104.462C104.673 7.78469 104.793 8.56178 104.82 9.54578C105.482 8.76409 106.177 8.18013 106.903 7.79388C107.63 7.40764 108.389 7.21451 109.179 7.21451C110.081 7.21451 110.816 7.40304 111.387 7.78009C111.966 8.15714 112.338 8.62155 112.504 9.17333C112.669 9.71591 112.752 10.5114 112.752 11.5598V15.0912C112.752 16.397 112.775 17.1925 112.821 17.4776C112.867 17.7627 113.01 17.9788 113.249 18.126C113.497 18.2639 113.948 18.3329 114.601 18.3329V18.9674H108.821V18.3329H109.083C109.745 18.3329 110.177 18.2363 110.38 18.0432C110.582 17.8501 110.697 17.6248 110.724 17.3673C110.752 17.1098 110.766 16.3511 110.766 15.0912V11.4494C110.766 10.5574 110.72 9.92283 110.628 9.54578C110.545 9.15954 110.311 8.81927 109.924 8.52499C109.547 8.23071 109.064 8.08357 108.476 8.08357C107.805 8.08357 107.161 8.28589 106.545 8.69052C105.938 9.08597 105.363 9.68373 104.82 10.4838V15.0912C104.82 16.397 104.843 17.1925 104.889 17.4776C104.945 17.7627 105.092 17.9788 105.331 18.126C105.579 18.2639 106.034 18.3329 106.696 18.3329V18.9674H100.985V18.3329C101.62 18.3329 102.061 18.2685 102.31 18.1397C102.558 18.011 102.71 17.8179 102.765 17.5604C102.829 17.2937 102.862 16.4706 102.862 15.0912V11.7253C102.862 10.4102 102.834 9.61475 102.779 9.33886C102.733 9.05378 102.586 8.84226 102.337 8.70432C102.098 8.55718 101.648 8.48361 100.985 8.48361V7.84906C101.997 7.7387 103.032 7.52719 104.089 7.21451Z" fill="#8CA1C6"/>
<path d="M116.256 13.2979C116.256 11.569 116.835 10.1252 117.994 8.96641C119.153 7.79848 120.578 7.21451 122.27 7.21451C123.972 7.21451 125.402 7.79848 126.56 8.96641C127.719 10.1343 128.299 11.5782 128.299 13.2979C128.299 15.2015 127.71 16.7005 126.533 17.7949C125.356 18.88 123.935 19.4226 122.27 19.4226C120.606 19.4226 119.185 18.8709 118.008 17.7673C116.84 16.6545 116.256 15.1647 116.256 13.2979ZM118.546 13.3669C118.546 15.3717 118.872 16.7787 119.525 17.588C120.178 18.388 121.093 18.7881 122.27 18.7881C123.475 18.7881 124.395 18.388 125.029 17.588C125.673 16.7787 125.995 15.3717 125.995 13.3669C125.995 11.3804 125.678 9.96421 125.043 9.11815C124.409 8.27209 123.484 7.84906 122.27 7.84906C121.066 7.84906 120.141 8.27209 119.498 9.11815C118.863 9.95502 118.546 11.3713 118.546 13.3669Z" fill="#8CA1C6"/>
<path d="M133.665 0V15.0912C133.665 16.2959 133.678 17.0546 133.706 17.3673C133.743 17.6799 133.876 17.919 134.106 18.0846C134.336 18.2501 134.745 18.3329 135.334 18.3329H135.665V18.9674H129.623V18.3329H130.009C130.561 18.3329 130.952 18.2593 131.182 18.1122C131.421 17.9558 131.563 17.7397 131.609 17.4638C131.655 17.1879 131.678 16.397 131.678 15.0912V3.91763C131.678 2.73131 131.572 1.98641 131.361 1.68293C131.149 1.37025 130.634 1.21391 129.816 1.21391V0.579368C130.377 0.579368 131.034 0.514994 131.789 0.386246C132.552 0.257497 133.076 0.128749 133.361 0H133.665Z" fill="#8CA1C6"/>
<path d="M146.728 8.86985V4.45562C146.728 3.2509 146.71 2.4922 146.673 2.17953C146.645 1.86685 146.516 1.62775 146.287 1.46222C146.057 1.29668 145.647 1.21391 145.059 1.21391H144.769V0.579368C145.882 0.551779 147.1 0.358657 148.425 0H148.714V15.1877C148.714 16.5028 148.737 17.3029 148.783 17.588C148.829 17.8731 148.972 18.0846 149.211 18.2225C149.459 18.3605 149.915 18.4294 150.577 18.4294V19.064C149.243 19.0916 148.057 19.2111 147.018 19.4226C146.907 18.9904 146.852 18.3099 146.852 17.381C146.172 18.0616 145.468 18.572 144.742 18.9122C144.024 19.2525 143.279 19.4226 142.507 19.4226C141.045 19.4226 139.78 18.8341 138.713 17.6569C137.656 16.4798 137.127 15.0544 137.127 13.3806C137.127 11.5414 137.67 10.0562 138.755 8.92503C139.84 7.78469 141.132 7.21451 142.631 7.21451C143.394 7.21451 144.116 7.35246 144.797 7.62835C145.477 7.90424 146.121 8.31807 146.728 8.86985ZM146.728 9.66993C146.121 9.14574 145.509 8.7549 144.893 8.4974C144.286 8.23071 143.675 8.09736 143.059 8.09736C142.019 8.09736 141.15 8.4974 140.451 9.29748C139.762 10.0976 139.417 11.4034 139.417 13.2151C139.417 15.0544 139.771 16.4108 140.479 17.2845C141.196 18.1581 142.079 18.595 143.128 18.595C143.827 18.595 144.475 18.4294 145.073 18.0984C145.67 17.7673 146.222 17.2707 146.728 16.6086V9.66993Z" fill="#8CA1C6"/>
<path d="M152.384 24.3473V23.6575C153.359 23.3725 154.117 22.8713 154.66 22.1539C155.202 21.4458 155.474 20.7331 155.474 20.0158C155.474 19.4088 155.281 19.1054 154.894 19.1054C154.821 19.1054 154.701 19.1283 154.536 19.1743C154.398 19.2203 154.269 19.2433 154.149 19.2433C153.736 19.2433 153.391 19.1238 153.115 18.8846C152.839 18.6363 152.701 18.3145 152.701 17.919C152.701 17.496 152.834 17.1465 153.101 16.8707C153.368 16.5948 153.713 16.4568 154.136 16.4568C154.789 16.4568 155.317 16.7603 155.722 17.3673C156.136 17.965 156.343 18.6685 156.343 19.4778C156.343 20.6457 155.984 21.6711 155.267 22.554C154.559 23.4368 153.598 24.0346 152.384 24.3473Z" fill="#8CA1C6"/>
<path d="M178.924 19.1467H178.276L173.075 3.29688L171.42 10.0838C170.786 12.7323 170.215 14.7923 169.71 16.2637C169.213 17.7259 168.624 18.7651 167.944 19.3812C167.263 19.9974 166.569 20.3055 165.861 20.3055C165.18 20.3055 164.615 20.1124 164.164 19.7261C163.714 19.3491 163.488 18.8617 163.488 18.2639C163.488 17.3259 163.842 16.8569 164.55 16.8569C164.826 16.8569 165.061 16.9534 165.254 17.1465C165.456 17.3397 165.557 17.5926 165.557 17.9052C165.557 18.1351 165.475 18.4064 165.309 18.7191C165.217 18.903 165.171 19.0502 165.171 19.1605C165.171 19.3353 165.236 19.4686 165.364 19.5606C165.493 19.6525 165.682 19.6985 165.93 19.6985C166.776 19.6985 167.544 19.1559 168.234 18.0708C168.923 16.9856 169.811 14.1807 170.896 9.65614L172.303 3.76589C172.56 2.72671 172.689 2.15654 172.689 2.05538C172.689 1.7519 172.542 1.4898 172.248 1.26909C171.953 1.03918 171.218 0.915034 170.041 0.896641L170.192 0.262095H174.51L179.311 14.8429L180.455 10.0838C181.633 5.19132 182.534 2.29448 183.159 1.39324C183.794 0.482807 184.52 0.027589 185.339 0.027589C185.826 0.027589 186.208 0.147141 186.484 0.386246C186.76 0.616154 186.898 0.905838 186.898 1.2553C186.898 1.56797 186.787 1.82087 186.566 2.01399C186.355 2.20712 186.111 2.30368 185.835 2.30368C185.486 2.30368 185.169 2.08297 184.884 1.64154C184.727 1.38405 184.543 1.2553 184.332 1.2553C183.955 1.2553 183.55 1.77029 183.118 2.80028C182.695 3.83027 181.996 6.37305 181.021 10.4286L178.924 19.1467Z" fill="#8CA1C6"/>
<path d="M194.209 16.1258H194.788C194.006 18.2777 192.949 19.3537 191.615 19.3537C191.165 19.3537 190.824 19.2295 190.594 18.9812C190.374 18.7329 190.263 18.3605 190.263 17.8639C190.263 17.1649 190.512 16.0476 191.008 14.5118C189.399 17.7397 187.808 19.3537 186.235 19.3537C185.656 19.3537 185.201 19.1743 184.87 18.8157C184.539 18.457 184.373 18.011 184.373 17.4776C184.373 16.9534 184.58 16.0844 184.994 14.8705L186.691 9.91823C186.939 9.18253 187.063 8.7411 187.063 8.59396C187.063 8.35486 186.944 8.23531 186.704 8.23531C186.125 8.23531 185.49 9.0124 184.801 10.5666H184.139C184.506 9.60096 184.989 8.81467 185.587 8.20772C186.185 7.59156 186.773 7.28349 187.353 7.28349C187.711 7.28349 188.015 7.39844 188.263 7.62835C188.521 7.84906 188.649 8.18473 188.649 8.63535C188.649 8.95722 188.488 9.60096 188.167 10.5666L186.429 15.6705C186.097 16.6637 185.932 17.3167 185.932 17.6293C185.932 17.9144 185.996 18.1305 186.125 18.2777C186.254 18.4248 186.442 18.4984 186.691 18.4984C187.5 18.4984 188.461 17.6385 189.574 15.9188C190.686 14.1991 191.753 11.6425 192.774 8.2491L193.008 7.46282H194.664L192.25 15.3808C191.864 16.6683 191.67 17.4454 191.67 17.7121C191.67 17.942 191.716 18.1168 191.808 18.2363C191.9 18.3467 192.038 18.4018 192.222 18.4018C192.921 18.4018 193.583 17.6431 194.209 16.1258Z" fill="#8CA1C6"/>
<path d="M203.023 7.66973L202.83 8.27669H200.761L198.94 14.3049C198.333 16.2821 198.03 17.4316 198.03 17.7535C198.03 17.9742 198.076 18.1443 198.168 18.2639C198.269 18.3743 198.411 18.4294 198.595 18.4294C198.926 18.4294 199.359 18.1168 199.892 17.4914C200.425 16.8661 200.904 16.0798 201.327 15.1325H201.934C201.373 16.5028 200.729 17.5512 200.002 18.2777C199.285 18.995 198.627 19.3537 198.03 19.3537C197.561 19.3537 197.184 19.1881 196.899 18.8571C196.623 18.526 196.485 18.1076 196.485 17.6018C196.485 17.1695 196.77 16.02 197.34 14.1531L199.119 8.27669H197.216L197.409 7.66973H199.299L200.568 3.49H202.223L200.954 7.66973H203.023Z" fill="#8CA1C6"/>
<path d="M203.341 11.008H202.734C203.12 9.97801 203.603 9.09976 204.182 8.37325C204.771 7.64674 205.35 7.28349 205.92 7.28349C206.316 7.28349 206.61 7.44442 206.803 7.76629C206.996 8.07897 207.093 8.55718 207.093 9.20092C207.093 10.001 206.886 11.1413 206.472 12.622C206.527 12.53 206.679 12.1989 206.927 11.6287C207.608 10.093 208.205 8.98481 208.72 8.30428C209.235 7.62375 209.75 7.28349 210.265 7.28349C210.587 7.28349 210.845 7.38465 211.038 7.58697C211.231 7.78928 211.328 8.03299 211.328 8.31807C211.328 8.59396 211.245 8.81927 211.079 8.994C210.923 9.16873 210.734 9.2561 210.514 9.2561C210.265 9.2561 210.012 9.10436 209.755 8.80088C209.654 8.68133 209.553 8.62155 209.452 8.62155C208.992 8.62155 208.284 9.72971 207.327 11.946C206.371 14.1531 205.598 16.2315 205.01 18.1811L204.706 19.1743H203.051L205.244 11.8633C205.658 10.4654 205.865 9.51819 205.865 9.02159C205.865 8.7549 205.828 8.55718 205.755 8.42843C205.69 8.29968 205.589 8.23531 205.451 8.23531C205.148 8.23531 204.766 8.56178 204.306 9.21471C203.856 9.86765 203.534 10.4654 203.341 11.008Z" fill="#8CA1C6"/>
<path d="M215.231 1.20012C215.231 0.869052 215.346 0.588565 215.576 0.358657C215.815 0.119552 216.1 0 216.432 0C216.763 0 217.043 0.119552 217.273 0.358657C217.512 0.588565 217.632 0.869052 217.632 1.20012C217.632 1.53119 217.512 1.81627 217.273 2.05538C217.043 2.29448 216.763 2.41403 216.432 2.41403C216.091 2.41403 215.806 2.29448 215.576 2.05538C215.346 1.80708 215.231 1.52199 215.231 1.20012ZM216.252 15.9464H216.914C216.482 16.8385 215.917 17.6293 215.218 18.3191C214.528 19.0088 213.861 19.3537 213.217 19.3537C212.785 19.3537 212.404 19.2019 212.072 18.8984C211.751 18.5858 211.59 18.1305 211.59 17.5328C211.59 17.0454 211.847 16.112 212.362 14.7325L213.949 10.5252C214.316 9.54118 214.5 8.94342 214.5 8.73191C214.5 8.54798 214.454 8.41004 214.362 8.31807C214.28 8.22611 214.151 8.18013 213.976 8.18013C213.617 8.18013 213.19 8.46062 212.693 9.02159C212.206 9.57337 211.861 10.0746 211.659 10.5252H210.996C211.502 9.52279 212.077 8.73191 212.721 8.15254C213.374 7.57317 213.981 7.28349 214.542 7.28349C214.974 7.28349 215.328 7.43063 215.604 7.72491C215.88 8.01919 216.018 8.40544 216.018 8.88365C216.018 9.37105 215.774 10.2631 215.287 11.5598L213.962 15.1463C213.475 16.443 213.231 17.2569 213.231 17.588C213.231 17.8547 213.282 18.057 213.383 18.1949C213.493 18.3237 213.65 18.388 213.852 18.388C214.532 18.388 215.333 17.5742 216.252 15.9464Z" fill="#8CA1C6"/>
<path d="M224.846 7.66973L224.653 8.27669H222.584L220.763 14.3049C220.156 16.2821 219.853 17.4316 219.853 17.7535C219.853 17.9742 219.899 18.1443 219.99 18.2639C220.092 18.3743 220.234 18.4294 220.418 18.4294C220.749 18.4294 221.181 18.1168 221.715 17.4914C222.248 16.8661 222.726 16.0798 223.149 15.1325H223.756C223.195 16.5028 222.552 17.5512 221.825 18.2777C221.108 18.995 220.45 19.3537 219.853 19.3537C219.384 19.3537 219.006 19.1881 218.721 18.8571C218.446 18.526 218.308 18.1076 218.308 17.6018C218.308 17.1695 218.593 16.02 219.163 14.1531L220.942 8.27669H219.039L219.232 7.66973H221.122L222.391 3.49H224.046L222.777 7.66973H224.846Z" fill="#8CA1C6"/>
<path d="M228.805 1.20012C228.805 0.869052 228.92 0.588565 229.15 0.358657C229.389 0.119552 229.674 0 230.005 0C230.336 0 230.617 0.119552 230.847 0.358657C231.086 0.588565 231.205 0.869052 231.205 1.20012C231.205 1.53119 231.086 1.81627 230.847 2.05538C230.617 2.29448 230.336 2.41403 230.005 2.41403C229.665 2.41403 229.38 2.29448 229.15 2.05538C228.92 1.80708 228.805 1.52199 228.805 1.20012ZM229.826 15.9464H230.488C230.056 16.8385 229.49 17.6293 228.791 18.3191C228.102 19.0088 227.435 19.3537 226.791 19.3537C226.359 19.3537 225.977 19.2019 225.646 18.8984C225.324 18.5858 225.163 18.1305 225.163 17.5328C225.163 17.0454 225.421 16.112 225.936 14.7325L227.522 10.5252C227.89 9.54118 228.074 8.94342 228.074 8.73191C228.074 8.54798 228.028 8.41004 227.936 8.31807C227.853 8.22611 227.725 8.18013 227.55 8.18013C227.191 8.18013 226.764 8.46062 226.267 9.02159C225.78 9.57337 225.435 10.0746 225.232 10.5252H224.57C225.076 9.52279 225.651 8.73191 226.295 8.15254C226.948 7.57317 227.554 7.28349 228.115 7.28349C228.548 7.28349 228.902 7.43063 229.178 7.72491C229.454 8.01919 229.591 8.40544 229.591 8.88365C229.591 9.37105 229.348 10.2631 228.86 11.5598L227.536 15.1463C227.049 16.443 226.805 17.2569 226.805 17.588C226.805 17.8547 226.856 18.057 226.957 18.1949C227.067 18.3237 227.223 18.388 227.426 18.388C228.106 18.388 228.906 17.5742 229.826 15.9464Z" fill="#8CA1C6"/>
<path d="M231.592 15.3395C231.592 14.2359 231.849 13.0358 232.364 11.7391C232.879 10.4332 233.615 9.37565 234.571 8.56637C235.528 7.7571 236.457 7.35246 237.358 7.35246C238.176 7.35246 238.848 7.70192 239.372 8.40084C239.905 9.09056 240.172 10.0286 240.172 11.2149C240.172 12.6495 239.878 14.0106 239.289 15.2981C238.7 16.5856 237.96 17.5742 237.068 18.2639C236.185 18.9444 235.316 19.2847 234.461 19.2847C233.698 19.2847 233.026 18.9904 232.447 18.4018C231.877 17.8133 231.592 16.7925 231.592 15.3395ZM233.068 16.9258C233.068 17.4224 233.196 17.8455 233.454 18.1949C233.711 18.5444 234.065 18.7191 234.516 18.7191C235.748 18.7191 236.76 17.5512 237.551 15.2153C238.351 12.8794 238.751 11.0954 238.751 9.86306C238.751 9.22851 238.627 8.7549 238.379 8.44222C238.139 8.12035 237.776 7.95942 237.289 7.95942C236.139 7.95942 235.146 9.04458 234.309 11.2149C233.481 13.376 233.068 15.2797 233.068 16.9258Z" fill="#8CA1C6"/>
<path d="M251.911 16.3741H252.614C252.063 17.3673 251.497 18.1122 250.918 18.6088C250.348 19.1054 249.764 19.3537 249.166 19.3537C248.752 19.3537 248.393 19.2249 248.09 18.9674C247.796 18.7191 247.648 18.3467 247.648 17.8501C247.648 17.4362 247.86 16.6178 248.283 15.3946L249.759 11.1873C250.154 10.0378 250.352 9.29288 250.352 8.95262C250.352 8.64914 250.283 8.42383 250.145 8.27669C250.016 8.12955 249.814 8.05598 249.538 8.05598C248.839 8.05598 247.924 8.87905 246.793 10.5252C245.671 12.1621 244.706 14.3095 243.896 16.9672L243.22 19.1743H241.537L243.965 11.3391C244.407 9.89524 244.627 9.06757 244.627 8.85606C244.627 8.69972 244.6 8.58477 244.545 8.5112C244.489 8.43763 244.402 8.40084 244.283 8.40084C243.74 8.40084 243.096 9.07217 242.351 10.4148H241.717C242.866 8.32727 243.956 7.28349 244.986 7.28349C245.345 7.28349 245.611 7.39384 245.786 7.61455C245.97 7.82607 246.062 8.15254 246.062 8.59396C246.062 9.38485 245.754 10.608 245.138 12.2633C246.802 8.94342 248.421 7.28349 249.993 7.28349C250.499 7.28349 250.941 7.45362 251.318 7.79388C251.695 8.12495 251.883 8.61236 251.883 9.2561C251.883 9.66993 251.695 10.4424 251.318 11.5736L249.842 15.974C249.446 17.1603 249.249 17.8225 249.249 17.9604C249.249 18.1351 249.29 18.2685 249.373 18.3605C249.465 18.4432 249.593 18.4846 249.759 18.4846C250.072 18.4846 250.407 18.3099 250.766 17.9604C251.125 17.6018 251.506 17.073 251.911 16.3741Z" fill="#8CA1C6"/>
<path d="M257.994 1.20012C257.994 0.869052 258.109 0.588565 258.339 0.358657C258.578 0.119552 258.863 0 259.194 0C259.525 0 259.806 0.119552 260.036 0.358657C260.275 0.588565 260.395 0.869052 260.395 1.20012C260.395 1.53119 260.275 1.81627 260.036 2.05538C259.806 2.29448 259.525 2.41403 259.194 2.41403C258.854 2.41403 258.569 2.29448 258.339 2.05538C258.109 1.80708 257.994 1.52199 257.994 1.20012ZM259.015 15.9464H259.677C259.245 16.8385 258.679 17.6293 257.98 18.3191C257.291 19.0088 256.624 19.3537 255.98 19.3537C255.548 19.3537 255.166 19.2019 254.835 18.8984C254.513 18.5858 254.353 18.1305 254.353 17.5328C254.353 17.0454 254.61 16.112 255.125 14.7325L256.711 10.5252C257.079 9.54118 257.263 8.94342 257.263 8.73191C257.263 8.54798 257.217 8.41004 257.125 8.31807C257.042 8.22611 256.914 8.18013 256.739 8.18013C256.38 8.18013 255.953 8.46062 255.456 9.02159C254.969 9.57337 254.624 10.0746 254.422 10.5252H253.759C254.265 9.52279 254.84 8.73191 255.484 8.15254C256.137 7.57317 256.744 7.28349 257.305 7.28349C257.737 7.28349 258.091 7.43063 258.367 7.72491C258.643 8.01919 258.781 8.40544 258.781 8.88365C258.781 9.37105 258.537 10.2631 258.049 11.5598L256.725 15.1463C256.238 16.443 255.994 17.2569 255.994 17.588C255.994 17.8547 256.045 18.057 256.146 18.1949C256.256 18.3237 256.413 18.388 256.615 18.388C257.295 18.388 258.095 17.5742 259.015 15.9464Z" fill="#8CA1C6"/>
<path d="M266.781 15.9326C266.781 16.7879 266.45 17.5742 265.788 18.2915C265.135 18.9996 264.17 19.3537 262.891 19.3537C261.944 19.3537 261.231 19.1467 260.753 18.7329C260.284 18.3099 260.05 17.8593 260.05 17.381C260.05 17.1236 260.119 16.9028 260.257 16.7189C260.404 16.535 260.588 16.443 260.808 16.443C261.305 16.443 261.553 16.7051 261.553 17.2293C261.553 17.3489 261.526 17.519 261.47 17.7397C261.434 17.8409 261.415 17.919 261.415 17.9742C261.415 18.1949 261.558 18.388 261.843 18.5536C262.128 18.7099 262.468 18.7881 262.864 18.7881C263.48 18.7881 264.041 18.595 264.547 18.2087C265.052 17.8133 265.305 17.2707 265.305 16.581C265.305 15.9832 264.951 15.0406 264.243 13.7531C263.416 12.2633 263.002 11.1735 263.002 10.4838C263.002 9.60096 263.351 8.85606 264.05 8.2491C264.749 7.64214 265.544 7.33866 266.437 7.33866C267.089 7.33866 267.646 7.5042 268.106 7.83527C268.575 8.16633 268.809 8.52039 268.809 8.89744C268.809 9.38485 268.607 9.62855 268.202 9.62855C267.899 9.62855 267.678 9.35726 267.54 8.81467C267.393 8.21691 266.993 7.91803 266.34 7.91803C265.816 7.91803 265.361 8.06058 264.974 8.34566C264.588 8.63075 264.395 9.0032 264.395 9.46302C264.395 10.0884 264.703 10.9482 265.319 12.0426C265.899 13.0358 266.285 13.7945 266.478 14.3187C266.68 14.8429 266.781 15.3808 266.781 15.9326Z" fill="#8CA1C6"/>
<path d="M276.438 7.66973L276.244 8.27669H274.175L272.354 14.3049C271.747 16.2821 271.444 17.4316 271.444 17.7535C271.444 17.9742 271.49 18.1443 271.582 18.2639C271.683 18.3743 271.826 18.4294 272.009 18.4294C272.341 18.4294 272.773 18.1168 273.306 17.4914C273.84 16.8661 274.318 16.0798 274.741 15.1325H275.348C274.787 16.5028 274.143 17.5512 273.417 18.2777C272.699 18.995 272.042 19.3537 271.444 19.3537C270.975 19.3537 270.598 19.1881 270.313 18.8571C270.037 18.526 269.899 18.1076 269.899 17.6018C269.899 17.1695 270.184 16.02 270.754 14.1531L272.534 8.27669H270.63L270.823 7.66973H272.713L273.982 3.49H275.637L274.368 7.66973H276.438Z" fill="#8CA1C6"/>
</svg>
