<svg width="276" height="118" viewBox="0 0 276 118" fill="none" xmlns="http://www.w3.org/2000/svg">
<path d="M1.7277 90.6933H1.33366V79.6198C1.33366 78.8116 1.31009 78.2896 1.26294 78.0538C1.22252 77.8181 1.11138 77.6429 0.929521 77.5284C0.754394 77.4139 0.444554 77.3567 0 77.3567V76.8919C0.397404 76.8919 0.875636 76.8448 1.4347 76.7505C1.99376 76.6562 2.37432 76.5619 2.57639 76.4676H2.78856V83.0146C3.26006 82.5903 3.73829 82.2737 4.22326 82.0649C4.70823 81.8561 5.19993 81.7517 5.69837 81.7517C6.89058 81.7517 7.86725 82.1659 8.62838 82.9944C9.38951 83.8229 9.77008 84.8804 9.77008 86.1669C9.77008 87.4602 9.37941 88.5379 8.59807 89.4C7.81674 90.2622 6.80302 90.6933 5.55692 90.6933C4.94398 90.6933 4.40512 90.5653 3.94036 90.3093C3.48234 90.0534 3.0984 89.6728 2.78856 89.1676C2.35075 89.6055 1.99712 90.114 1.7277 90.6933ZM2.78856 83.6107V86.8539C2.78856 87.6892 2.84245 88.292 2.95022 88.6625C3.06473 89.0262 3.33415 89.3765 3.7585 89.7132C4.18285 90.05 4.67792 90.2184 5.24371 90.2184C6.11261 90.2184 6.80302 89.8614 7.31493 89.1474C7.83358 88.4335 8.0929 87.4063 8.0929 86.0659C8.0929 84.8333 7.85041 83.897 7.36545 83.2571C6.88721 82.6105 6.24733 82.2872 5.44578 82.2872C4.98776 82.2872 4.53647 82.3983 4.09191 82.6206C3.6541 82.8361 3.21965 83.1662 2.78856 83.6107Z" fill="#8CA1C6"/>
<path d="M15.3068 88.7938L17.2265 84.1967C17.5026 83.5232 17.6407 83.1493 17.6407 83.0752C17.6407 82.7385 17.2669 82.5633 16.5192 82.5499V82.0851H19.429V82.5499C18.9777 82.5701 18.6477 82.6913 18.4389 82.9136C18.2301 83.1291 17.9707 83.6107 17.6609 84.3584L13.9731 93.2596C13.6229 94.1083 13.313 94.6842 13.0436 94.9873C12.7742 95.2971 12.4778 95.452 12.1545 95.452C11.7167 95.452 11.4978 95.2533 11.4978 94.8559C11.4978 94.3979 11.848 94.0106 12.5485 93.694C12.9594 93.5122 13.2322 93.3572 13.3669 93.2293C13.5084 93.1013 13.6465 92.8689 13.7812 92.5321L14.5692 90.5619L11.4574 83.8936C11.1812 83.3076 10.9522 82.9372 10.7703 82.7822C10.5885 82.6273 10.2786 82.5499 9.8408 82.5499V82.0851H13.6397V82.5499C12.9729 82.5701 12.6395 82.7082 12.6395 82.9641C12.6395 83.0651 12.7708 83.3952 13.0335 83.9542L15.3068 88.7938Z" fill="#8CA1C6"/>
<path d="M33.5436 85.3081H28.3403L27.9867 86.177C27.4613 87.4366 27.1986 88.2583 27.1986 88.6423C27.1986 89.0531 27.3367 89.3664 27.6128 89.5819C27.8957 89.7907 28.2561 89.8951 28.6939 89.8951V90.3599H24.6222V89.8951C25.2284 89.8008 25.6797 89.5886 25.9761 89.2586C26.2724 88.9218 26.6294 88.2179 27.0471 87.147C27.0807 87.0459 27.2424 86.6552 27.532 85.9749L31.5128 76.4676H31.9068L36.4837 87.349L37.1101 88.7837C37.2516 89.107 37.4402 89.363 37.6759 89.5516C37.9184 89.7334 38.2788 89.848 38.757 89.8951V90.3599H33.3718V89.8951C34.0319 89.8951 34.4765 89.848 34.7055 89.7537C34.9412 89.6526 35.0591 89.4573 35.0591 89.1676C35.0591 89.0195 34.9042 88.5783 34.5944 87.8441L33.5436 85.3081ZM33.3718 84.8535L30.947 79.0136L28.5323 84.8535H33.3718Z" fill="#8CA1C6"/>
<path d="M41.4849 81.7517H41.7577C41.9127 82.1693 42.0002 82.7385 42.0204 83.4592C42.5054 82.8866 43.0139 82.4589 43.5461 82.176C44.0782 81.8931 44.6339 81.7517 45.2131 81.7517C45.8732 81.7517 46.4121 81.8898 46.8297 82.1659C47.254 82.4421 47.5268 82.7822 47.6481 83.1864C47.7693 83.5838 47.8299 84.1664 47.8299 84.9343V87.5208C47.8299 88.4772 47.8468 89.0599 47.8805 89.2687C47.9141 89.4775 48.0185 89.6358 48.1937 89.7435C48.3755 89.8446 48.7056 89.8951 49.1838 89.8951V90.3599H44.9504V89.8951H45.1424C45.6274 89.8951 45.944 89.8244 46.0921 89.6829C46.2403 89.5415 46.3245 89.3765 46.3447 89.1879C46.3649 88.9993 46.375 88.4436 46.375 87.5208V84.8535C46.375 84.2001 46.3414 83.7353 46.274 83.4592C46.2134 83.1763 46.0416 82.9271 45.7587 82.7115C45.4826 82.496 45.1289 82.3882 44.6979 82.3882C44.2062 82.3882 43.7347 82.5364 43.2834 82.8328C42.8388 83.1224 42.4178 83.5602 42.0204 84.1462V87.5208C42.0204 88.4772 42.0373 89.0599 42.0709 89.2687C42.1114 89.4775 42.2191 89.6358 42.3943 89.7435C42.5761 89.8446 42.9095 89.8951 43.3945 89.8951V90.3599H39.2117V89.8951C39.6764 89.8951 39.9997 89.848 40.1816 89.7537C40.3635 89.6594 40.4746 89.5179 40.515 89.3293C40.5622 89.134 40.5857 88.5311 40.5857 87.5208V85.0555C40.5857 84.0923 40.5655 83.5097 40.5251 83.3076C40.4914 83.0988 40.3837 82.9439 40.2018 82.8429C40.0267 82.7351 39.6966 82.6812 39.2117 82.6812V82.2164C39.9526 82.1356 40.7103 81.9807 41.4849 81.7517Z" fill="#8CA1C6"/>
<path d="M52.4775 81.7517H52.7503C52.9053 82.1693 52.9928 82.7385 53.013 83.4592C53.498 82.8866 54.0065 82.4589 54.5387 82.176C55.0708 81.8931 55.6265 81.7517 56.2057 81.7517C56.8658 81.7517 57.4047 81.8898 57.8223 82.1659C58.2466 82.4421 58.5194 82.7822 58.6407 83.1864C58.7619 83.5838 58.8225 84.1664 58.8225 84.9343V87.5208C58.8225 88.4772 58.8394 89.0599 58.8731 89.2687C58.9067 89.4775 59.0111 89.6358 59.1863 89.7435C59.3681 89.8446 59.6982 89.8951 60.1764 89.8951V90.3599H55.943V89.8951H56.135C56.62 89.8951 56.9366 89.8244 57.0847 89.6829C57.2329 89.5415 57.3171 89.3765 57.3373 89.1879C57.3575 88.9993 57.3676 88.4436 57.3676 87.5208V84.8535C57.3676 84.2001 57.334 83.7353 57.2666 83.4592C57.206 83.1763 57.0342 82.9271 56.7513 82.7115C56.4752 82.496 56.1215 82.3882 55.6905 82.3882C55.1988 82.3882 54.7273 82.5364 54.276 82.8328C53.8314 83.1224 53.4104 83.5602 53.013 84.1462V87.5208C53.013 88.4772 53.0299 89.0599 53.0635 89.2687C53.104 89.4775 53.2117 89.6358 53.3869 89.7435C53.5687 89.8446 53.9021 89.8951 54.3871 89.8951V90.3599H50.2043V89.8951C50.669 89.8951 50.9923 89.848 51.1742 89.7537C51.3561 89.6594 51.4672 89.5179 51.5076 89.3293C51.5548 89.134 51.5783 88.5311 51.5783 87.5208V85.0555C51.5783 84.0923 51.5581 83.5097 51.5177 83.3076C51.484 83.0988 51.3763 82.9439 51.1944 82.8429C51.0193 82.7351 50.6892 82.6812 50.2043 82.6812V82.2164C50.9452 82.1356 51.7029 81.9807 52.4775 81.7517Z" fill="#8CA1C6"/>
<path d="M68.8856 84.8838H63.1165C63.0896 85.2812 63.0761 85.5775 63.0761 85.7729C63.0761 87.2278 63.3018 88.3223 63.753 89.0565C64.2111 89.784 64.8914 90.1477 65.7939 90.1477C67.0198 90.1477 67.8887 89.5987 68.4006 88.5008H68.8856C68.6701 89.1879 68.2424 89.7267 67.6025 90.1174C66.9626 90.5013 66.2654 90.6933 65.511 90.6933C64.8105 90.6933 64.1471 90.5181 63.5207 90.1679C62.901 89.8109 62.3924 89.3091 61.995 88.6625C61.5976 88.0159 61.3989 87.2311 61.3989 86.3084C61.3989 85.0016 61.7829 83.9172 62.5507 83.055C63.3186 82.1861 64.2784 81.7517 65.4302 81.7517C66.5147 81.7517 67.3533 82.0817 67.946 82.7418C68.5387 83.4019 68.8519 84.1159 68.8856 84.8838ZM67.1175 84.4796C67.1377 84.3247 67.1478 84.1866 67.1478 84.0654C67.1478 83.4726 66.9727 83.0146 66.6224 82.6913C66.2789 82.3613 65.8546 82.1962 65.3494 82.1962C64.1235 82.1962 63.3927 82.9574 63.1569 84.4796H67.1175Z" fill="#8CA1C6"/>
<path d="M75.4731 90.3599V90.0062L84.3137 77.1243H80.05C79.1339 77.1243 78.5345 77.1613 78.2516 77.2354C77.9754 77.3095 77.6554 77.5789 77.2917 78.0437C76.928 78.5017 76.6518 79.0911 76.4632 79.8118H76.0187L76.4632 76.6595H86.6476V77.1243L77.8979 89.8951H82.0808C83.502 89.8951 84.4046 89.784 84.7885 89.5617C85.1724 89.3394 85.5193 88.9555 85.8292 88.4099C86.1458 87.8643 86.3849 87.3322 86.5465 86.8135H87.0113L86.5465 90.3599H75.4731Z" fill="#8CA1C6"/>
<path d="M97.1148 88.8443H97.4886C97.428 89.9961 96.8622 90.572 95.7912 90.572C95.3332 90.572 94.9695 90.4508 94.7 90.2083C94.4374 89.9658 94.2656 89.6055 94.1848 89.1272C93.5112 89.6055 92.8949 89.9658 92.3358 90.2083C91.7835 90.4508 91.2884 90.572 90.8506 90.572C90.2916 90.572 89.81 90.4104 89.4058 90.0871C89.0017 89.7638 88.7996 89.336 88.7996 88.8039C88.7996 88.1102 89.1364 87.5039 89.81 86.9853C90.4903 86.4666 91.4265 85.9615 92.6187 85.4698L94.1848 84.8333V84.4291C94.1848 83.8566 94.1477 83.4423 94.0736 83.1864C93.9995 82.9304 93.8076 82.7014 93.4977 82.4993C93.1879 82.2973 92.7804 82.1962 92.2752 82.1962C91.2649 82.1962 90.7024 82.533 90.5879 83.2066C90.4801 83.8936 90.1973 84.2371 89.7392 84.2371C89.3284 84.2371 89.1229 84.0418 89.1229 83.6511C89.1229 83.2672 89.3957 82.8563 89.9413 82.4185C90.4869 81.974 91.3356 81.7517 92.4874 81.7517C93.3428 81.7517 94.0063 81.8864 94.4778 82.1558C94.9493 82.4253 95.2591 82.7317 95.4073 83.0752C95.5622 83.4188 95.6397 83.9441 95.6397 84.6514V87.9956C95.6397 88.777 95.6801 89.2788 95.7609 89.5011C95.8417 89.7233 96.0169 89.8345 96.2863 89.8345C96.7308 89.8345 97.007 89.5044 97.1148 88.8443ZM94.1848 85.3081L93.0835 85.7527C91.3457 86.4599 90.4768 87.349 90.4768 88.42C90.4768 88.8443 90.5879 89.1879 90.8102 89.4505C91.0325 89.7065 91.3221 89.8345 91.6791 89.8345C91.9957 89.8345 92.3628 89.7301 92.7804 89.5213C93.198 89.3125 93.6661 88.9993 94.1848 88.5816V85.3081Z" fill="#8CA1C6"/>
<path d="M100.6 81.7517H100.702C100.897 82.203 100.995 82.7822 100.995 83.4895C101.446 82.9102 101.931 82.4758 102.449 82.1861C102.975 81.8965 103.537 81.7517 104.137 81.7517C104.817 81.7517 105.369 81.9066 105.794 82.2164C106.218 82.5263 106.514 82.991 106.683 83.6107C107.195 82.991 107.72 82.5263 108.259 82.2164C108.798 81.9066 109.347 81.7517 109.906 81.7517C110.546 81.7517 111.088 81.8999 111.532 82.1962C111.977 82.4926 112.246 82.8294 112.341 83.2066C112.435 83.5838 112.482 84.1934 112.482 85.0353V87.5208C112.482 88.484 112.499 89.07 112.533 89.2788C112.573 89.4876 112.681 89.6425 112.856 89.7435C113.038 89.8446 113.371 89.8951 113.856 89.8951V90.3599H109.724V89.8951C110.162 89.8951 110.468 89.848 110.643 89.7537C110.825 89.6526 110.936 89.5044 110.977 89.3091C111.017 89.107 111.037 88.5109 111.037 87.5208V84.7625C111.037 84.2035 111.004 83.7825 110.936 83.4996C110.876 83.2167 110.711 82.9742 110.441 82.7721C110.172 82.5701 109.822 82.469 109.391 82.469C108.953 82.469 108.512 82.6172 108.067 82.9136C107.629 83.21 107.188 83.6579 106.743 84.2574V87.5208C106.743 88.4032 106.754 88.9588 106.774 89.1879C106.801 89.4101 106.895 89.5853 107.057 89.7132C107.225 89.8345 107.521 89.8951 107.946 89.8951V90.3599H103.945V89.8951C104.396 89.8951 104.709 89.848 104.884 89.7537C105.066 89.6594 105.177 89.5145 105.218 89.3192C105.265 89.1239 105.289 88.5244 105.289 87.5208V85.2273C105.289 84.4998 105.258 83.9745 105.198 83.6511C105.144 83.3211 104.972 83.0416 104.682 82.8126C104.393 82.5768 104.032 82.4589 103.601 82.4589C103.184 82.4589 102.756 82.5936 102.318 82.8631C101.887 83.1325 101.446 83.5366 100.995 84.0755V87.5208C100.995 88.4301 101.008 88.9959 101.035 89.2182C101.062 89.4404 101.163 89.6088 101.338 89.7233C101.513 89.8378 101.826 89.8951 102.278 89.8951V90.3599H98.2262V89.8951C98.6707 89.8951 98.9806 89.848 99.1557 89.7537C99.3375 89.6526 99.4487 89.5044 99.4891 89.3091C99.5295 89.1138 99.5497 88.5177 99.5497 87.5208V85.0454C99.5497 84.1024 99.5329 83.5265 99.4992 83.3177C99.4723 83.1022 99.3679 82.9405 99.186 82.8328C99.0109 82.725 98.6909 82.6711 98.2262 82.6711V82.2063C99.1826 82.112 99.9741 81.9605 100.6 81.7517Z" fill="#8CA1C6"/>
<path d="M116.867 81.7517H117.14C117.254 82.1289 117.312 82.5835 117.312 83.1157C117.743 82.6576 118.204 82.3175 118.696 82.0952C119.194 81.8662 119.72 81.7517 120.272 81.7517C121.417 81.7517 122.37 82.1558 123.131 82.9641C123.892 83.7656 124.273 84.8265 124.273 86.1467C124.273 87.44 123.889 88.521 123.121 89.3899C122.36 90.2588 121.356 90.6933 120.11 90.6933C119.598 90.6933 119.107 90.5889 118.635 90.3801C118.17 90.178 117.729 89.8749 117.312 89.4708V92.6129C117.312 93.5694 117.328 94.152 117.362 94.3608C117.403 94.5697 117.51 94.7246 117.685 94.8256C117.861 94.9334 118.187 94.9873 118.666 94.9873V95.452H114.341V94.9873H114.644C115.123 94.9873 115.432 94.9165 115.574 94.7751C115.722 94.6404 115.806 94.4754 115.826 94.28C115.853 94.0914 115.867 93.5357 115.867 92.6129V85.0959C115.867 84.2136 115.853 83.6579 115.826 83.4289C115.806 83.1999 115.712 83.0247 115.544 82.9035C115.375 82.7822 115.075 82.7216 114.644 82.7216H114.341V82.2569C115.008 82.1895 115.85 82.0211 116.867 81.7517ZM117.312 88.8039C117.675 89.2485 118.059 89.5853 118.463 89.8143C118.874 90.0365 119.305 90.1477 119.757 90.1477C120.518 90.1477 121.181 89.821 121.747 89.1676C122.313 88.5143 122.596 87.4736 122.596 86.0457C122.596 84.8063 122.323 83.8802 121.777 83.2672C121.232 82.6543 120.582 82.3478 119.827 82.3478C119.363 82.3478 118.921 82.4657 118.504 82.7014C118.086 82.9372 117.689 83.2942 117.312 83.7724V88.8039Z" fill="#8CA1C6"/>
<path d="M125.869 86.2073C125.869 84.941 126.294 83.8835 127.142 83.0348C127.991 82.1794 129.035 81.7517 130.274 81.7517C131.521 81.7517 132.568 82.1794 133.417 83.0348C134.265 83.8903 134.69 84.9478 134.69 86.2073C134.69 87.6016 134.259 88.6995 133.396 89.5011C132.534 90.2959 131.494 90.6933 130.274 90.6933C129.055 90.6933 128.015 90.2891 127.152 89.4809C126.297 88.6658 125.869 87.5747 125.869 86.2073ZM127.546 86.2578C127.546 87.7262 127.786 88.7568 128.264 89.3495C128.742 89.9355 129.412 90.2285 130.274 90.2285C131.157 90.2285 131.83 89.9355 132.295 89.3495C132.767 88.7568 133.002 87.7262 133.002 86.2578C133.002 84.8029 132.77 83.7656 132.305 83.146C131.84 82.5263 131.164 82.2164 130.274 82.2164C129.392 82.2164 128.715 82.5263 128.244 83.146C127.779 83.7589 127.546 84.7962 127.546 86.2578Z" fill="#8CA1C6"/>
<path d="M142.54 82.8126C143.113 82.1659 143.692 81.8426 144.278 81.8426C144.601 81.8426 144.85 81.9302 145.026 82.1053C145.207 82.2804 145.298 82.4724 145.298 82.6812C145.298 83.1258 145.096 83.348 144.692 83.348C144.47 83.348 144.278 83.21 144.116 82.9338C143.968 82.6778 143.813 82.5499 143.651 82.5499C143.396 82.5499 143.113 82.725 142.803 83.0752C143.153 83.6276 143.328 84.2136 143.328 84.8333C143.328 85.6415 143.039 86.3555 142.459 86.9752C141.88 87.6016 140.903 87.9384 139.529 87.9855C138.101 88.0327 137.387 88.3223 137.387 88.8544C137.387 89.1037 137.549 89.2788 137.872 89.3798C138.189 89.4876 138.856 89.5684 139.873 89.6223C140.984 89.6762 141.84 89.7806 142.439 89.9355C143.039 90.0837 143.517 90.3868 143.874 90.8448C144.231 91.3029 144.409 91.8484 144.409 92.4816C144.409 93.3707 144.046 94.0881 143.318 94.6336C142.591 95.1792 141.543 95.452 140.176 95.452C138.923 95.452 137.919 95.2095 137.165 94.7246C136.411 94.2396 136.033 93.6267 136.033 92.8857C136.033 92.4749 136.141 92.1381 136.357 91.8754C136.572 91.6127 136.879 91.4813 137.276 91.4813C137.384 91.4813 137.482 91.4982 137.569 91.5319C137.152 91.9899 136.943 92.4749 136.943 92.9868C136.943 93.5795 137.219 94.0678 137.771 94.4518C138.33 94.8424 139.162 95.0378 140.267 95.0378C141.25 95.0378 142.015 94.8391 142.56 94.4417C143.113 94.051 143.389 93.5492 143.389 92.9363C143.389 92.2627 143.143 91.7878 142.651 91.5117C142.16 91.2422 141.284 91.0806 140.024 91.0267C138.576 90.9661 137.637 90.7876 137.205 90.4912C136.774 90.2016 136.559 89.8277 136.559 89.3697C136.559 88.4873 137.175 87.9317 138.408 87.7026C137.768 87.3254 137.286 86.8944 136.963 86.4094C136.64 85.9244 136.478 85.3822 136.478 84.7827C136.478 83.9408 136.808 83.2268 137.468 82.6408C138.135 82.0481 138.923 81.7517 139.832 81.7517C140.957 81.7517 141.86 82.1053 142.54 82.8126ZM137.994 85.0151C137.994 85.884 138.172 86.5205 138.529 86.9247C138.886 87.3288 139.341 87.5309 139.893 87.5309C140.405 87.5309 140.843 87.3322 141.206 86.9348C141.577 86.5306 141.762 85.8335 141.762 84.8434C141.762 83.8465 141.567 83.1594 141.176 82.7822C140.785 82.405 140.344 82.2164 139.853 82.2164C139.233 82.2164 138.768 82.4488 138.458 82.9136C138.148 83.3783 137.994 84.0789 137.994 85.0151Z" fill="#8CA1C6"/>
<path d="M147.996 81.7517H148.269C148.424 82.1693 148.511 82.7385 148.531 83.4592C149.016 82.8866 149.525 82.4589 150.057 82.176C150.589 81.8931 151.145 81.7517 151.724 81.7517C152.384 81.7517 152.923 81.8898 153.341 82.1659C153.765 82.4421 154.038 82.7822 154.159 83.1864C154.28 83.5838 154.341 84.1664 154.341 84.9343V87.5208C154.341 88.4772 154.358 89.0599 154.391 89.2687C154.425 89.4775 154.53 89.6358 154.705 89.7435C154.887 89.8446 155.217 89.8951 155.695 89.8951V90.3599H151.461V89.8951H151.653C152.138 89.8951 152.455 89.8244 152.603 89.6829C152.751 89.5415 152.836 89.3765 152.856 89.1879C152.876 88.9993 152.886 88.4436 152.886 87.5208V84.8535C152.886 84.2001 152.852 83.7353 152.785 83.4592C152.724 83.1763 152.553 82.9271 152.27 82.7115C151.994 82.496 151.64 82.3882 151.209 82.3882C150.717 82.3882 150.246 82.5364 149.794 82.8328C149.35 83.1224 148.929 83.5602 148.531 84.1462V87.5208C148.531 88.4772 148.548 89.0599 148.582 89.2687C148.622 89.4775 148.73 89.6358 148.905 89.7435C149.087 89.8446 149.421 89.8951 149.906 89.8951V90.3599H145.723V89.8951C146.187 89.8951 146.511 89.848 146.693 89.7537C146.874 89.6594 146.986 89.5179 147.026 89.3293C147.073 89.134 147.097 88.5311 147.097 87.5208V85.0555C147.097 84.0923 147.077 83.5097 147.036 83.3076C147.002 83.0988 146.895 82.9439 146.713 82.8429C146.538 82.7351 146.208 82.6812 145.723 82.6812V82.2164C146.464 82.1356 147.221 81.9807 147.996 81.7517Z" fill="#8CA1C6"/>
<path d="M165.253 88.8443H165.627C165.566 89.9961 165 90.572 163.929 90.572C163.471 90.572 163.107 90.4508 162.838 90.2083C162.575 89.9658 162.404 89.6055 162.323 89.1272C161.649 89.6055 161.033 89.9658 160.474 90.2083C159.921 90.4508 159.426 90.572 158.989 90.572C158.43 90.572 157.948 90.4104 157.544 90.0871C157.14 89.7638 156.938 89.336 156.938 88.8039C156.938 88.1102 157.274 87.5039 157.948 86.9853C158.628 86.4666 159.564 85.9615 160.757 85.4698L162.323 84.8333V84.4291C162.323 83.8566 162.286 83.4423 162.212 83.1864C162.137 82.9304 161.946 82.7014 161.636 82.4993C161.326 82.2973 160.918 82.1962 160.413 82.1962C159.403 82.1962 158.84 82.533 158.726 83.2066C158.618 83.8936 158.335 84.2371 157.877 84.2371C157.466 84.2371 157.261 84.0418 157.261 83.6511C157.261 83.2672 157.534 82.8563 158.079 82.4185C158.625 81.974 159.474 81.7517 160.625 81.7517C161.481 81.7517 162.144 81.8864 162.616 82.1558C163.087 82.4253 163.397 82.7317 163.545 83.0752C163.7 83.4188 163.778 83.9441 163.778 84.6514V87.9956C163.778 88.777 163.818 89.2788 163.899 89.5011C163.98 89.7233 164.155 89.8345 164.424 89.8345C164.869 89.8345 165.145 89.5044 165.253 88.8443ZM162.323 85.3081L161.221 85.7527C159.484 86.4599 158.615 87.349 158.615 88.42C158.615 88.8443 158.726 89.1879 158.948 89.4505C159.17 89.7065 159.46 89.8345 159.817 89.8345C160.134 89.8345 160.501 89.7301 160.918 89.5213C161.336 89.3125 161.804 88.9993 162.323 88.5816V85.3081Z" fill="#8CA1C6"/>
<path d="M0.204957 61.7295C0.204957 60.95 0.464761 60.0927 0.984369 59.1574C1.50398 58.1701 2.10153 57.2608 2.77702 56.4294C3.50447 55.5461 4.17996 54.7667 4.80349 54.0912C5.47898 53.4157 5.97261 52.9481 6.28437 52.6883L23.4314 21.278C23.9511 20.8623 24.4187 20.3427 24.8344 19.7191C25.2501 19.0436 25.6658 18.4201 26.0814 17.8485C26.5491 17.225 27.0427 16.7054 27.5623 16.2897C28.1339 15.874 28.8094 15.6662 29.5888 15.6662C29.5888 16.4976 29.4849 17.5108 29.277 18.7059C29.1212 19.849 28.8613 20.7064 28.4976 21.278L13.7667 47.5441C15.3256 46.9206 16.7545 46.7388 18.0535 46.9986C19.4045 47.2064 20.6515 47.6481 21.7947 48.3236C22.9378 48.9991 24.003 49.8304 24.9903 50.8177C26.0295 51.753 26.9908 52.6623 27.8741 53.5456C28.8094 54.429 29.6927 55.1824 30.5241 55.8059C31.3555 56.4294 32.1868 56.7412 33.0182 56.7412C34.8368 56.7412 36.6035 55.8319 38.3182 54.0133C40.0329 52.1946 41.6697 49.8564 43.2285 46.9986C44.7873 44.1407 46.2163 40.9711 47.5153 37.4897C48.8143 34.0084 49.9315 30.6309 50.8668 27.3574C51.8021 24.0319 52.5295 21.0182 53.0491 18.3162C53.5687 15.5623 53.8285 13.5098 53.8285 12.1588C53.8285 11.4314 53.7506 10.652 53.5947 9.82059C53.4908 8.93726 53.257 8.15785 52.8932 7.48236C52.5295 6.75491 52.0359 6.15736 51.4123 5.68971C50.8408 5.22206 50.0873 4.98824 49.1521 4.98824C47.7491 4.98824 46.4761 5.58579 45.3329 6.78089C44.1898 7.97599 43.1506 9.50883 42.2153 11.3794C41.28 13.25 40.4486 15.3544 39.7212 17.6927C39.0457 19.9789 38.4481 22.2132 37.9285 24.3956C37.4609 26.578 37.0971 28.5784 36.8373 30.3971C36.6295 32.2157 36.5256 33.5927 36.5256 34.528C36.5256 35.5672 36.6295 36.5544 36.8373 37.4897C37.0971 38.425 37.3829 39.3343 37.6947 40.2177C38.0065 41.101 38.2663 42.0103 38.4741 42.9456C38.7339 43.8289 38.8638 44.7642 38.8638 45.7515C37.4089 45.7515 36.2398 45.3878 35.3565 44.6603C34.5251 43.9329 33.9015 43.0236 33.4859 41.9324C33.0702 40.8412 32.7844 39.6721 32.6285 38.425C32.5246 37.126 32.4726 35.9309 32.4726 34.8397C32.4726 33.5927 32.6285 31.852 32.9403 29.6177C33.304 27.3834 33.7976 24.9932 34.4212 22.4471C35.0966 19.849 35.902 17.225 36.8373 14.575C37.8246 11.925 38.9417 9.53481 40.1888 7.40442C41.4878 5.22206 42.9168 3.45539 44.4756 2.10441C46.0864 0.701471 47.827 0 49.6976 0C49.8535 0 50.1913 0.0259804 50.7109 0.0779412C51.2824 0.129902 51.6462 0.155882 51.8021 0.155882C52.6334 1.1951 53.3609 2.18235 53.9844 3.11765C54.6079 4.05294 55.1275 4.98824 55.5432 5.92353C56.0109 6.85883 56.3486 7.84608 56.5565 8.8853C56.7643 9.92452 56.8682 11.0936 56.8682 12.3927C56.8682 14.0034 56.6084 16.3417 56.0888 19.4074C55.6212 22.4731 54.9197 25.8505 53.9844 29.5397C53.0491 33.177 51.906 36.9182 50.555 40.7633C49.204 44.5564 47.6452 48.0118 45.8785 51.1294C44.1119 54.2471 42.1633 56.8192 40.0329 58.8456C37.9025 60.8201 35.6163 61.8074 33.1741 61.8074C31.5114 61.8074 30.0824 61.5476 28.8873 61.028C27.7442 60.5084 26.731 59.8848 25.8476 59.1574C24.9643 58.378 24.1589 57.5466 23.4314 56.6633C22.704 55.728 21.9506 54.8966 21.1711 54.1692C20.3917 53.3897 19.5344 52.7402 18.5991 52.2206C17.6638 51.701 16.5207 51.4412 15.1697 51.4412C13.7667 51.4412 12.5457 51.8829 11.5064 52.7662C10.4672 53.6495 9.5579 54.7407 8.77849 56.0397C7.99908 57.3388 7.32359 58.6897 6.75202 60.0927C6.18045 61.4956 5.68682 62.7167 5.27114 63.7559C5.16722 63.7559 4.98535 63.7559 4.72555 63.7559C4.5177 63.8079 4.36182 63.8339 4.2579 63.8339C3.9981 63.8339 3.63437 63.7819 3.16672 63.678C2.75104 63.5741 2.30937 63.4442 1.84172 63.2883C1.42604 63.0804 1.03633 62.8466 0.672604 62.5868C0.360839 62.327 0.204957 62.0412 0.204957 61.7295Z" fill="#8CA1C6"/>
<path d="M58.7388 58.6897C58.7388 57.9623 58.8168 57.3388 58.9726 56.8192C59.1285 56.2476 59.4143 55.5201 59.83 54.6368C60.1937 54.1172 60.8432 53.1299 61.7785 51.675C62.7658 50.2201 63.779 48.6873 64.8182 47.0765C65.9094 45.4657 66.9227 43.9589 67.8579 42.5559C68.8452 41.101 69.5207 40.0878 69.8844 39.5162C70.3521 38.8407 70.7158 38.477 70.9756 38.425C71.2354 38.3731 71.729 38.3471 72.4565 38.3471C72.9241 38.3471 73.4178 38.3731 73.9374 38.425C74.5089 38.477 74.8727 38.8407 75.0285 39.5162C74.3011 41.2829 73.3138 42.9716 72.0668 44.5824C70.8717 46.1412 69.6766 47.7 68.4815 49.2589C67.3383 50.8177 66.3251 52.4285 65.4418 54.0912C64.5584 55.702 64.1168 57.4427 64.1168 59.3133C64.3246 59.3133 64.6364 59.3393 65.0521 59.3912C65.5197 59.4432 66.0133 59.4951 66.5329 59.5471C67.0526 59.5991 67.5202 59.651 67.9359 59.703C68.4035 59.7549 68.7413 59.7549 68.9491 59.703C69.2609 59.651 69.7805 59.5471 70.5079 59.3912C71.2874 59.1834 72.0928 58.9755 72.9241 58.7677C73.8075 58.5598 74.6388 58.352 75.4182 58.1442C76.1977 57.9363 76.7432 57.7804 77.055 57.6765C77.055 57.7804 77.055 57.9623 77.055 58.2221C77.107 58.4299 77.133 58.5858 77.133 58.6897C77.133 59.729 76.6393 60.5863 75.6521 61.2618C74.7168 61.9373 73.5996 62.4829 72.3006 62.8986C71.0535 63.2623 69.7545 63.5221 68.4035 63.678C67.1045 63.7819 66.0913 63.8339 65.3638 63.8339C64.5844 63.8339 63.779 63.7559 62.9476 63.6C62.1682 63.3922 61.4668 63.0804 60.8432 62.6647C60.2197 62.2491 59.7001 61.7295 59.2844 61.1059C58.9207 60.4304 58.7388 59.625 58.7388 58.6897ZM81.4197 13.0162C82.0952 13.0162 82.7187 13.0422 83.2903 13.0941C83.8619 13.1461 84.3555 13.276 84.7712 13.4838C85.1869 13.6917 85.5246 14.0034 85.7844 14.4191C86.0442 14.8348 86.1741 15.4064 86.1741 16.1338C86.1741 16.4456 86.1741 16.7833 86.1741 17.1471C86.1741 17.5108 86.1222 17.8745 86.0183 18.2382C85.9663 18.55 85.8364 18.8358 85.6285 19.0956C85.4207 19.3034 85.083 19.4074 84.6153 19.4074C83.8879 19.4074 83.2903 19.1476 82.8227 18.628C82.407 18.1083 82.0952 17.5108 81.8874 16.8353C81.6795 16.1079 81.5496 15.3804 81.4977 14.653C81.4457 13.9255 81.4197 13.3799 81.4197 13.0162Z" fill="#8CA1C6"/>
<path d="M78.0682 59.703C77.1849 57.7285 76.7952 55.8059 76.8991 53.9353C77.0031 52.0128 77.4187 50.2201 78.1462 48.5574C78.9256 46.8427 79.9129 45.3098 81.108 43.9589C82.355 42.5559 83.68 41.3608 85.083 40.3736C86.4859 39.3343 87.8888 38.5549 89.2918 38.0353C90.7467 37.5157 92.0197 37.3079 93.1109 37.4118C94.2021 37.4637 95.0594 37.8535 95.683 38.5809C96.3065 39.3084 96.5143 40.4255 96.3065 41.9324C96.3065 43.9589 95.657 45.7255 94.358 47.2324C93.1109 48.7392 91.708 50.0902 90.1491 51.2853C88.6423 52.4804 87.2393 53.5716 85.9403 54.5589C84.6933 55.4942 84.0697 56.3775 84.0697 57.2089C84.0697 57.6765 84.3295 58.0402 84.8491 58.3C85.4207 58.5598 86.0702 58.7677 86.7977 58.9236C87.5251 59.0275 88.2526 59.1054 88.98 59.1574C89.7075 59.2094 90.2271 59.2613 90.5388 59.3133C95.4232 58.2741 99.0864 57.6505 101.529 57.4427C103.971 57.1829 105.504 57.2089 106.127 57.5206C106.751 57.7804 106.621 58.2221 105.737 58.8456C104.906 59.4172 103.607 60.0407 101.84 60.7162C100.074 61.3397 98.0212 61.9113 95.683 62.4309C93.3447 62.9505 91.0325 63.2623 88.7462 63.3662C86.4599 63.4182 84.3295 63.1844 82.355 62.6647C80.4325 62.1451 79.0035 61.1579 78.0682 59.703ZM91.708 41.9324C90.6687 41.9324 89.6815 42.2182 88.7462 42.7897C87.8109 43.3613 86.9535 44.0888 86.1741 44.9721C85.4467 45.8035 84.8232 46.7388 84.3035 47.778C83.7839 48.7652 83.3942 49.7005 83.1344 50.5839C83.2383 50.6358 83.3163 50.6618 83.3683 50.6618H83.6021C84.3295 50.6618 85.1609 50.35 86.0962 49.7265C87.0315 49.103 87.9148 48.3495 88.7462 47.4662C89.5776 46.5309 90.279 45.5696 90.8506 44.5824C91.4222 43.5951 91.708 42.7118 91.708 41.9324Z" fill="#8CA1C6"/>
<path d="M104.023 56.1956C104.023 54.6888 104.308 53.1819 104.88 51.675C105.452 50.1682 106.127 48.6873 106.907 47.2324C107.686 45.7255 108.465 44.2446 109.245 42.7897C110.076 41.3348 110.7 39.9059 111.115 38.503C110.128 39.0745 109.271 39.4123 108.543 39.5162C107.868 39.5682 107.036 39.5941 106.049 39.5941C105.945 39.5941 105.607 39.5941 105.036 39.5941C104.516 39.5422 104.179 39.5162 104.023 39.5162C104.334 38.3731 104.906 37.3598 105.737 36.4765C106.569 35.5412 107.504 34.7618 108.543 34.1383C109.634 33.4628 110.752 32.9172 111.895 32.5015C113.09 32.0338 114.155 31.6701 115.09 31.4103C116.649 28.9682 117.922 26.526 118.909 24.0838C119.897 21.5897 120.884 19.1735 121.871 16.8353C122.91 14.4451 124.106 12.1848 125.457 10.0544C126.859 7.87206 128.73 5.87157 131.068 4.05294L131.458 7.01471L121.715 29.8515C122.287 29.6956 122.988 29.5397 123.82 29.3838C124.651 29.228 125.482 29.0721 126.314 28.9162C127.197 28.7603 128.029 28.6304 128.808 28.5265C129.639 28.3706 130.341 28.2147 130.912 28.0588C130.964 28.0588 131.12 28.0588 131.38 28.0588C131.64 28.0069 131.848 27.9809 132.004 27.9809C132.731 27.9809 133.329 28.1108 133.796 28.3706C134.264 28.6304 134.654 29.202 134.965 30.0853C131.432 31.1245 128.236 32.2157 125.379 33.3588C122.521 34.502 120.027 36.0088 117.896 37.8794C115.818 39.6981 114.103 42.0363 112.752 44.8941C111.453 47.7 110.544 51.3113 110.024 55.728C110.024 56.6633 110.076 57.5206 110.18 58.3C110.284 59.0794 110.933 59.5471 112.129 59.703C113.324 59.703 114.441 59.4692 115.48 59.0015C116.519 58.5339 117.532 58.0402 118.52 57.5206C119.507 56.9491 120.494 56.4294 121.482 55.9618C122.521 55.4942 123.638 55.2603 124.833 55.2603C124.833 56.5074 124.287 57.6505 123.196 58.6897C122.105 59.729 120.78 60.6383 119.221 61.4177C117.714 62.1971 116.156 62.7946 114.545 63.2103C112.934 63.626 111.609 63.8339 110.57 63.8339C109.531 63.8339 108.595 63.626 107.764 63.2103C106.932 62.7946 106.231 62.2491 105.659 61.5736C105.14 60.8461 104.724 60.0147 104.412 59.0794C104.153 58.1442 104.023 57.1829 104.023 56.1956Z" fill="#8CA1C6"/>
<path d="M125.534 57.2089C125.534 57.001 125.534 56.5853 125.534 55.9618C125.586 55.2863 125.612 54.8446 125.612 54.6368C127.275 50.8437 129.406 47.3363 132.004 44.1147C134.602 40.8932 137.537 38.0353 140.811 35.5412C140.915 35.5412 141.071 35.5152 141.279 35.4633C141.538 35.3593 141.72 35.3074 141.824 35.3074C143.227 35.3074 144.37 35.6191 145.254 36.2427C146.189 36.8142 146.916 37.5937 147.436 38.5809C148.008 39.5162 148.397 40.5814 148.605 41.7765C148.813 42.9196 148.917 44.0368 148.917 45.128C148.917 47.1544 148.449 49.2848 147.514 51.5192C146.579 53.7015 145.306 55.728 143.695 57.5986C142.136 59.4172 140.343 60.9241 138.317 62.1192C136.29 63.2623 134.186 63.8339 132.004 63.8339C129.821 63.8339 128.184 63.2623 127.093 62.1192C126.054 60.9241 125.534 59.2873 125.534 57.2089ZM131.614 56.2736C131.614 56.8451 131.848 57.2348 132.315 57.4427C132.783 57.6505 133.251 57.7544 133.718 57.7544C135.017 57.7544 136.264 57.4167 137.459 56.7412C138.707 56.0138 139.798 55.1304 140.733 54.0912C141.72 53 142.5 51.8049 143.071 50.5059C143.643 49.2069 143.929 47.9598 143.929 46.7647C143.929 46.1932 143.877 45.5696 143.773 44.8941C143.721 44.1667 143.565 43.5432 143.305 43.0236C143.045 42.452 142.63 42.0103 142.058 41.6986C141.538 41.3868 140.785 41.3348 139.798 41.5427C139.07 41.6986 138.239 42.374 137.304 43.5691C136.368 44.7642 135.459 46.1672 134.576 47.778C133.744 49.3368 133.043 50.9216 132.471 52.5324C131.9 54.0912 131.614 55.3383 131.614 56.2736Z" fill="#8CA1C6"/>
<path d="M151.333 56.6633C151.333 56.2995 151.359 55.754 151.411 55.0265C151.515 54.2471 151.619 53.4937 151.723 52.7662C151.827 52.0388 151.931 51.3892 152.034 50.8177C152.138 50.1941 152.242 49.8044 152.346 49.6486L166.532 21.278C166.739 20.8623 167.129 20.2907 167.701 19.5632C168.324 18.7838 168.974 18.0044 169.649 17.225C170.377 16.3936 171.078 15.6402 171.754 14.9647C172.481 14.2373 173.079 13.6657 173.546 13.25C173.91 13.3539 174.17 13.5358 174.326 13.7956C174.482 14.0554 174.585 14.3672 174.637 14.7309C174.689 15.0427 174.689 15.3544 174.637 15.6662C174.637 15.978 174.637 16.2378 174.637 16.4456C174.637 16.7054 174.637 17.0691 174.637 17.5368C174.637 18.0044 174.611 18.2382 174.559 18.2382C174.04 19.6412 173.234 21.3039 172.143 23.2265C171.052 25.149 169.831 27.2015 168.48 29.3838C167.129 31.5662 165.726 33.8525 164.271 36.2427C162.868 38.5809 161.569 40.9191 160.374 43.2574C159.231 45.5437 158.27 47.752 157.49 49.8824C156.763 52.0128 156.399 53.9613 156.399 55.728C156.399 56.6633 156.659 57.4167 157.179 57.9883C157.75 58.5079 158.348 58.9755 158.971 59.3912C159.595 59.8069 160.166 60.2226 160.686 60.6383C161.258 61.054 161.543 61.6255 161.543 62.353C161.543 62.8206 161.335 63.1844 160.92 63.4442C160.504 63.652 160.01 63.7559 159.439 63.7559C157.257 63.7559 155.36 63.1584 153.749 61.9633C152.138 60.7162 151.333 58.9495 151.333 56.6633Z" fill="#8CA1C6"/>
<path d="M172.143 57.2089C172.143 57.001 172.143 56.5853 172.143 55.9618C172.195 55.2863 172.221 54.8446 172.221 54.6368C173.884 50.8437 176.014 47.3363 178.612 44.1147C181.21 40.8932 184.146 38.0353 187.42 35.5412C187.524 35.5412 187.68 35.5152 187.887 35.4633C188.147 35.3593 188.329 35.3074 188.433 35.3074C189.836 35.3074 190.979 35.6191 191.862 36.2427C192.798 36.8142 193.525 37.5937 194.045 38.5809C194.616 39.5162 195.006 40.5814 195.214 41.7765C195.422 42.9196 195.526 44.0368 195.526 45.128C195.526 47.1544 195.058 49.2848 194.123 51.5192C193.187 53.7015 191.914 55.728 190.304 57.5986C188.745 59.4172 186.952 60.9241 184.926 62.1192C182.899 63.2623 180.795 63.8339 178.612 63.8339C176.43 63.8339 174.793 63.2623 173.702 62.1192C172.663 60.9241 172.143 59.2873 172.143 57.2089ZM178.223 56.2736C178.223 56.8451 178.457 57.2348 178.924 57.4427C179.392 57.6505 179.859 57.7544 180.327 57.7544C181.626 57.7544 182.873 57.4167 184.068 56.7412C185.315 56.0138 186.407 55.1304 187.342 54.0912C188.329 53 189.109 51.8049 189.68 50.5059C190.252 49.2069 190.537 47.9598 190.537 46.7647C190.537 46.1932 190.485 45.5696 190.382 44.8941C190.33 44.1667 190.174 43.5432 189.914 43.0236C189.654 42.452 189.238 42.0103 188.667 41.6986C188.147 41.3868 187.394 41.3348 186.407 41.5427C185.679 41.6986 184.848 42.374 183.912 43.5691C182.977 44.7642 182.068 46.1672 181.184 47.778C180.353 49.3368 179.652 50.9216 179.08 52.5324C178.509 54.0912 178.223 55.3383 178.223 56.2736Z" fill="#8CA1C6"/>
<path d="M183.757 105.143C183.757 102.181 184.276 99.5309 185.315 97.1927C186.303 94.8545 187.628 92.6721 189.29 90.6456C190.953 88.6711 192.85 86.8265 194.98 85.1118C197.11 83.4491 199.293 81.8123 201.527 80.2015C203.761 78.6427 205.944 77.0579 208.074 75.4471C210.205 73.8363 212.101 72.1216 213.764 70.303C215.427 68.4844 216.752 66.5098 217.739 64.3795C218.778 62.2491 219.298 59.8848 219.298 57.2868C219.298 57.1829 219.298 56.9491 219.298 56.5853C219.298 56.1696 219.272 55.9098 219.22 55.8059C218.856 56.1177 218.155 56.5853 217.115 57.2089C216.076 57.7804 214.959 58.404 213.764 59.0794C212.621 59.703 211.504 60.2745 210.412 60.7942C209.321 61.3138 208.542 61.6515 208.074 61.8074C208.022 61.8074 207.814 61.8334 207.451 61.8853C207.139 61.9373 206.749 61.9893 206.282 62.0412C205.866 62.0932 205.45 62.1451 205.035 62.1971C204.619 62.1971 204.281 62.1971 204.021 62.1971C201.683 61.7814 200.124 60.976 199.345 59.7809C198.565 58.5339 198.358 57.079 198.721 55.4162C199.085 53.7535 199.89 51.9868 201.137 50.1162C202.436 48.1937 203.969 46.375 205.736 44.6603C207.555 42.8937 209.503 41.3348 211.582 39.9838C213.712 38.5809 215.764 37.5937 217.739 37.0221C219.765 36.3986 221.61 36.2687 223.273 36.6324C224.987 36.9441 226.312 37.9574 227.248 39.6721C227.56 41.8544 227.56 43.9069 227.248 45.8294C226.936 47.7 226.52 49.5446 226.001 51.3633C225.481 53.1819 224.961 55.0265 224.442 56.8971C223.922 58.7157 223.611 60.7162 223.507 62.8986H224.208C224.52 62.5868 225.039 62.0412 225.767 61.2618C226.546 60.4824 227.352 59.677 228.183 58.8456C229.066 57.9623 229.898 57.1569 230.677 56.4294C231.457 55.65 232.002 55.1044 232.314 54.7927C232.47 54.6368 232.782 54.429 233.249 54.1692C233.769 53.9093 234.133 53.7794 234.34 53.7794V54.1692C234.34 54.2211 234.366 54.2471 234.418 54.2471C234.418 56.1177 233.873 57.8324 232.782 59.3912C231.742 60.95 230.469 62.4049 228.962 63.7559C227.456 65.1069 225.897 66.354 224.286 67.4971C222.675 68.6922 221.324 69.8353 220.233 70.9265C219.35 72.7451 218.388 75.0054 217.349 77.7074C216.31 80.4613 215.167 83.3711 213.92 86.4368C212.673 89.5545 211.27 92.6981 209.711 95.8677C208.204 99.0893 206.489 102.051 204.567 104.753C202.696 107.455 200.618 109.767 198.332 111.69C196.045 113.664 193.499 114.937 190.693 115.509C189.342 115.509 188.225 115.171 187.342 114.496C186.407 113.82 185.679 112.963 185.16 111.924C184.64 110.936 184.276 109.819 184.068 108.572C183.86 107.377 183.757 106.234 183.757 105.143ZM187.887 109.352C188.303 110.339 188.797 110.936 189.368 111.144C189.94 111.352 190.589 111.456 191.317 111.456C192.668 111.456 194.149 110.754 195.76 109.352C197.37 107.949 198.981 106.13 200.592 103.896C202.255 101.713 203.839 99.2711 205.346 96.5692C206.853 93.8672 208.178 91.2432 209.321 88.6971C210.516 86.151 211.452 83.8128 212.127 81.6824C212.855 79.604 213.218 78.0451 213.218 77.0059C213.218 76.902 213.192 76.7201 213.14 76.4603C213.14 76.2525 213.14 76.0966 213.14 75.9927C212.985 76.0966 212.621 76.2525 212.049 76.4603C211.53 76.7201 211.218 76.902 211.114 77.0059C208.932 78.6167 206.463 80.3834 203.71 82.3059C201.008 84.2804 198.487 86.4368 196.149 88.7751C193.759 91.1133 191.759 93.6334 190.148 96.3354C188.537 99.0893 187.732 102.051 187.732 105.221C187.732 105.377 187.732 105.662 187.732 106.078C187.732 106.494 187.758 106.909 187.81 107.325C187.81 107.741 187.835 108.13 187.887 108.494C187.887 108.91 187.887 109.196 187.887 109.352ZM222.26 40.6074C221.428 40.6074 220.337 40.8932 218.986 41.4647C217.635 41.9843 216.18 42.7118 214.621 43.6471C213.114 44.5824 211.582 45.6476 210.023 46.8427C208.464 48.0378 207.035 49.2848 205.736 50.5839C204.489 51.8829 203.476 53.1819 202.696 54.4809C201.917 55.7799 201.527 56.975 201.527 58.0662C202.618 58.0662 203.943 57.8584 205.502 57.4427C207.061 56.975 208.672 56.3775 210.335 55.65C212.049 54.8706 213.738 53.9873 215.401 53C217.063 51.9608 218.544 50.8696 219.843 49.7265C221.194 48.5834 222.286 47.4142 223.117 46.2191C223.948 45.024 224.364 43.8549 224.364 42.7118C224.364 41.3088 223.662 40.6074 222.26 40.6074Z" fill="#8CA1C6"/>
<path d="M228.417 87.2942C230.08 84.5922 232.002 82.176 234.185 80.0456C236.367 77.9672 238.601 75.9927 240.887 74.1221C243.226 72.2515 245.538 70.4329 247.824 68.6662C250.111 66.8996 252.215 65.003 254.137 62.9765C256.112 60.95 257.801 58.7157 259.204 56.2736C260.607 53.7794 261.568 50.8956 262.087 47.6221C262.087 47.5182 262.062 47.3623 262.01 47.1544C262.01 46.8946 262.01 46.7128 262.01 46.6089C260.814 48.0118 259.36 49.5966 257.645 51.3633C255.982 53.1299 254.163 54.7927 252.189 56.3515C250.266 57.9103 248.24 59.2094 246.11 60.2486C243.979 61.2878 241.901 61.8074 239.874 61.8074C239.355 61.8074 238.679 61.7814 237.848 61.7295C237.068 61.6255 236.289 61.4437 235.51 61.1839C234.73 60.9241 234.055 60.5603 233.483 60.0927C232.911 59.625 232.626 59.0015 232.626 58.2221C232.626 57.5466 232.808 56.5074 233.171 55.1044C233.535 53.7015 234.029 52.1427 234.652 50.428C235.276 48.7133 235.977 46.9726 236.757 45.2059C237.536 43.4392 238.367 41.8285 239.251 40.3736C240.134 38.9187 240.991 37.7236 241.823 36.7883C242.706 35.853 243.512 35.3853 244.239 35.3853C244.966 35.3853 245.59 35.5412 246.11 35.853C246.629 36.1647 246.889 36.6843 246.889 37.4118C246.889 38.7108 246.421 40.0098 245.486 41.3088C244.551 42.6079 243.537 44.0108 242.446 45.5177C241.355 46.9726 240.342 48.5574 239.407 50.2721C238.471 51.9868 238.004 53.9353 238.004 56.1177C241.433 56.1177 244.525 55.4162 247.279 54.0133C250.033 52.5584 252.527 50.7657 254.761 48.6353C256.995 46.5049 258.97 44.1927 260.685 41.6986C262.399 39.2044 263.906 36.8922 265.205 34.7618C266.556 32.6314 267.699 30.8647 268.635 29.4618C269.622 28.0069 270.453 27.2794 271.129 27.2794C272.116 27.2794 272.688 27.5912 272.843 28.2147C273.051 28.7863 273.155 29.5137 273.155 30.3971C272.688 32.0079 272.038 33.9044 271.207 36.0868C270.375 38.2172 269.518 40.4775 268.635 42.8677C267.803 45.2059 267.024 47.5441 266.296 49.8824C265.621 52.2206 265.179 54.351 264.971 56.2736C264.971 56.3255 264.971 56.4035 264.971 56.5074C265.023 56.6113 265.049 56.6893 265.049 56.7412C265.985 56.4294 266.868 55.8839 267.699 55.1044C268.531 54.325 269.336 53.5456 270.115 52.7662C270.947 51.9348 271.778 51.2074 272.61 50.5839C273.441 49.9084 274.298 49.5706 275.182 49.5706C275.234 49.5706 275.415 49.9343 275.727 50.6618C276.091 51.3892 276.091 52.2726 275.727 53.3118C275.26 53.6755 274.402 54.2991 273.155 55.1824C271.96 56.0657 270.687 57.001 269.336 57.9883C267.985 58.9236 266.712 59.8589 265.517 60.7942C264.322 61.6775 263.49 62.353 263.023 62.8206C262.295 63.5481 261.542 64.5873 260.762 65.9383C259.983 67.2893 259.204 68.7961 258.424 70.4589C257.645 72.1736 256.865 73.9662 256.086 75.8368C255.359 77.7074 254.631 79.526 253.904 81.2927C253.176 83.1113 252.449 84.7741 251.721 86.2809C251.046 87.8398 250.422 89.1128 249.851 90.1001C249.591 90.5157 249.045 91.3211 248.214 92.5162C247.435 93.7633 246.551 95.0883 245.564 96.4912C244.629 97.8942 243.693 99.2192 242.758 100.466C241.875 101.765 241.199 102.675 240.732 103.194C240.524 103.454 239.952 104.052 239.017 104.987C238.082 105.974 237.016 107.039 235.821 108.182C234.678 109.378 233.535 110.547 232.392 111.69C231.197 112.833 230.287 113.69 229.664 114.262C229.04 114.626 228.209 115.067 227.17 115.587C226.131 116.158 225.065 116.626 223.974 116.99C222.831 117.354 221.74 117.587 220.701 117.691C219.61 117.795 218.726 117.561 218.051 116.99C217.375 116.47 216.986 115.561 216.882 114.262C216.726 113.015 217.011 111.222 217.739 108.884C218.414 106.598 219.61 103.688 221.324 100.154C223.039 96.6211 225.403 92.3344 228.417 87.2942ZM252.89 70.5368C252.787 70.5368 252.605 70.5628 252.345 70.6148C252.137 70.7187 251.981 70.7966 251.877 70.8486C251.773 70.9525 251.539 71.1344 251.176 71.3942C250.812 71.654 250.396 71.9398 249.929 72.2515C249.513 72.5633 249.097 72.875 248.682 73.1868C248.318 73.4986 248.058 73.7324 247.902 73.8883C246.447 74.9275 244.785 76.3824 242.914 78.253C241.043 80.1755 239.095 82.28 237.068 84.5662C235.094 86.9045 233.145 89.3466 231.223 91.8927C229.3 94.4907 227.586 96.9589 226.079 99.2971C224.52 101.687 223.273 103.87 222.337 105.844C221.402 107.819 220.909 109.404 220.857 110.599C220.805 111.794 221.298 112.495 222.337 112.703C223.377 112.911 225.143 112.417 227.637 111.222C228.157 110.754 228.911 110.053 229.898 109.118C230.833 108.234 231.768 107.299 232.704 106.312C233.691 105.377 234.574 104.493 235.354 103.662C236.133 102.882 236.601 102.389 236.757 102.181C237.016 101.817 237.432 101.246 238.004 100.466C238.575 99.6868 239.199 98.8035 239.874 97.8162C240.55 96.829 241.251 95.7898 241.979 94.6986C242.706 93.6074 243.382 92.5422 244.005 91.503C244.681 90.5157 245.252 89.6324 245.72 88.853C246.239 88.0736 246.603 87.476 246.811 87.0603C247.279 86.229 247.85 85.0339 248.526 83.4751C249.253 81.9682 249.929 80.3834 250.552 78.7206C251.176 77.1099 251.721 75.551 252.189 74.0442C252.657 72.5373 252.89 71.3682 252.89 70.5368Z" fill="#8CA1C6"/>
</svg>
