<svg width="277" height="69" viewBox="0 0 277 69" fill="none" xmlns="http://www.w3.org/2000/svg">
<path d="M65.5832 41.7957C67.8896 41.7957 69.7017 41.5486 71.0197 41.0544C72.3376 40.5602 73.3878 39.7365 74.1703 38.5833C74.994 37.4301 75.7353 35.9063 76.3943 34.0117C77.0121 34.1765 77.5269 34.3824 77.9387 34.6295C78.3506 34.8354 78.7418 35.1237 79.1125 35.4944C78.6595 36.8947 78.2682 38.4185 77.9387 40.0659C77.6504 41.7133 77.4033 43.2578 77.1974 44.6992C76.4149 44.6581 75.3647 44.6375 74.0468 44.6375C72.77 44.6375 71.3491 44.6169 69.7841 44.5757C68.2603 44.5757 66.7364 44.5757 65.2126 44.5757C64.0594 44.5757 62.7209 44.5757 61.197 44.5757C59.7144 44.5757 58.1905 44.5757 56.6255 44.5757C55.1017 44.6169 53.6808 44.6375 52.3629 44.6375C51.0449 44.6786 49.9947 44.7198 49.2122 44.761C49.2122 44.1844 49.2328 43.6902 49.274 43.2784C49.3152 42.8253 49.3975 42.4341 49.5211 42.1046C50.6331 42.0222 51.498 41.8163 52.1158 41.4868C52.7335 41.1573 53.166 40.5807 53.4131 39.757C53.7014 38.8922 53.8455 37.6566 53.8455 36.0504V10.6599C53.8455 9.25957 53.722 8.18876 53.4749 7.44744C53.2278 6.70611 52.7953 6.1707 52.1775 5.84122C51.5598 5.51174 50.6949 5.32641 49.5829 5.28522C49.4593 4.95574 49.377 4.56448 49.3358 4.11145C49.2946 3.61723 49.274 3.12301 49.274 2.62879C50.0977 2.66998 50.9626 2.71116 51.8686 2.75235C52.8159 2.75235 53.722 2.77294 54.5869 2.81412C55.4517 2.81412 56.1725 2.81412 56.7491 2.81412C57.6551 2.81412 58.52 2.81412 59.3437 2.81412C60.1674 2.77294 60.9705 2.75235 61.753 2.75235C62.5767 2.71116 63.4004 2.66998 64.2241 2.62879C64.2241 3.1642 64.2035 3.65842 64.1624 4.11145C64.1212 4.56448 64.0388 4.95574 63.9153 5.28522C62.8444 5.32641 61.9796 5.51174 61.3206 5.84122C60.7028 6.1707 60.2704 6.7267 60.0233 7.50921C59.7762 8.29173 59.6526 9.40372 59.6526 10.8452V36.0504C59.6526 37.5742 59.7968 38.748 60.085 39.5717C60.3733 40.3954 60.9087 40.972 61.6913 41.3015C62.515 41.631 63.6887 41.7957 65.2126 41.7957H65.5832Z" fill="#8CA1C6"/>
<path d="M82.6073 44.761C82.6073 44.3492 82.6279 43.9167 82.6691 43.4637C82.7102 42.9695 82.7926 42.5164 82.9162 42.1046C84.5636 42.1046 85.6756 41.7339 86.2521 40.9926C86.8699 40.2101 87.1788 38.7892 87.1788 36.73V24.498C87.1788 23.5096 87.0758 22.7065 86.8699 22.0887C86.7052 21.4297 86.2933 20.9355 85.6344 20.606C84.9754 20.2766 83.9458 20.1118 82.5455 20.1118C82.5455 19.6588 82.5867 19.2469 82.6691 18.8763C82.7514 18.5056 82.8956 18.1555 83.1015 17.826C83.7193 17.826 84.5842 17.7231 85.6961 17.5172C86.8493 17.3112 87.9613 17.0435 89.0321 16.7141C90.1029 16.3846 90.8855 16.0551 91.3797 15.7256C91.7503 15.8492 92.0592 16.0963 92.3063 16.4669C92.5946 16.8376 92.7388 17.4142 92.7388 18.1967V36.73C92.7388 38.7892 93.0065 40.2101 93.5419 40.9926C94.1185 41.7339 95.0657 42.1046 96.3836 42.1046C96.5072 42.5164 96.5896 42.9901 96.6308 43.5255C96.6719 44.0609 96.6925 44.4727 96.6925 44.761C95.9924 44.7198 95.2511 44.6786 94.4685 44.6375C93.686 44.6375 92.8829 44.6169 92.0592 44.5757C91.2767 44.5757 90.4942 44.5757 89.7117 44.5757C88.9292 44.5757 88.1055 44.5757 87.2406 44.5757C86.4169 44.6169 85.6138 44.6375 84.8313 44.6375C84.0488 44.6786 83.3074 44.7198 82.6073 44.761ZM89.4646 8.74476C88.4349 8.74476 87.5701 8.39469 86.8699 7.69455C86.1698 6.9944 85.8197 6.15011 85.8197 5.16167C85.8197 4.04967 86.1904 3.1436 86.9317 2.44346C87.673 1.74331 88.5173 1.39324 89.4646 1.39324C90.5766 1.39324 91.462 1.74331 92.121 2.44346C92.8212 3.1436 93.1712 4.04967 93.1712 5.16167C93.1712 6.10892 92.8006 6.95322 92.0592 7.69455C91.3591 8.39469 90.4942 8.74476 89.4646 8.74476Z" fill="#8CA1C6"/>
<path d="M117.93 16.8994C117.93 17.3112 117.889 17.7849 117.807 18.3203C117.725 18.8145 117.56 19.2675 117.313 19.6794C116.118 19.6794 114.986 19.7617 113.915 19.9265C112.885 20.05 111.938 20.256 111.073 20.5443V16.8994H117.93ZM106.069 14.4283C106.069 11.3394 106.687 8.76535 107.923 6.7061C109.199 4.60567 110.826 3.04064 112.803 2.01102C114.78 0.981393 116.839 0.46658 118.981 0.46658C120.587 0.46658 121.802 0.63132 122.626 0.960801C123.449 1.24909 124.191 1.59917 124.85 2.01102C124.767 3.28775 124.705 4.54389 124.664 5.77944C124.623 6.97381 124.602 8.12699 124.602 9.23898C124.067 9.40372 123.49 9.52728 122.873 9.60964C122.255 9.69202 121.658 9.7332 121.081 9.7332C121.081 8.04462 120.71 6.64433 119.969 5.53233C119.228 4.42034 117.992 3.86434 116.262 3.86434C115.15 3.86434 114.244 4.21441 113.544 4.91456C112.885 5.57352 112.391 6.54136 112.062 7.8181C111.773 9.09483 111.629 10.6599 111.629 12.5132V30.8611H106.069V14.4283ZM106.996 16.8994V20.4207C105.966 20.1324 104.916 19.9471 103.845 19.8647C102.774 19.7411 101.868 19.6794 101.127 19.6794C101.127 19.144 101.189 18.6497 101.312 18.1967C101.477 17.7437 101.704 17.3112 101.992 16.8994H106.996ZM111.629 35.4944C111.629 37.2654 111.815 38.6245 112.185 39.5717C112.556 40.4778 113.153 41.1162 113.977 41.4868C114.8 41.8163 115.851 42.0222 117.127 42.1046C117.251 42.4341 117.333 42.8253 117.374 43.2784C117.416 43.6902 117.436 44.1844 117.436 44.761C116.818 44.7198 116.077 44.6786 115.212 44.6375C114.389 44.6375 113.503 44.6169 112.556 44.5757C111.609 44.5757 110.641 44.5757 109.652 44.5757C108.211 44.5757 106.687 44.5757 105.081 44.5757C103.516 44.6169 102.321 44.6787 101.498 44.761C101.498 44.1844 101.518 43.6902 101.559 43.2784C101.601 42.8253 101.683 42.4341 101.807 42.1046C102.919 42.0222 103.783 41.8369 104.401 41.5486C105.019 41.2191 105.451 40.6837 105.699 39.9424C105.946 39.1599 106.069 38.0891 106.069 36.73V30.5522H111.629V35.4944Z" fill="#8CA1C6"/>
<path d="M135.586 45.1317C132.662 45.1317 130.232 44.4727 128.297 43.1548C126.361 41.8369 124.899 40.0659 123.91 37.8419C122.963 35.5768 122.489 33.1057 122.489 30.4286C122.489 27.7928 123.004 25.3629 124.034 23.1389C125.064 20.9149 126.526 19.1234 128.42 17.7643C130.356 16.4052 132.642 15.7256 135.277 15.7256C137.954 15.7256 140.096 16.3022 141.702 17.4554C143.35 18.6086 144.565 20.153 145.347 22.0887C146.171 24.0244 146.665 26.166 146.83 28.5135C146.665 29.3372 146.356 30.0374 145.903 30.614C145.203 30.614 144.153 30.614 142.752 30.614C141.352 30.614 139.767 30.6346 137.996 30.6758C136.225 30.6758 134.412 30.7169 132.559 30.7993C130.706 30.8405 128.955 30.9023 127.308 30.9846V27.834H140.405C140.405 25.1158 139.911 22.9124 138.922 21.2238C137.934 19.5352 136.534 18.6909 134.721 18.6909C133.733 18.6909 132.765 18.9998 131.818 19.6176C130.871 20.1942 130.088 21.2444 129.47 22.7682C128.853 24.2509 128.544 26.3719 128.544 29.1313C128.544 31.1494 128.791 33.1263 129.285 35.062C129.82 36.9565 130.726 38.5421 132.003 39.8188C133.321 41.0544 135.174 41.6721 137.563 41.6721C138.922 41.6721 140.261 41.3633 141.579 40.7455C142.897 40.1277 144.07 39.2422 145.1 38.0891C145.429 38.2538 145.738 38.5421 146.027 38.9539C146.356 39.3246 146.541 39.6747 146.583 40.0042C145.182 41.8575 143.556 43.1754 141.702 43.9579C139.89 44.7404 137.851 45.1317 135.586 45.1317Z" fill="#8CA1C6"/>
<path d="M171.209 17.8878C171.168 18.8763 171.127 19.9265 171.086 21.0385C171.086 22.1505 171.168 23.2419 171.333 24.3127C170.921 24.5598 170.447 24.7451 169.912 24.8687C169.376 24.9922 168.82 25.054 168.244 25.054C168.161 23.9008 167.811 22.8094 167.194 21.7798C166.617 20.7502 165.835 19.9059 164.846 19.2469C163.858 18.588 162.684 18.2585 161.325 18.2585C160.048 18.2585 159.018 18.5674 158.236 19.1852C157.495 19.8029 157.124 20.6266 157.124 21.6563C157.124 22.3564 157.268 22.9742 157.556 23.5096C157.886 24.045 158.565 24.6216 159.595 25.2393C160.666 25.8159 162.293 26.5367 164.475 27.4016C166.699 28.2253 168.45 29.049 169.727 29.8727C171.003 30.6964 171.909 31.623 172.445 32.6526C172.98 33.6823 173.248 34.9384 173.248 36.4211C173.248 38.1508 172.754 39.6747 171.765 40.9926C170.777 42.3105 169.418 43.3401 167.688 44.0815C165.999 44.7816 164.084 45.1317 161.943 45.1317C159.471 45.1317 157.495 44.9464 156.012 44.5757C154.57 44.1638 153.15 43.5872 151.749 42.8459C151.832 42.187 151.873 41.3839 151.873 40.4366C151.914 39.4893 151.935 38.5421 151.935 37.5948C151.935 36.6476 151.893 35.8445 151.811 35.1855C152.141 34.9384 152.594 34.7737 153.17 34.6913C153.788 34.5677 154.406 34.506 155.023 34.506C155.353 37.1006 156.156 39.0363 157.433 40.313C158.71 41.5898 160.419 42.2281 162.56 42.2281C164.249 42.2281 165.546 41.8575 166.452 41.1161C167.4 40.3748 167.873 39.4276 167.873 38.2744C167.873 37.5331 167.688 36.8947 167.317 36.3593C166.988 35.8239 166.349 35.2885 165.402 34.7531C164.455 34.2177 163.055 33.5793 161.201 32.838C158.977 31.9319 157.186 31.0876 155.827 30.3051C154.509 29.5226 153.541 28.5959 152.923 27.5251C152.346 26.4543 152.058 25.0952 152.058 23.4478C152.058 22.1299 152.388 20.9973 153.047 20.05C153.706 19.0616 154.55 18.2585 155.579 17.6407C156.65 16.9818 157.783 16.5081 158.977 16.2198C160.172 15.8904 161.284 15.7256 162.313 15.7256C164.167 15.7256 165.793 15.9109 167.194 16.2816C168.594 16.6523 169.932 17.1877 171.209 17.8878Z" fill="#8CA1C6"/>
<path d="M188.552 45.1317C186.122 45.1317 184.31 44.5139 183.116 43.2784C181.963 42.0016 181.386 39.963 181.386 37.1624V20.4207C180.768 20.2148 180.13 20.05 179.471 19.9265C178.812 19.7617 177.968 19.6588 176.938 19.6176C176.938 19.0822 176.979 18.6292 177.062 18.2585C177.144 17.8466 177.288 17.3936 177.494 16.8994H181.386V8.74476C182.21 8.53883 183.013 8.20936 183.795 7.75632C184.619 7.30329 185.34 6.80907 185.958 6.27366C186.369 6.4384 186.637 6.68551 186.761 7.01499C186.884 7.34447 186.946 8.16817 186.946 9.48609V16.8994H194.977C194.977 17.3112 194.936 17.7643 194.854 18.2585C194.771 18.7115 194.627 19.1646 194.421 19.6176C192.938 19.6588 191.579 19.7617 190.344 19.9265C189.108 20.05 187.976 20.2148 186.946 20.4207V35.8651C186.946 37.2242 187.09 38.3568 187.378 39.2628C187.667 40.1277 188.079 40.7661 188.614 41.1779C189.149 41.5898 189.788 41.7957 190.529 41.7957C191.394 41.7957 192.135 41.6721 192.753 41.425C193.412 41.1779 194.03 40.8073 194.606 40.313C195.142 40.9308 195.451 41.6104 195.533 42.3517C194.874 43.1342 193.865 43.7932 192.506 44.3286C191.188 44.864 189.87 45.1317 188.552 45.1317Z" fill="#8CA1C6"/>
<path d="M220.774 26.166C221.845 23.5302 222.092 21.7386 221.516 20.7914C220.98 19.8029 219.807 19.144 217.994 18.8145C217.83 18.3615 217.706 17.929 217.624 17.5172C217.583 17.0641 217.562 16.6111 217.562 16.1581C218.509 16.1992 219.477 16.2404 220.466 16.2816C221.454 16.2816 222.525 16.2816 223.678 16.2816C224.831 16.2816 225.923 16.2816 226.952 16.2816C227.982 16.2404 228.95 16.1992 229.856 16.1581C229.856 16.5699 229.835 17.0023 229.794 17.4554C229.794 17.9084 229.691 18.3615 229.485 18.8145C228.744 18.9792 228.105 19.2675 227.57 19.6794C227.076 20.0912 226.602 20.7296 226.149 21.5945C225.696 22.4594 225.14 23.6743 224.481 25.2393L215.4 46.8615C214.247 49.662 213.196 51.9272 212.249 53.657C211.343 55.3867 210.478 56.7047 209.655 57.6107C208.872 58.5168 208.069 59.1346 207.245 59.4641C206.463 59.7935 205.598 59.9583 204.651 59.9583C203.415 59.9583 202.427 59.7935 201.685 59.4641C200.985 59.1346 200.429 58.8257 200.017 58.5374C199.853 57.9196 199.791 57.1371 199.832 56.1899C199.873 55.2838 199.955 54.563 200.079 54.0276C200.779 54.1512 201.459 54.2336 202.118 54.2747C202.777 54.3571 203.415 54.3983 204.033 54.3983C205.227 54.3983 206.36 54.11 207.431 53.5334C208.543 52.9568 209.49 52.0302 210.272 50.7534C210.849 49.8885 211.714 48.1794 212.867 45.6259C214.02 43.1136 215.235 40.2101 216.512 36.9153L220.774 26.166ZM213.547 45.873C212.558 43.6902 211.508 41.4044 210.396 39.0157C209.325 36.5858 208.295 34.2589 207.307 32.0349C206.319 29.8109 205.454 27.937 204.712 26.4131C203.765 24.3539 202.962 22.8094 202.303 21.7798C201.685 20.7502 201.088 20.0294 200.511 19.6176C199.976 19.2057 199.358 18.938 198.658 18.8145C198.535 18.4438 198.432 18.032 198.349 17.5789C198.308 17.1259 198.287 16.6523 198.287 16.1581C199.482 16.1992 200.676 16.2404 201.871 16.2816C203.065 16.2816 204.198 16.2816 205.268 16.2816C206.339 16.2816 207.657 16.2816 209.222 16.2816C210.787 16.2404 212.208 16.1992 213.485 16.1581C213.485 16.6935 213.444 17.1877 213.361 17.6407C213.32 18.0526 213.217 18.4438 213.052 18.8145C210.828 19.1852 209.552 19.8441 209.222 20.7914C208.893 21.6974 209.284 23.3036 210.396 25.61C210.972 26.8044 211.631 28.2458 212.373 29.9344C213.114 31.5818 213.835 33.2498 214.535 34.9384C215.235 36.5858 215.832 38.0479 216.327 39.3246L213.547 45.873Z" fill="#8CA1C6"/>
<path d="M233.007 44.761C233.007 44.3492 233.028 43.9167 233.069 43.4637C233.11 42.9695 233.193 42.5164 233.316 42.1046C234.964 42.1046 236.076 41.7339 236.652 40.9926C237.27 40.2101 237.579 38.7892 237.579 36.73V9.05365C237.579 8.06521 237.476 7.2621 237.27 6.64433C237.105 5.98537 236.693 5.49115 236.034 5.16167C235.376 4.83219 234.346 4.66745 232.946 4.66745C232.946 4.21441 232.987 3.80257 233.069 3.4319C233.152 3.06124 233.296 2.71116 233.502 2.38168C234.119 2.38168 234.984 2.27872 236.096 2.0728C237.249 1.86687 238.361 1.59917 239.432 1.26969C240.503 0.940207 241.286 0.610728 241.78 0.28125C242.15 0.404803 242.459 0.651912 242.706 1.02258C242.995 1.39324 243.139 1.96983 243.139 2.75235V36.73C243.139 38.7892 243.407 40.2101 243.942 40.9926C244.519 41.7339 245.466 42.1046 246.784 42.1046C246.907 42.5164 246.99 42.9901 247.031 43.5255C247.072 44.0609 247.093 44.4727 247.093 44.761C246.393 44.7198 245.651 44.6786 244.869 44.6375C244.086 44.6375 243.283 44.6169 242.459 44.5757C241.677 44.5757 240.894 44.5757 240.112 44.5757C239.329 44.5757 238.506 44.5757 237.641 44.5757C236.817 44.6169 236.014 44.6375 235.231 44.6375C234.449 44.6786 233.708 44.7198 233.007 44.761Z" fill="#8CA1C6"/>
<path d="M264.812 45.1317C261.888 45.1317 259.458 44.4727 257.522 43.1548C255.587 41.8369 254.125 40.0659 253.136 37.8419C252.189 35.5768 251.715 33.1057 251.715 30.4286C251.715 27.7928 252.23 25.3629 253.26 23.1389C254.289 20.9149 255.751 19.1234 257.646 17.7643C259.582 16.4052 261.867 15.7256 264.503 15.7256C267.18 15.7256 269.322 16.3022 270.928 17.4554C272.576 18.6086 273.79 20.153 274.573 22.0887C275.397 24.0244 275.891 26.166 276.056 28.5135C275.891 29.3372 275.582 30.0374 275.129 30.614C274.429 30.614 273.379 30.614 271.978 30.614C270.578 30.614 268.992 30.6346 267.221 30.6758C265.451 30.6758 263.638 30.7169 261.785 30.7993C259.932 30.8405 258.181 30.9023 256.534 30.9846V27.834H269.631C269.631 25.1158 269.137 22.9124 268.148 21.2238C267.16 19.5352 265.759 18.6909 263.947 18.6909C262.959 18.6909 261.991 18.9998 261.044 19.6176C260.096 20.1942 259.314 21.2444 258.696 22.7682C258.078 24.2509 257.77 26.3719 257.77 29.1313C257.77 31.1494 258.017 33.1263 258.511 35.062C259.046 36.9565 259.952 38.5421 261.229 39.8188C262.547 41.0544 264.4 41.6721 266.789 41.6721C268.148 41.6721 269.487 41.3633 270.805 40.7455C272.122 40.1277 273.296 39.2422 274.326 38.0891C274.655 38.2538 274.964 38.5421 275.253 38.9539C275.582 39.3246 275.767 39.6747 275.809 40.0042C274.408 41.8575 272.781 43.1754 270.928 43.9579C269.116 44.7404 267.077 45.1317 264.812 45.1317Z" fill="#8CA1C6"/>
<path d="M3.64333 13.687V4.58966H0.0556641V2.47549H9.82565V4.58966H6.23799V13.687H3.64333Z" fill="#8CA1C6"/>
<path d="M20.5112 2.47549H23.1059V13.687H20.5112V2.47549ZM15.418 13.687H12.8233V2.47549H15.418V13.687ZM20.7034 9.09026H15.2258V6.89601H20.7034V9.09026Z" fill="#8CA1C6"/>
<path d="M29.7465 6.99211H35.144V9.01018H29.7465V6.99211ZM29.9387 11.6048H36.041V13.687H27.3601V2.47549H35.8327V4.55762H29.9387V11.6048Z" fill="#8CA1C6"/>
<path d="M51.6581 68.6003V57.3888H56.7514C57.9686 57.3888 59.0417 57.6237 59.9706 58.0935C60.8996 58.5526 61.6257 59.1986 62.1489 60.0315C62.6721 60.8643 62.9337 61.852 62.9337 62.9945C62.9337 64.1263 62.6721 65.114 62.1489 65.9576C61.6257 66.7904 60.8996 67.4417 59.9706 67.9116C59.0417 68.3707 57.9686 68.6003 56.7514 68.6003H51.6581ZM54.2528 66.4701H56.6232C57.3707 66.4701 58.0166 66.3313 58.5612 66.0537C59.1164 65.7654 59.5435 65.3596 59.8425 64.8364C60.1522 64.3132 60.307 63.6992 60.307 62.9945C60.307 62.2791 60.1522 61.6652 59.8425 61.1526C59.5435 60.6294 59.1164 60.229 58.5612 59.9514C58.0166 59.6631 57.3707 59.519 56.6232 59.519H54.2528V66.4701Z" fill="#8CA1C6"/>
<path d="M66.4921 68.6003V57.3888H69.0867V68.6003H66.4921Z" fill="#8CA1C6"/>
<path d="M75.7355 61.9054H81.133V63.9235H75.7355V61.9054ZM75.9277 66.5181H82.0299V68.6003H73.3491V57.3888H81.8217V59.4709H75.9277V66.5181Z" fill="#8CA1C6"/>
<path d="M88.0185 68.6003V59.503H84.4308V57.3888H94.2008V59.503H90.6131V68.6003H88.0185Z" fill="#8CA1C6"/>
<path d="M97.1985 68.6003V57.3888H99.7931V68.6003H97.1985Z" fill="#8CA1C6"/>
<path d="M106.378 68.6003V59.503H102.79V57.3888H112.56V59.503H108.973V68.6003H106.378Z" fill="#8CA1C6"/>
<path d="M115.558 68.6003V57.3888H118.153V68.6003H115.558Z" fill="#8CA1C6"/>
<path d="M120.941 68.6003L125.938 57.3888H128.501L133.514 68.6003H130.791L126.691 58.7021H127.716L123.6 68.6003H120.941ZM123.44 66.1978L124.129 64.2278H129.895L130.599 66.1978H123.44Z" fill="#8CA1C6"/>
<path d="M136.279 68.6003V57.3888H138.425L145.04 65.461H143.999V57.3888H146.562V68.6003H144.431L137.801 60.528H138.842V68.6003H136.279Z" fill="#8CA1C6"/>
</svg>
