<svg width="276" height="163" viewBox="0 0 276 163" fill="none" xmlns="http://www.w3.org/2000/svg">
<path d="M18.7761 7.65525C17.6726 4.6897 15.5864 3.20693 12.5174 3.20693C10.9311 3.20693 9.63803 3.67245 8.63802 4.60349C7.63801 5.53454 7.138 6.62076 7.138 7.86215C7.138 9.13803 7.51732 10.1898 8.27595 11.0174C9.06906 11.8105 10.0518 12.5346 11.2243 13.1898C12.3967 13.845 13.6553 14.4829 15.0002 15.1036C16.345 15.6898 17.6036 16.4312 18.7761 17.3278C19.9485 18.1898 20.914 19.2588 21.6726 20.5347C22.4657 21.7761 22.8623 23.3796 22.8623 25.3451C22.8623 27.0692 22.5347 28.6555 21.8795 30.1038C21.2244 31.5176 20.2933 32.7417 19.0864 33.7762C17.8795 34.7762 16.4312 35.5521 14.7415 36.1038C13.0863 36.6211 11.2243 36.8797 9.15527 36.8797C7.29318 36.8797 5.62075 36.6728 4.13797 36.259C2.68968 35.8797 1.58622 35.3969 0.827595 34.8107C1.17243 33.6038 1.46553 32.5003 1.70691 31.5003C1.9483 30.5003 2.15519 29.4141 2.32761 28.2417H3.31038C3.44831 29.0003 3.70693 29.7244 4.08625 30.4141C4.46556 31.0693 4.94833 31.6555 5.53454 32.1727C6.12075 32.69 6.82766 33.1038 7.65525 33.4141C8.48285 33.69 9.41389 33.8279 10.4484 33.8279C12.5174 33.8279 14.0346 33.3107 15.0002 32.2762C16.0002 31.2417 16.5002 30.0003 16.5002 28.552C16.5002 27.2417 16.1209 26.1727 15.3622 25.3451C14.6036 24.5175 13.6553 23.7933 12.5174 23.1727C11.3794 22.5175 10.138 21.8968 8.79319 21.3106C7.44835 20.6899 6.20696 19.9485 5.06902 19.0864C3.93107 18.2243 2.98279 17.1726 2.22416 15.9312C1.46553 14.6553 1.08622 13.0346 1.08622 11.0691C1.08622 9.27596 1.39657 7.68973 2.01726 6.31041C2.67244 4.93108 3.53452 3.7759 4.6035 2.84486C5.67247 1.91381 6.89662 1.20691 8.27595 0.724145C9.68975 0.241382 11.1725 0 12.7243 0C14.5864 0 16.2071 0.224139 17.5864 0.672418C19.0002 1.1207 20.2071 1.7414 21.2071 2.53451C20.8968 3.32762 20.6209 4.10349 20.3795 4.86212C20.1726 5.58626 19.8968 6.51731 19.5519 7.65525H18.7761Z" fill="#8CA1C6"/>
<path d="M35.4831 9.10354C35.4831 8.10353 35.4659 7.18973 35.4314 6.36213C35.4314 5.53454 35.3969 4.93108 35.3279 4.55177C34.8107 4.55177 34.1728 4.56901 33.4141 4.60349C32.6555 4.63798 31.8452 4.6897 30.9831 4.75867C30.121 4.79315 29.2417 4.86212 28.3451 4.96557C27.4486 5.03453 26.621 5.12074 25.8623 5.22419C25.9313 4.84488 25.983 4.46556 26.0175 4.08625C26.0865 3.70693 26.121 3.32762 26.121 2.94831C26.121 2.56899 26.0865 2.18968 26.0175 1.81036C25.983 1.43105 25.9313 1.05173 25.8623 0.672418C27.0348 0.706903 28.0865 0.741387 29.0175 0.775869C29.9831 0.810352 30.9486 0.844835 31.9141 0.879317C32.9141 0.879317 33.9831 0.89656 35.121 0.931044C36.2935 0.931044 37.69 0.931044 39.3107 0.931044C40.9315 0.931044 42.3108 0.931044 43.4487 0.931044C44.6211 0.89656 45.6901 0.879317 46.6557 0.879317C47.6212 0.844835 48.5522 0.810352 49.4488 0.775869C50.3798 0.741387 51.3798 0.706903 52.4488 0.672418C52.3798 1.05173 52.3109 1.43105 52.2419 1.81036C52.2074 2.18968 52.1902 2.56899 52.1902 2.94831C52.1902 3.32762 52.2074 3.70693 52.2419 4.08625C52.3109 4.46556 52.3798 4.84488 52.4488 5.22419C51.7592 5.12074 50.9833 5.03453 50.1212 4.96557C49.2591 4.86212 48.397 4.79315 47.535 4.75867C46.7074 4.6897 45.9143 4.63798 45.1556 4.60349C44.397 4.56901 43.7591 4.55177 43.2418 4.55177C43.2073 4.72419 43.1729 4.96557 43.1384 5.27592C43.1384 5.58626 43.1384 5.94834 43.1384 6.36213V22.0347C43.1384 24.8968 43.1729 27.4486 43.2418 29.69C43.3108 31.8969 43.4142 34.0693 43.5522 36.2073C42.966 36.1383 42.328 36.1038 41.6384 36.1038C40.9487 36.1038 40.1728 36.1038 39.3107 36.1038C38.4487 36.1038 37.6728 36.1038 36.9831 36.1038C36.2935 36.1038 35.6555 36.1383 35.0693 36.2073C35.2073 34.0693 35.3107 31.8969 35.3797 29.69C35.4486 27.4486 35.4831 24.8968 35.4831 22.0347V9.10354Z" fill="#8CA1C6"/>
<path d="M57.6556 15.0002C57.6556 12.1381 57.6211 9.60355 57.5522 7.39663C57.4832 5.15523 57.3798 2.91382 57.2418 0.672418C58.7936 0.706903 60.3281 0.758628 61.8453 0.827593C63.3626 0.896561 64.8971 0.931044 66.4488 0.931044C69.0006 0.931044 71.2592 0.913802 73.2248 0.879317C75.2248 0.810352 76.5696 0.741386 77.2593 0.672418C77.1213 1.22415 77.0524 1.9483 77.0524 2.84486C77.0524 3.39659 77.0696 3.82762 77.1041 4.13797C77.1386 4.44832 77.1903 4.79315 77.2593 5.17247C76.2593 5.1035 75.1558 5.03453 73.9489 4.96557C72.7765 4.8966 71.6213 4.82764 70.4833 4.75867C69.3799 4.6897 68.3799 4.63798 67.4833 4.60349C66.5868 4.56901 65.9488 4.55177 65.5695 4.55177C65.4316 6.44834 65.3454 8.32767 65.3109 10.1898C65.3109 12.0518 65.3109 13.9312 65.3109 15.8277C67.5523 15.7933 69.5695 15.7415 71.3627 15.6726C73.1903 15.6036 75.0868 15.5174 77.0524 15.414C76.9489 16.0002 76.88 16.4484 76.8455 16.7588C76.811 17.0691 76.7938 17.3967 76.7938 17.7416C76.7938 18.0174 76.811 18.3105 76.8455 18.6209C76.9144 18.8967 76.9834 19.3105 77.0524 19.8623C73.1213 19.5519 69.2075 19.3968 65.3109 19.3968C65.3109 20.5002 65.2936 21.6037 65.2592 22.7071C65.2592 23.8106 65.2592 24.914 65.2592 26.0175C65.2592 28.2589 65.3109 30.4141 65.4143 32.4831C67.3799 32.4831 69.3454 32.4314 71.3109 32.3279C73.2765 32.2245 75.2593 32.0521 77.2593 31.8107C77.1903 32.19 77.1386 32.5348 77.1041 32.8452C77.0696 33.1555 77.0524 33.5866 77.0524 34.1383C77.0524 34.69 77.0696 35.1211 77.1041 35.4314C77.1386 35.7417 77.1903 36.0004 77.2593 36.2073C76.3282 36.1728 75.1731 36.1383 73.7937 36.1038C72.4489 36.1038 70.5868 36.1038 68.2075 36.1038C66.104 36.1038 64.3971 36.1038 63.0867 36.1038C61.8108 36.1038 60.7763 36.1038 59.9832 36.1038C59.2246 36.1038 58.6384 36.1038 58.2246 36.1038C57.8453 36.1383 57.5177 36.1728 57.2418 36.2073C57.3798 34.0693 57.4832 31.8969 57.5522 29.69C57.6211 27.4486 57.6556 24.8968 57.6556 22.0347V15.0002Z" fill="#8CA1C6"/>
<path d="M98.9319 10.6036C98.9319 9.2932 98.7767 8.18974 98.4664 7.29318C98.1905 6.39662 97.794 5.68971 97.2767 5.17247C96.794 4.62074 96.2077 4.22418 95.5181 3.9828C94.8629 3.74142 94.1732 3.62073 93.4491 3.62073H92.2594C92.087 3.62073 91.9146 3.62073 91.7422 3.62073C91.5698 3.62073 91.4146 3.63797 91.2767 3.67245C91.2422 6.15524 91.2077 8.60354 91.1732 11.0174C91.1732 13.3967 91.1732 15.7933 91.1732 18.2071C92.0353 18.2071 92.9146 18.1209 93.8112 17.9485C94.7422 17.776 95.5871 17.4312 96.3457 16.914C97.1043 16.3622 97.725 15.5864 98.2078 14.5864C98.6905 13.5863 98.9319 12.2587 98.9319 10.6036ZM83.518 15.0002C83.518 12.1381 83.4835 9.60355 83.4145 7.39663C83.3455 5.15523 83.2421 2.91382 83.1042 0.672418C83.6904 0.741386 84.3283 0.810352 85.018 0.879317C85.7076 0.913802 86.4835 0.931044 87.3456 0.931044C88.5525 0.931044 89.7939 0.896561 91.0698 0.827593C92.3801 0.724143 93.656 0.672418 94.8974 0.672418C97.3457 0.672418 99.2595 0.862076 100.639 1.24139C102.018 1.58622 103.104 2.10347 103.897 2.79313C105.001 3.68969 105.811 4.6897 106.329 5.79316C106.846 6.89662 107.104 8.22422 107.104 9.77596C107.104 11.7415 106.777 13.4312 106.122 14.845C105.466 16.2588 104.535 17.414 103.329 18.3105C102.156 19.1726 100.76 19.8105 99.1388 20.2243C97.5181 20.6381 95.7422 20.845 93.8112 20.845H91.1732C91.1732 23.4313 91.1905 26.0175 91.2249 28.6037C91.2939 31.1555 91.4146 33.69 91.587 36.2073C91.0008 36.1383 90.3629 36.1038 89.6732 36.1038C88.9835 36.1038 88.2077 36.1038 87.3456 36.1038C86.4835 36.1038 85.7076 36.1038 85.018 36.1038C84.3283 36.1038 83.6904 36.1383 83.1042 36.2073C83.2421 34.0693 83.3455 31.8969 83.4145 29.69C83.4835 27.4486 83.518 24.8968 83.518 22.0347V15.0002Z" fill="#8CA1C6"/>
<path d="M136.105 19.0864C134.794 19.0519 133.484 19.0174 132.173 18.983C130.863 18.914 129.553 18.8795 128.242 18.8795C126.932 18.8795 125.622 18.8967 124.311 18.9312C123.001 18.9657 121.691 19.0174 120.38 19.0864V22.0347C120.38 24.8968 120.415 27.4486 120.484 29.69C120.553 31.8969 120.656 34.0693 120.794 36.2073C120.208 36.1383 119.57 36.1038 118.88 36.1038C118.191 36.1038 117.415 36.1038 116.553 36.1038C115.691 36.1038 114.915 36.1038 114.225 36.1038C113.535 36.1038 112.897 36.1383 112.311 36.2073C112.449 34.0693 112.553 31.8969 112.622 29.69C112.691 27.4486 112.725 24.8968 112.725 22.0347V15.0002C112.725 12.1381 112.691 9.60355 112.622 7.39663C112.553 5.15523 112.449 2.91382 112.311 0.672418C112.897 0.741386 113.535 0.810352 114.225 0.879317C114.915 0.913802 115.691 0.931044 116.553 0.931044C117.415 0.931044 118.191 0.913802 118.88 0.879317C119.57 0.810352 120.208 0.741386 120.794 0.672418C120.622 2.91382 120.501 5.13798 120.432 7.3449C120.398 9.51734 120.38 12.0346 120.38 14.8967C121.277 14.9312 122.346 14.9657 123.587 15.0002C124.863 15.0002 126.432 15.0002 128.294 15.0002C130.156 15.0002 131.673 15.0002 132.846 15.0002C134.018 14.9657 135.105 14.9312 136.105 14.8967C136.105 12.0346 136.07 9.51734 136.001 7.3449C135.932 5.13798 135.829 2.91382 135.691 0.672418C136.277 0.741386 136.915 0.810352 137.605 0.879317C138.294 0.913802 139.07 0.931044 139.932 0.931044C140.794 0.931044 141.57 0.913802 142.26 0.879317C142.949 0.810352 143.587 0.741386 144.174 0.672418C144.036 2.91382 143.932 5.15523 143.863 7.39663C143.794 9.60355 143.76 12.1381 143.76 15.0002V22.0347C143.76 24.8968 143.794 27.4486 143.863 29.69C143.932 31.8969 144.036 34.0693 144.174 36.2073C143.587 36.1383 142.949 36.1038 142.26 36.1038C141.57 36.1038 140.794 36.1038 139.932 36.1038C139.07 36.1038 138.294 36.1038 137.605 36.1038C136.915 36.1038 136.277 36.1383 135.691 36.2073C135.829 34.0693 135.932 31.8969 136.001 29.69C136.07 27.4486 136.105 24.8968 136.105 22.0347V19.0864Z" fill="#8CA1C6"/>
<path d="M163.846 10.3967C162.949 12.4656 162.104 14.5174 161.311 16.5519C160.518 18.5519 159.742 20.6037 158.983 22.7071H168.449C167.69 20.6037 166.932 18.5519 166.173 16.5519C165.449 14.5174 164.673 12.4656 163.846 10.3967ZM182.156 36.2073C181.329 36.1383 180.535 36.1038 179.777 36.1038C179.053 36.1038 178.328 36.1038 177.604 36.1038C176.88 36.1038 176.139 36.1038 175.38 36.1038C174.656 36.1038 173.932 36.1383 173.208 36.2073C172.656 34.5176 172.087 32.7934 171.501 31.0348C170.915 29.2762 170.294 27.5175 169.639 25.7589C168.535 25.7244 167.432 25.7072 166.328 25.7072C165.225 25.6727 164.121 25.6554 163.018 25.6554C162.121 25.6554 161.225 25.6727 160.328 25.7072C159.432 25.7072 158.535 25.7244 157.639 25.7589C156.949 27.5175 156.311 29.2762 155.725 31.0348C155.139 32.7934 154.604 34.5176 154.121 36.2073C153.708 36.1383 153.294 36.1038 152.88 36.1038C152.501 36.1038 152.104 36.1038 151.69 36.1038C151.276 36.1038 150.863 36.1038 150.449 36.1038C150.035 36.1038 149.587 36.1383 149.104 36.2073C149.518 35.3107 150.07 34.0693 150.759 32.4831C151.449 30.8969 152.208 29.1037 153.035 27.1037C153.863 25.1037 154.742 22.9658 155.673 20.6899C156.639 18.3795 157.587 16.0519 158.518 13.707C159.483 11.3622 160.415 9.05182 161.311 6.77593C162.242 4.50005 163.087 2.37933 163.846 0.413795C164.19 0.482762 164.518 0.551729 164.828 0.620694C165.139 0.655177 165.466 0.672418 165.811 0.672418C166.156 0.672418 166.484 0.655177 166.794 0.620694C167.104 0.551729 167.432 0.482762 167.777 0.413795C168.88 3.34486 170.053 6.48282 171.294 9.82769C172.57 13.1725 173.846 16.4657 175.122 19.7071C176.397 22.914 177.639 25.9658 178.846 28.8624C180.053 31.7589 181.156 34.2072 182.156 36.2073Z" fill="#8CA1C6"/>
<path d="M187.949 10.9656C187.949 8.58629 187.914 6.58627 187.845 4.96557C187.776 3.34486 187.725 1.91381 187.69 0.672418C188.656 0.844836 189.432 0.931044 190.018 0.931044C190.604 0.931044 191.38 0.844836 192.345 0.672418C196.104 4.84488 199.811 8.94837 203.466 12.9829C207.156 17.0174 210.932 21.1209 214.794 25.2934V15.776C214.794 14.0864 214.777 12.4312 214.742 10.8105C214.742 9.15527 214.725 7.63801 214.691 6.25868C214.691 4.87936 214.656 3.68969 214.587 2.68968C214.553 1.68967 214.501 1.01725 214.432 0.672418C215.397 0.844836 216.173 0.931044 216.759 0.931044C217.346 0.931044 218.122 0.844836 219.087 0.672418C218.915 3.81038 218.777 6.65524 218.673 9.20699C218.57 11.7243 218.484 14.1036 218.415 16.345C218.346 18.5864 218.294 20.8106 218.26 23.0175C218.26 25.1899 218.26 27.5175 218.26 30.0003V36.2073C217.57 36.1383 216.863 36.1038 216.139 36.1038C215.38 36.1038 214.708 36.1383 214.122 36.2073C207.018 27.9313 199.483 19.6036 191.518 11.2243C191.483 12.2243 191.449 13.2243 191.414 14.2243C191.414 15.2243 191.414 16.2415 191.414 17.276V23.2761C191.414 25.3451 191.414 27.1037 191.414 28.552C191.449 30.0003 191.483 31.2245 191.518 32.2245C191.552 33.2245 191.587 34.0521 191.621 34.7073C191.656 35.3279 191.69 35.828 191.725 36.2073C191.311 36.1383 190.897 36.1038 190.483 36.1038C190.07 36.1038 189.673 36.1038 189.294 36.1038C188.501 36.1038 187.707 36.1383 186.914 36.2073C186.983 35.9314 187.07 34.9486 187.173 33.259C187.276 31.5693 187.38 29.5175 187.483 27.1037C187.621 24.6554 187.725 22.0175 187.794 19.1899C187.897 16.3278 187.949 13.5863 187.949 10.9656Z" fill="#8CA1C6"/>
<path d="M227.949 15.0002C227.949 12.1381 227.914 9.60355 227.845 7.39663C227.776 5.15523 227.673 2.91382 227.535 0.672418C228.121 0.741386 228.759 0.810352 229.449 0.879317C230.138 0.913802 230.914 0.931044 231.776 0.931044C232.638 0.931044 233.414 0.913802 234.104 0.879317C234.793 0.810352 235.431 0.741386 236.018 0.672418C235.88 2.91382 235.776 5.15523 235.707 7.39663C235.638 9.60355 235.604 12.1381 235.604 15.0002V22.0347C235.604 24.8968 235.638 27.4486 235.707 29.69C235.776 31.8969 235.88 34.0693 236.018 36.2073C235.431 36.1383 234.793 36.1038 234.104 36.1038C233.414 36.1038 232.638 36.1038 231.776 36.1038C230.914 36.1038 230.138 36.1038 229.449 36.1038C228.759 36.1038 228.121 36.1383 227.535 36.2073C227.673 34.0693 227.776 31.8969 227.845 29.69C227.914 27.4486 227.949 24.8968 227.949 22.0347V15.0002Z" fill="#8CA1C6"/>
<path d="M244.501 15.0002C244.501 12.1381 244.466 9.60355 244.397 7.39663C244.328 5.15523 244.225 2.91382 244.087 0.672418C245.639 0.706903 247.173 0.758628 248.691 0.827593C250.208 0.896561 251.742 0.931044 253.294 0.931044C255.846 0.931044 258.104 0.913802 260.07 0.879317C262.07 0.810352 263.415 0.741386 264.105 0.672418C263.967 1.22415 263.898 1.9483 263.898 2.84486C263.898 3.39659 263.915 3.82762 263.949 4.13797C263.984 4.44832 264.036 4.79315 264.105 5.17247C263.105 5.1035 262.001 5.03453 260.794 4.96557C259.622 4.8966 258.467 4.82764 257.329 4.75867C256.225 4.6897 255.225 4.63798 254.329 4.60349C253.432 4.56901 252.794 4.55177 252.415 4.55177C252.277 6.44834 252.191 8.32767 252.156 10.1898C252.156 12.0518 252.156 13.9312 252.156 15.8277C254.398 15.7933 256.415 15.7415 258.208 15.6726C260.036 15.6036 261.932 15.5174 263.898 15.414C263.794 16.0002 263.725 16.4484 263.691 16.7588C263.656 17.0691 263.639 17.3967 263.639 17.7416C263.639 18.0174 263.656 18.3105 263.691 18.6209C263.76 18.8967 263.829 19.3105 263.898 19.8623C259.967 19.5519 256.053 19.3968 252.156 19.3968C252.156 20.5002 252.139 21.6037 252.104 22.7071C252.104 23.8106 252.104 24.914 252.104 26.0175C252.104 28.2589 252.156 30.4141 252.26 32.4831C254.225 32.4831 256.191 32.4314 258.156 32.3279C260.122 32.2245 262.105 32.0521 264.105 31.8107C264.036 32.19 263.984 32.5348 263.949 32.8452C263.915 33.1555 263.898 33.5866 263.898 34.1383C263.898 34.69 263.915 35.1211 263.949 35.4314C263.984 35.7417 264.036 36.0004 264.105 36.2073C263.174 36.1728 262.018 36.1383 260.639 36.1038C259.294 36.1038 257.432 36.1038 255.053 36.1038C252.949 36.1038 251.242 36.1038 249.932 36.1038C248.656 36.1038 247.622 36.1038 246.829 36.1038C246.07 36.1038 245.484 36.1038 245.07 36.1038C244.691 36.1383 244.363 36.1728 244.087 36.2073C244.225 34.0693 244.328 31.8969 244.397 29.69C244.466 27.4486 244.501 24.8968 244.501 22.0347V15.0002Z" fill="#8CA1C6"/>
<path d="M9.62079 71.9121C9.62079 70.9121 9.60355 69.9983 9.56906 69.1707C9.56906 68.3431 9.53458 67.7396 9.46561 67.3603C8.94837 67.3603 8.31043 67.3775 7.5518 67.412C6.79317 67.4465 5.98282 67.4982 5.12074 67.5672C4.25866 67.6017 3.37935 67.6706 2.48278 67.7741C1.58622 67.8431 0.758628 67.9293 0 68.0327C0.0689662 67.6534 0.120691 67.2741 0.155174 66.8948C0.22414 66.5155 0.258623 66.1361 0.258623 65.7568C0.258623 65.3775 0.22414 64.9982 0.155174 64.6189C0.120691 64.2396 0.0689662 63.8603 0 63.4809C1.17243 63.5154 2.22416 63.5499 3.1552 63.5844C4.12073 63.6189 5.08626 63.6534 6.05179 63.6878C7.0518 63.6878 8.12077 63.7051 9.25872 63.7396C10.4311 63.7396 11.8277 63.7396 13.4484 63.7396C15.0691 63.7396 16.4484 63.7396 17.5864 63.7396C18.7588 63.7051 19.8278 63.6878 20.7933 63.6878C21.7588 63.6534 22.6899 63.6189 23.5864 63.5844C24.5175 63.5499 25.5175 63.5154 26.5865 63.4809C26.5175 63.8603 26.4485 64.2396 26.3796 64.6189C26.3451 64.9982 26.3279 65.3775 26.3279 65.7568C26.3279 66.1361 26.3451 66.5155 26.3796 66.8948C26.4485 67.2741 26.5175 67.6534 26.5865 68.0327C25.8968 67.9293 25.1209 67.8431 24.2589 67.7741C23.3968 67.6706 22.5347 67.6017 21.6726 67.5672C20.845 67.4982 20.0519 67.4465 19.2933 67.412C18.5347 67.3775 17.8967 67.3603 17.3795 67.3603C17.345 67.5327 17.3105 67.7741 17.276 68.0844C17.276 68.3948 17.276 68.7569 17.276 69.1707V84.8432C17.276 87.7053 17.3105 90.2571 17.3795 92.4985C17.4485 94.7054 17.5519 96.8778 17.6898 99.0158C17.1036 98.9468 16.4657 98.9123 15.776 98.9123C15.0864 98.9123 14.3105 98.9123 13.4484 98.9123C12.5863 98.9123 11.8105 98.9123 11.1208 98.9123C10.4311 98.9123 9.7932 98.9468 9.20699 99.0158C9.34492 96.8778 9.44837 94.7054 9.51734 92.4985C9.58631 90.2571 9.62079 87.7053 9.62079 84.8432V71.9121Z" fill="#8CA1C6"/>
<path d="M39.2821 73.2052C38.3855 75.2742 37.5407 77.3259 36.7475 79.3604C35.9544 81.3604 35.1786 83.4122 34.4199 85.5157H43.8856C43.1269 83.4122 42.3683 81.3604 41.6097 79.3604C40.8855 77.3259 40.1097 75.2742 39.2821 73.2052ZM57.5926 99.0158C56.765 98.9468 55.9719 98.9123 55.2133 98.9123C54.4891 98.9123 53.765 98.9123 53.0408 98.9123C52.3167 98.9123 51.5753 98.9123 50.8167 98.9123C50.0925 98.9123 49.3684 98.9468 48.6442 99.0158C48.0925 97.3261 47.5235 95.602 46.9373 93.8433C46.3511 92.0847 45.7304 90.3261 45.0752 88.5674C43.9718 88.5329 42.8683 88.5157 41.7648 88.5157C40.6614 88.4812 39.5579 88.464 38.4545 88.464C37.5579 88.464 36.6613 88.4812 35.7648 88.5157C34.8682 88.5157 33.9717 88.5329 33.0751 88.5674C32.3854 90.3261 31.7475 92.0847 31.1613 93.8433C30.5751 95.602 30.0406 97.3261 29.5578 99.0158C29.144 98.9468 28.7302 98.9123 28.3164 98.9123C27.9371 98.9123 27.5406 98.9123 27.1268 98.9123C26.713 98.9123 26.2992 98.9123 25.8854 98.9123C25.4716 98.9123 25.0233 98.9468 24.5405 99.0158C24.9543 98.1192 25.5061 96.8778 26.1957 95.2916C26.8854 93.7054 27.644 91.9123 28.4716 89.9123C29.2992 87.9122 30.1785 85.7743 31.1096 83.4984C32.0751 81.188 33.0234 78.8604 33.9544 76.5156C34.9199 74.1707 35.851 71.8603 36.7475 69.5845C37.6786 67.3086 38.5234 65.1879 39.2821 63.2223C39.6269 63.2913 39.9545 63.3603 40.2648 63.4292C40.5752 63.4637 40.9028 63.4809 41.2476 63.4809C41.5924 63.4809 41.92 63.4637 42.2304 63.4292C42.5407 63.3603 42.8683 63.2913 43.2131 63.2223C44.3166 66.1534 45.489 69.2914 46.7304 72.6362C48.0063 75.9811 49.2822 79.2742 50.558 82.5156C51.8339 85.7226 53.0753 88.7743 54.2822 91.6709C55.4891 94.5675 56.5926 97.0158 57.5926 99.0158Z" fill="#8CA1C6"/>
<path d="M62.9198 77.8087C62.9198 74.9466 62.8853 72.4121 62.8164 70.2052C62.7474 67.9638 62.644 65.7223 62.506 63.4809C63.0922 63.5499 63.7302 63.6189 64.4198 63.6878C65.1095 63.7223 65.8854 63.7396 66.7475 63.7396C67.6095 63.7396 68.3854 63.7223 69.0751 63.6878C69.7647 63.6189 70.4027 63.5499 70.9889 63.4809C70.8509 65.7223 70.7475 67.9638 70.6785 70.2052C70.6096 72.4121 70.5751 74.9466 70.5751 77.8087V84.8432C70.5751 86.8088 70.5751 88.7053 70.5751 90.5329C70.6096 92.3606 70.644 93.9468 70.6785 95.2916C72.6441 95.2916 74.6096 95.2399 76.5751 95.1364C78.5407 95.033 80.5235 94.8606 82.5235 94.6192C82.4545 94.9985 82.4028 95.3433 82.3683 95.6537C82.3338 95.964 82.3166 96.3951 82.3166 96.9468C82.3166 97.4985 82.3338 97.9296 82.3683 98.2399C82.4028 98.5503 82.4545 98.8089 82.5235 99.0158C81.5924 98.9813 80.4372 98.9468 79.0579 98.9123C77.7131 98.9123 75.851 98.9123 73.4717 98.9123C71.3682 98.9123 69.6613 98.9123 68.3509 98.9123C67.075 98.9123 66.0406 98.9123 65.2474 98.9123C64.4888 98.9123 63.9026 98.9123 63.4888 98.9123C63.1095 98.9468 62.7819 98.9813 62.506 99.0158C62.644 96.8778 62.7474 94.7054 62.8164 92.4985C62.8853 90.2571 62.9198 87.7053 62.9198 84.8432V77.8087Z" fill="#8CA1C6"/>
<path d="M88.3166 77.8087C88.3166 74.9466 88.2822 72.4121 88.2132 70.2052C88.1442 67.9638 88.0408 65.7223 87.9028 63.4809C89.4546 63.5154 90.9891 63.5672 92.5063 63.6361C94.0236 63.7051 95.5581 63.7396 97.1098 63.7396C99.6616 63.7396 101.92 63.7223 103.886 63.6878C105.886 63.6189 107.231 63.5499 107.92 63.4809C107.782 64.0327 107.713 64.7568 107.713 65.6534C107.713 66.2051 107.731 66.6361 107.765 66.9465C107.8 67.2568 107.851 67.6017 107.92 67.981C106.92 67.912 105.817 67.8431 104.61 67.7741C103.437 67.7051 102.282 67.6362 101.144 67.5672C100.041 67.4982 99.0409 67.4465 98.1443 67.412C97.2478 67.3775 96.6098 67.3603 96.2305 67.3603C96.0926 69.2569 96.0064 71.1362 95.9719 72.9983C95.9719 74.8604 95.9719 76.7397 95.9719 78.6363C98.2133 78.6018 100.231 78.5501 102.024 78.4811C103.851 78.4121 105.748 78.3259 107.713 78.2225C107.61 78.8087 107.541 79.257 107.506 79.5673C107.472 79.8777 107.455 80.2053 107.455 80.5501C107.455 80.826 107.472 81.1191 107.506 81.4294C107.575 81.7053 107.644 82.1191 107.713 82.6708C103.782 82.3604 99.8685 82.2053 95.9719 82.2053C95.9719 83.3087 95.9547 84.4122 95.9202 85.5157C95.9202 86.6191 95.9202 87.7226 95.9202 88.826C95.9202 91.0674 95.9719 93.2226 96.0753 95.2916C98.0409 95.2916 100.006 95.2399 101.972 95.1364C103.937 95.033 105.92 94.8606 107.92 94.6192C107.851 94.9985 107.8 95.3433 107.765 95.6537C107.731 95.964 107.713 96.3951 107.713 96.9468C107.713 97.4985 107.731 97.9296 107.765 98.2399C107.8 98.5503 107.851 98.8089 107.92 99.0158C106.989 98.9813 105.834 98.9468 104.455 98.9123C103.11 98.9123 101.248 98.9123 98.8685 98.9123C96.765 98.9123 95.0581 98.9123 93.7477 98.9123C92.4719 98.9123 91.4374 98.9123 90.6442 98.9123C89.8856 98.9123 89.2994 98.9123 88.8856 98.9123C88.5063 98.9468 88.1787 98.9813 87.9028 99.0158C88.0408 96.8778 88.1442 94.7054 88.2132 92.4985C88.2822 90.2571 88.3166 87.7053 88.3166 84.8432V77.8087Z" fill="#8CA1C6"/>
<path d="M114.179 77.8087C114.179 74.9466 114.144 72.4121 114.076 70.2052C114.007 67.9638 113.903 65.7223 113.765 63.4809C115.317 63.5154 116.851 63.5672 118.369 63.6361C119.886 63.7051 121.42 63.7396 122.972 63.7396C125.524 63.7396 127.783 63.7223 129.748 63.6878C131.748 63.6189 133.093 63.5499 133.783 63.4809C133.645 64.0327 133.576 64.7568 133.576 65.6534C133.576 66.2051 133.593 66.6361 133.627 66.9465C133.662 67.2568 133.714 67.6017 133.783 67.981C132.783 67.912 131.679 67.8431 130.472 67.7741C129.3 67.7051 128.145 67.6362 127.007 67.5672C125.903 67.4982 124.903 67.4465 124.007 67.412C123.11 67.3775 122.472 67.3603 122.093 67.3603C121.955 69.2569 121.869 71.1362 121.834 72.9983C121.834 74.8604 121.834 76.7397 121.834 78.6363C124.076 78.6018 126.093 78.5501 127.886 78.4811C129.714 78.4121 131.61 78.3259 133.576 78.2225C133.472 78.8087 133.403 79.257 133.369 79.5673C133.334 79.8777 133.317 80.2053 133.317 80.5501C133.317 80.826 133.334 81.1191 133.369 81.4294C133.438 81.7053 133.507 82.1191 133.576 82.6708C129.645 82.3604 125.731 82.2053 121.834 82.2053C121.834 83.3087 121.817 84.4122 121.782 85.5157C121.782 86.6191 121.782 87.7226 121.782 88.826C121.782 91.0674 121.834 93.2226 121.938 95.2916C123.903 95.2916 125.869 95.2399 127.834 95.1364C129.8 95.033 131.783 94.8606 133.783 94.6192C133.714 94.9985 133.662 95.3433 133.627 95.6537C133.593 95.964 133.576 96.3951 133.576 96.9468C133.576 97.4985 133.593 97.9296 133.627 98.2399C133.662 98.5503 133.714 98.8089 133.783 99.0158C132.852 98.9813 131.696 98.9468 130.317 98.9123C128.972 98.9123 127.11 98.9123 124.731 98.9123C122.627 98.9123 120.92 98.9123 119.61 98.9123C118.334 98.9123 117.3 98.9123 116.507 98.9123C115.748 98.9123 115.162 98.9123 114.748 98.9123C114.369 98.9468 114.041 98.9813 113.765 99.0158C113.903 96.8778 114.007 94.7054 114.076 92.4985C114.144 90.2571 114.179 87.7053 114.179 84.8432V77.8087Z" fill="#8CA1C6"/>
<path d="M156.8 89.1881C156.8 86.7743 156.248 84.9812 155.145 83.8087C154.076 82.6018 152.507 81.9984 150.438 81.9984C149.955 81.9984 149.541 82.0156 149.197 82.0501C148.852 82.0501 148.524 82.0501 148.214 82.0501C148.214 82.7742 148.197 83.5329 148.162 84.326C148.162 85.0846 148.162 85.9984 148.162 87.0674C148.162 87.895 148.162 88.7398 148.162 89.6019C148.197 90.464 148.214 91.3088 148.214 92.1364C148.214 92.964 148.214 93.7226 148.214 94.4123C148.248 95.102 148.266 95.6709 148.266 96.1192C148.748 96.1537 149.197 96.1882 149.61 96.2227C150.024 96.2227 150.524 96.2227 151.11 96.2227C151.869 96.2227 152.593 96.0675 153.283 95.7571C153.972 95.4468 154.576 94.9985 155.093 94.4123C155.61 93.7916 156.024 93.0502 156.335 92.1881C156.645 91.3261 156.8 90.326 156.8 89.1881ZM156.438 72.481C156.438 71.6534 156.335 70.8776 156.128 70.1534C155.955 69.3948 155.645 68.7569 155.197 68.2396C154.748 67.6879 154.179 67.2568 153.49 66.9465C152.8 66.6017 151.938 66.4293 150.903 66.4293C150.145 66.4293 149.61 66.4465 149.3 66.481C149.024 66.481 148.714 66.5155 148.369 66.5844C148.3 67.8603 148.248 69.1534 148.214 70.4638C148.179 71.7741 148.162 72.8776 148.162 73.7742C148.162 74.7052 148.162 75.6018 148.162 76.4638C148.197 77.2914 148.214 78.1535 148.214 79.0501H150.541C151.266 79.0501 151.972 78.9121 152.662 78.6363C153.386 78.3604 154.024 77.9639 154.576 77.4466C155.128 76.8949 155.576 76.2052 155.921 75.3776C156.266 74.55 156.438 73.5845 156.438 72.481ZM140.507 77.8087C140.507 74.9466 140.472 72.4121 140.403 70.2052C140.334 67.9638 140.231 65.7223 140.093 63.4809C140.679 63.5499 141.317 63.6189 142.007 63.6878C142.697 63.7223 143.472 63.7396 144.334 63.7396C145.817 63.7396 147.369 63.7051 148.99 63.6361C150.61 63.5327 152.162 63.4809 153.645 63.4809C155.197 63.4809 156.61 63.6361 157.886 63.9465C159.162 64.2568 160.266 64.7396 161.197 65.3948C162.128 66.0155 162.835 66.843 163.317 67.8775C163.835 68.8776 164.093 70.0845 164.093 71.4983C164.093 72.9121 163.8 74.1362 163.214 75.1707C162.628 76.1707 161.904 77.0156 161.042 77.7052C160.214 78.3604 159.3 78.8777 158.3 79.257C157.335 79.6363 156.455 79.8949 155.662 80.0328V80.1363C156.455 80.1708 157.386 80.3604 158.455 80.7053C159.524 81.0156 160.542 81.5156 161.507 82.2053C162.473 82.8949 163.283 83.7915 163.938 84.895C164.628 85.9639 164.973 87.2743 164.973 88.826C164.973 90.6881 164.628 92.2743 163.938 93.5847C163.283 94.8951 162.386 95.964 161.248 96.7916C160.145 97.6192 158.869 98.2054 157.421 98.5503C155.973 98.8606 154.472 99.0158 152.921 99.0158C151.541 99.0158 150.248 98.9985 149.041 98.9641C147.869 98.9296 146.628 98.9123 145.317 98.9123C144.386 98.9123 143.421 98.9123 142.421 98.9123C141.455 98.9123 140.679 98.9468 140.093 99.0158C140.231 96.8778 140.334 94.7054 140.403 92.4985C140.472 90.2571 140.507 87.7053 140.507 84.8432V77.8087Z" fill="#8CA1C6"/>
<path d="M33.1038 162.497C29.1382 157.91 24.914 153.221 20.4312 148.428C15.9484 143.6 11.4656 138.807 6.98283 134.048C6.94835 135.014 6.91386 136.307 6.87938 137.928C6.8449 139.548 6.82766 141.755 6.82766 144.548C6.82766 145.272 6.82766 146.169 6.82766 147.238C6.86214 148.307 6.87938 149.428 6.87938 150.6C6.91386 151.772 6.94835 152.962 6.98283 154.169C7.01731 155.376 7.0518 156.497 7.08628 157.531C7.12076 158.566 7.15525 159.479 7.18973 160.273C7.22421 161.031 7.2587 161.548 7.29318 161.824C6.74145 161.755 6.13799 161.721 5.48282 161.721C4.79315 161.721 4.15522 161.755 3.569 161.824C3.63797 161.479 3.70693 160.842 3.7759 159.911C3.87935 158.979 3.96556 157.876 4.03452 156.6C4.10349 155.29 4.17246 153.876 4.24142 152.359C4.34487 150.841 4.41384 149.324 4.44832 147.807C4.51729 146.29 4.56901 144.807 4.6035 143.359C4.63798 141.91 4.65522 140.617 4.65522 139.479C4.65522 136.169 4.63798 133.324 4.6035 130.945C4.6035 128.565 4.56901 126.789 4.50005 125.617H5.32764C7.43111 127.893 9.67251 130.341 12.0518 132.962C14.4657 135.548 16.845 138.117 19.1899 140.669C21.5692 143.186 23.8106 145.583 25.9141 147.859C28.052 150.1 29.9141 152.014 31.5003 153.6V146.566C31.5003 142.945 31.4658 139.428 31.3969 136.014C31.3624 132.565 31.2589 129.324 31.0865 126.289C31.7762 126.462 32.3624 126.548 32.8452 126.548C33.259 126.548 33.8107 126.462 34.5004 126.289C34.4314 127.048 34.3452 128.186 34.2417 129.703C34.1728 131.221 34.0866 132.841 33.9831 134.565C33.9141 136.29 33.8452 137.979 33.7762 139.634C33.7072 141.29 33.6728 142.617 33.6728 143.617C33.6728 144.479 33.6728 145.514 33.6728 146.721C33.6728 147.893 33.6728 149.117 33.6728 150.393C33.7072 151.669 33.7245 152.962 33.7245 154.273C33.759 155.548 33.7762 156.755 33.7762 157.893C33.8107 158.997 33.8279 159.962 33.8279 160.79C33.8279 161.548 33.8279 162.117 33.8279 162.497H33.1038Z" fill="#8CA1C6"/>
<path d="M71.1897 143.1C71.1897 138.203 71.1725 134.427 71.138 131.772C71.1035 129.117 71.0173 127.289 70.8794 126.289C71.2587 126.358 71.6208 126.427 71.9656 126.496C72.3104 126.531 72.6552 126.548 73.0001 126.548C73.4484 126.548 73.9656 126.462 74.5518 126.289C74.4484 127.496 74.3449 128.945 74.2415 130.634C74.138 132.29 74.0518 134.083 73.9828 136.014C73.9139 137.91 73.8449 139.876 73.7759 141.91C73.707 143.91 73.6553 145.859 73.6208 147.755C73.5863 150.066 73.2242 152.135 72.5346 153.962C71.8794 155.79 70.9311 157.342 69.6897 158.617C68.4483 159.893 66.9138 160.859 65.0862 161.514C63.2931 162.169 61.2241 162.497 58.8792 162.497C53.7068 162.497 49.9481 161.324 47.6033 158.979C45.2584 156.635 44.086 152.928 44.086 147.859C44.086 146.238 44.1205 144.807 44.1894 143.566C44.2929 142.29 44.3446 140.997 44.3446 139.686C44.3446 136.79 44.3101 134.221 44.2412 131.979C44.1722 129.738 44.1032 127.841 44.0343 126.289C44.4481 126.358 44.8963 126.427 45.3791 126.496C45.8619 126.531 46.3101 126.548 46.7239 126.548C47.1033 126.548 47.4653 126.531 47.8102 126.496C48.1895 126.427 48.5688 126.358 48.9481 126.289C48.8791 127.048 48.8102 128.048 48.7412 129.29C48.6722 130.496 48.6033 131.876 48.5343 133.427C48.4653 134.979 48.4136 136.652 48.3791 138.445C48.3446 140.238 48.3274 142.1 48.3274 144.031C48.3274 145.203 48.3446 146.428 48.3791 147.703C48.4136 148.945 48.5343 150.169 48.7412 151.376C48.9481 152.548 49.2757 153.686 49.724 154.79C50.2067 155.859 50.8792 156.807 51.7412 157.635C52.6033 158.428 53.6895 159.066 54.9999 159.548C56.3103 159.997 57.931 160.221 59.862 160.221C61.7586 160.221 63.3448 159.945 64.6207 159.393C65.931 158.842 67 158.117 67.8276 157.221C68.6552 156.324 69.2931 155.29 69.7414 154.117C70.2242 152.945 70.569 151.721 70.7759 150.445C70.9828 149.169 71.1035 147.893 71.138 146.617C71.1725 145.341 71.1897 144.169 71.1897 143.1Z" fill="#8CA1C6"/>
<path d="M91.6892 139.686C91.6892 136.1 91.6375 132.531 91.5341 128.979C90.6375 128.979 89.6892 128.996 88.6892 129.031C87.7237 129.031 86.7409 129.065 85.7409 129.134C84.7754 129.169 83.8271 129.221 82.8961 129.29C81.9995 129.358 81.1891 129.445 80.465 129.548C80.6374 128.927 80.7236 128.376 80.7236 127.893C80.7236 127.514 80.6374 126.979 80.465 126.289C82.7409 126.358 84.965 126.427 87.1375 126.496C89.3099 126.531 91.5341 126.548 93.81 126.548C96.0858 126.548 98.31 126.531 100.482 126.496C102.655 126.427 104.879 126.358 107.155 126.289C106.983 126.979 106.896 127.531 106.896 127.945C106.896 128.393 106.983 128.927 107.155 129.548C106.431 129.445 105.603 129.358 104.672 129.29C103.776 129.221 102.827 129.169 101.827 129.134C100.862 129.065 99.879 129.031 98.879 129.031C97.9134 128.996 96.9824 128.979 96.0858 128.979C95.9824 132.531 95.9307 136.1 95.9307 139.686V148.583C95.9307 150.859 95.9652 153.1 96.0341 155.307C96.1376 157.514 96.241 159.686 96.3445 161.824C95.5514 161.755 94.7065 161.721 93.81 161.721C92.9134 161.721 92.0686 161.755 91.2755 161.824C91.3789 159.686 91.4651 157.514 91.5341 155.307C91.6375 153.1 91.6892 150.859 91.6892 148.583V139.686Z" fill="#8CA1C6"/>
<path d="M113.241 139.686C113.241 137.41 113.189 135.186 113.086 133.014C113.017 130.807 112.931 128.565 112.827 126.289C113.827 126.358 114.81 126.427 115.776 126.496C116.741 126.531 117.724 126.548 118.724 126.548C119.724 126.548 120.707 126.514 121.672 126.445C122.638 126.341 123.62 126.289 124.62 126.289C126.069 126.289 127.448 126.427 128.758 126.703C130.069 126.979 131.207 127.445 132.172 128.1C133.172 128.721 133.948 129.548 134.5 130.583C135.086 131.617 135.379 132.91 135.379 134.462C135.379 136.117 135 137.548 134.241 138.755C133.517 139.928 132.621 140.91 131.552 141.703C130.483 142.462 129.327 143.066 128.086 143.514C126.879 143.928 125.776 144.203 124.776 144.341C125.189 144.859 125.758 145.583 126.483 146.514C127.207 147.445 128.017 148.479 128.914 149.617C129.81 150.721 130.741 151.893 131.707 153.135C132.672 154.341 133.603 155.514 134.5 156.652C135.396 157.755 136.241 158.773 137.034 159.704C137.828 160.635 138.465 161.342 138.948 161.824C138.431 161.755 137.914 161.721 137.396 161.721C136.879 161.721 136.362 161.721 135.845 161.721C135.362 161.721 134.862 161.721 134.345 161.721C133.827 161.721 133.327 161.755 132.845 161.824C132.327 161.1 131.534 160.014 130.465 158.566C129.431 157.117 128.276 155.566 127 153.91C125.724 152.255 124.414 150.617 123.069 148.997C121.758 147.341 120.551 145.945 119.448 144.807H117.482V148.583C117.482 150.859 117.517 153.1 117.586 155.307C117.689 157.514 117.793 159.686 117.896 161.824C117.103 161.755 116.258 161.721 115.362 161.721C114.465 161.721 113.62 161.755 112.827 161.824C112.931 159.686 113.017 157.514 113.086 155.307C113.189 153.1 113.241 150.859 113.241 148.583V139.686ZM117.482 142.634C117.965 142.738 118.482 142.807 119.034 142.841C119.62 142.876 120.258 142.893 120.948 142.893C122.017 142.893 123.12 142.772 124.258 142.531C125.431 142.29 126.5 141.876 127.465 141.29C128.431 140.669 129.224 139.859 129.845 138.859C130.5 137.824 130.827 136.531 130.827 134.979C130.827 133.634 130.569 132.531 130.052 131.669C129.569 130.772 128.931 130.065 128.138 129.548C127.345 129.031 126.483 128.686 125.552 128.514C124.62 128.307 123.707 128.203 122.81 128.203C121.603 128.203 120.603 128.238 119.81 128.307C119.017 128.341 118.345 128.393 117.793 128.462C117.724 130.358 117.655 132.238 117.586 134.1C117.517 135.962 117.482 137.824 117.482 139.686V142.634Z" fill="#8CA1C6"/>
<path d="M144.862 139.686C144.862 137.41 144.81 135.186 144.707 133.014C144.638 130.807 144.551 128.565 144.448 126.289C144.896 126.358 145.327 126.427 145.741 126.496C146.155 126.531 146.569 126.548 146.983 126.548C147.396 126.548 147.81 126.531 148.224 126.496C148.638 126.427 149.069 126.358 149.517 126.289C149.414 128.565 149.31 130.807 149.207 133.014C149.138 135.186 149.103 137.41 149.103 139.686V148.583C149.103 150.859 149.138 153.1 149.207 155.307C149.31 157.514 149.414 159.686 149.517 161.824C148.724 161.755 147.879 161.721 146.983 161.721C146.086 161.721 145.241 161.755 144.448 161.824C144.551 159.686 144.638 157.514 144.707 155.307C144.81 153.1 144.862 150.859 144.862 148.583V139.686Z" fill="#8CA1C6"/>
<path d="M166.448 139.686C166.448 136.1 166.396 132.531 166.292 128.979C165.396 128.979 164.448 128.996 163.448 129.031C162.482 129.031 161.499 129.065 160.499 129.134C159.534 129.169 158.585 129.221 157.654 129.29C156.758 129.358 155.947 129.445 155.223 129.548C155.396 128.927 155.482 128.376 155.482 127.893C155.482 127.514 155.396 126.979 155.223 126.289C157.499 126.358 159.723 126.427 161.896 126.496C164.068 126.531 166.292 126.548 168.568 126.548C170.844 126.548 173.068 126.531 175.241 126.496C177.413 126.427 179.637 126.358 181.913 126.289C181.741 126.979 181.655 127.531 181.655 127.945C181.655 128.393 181.741 128.927 181.913 129.548C181.189 129.445 180.362 129.358 179.43 129.29C178.534 129.221 177.586 129.169 176.586 129.134C175.62 129.065 174.637 129.031 173.637 129.031C172.672 128.996 171.741 128.979 170.844 128.979C170.741 132.531 170.689 136.1 170.689 139.686V148.583C170.689 150.859 170.723 153.1 170.792 155.307C170.896 157.514 170.999 159.686 171.103 161.824C170.31 161.755 169.465 161.721 168.568 161.721C167.672 161.721 166.827 161.755 166.034 161.824C166.137 159.686 166.223 157.514 166.292 155.307C166.396 153.1 166.448 150.859 166.448 148.583V139.686Z" fill="#8CA1C6"/>
<path d="M187.999 139.686C187.999 137.41 187.948 135.186 187.844 133.014C187.775 130.807 187.689 128.565 187.586 126.289C188.034 126.358 188.465 126.427 188.879 126.496C189.292 126.531 189.706 126.548 190.12 126.548C190.534 126.548 190.948 126.531 191.361 126.496C191.775 126.427 192.206 126.358 192.655 126.289C192.551 128.565 192.448 130.807 192.344 133.014C192.275 135.186 192.241 137.41 192.241 139.686V148.583C192.241 150.859 192.275 153.1 192.344 155.307C192.448 157.514 192.551 159.686 192.655 161.824C191.861 161.755 191.017 161.721 190.12 161.721C189.224 161.721 188.379 161.755 187.586 161.824C187.689 159.686 187.775 157.514 187.844 155.307C187.948 153.1 187.999 150.859 187.999 148.583V139.686Z" fill="#8CA1C6"/>
<path d="M199.499 144.134C199.499 141.203 199.964 138.6 200.895 136.324C201.861 134.014 203.189 132.065 204.878 130.479C206.602 128.893 208.654 127.686 211.033 126.858C213.413 126.031 216.016 125.617 218.844 125.617C221.706 125.617 224.327 126.031 226.706 126.858C229.085 127.686 231.12 128.893 232.81 130.479C234.534 132.065 235.861 134.014 236.792 136.324C237.758 138.6 238.241 141.203 238.241 144.134C238.241 147.066 237.758 149.686 236.792 151.997C235.861 154.273 234.534 156.204 232.81 157.79C231.12 159.376 229.085 160.566 226.706 161.359C224.327 162.117 221.706 162.497 218.844 162.497C216.016 162.497 213.413 162.117 211.033 161.359C208.654 160.566 206.602 159.376 204.878 157.79C203.189 156.204 201.861 154.273 200.895 151.997C199.964 149.686 199.499 147.066 199.499 144.134ZM233.172 144.134C233.172 141.272 232.81 138.807 232.085 136.738C231.361 134.634 230.344 132.91 229.034 131.565C227.758 130.186 226.24 129.169 224.482 128.514C222.758 127.858 220.878 127.531 218.844 127.531C216.844 127.531 214.964 127.858 213.206 128.514C211.482 129.169 209.964 130.186 208.654 131.565C207.378 132.91 206.378 134.634 205.654 136.738C204.93 138.807 204.568 141.272 204.568 144.134C204.568 146.997 204.93 149.479 205.654 151.583C206.378 153.652 207.378 155.376 208.654 156.755C209.964 158.1 211.482 159.1 213.206 159.755C214.964 160.411 216.844 160.738 218.844 160.738C220.878 160.738 222.758 160.411 224.482 159.755C226.24 159.1 227.758 158.1 229.034 156.755C230.344 155.376 231.361 153.652 232.085 151.583C232.81 149.479 233.172 146.997 233.172 144.134Z" fill="#8CA1C6"/>
<path d="M274.603 162.497C270.638 157.91 266.414 153.221 261.931 148.428C257.448 143.6 252.965 138.807 248.482 134.048C248.448 135.014 248.414 136.307 248.379 137.928C248.345 139.548 248.327 141.755 248.327 144.548C248.327 145.272 248.327 146.169 248.327 147.238C248.362 148.307 248.379 149.428 248.379 150.6C248.414 151.772 248.448 152.962 248.482 154.169C248.517 155.376 248.551 156.497 248.586 157.531C248.62 158.566 248.655 159.479 248.689 160.273C248.724 161.031 248.758 161.548 248.793 161.824C248.241 161.755 247.638 161.721 246.982 161.721C246.293 161.721 245.655 161.755 245.069 161.824C245.138 161.479 245.207 160.842 245.276 159.911C245.379 158.979 245.465 157.876 245.534 156.6C245.603 155.29 245.672 153.876 245.741 152.359C245.845 150.841 245.913 149.324 245.948 147.807C246.017 146.29 246.069 144.807 246.103 143.359C246.138 141.91 246.155 140.617 246.155 139.479C246.155 136.169 246.138 133.324 246.103 130.945C246.103 128.565 246.069 126.789 246 125.617H246.827C248.931 127.893 251.172 130.341 253.552 132.962C255.965 135.548 258.345 138.117 260.69 140.669C263.069 143.186 265.31 145.583 267.414 147.859C269.552 150.1 271.414 152.014 273 153.6V146.566C273 142.945 272.965 139.428 272.897 136.014C272.862 132.565 272.759 129.324 272.586 126.289C273.276 126.462 273.862 126.548 274.345 126.548C274.759 126.548 275.31 126.462 276 126.289C275.931 127.048 275.845 128.186 275.741 129.703C275.672 131.221 275.586 132.841 275.483 134.565C275.414 136.29 275.345 137.979 275.276 139.634C275.207 141.29 275.172 142.617 275.172 143.617C275.172 144.479 275.172 145.514 275.172 146.721C275.172 147.893 275.172 149.117 275.172 150.393C275.207 151.669 275.224 152.962 275.224 154.273C275.259 155.548 275.276 156.755 275.276 157.893C275.31 158.997 275.328 159.962 275.328 160.79C275.328 161.548 275.328 162.117 275.328 162.497H274.603Z" fill="#8CA1C6"/>
</svg>
