<svg width="111" height="100" viewBox="0 0 111 100" fill="none" xmlns="http://www.w3.org/2000/svg">
<path fill-rule="evenodd" clip-rule="evenodd" d="M25.6701 82.2492H12.6535V96.4491H25.6701V82.2492ZM9.10352 78.6992V99.9991H29.2201V78.6992H9.10352Z" fill="#355FEC"/>
<path fill-rule="evenodd" clip-rule="evenodd" d="M52.8869 76.3332H39.8703V96.4497H52.8869V76.3332ZM36.3203 72.7832V99.9997H56.4369V72.7832H36.3203Z" fill="#355FEC"/>
<path fill-rule="evenodd" clip-rule="evenodd" d="M80.1037 60.9504H67.0871V96.4502H80.1037V60.9504ZM63.5371 57.4004V100H83.6537V57.4004H63.5371Z" fill="#355FEC"/>
<path fill-rule="evenodd" clip-rule="evenodd" d="M107.32 40.8332H94.3029V96.4495H107.32V40.8332ZM90.7529 37.2832V99.9995H110.869V37.2832H90.7529Z" fill="#355FEC"/>
<path fill-rule="evenodd" clip-rule="evenodd" d="M91.5531 1.39089C92.4242 0.941381 93.4949 1.2832 93.9444 2.15437L101.27 16.3508C101.719 17.222 101.377 18.2926 100.506 18.7421C99.6349 19.1916 98.5642 18.8498 98.1147 17.9787L92.6896 7.46444C86.5595 23.903 75.6432 38.0343 61.3508 47.9264C45.9235 58.604 27.4306 63.7414 8.74236 62.5395L8.97021 58.9968C26.8584 60.1473 44.5595 55.2308 59.3305 45.0074C72.9115 35.6076 83.3224 22.201 89.2276 6.58547L78.9844 11.8708C78.1132 12.3203 77.0426 11.9785 76.5931 11.1073C76.1436 10.2362 76.4854 9.16555 77.3566 8.71604L91.5531 1.39089Z" fill="#355FEC"/>
</svg>
