<svg width="276" height="165" viewBox="0 0 276 165" fill="none" xmlns="http://www.w3.org/2000/svg">
<path d="M45.6021 80.3502H49.7569C50.4954 80.3502 51.1417 80.2119 51.6957 79.9349C52.2496 79.6426 52.6805 79.2347 52.9882 78.7115C53.296 78.1729 53.4499 77.542 53.4499 76.8189C53.4499 76.0957 53.296 75.4723 52.9882 74.9491C52.6805 74.4262 52.2496 74.0261 51.6957 73.7491C51.1417 73.4567 50.4954 73.3104 49.7569 73.3104H45.6021V80.3502Z" fill="#8CA1C6"/>
<path d="M137.311 82.8431H143.751L140.542 73.7467L137.311 82.8431Z" fill="#8CA1C6"/>
<path d="M130.632 109.646H126.478V102.606H130.632C131.371 102.606 132.017 102.753 132.571 103.045C133.125 103.322 133.556 103.722 133.864 104.245C134.172 104.768 134.325 105.391 134.325 106.115C134.325 106.838 134.172 107.469 133.864 108.007C133.556 108.53 133.125 108.938 132.571 109.231C132.017 109.508 131.371 109.646 130.632 109.646Z" fill="#8CA1C6"/>
<path fill-rule="evenodd" clip-rule="evenodd" d="M82.117 164.234C127.469 164.234 164.234 127.469 164.234 82.117C164.234 36.765 127.469 0 82.117 0C36.765 0 0 36.765 0 82.117C0 127.469 36.765 164.234 82.117 164.234ZM46.7332 59.4794V44.0146H41.9784V42.2835H53.2883V44.0146H48.5797V59.4794H46.7332ZM56.721 59.4794V42.2835H58.5675V50.0158H67.8001V42.2835H69.6466V59.4794H67.8001V51.7469H58.5675V59.4794H56.721ZM74.8706 42.2835V59.4794H85.9498V57.7481H76.7172V51.7239H85.4882V49.9928H76.7172V44.0146H85.9498V42.2835H74.8706ZM43.7556 88.7752V71.5793H49.6645C50.7878 71.5793 51.7726 71.8024 52.619 72.2486C53.4653 72.6795 54.1193 73.295 54.5809 74.0952C55.0579 74.88 55.2964 75.7955 55.2964 76.8419C55.2964 77.8883 55.0579 78.8038 54.5809 79.5886C54.1193 80.3734 53.4653 80.9889 52.619 81.4352C51.788 81.8661 50.8032 82.0815 49.6645 82.0815H45.6021V88.7752H43.7556ZM59.7414 71.5793V88.7752H61.5879V81.0427H70.8205V88.7752H72.6671V71.5793H70.8205V79.3116H61.5879V71.5793H59.7414ZM82.1381 88.7752V80.7889L76.1138 71.5793H78.1681L83.0606 79.0253L87.9315 71.5793H89.9858L83.9846 80.7889V88.7752H82.1381ZM95.5432 88.4288C96.4357 88.8443 97.4282 89.052 98.5207 89.052C99.6133 89.052 100.575 88.8521 101.406 88.452C102.252 88.0519 102.906 87.5055 103.368 86.8131C103.845 86.1052 104.083 85.2899 104.083 84.3666C104.083 83.2278 103.737 82.2816 103.045 81.5275C102.352 80.7735 101.329 80.1965 99.9749 79.7965L97.2513 78.9885C96.328 78.7115 95.6432 78.296 95.197 77.742C94.7508 77.1729 94.5276 76.5341 94.5276 75.8263C94.5276 75.2415 94.6661 74.7337 94.9431 74.3031C95.2201 73.8722 95.6048 73.5412 96.0972 73.3104C96.605 73.0796 97.1897 72.9643 97.8514 72.9643C98.8977 72.9643 99.8057 73.2259 100.575 73.7491C101.36 74.2723 101.937 75.0415 102.306 76.0571L103.922 75.4108C103.676 74.6568 103.268 73.9721 102.699 73.3566C102.129 72.741 101.429 72.2486 100.598 71.8793C99.7826 71.4948 98.8593 71.3023 97.8283 71.3023C96.8435 71.3023 95.9587 71.5024 95.1739 71.9025C94.4045 72.3026 93.7968 72.8566 93.3505 73.5644C92.9042 74.2569 92.6811 75.0569 92.6811 75.9648C92.6811 77.0266 93.0043 77.9728 93.6506 78.8038C94.3122 79.6348 95.2509 80.2271 96.4665 80.581L99.5594 81.5043C100.421 81.7505 101.083 82.1045 101.544 82.5661C102.006 83.0278 102.237 83.6817 102.237 84.528C102.237 85.0974 102.083 85.5976 101.775 86.0283C101.467 86.4591 101.029 86.7977 100.46 87.0439C99.9056 87.2747 99.2594 87.3902 98.5207 87.3902C97.3513 87.3902 96.3434 87.0901 95.497 86.4899C94.6507 85.8746 94.0275 84.9821 93.6275 83.8126L91.9656 84.4357C92.2272 85.282 92.6657 86.059 93.2812 86.7669C93.8968 87.4594 94.6507 88.0134 95.5432 88.4288ZM108.803 88.7752V71.5793H110.65V88.7752H108.803ZM120.364 88.4059C121.379 88.8367 122.495 89.052 123.711 89.052C124.88 89.052 125.926 88.8443 126.85 88.4288C127.788 88.0134 128.573 87.4826 129.204 86.8363C129.85 86.1746 130.312 85.4899 130.589 84.782L128.858 84.0202C128.427 85.0204 127.765 85.8206 126.873 86.4208C125.996 87.0209 124.942 87.3209 123.711 87.3209C122.449 87.3209 121.326 87.0285 120.341 86.4438C119.356 85.8438 118.587 85.0051 118.033 83.9279C117.479 82.8509 117.202 81.6045 117.202 80.1887C117.202 78.7576 117.479 77.5112 118.033 76.4496C118.587 75.3724 119.356 74.5337 120.341 73.9337C121.326 73.3336 122.449 73.0334 123.711 73.0334C124.942 73.0334 125.996 73.3412 126.873 73.9567C127.765 74.5569 128.427 75.357 128.858 76.3573L130.589 75.5955C130.312 74.8722 129.85 74.1875 129.204 73.5412C128.573 72.8795 127.788 72.3409 126.85 71.9255C125.926 71.5102 124.88 71.3023 123.711 71.3023C122.495 71.3023 121.379 71.5256 120.364 71.9716C119.348 72.4025 118.463 73.018 117.709 73.8182C116.971 74.6184 116.394 75.5571 115.978 76.6343C115.563 77.7112 115.355 78.8961 115.355 80.1887C115.355 81.4814 115.563 82.6663 115.978 83.7432C116.394 84.8204 116.971 85.7591 117.709 86.5593C118.463 87.3441 119.348 87.9596 120.364 88.4059ZM133.272 88.7752L139.55 71.5793H141.535L147.814 88.7752H145.875L144.398 84.5742H136.711L135.211 88.7752H133.272ZM151.261 71.5793V88.7752H160.724V87.0439H153.107V71.5793H151.261ZM51.6033 118.348C50.3877 118.348 49.2721 118.133 48.2566 117.702C47.2409 117.255 46.3562 116.64 45.6021 115.855C44.8635 115.055 44.2865 114.116 43.8711 113.039C43.4556 111.962 43.2478 110.777 43.2478 109.485C43.2478 108.192 43.4556 107.007 43.8711 105.93C44.2865 104.853 44.8635 103.914 45.6021 103.114C46.3562 102.314 47.2409 101.698 48.2566 101.267C49.2721 100.821 50.3877 100.598 51.6033 100.598C52.7729 100.598 53.8192 100.806 54.7424 101.221C55.6811 101.637 56.4659 102.175 57.0968 102.837C57.743 103.483 58.2047 104.168 58.4817 104.891L56.7506 105.653C56.3197 104.653 55.658 103.853 54.7655 103.253C53.8884 102.637 52.8343 102.329 51.6033 102.329C50.3416 102.329 49.2183 102.629 48.2335 103.23C47.2486 103.829 46.4793 104.668 45.9253 105.745C45.3714 106.807 45.0944 108.053 45.0944 109.485C45.0944 110.9 45.3714 112.147 45.9253 113.224C46.4793 114.301 47.2486 115.14 48.2335 115.74C49.2183 116.324 50.3416 116.617 51.6033 116.617C52.8343 116.617 53.8884 116.317 54.7655 115.717C55.658 115.116 56.3197 114.316 56.7506 113.316L58.4817 114.078C58.2047 114.786 57.743 115.47 57.0968 116.132C56.4659 116.778 55.6811 117.309 54.7424 117.725C53.8192 118.14 52.7729 118.348 51.6033 118.348ZM62.9422 100.875V118.071H74.0213V116.34H64.7887V110.316H73.5597V108.584H64.7887V102.606H74.0213V100.875H62.9422ZM78.2292 118.071V100.875H79.8449L89.3084 114.453V100.875H91.1548V118.071H89.5391L80.0757 104.406V118.071H78.2292ZM99.3564 102.606V118.071H101.203V102.606H105.912V100.875H94.6016V102.606H99.3564ZM109.344 118.071V100.875H120.423V102.606H111.191V108.584H119.962V110.316H111.191V116.34H120.423V118.071H109.344ZM124.631 100.875V118.071H126.478V111.377H130.669L134.464 118.071H136.634L132.617 111.077C133.71 110.723 134.572 110.115 135.203 109.254C135.849 108.392 136.172 107.353 136.172 106.138C136.172 105.091 135.933 104.176 135.456 103.391C134.995 102.591 134.341 101.975 133.495 101.544C132.648 101.098 131.663 100.875 130.54 100.875H124.631Z" fill="#8CA1C6"/>
<path d="M172.794 88.7749V73.3102H168.039V71.5791H179.349V73.3102H174.64V88.7749H172.794Z" fill="#8CA1C6"/>
<path d="M182.782 88.7749V71.5791H184.628V79.3114H193.861V71.5791H195.707V88.7749H193.861V81.0425H184.628V88.7749H182.782Z" fill="#8CA1C6"/>
<path d="M200.931 88.7749V71.5791H212.01V73.3102H202.778V79.2883H211.549V81.0195H202.778V87.0437H212.01V88.7749H200.931Z" fill="#8CA1C6"/>
<path d="M216.218 88.7749V71.5791H222.127C223.251 71.5791 224.235 71.8022 225.082 72.2485C225.928 72.6793 226.582 73.2948 227.044 74.095C227.521 74.8798 227.759 75.7953 227.759 76.8417C227.759 78.0573 227.436 79.096 226.79 79.9577C226.159 80.8194 225.297 81.4272 224.205 81.7811L228.221 88.7749H226.051L221.85 81.3657L223.097 82.0812H218.065V88.7749H216.218ZM218.065 80.3501H222.22C222.958 80.3501 223.604 80.2116 224.158 79.9346C224.712 79.6423 225.143 79.2345 225.451 78.7113C225.759 78.1727 225.913 77.5418 225.913 76.8186C225.913 76.0954 225.759 75.4722 225.451 74.949C225.143 74.4258 224.712 74.0257 224.158 73.7488C223.604 73.4564 222.958 73.3102 222.22 73.3102H218.065V80.3501Z" fill="#8CA1C6"/>
<path d="M230.382 88.7749L236.66 71.5791H238.645L244.923 88.7749H242.984L241.507 84.574H233.821L232.321 88.7749H230.382ZM234.421 82.8429H240.861L237.375 72.964H237.929L234.421 82.8429Z" fill="#8CA1C6"/>
<path d="M248.37 88.7749V71.5791H254.279C255.402 71.5791 256.387 71.8022 257.234 72.2485C258.08 72.6793 258.734 73.2948 259.195 74.095C259.673 74.8798 259.911 75.7953 259.911 76.8417C259.911 77.8881 259.673 78.8036 259.195 79.5884C258.734 80.3732 258.08 80.9887 257.234 81.4349C256.403 81.8658 255.418 82.0812 254.279 82.0812H250.217V88.7749H248.37ZM250.217 80.3501H254.371C255.11 80.3501 255.756 80.2116 256.31 79.9346C256.864 79.6423 257.295 79.2345 257.603 78.7113C257.911 78.1727 258.064 77.5418 258.064 76.8186C258.064 76.0954 257.911 75.4722 257.603 74.949C257.295 74.4258 256.864 74.0257 256.31 73.7488C255.756 73.4564 255.11 73.3102 254.371 73.3102H250.217V80.3501Z" fill="#8CA1C6"/>
<path d="M268.152 88.7749V80.7886L262.128 71.5791H264.182L269.445 79.5884H268.706L273.946 71.5791H276L269.999 80.7886V88.7749H268.152Z" fill="#8CA1C6"/>
</svg>
