<svg width="276" height="25" viewBox="0 0 276 25" fill="none" xmlns="http://www.w3.org/2000/svg">
<path d="M11.8681 24.5338C10.1666 24.5338 8.59269 24.2254 7.1464 23.6086C5.72137 22.9918 4.4665 22.1304 3.38178 21.0245C2.31833 19.9185 1.48883 18.621 0.8933 17.1322C0.297767 15.6434 0 14.0163 0 12.251C0 10.4856 0.287132 8.85856 0.861396 7.36972C1.45693 5.85962 2.28642 4.56221 3.34987 3.47749C4.4346 2.3715 5.7001 1.52074 7.1464 0.925203C8.59269 0.308401 10.1666 0 11.8681 0C13.5697 0 15.0904 0.287132 16.4303 0.861397C17.7916 1.43566 18.9401 2.20135 19.8759 3.15845C20.8118 4.09429 21.4817 5.12584 21.8859 6.2531L17.9936 8.0716C17.547 6.88054 16.7919 5.90216 15.7285 5.13647C14.665 4.34952 13.3782 3.95604 11.8681 3.95604C10.3793 3.95604 9.06061 4.30698 7.91209 5.00886C6.78483 5.71074 5.90216 6.67848 5.26409 7.91209C4.64729 9.14569 4.33889 10.592 4.33889 12.251C4.33889 13.91 4.64729 15.3669 5.26409 16.6218C5.90216 17.8554 6.78483 18.8231 7.91209 19.525C9.06061 20.2269 10.3793 20.5778 11.8681 20.5778C13.3782 20.5778 14.665 20.195 15.7285 19.4293C16.7919 18.6423 17.547 17.6533 17.9936 16.4622L21.8859 18.2807C21.4817 19.408 20.8118 20.4502 19.8759 21.4073C18.9401 22.3431 17.7916 23.0982 16.4303 23.6724C15.0904 24.2467 13.5697 24.5338 11.8681 24.5338Z" fill="#8CA1C6"/>
<path d="M33.3843 24.151V0.382842H37.7232V24.151H33.3843Z" fill="#8CA1C6"/>
<path d="M54.4821 24.151V4.21127H48.3247V0.382842H64.9145V4.21127H58.8529V24.151H54.4821Z" fill="#8CA1C6"/>
<path d="M81.5999 24.151V21.9895C81.5999 16.5161 80.1025 11.1471 77.2699 6.46374L73.5921 0.382842H78.5371L84.6626 10.7196H82.9079L89.0015 0.382842H93.9465L90.2897 6.43848C87.4641 11.1177 85.9706 16.4801 85.9706 21.9463V24.151H81.5999Z" fill="#8CA1C6"/>
<path d="M118.222 24.151V0.382842H127.091C128.707 0.382842 130.132 0.680609 131.366 1.27614C132.621 1.85041 133.599 2.70117 134.301 3.82843C135.003 4.93442 135.354 6.285 135.354 7.88018C135.354 9.45409 134.992 10.8047 134.269 11.9319C133.567 13.0379 132.6 13.8887 131.366 14.4842C130.132 15.0798 128.707 15.3775 127.091 15.3775H122.561V24.151H118.222ZM122.561 11.5491H127.155C127.942 11.5491 128.622 11.4002 129.196 11.1024C129.771 10.7834 130.217 10.3474 130.536 9.79439C130.855 9.2414 131.015 8.60333 131.015 7.88018C131.015 7.13576 130.855 6.49769 130.536 5.96597C130.217 5.41297 129.771 4.98759 129.196 4.68982C128.622 4.37079 127.942 4.21127 127.155 4.21127H122.561V11.5491Z" fill="#8CA1C6"/>
<path d="M146.885 24.151V0.382842H151.224V10.7515H161.337V0.382842H165.708V24.151H161.337V14.5799H151.224V24.151H146.885Z" fill="#8CA1C6"/>
<path d="M184.321 24.151V21.9895C184.321 16.5161 182.823 11.1471 179.991 6.46374L176.313 0.382842H181.258L187.383 10.7196H185.629L191.722 0.382842H196.667L193.011 6.43848C190.185 11.1177 188.691 16.4801 188.691 21.9463V24.151H184.321Z" fill="#8CA1C6"/>
<path d="M214.817 24.5338C213.307 24.5338 211.903 24.2573 210.605 23.7043C209.329 23.1514 208.223 22.3857 207.287 21.4073C206.373 20.4076 205.703 19.2485 205.278 17.9298L208.883 16.3665C209.457 17.7277 210.286 18.8018 211.371 19.5888C212.456 20.3545 213.679 20.7373 215.04 20.7373C215.806 20.7373 216.465 20.6203 217.018 20.3864C217.592 20.1312 218.028 19.7908 218.326 19.3655C218.645 18.9401 218.805 18.4296 218.805 17.8341C218.805 17.1322 218.592 16.558 218.167 16.1113C217.762 15.6434 217.146 15.2818 216.316 15.0266L211.754 13.559C209.904 12.9848 208.51 12.1234 207.575 10.9748C206.639 9.8263 206.171 8.47571 206.171 6.92307C206.171 5.56185 206.5 4.36015 207.16 3.31797C207.84 2.27579 208.776 1.46756 209.967 0.8933C211.18 0.297767 212.562 0 214.115 0C215.54 0 216.848 0.255228 218.039 0.765685C219.23 1.25487 220.251 1.94612 221.102 2.83942C221.974 3.71145 222.622 4.743 223.048 5.93406L219.475 7.52924C219.007 6.33818 218.305 5.42361 217.369 4.78553C216.433 4.12619 215.348 3.79652 214.115 3.79652C213.392 3.79652 212.754 3.92414 212.201 4.17937C211.648 4.41333 211.212 4.75363 210.893 5.20028C210.595 5.62566 210.446 6.13612 210.446 6.73165C210.446 7.39099 210.659 7.97589 211.084 8.48635C211.509 8.97554 212.158 9.35838 213.03 9.63488L217.401 11.0067C219.294 11.6235 220.708 12.4743 221.644 13.559C222.601 14.6437 223.08 15.9837 223.08 17.5789C223.08 18.9401 222.729 20.1418 222.027 21.184C221.325 22.2262 220.357 23.045 219.124 23.6405C217.89 24.2361 216.454 24.5338 214.817 24.5338Z" fill="#8CA1C6"/>
<path d="M234.963 24.151V0.382842H239.301V24.151H234.963Z" fill="#8CA1C6"/>
<path d="M263.558 24.5338C261.814 24.5338 260.186 24.2254 258.676 23.6086C257.166 22.9918 255.848 22.1304 254.72 21.0245C253.593 19.9185 252.71 18.621 252.072 17.1322C251.456 15.6221 251.147 13.995 251.147 12.251C251.147 10.4856 251.456 8.85856 252.072 7.36972C252.689 5.88089 253.561 4.58348 254.688 3.47749C255.816 2.3715 257.134 1.52074 258.644 0.925203C260.155 0.308401 261.792 0 263.558 0C265.323 0 266.961 0.308401 268.471 0.925203C269.981 1.542 271.3 2.4034 272.427 3.50939C273.554 4.59411 274.426 5.88089 275.043 7.36972C275.681 8.85856 276 10.4856 276 12.251C276 13.995 275.681 15.6221 275.043 17.1322C274.405 18.621 273.522 19.9185 272.395 21.0245C271.268 22.1304 269.949 22.9918 268.439 23.6086C266.95 24.2254 265.323 24.5338 263.558 24.5338ZM263.558 20.5778C264.727 20.5778 265.802 20.3757 266.78 19.9716C267.758 19.5463 268.609 18.9614 269.332 18.2169C270.077 17.4725 270.64 16.5899 271.023 15.5689C271.427 14.548 271.629 13.442 271.629 12.251C271.629 11.0599 271.427 9.96455 271.023 8.9649C270.64 7.94399 270.077 7.06132 269.332 6.31691C268.609 5.55122 267.758 4.96632 266.78 4.56221C265.802 4.1581 264.727 3.95604 263.558 3.95604C262.409 3.95604 261.346 4.1581 260.367 4.56221C259.389 4.96632 258.527 5.55122 257.783 6.31691C257.06 7.06132 256.496 7.94399 256.092 8.9649C255.688 9.96455 255.486 11.0599 255.486 12.251C255.486 13.442 255.688 14.548 256.092 15.5689C256.496 16.5899 257.06 17.4725 257.783 18.2169C258.527 18.9614 259.389 19.5463 260.367 19.9716C261.346 20.3757 262.409 20.5778 263.558 20.5778Z" fill="#8CA1C6"/>
</svg>
