<svg width="276" height="32" viewBox="0 0 276 32" fill="none" xmlns="http://www.w3.org/2000/svg">
<path d="M53.5927 2.91799C53.1955 2.91799 52.8409 3.0031 52.5289 3.17331C52.2168 3.33785 51.9502 3.57898 51.7289 3.89671C51.5076 4.21443 51.3374 4.60308 51.2183 5.06265C51.1048 5.51655 51.0481 6.03285 51.0481 6.61157C51.0481 7.39454 51.1473 8.05269 51.3459 8.58602C51.5445 9.11934 51.8452 9.52218 52.248 9.79451C52.6565 10.0669 53.1672 10.203 53.7799 10.203C54.336 10.203 54.8693 10.1264 55.3799 9.97323C55.8962 9.82004 56.4154 9.63565 56.9374 9.42005V12.2626C56.387 12.5065 55.8225 12.6824 55.2438 12.7902C54.6707 12.898 54.0608 12.9519 53.414 12.9519C52.0636 12.9519 50.9573 12.6853 50.0949 12.1519C49.2381 11.6129 48.6055 10.8668 48.197 9.91366C47.7942 8.96048 47.5928 7.85411 47.5928 6.59455C47.5928 5.65271 47.7233 4.79031 47.9843 4.00734C48.2509 3.22437 48.6396 2.54637 49.1502 1.97332C49.6608 1.3946 50.2906 0.94922 51.0395 0.637166C51.7941 0.319439 52.6565 0.160576 53.6267 0.160576C54.2282 0.160576 54.8608 0.231497 55.5246 0.373339C56.1941 0.509508 56.8466 0.730782 57.482 1.03716L56.4523 3.68394C55.9984 3.46834 55.5388 3.28678 55.0735 3.13927C54.6083 2.99175 54.1147 2.91799 53.5927 2.91799Z" fill="#8CA1C6"/>
<path d="M67.0053 12.7817L66.3926 10.4498H62.3501L61.7203 12.7817H58.0267L62.0862 0.288234H66.5713L70.6819 12.7817H67.0053ZM65.6947 7.69241L65.1585 5.64988C65.1018 5.4286 65.0195 5.11371 64.9117 4.70521C64.8039 4.29103 64.6961 3.8655 64.5883 3.42863C64.4862 2.98608 64.4068 2.62296 64.35 2.33928C64.299 2.62296 64.2252 2.97473 64.1288 3.39458C64.038 3.80876 63.9415 4.22011 63.8394 4.62861C63.743 5.03712 63.6578 5.37754 63.5841 5.64988L63.0479 7.69241H65.6947Z" fill="#8CA1C6"/>
<path d="M83.8817 12.7817H79.4733L74.9286 4.01585H74.852C74.8804 4.28252 74.9059 4.60308 74.9286 4.97754C74.9513 5.35201 74.9712 5.73498 74.9882 6.12647C75.0052 6.51228 75.0137 6.86121 75.0137 7.17326V12.7817H72.0351V0.339297H76.4265L80.9541 8.98601H81.0052C80.9882 8.71367 80.9711 8.39878 80.9541 8.04134C80.9371 7.67822 80.9201 7.31227 80.903 6.94348C80.8917 6.57469 80.886 6.24845 80.886 5.96477V0.339297H83.8817V12.7817Z" fill="#8CA1C6"/>
<path d="M91.0136 4.95201L93.1582 0.339297H96.8007L92.7072 7.92219V12.7817H89.32V8.02432L85.2264 0.339297H88.8859L91.0136 4.95201Z" fill="#8CA1C6"/>
<path d="M109.788 6.54348C109.788 7.50234 109.672 8.37609 109.439 9.16473C109.212 9.9477 108.855 10.6229 108.367 11.1902C107.879 11.7576 107.252 12.1945 106.486 12.5009C105.72 12.8016 104.803 12.9519 103.737 12.9519C102.693 12.9519 101.788 12.8016 101.022 12.5009C100.262 12.1945 99.6348 11.7604 99.1411 11.1988C98.6475 10.6314 98.2816 9.95338 98.0433 9.16473C97.805 8.37609 97.6858 7.49667 97.6858 6.52646C97.6858 5.23286 97.8986 4.10947 98.3241 3.15629C98.7553 2.19743 99.4192 1.45702 100.316 0.935035C101.212 0.407382 102.358 0.143555 103.754 0.143555C105.172 0.143555 106.324 0.407382 107.209 0.935035C108.1 1.46269 108.752 2.20594 109.167 3.1648C109.581 4.12365 109.788 5.24988 109.788 6.54348ZM101.226 6.54348C101.226 7.29241 101.311 7.93638 101.482 8.47538C101.652 9.01438 101.921 9.42856 102.29 9.71792C102.659 10.0073 103.141 10.152 103.737 10.152C104.355 10.152 104.846 10.0073 105.209 9.71792C105.578 9.42856 105.842 9.01438 106.001 8.47538C106.165 7.93638 106.247 7.29241 106.247 6.54348C106.247 5.42009 106.06 4.53216 105.686 3.87968C105.311 3.22721 104.667 2.90097 103.754 2.90097C103.147 2.90097 102.656 3.04849 102.282 3.34352C101.913 3.63855 101.643 4.05841 101.473 4.60308C101.308 5.14776 101.226 5.79456 101.226 6.54348Z" fill="#8CA1C6"/>
<path d="M123.881 12.7817H119.473L114.928 4.01585H114.852C114.88 4.28252 114.906 4.60308 114.928 4.97754C114.951 5.35201 114.971 5.73498 114.988 6.12647C115.005 6.51228 115.013 6.86121 115.013 7.17326V12.7817H112.035V0.339297H116.426L120.954 8.98601H121.005C120.988 8.71367 120.971 8.39878 120.954 8.04134C120.937 7.67822 120.92 7.31227 120.903 6.94348C120.891 6.57469 120.886 6.24845 120.886 5.96477V0.339297H123.881V12.7817Z" fill="#8CA1C6"/>
<path d="M135.405 0.339297C136.982 0.339297 138.162 0.682556 138.945 1.36907C139.734 2.05559 140.128 3.03147 140.128 4.2967C140.128 4.86407 140.046 5.40875 139.881 5.93073C139.722 6.45271 139.458 6.91795 139.09 7.32645C138.727 7.73496 138.241 8.05836 137.634 8.29666C137.033 8.53495 136.29 8.6541 135.405 8.6541H134.46V12.7817H131.098V0.339297H135.405ZM135.328 3.05416H134.46V5.9137H135.124C135.413 5.9137 135.683 5.86548 135.932 5.76902C136.182 5.6669 136.38 5.5052 136.528 5.28392C136.681 5.05698 136.758 4.75627 136.758 4.38181C136.758 3.99032 136.641 3.67259 136.409 3.42863C136.176 3.17898 135.816 3.05416 135.328 3.05416Z" fill="#8CA1C6"/>
<path d="M152.775 12.7817H149.396V7.70943H145.49V12.7817H142.111V0.339297H145.49V4.95201H149.396V0.339297H152.775V12.7817Z" fill="#8CA1C6"/>
<path d="M159.915 4.95201L162.06 0.339297H165.702L161.609 7.92219V12.7817H158.221V8.02432L154.128 0.339297H157.787L159.915 4.95201Z" fill="#8CA1C6"/>
<path d="M175.183 9.00303C175.183 9.6782 175.013 10.3193 174.672 10.9264C174.332 11.5278 173.801 12.0158 173.081 12.3902C172.366 12.7647 171.441 12.9519 170.306 12.9519C169.739 12.9519 169.24 12.9264 168.808 12.8753C168.383 12.8243 167.986 12.742 167.617 12.6285C167.248 12.5094 166.865 12.3562 166.468 12.169V9.17324C167.143 9.51366 167.824 9.77465 168.511 9.95621C169.197 10.1321 169.818 10.22 170.374 10.22C170.709 10.22 170.981 10.1803 171.191 10.1009C171.407 10.0215 171.566 9.91366 171.668 9.77749C171.77 9.63565 171.821 9.47395 171.821 9.29239C171.821 9.07679 171.745 8.89523 171.591 8.74772C171.444 8.59453 171.206 8.43566 170.877 8.27113C170.547 8.10659 170.113 7.90233 169.574 7.65837C169.115 7.44277 168.698 7.22149 168.323 6.99454C167.955 6.7676 167.637 6.50944 167.37 6.22008C167.109 5.92505 166.908 5.58179 166.766 5.19031C166.624 4.79882 166.553 4.33642 166.553 3.80309C166.553 3.0031 166.749 2.3336 167.14 1.7946C167.538 1.24993 168.088 0.841419 168.791 0.569082C169.501 0.296744 170.318 0.160576 171.242 0.160576C172.054 0.160576 172.783 0.251355 173.43 0.432913C174.082 0.614472 174.667 0.821561 175.183 1.05418L174.153 3.6499C173.62 3.40593 173.095 3.21302 172.579 3.07118C172.062 2.92367 171.583 2.84991 171.14 2.84991C170.851 2.84991 170.613 2.88679 170.425 2.96055C170.244 3.02863 170.108 3.12225 170.017 3.24139C169.932 3.36054 169.889 3.49671 169.889 3.6499C169.889 3.8428 169.963 4.01585 170.111 4.16904C170.264 4.32223 170.516 4.48961 170.868 4.67116C171.225 4.84705 171.711 5.07683 172.323 5.36052C172.93 5.63286 173.447 5.92789 173.872 6.24562C174.298 6.55767 174.621 6.93497 174.842 7.37752C175.069 7.81439 175.183 8.35623 175.183 9.00303Z" fill="#8CA1C6"/>
<path d="M177.106 12.7817V0.339297H180.485V12.7817H177.106Z" fill="#8CA1C6"/>
<path d="M194.825 6.54348C194.825 7.50234 194.709 8.37609 194.476 9.16473C194.249 9.9477 193.892 10.6229 193.404 11.1902C192.916 11.7576 192.289 12.1945 191.523 12.5009C190.757 12.8016 189.841 12.9519 188.774 12.9519C187.73 12.9519 186.825 12.8016 186.059 12.5009C185.299 12.1945 184.672 11.7604 184.179 11.1988C183.685 10.6314 183.319 9.95338 183.081 9.16473C182.842 8.37609 182.723 7.49667 182.723 6.52646C182.723 5.23286 182.936 4.10947 183.361 3.15629C183.793 2.19743 184.457 1.45702 185.353 0.935035C186.249 0.407382 187.395 0.143555 188.791 0.143555C190.21 0.143555 191.361 0.407382 192.247 0.935035C193.137 1.46269 193.79 2.20594 194.204 3.1648C194.618 4.12365 194.825 5.24988 194.825 6.54348ZM186.264 6.54348C186.264 7.29241 186.349 7.93638 186.519 8.47538C186.689 9.01438 186.959 9.42856 187.327 9.71792C187.696 10.0073 188.178 10.152 188.774 10.152C189.393 10.152 189.883 10.0073 190.247 9.71792C190.615 9.42856 190.879 9.01438 191.038 8.47538C191.203 7.93638 191.285 7.29241 191.285 6.54348C191.285 5.42009 191.098 4.53216 190.723 3.87968C190.349 3.22721 189.705 2.90097 188.791 2.90097C188.184 2.90097 187.693 3.04849 187.319 3.34352C186.95 3.63855 186.681 4.05841 186.51 4.60308C186.346 5.14776 186.264 5.79456 186.264 6.54348Z" fill="#8CA1C6"/>
<path d="M202.561 12.7817H199.2V3.0882H196.161V0.339297H205.591V3.0882H202.561V12.7817Z" fill="#8CA1C6"/>
<path d="M218.033 12.7817H214.655V7.70943H210.748V12.7817H207.37V0.339297H210.748V4.95201H214.655V0.339297H218.033V12.7817Z" fill="#8CA1C6"/>
<path d="M228.118 12.7817H220.731V0.339297H228.118V3.03714H224.093V4.99457H227.821V7.69241H224.093V10.0413H228.118V12.7817Z" fill="#8CA1C6"/>
<path d="M234.374 0.339297C235.503 0.339297 236.442 0.478303 237.191 0.756314C237.94 1.02865 238.501 1.43716 238.876 1.98183C239.256 2.52651 239.446 3.20451 239.446 4.01585C239.446 4.52081 239.361 4.98038 239.191 5.39456C239.02 5.80874 238.776 6.18037 238.459 6.50944C238.147 6.83284 237.772 7.11653 237.335 7.3605L240.961 12.7817H237.148L234.51 8.2541H233.659V12.7817H230.297V0.339297H234.374ZM234.323 2.88395H233.659V5.72647H234.289C234.805 5.72647 235.228 5.613 235.557 5.38605C235.886 5.1591 236.05 4.75343 236.05 4.16904C236.05 3.76621 235.914 3.45132 235.642 3.22437C235.369 2.99742 234.93 2.88395 234.323 2.88395Z" fill="#8CA1C6"/>
<path d="M249.727 12.7817L249.114 10.4498H245.071L244.442 12.7817H240.748L244.808 0.288234H249.293L253.403 12.7817H249.727ZM248.416 7.69241L247.88 5.64988C247.823 5.4286 247.741 5.11371 247.633 4.70521C247.525 4.29103 247.418 3.8655 247.31 3.42863C247.208 2.98608 247.128 2.62296 247.071 2.33928C247.02 2.62296 246.947 2.97473 246.85 3.39458C246.759 3.80876 246.663 4.22011 246.561 4.62861C246.464 5.03712 246.379 5.37754 246.305 5.64988L245.769 7.69241H248.416Z" fill="#8CA1C6"/>
<path d="M259.063 0.339297C260.64 0.339297 261.82 0.682556 262.603 1.36907C263.392 2.05559 263.786 3.03147 263.786 4.2967C263.786 4.86407 263.704 5.40875 263.539 5.93073C263.38 6.45271 263.117 6.91795 262.748 7.32645C262.385 7.73496 261.9 8.05836 261.293 8.29666C260.691 8.53495 259.948 8.6541 259.063 8.6541H258.118V12.7817H254.756V0.339297H259.063ZM258.986 3.05416H258.118V5.9137H258.782C259.071 5.9137 259.341 5.86548 259.59 5.76902C259.84 5.6669 260.039 5.5052 260.186 5.28392C260.339 5.05698 260.416 4.75627 260.416 4.38181C260.416 3.99032 260.3 3.67259 260.067 3.42863C259.834 3.17898 259.474 3.05416 258.986 3.05416Z" fill="#8CA1C6"/>
<path d="M270.212 4.95201L272.356 0.339297H275.999L271.905 7.92219V12.7817H268.518V8.02432L264.424 0.339297H268.084L270.212 4.95201Z" fill="#8CA1C6"/>
<path d="M137.702 31.7606H131.852V21.2537H137.702V22.3317H133.074V25.731H137.436V26.7946H133.074V30.6826H137.702V31.7606Z" fill="#8CA1C6"/>
<path d="M145.959 28.965C145.959 29.5878 145.804 30.1196 145.492 30.5604C145.186 30.9964 144.754 31.3294 144.199 31.5594C143.643 31.7894 142.989 31.9043 142.237 31.9043C141.839 31.9043 141.463 31.8852 141.108 31.8468C140.754 31.8085 140.428 31.7534 140.131 31.6816C139.834 31.6097 139.573 31.5211 139.348 31.4156V30.2442C139.707 30.3927 140.145 30.5317 140.663 30.661C141.18 30.7856 141.722 30.8479 142.287 30.8479C142.814 30.8479 143.26 30.7784 143.624 30.6395C143.988 30.4958 144.263 30.2921 144.45 30.0286C144.642 29.7603 144.738 29.4393 144.738 29.0656C144.738 28.7063 144.659 28.4068 144.5 28.1673C144.342 27.9229 144.079 27.7025 143.71 27.5061C143.346 27.3049 142.848 27.0917 142.215 26.8665C141.77 26.7084 141.377 26.5359 141.036 26.349C140.696 26.1574 140.411 25.9418 140.181 25.7022C139.951 25.4627 139.776 25.1848 139.657 24.8686C139.542 24.5524 139.484 24.1906 139.484 23.7834C139.484 23.2228 139.625 22.7437 139.908 22.3461C140.196 21.9436 140.591 21.637 141.094 21.4262C141.602 21.2106 142.184 21.1028 142.84 21.1028C143.401 21.1028 143.918 21.1555 144.393 21.2609C144.872 21.3663 145.31 21.5076 145.708 21.6849L145.327 22.7341C144.948 22.576 144.546 22.4443 144.12 22.3389C143.698 22.2335 143.262 22.1808 142.812 22.1808C142.361 22.1808 141.98 22.2478 141.669 22.382C141.362 22.5113 141.128 22.6958 140.965 22.9354C140.802 23.1749 140.72 23.46 140.72 23.7906C140.72 24.1595 140.797 24.4661 140.95 24.7105C141.108 24.9548 141.357 25.1728 141.698 25.3645C142.043 25.5513 142.498 25.7478 143.063 25.9538C143.681 26.179 144.206 26.4185 144.637 26.6724C145.068 26.9216 145.396 27.2282 145.622 27.5923C145.847 27.9517 145.959 28.4092 145.959 28.965Z" fill="#8CA1C6"/>
<path d="M151.335 31.7606H150.106V22.3317H146.8V21.2537H154.626V22.3317H151.335V31.7606Z" fill="#8CA1C6"/>
<path d="M163.768 31.7606H162.604V24.3152C162.604 24.0325 162.604 23.7906 162.604 23.5893C162.609 23.3833 162.613 23.1965 162.618 23.0288C162.628 22.8563 162.64 22.6814 162.654 22.5042C162.505 22.6575 162.367 22.7892 162.237 22.8994C162.108 23.0048 161.947 23.1366 161.756 23.2947L160.556 24.2577L159.93 23.4456L162.776 21.2537H163.768V31.7606Z" fill="#8CA1C6"/>
<path d="M174.649 25.731C174.649 26.3682 174.603 26.9887 174.512 27.5923C174.426 28.196 174.275 28.759 174.059 29.2812C173.848 29.8034 173.561 30.261 173.197 30.6539C172.833 31.0467 172.375 31.3558 171.824 31.5809C171.278 31.8013 170.624 31.9115 169.862 31.9115C169.656 31.9115 169.421 31.8972 169.158 31.8684C168.894 31.8445 168.679 31.8085 168.511 31.7606V30.7257C168.688 30.788 168.897 30.8383 169.136 30.8766C169.376 30.9102 169.611 30.927 169.841 30.927C170.737 30.927 171.441 30.7353 171.954 30.352C172.466 29.9639 172.835 29.4393 173.06 28.7781C173.286 28.1122 173.412 27.3648 173.441 26.5359H173.355C173.211 26.7659 173.022 26.9791 172.787 27.1755C172.557 27.3671 172.277 27.5229 171.946 27.6426C171.616 27.7576 171.23 27.8151 170.789 27.8151C170.181 27.8151 169.649 27.6906 169.194 27.4414C168.744 27.1923 168.391 26.8305 168.137 26.3562C167.888 25.8819 167.764 25.3094 167.764 24.6386C167.764 23.9151 167.9 23.2899 168.173 22.7629C168.451 22.2311 168.839 21.8214 169.338 21.534C169.836 21.2465 170.423 21.1028 171.098 21.1028C171.616 21.1028 172.09 21.201 172.521 21.3974C172.953 21.5938 173.326 21.8885 173.642 22.2814C173.963 22.6695 174.21 23.151 174.383 23.7259C174.56 24.3008 174.649 24.9692 174.649 25.731ZM171.098 22.1161C170.461 22.1161 169.944 22.3245 169.546 22.7413C169.153 23.1581 168.957 23.7858 168.957 24.6242C168.957 25.3189 169.127 25.8675 169.467 26.27C169.807 26.6724 170.332 26.8737 171.041 26.8737C171.53 26.8737 171.951 26.7754 172.306 26.579C172.665 26.3826 172.941 26.1334 173.132 25.8316C173.329 25.5298 173.427 25.2207 173.427 24.9045C173.427 24.5883 173.379 24.2673 173.283 23.9415C173.192 23.6157 173.051 23.3163 172.859 23.0432C172.667 22.7653 172.426 22.5425 172.133 22.3748C171.841 22.2023 171.496 22.1161 171.098 22.1161Z" fill="#8CA1C6"/>
<path d="M183.071 25.731C183.071 26.3682 183.026 26.9887 182.935 27.5923C182.849 28.196 182.698 28.759 182.482 29.2812C182.271 29.8034 181.984 30.261 181.62 30.6539C181.256 31.0467 180.798 31.3558 180.247 31.5809C179.701 31.8013 179.047 31.9115 178.285 31.9115C178.079 31.9115 177.844 31.8972 177.581 31.8684C177.317 31.8445 177.102 31.8085 176.934 31.7606V30.7257C177.111 30.788 177.32 30.8383 177.559 30.8766C177.799 30.9102 178.034 30.927 178.263 30.927C179.159 30.927 179.864 30.7353 180.376 30.352C180.889 29.9639 181.258 29.4393 181.483 28.7781C181.708 28.1122 181.835 27.3648 181.864 26.5359H181.778C181.634 26.7659 181.445 26.9791 181.21 27.1755C180.98 27.3671 180.7 27.5229 180.369 27.6426C180.039 27.7576 179.653 27.8151 179.212 27.8151C178.604 27.8151 178.072 27.6906 177.617 27.4414C177.166 27.1923 176.814 26.8305 176.56 26.3562C176.311 25.8819 176.187 25.3094 176.187 24.6386C176.187 23.9151 176.323 23.2899 176.596 22.7629C176.874 22.2311 177.262 21.8214 177.76 21.534C178.259 21.2465 178.846 21.1028 179.521 21.1028C180.039 21.1028 180.513 21.201 180.944 21.3974C181.375 21.5938 181.749 21.8885 182.065 22.2814C182.386 22.6695 182.633 23.151 182.805 23.7259C182.983 24.3008 183.071 24.9692 183.071 25.731ZM179.521 22.1161C178.884 22.1161 178.367 22.3245 177.969 22.7413C177.576 23.1581 177.38 23.7858 177.38 24.6242C177.38 25.3189 177.55 25.8675 177.89 26.27C178.23 26.6724 178.755 26.8737 179.464 26.8737C179.952 26.8737 180.374 26.7754 180.729 26.579C181.088 26.3826 181.363 26.1334 181.555 25.8316C181.751 25.5298 181.85 25.2207 181.85 24.9045C181.85 24.5883 181.802 24.2673 181.706 23.9415C181.615 23.6157 181.474 23.3163 181.282 23.0432C181.09 22.7653 180.848 22.5425 180.556 22.3748C180.264 22.2023 179.919 22.1161 179.521 22.1161Z" fill="#8CA1C6"/>
<path d="M191.092 23.7043C191.092 24.1739 191.001 24.5811 190.819 24.9261C190.637 25.271 190.383 25.5537 190.057 25.7741C189.731 25.9897 189.348 26.1406 188.907 26.2269V26.2844C189.741 26.3898 190.366 26.6581 190.783 27.0893C191.204 27.5205 191.415 28.0858 191.415 28.7853C191.415 29.3938 191.271 29.9328 190.984 30.4023C190.701 30.8719 190.265 31.2408 189.676 31.5091C189.091 31.7726 188.342 31.9043 187.427 31.9043C186.871 31.9043 186.356 31.8588 185.881 31.7678C185.412 31.6816 184.961 31.5354 184.53 31.3294V30.2083C184.966 30.4239 185.441 30.594 185.953 30.7185C186.466 30.8383 186.962 30.8982 187.441 30.8982C188.399 30.8982 189.091 30.709 189.518 30.3305C189.944 29.9472 190.157 29.4249 190.157 28.7638C190.157 28.3086 190.038 27.9421 189.798 27.6642C189.563 27.3815 189.223 27.1755 188.778 27.0461C188.337 26.912 187.805 26.8449 187.182 26.8449H186.133V25.8244H187.189C187.759 25.8244 188.243 25.7406 188.641 25.5729C189.039 25.4052 189.341 25.1704 189.547 24.8686C189.757 24.5619 189.863 24.2002 189.863 23.7834C189.863 23.2516 189.686 22.8419 189.331 22.5545C188.976 22.2622 188.495 22.1161 187.886 22.1161C187.513 22.1161 187.173 22.1544 186.866 22.2311C186.559 22.3077 186.272 22.4131 186.004 22.5473C185.735 22.6814 185.467 22.8371 185.199 23.0144L184.595 22.1951C184.978 21.8981 185.445 21.6418 185.996 21.4262C186.547 21.2106 187.173 21.1028 187.872 21.1028C188.945 21.1028 189.75 21.3471 190.287 21.8358C190.823 22.3245 191.092 22.9473 191.092 23.7043Z" fill="#8CA1C6"/>
<path d="M19.5996 21.1974C14.2632 19.2272 10.7809 15.987 10.7809 12.3237C10.7809 6.31818 20.1393 1.44984 31.6835 1.44984C33.9836 1.44984 36.1969 1.64311 38.2667 2.00011C34.8549 0.740495 30.6851 0 26.1828 0C14.6387 0 5.28027 4.86834 5.28027 10.8738C5.28027 15.6828 11.281 19.7625 19.5996 21.1974Z" fill="#8CA1C6"/>
<path d="M18.667 10.5634C24.0034 12.5335 27.4857 15.7737 27.4857 19.4371C27.4857 25.4426 18.1273 30.3109 6.5831 30.3109C4.28302 30.3109 2.0697 30.1176 -0.000113517 29.7606C3.41173 31.0202 7.58153 31.7607 12.0838 31.7607C23.6279 31.7607 32.9863 26.8924 32.9863 20.8869C32.9863 16.078 26.9856 11.9983 18.667 10.5634Z" fill="#8CA1C6"/>
<ellipse cx="16.9414" cy="15.3273" rx="2.86035" ry="2.69256" fill="#8CA1C6"/>
<ellipse cx="31.0234" cy="10.5633" rx="2.86035" ry="2.69256" transform="rotate(-180 31.0234 10.5633)" fill="#8CA1C6"/>
</svg>
