<svg width="330" height="44" viewBox="0 0 330 44" fill="none" xmlns="http://www.w3.org/2000/svg">
<path d="M66.216 6.40822C66.84 6.40822 67.36 6.36489 67.776 6.27822C68.192 6.17422 68.5213 6.03555 68.764 5.86222C69.0067 5.68889 69.18 5.48955 69.284 5.26422C69.388 5.02155 69.44 4.76155 69.44 4.48422C69.44 4.20689 69.388 3.95555 69.284 3.73022C69.18 3.48755 69.0067 3.27955 68.764 3.10622C68.5213 2.93289 68.192 2.80289 67.776 2.71622C67.36 2.61222 66.84 2.56022 66.216 2.56022H61.718V6.40822H66.216ZM66.892 0.324219C67.724 0.324219 68.478 0.402219 69.154 0.558219C69.83 0.696886 70.4107 0.930886 70.896 1.26022C71.3813 1.57222 71.754 1.98822 72.014 2.50822C72.274 3.01089 72.404 3.63489 72.404 4.38022C72.404 5.52422 72.066 6.39955 71.39 7.00622C70.714 7.61289 69.804 8.02022 68.66 8.22822L72.118 13.1682C72.2393 13.3416 72.378 13.4456 72.534 13.4802C72.7073 13.5149 72.8633 13.5322 73.002 13.5322V14.0002H68.14V13.5322C68.296 13.5322 68.426 13.5062 68.53 13.4542C68.6513 13.4022 68.712 13.3329 68.712 13.2462C68.712 13.1596 68.6773 13.0642 68.608 12.9602C68.5387 12.8389 68.4347 12.6829 68.296 12.4922L65.436 8.43622H61.718V13.0642C61.718 13.2202 61.77 13.3416 61.874 13.4282C61.9953 13.4976 62.2033 13.5322 62.498 13.5322V14.0002H58V13.5322C58.5027 13.5322 58.754 13.3762 58.754 13.0642V1.26022C58.754 0.948219 58.5027 0.792219 58 0.792219V0.324219H66.892Z" fill="#8CA1C6"/>
<path d="M83.9137 4.32822C83.359 4.32822 82.813 4.42355 82.2757 4.61422C81.7557 4.78755 81.2877 5.04755 80.8717 5.39422C80.4557 5.72355 80.1177 6.13089 79.8577 6.61622C79.615 7.10155 79.4937 7.65622 79.4937 8.28022C79.4937 8.90422 79.615 9.45889 79.8577 9.94422C80.1177 10.4296 80.4557 10.8456 80.8717 11.1922C81.2877 11.5216 81.7557 11.7816 82.2757 11.9722C82.813 12.1456 83.359 12.2322 83.9137 12.2322C84.4683 12.2322 85.0057 12.1456 85.5257 11.9722C86.063 11.7816 86.5397 11.5216 86.9557 11.1922C87.3717 10.8456 87.701 10.4296 87.9437 9.94422C88.2037 9.45889 88.3337 8.90422 88.3337 8.28022C88.3337 7.65622 88.2037 7.10155 87.9437 6.61622C87.701 6.13089 87.3717 5.72355 86.9557 5.39422C86.5397 5.04755 86.063 4.78755 85.5257 4.61422C85.0057 4.42355 84.4683 4.32822 83.9137 4.32822ZM83.9137 2.40422C84.867 2.40422 85.7597 2.52555 86.5917 2.76822C87.441 3.01089 88.1777 3.37489 88.8017 3.86022C89.4257 4.34555 89.9197 4.96089 90.2837 5.70622C90.6477 6.43422 90.8297 7.29222 90.8297 8.28022C90.8297 9.26822 90.6477 10.1349 90.2837 10.8802C89.9197 11.6082 89.4257 12.2149 88.8017 12.7002C88.1777 13.1856 87.441 13.5409 86.5917 13.7662C85.7597 13.9742 84.867 14.0782 83.9137 14.0782C82.9603 14.0782 82.059 13.9742 81.2097 13.7662C80.3777 13.5409 79.6497 13.1856 79.0257 12.7002C78.4017 12.2149 77.9077 11.6082 77.5437 10.8802C77.1797 10.1349 76.9977 9.26822 76.9977 8.28022C76.9977 7.29222 77.1797 6.43422 77.5437 5.70622C77.9077 4.96089 78.4017 4.34555 79.0257 3.86022C79.6497 3.37489 80.3777 3.01089 81.2097 2.76822C82.059 2.52555 82.9603 2.40422 83.9137 2.40422Z" fill="#8CA1C6"/>
<path d="M98.8202 3.02822C98.4389 3.02822 98.2482 3.15822 98.2482 3.41822V9.37222C98.2482 10.2042 98.5515 10.8716 99.1582 11.3742C99.7649 11.8769 100.692 12.1282 101.94 12.1282C103.188 12.1282 104.116 11.8769 104.722 11.3742C105.329 10.8716 105.632 10.2042 105.632 9.37222V3.41822C105.632 3.15822 105.416 3.02822 104.982 3.02822V2.56022H108.596V3.02822C108.215 3.02822 108.024 3.15822 108.024 3.41822V9.99622C108.024 10.5336 107.903 11.0536 107.66 11.5562C107.418 12.0416 107.045 12.4749 106.542 12.8562C106.057 13.2376 105.424 13.5409 104.644 13.7662C103.882 13.9742 102.98 14.0782 101.94 14.0782C100.9 14.0782 99.9902 13.9742 99.2102 13.7662C98.4475 13.5409 97.8149 13.2376 97.3122 12.8562C96.8269 12.4749 96.4629 12.0416 96.2202 11.5562C95.9775 11.0536 95.8562 10.5336 95.8562 9.99622V3.41822C95.8562 3.27955 95.8042 3.18422 95.7002 3.13222C95.5962 3.06289 95.3969 3.02822 95.1022 3.02822V2.56022H98.8202V3.02822Z" fill="#8CA1C6"/>
<path d="M113.926 13.5322C114.238 13.5322 114.394 13.4022 114.394 13.1422V3.41822C114.394 3.15822 114.238 3.02822 113.926 3.02822V2.56022H117.748V3.02822C117.627 3.04555 117.566 3.08889 117.566 3.15822C117.566 3.24489 117.757 3.47889 118.138 3.86022L124.378 10.4642V3.41822C124.378 3.15822 124.205 3.02822 123.858 3.02822V2.56022H127.03V3.02822C126.718 3.02822 126.562 3.15822 126.562 3.41822V13.1422C126.562 13.4022 126.718 13.5322 127.03 13.5322V14.0002H123.65V13.5322C123.771 13.5322 123.832 13.4889 123.832 13.4022C123.832 13.3329 123.745 13.2116 123.572 13.0382C123.416 12.8649 123.234 12.6656 123.026 12.4402L116.578 5.57622V13.1422C116.578 13.4022 116.76 13.5322 117.124 13.5322V14.0002H113.926V13.5322Z" fill="#8CA1C6"/>
<path d="M138.678 12.0762C139.215 12.0762 139.726 12.0416 140.212 11.9722C140.697 11.8856 141.122 11.7122 141.486 11.4522C141.85 11.1749 142.136 10.7849 142.344 10.2822C142.569 9.76222 142.682 9.06889 142.682 8.20222C142.682 7.33555 142.569 6.65955 142.344 6.17422C142.136 5.67155 141.85 5.29889 141.486 5.05622C141.122 4.79622 140.697 4.64022 140.212 4.58822C139.726 4.51889 139.215 4.48422 138.678 4.48422H135.298V12.0762H138.678ZM132.204 13.5322C132.602 13.5322 132.802 13.4022 132.802 13.1422V3.41822C132.802 3.15822 132.602 3.02822 132.204 3.02822V2.56022H139.432C140.454 2.56022 141.33 2.72489 142.058 3.05422C142.786 3.38355 143.375 3.81689 143.826 4.35422C144.294 4.87422 144.632 5.48089 144.84 6.17422C145.065 6.85022 145.178 7.55222 145.178 8.28022C145.178 9.00822 145.074 9.71889 144.866 10.4122C144.658 11.0882 144.328 11.6949 143.878 12.2322C143.427 12.7522 142.846 13.1769 142.136 13.5062C141.425 13.8356 140.558 14.0002 139.536 14.0002H132.204V13.5322Z" fill="#8CA1C6"/>
<path d="M167.174 6.40822C167.798 6.40822 168.318 6.36489 168.734 6.27822C169.15 6.17422 169.48 6.03555 169.722 5.86222C169.965 5.68889 170.138 5.48955 170.242 5.26422C170.346 5.02155 170.398 4.76155 170.398 4.48422C170.398 4.20689 170.346 3.95555 170.242 3.73022C170.138 3.48755 169.965 3.27955 169.722 3.10622C169.48 2.93289 169.15 2.80289 168.734 2.71622C168.318 2.61222 167.798 2.56022 167.174 2.56022H162.676V6.40822H167.174ZM167.85 0.324219C168.682 0.324219 169.436 0.402219 170.112 0.558219C170.788 0.696886 171.369 0.930886 171.854 1.26022C172.34 1.57222 172.712 1.98822 172.972 2.50822C173.232 3.01089 173.362 3.63489 173.362 4.38022C173.362 5.52422 173.024 6.39955 172.348 7.00622C171.672 7.61289 170.762 8.02022 169.618 8.22822L173.076 13.1682C173.198 13.3416 173.336 13.4456 173.492 13.4802C173.666 13.5149 173.822 13.5322 173.96 13.5322V14.0002H169.098V13.5322C169.254 13.5322 169.384 13.5062 169.488 13.4542C169.61 13.4022 169.67 13.3329 169.67 13.2462C169.67 13.1596 169.636 13.0642 169.566 12.9602C169.497 12.8389 169.393 12.6829 169.254 12.4922L166.394 8.43622H162.676V13.0642C162.676 13.2202 162.728 13.3416 162.832 13.4282C162.954 13.4976 163.162 13.5322 163.456 13.5322V14.0002H158.958V13.5322C159.461 13.5322 159.712 13.3762 159.712 13.0642V1.26022C159.712 0.948219 159.461 0.792219 158.958 0.792219V0.324219H167.85Z" fill="#8CA1C6"/>
<path d="M184.872 4.32822C184.317 4.32822 183.771 4.42355 183.234 4.61422C182.714 4.78755 182.246 5.04755 181.83 5.39422C181.414 5.72355 181.076 6.13089 180.816 6.61622C180.573 7.10155 180.452 7.65622 180.452 8.28022C180.452 8.90422 180.573 9.45889 180.816 9.94422C181.076 10.4296 181.414 10.8456 181.83 11.1922C182.246 11.5216 182.714 11.7816 183.234 11.9722C183.771 12.1456 184.317 12.2322 184.872 12.2322C185.427 12.2322 185.964 12.1456 186.484 11.9722C187.021 11.7816 187.498 11.5216 187.914 11.1922C188.33 10.8456 188.659 10.4296 188.902 9.94422C189.162 9.45889 189.292 8.90422 189.292 8.28022C189.292 7.65622 189.162 7.10155 188.902 6.61622C188.659 6.13089 188.33 5.72355 187.914 5.39422C187.498 5.04755 187.021 4.78755 186.484 4.61422C185.964 4.42355 185.427 4.32822 184.872 4.32822ZM184.872 2.40422C185.825 2.40422 186.718 2.52555 187.55 2.76822C188.399 3.01089 189.136 3.37489 189.76 3.86022C190.384 4.34555 190.878 4.96089 191.242 5.70622C191.606 6.43422 191.788 7.29222 191.788 8.28022C191.788 9.26822 191.606 10.1349 191.242 10.8802C190.878 11.6082 190.384 12.2149 189.76 12.7002C189.136 13.1856 188.399 13.5409 187.55 13.7662C186.718 13.9742 185.825 14.0782 184.872 14.0782C183.919 14.0782 183.017 13.9742 182.168 13.7662C181.336 13.5409 180.608 13.1856 179.984 12.7002C179.36 12.2149 178.866 11.6082 178.502 10.8802C178.138 10.1349 177.956 9.26822 177.956 8.28022C177.956 7.29222 178.138 6.43422 178.502 5.70622C178.866 4.96089 179.36 4.34555 179.984 3.86022C180.608 3.37489 181.336 3.01089 182.168 2.76822C183.017 2.52555 183.919 2.40422 184.872 2.40422Z" fill="#8CA1C6"/>
<path d="M205.29 5.83622C205.29 5.80155 205.282 5.76689 205.264 5.73222C205.264 5.69755 205.264 5.65422 205.264 5.60222C205.264 5.51555 205.178 5.40289 205.004 5.26422C204.831 5.10822 204.58 4.96089 204.25 4.82222C203.938 4.68355 203.566 4.57089 203.132 4.48422C202.699 4.38022 202.222 4.32822 201.702 4.32822C201.078 4.32822 200.506 4.41489 199.986 4.58822C199.484 4.74422 199.042 4.98689 198.66 5.31622C198.279 5.64555 197.984 6.05289 197.776 6.53822C197.568 7.02355 197.464 7.57822 197.464 8.20222C197.464 8.82622 197.577 9.38955 197.802 9.89222C198.045 10.3776 198.357 10.8022 198.738 11.1662C199.12 11.5129 199.553 11.7816 200.038 11.9722C200.524 12.1456 201.018 12.2322 201.52 12.2322C201.988 12.2322 202.465 12.1716 202.95 12.0502C203.436 11.9289 203.878 11.7902 204.276 11.6342C204.675 11.4609 204.996 11.2789 205.238 11.0882C205.498 10.8976 205.628 10.7242 205.628 10.5682V10.3602C205.628 10.2562 205.62 10.1696 205.602 10.1002L205.888 9.84022L207.812 12.5962L207.552 12.7262C207.344 12.6396 207.197 12.5962 207.11 12.5962C206.972 12.5962 206.746 12.6742 206.434 12.8302C206.122 12.9862 205.724 13.1682 205.238 13.3762C204.77 13.5669 204.216 13.7316 203.574 13.8702C202.95 14.0089 202.248 14.0782 201.468 14.0782C200.671 14.0782 199.882 13.9656 199.102 13.7402C198.322 13.5149 197.629 13.1596 197.022 12.6742C196.416 12.1716 195.922 11.5562 195.54 10.8282C195.159 10.0829 194.968 9.22489 194.968 8.25422C194.968 7.28355 195.159 6.43422 195.54 5.70622C195.922 4.97822 196.424 4.37155 197.048 3.88622C197.672 3.38355 198.383 3.01089 199.18 2.76822C199.995 2.52555 200.827 2.40422 201.676 2.40422C202.335 2.40422 202.933 2.46489 203.47 2.58622C204.025 2.70755 204.51 2.84622 204.926 3.00222C205.342 3.15822 205.689 3.29689 205.966 3.41822C206.244 3.53955 206.443 3.60022 206.564 3.60022C206.651 3.60022 206.72 3.57422 206.772 3.52222C206.842 3.47022 206.911 3.42689 206.98 3.39222L207.292 3.57422L205.576 6.04422L205.29 5.83622Z" fill="#8CA1C6"/>
<path d="M214.72 13.1422C214.72 13.4022 214.884 13.5322 215.214 13.5322V14.0002H211.808V13.5322C212.085 13.5322 212.224 13.4022 212.224 13.1422V3.41822C212.224 3.15822 212.085 3.02822 211.808 3.02822V2.56022H215.214V3.02822C214.884 3.02822 214.72 3.15822 214.72 3.41822V7.65622C215.309 7.17089 215.916 6.68555 216.54 6.20022C217.164 5.69755 217.727 5.23822 218.23 4.82222C218.732 4.40622 219.148 4.05955 219.478 3.78222C219.807 3.48755 219.972 3.30555 219.972 3.23622C219.972 3.14955 219.92 3.08022 219.816 3.02822C219.729 2.97622 219.642 2.95022 219.556 2.95022V2.56022H223.846V3.02822C223.638 3.09755 223.326 3.29689 222.91 3.62622L218.568 7.13622L222.676 12.2322C222.884 12.4922 223.109 12.7609 223.352 13.0382C223.594 13.2982 223.837 13.4629 224.08 13.5322V14.0002H220.232V13.5322C220.422 13.5322 220.518 13.4802 220.518 13.3762C220.518 13.3069 220.474 13.2116 220.388 13.0902C220.318 12.9689 220.171 12.7782 219.946 12.5182L216.748 8.61822L214.72 10.2302V13.1422Z" fill="#8CA1C6"/>
<path d="M246.293 6.04422C246.865 6.04422 247.35 5.93155 247.749 5.70622C248.165 5.48089 248.373 5.03889 248.373 4.38022C248.373 3.72155 248.165 3.27955 247.749 3.05422C247.35 2.82889 246.865 2.71622 246.293 2.71622H240.755V6.04422H246.293ZM236.829 14.0002V13.5322C237.47 13.5322 237.791 13.3762 237.791 13.0642V1.26022C237.791 0.948219 237.47 0.792219 236.829 0.792219V0.324219H245.981C247.645 0.324219 248.953 0.636219 249.907 1.26022C250.86 1.86689 251.337 2.90689 251.337 4.38022C251.337 5.85355 250.86 6.90222 249.907 7.52622C248.953 8.13289 247.645 8.43622 245.981 8.43622H240.755V13.0642C240.755 13.3762 241.032 13.5322 241.587 13.5322V14.0002H236.829Z" fill="#8CA1C6"/>
<path d="M258.669 13.1422C258.669 13.2809 258.703 13.3849 258.773 13.4542C258.859 13.5062 258.955 13.5322 259.059 13.5322V14.0002H255.783V13.5322C255.887 13.5322 255.973 13.5062 256.043 13.4542C256.129 13.3849 256.173 13.2809 256.173 13.1422V3.41822C256.173 3.27955 256.129 3.18422 256.043 3.13222C255.973 3.06289 255.887 3.02822 255.783 3.02822V2.56022H259.059V3.02822C258.955 3.02822 258.859 3.06289 258.773 3.13222C258.703 3.18422 258.669 3.27955 258.669 3.41822V7.08422H265.637V3.41822C265.637 3.27955 265.593 3.18422 265.507 3.13222C265.437 3.06289 265.351 3.02822 265.247 3.02822V2.56022H268.523V3.02822C268.419 3.02822 268.323 3.06289 268.237 3.13222C268.167 3.18422 268.133 3.27955 268.133 3.41822V13.1422C268.133 13.2809 268.167 13.3849 268.237 13.4542C268.323 13.5062 268.419 13.5322 268.523 13.5322V14.0002H265.247V13.5322C265.351 13.5322 265.437 13.5062 265.507 13.4542C265.593 13.3849 265.637 13.2809 265.637 13.1422V9.21622H258.669V13.1422Z" fill="#8CA1C6"/>
<path d="M273.696 3.47022C273.575 3.31422 273.428 3.20155 273.254 3.13222C273.081 3.06289 272.916 3.02822 272.76 3.02822V2.56022H277.05V3.02822C276.964 3.02822 276.868 3.06289 276.764 3.13222C276.66 3.18422 276.608 3.26222 276.608 3.36622C276.608 3.47022 276.643 3.56555 276.712 3.65222C276.782 3.73889 276.86 3.84289 276.946 3.96422L279.572 7.39622L281.886 4.17222C282.042 3.94689 282.155 3.78222 282.224 3.67822C282.311 3.55689 282.354 3.44422 282.354 3.34022C282.354 3.20155 282.311 3.11489 282.224 3.08022C282.138 3.04555 282.051 3.02822 281.964 3.02822V2.56022H285.942V3.02822C285.734 3.02822 285.5 3.14955 285.24 3.39222C284.998 3.61755 284.781 3.85155 284.59 4.09422L280.612 9.24222V13.1422C280.612 13.4022 280.777 13.5322 281.106 13.5322V14.0002H277.648V13.5322C277.96 13.5322 278.116 13.4022 278.116 13.1422V9.13822L273.696 3.47022Z" fill="#8CA1C6"/>
<path d="M290.77 10.0222C290.77 10.0916 290.761 10.1696 290.744 10.2562C290.744 10.3256 290.744 10.4036 290.744 10.4902C290.744 10.7502 290.908 10.9929 291.238 11.2182C291.567 11.4262 291.957 11.6082 292.408 11.7642C292.876 11.9029 293.335 12.0156 293.786 12.1022C294.254 12.1889 294.618 12.2322 294.878 12.2322C295.12 12.2322 295.415 12.2149 295.762 12.1802C296.126 12.1456 296.481 12.0762 296.828 11.9722C297.174 11.8509 297.469 11.6949 297.712 11.5042C297.954 11.2962 298.076 11.0276 298.076 10.6982C298.076 10.3169 297.859 10.0396 297.426 9.86622C297.01 9.69289 296.481 9.56289 295.84 9.47622C295.198 9.37222 294.505 9.27689 293.76 9.19022C293.014 9.08622 292.321 8.93022 291.68 8.72222C291.038 8.49689 290.501 8.18489 290.068 7.78622C289.652 7.37022 289.444 6.78955 289.444 6.04422C289.444 4.93489 289.903 4.05089 290.822 3.39222C291.74 2.73355 293.032 2.40422 294.696 2.40422C295.51 2.40422 296.204 2.47355 296.776 2.61222C297.365 2.73355 297.859 2.87222 298.258 3.02822C298.656 3.18422 298.977 3.33155 299.22 3.47022C299.48 3.59155 299.67 3.65222 299.792 3.65222C299.93 3.65222 300.034 3.63489 300.104 3.60022C300.173 3.54822 300.26 3.49622 300.364 3.44422L300.65 3.73022L299.35 6.17422L298.882 6.01822C298.864 5.91422 298.847 5.81022 298.83 5.70622C298.812 5.60222 298.734 5.49822 298.596 5.39422C298.249 5.09955 297.712 4.84822 296.984 4.64022C296.256 4.43222 295.441 4.32822 294.54 4.32822C294.193 4.32822 293.864 4.35422 293.552 4.40622C293.24 4.44089 292.962 4.51022 292.72 4.61422C292.477 4.71822 292.286 4.85689 292.148 5.03022C292.009 5.18622 291.94 5.38555 291.94 5.62822C291.94 6.00955 292.148 6.28689 292.564 6.46022C292.997 6.61622 293.534 6.74622 294.176 6.85022C294.817 6.93689 295.51 7.03222 296.256 7.13622C297.001 7.22289 297.694 7.37889 298.336 7.60422C298.977 7.82955 299.506 8.15889 299.922 8.59222C300.355 9.02555 300.572 9.62355 300.572 10.3862C300.572 11.1489 300.381 11.7729 300 12.2582C299.636 12.7436 299.176 13.1249 298.622 13.4022C298.067 13.6796 297.452 13.8616 296.776 13.9482C296.117 14.0349 295.493 14.0782 294.904 14.0782C294.314 14.0782 293.725 14.0262 293.136 13.9222C292.564 13.8009 292.035 13.6709 291.55 13.5322C291.082 13.3762 290.683 13.2376 290.354 13.1162C290.024 12.9776 289.825 12.9082 289.756 12.9082C289.634 12.9082 289.53 12.9602 289.444 13.0642L289.08 12.8042L290.276 9.89222L290.77 10.0222Z" fill="#8CA1C6"/>
<path d="M305.971 13.5322C306.248 13.5322 306.439 13.5062 306.543 13.4542C306.647 13.3849 306.699 13.2809 306.699 13.1422V3.41822C306.699 3.27955 306.647 3.18422 306.543 3.13222C306.439 3.06289 306.248 3.02822 305.971 3.02822V2.56022H309.923V3.02822C309.438 3.02822 309.195 3.15822 309.195 3.41822V13.1422C309.195 13.4022 309.438 13.5322 309.923 13.5322V14.0002H305.971V13.5322Z" fill="#8CA1C6"/>
<path d="M321.519 4.32822C320.964 4.32822 320.418 4.42355 319.881 4.61422C319.361 4.78755 318.893 5.04755 318.477 5.39422C318.061 5.72355 317.723 6.13089 317.463 6.61622C317.22 7.10155 317.099 7.65622 317.099 8.28022C317.099 8.90422 317.22 9.45889 317.463 9.94422C317.723 10.4296 318.061 10.8456 318.477 11.1922C318.893 11.5216 319.361 11.7816 319.881 11.9722C320.418 12.1456 320.964 12.2322 321.519 12.2322C322.074 12.2322 322.611 12.1456 323.131 11.9722C323.668 11.7816 324.145 11.5216 324.561 11.1922C324.977 10.8456 325.306 10.4296 325.549 9.94422C325.809 9.45889 325.939 8.90422 325.939 8.28022C325.939 7.65622 325.809 7.10155 325.549 6.61622C325.306 6.13089 324.977 5.72355 324.561 5.39422C324.145 5.04755 323.668 4.78755 323.131 4.61422C322.611 4.42355 322.074 4.32822 321.519 4.32822ZM321.519 2.40422C322.472 2.40422 323.365 2.52555 324.197 2.76822C325.046 3.01089 325.783 3.37489 326.407 3.86022C327.031 4.34555 327.525 4.96089 327.889 5.70622C328.253 6.43422 328.435 7.29222 328.435 8.28022C328.435 9.26822 328.253 10.1349 327.889 10.8802C327.525 11.6082 327.031 12.2149 326.407 12.7002C325.783 13.1856 325.046 13.5409 324.197 13.7662C323.365 13.9742 322.472 14.0782 321.519 14.0782C320.566 14.0782 319.664 13.9742 318.815 13.7662C317.983 13.5409 317.255 13.1856 316.631 12.7002C316.007 12.2149 315.513 11.6082 315.149 10.8802C314.785 10.1349 314.603 9.26822 314.603 8.28022C314.603 7.29222 314.785 6.43422 315.149 5.70622C315.513 4.96089 316.007 4.34555 316.631 3.86022C317.255 3.37489 317.983 3.01089 318.815 2.76822C319.664 2.52555 320.566 2.40422 321.519 2.40422Z" fill="#8CA1C6"/>
<path d="M164 30.0169C164 28.8708 164.268 27.8427 164.804 26.9326C165.339 26.0112 166.067 25.2921 166.987 24.7753C167.919 24.2584 168.949 24 170.079 24C171.406 24 172.565 24.309 173.555 24.927C174.545 25.5449 175.267 26.4213 175.721 27.5562H173.817C173.479 26.8483 172.99 26.3034 172.35 25.9213C171.721 25.5393 170.964 25.3483 170.079 25.3483C169.229 25.3483 168.466 25.5393 167.79 25.9213C167.115 26.3034 166.585 26.8483 166.201 27.5562C165.817 28.2528 165.624 29.073 165.624 30.0169C165.624 30.9494 165.817 31.7697 166.201 32.4775C166.585 33.1742 167.115 33.7135 167.79 34.0955C168.466 34.4775 169.229 34.6685 170.079 34.6685C170.964 34.6685 171.721 34.4831 172.35 34.1124C172.99 33.7303 173.479 33.1854 173.817 32.4775H175.721C175.267 33.6011 174.545 34.4719 173.555 35.0899C172.565 35.6966 171.406 36 170.079 36C168.949 36 167.919 35.7472 166.987 35.2416C166.067 34.7247 165.339 34.0112 164.804 33.1011C164.268 32.191 164 31.1629 164 30.0169Z" fill="#8CA1C6"/>
<path d="M180.55 34.6517H184.812V35.8989H178.96V24.1517H180.55V34.6517Z" fill="#8CA1C6"/>
<path d="M188.963 24.1517V35.8989H187.374V24.1517H188.963Z" fill="#8CA1C6"/>
<path d="M202.118 35.8989H200.528L194.135 26.5449V35.8989H192.546V24.1348H194.135L200.528 33.4719V24.1348H202.118V35.8989Z" fill="#8CA1C6"/>
<path d="M207.291 24.1517V35.8989H205.701V24.1517H207.291Z" fill="#8CA1C6"/>
<path d="M210.279 30.0169C210.279 28.8708 210.547 27.8427 211.083 26.9326C211.618 26.0112 212.346 25.2921 213.266 24.7753C214.198 24.2584 215.228 24 216.358 24C217.685 24 218.844 24.309 219.834 24.927C220.824 25.5449 221.546 26.4213 222 27.5562H220.096C219.758 26.8483 219.269 26.3034 218.629 25.9213C218 25.5393 217.243 25.3483 216.358 25.3483C215.508 25.3483 214.745 25.5393 214.07 25.9213C213.394 26.3034 212.864 26.8483 212.48 27.5562C212.096 28.2528 211.904 29.073 211.904 30.0169C211.904 30.9494 212.096 31.7697 212.48 32.4775C212.864 33.1742 213.394 33.7135 214.07 34.0955C214.745 34.4775 215.508 34.6685 216.358 34.6685C217.243 34.6685 218 34.4831 218.629 34.1124C219.269 33.7303 219.758 33.1854 220.096 32.4775H222C221.546 33.6011 220.824 34.4719 219.834 35.0899C218.844 35.6966 217.685 36 216.358 36C215.228 36 214.198 35.7472 213.266 35.2416C212.346 34.7247 211.618 34.0112 211.083 33.1011C210.547 32.191 210.279 31.1629 210.279 30.0169Z" fill="#8CA1C6"/>
<path d="M12.1552 24.3103C8.9314 24.3103 5.83969 23.0297 3.56015 20.7502C1.28063 18.4706 0 15.3789 0 12.1552C0 8.9314 1.28063 5.83978 3.56015 3.5601C5.83969 1.28061 8.9314 0 12.1552 0H29.1724V2.43103H12.1552C9.57615 2.43103 7.10278 3.45544 5.27916 5.27911C3.45554 7.10278 2.43103 9.57615 2.43103 12.1552C2.43103 14.7342 3.45554 17.2076 5.27916 19.0312C7.10278 20.8547 9.57615 21.8793 12.1552 21.8793H29.1724V24.3103H12.1552Z" fill="#8CA1C6"/>
<path d="M34.8448 10.5345C38.0686 10.5345 41.1603 11.8151 43.4399 14.0946C45.7194 16.3743 47 19.4659 47 22.6897C47 25.9134 45.7194 29.005 43.4399 31.2847C41.1603 33.5642 38.0686 34.8448 34.8448 34.8448H20.2586V43.7586H17.8276V32.4138H34.8448C37.4238 32.4138 39.8972 31.3892 41.7208 29.5657C43.5445 27.742 44.569 25.2687 44.569 22.6897C44.569 20.1106 43.5445 17.6373 41.7208 15.8136C39.8972 13.9901 37.4238 12.9655 34.8448 12.9655H17.8276V10.5345H34.8448Z" fill="#8CA1C6"/>
<rect x="58" y="29" width="92" height="1" fill="#8CA1C6"/>
<rect x="238" y="29" width="92" height="1" fill="#8CA1C6"/>
</svg>
