<svg width="276" height="59" viewBox="0 0 276 59" fill="none" xmlns="http://www.w3.org/2000/svg">
<path d="M75.7909 28.8566C77.2475 28.8566 78.5021 29.1339 79.5546 29.6886C80.6071 30.234 81.42 31.029 81.9932 32.0736C82.5665 33.1182 82.8531 34.394 82.8531 35.9008V37.953H72.6897C72.7367 39.1456 73.0985 40.0839 73.7751 40.7679C74.4611 41.4428 75.4103 41.7802 76.6226 41.7802C77.6281 41.7802 78.549 41.6785 79.3854 41.4751C80.2218 41.2718 81.0817 40.9667 81.965 40.56V43.8325C81.185 44.2115 80.3675 44.4888 79.5123 44.6645C78.6665 44.8401 77.6375 44.9279 76.4252 44.9279C74.8464 44.9279 73.4462 44.6413 72.2245 44.0682C71.0123 43.495 70.0584 42.6214 69.363 41.4474C68.677 40.2734 68.334 38.7943 68.334 37.0101C68.334 35.1982 68.6441 33.6914 69.2643 32.4896C69.894 31.2786 70.7679 30.3727 71.8862 29.7718C73.0045 29.1616 74.3061 28.8566 75.7909 28.8566ZM75.8191 31.8656C74.9827 31.8656 74.2873 32.1291 73.7328 32.656C73.1878 33.1829 72.873 34.0103 72.7884 35.1381H78.8216C78.8122 34.5095 78.6947 33.9502 78.4692 33.4603C78.253 32.9703 77.9241 32.5821 77.4824 32.2955C77.0502 32.0089 76.4957 31.8656 75.8191 31.8656Z" fill="#8CA1C6"/>
<path d="M102.362 28.8566C102.578 28.8566 102.827 28.8704 103.109 28.8982C103.401 28.9167 103.636 28.9444 103.814 28.9814L103.49 32.9472C103.349 32.901 103.147 32.8686 102.884 32.8501C102.63 32.8224 102.409 32.8085 102.221 32.8085C101.667 32.8085 101.127 32.8779 100.6 33.0165C100.083 33.1552 99.6182 33.3817 99.2047 33.696C98.7912 34.0011 98.4623 34.4078 98.218 34.9163C97.983 35.4155 97.8656 36.0302 97.8656 36.7605V44.6506H93.5662V29.1478H96.8225L97.4568 31.7547H97.6682C97.9783 31.2278 98.3636 30.747 98.8241 30.3126C99.294 29.8688 99.825 29.5175 100.417 29.2587C101.018 28.9906 101.667 28.8566 102.362 28.8566Z" fill="#8CA1C6"/>
<path d="M118.502 51.4729C116.303 51.4729 114.621 51.0939 113.456 50.3359C112.3 49.5871 111.722 48.5332 111.722 47.1743C111.722 46.2406 112.018 45.4595 112.61 44.8309C113.202 44.2022 114.072 43.7539 115.218 43.4858C114.776 43.3009 114.391 43.0005 114.062 42.5845C113.733 42.1592 113.569 41.7109 113.569 41.2394C113.569 40.6478 113.743 40.1578 114.09 39.7696C114.438 39.372 114.941 38.9838 115.599 38.6048C114.772 38.2535 114.114 37.6896 113.625 36.913C113.146 36.1365 112.906 35.2213 112.906 34.1675C112.906 33.0397 113.155 32.0829 113.653 31.2971C114.161 30.5021 114.894 29.8966 115.852 29.4806C116.82 29.0646 117.995 28.8566 119.376 28.8566C119.668 28.8566 120.006 28.8751 120.391 28.912C120.777 28.949 121.129 28.9906 121.449 29.0368C121.777 29.0831 121.998 29.12 122.111 29.1478H127.609V31.2971L125.142 31.9211C125.367 32.2631 125.536 32.6283 125.649 33.0165C125.762 33.4048 125.818 33.8162 125.818 34.2507C125.818 35.9147 125.226 37.2135 124.042 38.1472C122.868 39.0716 121.232 39.5338 119.137 39.5338C118.639 39.5061 118.169 39.4691 117.727 39.4229C117.511 39.5893 117.347 39.7649 117.234 39.9498C117.121 40.1347 117.065 40.3288 117.065 40.5322C117.065 40.7356 117.149 40.9066 117.318 41.0453C117.497 41.1747 117.76 41.2764 118.108 41.3503C118.465 41.4151 118.907 41.4474 119.433 41.4474H122.111C123.84 41.4474 125.156 41.8126 126.058 42.5429C126.97 43.2732 127.425 44.3455 127.425 45.7599C127.425 47.5718 126.655 48.977 125.114 49.9753C123.582 50.9737 121.378 51.4729 118.502 51.4729ZM118.686 48.7135C119.71 48.7135 120.589 48.6164 121.322 48.4223C122.064 48.2374 122.633 47.9693 123.027 47.618C123.422 47.276 123.619 46.8646 123.619 46.3839C123.619 45.9956 123.502 45.686 123.267 45.4548C123.041 45.233 122.694 45.0758 122.224 44.9834C121.763 44.8909 121.171 44.8447 120.448 44.8447H118.221C117.694 44.8447 117.22 44.9279 116.797 45.0943C116.383 45.2607 116.054 45.4918 115.81 45.7876C115.566 46.0927 115.444 46.444 115.444 46.8415C115.444 47.4239 115.725 47.8815 116.289 48.2143C116.863 48.5471 117.661 48.7135 118.686 48.7135ZM119.376 36.9546C120.185 36.9546 120.777 36.7097 121.153 36.2197C121.528 35.7298 121.716 35.0642 121.716 34.2229C121.716 33.2893 121.519 32.5913 121.124 32.1291C120.739 31.6576 120.156 31.4219 119.376 31.4219C118.587 31.4219 117.995 31.6576 117.6 32.1291C117.206 32.5913 117.008 33.2893 117.008 34.2229C117.008 35.0642 117.201 35.7298 117.586 36.2197C117.981 36.7097 118.578 36.9546 119.376 36.9546Z" fill="#8CA1C6"/>
<path d="M151.755 36.8714C151.755 38.1657 151.577 39.312 151.22 40.3104C150.872 41.3087 150.36 42.1546 149.683 42.8479C149.016 43.532 148.208 44.0497 147.259 44.401C146.319 44.7523 145.257 44.9279 144.073 44.9279C142.964 44.9279 141.944 44.7523 141.014 44.401C140.093 44.0497 139.29 43.532 138.604 42.8479C137.927 42.1546 137.401 41.3087 137.025 40.3104C136.658 39.312 136.475 38.1657 136.475 36.8714C136.475 35.152 136.785 33.696 137.405 32.5035C138.026 31.311 138.909 30.405 140.056 29.7856C141.202 29.1663 142.569 28.8566 144.158 28.8566C145.633 28.8566 146.939 29.1663 148.076 29.7856C149.223 30.405 150.12 31.311 150.769 32.5035C151.427 33.696 151.755 35.152 151.755 36.8714ZM140.859 36.8714C140.859 37.8883 140.972 38.7434 141.197 39.4368C141.423 40.1301 141.775 40.6524 142.255 41.0037C142.734 41.355 143.359 41.5306 144.129 41.5306C144.891 41.5306 145.506 41.355 145.976 41.0037C146.455 40.6524 146.803 40.1301 147.019 39.4368C147.245 38.7434 147.357 37.8883 147.357 36.8714C147.357 35.8453 147.245 34.9948 147.019 34.32C146.803 33.6359 146.455 33.1229 145.976 32.7808C145.497 32.4388 144.872 32.2677 144.101 32.2677C142.964 32.2677 142.137 32.6514 141.62 33.4187C141.113 34.186 140.859 35.3369 140.859 36.8714Z" fill="#8CA1C6"/>
<path d="M175.479 44.6506L174.267 39.2288C174.201 38.9052 174.093 38.4291 173.943 37.8005C173.793 37.1626 173.628 36.4832 173.45 35.7621C173.28 35.0318 173.121 34.357 172.97 33.7376C172.829 33.1182 172.726 32.6653 172.66 32.3787H172.533C172.467 32.6653 172.364 33.1182 172.223 33.7376C172.082 34.357 171.922 35.0318 171.744 35.7621C171.575 36.4924 171.415 37.1811 171.265 37.8282C171.114 38.4661 171.001 38.9514 170.926 39.2842L169.658 44.6506H165.034L160.551 29.1478H164.837L166.655 36.0117C166.777 36.4924 166.895 37.0656 167.008 37.7312C167.12 38.3875 167.219 39.0254 167.304 39.6448C167.398 40.2549 167.468 40.7402 167.515 41.1007H167.628C167.647 40.8327 167.684 40.4768 167.741 40.033C167.806 39.5893 167.877 39.1317 167.952 38.6602C168.037 38.1795 168.112 37.7497 168.178 37.3706C168.253 36.9824 168.309 36.7189 168.347 36.5802L170.292 29.1478H175.028L176.875 36.5802C176.941 36.8483 177.025 37.2736 177.129 37.856C177.241 38.4384 177.34 39.0393 177.425 39.6586C177.509 40.2688 177.556 40.7495 177.566 41.1007H177.678C177.716 40.7864 177.782 40.3196 177.876 39.7002C177.97 39.0809 178.078 38.4337 178.2 37.7589C178.332 37.0748 178.463 36.4924 178.595 36.0117L180.484 29.1478H184.698L180.159 44.6506H175.479Z" fill="#8CA1C6"/>
<path d="M208.789 36.8714C208.789 38.1657 208.61 39.312 208.253 40.3104C207.905 41.3087 207.393 42.1546 206.717 42.8479C206.049 43.532 205.241 44.0497 204.292 44.401C203.352 44.7523 202.29 44.9279 201.106 44.9279C199.997 44.9279 198.978 44.7523 198.047 44.401C197.126 44.0497 196.323 43.532 195.637 42.8479C194.96 42.1546 194.434 41.3087 194.058 40.3104C193.692 39.312 193.508 38.1657 193.508 36.8714C193.508 35.152 193.819 33.696 194.439 32.5035C195.059 31.311 195.942 30.405 197.089 29.7856C198.235 29.1663 199.603 28.8566 201.191 28.8566C202.666 28.8566 203.973 29.1663 205.11 29.7856C206.256 30.405 207.154 31.311 207.802 32.5035C208.46 33.696 208.789 35.152 208.789 36.8714ZM197.892 36.8714C197.892 37.8883 198.005 38.7434 198.231 39.4368C198.456 40.1301 198.809 40.6524 199.288 41.0037C199.767 41.355 200.392 41.5306 201.163 41.5306C201.924 41.5306 202.539 41.355 203.009 41.0037C203.489 40.6524 203.836 40.1301 204.052 39.4368C204.278 38.7434 204.391 37.8883 204.391 36.8714C204.391 35.8453 204.278 34.9948 204.052 34.32C203.836 33.6359 203.489 33.1229 203.009 32.7808C202.53 32.4388 201.905 32.2677 201.135 32.2677C199.997 32.2677 199.17 32.6514 198.654 33.4187C198.146 34.186 197.892 35.3369 197.892 36.8714Z" fill="#8CA1C6"/>
<path d="M228.354 28.8566C228.57 28.8566 228.82 28.8704 229.101 28.8982C229.393 28.9167 229.628 28.9444 229.806 28.9814L229.482 32.9472C229.341 32.901 229.139 32.8686 228.876 32.8501C228.622 32.8224 228.401 32.8085 228.213 32.8085C227.659 32.8085 227.119 32.8779 226.592 33.0165C226.075 33.1552 225.61 33.3817 225.197 33.696C224.783 34.0011 224.454 34.4078 224.21 34.9163C223.975 35.4155 223.858 36.0302 223.858 36.7605V44.6506H219.558V29.1478H222.815L223.449 31.7547H223.66C223.97 31.2278 224.356 30.747 224.816 30.3126C225.286 29.8688 225.817 29.5175 226.409 29.2587C227.01 28.9906 227.659 28.8566 228.354 28.8566Z" fill="#8CA1C6"/>
<path d="M244.184 23.0742V32.7253C244.184 33.3077 244.161 33.8901 244.114 34.4725C244.067 35.0549 244.015 35.6373 243.959 36.2197H244.015C244.307 35.813 244.603 35.4108 244.903 35.0133C245.213 34.6158 245.542 34.2322 245.89 33.8624L250.302 29.1478H255.151L248.893 35.8731L255.532 44.6506H250.57L246.031 38.369L244.184 39.825V44.6506H239.885V23.0742H244.184Z" fill="#8CA1C6"/>
<path d="M276 40.0469C276 41.1007 275.746 41.9928 275.238 42.7231C274.74 43.4442 273.993 43.9942 272.997 44.3733C272.001 44.743 270.76 44.9279 269.276 44.9279C268.176 44.9279 267.232 44.8586 266.442 44.7199C265.662 44.5813 264.873 44.3501 264.074 44.0266V40.5322C264.929 40.9112 265.846 41.2255 266.823 41.4751C267.81 41.7155 268.674 41.8357 269.417 41.8357C270.253 41.8357 270.85 41.7155 271.207 41.4751C271.573 41.2255 271.757 40.902 271.757 40.5045C271.757 40.2456 271.681 40.0145 271.531 39.8112C271.39 39.5985 271.08 39.3628 270.601 39.104C270.121 38.8359 269.37 38.4892 268.345 38.064C267.359 37.6572 266.546 37.2458 265.907 36.8298C265.277 36.4138 264.807 35.9239 264.497 35.36C264.196 34.7868 264.046 34.0612 264.046 33.1829C264.046 31.7501 264.61 30.6731 265.738 29.952C266.875 29.2217 268.392 28.8566 270.291 28.8566C271.268 28.8566 272.198 28.9536 273.082 29.1478C273.974 29.3419 274.891 29.6516 275.83 30.0768L274.534 33.1275C273.754 32.7947 273.016 32.522 272.32 32.3093C271.634 32.0967 270.934 31.9904 270.22 31.9904C269.59 31.9904 269.116 32.0736 268.796 32.24C268.477 32.4064 268.317 32.6606 268.317 33.0027C268.317 33.2523 268.397 33.4741 268.557 33.6683C268.726 33.8624 269.045 34.0796 269.515 34.32C269.995 34.5511 270.695 34.8515 271.616 35.2213C272.508 35.5819 273.284 35.9609 273.942 36.3584C274.599 36.7466 275.107 37.232 275.464 37.8144C275.821 38.3875 276 39.1317 276 40.0469Z" fill="#8CA1C6"/>
<path d="M48.0042 20.6807C46.5757 25.961 43.4447 30.6223 39.097 33.9418C34.7492 37.2613 29.4277 39.0534 23.9576 39.0402C18.4875 39.0269 13.1747 37.2091 8.84301 33.8687C4.51136 30.5282 1.40299 25.8518 0 20.5647L2.57866 19.8804C3.83102 24.5999 6.60566 28.7742 10.4722 31.756C14.3388 34.7378 19.0813 36.3605 23.964 36.3723C28.8468 36.3841 33.597 34.7844 37.478 31.8213C41.3589 28.8582 44.1537 24.6973 45.4289 19.984L48.0042 20.6807Z" fill="#8CA1C6"/>
<path d="M42.8642 19.2903C41.7418 23.4391 39.2818 27.1016 35.8657 29.7097C32.4496 32.3179 28.2684 33.726 23.9705 33.7156C19.6726 33.7052 15.4982 32.2769 12.0947 29.6523C8.69129 27.0276 6.249 23.3533 5.14665 19.1992L7.70885 18.5192C8.66153 22.1094 10.7722 25.2848 13.7136 27.5531C16.6549 29.8214 20.2625 31.0557 23.9769 31.0647C27.6912 31.0737 31.3048 29.8568 34.2571 27.6028C37.2093 25.3487 39.3353 22.1835 40.3054 18.598L42.8642 19.2903Z" fill="#8CA1C6"/>
<path d="M5.17196 57.319C6.29437 53.1702 8.75439 49.5077 12.1705 46.8995C15.5866 44.2914 19.7678 42.8833 24.0657 42.8937C28.3636 42.9041 32.538 44.3323 35.9415 46.957C39.3449 49.5816 41.7872 53.256 42.8895 57.4101L40.3273 58.09C39.3747 54.4999 37.264 51.3244 34.3226 49.0562C31.3813 46.7879 27.7737 45.5535 24.0593 45.5445C20.3449 45.5356 16.7314 46.7525 13.7791 49.0065C10.8269 51.2606 8.70086 54.4258 7.73084 58.0113L5.17196 57.319Z" fill="#8CA1C6"/>
<path d="M38.2089 14.1912C38.2089 22.0287 31.8553 28.3823 24.0177 28.3823C16.1801 28.3823 9.82653 22.0287 9.82653 14.1912C9.82653 6.3536 16.1801 0 24.0177 0C31.8553 0 38.2089 6.3536 38.2089 14.1912ZM12.5021 14.1912C12.5021 20.5511 17.6578 25.7068 24.0177 25.7068C30.3776 25.7068 35.5333 20.5511 35.5333 14.1912C35.5333 7.83127 30.3776 2.67556 24.0177 2.67556C17.6578 2.67556 12.5021 7.83127 12.5021 14.1912Z" fill="#8CA1C6"/>
<path d="M14.4211 39.4963C12.4783 40.3097 10.6346 41.3722 8.93896 42.6665C4.59122 45.9863 1.46028 50.6476 0.0317505 55.9277L2.60708 56.6245C3.88224 51.9112 6.677 47.7504 10.558 44.7873C13.0909 42.8533 15.994 41.5 19.0626 40.7967C18.3582 40.6646 17.6535 40.5038 16.9498 40.3136C16.0853 40.0796 15.2419 39.8066 14.4211 39.4963Z" fill="#8CA1C6"/>
<path d="M28.9849 40.7993C32.0846 41.5117 35.0145 42.8862 37.5637 44.8523C41.4303 47.834 44.2049 52.0087 45.4573 56.7281L48.0359 56.0439C46.633 50.7568 43.5246 46.0803 39.1929 42.7398C37.4712 41.412 35.5945 40.3248 33.6146 39.4959C32.1197 40.0644 30.5707 40.5021 28.9849 40.7993Z" fill="#8CA1C6"/>
</svg>
