<svg width="99" height="100" viewBox="0 0 99 100" fill="none" xmlns="http://www.w3.org/2000/svg">
<path d="M72.363 93.2121C72.363 84.3367 73.2294 75.4856 75.2465 66.8692C75.3063 66.7521 75.3434 66.6233 75.3543 66.4894C75.4037 65.8845 75.9205 65.3924 76.5681 65.3924C77.2505 65.3924 77.7858 65.9372 77.7858 66.5872C77.7858 66.7104 77.7672 66.8274 77.7332 66.9367C77.7264 66.9585 77.7203 66.9806 77.715 67.0028C75.6778 75.5419 74.7985 84.3467 74.7985 93.2121V98.5504C74.7985 99.2004 74.2632 99.7452 73.5808 99.7452C72.8983 99.7452 72.363 99.2004 72.363 98.5504V93.2121Z" fill="#355FEC"/>
<path fill-rule="evenodd" clip-rule="evenodd" d="M63.7846 7.83707C64.1678 7.7032 64.4349 7.35437 64.4641 6.94946L64.8855 1.11043C64.93 0.493656 65.4521 0 66.1002 0H75.681C76.329 0 76.8512 0.493654 76.8957 1.11043L77.3171 6.94946C77.3463 7.35437 77.6133 7.7032 77.9966 7.83707C78.9059 8.15469 79.7868 8.53147 80.6346 8.96267C81.0061 9.15165 81.4553 9.09498 81.7683 8.81964L85.8053 5.26796C86.2888 4.8426 87.0265 4.8646 87.483 5.31637L93.0034 10.7803C93.4549 11.2271 93.4755 11.9401 93.0523 12.4114L89.6261 16.2263C89.3334 16.5522 89.2821 17.0288 89.4987 17.4096C90.0969 18.4613 90.6067 19.569 91.0181 20.7227C91.1538 21.1034 91.5019 21.3677 91.905 21.3962L97.8044 21.8133C98.4502 21.8589 98.9347 22.3872 98.9347 23.005V32.4877C98.9347 33.1054 98.4502 33.6337 97.8044 33.6794L91.905 34.0965C91.5019 34.125 91.1538 34.3892 91.0181 34.7699C90.6493 35.8042 90.2014 36.8014 89.6816 37.7546C89.4751 38.1333 89.5297 38.601 89.8179 38.922L93.0519 42.5229C93.4751 42.9941 93.4545 43.7071 93.0031 44.1539L87.4826 49.6179C87.0261 50.0696 86.2884 50.0916 85.8049 49.6663L82.1666 46.4654C81.848 46.1851 81.389 46.1318 81.0147 46.3318C80.0511 46.8465 79.0426 47.2902 77.9966 47.6556C77.6133 47.7894 77.3463 48.1383 77.3171 48.5432L76.8957 54.3822C76.8512 54.999 76.329 55.4926 75.681 55.4926H66.1002C65.4521 55.4926 64.93 54.999 64.8855 54.3822L64.4641 48.5432C64.4349 48.1383 64.1678 47.7894 63.7846 47.6556C62.6175 47.2479 61.4973 46.7428 60.4338 46.1503C60.0573 45.9405 59.5896 45.9906 59.2661 46.2752L55.4122 49.6658C54.9287 50.0911 54.191 50.0691 53.7345 49.6174L48.2141 44.1534C47.7626 43.7066 47.742 42.9936 48.1652 42.5224L51.7532 38.5273C52.0363 38.212 52.0945 37.7543 51.8992 37.3782C51.4639 36.5398 51.0836 35.6688 50.7631 34.7699C50.6274 34.3892 50.2793 34.1249 49.8762 34.0964L43.9767 33.6794C43.3309 33.6337 42.8465 33.1054 42.8465 32.4877V23.005C42.8465 22.3872 43.3309 21.8589 43.9767 21.8132L49.8762 21.3962C50.2793 21.3677 50.6274 21.1034 50.7631 20.7227C51.1265 19.7036 51.5667 18.7204 52.0767 17.78C52.282 17.4016 52.2269 16.9349 51.9393 16.6146L48.1648 12.4119C47.7416 11.9406 47.7622 11.2277 48.2137 10.7808L53.7342 5.31688C54.1906 4.86512 54.9284 4.84312 55.4118 5.26848L59.658 9.00415C59.9759 9.28388 60.4339 9.33751 60.8079 9.1388C61.759 8.63343 62.7535 8.19722 63.7846 7.83707ZM68.1817 2.38963C67.648 2.38963 67.2049 2.80186 67.1665 3.33418L66.785 8.6207C66.749 9.12016 66.3971 9.55198 65.8941 9.68811C64.0408 10.1898 62.3004 10.9641 60.7195 11.9656C60.2575 12.2583 59.6542 12.2103 59.2462 11.8513L55.3615 8.43368C54.9599 8.08037 54.3534 8.09818 53.9732 8.47445L51.4337 10.9879C51.0478 11.3698 51.0297 11.9874 51.3925 12.3914L54.8456 16.2363C55.2043 16.6358 55.2498 17.2185 54.9602 17.6663C53.9478 19.2319 53.1646 20.9563 52.657 22.7932C52.5231 23.2779 52.0909 23.6354 51.5692 23.6723L46.228 24.0499C45.695 24.0876 45.2819 24.5309 45.2819 25.0652V30.4274C45.2819 30.9617 45.695 31.405 46.228 31.4427L51.5692 31.8203C52.0909 31.8572 52.5231 32.2148 52.657 32.6994C53.1315 34.4168 53.847 36.0358 54.7654 37.5186C55.0416 37.9645 54.9914 38.5359 54.6384 38.929L51.3928 42.5429C51.0301 42.9468 51.0482 43.5644 51.4341 43.9463L53.9736 46.4598C54.3537 46.8361 54.9603 46.8539 55.3619 46.5006L58.8811 43.4045C59.2965 43.039 59.913 42.9967 60.3765 43.3046C62.0473 44.4142 63.9058 45.2663 65.8941 45.8045C66.3971 45.9407 66.749 46.3725 66.785 46.8719L67.1665 52.1585C67.2049 52.6908 67.648 53.103 68.1817 53.103H73.5995C74.1332 53.103 74.5762 52.6908 74.6146 52.1585L74.9961 46.8719C75.0322 46.3725 75.3841 45.9407 75.887 45.8045C77.7552 45.2988 79.5087 44.5161 81.0997 43.5029C81.5619 43.2086 82.1666 43.2559 82.5755 43.6156L85.8552 46.5011C86.2568 46.8544 86.8634 46.8366 87.2435 46.4603L89.783 43.9468C90.1689 43.5649 90.1871 42.9473 89.8243 42.5434L86.909 39.2973C86.5496 38.8971 86.5047 38.3129 86.796 37.8649C87.8205 36.289 88.6124 34.5514 89.1241 32.6994C89.2581 32.2148 89.6902 31.8572 90.2119 31.8203L95.5532 31.4427C96.0861 31.405 96.4992 30.9617 96.4992 30.4274V25.0652C96.4992 24.5309 96.0861 24.0876 95.5532 24.0499L90.2119 23.6723C89.6902 23.6354 89.2581 23.2779 89.1241 22.7932C88.5796 20.8223 87.7176 18.9809 86.5957 17.3262C86.2909 16.8766 86.3309 16.2811 86.696 15.8746L89.8247 12.3909C90.1874 11.9869 90.1693 11.3693 89.7834 10.9874L87.2439 8.47393C86.8638 8.09766 86.2572 8.07985 85.8556 8.43316L82.2038 11.646C81.8024 11.9991 81.2109 12.052 80.7505 11.7726C79.2535 10.8643 77.6196 10.1571 75.887 9.68811C75.3841 9.55198 75.0322 9.12016 74.9961 8.6207L74.6146 3.33418C74.5762 2.80186 74.1332 2.38963 73.5995 2.38963H68.1817Z" fill="#355FEC"/>
<path fill-rule="evenodd" clip-rule="evenodd" d="M27.8576 4.24282C31.4734 2.14672 35.4133 0.763359 38.7756 0.763359C39.4782 0.763359 40.0478 1.33297 40.0478 2.03562C40.0478 2.73828 39.4782 3.30789 38.7756 3.30789C36.031 3.30789 32.5409 4.46906 29.1338 6.4442C25.7444 8.40902 22.5798 11.0975 20.4631 13.9839C17.7984 17.6176 16.0674 22.2793 14.9381 26.3574C14.3765 28.3852 13.9698 30.2457 13.6711 31.7314C13.5562 32.3028 13.4538 32.8388 13.3635 33.3112C13.2278 34.0212 13.1195 34.5874 13.0378 34.9142C12.9534 35.2519 12.7497 35.7108 12.5335 36.1634C12.2987 36.6549 11.9874 37.2628 11.6224 37.951C10.8917 39.3291 9.9255 41.0672 8.87898 42.9135C6.78477 46.6082 4.35102 50.7674 2.79364 53.412C2.28404 54.2773 2.58358 55.4017 3.47226 55.9061C6.07951 57.3859 9.9599 59.6317 12.0131 61.0365L12.4884 61.3617L12.5577 61.9334C13.2411 67.5716 14.6921 79.2024 15.0867 81.1754C15.3061 82.2724 15.9887 84.0994 17.2886 85.6254C18.56 87.1179 20.3897 88.2952 22.9995 88.2952H33.941V98.7277C33.941 99.4304 33.3714 100 32.6687 100C31.966 100 31.3964 99.4304 31.3964 98.7277V90.8397H22.9995C19.5024 90.8397 17.0064 89.2179 15.3516 87.2754C13.7253 85.3663 12.8811 83.122 12.5916 81.6744C12.186 79.6465 10.8024 68.5758 10.102 62.8187C8.05985 61.4744 4.64545 59.4978 2.21623 58.119C0.106907 56.9218 -0.638635 54.2259 0.601054 52.1208C2.15636 49.4797 4.58164 45.3349 6.66533 41.6587C7.70775 39.8197 8.66026 38.1056 9.37443 36.7589C9.73199 36.0846 10.0247 35.512 10.2376 35.0665C10.3441 34.8435 10.4264 34.6611 10.4855 34.519C10.5149 34.4483 10.5363 34.3929 10.5511 34.3513C10.5649 34.3129 10.5695 34.296 10.5695 34.296L10.5693 34.297C10.6361 34.0297 10.72 33.5891 10.8374 32.9726C10.9279 32.4968 11.0385 31.9162 11.1765 31.2298C11.4821 29.7098 11.9024 27.7853 12.4858 25.6783C13.6466 21.4866 15.4779 16.4791 18.4112 12.4792C20.7729 9.25873 24.224 6.34924 27.8576 4.24282Z" fill="#355FEC"/>
<path d="M80.5055 27.9898C80.5055 33.33 76.1765 37.659 70.8363 37.659C65.4962 37.659 61.1671 33.33 61.1671 27.9898C61.1671 22.6497 65.4962 18.3206 70.8363 18.3206C76.1765 18.3206 80.5055 22.6497 80.5055 27.9898ZM64.0679 27.9898C64.0679 31.7279 67.0982 34.7583 70.8363 34.7583C74.5744 34.7583 77.6048 31.7279 77.6048 27.9898C77.6048 24.2517 74.5744 21.2214 70.8363 21.2214C67.0982 21.2214 64.0679 24.2517 64.0679 27.9898Z" fill="#355FEC"/>
</svg>
