<svg width="276" height="55" viewBox="0 0 276 55" fill="none" xmlns="http://www.w3.org/2000/svg">
<path d="M66.9756 19.6871V11.0394H68.1469V19.6871H66.9756ZM72.5579 19.6871V11.0394H73.7292V19.6871H72.5579ZM67.7731 15.7495V14.6779H72.8445V15.7495H67.7731Z" fill="#8CA1C6"/>
<path d="M77.007 19.6871L80.5458 11.0394H81.3932L84.9195 19.6871H83.6485L80.7452 12.3727H81.1813L78.2531 19.6871H77.007ZM78.6892 17.7307V16.709H83.2373V17.7307H78.6892Z" fill="#8CA1C6"/>
<path d="M88.0904 19.6871V11.0394H88.9128L92.5762 17.0579H92.0155L95.6789 11.0394H96.5013V19.6871H95.33V13.0954L95.6042 13.1702L92.7133 17.9177H91.8909L89.0001 13.1702L89.2617 13.0954V19.6871H88.0904Z" fill="#8CA1C6"/>
<path d="M101.197 16.3227V15.3009H103.552C103.876 15.3009 104.163 15.2345 104.412 15.1016C104.67 14.9686 104.869 14.7817 105.01 14.5408C105.16 14.2999 105.235 14.0133 105.235 13.6811C105.235 13.3488 105.16 13.0622 105.01 12.8213C104.869 12.5804 104.67 12.3935 104.412 12.2605C104.163 12.1276 103.876 12.0612 103.552 12.0612H101.197V11.0394H103.627C104.159 11.0394 104.632 11.1474 105.048 11.3634C105.471 11.5794 105.804 11.8867 106.044 12.2855C106.294 12.6759 106.418 13.1411 106.418 13.6811C106.418 14.2127 106.294 14.6779 106.044 15.0766C105.804 15.4671 105.471 15.7744 105.048 15.9987C104.632 16.2147 104.159 16.3227 103.627 16.3227H101.197ZM100.412 19.6871V11.0394H101.584V19.6871H100.412Z" fill="#8CA1C6"/>
<path d="M111.863 19.6871V11.2886H113.034V19.6871H111.863ZM108.922 12.111V11.0394H115.963V12.111H108.922Z" fill="#8CA1C6"/>
<path d="M122.532 19.8117C121.917 19.8117 121.344 19.6995 120.813 19.4752C120.281 19.2426 119.816 18.9228 119.417 18.5158C119.018 18.1004 118.707 17.6228 118.482 17.0828C118.266 16.5428 118.158 15.9655 118.158 15.3508C118.158 14.7277 118.266 14.1504 118.482 13.6188C118.707 13.0788 119.014 12.6053 119.404 12.1982C119.803 11.7912 120.264 11.4755 120.788 11.2512C121.319 11.0269 121.892 10.9148 122.507 10.9148C123.122 10.9148 123.691 11.0269 124.214 11.2512C124.746 11.4755 125.211 11.7912 125.61 12.1982C126.009 12.6053 126.32 13.0788 126.544 13.6188C126.769 14.1587 126.881 14.7402 126.881 15.3632C126.881 15.978 126.769 16.5553 126.544 17.0953C126.32 17.6352 126.009 18.1087 125.61 18.5158C125.219 18.9228 124.758 19.2426 124.227 19.4752C123.703 19.6995 123.138 19.8117 122.532 19.8117ZM122.507 18.6902C123.13 18.6902 123.674 18.549 124.139 18.2665C124.613 17.9758 124.987 17.5812 125.261 17.0828C125.535 16.5761 125.672 15.9987 125.672 15.3508C125.672 14.869 125.593 14.4287 125.435 14.03C125.278 13.6229 125.057 13.2699 124.775 12.9708C124.493 12.6717 124.16 12.4433 123.778 12.2855C123.396 12.1193 122.972 12.0363 122.507 12.0363C121.892 12.0363 121.348 12.1775 120.875 12.4599C120.41 12.7424 120.04 13.1328 119.766 13.6312C119.5 14.1296 119.367 14.7028 119.367 15.3508C119.367 15.8326 119.442 16.2812 119.591 16.6965C119.749 17.1036 119.965 17.4566 120.239 17.7557C120.522 18.0464 120.854 18.2749 121.236 18.441C121.627 18.6071 122.05 18.6902 122.507 18.6902Z" fill="#8CA1C6"/>
<path d="M130.357 19.6871V11.0394H131.179L131.528 12.3976V19.6871H130.357ZM136.338 19.6871L131.03 12.597L131.179 11.0394L136.5 18.117L136.338 19.6871ZM136.338 19.6871L135.989 18.4036V11.0394H137.16V19.6871H136.338Z" fill="#8CA1C6"/>
<path d="M149.458 19.8117C148.835 19.8117 148.258 19.6995 147.726 19.4752C147.195 19.2426 146.729 18.9228 146.331 18.5158C145.94 18.1087 145.637 17.6352 145.421 17.0953C145.205 16.5553 145.097 15.978 145.097 15.3632C145.097 14.7402 145.205 14.1587 145.421 13.6188C145.637 13.0788 145.94 12.6094 146.331 12.2107C146.729 11.8037 147.19 11.488 147.714 11.2637C148.245 11.0311 148.823 10.9148 149.446 10.9148C150.127 10.9148 150.725 11.0311 151.24 11.2637C151.755 11.4963 152.212 11.812 152.611 12.2107L151.801 13.0206C151.527 12.7133 151.19 12.4724 150.792 12.2979C150.401 12.1235 149.953 12.0363 149.446 12.0363C148.989 12.0363 148.569 12.1193 148.187 12.2855C147.805 12.4433 147.473 12.6717 147.19 12.9708C146.908 13.2699 146.688 13.6229 146.53 14.03C146.381 14.437 146.306 14.8814 146.306 15.3632C146.306 15.845 146.381 16.2895 146.53 16.6965C146.688 17.1036 146.908 17.4566 147.19 17.7557C147.473 18.0547 147.805 18.2873 148.187 18.4535C148.569 18.6113 148.989 18.6902 149.446 18.6902C149.986 18.6902 150.455 18.603 150.854 18.4285C151.253 18.2458 151.589 18.0007 151.863 17.6934L152.673 18.4908C152.274 18.9062 151.805 19.2302 151.265 19.4628C150.733 19.6954 150.131 19.8117 149.458 19.8117Z" fill="#8CA1C6"/>
<path d="M155.981 19.6871V11.0394H157.152V19.6871H155.981ZM156.779 19.6871V18.6154H161.414V19.6871H156.779Z" fill="#8CA1C6"/>
<path d="M164.725 19.6871V11.0394H165.897V19.6871H164.725Z" fill="#8CA1C6"/>
<path d="M169.807 19.6871V11.0394H170.629L170.978 12.3976V19.6871H169.807ZM175.788 19.6871L170.48 12.597L170.629 11.0394L175.95 18.117L175.788 19.6871ZM175.788 19.6871L175.439 18.4036V11.0394H176.611V19.6871H175.788Z" fill="#8CA1C6"/>
<path d="M180.523 19.6871V11.0394H181.694V19.6871H180.523Z" fill="#8CA1C6"/>
<path d="M189.529 19.8117C188.906 19.8117 188.329 19.6995 187.797 19.4752C187.266 19.2426 186.8 18.9228 186.402 18.5158C186.011 18.1087 185.708 17.6352 185.492 17.0953C185.276 16.5553 185.168 15.978 185.168 15.3632C185.168 14.7402 185.276 14.1587 185.492 13.6188C185.708 13.0788 186.011 12.6094 186.402 12.2107C186.8 11.8037 187.261 11.488 187.785 11.2637C188.316 11.0311 188.894 10.9148 189.517 10.9148C190.198 10.9148 190.796 11.0311 191.311 11.2637C191.826 11.4963 192.283 11.812 192.682 12.2107L191.872 13.0206C191.598 12.7133 191.261 12.4724 190.863 12.2979C190.472 12.1235 190.024 12.0363 189.517 12.0363C189.06 12.0363 188.64 12.1193 188.258 12.2855C187.876 12.4433 187.544 12.6717 187.261 12.9708C186.979 13.2699 186.759 13.6229 186.601 14.03C186.452 14.437 186.377 14.8814 186.377 15.3632C186.377 15.845 186.452 16.2895 186.601 16.6965C186.759 17.1036 186.979 17.4566 187.261 17.7557C187.544 18.0547 187.876 18.2873 188.258 18.4535C188.64 18.6113 189.06 18.6902 189.517 18.6902C190.057 18.6902 190.526 18.603 190.925 18.4285C191.324 18.2458 191.66 18.0007 191.934 17.6934L192.744 18.4908C192.345 18.9062 191.876 19.2302 191.336 19.4628C190.804 19.6954 190.202 19.8117 189.529 19.8117Z" fill="#8CA1C6"/>
<path d="M195.198 19.6871L198.736 11.0394H199.584L203.11 19.6871H201.839L198.936 12.3727H199.372L196.444 19.6871H195.198ZM196.88 17.7307V16.709H201.428V17.7307H196.88Z" fill="#8CA1C6"/>
<path d="M206.281 19.6871V11.0394H207.452V19.6871H206.281ZM207.078 19.6871V18.6154H211.714V19.6871H207.078Z" fill="#8CA1C6"/>
<path d="M225.059 19.6871L220.922 15.2511C220.598 14.9022 220.357 14.5699 220.199 14.2542C220.041 13.9386 219.962 13.5897 219.962 13.2076C219.962 12.7673 220.066 12.3768 220.274 12.0363C220.481 11.6874 220.768 11.4132 221.133 11.2139C221.499 11.0062 221.918 10.9023 222.392 10.9023C222.741 10.9023 223.057 10.9605 223.339 11.0768C223.63 11.1848 223.883 11.3302 224.099 11.5129C224.323 11.6957 224.51 11.9033 224.66 12.1359L223.85 12.8711C223.659 12.6053 223.447 12.3935 223.214 12.2356C222.99 12.0695 222.716 11.9864 222.392 11.9864C222.018 11.9864 221.707 12.0986 221.457 12.3229C221.208 12.5471 221.084 12.8379 221.084 13.1951C221.084 13.4941 221.146 13.7475 221.271 13.9552C221.395 14.1629 221.582 14.4038 221.831 14.6779L226.429 19.6871H225.059ZM221.956 19.8117C221.383 19.8117 220.88 19.6995 220.448 19.4752C220.016 19.2509 219.68 18.9436 219.439 18.5531C219.206 18.1544 219.09 17.7017 219.09 17.1949C219.09 16.6716 219.231 16.1981 219.514 15.7744C219.796 15.3508 220.207 15.0143 220.747 14.7651L221.283 15.4629C220.951 15.6291 220.689 15.8575 220.498 16.1482C220.307 16.4307 220.211 16.7713 220.211 17.17C220.211 17.494 220.286 17.7723 220.436 18.0049C220.585 18.2375 220.793 18.4202 221.059 18.5531C221.333 18.6777 221.644 18.7401 221.993 18.7401C222.434 18.7401 222.807 18.6487 223.115 18.4659C223.422 18.2832 223.655 18.0506 223.812 17.7681L224.548 18.6279C224.382 18.8522 224.161 19.0557 223.887 19.2385C223.621 19.4129 223.322 19.5541 222.99 19.6621C222.666 19.7618 222.321 19.8117 221.956 19.8117Z" fill="#8CA1C6"/>
<path d="M237.383 19.8117C236.76 19.8117 236.183 19.6995 235.651 19.4752C235.12 19.2426 234.654 18.9228 234.256 18.5158C233.865 18.1087 233.562 17.6352 233.346 17.0953C233.13 16.5553 233.022 15.978 233.022 15.3632C233.022 14.7402 233.13 14.1587 233.346 13.6188C233.562 13.0788 233.865 12.6094 234.256 12.2107C234.654 11.8037 235.115 11.488 235.639 11.2637C236.17 11.0311 236.748 10.9148 237.371 10.9148C238.052 10.9148 238.65 11.0311 239.165 11.2637C239.68 11.4963 240.137 11.812 240.536 12.2107L239.726 13.0206C239.452 12.7133 239.115 12.4724 238.717 12.2979C238.326 12.1235 237.878 12.0363 237.371 12.0363C236.914 12.0363 236.494 12.1193 236.112 12.2855C235.73 12.4433 235.398 12.6717 235.115 12.9708C234.833 13.2699 234.613 13.6229 234.455 14.03C234.306 14.437 234.231 14.8814 234.231 15.3632C234.231 15.845 234.306 16.2895 234.455 16.6965C234.613 17.1036 234.833 17.4566 235.115 17.7557C235.398 18.0547 235.73 18.2873 236.112 18.4535C236.494 18.6113 236.914 18.6902 237.371 18.6902C237.911 18.6902 238.38 18.603 238.779 18.4285C239.178 18.2458 239.514 18.0007 239.788 17.6934L240.598 18.4908C240.199 18.9062 239.73 19.2302 239.19 19.4628C238.658 19.6954 238.056 19.8117 237.383 19.8117Z" fill="#8CA1C6"/>
<path d="M243.906 19.6871V11.0394H245.077V19.6871H243.906ZM249.488 19.6871V11.0394H250.66V19.6871H249.488ZM244.704 15.7495V14.6779H249.775V15.7495H244.704Z" fill="#8CA1C6"/>
<path d="M254.573 19.6871V11.0394H255.744V19.6871H254.573Z" fill="#8CA1C6"/>
<path d="M259.655 19.6871V11.0394H260.826V19.6871H259.655ZM260.452 19.6871V18.6154H265.087V19.6871H260.452Z" fill="#8CA1C6"/>
<path d="M269.172 19.6871V18.6154H271.576C272.216 18.6154 272.777 18.4784 273.259 18.2042C273.74 17.9218 274.114 17.5355 274.38 17.0454C274.654 16.5553 274.791 15.9904 274.791 15.3508C274.791 14.7194 274.654 14.1587 274.38 13.6686C274.106 13.1785 273.728 12.7964 273.246 12.5222C272.764 12.2481 272.208 12.111 271.576 12.111H269.184V11.0394H271.601C272.233 11.0394 272.814 11.1474 273.346 11.3634C273.886 11.5794 274.351 11.8826 274.741 12.273C275.14 12.6634 275.448 13.1203 275.664 13.6437C275.888 14.167 276 14.7402 276 15.3632C276 15.978 275.888 16.5511 275.664 17.0828C275.448 17.6061 275.144 18.063 274.754 18.4535C274.363 18.8439 273.898 19.1471 273.358 19.3631C272.827 19.5791 272.249 19.6871 271.626 19.6871H269.172ZM268.399 19.6871V11.0394H269.57V19.6871H268.399Z" fill="#8CA1C6"/>
<path d="M68.6533 38.6189V36.4724H73.6863C74.3787 36.4724 74.9912 36.3327 75.5238 36.0535C76.0741 35.7743 76.5002 35.3816 76.802 34.8755C77.1216 34.3694 77.2813 33.7673 77.2813 33.0693C77.2813 32.3712 77.1216 31.7691 76.802 31.263C76.5002 30.7569 76.0741 30.3642 75.5238 30.085C74.9912 29.8058 74.3787 29.6662 73.6863 29.6662H68.6533V27.5196H73.8461C74.9823 27.5196 75.9942 27.7465 76.8819 28.2002C77.7873 28.654 78.4974 29.2997 79.0123 30.1374C79.5449 30.9576 79.8112 31.9349 79.8112 33.0693C79.8112 34.1862 79.5449 35.1635 79.0123 36.0012C78.4974 36.8214 77.7873 37.4671 76.8819 37.9383C75.9942 38.3921 74.9823 38.6189 73.8461 38.6189H68.6533ZM66.9756 45.6869V27.5196H69.4788V45.6869H66.9756Z" fill="#8CA1C6"/>
<path d="M92.2592 45.9487C90.8034 45.9487 89.5607 45.6869 88.531 45.1634C87.5013 44.6398 86.587 43.8807 85.7881 42.8859L87.4925 41.2105C88.0783 42.0133 88.7529 42.6241 89.5163 43.043C90.2797 43.4444 91.2206 43.6451 92.3391 43.6451C93.4398 43.6451 94.3186 43.4095 94.9754 42.9383C95.6501 42.4671 95.9874 41.8213 95.9874 41.0011C95.9874 40.3205 95.8276 39.7708 95.508 39.3519C95.1885 38.9331 94.7535 38.5928 94.2032 38.331C93.6706 38.0518 93.0847 37.8074 92.4456 37.598C91.8065 37.3711 91.1674 37.1355 90.5283 36.8912C89.8891 36.6294 89.3033 36.3153 88.7707 35.9488C88.2381 35.5649 87.8031 35.0675 87.4658 34.4567C87.1463 33.8459 86.9865 33.078 86.9865 32.153C86.9865 31.1234 87.235 30.2508 87.7321 29.5353C88.247 28.8023 88.9393 28.2438 89.8093 27.8599C90.6969 27.4585 91.6911 27.2578 92.7918 27.2578C93.999 27.2578 95.082 27.4934 96.0406 27.9646C96.9993 28.4184 97.7805 29.0204 98.3841 29.7709L96.6798 31.4462C96.1294 30.818 95.5347 30.3468 94.8956 30.0326C94.2742 29.7185 93.5552 29.5614 92.7385 29.5614C91.7444 29.5614 90.9543 29.7796 90.3685 30.2159C89.7826 30.6347 89.4897 31.2281 89.4897 31.996C89.4897 32.6068 89.6495 33.1042 89.969 33.4881C90.3063 33.8546 90.7413 34.1687 91.2739 34.4305C91.8065 34.6923 92.3924 34.9366 93.0315 35.1635C93.6883 35.3729 94.3363 35.6085 94.9754 35.8703C95.6146 36.1321 96.2004 36.4636 96.733 36.865C97.2656 37.2664 97.6917 37.79 98.0113 38.4357C98.3486 39.064 98.5172 39.858 98.5172 40.8179C98.5172 42.4234 97.9491 43.68 96.8129 44.5874C95.6945 45.4949 94.1766 45.9487 92.2592 45.9487Z" fill="#8CA1C6"/>
<path d="M110.678 38.3048L103.408 27.5196H106.31L112.169 36.3415H110.864L116.749 27.5196H119.599L112.276 38.3048H110.678ZM110.252 45.6869V36.6818H112.755V45.6869H110.252Z" fill="#8CA1C6"/>
<path d="M133.274 45.9487C131.942 45.9487 130.708 45.7131 129.572 45.2419C128.436 44.7532 127.442 44.0813 126.589 43.2262C125.755 42.3711 125.107 41.3763 124.646 40.242C124.184 39.1076 123.953 37.8947 123.953 36.6033C123.953 35.2944 124.184 34.0727 124.646 32.9384C125.107 31.804 125.755 30.818 126.589 29.9803C127.442 29.1252 128.427 28.462 129.545 27.9908C130.682 27.5021 131.915 27.2578 133.247 27.2578C134.703 27.2578 135.981 27.5021 137.082 27.9908C138.182 28.4794 139.159 29.1426 140.011 29.9803L138.28 31.6818C137.694 31.0361 136.975 30.53 136.123 30.1635C135.289 29.797 134.33 29.6138 133.247 29.6138C132.271 29.6138 131.374 29.7883 130.557 30.1374C129.741 30.4689 129.031 30.9489 128.427 31.5771C127.823 32.2054 127.353 32.9471 127.016 33.8022C126.696 34.6574 126.536 35.591 126.536 36.6033C126.536 37.6155 126.696 38.5491 127.016 39.4043C127.353 40.2594 127.823 41.0011 128.427 41.6294C129.031 42.2576 129.741 42.7463 130.557 43.0953C131.374 43.4269 132.271 43.5927 133.247 43.5927C134.401 43.5927 135.404 43.4095 136.256 43.043C137.108 42.659 137.827 42.1442 138.413 41.4985L140.144 43.1739C139.292 44.0464 138.289 44.7271 137.135 45.2157C135.999 45.7044 134.712 45.9487 133.274 45.9487Z" fill="#8CA1C6"/>
<path d="M147.214 45.6869V27.5196H149.717V45.6869H147.214ZM159.144 45.6869V27.5196H161.647V45.6869H159.144ZM148.918 37.4148V35.1635H159.756V37.4148H148.918Z" fill="#8CA1C6"/>
<path d="M178.425 45.9487C177.112 45.9487 175.887 45.7131 174.75 45.2419C173.614 44.7532 172.62 44.0813 171.768 43.2262C170.916 42.3536 170.25 41.3501 169.771 40.2158C169.309 39.0814 169.078 37.8685 169.078 36.5771C169.078 35.2682 169.309 34.0553 169.771 32.9384C170.25 31.804 170.907 30.8093 171.741 29.9541C172.593 29.099 173.579 28.4358 174.697 27.9646C175.833 27.4934 177.058 27.2578 178.372 27.2578C179.686 27.2578 180.902 27.4934 182.02 27.9646C183.157 28.4358 184.151 29.099 185.003 29.9541C185.855 30.8093 186.521 31.804 187 32.9384C187.48 34.0727 187.719 35.2944 187.719 36.6033C187.719 37.8947 187.48 39.1076 187 40.242C186.521 41.3763 185.855 42.3711 185.003 43.2262C184.169 44.0813 183.183 44.7532 182.047 45.2419C180.929 45.7131 179.721 45.9487 178.425 45.9487ZM178.372 43.5927C179.704 43.5927 180.866 43.296 181.861 42.7027C182.873 42.0918 183.671 41.2629 184.257 40.2158C184.843 39.1512 185.136 37.9383 185.136 36.5771C185.136 35.5649 184.967 34.6399 184.63 33.8022C184.293 32.9471 183.822 32.2054 183.219 31.5771C182.615 30.9489 181.905 30.4689 181.088 30.1374C180.272 29.7883 179.366 29.6138 178.372 29.6138C177.058 29.6138 175.896 29.9105 174.884 30.5038C173.889 31.0972 173.099 31.9174 172.514 32.9646C171.945 34.0117 171.661 35.2158 171.661 36.5771C171.661 37.5893 171.821 38.5317 172.141 39.4043C172.478 40.2594 172.94 41.0011 173.525 41.6294C174.129 42.2402 174.839 42.7201 175.656 43.0691C176.49 43.4182 177.396 43.5927 178.372 43.5927Z" fill="#8CA1C6"/>
<path d="M195.147 45.6869V27.5196H197.651V45.6869H195.147ZM196.852 45.6869V43.4356H206.758V45.6869H196.852Z" fill="#8CA1C6"/>
<path d="M220.638 45.9487C219.324 45.9487 218.099 45.7131 216.963 45.2419C215.827 44.7532 214.833 44.0813 213.98 43.2262C213.128 42.3536 212.463 41.3501 211.983 40.2158C211.522 39.0814 211.291 37.8685 211.291 36.5771C211.291 35.2682 211.522 34.0553 211.983 32.9384C212.463 31.804 213.119 30.8093 213.954 29.9541C214.806 29.099 215.791 28.4358 216.91 27.9646C218.046 27.4934 219.271 27.2578 220.585 27.2578C221.898 27.2578 223.114 27.4934 224.233 27.9646C225.369 28.4358 226.363 29.099 227.215 29.9541C228.068 30.8093 228.733 31.804 229.213 32.9384C229.692 34.0727 229.932 35.2944 229.932 36.6033C229.932 37.8947 229.692 39.1076 229.213 40.242C228.733 41.3763 228.068 42.3711 227.215 43.2262C226.381 44.0813 225.396 44.7532 224.26 45.2419C223.141 45.7131 221.934 45.9487 220.638 45.9487ZM220.585 43.5927C221.916 43.5927 223.079 43.296 224.073 42.7027C225.085 42.0918 225.884 41.2629 226.47 40.2158C227.056 39.1512 227.349 37.9383 227.349 36.5771C227.349 35.5649 227.18 34.6399 226.843 33.8022C226.505 32.9471 226.035 32.2054 225.431 31.5771C224.828 30.9489 224.118 30.4689 223.301 30.1374C222.484 29.7883 221.579 29.6138 220.585 29.6138C219.271 29.6138 218.108 29.9105 217.096 30.5038C216.102 31.0972 215.312 31.9174 214.726 32.9646C214.158 34.0117 213.874 35.2158 213.874 36.5771C213.874 37.5893 214.034 38.5317 214.353 39.4043C214.691 40.2594 215.152 41.0011 215.738 41.6294C216.342 42.2402 217.052 42.7201 217.868 43.0691C218.703 43.4182 219.608 43.5927 220.585 43.5927Z" fill="#8CA1C6"/>
<path d="M245.878 45.9487C244.582 45.9487 243.366 45.7131 242.23 45.2419C241.111 44.7532 240.126 44.0813 239.274 43.2262C238.439 42.3711 237.782 41.3763 237.303 40.242C236.824 39.1076 236.584 37.886 236.584 36.5771C236.584 35.2682 236.824 34.0553 237.303 32.9384C237.782 31.804 238.448 30.8093 239.3 29.9541C240.152 29.099 241.147 28.4358 242.283 27.9646C243.437 27.4934 244.688 27.2578 246.038 27.2578C247.511 27.2578 248.869 27.537 250.112 28.0955C251.355 28.654 252.393 29.4567 253.228 30.5038L251.497 32.2054C250.911 31.3677 250.139 30.7307 249.18 30.2944C248.221 29.8407 247.174 29.6138 246.038 29.6138C244.688 29.6138 243.49 29.9105 242.443 30.5038C241.413 31.0972 240.605 31.9174 240.019 32.9646C239.451 34.0117 239.167 35.2158 239.167 36.5771C239.167 37.9558 239.46 39.1687 240.046 40.2158C240.632 41.2629 241.422 42.0831 242.416 42.6765C243.41 43.2698 244.546 43.5665 245.825 43.5665C247.121 43.5665 248.239 43.3222 249.18 42.8335C250.139 42.3449 250.875 41.6294 251.39 40.687C251.905 39.7271 252.162 38.5579 252.162 37.1792L253.68 38.2524H245.691V36.0012H254.746V36.3677C254.746 38.4793 254.364 40.2507 253.6 41.6817C252.855 43.0953 251.807 44.1599 250.458 44.8754C249.127 45.5909 247.6 45.9487 245.878 45.9487Z" fill="#8CA1C6"/>
<path d="M266.769 38.3048L259.499 27.5196H262.402L268.261 36.3415H266.956L272.841 27.5196H275.69L268.367 38.3048H266.769ZM266.343 45.6869V36.6818H268.846V45.6869H266.343Z" fill="#8CA1C6"/>
<path fill-rule="evenodd" clip-rule="evenodd" d="M27.2575 53.9699C42.0104 53.9699 53.9699 42.0104 53.9699 27.2575C53.9699 12.5047 42.0104 0.545151 27.2575 0.545151C12.5047 0.545151 0.545151 12.5047 0.545151 27.2575C0.545151 42.0104 12.5047 53.9699 27.2575 53.9699ZM27.2575 54.5151C42.3114 54.5151 54.5151 42.3114 54.5151 27.2575C54.5151 12.2036 42.3114 0 27.2575 0C12.2036 0 0 12.2036 0 27.2575C0 42.3114 12.2036 54.5151 27.2575 54.5151Z" fill="#8CA1C6"/>
<path fill-rule="evenodd" clip-rule="evenodd" d="M27.2575 47.9732C38.6985 47.9732 47.9732 38.6985 47.9732 27.2575C47.9732 15.8165 38.6985 6.54181 27.2575 6.54181C15.8165 6.54181 6.54181 15.8165 6.54181 27.2575C6.54181 38.6985 15.8165 47.9732 27.2575 47.9732ZM27.2575 49.0635C39.3007 49.0635 49.0635 39.3007 49.0635 27.2575C49.0635 15.2144 39.3007 5.45151 27.2575 5.45151C15.2144 5.45151 5.45151 15.2144 5.45151 27.2575C5.45151 39.3007 15.2144 49.0635 27.2575 49.0635Z" fill="#8CA1C6"/>
<path fill-rule="evenodd" clip-rule="evenodd" d="M27.2575 41.9766C35.3866 41.9766 41.9766 35.3866 41.9766 27.2575C41.9766 19.1284 35.3866 12.5385 27.2575 12.5385C19.1284 12.5385 12.5385 19.1284 12.5385 27.2575C12.5385 35.3866 19.1284 41.9766 27.2575 41.9766ZM27.2575 43.612C36.2899 43.612 43.612 36.2899 43.612 27.2575C43.612 18.2252 36.2899 10.903 27.2575 10.903C18.2252 10.903 10.903 18.2252 10.903 27.2575C10.903 36.2899 18.2252 43.612 27.2575 43.612Z" fill="#8CA1C6"/>
<path fill-rule="evenodd" clip-rule="evenodd" d="M27.2575 35.9799C32.0748 35.9799 35.9799 32.0748 35.9799 27.2575C35.9799 22.4403 32.0748 18.5351 27.2575 18.5351C22.4403 18.5351 18.5351 22.4403 18.5351 27.2575C18.5351 32.0748 22.4403 35.9799 27.2575 35.9799ZM27.2575 38.1605C33.2791 38.1605 38.1605 33.2791 38.1605 27.2575C38.1605 21.236 33.2791 16.3545 27.2575 16.3545C21.236 16.3545 16.3545 21.236 16.3545 27.2575C16.3545 33.2791 21.236 38.1605 27.2575 38.1605Z" fill="#8CA1C6"/>
<path fill-rule="evenodd" clip-rule="evenodd" d="M27.2575 29.9833C28.7629 29.9833 29.9833 28.7629 29.9833 27.2575C29.9833 25.7521 28.7629 24.5318 27.2575 24.5318C25.7521 24.5318 24.5318 25.7521 24.5318 27.2575C24.5318 28.7629 25.7521 29.9833 27.2575 29.9833ZM27.2575 32.709C30.2683 32.709 32.709 30.2683 32.709 27.2575C32.709 24.2467 30.2683 21.806 27.2575 21.806C24.2467 21.806 21.806 24.2467 21.806 27.2575C21.806 30.2683 24.2467 32.709 27.2575 32.709Z" fill="#8CA1C6"/>
</svg>
