<svg width="276" height="47" viewBox="0 0 276 47" fill="none" xmlns="http://www.w3.org/2000/svg">
<path d="M68.0296 34.7215C67.7678 34.7691 67.4227 34.8524 66.9943 34.9714C66.5659 35.0904 66.0899 35.1499 65.5663 35.1499C64.4953 35.1499 63.6742 34.8881 63.103 34.3645C62.5556 33.8171 62.2819 32.8532 62.2819 31.4728V17.9424H59.6758V16.1574H62.2819V11.0166H64.4239V16.1574H67.8868V17.9424H64.4239V30.616C64.4239 31.0682 64.4358 31.4609 64.4596 31.7941C64.4834 32.1273 64.5548 32.401 64.6738 32.6152C64.7928 32.8294 64.9713 32.9841 65.2093 33.0793C65.4711 33.1745 65.8281 33.2221 66.2803 33.2221C66.5659 33.2221 66.8515 33.1983 67.1371 33.1507C67.4465 33.1031 67.744 33.0436 68.0296 32.9722V34.7215Z" fill="#8CA1C6"/>
<path d="M73.2533 34.6501V8.94595H75.3953V18.7278C76.2521 17.8234 77.1327 17.0856 78.0372 16.5144C78.9654 15.9432 80.0721 15.6576 81.3573 15.6576C82.4997 15.6576 83.5588 15.8599 84.5346 16.2645C85.5104 16.6453 86.3315 17.3236 86.9979 18.2994C87.4501 18.9658 87.7119 19.656 87.7833 20.37C87.8785 21.0602 87.9261 21.7861 87.9261 22.5478V34.6501H85.7841V22.5835C85.7841 20.9174 85.4152 19.6679 84.6774 18.8349C83.9396 18.0019 82.7139 17.5854 81.0003 17.5854C80.3339 17.5854 79.727 17.6925 79.1796 17.9067C78.6322 18.0971 78.1324 18.3589 77.6801 18.6921C77.2517 19.0253 76.8828 19.4061 76.5734 19.8345C76.264 20.2629 76.026 20.7151 75.8594 21.1911C75.6452 21.7861 75.5143 22.3574 75.4667 22.9048C75.4191 23.4522 75.3953 24.0472 75.3953 24.6898V34.6501H73.2533Z" fill="#8CA1C6"/>
<path d="M108.263 24.1186C108.263 23.2142 108.132 22.3693 107.871 21.5838C107.633 20.7746 107.264 20.0844 106.764 19.5132C106.288 18.9182 105.681 18.4541 104.943 18.1209C104.205 17.7639 103.36 17.5854 102.408 17.5854C101.456 17.5854 100.612 17.7639 99.8737 18.1209C99.1597 18.4779 98.5409 18.9539 98.0173 19.5489C97.5175 20.1439 97.1129 20.8341 96.8035 21.6195C96.4941 22.405 96.2918 23.238 96.1966 24.1186H108.263ZM96.1966 25.9036C96.1966 26.9032 96.3275 27.8552 96.5893 28.7596C96.8511 29.6402 97.2319 30.4137 97.7317 31.0801C98.2553 31.7227 98.9098 32.2463 99.6952 32.6509C100.481 33.0317 101.385 33.2221 102.408 33.2221C103.813 33.2221 105.015 32.8532 106.014 32.1154C107.014 31.3776 107.68 30.3304 108.013 28.9738H110.405C110.143 29.8544 109.798 30.6755 109.37 31.4371C108.942 32.1749 108.406 32.8294 107.763 33.4006C107.121 33.948 106.359 34.3764 105.479 34.6858C104.598 34.9952 103.575 35.1499 102.408 35.1499C100.933 35.1499 99.6595 34.9 98.5885 34.4002C97.5175 33.9004 96.6369 33.2221 95.9467 32.3653C95.2565 31.4847 94.7448 30.4613 94.4116 29.2951C94.0784 28.1051 93.9118 26.8318 93.9118 25.4752C93.9118 24.1186 94.1022 22.8453 94.483 21.6552C94.8876 20.4652 95.4469 19.4299 96.1609 18.5493C96.8987 17.6449 97.7912 16.9428 98.8384 16.443C99.8856 15.9194 101.076 15.6576 102.408 15.6576C104.955 15.6576 106.954 16.5382 108.406 18.2994C109.858 20.0368 110.572 22.5716 110.548 25.9036H96.1966Z" fill="#8CA1C6"/>
<path d="M118.747 34.6501H116.605V16.1574H118.747V19.6203H118.819C119.414 18.1447 120.175 17.1213 121.103 16.5501C122.055 15.9551 123.305 15.6576 124.852 15.6576V17.9781C123.638 17.9543 122.638 18.1447 121.853 18.5493C121.068 18.9539 120.437 19.5013 119.961 20.1915C119.509 20.8817 119.187 21.7028 118.997 22.6549C118.83 23.5831 118.747 24.5589 118.747 25.5823V34.6501Z" fill="#8CA1C6"/>
<path d="M142.274 24.9397C141.37 25.3205 140.453 25.5704 139.525 25.6894C138.597 25.8084 137.669 25.9036 136.74 25.975C135.098 26.094 133.813 26.4629 132.885 27.0817C131.98 27.7005 131.528 28.6406 131.528 29.902C131.528 30.4732 131.635 30.973 131.849 31.4014C132.087 31.806 132.385 32.1511 132.742 32.4367C133.123 32.6985 133.551 32.9008 134.027 33.0436C134.527 33.1626 135.027 33.2221 135.527 33.2221C136.383 33.2221 137.216 33.115 138.026 32.9008C138.835 32.6866 139.549 32.3653 140.168 31.9369C140.81 31.4847 141.322 30.9254 141.703 30.259C142.084 29.5688 142.274 28.7596 142.274 27.8314V24.9397ZM138.668 23.8687C139.073 23.8211 139.549 23.7497 140.096 23.6545C140.667 23.5593 141.132 23.4284 141.489 23.2618C141.846 23.0952 142.06 22.8215 142.131 22.4407C142.226 22.036 142.274 21.6671 142.274 21.3339C142.274 20.2391 141.917 19.3466 141.203 18.6564C140.513 17.9424 139.335 17.5854 137.669 17.5854C136.931 17.5854 136.252 17.6568 135.634 17.7996C135.015 17.9186 134.467 18.1447 133.991 18.4779C133.539 18.7873 133.158 19.2157 132.849 19.7631C132.563 20.2867 132.373 20.9531 132.278 21.7623H130.1C130.172 20.6675 130.421 19.7393 130.85 18.9777C131.278 18.1923 131.826 17.5616 132.492 17.0856C133.182 16.5858 133.968 16.2288 134.848 16.0146C135.753 15.7766 136.705 15.6576 137.704 15.6576C138.632 15.6576 139.501 15.7647 140.31 15.9789C141.143 16.1693 141.857 16.4906 142.452 16.9428C143.071 17.3712 143.547 17.9543 143.88 18.6921C144.237 19.4299 144.416 20.3343 144.416 21.4053V31.4728C144.416 32.3058 144.559 32.8413 144.844 33.0793C145.154 33.2935 145.761 33.234 146.665 32.9008V34.5787C146.498 34.6263 146.249 34.6977 145.915 34.7929C145.606 34.8881 145.297 34.9357 144.987 34.9357C144.654 34.9357 144.333 34.9 144.023 34.8286C143.666 34.781 143.381 34.6739 143.166 34.5073C142.952 34.3169 142.774 34.1027 142.631 33.8647C142.512 33.6029 142.429 33.3292 142.381 33.0436C142.333 32.7342 142.31 32.4129 142.31 32.0797C141.405 33.0793 140.37 33.8409 139.204 34.3645C138.037 34.8881 136.776 35.1499 135.419 35.1499C134.61 35.1499 133.825 35.0428 133.063 34.8286C132.325 34.6144 131.671 34.2812 131.1 33.829C130.529 33.3768 130.076 32.8294 129.743 32.1868C129.41 31.5204 129.243 30.735 129.243 29.8306C129.243 26.689 131.397 24.8326 135.705 24.2614L138.668 23.8687Z" fill="#8CA1C6"/>
<path d="M154.186 25.4752C154.186 26.5224 154.329 27.522 154.614 28.474C154.9 29.4022 155.304 30.2233 155.828 30.9373C156.375 31.6275 157.03 32.1868 157.792 32.6152C158.577 33.0198 159.458 33.2221 160.433 33.2221C161.528 33.2221 162.48 33.0079 163.289 32.5795C164.122 32.1273 164.801 31.5204 165.324 30.7588C165.848 29.9972 166.229 29.1166 166.467 28.117C166.705 27.0936 166.8 25.9988 166.752 24.8326C166.752 23.6664 166.586 22.643 166.253 21.7623C165.943 20.8579 165.503 20.0963 164.932 19.4775C164.36 18.8587 163.694 18.3946 162.932 18.0852C162.171 17.752 161.338 17.5854 160.433 17.5854C159.434 17.5854 158.541 17.7877 157.756 18.1923C156.97 18.5969 156.316 19.1562 155.792 19.8702C155.269 20.5604 154.864 21.3934 154.579 22.3693C154.317 23.3213 154.186 24.3566 154.186 25.4752ZM154.186 41.933H152.044V16.1574H154.186V19.4061H154.257C154.567 18.8111 154.959 18.2756 155.435 17.7996C155.935 17.3236 156.471 16.9309 157.042 16.6215C157.637 16.3121 158.244 16.0741 158.863 15.9075C159.481 15.7409 160.088 15.6576 160.683 15.6576C162.183 15.6576 163.456 15.9075 164.503 16.4073C165.55 16.9071 166.407 17.5973 167.074 18.4779C167.764 19.3347 168.264 20.3581 168.573 21.5481C168.882 22.7382 169.037 24.0115 169.037 25.3681C169.037 26.6533 168.871 27.8909 168.537 29.0809C168.204 30.2709 167.692 31.3181 167.002 32.2225C166.336 33.1031 165.479 33.8171 164.432 34.3645C163.408 34.8881 162.195 35.1499 160.79 35.1499C159.481 35.1499 158.22 34.8643 157.006 34.2931C155.816 33.6981 154.876 32.8294 154.186 31.687V41.933Z" fill="#8CA1C6"/>
<path d="M175.261 39.6839C175.546 39.7315 175.832 39.7791 176.117 39.8267C176.427 39.8743 176.736 39.8981 177.046 39.8981C177.641 39.8981 178.129 39.7077 178.509 39.3269C178.89 38.9461 179.2 38.482 179.438 37.9346C179.699 37.411 179.914 36.8517 180.08 36.2567C180.247 35.6855 180.437 35.1975 180.651 34.7929L173.476 16.1574H175.868L181.794 32.044L187.72 16.1574H190.041L183.15 34.4002C182.722 35.5664 182.306 36.6137 181.901 37.5419C181.52 38.4701 181.104 39.2555 180.651 39.8981C180.223 40.5645 179.735 41.0643 179.188 41.3975C178.664 41.7545 178.033 41.933 177.296 41.933C176.915 41.933 176.546 41.9092 176.189 41.8616C175.856 41.814 175.546 41.7545 175.261 41.6831V39.6839Z" fill="#8CA1C6"/>
<path d="M203.485 31.1115V34.8245L201.132 34.9116C198.784 34.993 197.181 34.5862 196.321 33.6914C195.763 33.122 195.484 32.2446 195.484 31.0592V19.3625H192.834V15.8238H195.484V10.5246H200.4V15.8238H203.485V19.3625H200.4V29.4032C200.4 30.1818 200.498 30.6699 200.696 30.8674C200.894 31.0534 201.498 31.1464 202.509 31.1464C202.66 31.1464 202.817 31.1464 202.98 31.1464C203.154 31.1347 203.322 31.1231 203.485 31.1115Z" fill="#8CA1C6"/>
<path d="M218.013 20.2341C216.014 20.2341 214.672 20.8849 213.986 22.1864C213.602 22.9186 213.411 24.0458 213.411 25.5682V34.6501H208.408V15.6495H213.149V18.9616C213.916 17.6948 214.584 16.8291 215.154 16.3642C216.084 15.5856 217.292 15.1963 218.78 15.1963C218.873 15.1963 218.948 15.2021 219.006 15.2137C219.076 15.2137 219.221 15.2195 219.442 15.2312V20.3212C219.128 20.2864 218.849 20.2631 218.605 20.2515C218.361 20.2399 218.164 20.2341 218.013 20.2341Z" fill="#8CA1C6"/>
<path d="M229.263 15.6495V34.6501H224.225V15.6495H229.263ZM229.263 8.79883V13.3834H224.225V8.79883H229.263Z" fill="#8CA1C6"/>
<path d="M246.196 35.1557C244.628 35.1557 243.367 34.8419 242.414 34.2143C241.844 33.8425 241.228 33.1917 240.566 32.262V34.6501H235.702V8.99058H240.653V18.1248C241.281 17.2416 241.972 16.5676 242.727 16.1027C243.622 15.5217 244.761 15.2312 246.144 15.2312C248.643 15.2312 250.595 16.1318 252.001 17.9331C253.419 19.7344 254.128 22.0586 254.128 24.9058C254.128 27.8576 253.431 30.3038 252.036 32.2446C250.641 34.1853 248.695 35.1557 246.196 35.1557ZM248.916 25.4287C248.916 24.0807 248.741 22.965 248.393 22.0818C247.73 20.4084 246.51 19.5717 244.732 19.5717C242.931 19.5717 241.693 20.391 241.019 22.0295C240.671 22.9011 240.496 24.0284 240.496 25.4113C240.496 27.0383 240.856 28.3863 241.577 29.4555C242.297 30.5246 243.396 31.0592 244.872 31.0592C246.15 31.0592 247.144 30.5421 247.852 29.5078C248.561 28.4735 248.916 27.1138 248.916 25.4287Z" fill="#8CA1C6"/>
<path d="M275.75 29.072C275.622 30.1992 275.036 31.3439 273.99 32.506C272.363 34.3538 270.085 35.2777 267.156 35.2777C264.739 35.2777 262.607 34.4991 260.759 32.9418C258.911 31.3846 257.987 28.8512 257.987 25.3416C257.987 22.0528 258.818 19.531 260.48 17.7762C262.153 16.0214 264.321 15.144 266.982 15.144C268.563 15.144 269.986 15.4403 271.253 16.033C272.52 16.6257 273.565 17.5612 274.391 18.8395C275.134 19.9668 275.617 21.2742 275.837 22.7617C275.965 23.6333 276.018 24.8884 275.994 26.5269H262.99C263.06 28.4328 263.658 29.7692 264.786 30.5362C265.471 31.0127 266.296 31.2509 267.261 31.2509C268.284 31.2509 269.115 30.9604 269.754 30.3794C270.102 30.0656 270.41 29.6298 270.678 29.072H275.75ZM270.834 23.2498C270.753 21.9366 270.352 20.943 269.632 20.2689C268.923 19.5833 268.04 19.2405 266.982 19.2405C265.832 19.2405 264.937 19.6007 264.298 20.3212C263.67 21.0417 263.275 22.0179 263.112 23.2498H270.834Z" fill="#8CA1C6"/>
<path d="M28.3507 5.25004C28.3507 10.5001 23.1006 21.0002 23.1006 21.0002C23.1006 21.0002 17.8506 10.5001 17.8506 5.25004C17.8506 2.35052 20.2011 0 23.1006 0C26.0001 0 28.3507 2.35052 28.3507 5.25004Z" fill="#8CA1C6"/>
<path d="M17.8505 40.9511C17.8505 35.7011 23.1005 25.201 23.1005 25.201C23.1005 25.201 28.3506 35.7011 28.3506 40.9511C28.3506 43.8506 26.0001 46.2012 23.1005 46.2012C20.201 46.2012 17.8505 43.8506 17.8505 40.9511Z" fill="#8CA1C6"/>
<path d="M40.9502 28.3497C35.7001 28.3497 25.2 23.0996 25.2 23.0996C25.2 23.0996 35.7001 17.8496 40.9502 17.8496C43.8497 17.8496 46.2002 20.2001 46.2002 23.0996C46.2002 25.9992 43.8497 28.3497 40.9502 28.3497Z" fill="#8CA1C6"/>
<path d="M5.25004 17.8495C10.5001 17.8495 21.0002 23.0996 21.0002 23.0996C21.0002 23.0996 10.5001 28.3496 5.25004 28.3496C2.35052 28.3496 3.08234e-07 25.9991 6.8846e-07 23.0996C1.06869e-06 20.2001 2.35052 17.8495 5.25004 17.8495Z" fill="#8CA1C6"/>
<path d="M40.0493 13.5745C36.3369 17.2869 25.1999 20.9992 25.1999 20.9992C25.1999 20.9992 28.9122 9.86218 32.6246 6.14984C34.6748 4.09957 37.999 4.09957 40.0493 6.14984C42.0995 8.20011 42.0995 11.5242 40.0493 13.5745Z" fill="#8CA1C6"/>
<path d="M6.15094 32.6247C9.86328 28.9124 21.0003 25.2 21.0003 25.2C21.0003 25.2 17.288 36.337 13.5756 40.0494C11.5254 42.0996 8.20121 42.0996 6.15094 40.0494C4.10068 37.9991 4.10068 34.675 6.15094 32.6247Z" fill="#8CA1C6"/>
<path d="M32.6247 40.0483C28.9124 36.3359 25.2 25.1989 25.2 25.1989C25.2 25.1989 36.337 28.9113 40.0494 32.6236C42.0996 34.6739 42.0996 37.998 40.0494 40.0483C37.9991 42.0985 34.675 42.0985 32.6247 40.0483Z" fill="#8CA1C6"/>
<path d="M13.5755 6.1529C17.2878 9.86524 21.0002 21.0023 21.0002 21.0023C21.0002 21.0023 9.86315 17.2899 6.15081 13.5776C4.10055 11.5273 4.10055 8.20316 6.15082 6.1529C8.20108 4.10263 11.5252 4.10263 13.5755 6.1529Z" fill="#8CA1C6"/>
</svg>
