<svg width="276" height="50" viewBox="0 0 276 50" fill="none" xmlns="http://www.w3.org/2000/svg">
<path d="M70.8178 13.759C70.8178 15.027 69.9761 16.3314 68.2226 17.5995C66.4804 18.8594 63.9273 20.0148 60.7273 20.9936C54.3336 22.9493 45.4705 24.1664 35.6589 24.1664C25.8473 24.1664 16.9842 22.9493 10.5905 20.9936C7.39057 20.0148 4.83741 18.8594 3.09526 17.5995C1.3417 16.3314 0.5 15.027 0.5 13.759C0.5 12.491 1.3417 11.1866 3.09526 9.91848C4.83741 8.65858 7.39057 7.50321 10.5905 6.52441C16.9842 4.56869 25.8473 3.35156 35.6589 3.35156C45.4705 3.35156 54.3336 4.56869 60.7273 6.52441C63.9273 7.50321 66.4804 8.65858 68.2226 9.91848C69.9761 11.1866 70.8178 12.491 70.8178 13.759Z" stroke="#8CA1C6"/>
<path d="M70.8178 29.0305C70.8178 30.2985 69.9761 31.6028 68.2226 32.871C66.4804 34.1309 63.9273 35.2863 60.7273 36.2651C54.3336 38.2208 45.4705 39.4379 35.6589 39.4379C25.8473 39.4379 16.9842 38.2208 10.5905 36.2651C7.39057 35.2863 4.83741 34.1309 3.09526 32.871C1.3417 31.6028 0.5 30.2985 0.5 29.0305C0.5 27.7624 1.3417 26.4581 3.09526 25.19C4.83741 23.9301 7.39057 22.7747 10.5905 21.7959C16.9842 19.8402 25.8473 18.623 35.6589 18.623C45.4705 18.623 54.3336 19.8402 60.7273 21.7959C63.9273 22.7747 66.4804 23.9301 68.2226 25.19C69.9761 26.4581 70.8178 27.7624 70.8178 29.0305Z" stroke="#8CA1C6"/>
<path d="M79.876 31.3734V25.3495H80.7514C81.7689 28.828 83.587 30.5672 86.2057 30.5672C87.343 30.5672 88.1885 30.2239 88.7421 29.5371C89.3108 28.8504 89.5951 28.0965 89.5951 27.2754C89.5951 26.3199 89.2958 25.5361 88.6972 24.924C88.0837 24.312 86.8941 23.573 85.1283 22.7071C83.2728 21.7964 81.941 20.9007 81.133 20.0199C80.3249 19.154 79.9209 18.0865 79.9209 16.8176C79.9209 15.6083 80.3548 14.4588 81.2227 13.369C82.0906 12.2642 83.3102 11.7118 84.8814 11.7118C86.4826 11.7118 87.8069 12.3613 88.8544 13.6601C89.0788 13.4361 89.3706 12.8912 89.7298 12.0253H90.5603V17.6909H89.7298C89.4305 16.3324 88.8469 15.1679 87.979 14.1975C87.126 13.2122 86.116 12.7195 84.9488 12.7195C84.0509 12.7195 83.3252 12.9957 82.7715 13.5481C82.2178 14.1005 81.941 14.7424 81.941 15.474C81.941 16.2801 82.2478 16.9743 82.8613 17.5566C83.4599 18.1537 84.6046 18.833 86.2955 19.5944C88.8394 20.7439 90.3957 21.8636 90.9643 22.9534C91.5329 24.0582 91.8172 25.1181 91.8172 26.1333C91.8172 27.7307 91.286 29.0295 90.2236 30.0298C89.1761 31.03 87.8518 31.5301 86.2506 31.5301C84.5597 31.5301 83.0558 30.8359 81.739 29.4475C81.335 29.8954 81.0058 30.5374 80.7514 31.3734H79.876Z" fill="#8CA1C6"/>
<path d="M97.3704 21.5874C97.3704 18.7807 98.3131 16.4369 100.199 14.5558C102.084 12.6598 104.403 11.7118 107.157 11.7118C109.925 11.7118 112.252 12.6598 114.138 14.5558C116.023 16.4518 116.966 18.7957 116.966 21.5874C116.966 24.6777 116.008 27.1111 114.093 28.8877C112.177 30.6493 109.865 31.5301 107.157 31.5301C104.448 31.5301 102.136 30.6344 100.221 28.8429C98.3206 27.0365 97.3704 24.618 97.3704 21.5874ZM101.096 21.6994C101.096 24.9539 101.628 27.238 102.69 28.5518C103.753 29.8506 105.241 30.5 107.157 30.5C109.117 30.5 110.614 29.8506 111.646 28.5518C112.694 27.238 113.217 24.9539 113.217 21.6994C113.217 18.4747 112.701 16.1756 111.668 14.8021C110.636 13.4287 109.132 12.7419 107.157 12.7419C105.197 12.7419 103.693 13.4287 102.645 14.8021C101.613 16.1607 101.096 18.4598 101.096 21.6994Z" fill="#8CA1C6"/>
<path d="M140.925 12.4508V24.4762C140.925 26.4767 140.954 27.7307 141.014 28.2383C141.074 28.7459 141.291 29.1266 141.665 29.3804C142.054 29.6342 142.743 29.7611 143.73 29.7611V30.7912C141.456 30.821 139.795 31.0599 138.747 31.5078H138.478C137.999 30.6867 137.745 29.2684 137.715 27.253C136.802 28.6712 135.755 29.7387 134.572 30.4553C133.405 31.1718 132.111 31.5301 130.689 31.5301C129.462 31.5301 128.377 31.254 127.435 30.7016C126.492 30.1343 125.841 29.4475 125.482 28.6414C125.138 27.8352 124.965 26.6185 124.965 24.9912V18.7434C124.965 16.6235 124.928 15.3321 124.853 14.8693C124.778 14.3916 124.539 14.0408 124.135 13.8168C123.746 13.5929 123.02 13.4809 121.958 13.4809V12.4508H128.198V25.1704C128.198 26.4244 128.273 27.3351 128.422 27.9024C128.572 28.4697 128.953 28.9698 129.567 29.4028C130.18 29.8208 130.891 30.0298 131.699 30.0298C132.851 30.0298 133.951 29.6566 134.999 28.9101C136.046 28.1487 136.757 27.35 137.131 26.514C137.52 25.663 137.715 24.4538 137.715 22.8862V18.7434C137.715 16.7429 137.692 15.5262 137.647 15.0933C137.603 14.6603 137.408 14.2871 137.064 13.9736C136.735 13.6451 136.039 13.4809 134.976 13.4809H134.505V12.4508H140.925Z" fill="#8CA1C6"/>
<path d="M159.833 13.4809H154.289V24.5657C154.289 26.2677 154.364 27.4172 154.513 28.0144C154.663 28.5966 154.977 29.0669 155.456 29.4252C155.95 29.7834 156.474 29.9626 157.027 29.9626C158.105 29.9626 159.04 29.3505 159.833 28.1263L160.551 28.5518C160.087 29.5371 159.399 30.2836 158.486 30.7912C157.588 31.2838 156.676 31.5301 155.748 31.5301C154.67 31.5301 153.72 31.2166 152.897 30.5896C152.089 29.9477 151.58 29.2012 151.371 28.3503C151.176 27.4993 151.079 26.0064 151.079 23.8715V13.4809H148.408V12.4508C149.635 12.421 150.735 11.9059 151.708 10.9057C152.68 9.90542 153.301 8.50209 153.571 6.69568H154.289V12.4508H159.833V13.4809Z" fill="#8CA1C6"/>
<path d="M170.437 15.474C171.334 14.2199 172.337 13.2794 173.444 12.6524C174.567 12.0253 175.794 11.7118 177.125 11.7118C178.637 11.7118 179.886 12.0253 180.874 12.6524C181.877 13.2794 182.527 14.0557 182.827 14.9813C183.126 15.892 183.276 17.3774 183.276 19.4376V24.4986C183.276 26.6483 183.313 27.9546 183.388 28.4174C183.478 28.8802 183.725 29.2236 184.129 29.4475C184.533 29.6566 185.281 29.7611 186.373 29.7611V30.7912H176.879V29.7611H177.305C178.397 29.7611 179.101 29.6043 179.415 29.2908C179.744 28.9773 179.931 28.6115 179.976 28.1935C180.036 27.7606 180.066 26.5289 180.066 24.4986V18.9897C180.066 17.467 179.976 16.3398 179.797 15.6083C179.617 14.8768 179.19 14.2722 178.517 13.7944C177.859 13.3167 177.028 13.0778 176.026 13.0778C174.858 13.0778 173.811 13.4212 172.883 14.1079C171.955 14.7798 171.14 15.7949 170.437 17.1535V24.4986C170.437 26.5588 170.466 27.8277 170.526 28.3055C170.601 28.7832 170.833 29.149 171.222 29.4028C171.611 29.6416 172.322 29.7611 173.355 29.7611V30.7912H164.017V29.7611H164.488C165.566 29.7611 166.262 29.6118 166.576 29.3132C166.905 28.9997 167.092 28.6339 167.137 28.2159C167.197 27.783 167.227 26.5438 167.227 24.4986V6.22541C167.227 4.37421 167.047 3.20228 166.688 2.70962C166.344 2.21696 165.506 1.97063 164.174 1.97063V0.94053C166.494 0.94053 168.424 0.62702 169.965 0H170.437V15.474Z" fill="#8CA1C6"/>
<path d="M221.025 26.3124H222.013C220.995 29.7909 218.451 31.5301 214.381 31.5301C211.763 31.5301 209.555 30.6419 207.76 28.8653C205.979 27.0888 205.089 24.7374 205.089 21.8113C205.089 18.8106 206.054 16.3772 207.984 14.511C209.915 12.6449 212.197 11.7118 214.83 11.7118C216.416 11.7118 217.875 12.0627 219.207 12.7643C220.539 13.4511 221.205 14.2946 221.205 15.2948C221.205 15.668 221.078 16.0189 220.823 16.3473C220.584 16.6757 220.232 16.84 219.768 16.84C218.781 16.84 218.175 16.2652 217.95 15.1157C217.771 14.2498 217.494 13.6451 217.12 13.3018C216.731 12.9584 215.975 12.7867 214.853 12.7867C212.847 12.7867 211.336 13.4809 210.319 14.8693C209.316 16.2577 208.815 18.3478 208.815 21.1395C208.815 24.0208 209.353 26.2751 210.431 27.9024C211.523 29.5297 213.169 30.3433 215.369 30.3433C218.332 30.3433 220.217 28.9997 221.025 26.3124Z" fill="#8CA1C6"/>
<path d="M228.486 2.35132C228.486 1.70938 228.711 1.157 229.16 0.694201C229.624 0.2314 230.177 0 230.821 0C231.464 0 232.01 0.2314 232.459 0.694201C232.908 1.157 233.133 1.70938 233.133 2.35132C233.133 3.0082 232.908 3.56804 232.459 4.03084C232.01 4.49364 231.464 4.72504 230.821 4.72504C230.177 4.72504 229.624 4.49364 229.16 4.03084C228.711 3.56804 228.486 3.0082 228.486 2.35132ZM232.818 11.7118V24.4986C232.818 26.4543 232.848 27.6859 232.908 28.1935C232.968 28.7011 233.185 29.0892 233.559 29.358C233.933 29.6267 234.599 29.7611 235.557 29.7611H236.028V30.7912H226.13V29.7611H226.893C227.955 29.7611 228.643 29.6118 228.958 29.3132C229.287 28.9997 229.474 28.6339 229.519 28.2159C229.579 27.783 229.609 26.5438 229.609 24.4986V18.945C229.609 16.7952 229.504 15.4814 229.294 15.0037C229.1 14.526 228.831 14.2274 228.486 14.1079C228.157 13.9885 227.574 13.9288 226.736 13.9288H226.13V12.8987C228.793 12.63 230.858 12.2344 232.325 11.7118H232.818Z" fill="#8CA1C6"/>
<path d="M251.817 13.4809H246.273V24.5657C246.273 26.2677 246.347 27.4172 246.497 28.0144C246.647 28.5966 246.961 29.0669 247.44 29.4252C247.934 29.7834 248.457 29.9626 249.011 29.9626C250.088 29.9626 251.024 29.3505 251.817 28.1263L252.535 28.5518C252.071 29.5371 251.383 30.2836 250.47 30.7912C249.572 31.2838 248.659 31.5301 247.732 31.5301C246.654 31.5301 245.704 31.2166 244.881 30.5896C244.073 29.9477 243.564 29.2012 243.355 28.3503C243.16 27.4993 243.063 26.0064 243.063 23.8715V13.4809H240.392V12.4508C241.619 12.421 242.719 11.9059 243.691 10.9057C244.664 9.90542 245.285 8.50209 245.554 6.69568H246.273V12.4508H251.817V13.4809Z" fill="#8CA1C6"/>
<path d="M266.842 27.3202L271.107 17.1311C271.72 15.6382 272.027 14.8096 272.027 14.6454C272.027 13.8989 271.197 13.5108 269.536 13.4809V12.4508H276V13.4809C274.997 13.5257 274.264 13.7944 273.8 14.2871C273.336 14.7648 272.76 15.8323 272.072 17.4894L263.879 37.2181C263.101 39.0992 262.413 40.3756 261.814 41.0474C261.216 41.7341 260.557 42.0775 259.839 42.0775C258.866 42.0775 258.38 41.6371 258.38 40.7563C258.38 39.7411 259.158 38.8827 260.714 38.181C261.627 37.778 262.233 37.4346 262.532 37.1509C262.847 36.8673 263.153 36.3522 263.453 35.6058L265.203 31.239L258.29 16.4593C257.677 15.1604 257.168 14.3393 256.764 13.996C256.36 13.6526 255.671 13.4809 254.699 13.4809V12.4508H263.138V13.4809C261.657 13.5257 260.916 13.8318 260.916 14.3991C260.916 14.623 261.208 15.3545 261.792 16.5936L266.842 27.3202Z" fill="#8CA1C6"/>
<path d="M81.4373 46.0065V44.8598H83.9826C84.3327 44.8598 84.6425 44.7852 84.9118 44.6361C85.1901 44.4869 85.4056 44.2772 85.5582 44.0068C85.7199 43.7365 85.8007 43.4148 85.8007 43.0419C85.8007 42.669 85.7199 42.3474 85.5582 42.077C85.4056 41.8067 85.1901 41.5969 84.9118 41.4478C84.6425 41.2986 84.3327 41.224 83.9826 41.224H81.4373V40.0773H84.0634C84.638 40.0773 85.1497 40.1985 85.5986 40.4409C86.0565 40.6833 86.4157 41.0282 86.676 41.4757C86.9454 41.9139 87.08 42.436 87.08 43.0419C87.08 43.6386 86.9454 44.1606 86.676 44.6081C86.4157 45.0463 86.0565 45.3912 85.5986 45.6429C85.1497 45.8853 84.638 46.0065 84.0634 46.0065H81.4373ZM80.5889 49.7822V40.0773H81.8548V49.7822H80.5889Z" fill="#8CA1C6"/>
<path d="M93.3752 49.922C92.639 49.922 92.0105 49.7822 91.4898 49.5025C90.9691 49.2228 90.5067 48.8173 90.1027 48.2859L90.9646 47.3909C91.2608 47.8198 91.602 48.146 91.9881 48.3698C92.3741 48.5842 92.85 48.6914 93.4156 48.6914C93.9722 48.6914 94.4167 48.5656 94.7488 48.3138C95.09 48.0621 95.2606 47.7172 95.2606 47.279C95.2606 46.9155 95.1798 46.6218 95.0182 46.3981C94.8566 46.1743 94.6366 45.9925 94.3583 45.8527C94.089 45.7035 93.7927 45.573 93.4695 45.4611C93.1463 45.3399 92.823 45.2141 92.4998 45.0836C92.1766 44.9437 91.8803 44.7759 91.611 44.5802C91.3417 44.3751 91.1217 44.1094 90.9511 43.7831C90.7895 43.4568 90.7087 43.0466 90.7087 42.5525C90.7087 42.0025 90.8344 41.5363 91.0858 41.1541C91.3461 40.7625 91.6963 40.4642 92.1362 40.2591C92.5851 40.0447 93.0879 39.9375 93.6445 39.9375C94.255 39.9375 94.8027 40.0634 95.2875 40.3151C95.7723 40.5575 96.1674 40.8791 96.4726 41.28L95.6107 42.1749C95.3324 41.8393 95.0317 41.5876 94.7084 41.4198C94.3942 41.252 94.0306 41.1681 93.6176 41.1681C93.1148 41.1681 92.7153 41.2846 92.419 41.5177C92.1227 41.7414 91.9746 42.0584 91.9746 42.4686C91.9746 42.7949 92.0554 43.0606 92.217 43.2657C92.3876 43.4614 92.6076 43.6292 92.8769 43.7691C93.1463 43.9089 93.4425 44.0394 93.7657 44.1606C94.0979 44.2725 94.4256 44.3984 94.7488 44.5382C95.0721 44.678 95.3683 44.8552 95.6377 45.0696C95.907 45.284 96.1225 45.5637 96.2841 45.9086C96.4547 46.2442 96.54 46.6684 96.54 47.1812C96.54 48.0388 96.2527 48.7101 95.6781 49.1948C95.1125 49.6796 94.3448 49.922 93.3752 49.922Z" fill="#8CA1C6"/>
<path d="M102.69 45.8387L99.0132 40.0773H100.481L103.444 44.7899H102.784L105.76 40.0773H107.201L103.498 45.8387H102.69ZM102.474 49.7822V44.9717H103.74V49.7822H102.474Z" fill="#8CA1C6"/>
<path d="M114.117 49.922C113.443 49.922 112.819 49.7961 112.245 49.5444C111.67 49.2834 111.168 48.9245 110.737 48.4677C110.315 48.0109 109.987 47.4795 109.753 46.8735C109.52 46.2675 109.403 45.6196 109.403 44.9297C109.403 44.2306 109.52 43.578 109.753 42.972C109.987 42.366 110.315 41.8393 110.737 41.3918C111.168 40.935 111.666 40.5808 112.231 40.329C112.806 40.068 113.43 39.9375 114.103 39.9375C114.84 39.9375 115.486 40.068 116.043 40.329C116.599 40.5901 117.093 40.9443 117.524 41.3918L116.649 42.3008C116.352 41.9558 115.989 41.6855 115.558 41.4897C115.136 41.2939 114.651 41.1961 114.103 41.1961C113.61 41.1961 113.156 41.2893 112.743 41.4757C112.33 41.6529 111.971 41.9092 111.666 42.2448C111.361 42.5805 111.123 42.9767 110.952 43.4335C110.79 43.8903 110.71 44.389 110.71 44.9297C110.71 45.4705 110.79 45.9692 110.952 46.426C111.123 46.8828 111.361 47.279 111.666 47.6147C111.971 47.9503 112.33 48.2113 112.743 48.3978C113.156 48.5749 113.61 48.6634 114.103 48.6634C114.687 48.6634 115.194 48.5656 115.625 48.3698C116.056 48.1647 116.42 47.8897 116.716 47.5447L117.591 48.4397C117.16 48.9058 116.653 49.2694 116.07 49.5304C115.495 49.7915 114.844 49.922 114.117 49.922Z" fill="#8CA1C6"/>
<path d="M121.167 49.7822V40.0773H122.432V49.7822H121.167ZM127.2 49.7822V40.0773H128.466V49.7822H127.2ZM122.028 45.3632V44.1606H127.51V45.3632H122.028Z" fill="#8CA1C6"/>
<path d="M136.951 49.922C136.286 49.922 135.667 49.7961 135.092 49.5444C134.518 49.2834 134.015 48.9245 133.584 48.4677C133.153 48.0015 132.816 47.4655 132.574 46.8595C132.341 46.2536 132.224 45.6056 132.224 44.9158C132.224 44.2166 132.341 43.5687 132.574 42.972C132.816 42.366 133.149 41.8346 133.571 41.3778C134.001 40.921 134.5 40.5668 135.065 40.3151C135.64 40.0634 136.259 39.9375 136.924 39.9375C137.588 39.9375 138.203 40.0634 138.769 40.3151C139.343 40.5668 139.846 40.921 140.277 41.3778C140.708 41.8346 141.045 42.366 141.287 42.972C141.53 43.578 141.651 44.2306 141.651 44.9297C141.651 45.6196 141.53 46.2675 141.287 46.8735C141.045 47.4795 140.708 48.0109 140.277 48.4677C139.855 48.9245 139.357 49.2834 138.782 49.5444C138.217 49.7961 137.606 49.922 136.951 49.922ZM136.924 48.6634C137.597 48.6634 138.185 48.505 138.688 48.188C139.2 47.8617 139.604 47.4189 139.9 46.8595C140.196 46.2908 140.345 45.6429 140.345 44.9158C140.345 44.3751 140.259 43.881 140.089 43.4335C139.918 42.9767 139.68 42.5805 139.375 42.2448C139.07 41.9092 138.711 41.6529 138.298 41.4757C137.885 41.2893 137.427 41.1961 136.924 41.1961C136.259 41.1961 135.671 41.3545 135.16 41.6715C134.657 41.9885 134.257 42.4266 133.961 42.986C133.674 43.5453 133.53 44.1886 133.53 44.9158C133.53 45.4565 133.611 45.9599 133.773 46.426C133.943 46.8828 134.177 47.279 134.473 47.6147C134.778 47.9409 135.137 48.1973 135.55 48.3838C135.972 48.5702 136.43 48.6634 136.924 48.6634Z" fill="#8CA1C6"/>
<path d="M145.407 49.7822V40.0773H146.673V49.7822H145.407ZM146.269 49.7822V48.5795H151.279V49.7822H146.269Z" fill="#8CA1C6"/>
<path d="M158.298 49.922C157.634 49.922 157.014 49.7961 156.44 49.5444C155.865 49.2834 155.362 48.9245 154.932 48.4677C154.501 48.0015 154.164 47.4655 153.922 46.8595C153.688 46.2536 153.571 45.6056 153.571 44.9158C153.571 44.2166 153.688 43.5687 153.922 42.972C154.164 42.366 154.496 41.8346 154.918 41.3778C155.349 40.921 155.847 40.5668 156.413 40.3151C156.988 40.0634 157.607 39.9375 158.271 39.9375C158.936 39.9375 159.551 40.0634 160.116 40.3151C160.691 40.5668 161.194 40.921 161.625 41.3778C162.056 41.8346 162.392 42.366 162.635 42.972C162.877 43.578 162.998 44.2306 162.998 44.9297C162.998 45.6196 162.877 46.2675 162.635 46.8735C162.392 47.4795 162.056 48.0109 161.625 48.4677C161.203 48.9245 160.704 49.2834 160.13 49.5444C159.564 49.7961 158.954 49.922 158.298 49.922ZM158.271 48.6634C158.945 48.6634 159.533 48.505 160.036 48.188C160.547 47.8617 160.951 47.4189 161.248 46.8595C161.544 46.2908 161.692 45.6429 161.692 44.9158C161.692 44.3751 161.607 43.881 161.436 43.4335C161.266 42.9767 161.028 42.5805 160.722 42.2448C160.417 41.9092 160.058 41.6529 159.645 41.4757C159.232 41.2893 158.774 41.1961 158.271 41.1961C157.607 41.1961 157.019 41.3545 156.507 41.6715C156.004 41.9885 155.605 42.4266 155.309 42.986C155.021 43.5453 154.878 44.1886 154.878 44.9158C154.878 45.4565 154.958 45.9599 155.12 46.426C155.291 46.8828 155.524 47.279 155.82 47.6147C156.126 47.9409 156.485 48.1973 156.898 48.3838C157.32 48.5702 157.778 48.6634 158.271 48.6634Z" fill="#8CA1C6"/>
<path d="M171.063 49.922C170.407 49.922 169.792 49.7961 169.218 49.5444C168.652 49.2834 168.154 48.9245 167.723 48.4677C167.301 48.0109 166.969 47.4795 166.726 46.8735C166.484 46.2675 166.363 45.615 166.363 44.9158C166.363 44.2166 166.484 43.5687 166.726 42.972C166.969 42.366 167.305 41.8346 167.736 41.3778C168.167 40.921 168.67 40.5668 169.245 40.3151C169.828 40.0634 170.461 39.9375 171.143 39.9375C171.889 39.9375 172.575 40.0867 173.204 40.385C173.832 40.6833 174.358 41.1121 174.78 41.6715L173.904 42.5805C173.608 42.133 173.217 41.7927 172.732 41.5596C172.248 41.3172 171.718 41.1961 171.143 41.1961C170.461 41.1961 169.855 41.3545 169.325 41.6715C168.805 41.9885 168.396 42.4266 168.1 42.986C167.812 43.5453 167.669 44.1886 167.669 44.9158C167.669 45.6522 167.817 46.3002 168.113 46.8595C168.41 47.4189 168.809 47.857 169.312 48.174C169.815 48.491 170.389 48.6495 171.036 48.6495C171.691 48.6495 172.257 48.5189 172.732 48.2579C173.217 47.9969 173.59 47.6147 173.85 47.1112C174.111 46.5985 174.241 45.9739 174.241 45.2374L175.008 45.8107H170.968V44.6081H175.547V44.8039C175.547 45.9319 175.354 46.8782 174.968 47.6426C174.591 48.3978 174.061 48.9664 173.379 49.3487C172.706 49.7309 171.933 49.922 171.063 49.922Z" fill="#8CA1C6"/>
<path d="M181.628 45.8387L177.951 40.0773H179.419L182.382 44.7899H181.722L184.698 40.0773H186.139L182.436 45.8387H181.628ZM181.412 49.7822V44.9717H182.678V49.7822H181.412Z" fill="#8CA1C6"/>
</svg>
