<svg width="276" height="72" viewBox="0 0 276 72" fill="none" xmlns="http://www.w3.org/2000/svg">
<path d="M28.4174 27.3952C26.6264 27.3952 25.012 26.9916 23.5741 26.1844C22.1362 25.3519 21.0011 24.2294 20.1686 22.8167C19.3361 21.4041 18.9199 19.8023 18.9199 18.0112C18.9199 16.2454 19.3235 14.6562 20.1308 13.2435C20.9632 11.8309 22.0731 10.721 23.4606 9.91374C24.8732 9.08129 26.4498 8.66507 28.1904 8.66507C29.8553 8.66507 31.3184 9.04345 32.5797 9.80023C33.8662 10.557 34.8626 11.6039 35.569 12.9408C36.3005 14.2778 36.6663 15.7914 36.6663 17.4815C36.6663 17.7337 36.6537 18.0112 36.6284 18.3139C36.6032 18.5914 36.5528 18.9194 36.4771 19.2977H21.3038V16.4598H34.6608L33.4121 17.5572C33.4121 16.3463 33.1977 15.3247 32.7689 14.4922C32.3401 13.6345 31.7346 12.9787 30.9526 12.5246C30.1706 12.0453 29.2247 11.8057 28.1147 11.8057C26.9543 11.8057 25.9327 12.0579 25.0498 12.5625C24.1669 13.067 23.4858 13.7733 23.0065 14.6814C22.5272 15.5895 22.2876 16.6616 22.2876 17.8977C22.2876 19.159 22.5398 20.2689 23.0443 21.2275C23.5489 22.1609 24.2678 22.8924 25.2011 23.4222C26.1345 23.9267 27.2066 24.1789 28.4174 24.1789C29.4265 24.1789 30.3472 24.0024 31.1797 23.6492C32.0373 23.296 32.7689 22.7663 33.3743 22.06L35.569 24.2925C34.7113 25.3015 33.6518 26.0709 32.3905 26.6006C31.1544 27.1304 29.8301 27.3952 28.4174 27.3952Z" fill="#8CA1C6"/>
<path d="M53.7366 27.3952C52.0717 27.3952 50.5707 26.9916 49.2338 26.1844C47.8968 25.3519 46.8373 24.2294 46.0553 22.8167C45.2985 21.4041 44.9201 19.8149 44.9201 18.0491C44.9201 16.2833 45.2985 14.694 46.0553 13.2814C46.8373 11.8687 47.8968 10.7462 49.2338 9.91374C50.5707 9.08129 52.059 8.66507 53.6987 8.66507C55.0861 8.66507 56.3096 8.95516 57.3691 9.53535C58.4538 10.0903 59.3115 10.8723 59.9421 11.8814C60.598 12.8652 60.9638 14.0129 61.0394 15.3247V20.7356C60.9638 22.0221 60.598 23.1699 59.9421 24.1789C59.3115 25.188 58.4538 25.9826 57.3691 26.5628C56.3096 27.1177 55.0988 27.3952 53.7366 27.3952ZM54.2663 24.1789C55.9564 24.1789 57.3186 23.6114 58.3529 22.4762C59.3871 21.3158 59.9043 19.8401 59.9043 18.0491C59.9043 16.813 59.6646 15.7409 59.1853 14.8328C58.7313 13.8994 58.0754 13.1805 57.2177 12.676C56.3853 12.1462 55.4015 11.8814 54.2663 11.8814C53.1311 11.8814 52.1221 12.1462 51.2392 12.676C50.3815 13.2057 49.7004 13.9373 49.1959 14.8706C48.6914 15.7787 48.4391 16.8256 48.4391 18.0112C48.4391 19.2221 48.6914 20.2942 49.1959 21.2275C49.7004 22.1356 50.3815 22.8546 51.2392 23.3843C52.1221 23.9141 53.1311 24.1789 54.2663 24.1789ZM59.7151 34.5467V22.514L60.3205 18.1247L59.7151 13.7733V9.04345H63.1206V34.5467H59.7151Z" fill="#8CA1C6"/>
<path d="M81.0186 27.3952C79.5555 27.3952 78.2311 27.0673 77.0455 26.4114C75.8851 25.7303 74.977 24.797 74.3211 23.6114C73.6652 22.4257 73.3373 21.0509 73.3373 19.4869V9.04345H76.7428V19.3356C76.7428 20.3194 76.9068 21.1771 77.2347 21.9086C77.5879 22.6149 78.0924 23.1573 78.7482 23.5357C79.4041 23.9141 80.1735 24.1033 81.0564 24.1033C82.3934 24.1033 83.4402 23.687 84.197 22.8546C84.9538 21.9969 85.3322 20.8239 85.3322 19.3356V9.04345H88.7377V19.4869C88.7377 21.0509 88.4097 22.4257 87.7539 23.6114C87.098 24.797 86.1899 25.7303 85.0295 26.4114C83.8943 27.0673 82.5573 27.3952 81.0186 27.3952Z" fill="#8CA1C6"/>
<path d="M99.0156 27.0168V9.04345H102.421V27.0168H99.0156ZM100.718 5.44877C100.088 5.44877 99.5706 5.24697 99.167 4.84336C98.7633 4.41452 98.5615 3.88477 98.5615 3.25413C98.5615 2.64871 98.7633 2.14419 99.167 1.74058C99.5706 1.31174 100.088 1.09732 100.718 1.09732C101.349 1.09732 101.866 1.31174 102.27 1.74058C102.673 2.14419 102.875 2.64871 102.875 3.25413C102.875 3.88477 102.673 4.41452 102.27 4.84336C101.866 5.24697 101.349 5.44877 100.718 5.44877Z" fill="#8CA1C6"/>
<path d="M113.116 27.0168V0H116.521V27.0168H113.116Z" fill="#8CA1C6"/>
<path d="M127.217 27.0168V9.04345H130.623V27.0168H127.217ZM128.92 5.44877C128.289 5.44877 127.772 5.24697 127.369 4.84336C126.965 4.41452 126.763 3.88477 126.763 3.25413C126.763 2.64871 126.965 2.14419 127.369 1.74058C127.772 1.31174 128.289 1.09732 128.92 1.09732C129.551 1.09732 130.068 1.31174 130.471 1.74058C130.875 2.14419 131.077 2.64871 131.077 3.25413C131.077 3.88477 130.875 4.41452 130.471 4.84336C130.068 5.24697 129.551 5.44877 128.92 5.44877Z" fill="#8CA1C6"/>
<path d="M150.777 27.3952C149.415 27.3952 148.179 27.1177 147.069 26.5628C145.984 25.9826 145.114 25.188 144.458 24.1789C143.802 23.1699 143.436 22.0221 143.36 20.7356V15.3247C143.436 14.0129 143.802 12.8652 144.458 11.8814C145.139 10.8723 146.022 10.0903 147.107 9.53535C148.216 8.95516 149.44 8.66507 150.777 8.66507C152.417 8.66507 153.892 9.08129 155.204 9.91374C156.541 10.7462 157.588 11.8687 158.345 13.2814C159.101 14.694 159.48 16.2833 159.48 18.0491C159.48 19.8149 159.101 21.4041 158.345 22.8167C157.588 24.2294 156.541 25.3519 155.204 26.1844C153.892 26.9916 152.417 27.3952 150.777 27.3952ZM150.209 24.1789C151.344 24.1789 152.341 23.9141 153.199 23.3843C154.056 22.8546 154.737 22.1356 155.242 21.2275C155.746 20.2942 155.999 19.2221 155.999 18.0112C155.999 16.8256 155.746 15.7661 155.242 14.8328C154.737 13.8994 154.056 13.1805 153.199 12.676C152.341 12.1462 151.357 11.8814 150.247 11.8814C149.112 11.8814 148.116 12.1462 147.258 12.676C146.4 13.1805 145.732 13.8994 145.252 14.8328C144.773 15.7661 144.534 16.8382 144.534 18.0491C144.534 19.2347 144.761 20.2942 145.215 21.2275C145.694 22.1356 146.362 22.8546 147.22 23.3843C148.103 23.9141 149.099 24.1789 150.209 24.1789ZM141.317 27.0168V0H144.723V13.4327L144.079 17.7842L144.723 22.1735V27.0168H141.317Z" fill="#8CA1C6"/>
<path d="M169.016 27.0168V9.04345H172.422V27.0168H169.016ZM172.422 16.7625L171.135 16.195C171.135 13.8994 171.665 12.0705 172.725 10.7084C173.784 9.34616 175.31 8.66507 177.303 8.66507C178.211 8.66507 179.031 8.82903 179.763 9.15697C180.494 9.45968 181.175 9.97681 181.806 10.7084L179.573 13.0165C179.195 12.6129 178.779 12.3228 178.325 12.1462C177.871 11.9696 177.341 11.8814 176.735 11.8814C175.474 11.8814 174.44 12.285 173.633 13.0922C172.825 13.8994 172.422 15.1229 172.422 16.7625Z" fill="#8CA1C6"/>
<path d="M189.917 27.0168V9.04345H193.323V27.0168H189.917ZM191.62 5.44877C190.989 5.44877 190.472 5.24697 190.069 4.84336C189.665 4.41452 189.463 3.88477 189.463 3.25413C189.463 2.64871 189.665 2.14419 190.069 1.74058C190.472 1.31174 190.989 1.09732 191.62 1.09732C192.251 1.09732 192.768 1.31174 193.171 1.74058C193.575 2.14419 193.777 2.64871 193.777 3.25413C193.777 3.88477 193.575 4.41452 193.171 4.84336C192.768 5.24697 192.251 5.44877 191.62 5.44877Z" fill="#8CA1C6"/>
<path d="M211.244 27.3952C209.781 27.3952 208.457 27.0673 207.271 26.4114C206.111 25.7303 205.203 24.797 204.547 23.6114C203.891 22.4257 203.563 21.0509 203.563 19.4869V9.04345H206.969V19.3356C206.969 20.3194 207.133 21.1771 207.46 21.9086C207.814 22.6149 208.318 23.1573 208.974 23.5357C209.63 23.9141 210.399 24.1033 211.282 24.1033C212.619 24.1033 213.666 23.687 214.423 22.8546C215.18 21.9969 215.558 20.8239 215.558 19.3356V9.04345H218.963V19.4869C218.963 21.0509 218.635 22.4257 217.98 23.6114C217.324 24.797 216.416 25.7303 215.255 26.4114C214.12 27.0673 212.783 27.3952 211.244 27.3952Z" fill="#8CA1C6"/>
<path d="M229.204 27.0168V9.04345H232.609V27.0168H229.204ZM241.35 27.0168V16.1571C241.35 14.8202 240.934 13.7733 240.101 13.0165C239.294 12.2345 238.272 11.8435 237.036 11.8435C236.204 11.8435 235.46 12.0201 234.804 12.3733C234.148 12.7264 233.618 13.2183 233.214 13.849C232.811 14.4796 232.609 15.2364 232.609 16.1193L231.209 15.4382C231.209 14.076 231.499 12.8904 232.079 11.8814C232.685 10.8723 233.505 10.0903 234.539 9.53535C235.573 8.95516 236.733 8.66507 238.02 8.66507C239.281 8.66507 240.416 8.94255 241.425 9.49752C242.46 10.0525 243.267 10.8345 243.847 11.8435C244.453 12.8525 244.755 14.0508 244.755 15.4382V27.0168H241.35ZM253.496 27.0168V16.1571C253.496 14.8202 253.08 13.7733 252.247 13.0165C251.44 12.2345 250.431 11.8435 249.22 11.8435C248.388 11.8435 247.631 12.0201 246.95 12.3733C246.294 12.7264 245.764 13.2183 245.361 13.849C244.957 14.4796 244.755 15.2364 244.755 16.1193L242.825 15.4382C242.901 14.0508 243.267 12.8652 243.923 11.8814C244.604 10.8723 245.474 10.0903 246.534 9.53535C247.593 8.95516 248.754 8.66507 250.015 8.66507C251.327 8.66507 252.5 8.94255 253.534 9.49752C254.568 10.0525 255.388 10.8345 255.993 11.8435C256.624 12.8525 256.939 14.0634 256.939 15.476V27.0168H253.496Z" fill="#8CA1C6"/>
<path d="M30.5244 64.121C29.1622 64.121 27.9262 63.8435 26.8162 63.2886C25.7315 62.7084 24.8612 61.9138 24.2054 60.9047C23.5495 59.8957 23.1837 58.7479 23.108 57.4614V52.0505C23.1837 50.7387 23.5495 49.591 24.2054 48.6072C24.8865 47.5981 25.7694 46.8161 26.8541 46.2612C27.964 45.681 29.1875 45.3909 30.5244 45.3909C32.1641 45.3909 33.6398 45.8071 34.9516 46.6395C36.2885 47.472 37.3354 48.5945 38.0922 50.0072C38.849 51.4198 39.2273 53.0091 39.2273 54.7749C39.2273 56.5407 38.849 58.1299 38.0922 59.5425C37.3354 60.9552 36.2885 62.0777 34.9516 62.9102C33.6398 63.7174 32.1641 64.121 30.5244 64.121ZM29.9569 60.9047C31.092 60.9047 32.0884 60.6399 32.9461 60.1101C33.8038 59.5804 34.4849 58.8614 34.9894 57.9533C35.4939 57.02 35.7462 55.9479 35.7462 54.737C35.7462 53.5514 35.4939 52.4919 34.9894 51.5586C34.4849 50.6252 33.8038 49.9063 32.9461 49.4018C32.0884 48.872 31.1046 48.6072 29.9947 48.6072C28.8595 48.6072 27.8631 48.872 27.0054 49.4018C26.1478 49.9063 25.4793 50.6252 25 51.5586C24.5207 52.4919 24.281 53.564 24.281 54.7749C24.281 55.9605 24.5081 57.02 24.9621 57.9533C25.4414 58.8614 26.1099 59.5804 26.9676 60.1101C27.8505 60.6399 28.8469 60.9047 29.9569 60.9047ZM21.0648 71.2725V45.7693H24.4702V50.4991L23.827 54.8505L24.4702 59.2398V71.2725H21.0648Z" fill="#8CA1C6"/>
<path d="M54.4775 64.121C53.4685 64.121 52.5099 63.9949 51.6018 63.7426C50.7189 63.4652 49.899 63.0868 49.1423 62.6075C48.3855 62.103 47.7296 61.5102 47.1747 60.8291L49.3693 58.6344C50.0252 59.4416 50.7819 60.0471 51.6396 60.4507C52.4973 60.8291 53.4559 61.0183 54.5154 61.0183C55.5748 61.0183 56.3947 60.8417 56.9749 60.4885C57.5551 60.1101 57.8452 59.593 57.8452 58.9371C57.8452 58.2813 57.6055 57.7767 57.1262 57.4236C56.6722 57.0452 56.0794 56.7425 55.3478 56.5154C54.6163 56.2632 53.8343 56.0235 53.0018 55.7965C52.1946 55.5443 51.4252 55.2289 50.6937 54.8505C49.9621 54.4722 49.3567 53.955 48.8774 53.2992C48.4233 52.6433 48.1963 51.773 48.1963 50.6883C48.1963 49.6036 48.4612 48.6702 48.9909 47.8882C49.5207 47.081 50.2522 46.463 51.1856 46.0341C52.1441 45.6053 53.2919 45.3909 54.6289 45.3909C56.0415 45.3909 57.2902 45.6431 58.3749 46.1476C59.4848 46.6269 60.393 47.3585 61.0993 48.3423L58.9047 50.5369C58.4001 49.8811 57.7695 49.3765 57.0127 49.0234C56.2812 48.6702 55.4487 48.4936 54.5154 48.4936C53.5316 48.4936 52.7748 48.6702 52.245 49.0234C51.7405 49.3513 51.4883 49.818 51.4883 50.4234C51.4883 51.0288 51.7153 51.4955 52.1694 51.8234C52.6234 52.1514 53.2162 52.4289 53.9478 52.6559C54.7046 52.8829 55.4866 53.1226 56.2938 53.3748C57.101 53.6019 57.8704 53.9172 58.6019 54.3208C59.3335 54.7244 59.9263 55.2668 60.3804 55.9479C60.8597 56.629 61.0993 57.5245 61.0993 58.6344C61.0993 60.3245 60.4939 61.6615 59.283 62.6453C58.0974 63.6291 56.4956 64.121 54.4775 64.121Z" fill="#8CA1C6"/>
<path d="M76.4905 63.894L68.6957 45.7693H72.4796L78.2689 59.9588H77.0581L83.1501 45.7693H86.934L78.5338 63.894H76.4905ZM71.3444 71.2725L76.6418 60.4128L78.5338 63.894L75.1283 71.2725H71.3444Z" fill="#8CA1C6"/>
<path d="M102.913 64.121C101.148 64.121 99.5458 63.7048 98.1079 62.8724C96.6953 62.0399 95.5727 60.9174 94.7403 59.5047C93.933 58.0668 93.5294 56.4776 93.5294 54.737C93.5294 52.9712 93.933 51.382 94.7403 49.9694C95.5727 48.5567 96.6953 47.4468 98.1079 46.6395C99.5458 45.8071 101.148 45.3909 102.913 45.3909C104.301 45.3909 105.587 45.6557 106.773 46.1855C107.959 46.69 108.98 47.4342 109.838 48.418L107.568 50.6883C107.013 50.0324 106.332 49.5405 105.524 49.2126C104.742 48.8594 103.872 48.6828 102.913 48.6828C101.778 48.6828 100.769 48.9477 99.8863 49.4774C99.0034 49.982 98.3097 50.6883 97.8052 51.5964C97.3007 52.5045 97.0484 53.5514 97.0484 54.737C97.0484 55.9226 97.3007 56.9695 97.8052 57.8776C98.3097 58.7858 99.0034 59.5047 99.8863 60.0344C100.769 60.5642 101.778 60.8291 102.913 60.8291C103.872 60.8291 104.742 60.6651 105.524 60.3372C106.332 59.984 107.025 59.4795 107.605 58.8236L109.838 61.0939C109.005 62.0525 107.984 62.7967 106.773 63.3264C105.587 63.8562 104.301 64.121 102.913 64.121Z" fill="#8CA1C6"/>
<path d="M131.605 63.7426V53.2613C131.605 51.8991 131.176 50.7766 130.318 49.8937C129.461 49.0108 128.351 48.5693 126.989 48.5693C126.08 48.5693 125.273 48.7711 124.567 49.1747C123.861 49.5784 123.306 50.1333 122.902 50.8396C122.498 51.546 122.297 52.3532 122.297 53.2613L120.897 52.4667C120.897 51.1045 121.199 49.8937 121.805 48.8342C122.41 47.7747 123.255 46.9423 124.34 46.3368C125.425 45.7062 126.648 45.3909 128.01 45.3909C129.372 45.3909 130.571 45.6936 131.605 46.299C132.664 46.9044 133.497 47.7495 134.102 48.8342C134.708 49.9189 135.01 51.1676 135.01 52.5802V63.7426H131.605ZM118.891 63.7426V36.7258H122.297V63.7426H118.891Z" fill="#8CA1C6"/>
<path d="M153.508 64.121C151.742 64.121 150.153 63.7048 148.74 62.8724C147.328 62.0399 146.205 60.9174 145.373 59.5047C144.54 58.0668 144.124 56.465 144.124 54.6992C144.124 52.9586 144.54 51.3946 145.373 50.0072C146.205 48.5945 147.328 47.472 148.74 46.6395C150.153 45.8071 151.742 45.3909 153.508 45.3909C155.249 45.3909 156.825 45.8071 158.238 46.6395C159.676 47.4468 160.811 48.5567 161.643 49.9694C162.476 51.382 162.892 52.9586 162.892 54.6992C162.892 56.465 162.476 58.0668 161.643 59.5047C160.811 60.9174 159.676 62.0399 158.238 62.8724C156.825 63.7048 155.249 64.121 153.508 64.121ZM153.508 60.8291C154.643 60.8291 155.652 60.5642 156.535 60.0344C157.418 59.5047 158.112 58.7858 158.616 57.8776C159.121 56.9443 159.373 55.8848 159.373 54.6992C159.373 53.5388 159.108 52.5045 158.578 51.5964C158.074 50.6883 157.38 49.982 156.497 49.4774C155.64 48.9477 154.643 48.6828 153.508 48.6828C152.373 48.6828 151.364 48.9477 150.481 49.4774C149.598 49.982 148.904 50.6883 148.4 51.5964C147.895 52.5045 147.643 53.5388 147.643 54.6992C147.643 55.8848 147.895 56.9443 148.4 57.8776C148.904 58.7858 149.598 59.5047 150.481 60.0344C151.364 60.5642 152.373 60.8291 153.508 60.8291Z" fill="#8CA1C6"/>
<path d="M172.405 63.7426V36.7258H175.81V63.7426H172.405Z" fill="#8CA1C6"/>
<path d="M194.68 64.121C192.914 64.121 191.325 63.7048 189.912 62.8724C188.499 62.0399 187.377 60.9174 186.544 59.5047C185.712 58.0668 185.296 56.465 185.296 54.6992C185.296 52.9586 185.712 51.3946 186.544 50.0072C187.377 48.5945 188.499 47.472 189.912 46.6395C191.325 45.8071 192.914 45.3909 194.68 45.3909C196.42 45.3909 197.997 45.8071 199.41 46.6395C200.847 47.4468 201.983 48.5567 202.815 49.9694C203.647 51.382 204.064 52.9586 204.064 54.6992C204.064 56.465 203.647 58.0668 202.815 59.5047C201.983 60.9174 200.847 62.0399 199.41 62.8724C197.997 63.7048 196.42 64.121 194.68 64.121ZM194.68 60.8291C195.815 60.8291 196.824 60.5642 197.707 60.0344C198.59 59.5047 199.283 58.7858 199.788 57.8776C200.292 56.9443 200.545 55.8848 200.545 54.6992C200.545 53.5388 200.28 52.5045 199.75 51.5964C199.246 50.6883 198.552 49.982 197.669 49.4774C196.811 48.9477 195.815 48.6828 194.68 48.6828C193.545 48.6828 192.536 48.9477 191.653 49.4774C190.77 49.982 190.076 50.6883 189.571 51.5964C189.067 52.5045 188.815 53.5388 188.815 54.6992C188.815 55.8848 189.067 56.9443 189.571 57.8776C190.076 58.7858 190.77 59.5047 191.653 60.0344C192.536 60.5642 193.545 60.8291 194.68 60.8291Z" fill="#8CA1C6"/>
<path d="M221.031 71.6509C219.189 71.6509 217.55 71.3104 216.112 70.6293C214.699 69.9482 213.564 68.9896 212.706 67.7535L214.901 65.5211C215.632 66.4544 216.503 67.1607 217.512 67.64C218.521 68.1445 219.719 68.3968 221.107 68.3968C222.948 68.3968 224.398 67.9049 225.458 66.9211C226.543 65.9625 227.085 64.6634 227.085 63.0237V58.5587L227.69 54.51L227.085 50.4991V45.7693H230.49V63.0237C230.49 64.7391 230.087 66.24 229.28 67.5265C228.498 68.813 227.388 69.8221 225.95 70.5536C224.537 71.2852 222.898 71.6509 221.031 71.6509ZM221.031 63.4399C219.391 63.4399 217.915 63.0489 216.604 62.2669C215.317 61.4849 214.296 60.4128 213.539 59.0506C212.782 57.6632 212.404 56.1118 212.404 54.3965C212.404 52.6811 212.782 51.155 213.539 49.818C214.296 48.4558 215.317 47.3837 216.604 46.6017C217.915 45.7945 219.391 45.3909 221.031 45.3909C222.443 45.3909 223.692 45.6684 224.777 46.2233C225.862 46.7783 226.719 47.5603 227.35 48.5693C228.006 49.5531 228.359 50.7135 228.409 52.0505V56.8182C228.334 58.1299 227.968 59.2903 227.312 60.2993C226.681 61.2831 225.824 62.0525 224.739 62.6075C223.654 63.1624 222.418 63.4399 221.031 63.4399ZM221.712 60.2236C222.822 60.2236 223.793 59.984 224.625 59.5047C225.483 59.0254 226.139 58.3569 226.593 57.4993C227.047 56.6163 227.274 55.5947 227.274 54.4343C227.274 53.2739 227.035 52.2649 226.555 51.4072C226.101 50.5243 225.458 49.8432 224.625 49.3639C223.793 48.8594 222.809 48.6072 221.674 48.6072C220.539 48.6072 219.542 48.8594 218.685 49.3639C217.827 49.8432 217.146 50.5243 216.642 51.4072C216.162 52.2649 215.923 53.2613 215.923 54.3965C215.923 55.5316 216.162 56.5407 216.642 57.4236C217.146 58.3065 217.827 59.0002 218.685 59.5047C219.568 59.984 220.577 60.2236 221.712 60.2236Z" fill="#8CA1C6"/>
<path d="M247.068 63.894L239.273 45.7693H243.057L248.846 59.9588H247.635L253.727 45.7693H257.511L249.111 63.894H247.068ZM241.922 71.2725L247.219 60.4128L249.111 63.894L245.705 71.2725H241.922Z" fill="#8CA1C6"/>
<path fill-rule="evenodd" clip-rule="evenodd" d="M276 37.0301L-2.91879e-07 37.0301L0 33.6914L276 33.6914L276 37.0301Z" fill="#8CA1C6"/>
</svg>
