<svg width="276" height="95" viewBox="0 0 276 95" fill="none" xmlns="http://www.w3.org/2000/svg">
<path d="M156.368 15.5156C159.993 15.5156 162.856 16.5662 164.957 18.6672C167.058 20.7683 168.109 24.0815 168.109 28.6069V53.8891H164.68V28.7455C164.68 25.2591 163.883 22.6962 162.29 21.0569C160.697 19.4176 158.596 18.598 155.987 18.598C152.408 18.598 149.603 19.6485 147.571 21.7496C145.563 23.8276 144.558 27.1062 144.558 31.5854V53.8891H141.095V28.7455C141.095 26.4135 140.725 24.5087 139.987 23.031C139.271 21.5302 138.267 20.422 136.974 19.7062C135.681 18.9674 134.157 18.598 132.402 18.598C130.07 18.598 128.05 19.0828 126.341 20.0525C124.633 20.9992 123.317 22.4769 122.393 24.4856C121.469 26.4712 121.008 28.9994 121.008 32.0702V53.8891H117.51V16.2429H120.35L120.869 22.4076H121.077C121.7 21.1839 122.532 20.0525 123.571 19.0136C124.61 17.9746 125.891 17.1318 127.415 16.4853C128.962 15.8389 130.774 15.5156 132.852 15.5156C135.554 15.5156 137.839 16.1275 139.71 17.3512C141.603 18.5518 142.919 20.3412 143.658 22.7193H143.9C144.916 20.4566 146.486 18.6903 148.61 17.4204C150.758 16.1506 153.343 15.5156 156.368 15.5156Z" fill="#8CA1C6"/>
<path d="M185.821 16.2429V53.8891H182.323V16.2429H185.821ZM184.124 2.32042C185.002 2.32042 185.648 2.58594 186.064 3.11698C186.479 3.62493 186.687 4.31759 186.687 5.19496C186.687 6.07233 186.479 6.76499 186.064 7.27295C185.648 7.7809 185.002 8.03487 184.124 8.03487C183.293 8.03487 182.67 7.7809 182.254 7.27295C181.839 6.76499 181.631 6.07233 181.631 5.19496C181.631 4.31759 181.839 3.62493 182.254 3.11698C182.67 2.58594 183.293 2.32042 184.124 2.32042Z" fill="#8CA1C6"/>
<path d="M217.11 15.5156C221.336 15.5156 224.58 16.6239 226.842 18.8404C229.105 21.0569 230.236 24.5318 230.236 29.2649V53.8891H226.773V29.4727C226.773 25.7324 225.919 22.9848 224.21 21.2301C222.502 19.4753 220.02 18.598 216.764 18.598C212.631 18.598 209.468 19.8101 207.275 22.2344C205.104 24.6357 204.019 28.2721 204.019 33.1439V53.8891H200.521V16.2429H203.361L203.88 23.1003H204.088C204.758 21.6918 205.67 20.422 206.824 19.2906C208.002 18.1362 209.445 17.2242 211.153 16.5546C212.862 15.8619 214.848 15.5156 217.11 15.5156Z" fill="#8CA1C6"/>
<path d="M258.2 54.5817C253.052 54.5817 249.127 52.9655 246.425 49.7331C243.747 46.4776 242.408 41.7444 242.408 35.5335C242.408 29.0225 243.828 24.0584 246.668 20.6413C249.507 17.2242 253.467 15.5156 258.547 15.5156C260.717 15.5156 262.599 15.8504 264.192 16.52C265.808 17.1895 267.159 18.1016 268.244 19.256C269.352 20.3873 270.207 21.6803 270.807 23.1349H271.084C270.992 21.9112 270.922 20.5951 270.876 19.1867C270.83 17.7783 270.807 16.4853 270.807 15.3078V0H274.305V53.8891H271.465L271.015 46.9971H270.807C270.183 48.3824 269.318 49.6523 268.209 50.8067C267.124 51.9612 265.762 52.8847 264.123 53.5774C262.483 54.2469 260.509 54.5817 258.2 54.5817ZM258.581 51.534C263.014 51.534 266.166 50.1602 268.036 47.4127C269.906 44.642 270.841 40.6939 270.841 35.5682V35.014C270.841 29.7036 269.906 25.64 268.036 22.8232C266.166 19.9833 263.118 18.5633 258.893 18.5633C254.714 18.5633 251.516 20.0179 249.3 22.9271C247.106 25.8363 246.01 30.0615 246.01 35.6028C246.01 40.8208 247.037 44.7806 249.092 47.4819C251.17 50.1833 254.333 51.534 258.581 51.534Z" fill="#8CA1C6"/>
<path d="M141.693 71.5878C144.143 71.5878 145.991 72.2307 147.236 73.5165C148.481 74.7887 149.104 76.8392 149.104 79.668V94.245H145.774V79.8304C145.774 78.0303 145.382 76.6836 144.597 75.7903C143.825 74.8835 142.675 74.4301 141.145 74.4301C138.993 74.4301 137.43 75.0527 136.456 76.2979C135.481 77.5431 134.994 79.377 134.994 81.7997V94.245H131.644V79.8304C131.644 78.6258 131.468 77.6243 131.116 76.8257C130.778 76.0272 130.263 75.4316 129.573 75.0391C128.896 74.6331 128.037 74.4301 126.995 74.4301C125.519 74.4301 124.335 74.7346 123.442 75.3437C122.549 75.9527 121.899 76.8595 121.493 78.0641C121.1 79.2552 120.904 80.7237 120.904 82.4697V94.245H117.534V71.9938H120.254L120.762 75.1406H120.945C121.391 74.3692 121.953 73.7195 122.63 73.1916C123.307 72.6638 124.064 72.2645 124.904 71.9938C125.743 71.7231 126.636 71.5878 127.584 71.5878C129.275 71.5878 130.69 71.9058 131.827 72.542C132.977 73.1646 133.809 74.1188 134.324 75.4046H134.507C135.237 74.1188 136.239 73.1646 137.511 72.542C138.784 71.9058 140.178 71.5878 141.693 71.5878Z" fill="#8CA1C6"/>
<path d="M166.43 71.6284C169.082 71.6284 171.052 72.2239 172.338 73.4149C173.623 74.606 174.266 76.5076 174.266 79.1199V94.245H171.81L171.16 90.956H170.998C170.375 91.7681 169.725 92.4516 169.049 93.0065C168.372 93.5479 167.587 93.9607 166.694 94.245C165.814 94.5156 164.731 94.651 163.445 94.651C162.092 94.651 160.887 94.4141 159.831 93.9404C158.789 93.4667 157.964 92.7494 157.355 91.7884C156.759 90.8274 156.461 89.6093 156.461 88.134C156.461 85.9143 157.341 84.2089 159.101 83.0179C160.86 81.8268 163.54 81.1771 167.14 81.0689L170.977 80.9064V79.5462C170.977 77.6243 170.564 76.2776 169.739 75.5061C168.913 74.7346 167.749 74.3488 166.247 74.3488C165.083 74.3488 163.973 74.518 162.917 74.8564C161.862 75.1948 160.86 75.594 159.913 76.0542L158.877 73.4962C159.879 72.9818 161.029 72.542 162.329 72.1765C163.628 71.8111 164.995 71.6284 166.43 71.6284ZM170.937 83.2818L167.546 83.4239C164.772 83.5322 162.816 83.9856 161.679 84.7842C160.542 85.5827 159.974 86.7129 159.974 88.1746C159.974 89.4469 160.359 90.3875 161.131 90.9966C161.902 91.6057 162.924 91.9102 164.196 91.9102C166.172 91.9102 167.79 91.362 169.049 90.2657C170.307 89.1694 170.937 87.5249 170.937 85.3323V83.2818Z" fill="#8CA1C6"/>
<path d="M190.475 91.8899C191.03 91.8899 191.599 91.8425 192.181 91.7478C192.763 91.653 193.237 91.538 193.602 91.4027V94.0216C193.21 94.1976 192.661 94.3465 191.958 94.4683C191.267 94.5901 190.591 94.651 189.927 94.651C188.75 94.651 187.681 94.448 186.72 94.0419C185.759 93.6224 184.987 92.9185 184.405 91.9305C183.837 90.9425 183.552 89.5755 183.552 87.8295V74.6331H180.385V72.9886L183.573 71.669L184.913 66.8371H186.943V71.9938H193.46V74.6331H186.943V87.728C186.943 89.122 187.261 90.1642 187.897 90.8545C188.547 91.5448 189.406 91.8899 190.475 91.8899Z" fill="#8CA1C6"/>
<path d="M207.375 91.8899C207.93 91.8899 208.498 91.8425 209.08 91.7478C209.662 91.653 210.136 91.538 210.502 91.4027V94.0216C210.109 94.1976 209.561 94.3465 208.857 94.4683C208.167 94.5901 207.49 94.651 206.827 94.651C205.649 94.651 204.58 94.448 203.619 94.0419C202.658 93.6224 201.887 92.9185 201.305 91.9305C200.736 90.9425 200.452 89.5755 200.452 87.8295V74.6331H197.285V72.9886L200.472 71.669L201.812 66.8371H203.842V71.9938H210.359V74.6331H203.842V87.728C203.842 89.122 204.16 90.1642 204.797 90.8545C205.446 91.5448 206.306 91.8899 207.375 91.8899Z" fill="#8CA1C6"/>
<path d="M225.655 71.5878C227.55 71.5878 229.174 72.0073 230.528 72.8465C231.881 73.6856 232.916 74.8632 233.634 76.3791C234.351 77.8814 234.71 79.6409 234.71 81.6576V83.7487H219.341C219.382 86.361 220.031 88.3506 221.29 89.7176C222.549 91.0846 224.322 91.7681 226.609 91.7681C228.017 91.7681 229.262 91.6395 230.345 91.3823C231.428 91.1252 232.551 90.7462 233.715 90.2454V93.2095C232.592 93.7103 231.475 94.0758 230.365 94.3059C229.269 94.5359 227.969 94.651 226.467 94.651C224.329 94.651 222.461 94.2179 220.864 93.3517C219.28 92.4719 218.049 91.1861 217.169 89.4942C216.289 87.8024 215.849 85.7316 215.849 83.2818C215.849 80.8861 216.248 78.8153 217.047 77.0693C217.859 75.3098 218.996 73.9563 220.458 73.0089C221.933 72.0615 223.665 71.5878 225.655 71.5878ZM225.614 74.3488C223.814 74.3488 222.38 74.9376 221.31 76.1151C220.241 77.2927 219.605 78.9371 219.402 81.0486H231.177C231.164 79.7221 230.954 78.5582 230.548 77.5566C230.155 76.5415 229.553 75.7565 228.741 75.2015C227.929 74.6331 226.887 74.3488 225.614 74.3488Z" fill="#8CA1C6"/>
<path d="M252.624 71.5878C253.071 71.5878 253.538 71.6148 254.025 71.669C254.513 71.7096 254.946 71.7705 255.325 71.8517L254.898 74.9782C254.533 74.8835 254.127 74.809 253.68 74.7549C253.233 74.7008 252.814 74.6737 252.421 74.6737C251.528 74.6737 250.682 74.8564 249.884 75.2218C249.099 75.5737 248.408 76.0881 247.813 76.7648C247.217 77.428 246.75 78.2333 246.412 79.1808C246.074 80.1147 245.904 81.1568 245.904 82.3073V94.245H242.514V71.9938H245.316L245.681 76.0948H245.823C246.283 75.2692 246.838 74.518 247.488 73.8413C248.138 73.151 248.889 72.6029 249.742 72.1968C250.608 71.7908 251.569 71.5878 252.624 71.5878Z" fill="#8CA1C6"/>
<path d="M276 88.1543C276 89.5755 275.642 90.7733 274.924 91.7478C274.22 92.7088 273.205 93.4329 271.879 93.9201C270.566 94.4074 268.996 94.651 267.169 94.651C265.612 94.651 264.266 94.5292 263.129 94.2856C261.992 94.0419 260.997 93.6968 260.144 93.2501V90.1439C261.051 90.5906 262.134 90.9966 263.393 91.362C264.651 91.7275 265.937 91.9102 267.25 91.9102C269.172 91.9102 270.566 91.5989 271.432 90.9763C272.299 90.3537 272.732 89.5078 272.732 88.4385C272.732 87.8295 272.556 87.2949 272.204 86.8347C271.865 86.361 271.29 85.9075 270.478 85.4744C269.666 85.0278 268.543 84.5405 267.108 84.0127C265.687 83.4713 264.455 82.9367 263.413 82.4088C262.384 81.8674 261.586 81.211 261.017 80.4395C260.462 79.668 260.185 78.6664 260.185 77.4348C260.185 75.5534 260.943 74.112 262.459 73.1104C263.988 72.0953 265.991 71.5878 268.468 71.5878C269.808 71.5878 271.06 71.7231 272.224 71.9938C273.402 72.251 274.498 72.6029 275.513 73.0495L274.376 75.7497C273.456 75.3572 272.474 75.0256 271.432 74.7549C270.39 74.4842 269.328 74.3488 268.245 74.3488C266.688 74.3488 265.491 74.606 264.651 75.1203C263.826 75.6347 263.413 76.3385 263.413 77.2318C263.413 77.922 263.602 78.4905 263.981 78.9371C264.374 79.3838 264.997 79.8034 265.849 80.1959C266.702 80.5884 267.825 81.0486 269.219 81.5764C270.613 82.0907 271.818 82.6254 272.833 83.1803C273.848 83.7217 274.627 84.3849 275.168 85.1699C275.723 85.9414 276 86.9362 276 88.1543Z" fill="#8CA1C6"/>
<path d="M89.2344 69.352H94.3978L87.6456 62.3351C77.9808 52.2731 64.6089 46.5801 50.575 46.5801H48.9862H45.544H43.8228C29.9213 46.5801 16.5494 52.2731 6.75216 62.3351L0 69.352H5.16341C19.0649 69.352 32.4368 63.6591 42.2341 53.597L47.2651 48.4336C44.3524 66.1746 19.0649 94.2423 19.0649 94.2423H47.3975H75.7301C75.7301 94.2423 50.7074 66.5717 47.5299 48.8308L52.1637 53.7294C61.8286 63.6591 75.2005 69.352 89.2344 69.352Z" fill="#8CA1C6"/>
<path d="M43.0289 36.2531L47.1332 32.0165L51.2374 36.2531C59.1811 44.594 70.3023 49.2279 81.8207 49.2279H86.0574L80.4968 43.4025C72.5531 35.0616 61.4319 30.4277 49.9135 30.4277H48.5895H45.6768H44.3529C32.8345 30.4277 21.8457 35.0616 13.7696 43.4025L8.20898 49.3603H12.4456C23.964 49.3603 35.0852 44.594 43.0289 36.2531Z" fill="#8CA1C6"/>
<path d="M43.8238 21.692L47.1337 18.2497L50.4435 21.692C56.9309 28.4442 65.9338 32.2836 75.3338 32.2836H78.7761L74.2747 27.5174C67.7873 20.7652 58.7844 16.9258 49.3844 16.9258H48.3252H45.9421H44.8829C35.4829 16.9258 26.48 20.7652 19.9926 27.5174L15.4912 32.2836H18.9335C28.3335 32.2836 37.3364 28.4442 43.8238 21.692Z" fill="#8CA1C6"/>
</svg>
